<svg width="47" height="28" viewBox="0 0 47 28" fill="none" xmlns="http://www.w3.org/2000/svg">
<mask id="mask0_9_1592" style="mask-type:luminance" maskUnits="userSpaceOnUse" x="1" y="0" width="46" height="27">
<path d="M46.1987 0.906738H1.24951V26.9067H46.1987V0.906738Z" fill="white"/>
</mask>
<g mask="url(#mask0_9_1592)">
<g opacity="0.8">
<path fill-rule="evenodd" clip-rule="evenodd" d="M12.1519 5.53105C11.4468 2.1819 11.2264 2.04969 9.63997 1.96156V1.38868H16.7349V1.96156C14.7959 2.13783 14.7519 2.13783 15.4569 6.05986L17.7925 18.443L20.5688 5.13444C21.1417 2.40224 20.9213 2.13783 19.1146 2.00562L18.5417 1.96156V1.38868H23.6095V1.96156C22.0671 2.09376 22.0671 2.49037 21.4502 5.39884L16.9112 26.904H16.4705L12.5925 7.6463L8.4942 26.904H8.05353L3.42641 4.34122C3.0298 2.35817 2.94166 2.04969 1.26709 1.96156V1.38868H8.18573V1.96156C6.42302 2.13783 6.37895 2.3141 7.08404 6.05986L9.4637 18.3548L12.1519 5.53105ZM30.6163 26.7718C28.1044 26.7718 26.6061 24.4362 26.0332 24.4362C25.4163 24.4362 24.7112 25.7582 24.4908 26.3311H23.962V18.0463H24.4908C26.0332 22.5853 28.501 26.1548 30.5281 26.1548C31.718 26.1548 32.4671 25.0531 32.4671 23.4226C32.4671 17.4294 24.0942 13.5514 24.0942 6.19207C24.0942 3.19546 26.2095 0.859863 28.501 0.859863C30.5722 0.859863 31.718 2.53444 32.379 2.53444C32.7315 2.53444 32.9959 2.27003 33.4366 1.21241H33.8332V8.61579H33.3044C32.3349 5.0463 30.3519 1.43274 28.4129 1.43274C27.223 1.43274 26.3417 2.53444 26.3417 4.16495C26.3417 9.93783 34.7146 13.5955 34.7146 21.2192C34.7586 24.3921 32.8196 26.7718 30.6163 26.7718ZM39.2976 26.7718C36.7417 26.7718 35.7281 25.1853 35.7281 23.6429C35.7281 22.1006 36.6535 20.5141 38.0637 20.5141C39.562 20.5141 40.179 22.0124 39.4739 23.0701C38.901 23.9955 37.3586 24.0836 37.3586 24.7887C37.3586 25.8904 38.2841 26.1548 39.0332 26.1548C41.2366 26.1548 41.1044 24.7887 41.1044 20.1175V3.59207C41.1044 2.27003 40.7959 1.96156 39.3858 1.96156H38.8569V1.38868H46.2163V1.96156H45.5993C44.8502 1.96156 44.5417 2.27003 44.5417 3.63613V19.8091C44.5417 24.348 41.2807 26.7718 39.2976 26.7718Z" fill="white"/>
</g>
</g>
</svg>
