<svg width="33" height="21" viewBox="0 0 33 21" fill="none" xmlns="http://www.w3.org/2000/svg">
<path d="M29.8882 0.958008H3.88818C2.50747 0.958008 1.38818 2.0773 1.38818 3.45801V17.458C1.38818 18.8387 2.50747 19.958 3.88818 19.958H29.8882C31.2689 19.958 32.3882 18.8387 32.3882 17.458V3.45801C32.3882 2.0773 31.2689 0.958008 29.8882 0.958008Z" fill="white"/>
<path d="M29.8882 0.958008H3.88818C2.50747 0.958008 1.38818 2.0773 1.38818 3.45801V17.458C1.38818 18.8387 2.50747 19.958 3.88818 19.958H29.8882C31.2689 19.958 32.3882 18.8387 32.3882 17.458V3.45801C32.3882 2.0773 31.2689 0.958008 29.8882 0.958008Z" stroke="#EDEEF0"/>
<path d="M18.4476 10.458C18.4476 12.9433 16.4585 14.958 14.0048 14.958C11.5511 14.958 9.56201 12.9433 9.56201 10.458C9.56201 7.97273 11.5511 5.95801 14.0048 5.95801C16.4585 5.95801 18.4476 7.97273 18.4476 10.458Z" fill="#EC0014"/>
<path d="M24.2132 10.458C24.2132 12.9433 22.2241 14.958 19.7704 14.958C17.3167 14.958 15.3276 12.9433 15.3276 10.458C15.3276 7.97273 17.3167 5.95801 19.7704 5.95801C22.2241 5.95801 24.2132 7.97273 24.2132 10.458Z" fill="#00A3E6"/>
<path d="M16.895 7.03125C17.8517 7.85665 18.4585 9.0858 18.4585 10.4585C18.4585 11.8312 17.8517 13.0603 16.895 13.8857C15.9383 13.0603 15.3315 11.8311 15.3315 10.4584C15.3315 9.08577 15.9382 7.85665 16.895 7.03125Z" fill="#7476D0"/>
</svg>
