<svg width="16" height="17" viewBox="0 0 16 17" fill="none" xmlns="http://www.w3.org/2000/svg">
<path d="M8 0.464844C3.58172 0.464844 0 4.04656 0 8.46484C0 12.8831 3.58172 16.4648 8 16.4648C12.4183 16.4648 16 12.8831 16 8.46484C15.9952 4.04853 12.4163 0.469625 8 0.464844ZM10.6667 10.1895C10.9376 10.4388 10.9551 10.8606 10.7057 11.1315C10.4564 11.4024 10.0346 11.4199 9.76372 11.1705C9.75016 11.1581 9.73716 11.145 9.72466 11.1315L8 9.4075L6.276 11.1315C6.01116 11.3872 5.58913 11.3799 5.33334 11.1151C5.08384 10.8567 5.08384 10.4472 5.33334 10.1888L7.05734 8.46484L5.33334 6.74084C5.07756 6.476 5.08491 6.05397 5.34975 5.79818C5.60809 5.54868 6.01766 5.54868 6.276 5.79818L8 7.52218L9.72466 5.79818C9.974 5.52728 10.3958 5.50978 10.6667 5.75912C10.9376 6.00847 10.9551 6.43022 10.7057 6.70112C10.6933 6.71468 10.6802 6.72768 10.6667 6.74018L8.94266 8.46484L10.6667 10.1895Z" fill="#564B5D"/>
</svg>
