<svg width="33" height="21" viewBox="0 0 33 21" fill="none" xmlns="http://www.w3.org/2000/svg">
<path d="M30.8882 0.958008H2.88818C2.05976 0.958008 1.38818 1.62958 1.38818 2.45801V18.458C1.38818 19.2864 2.05976 19.958 2.88818 19.958H30.8882C31.7166 19.958 32.3882 19.2864 32.3882 18.458V2.45801C32.3882 1.62958 31.7166 0.958008 30.8882 0.958008Z" fill="white"/>
<path d="M30.8882 0.958008H2.88818C2.05976 0.958008 1.38818 1.62958 1.38818 2.45801V18.458C1.38818 19.2864 2.05976 19.958 2.88818 19.958H30.8882C31.7166 19.958 32.3882 19.2864 32.3882 18.458V2.45801C32.3882 1.62958 31.7166 0.958008 30.8882 0.958008Z" stroke="#EDEEF0"/>
<mask id="mask0_9_1808" style="mask-type:luminance" maskUnits="userSpaceOnUse" x="5" y="6" width="23" height="10">
<path d="M27.8882 6.45801H5.88818V15.458H27.8882V6.45801Z" fill="white"/>
</mask>
<g mask="url(#mask0_9_1808)">
<path d="M9.91144 7.61833C9.65363 7.92233 9.24113 8.1621 8.82863 8.12785C8.77707 7.71681 8.97902 7.28008 9.21535 7.01034C9.47316 6.69778 9.92433 6.47514 10.2896 6.45801C10.3325 6.88617 10.165 7.30577 9.91144 7.61833ZM10.2853 8.2092C9.688 8.17495 9.17668 8.54745 8.89308 8.54745C8.60519 8.54745 8.17121 8.22633 7.69855 8.23489C7.0841 8.24345 6.51261 8.59027 6.19894 9.1426C5.55441 10.2473 6.03136 11.8828 6.65441 12.782C6.95949 13.2273 7.32472 13.7154 7.80597 13.6982C8.26144 13.6811 8.44191 13.4028 8.99191 13.4028C9.54621 13.4028 9.70519 13.6982 10.1864 13.6897C10.6849 13.6811 10.9986 13.2444 11.3036 12.7991C11.6517 12.2939 11.7935 11.8015 11.8021 11.7758C11.7935 11.7672 10.8396 11.4033 10.831 10.3072C10.8224 9.39093 11.5829 8.9542 11.6173 8.92851C11.1876 8.29483 10.5173 8.22633 10.2853 8.2092ZM13.7357 6.96752V13.6426H14.7755V11.3605H16.215C17.5298 11.3605 18.4536 10.4613 18.4536 9.15972C18.4536 7.85811 17.547 6.96752 16.2494 6.96752H13.7357ZM14.7755 7.84098H15.9744C16.8767 7.84098 17.3923 8.32052 17.3923 9.164C17.3923 10.0075 16.8767 10.4913 15.9701 10.4913H14.7755V7.84098ZM20.3529 13.694C21.006 13.694 21.6118 13.3643 21.8868 12.8419H21.9083V13.6426H22.8708V10.32C22.8708 9.35668 22.0974 8.73584 20.9072 8.73584C19.8029 8.73584 18.9865 9.36524 18.9564 10.2301H19.8931C19.9704 9.81909 20.3529 9.54935 20.8771 9.54935C21.513 9.54935 21.8697 9.84478 21.8697 10.3885V10.7568L20.572 10.8338C19.3646 10.9066 18.7115 11.399 18.7115 12.2553C18.7115 13.1202 19.3861 13.694 20.3529 13.694ZM20.6322 12.9019C20.0779 12.9019 19.7255 12.6364 19.7255 12.2296C19.7255 11.81 20.065 11.566 20.7138 11.5275L21.8697 11.4547V11.8315C21.8697 12.4566 21.3369 12.9019 20.6322 12.9019ZM24.1556 15.458C25.1697 15.458 25.6466 15.0727 26.0634 13.9038L27.8896 8.80007H26.8326L25.6079 12.7434H25.5865L24.3618 8.80007H23.2747L25.0365 13.6597L24.9419 13.9551C24.7829 14.4561 24.5251 14.6488 24.0654 14.6488C23.9837 14.6488 23.8247 14.6402 23.7603 14.6316V15.4323C23.8204 15.4494 24.0783 15.458 24.1556 15.458Z" fill="black"/>
</g>
</svg>
