<svg width="16" height="17" viewBox="0 0 16 17" fill="none" xmlns="http://www.w3.org/2000/svg">
<path d="M8 0.498047C3.58172 0.498047 0 4.07977 0 8.49805C0 12.9163 3.58172 16.498 8 16.498C12.4183 16.498 16 12.9163 16 8.49805C15.9952 4.08174 12.4163 0.502828 8 0.498047ZM10.6667 10.2227C10.9376 10.472 10.9551 10.8938 10.7057 11.1647C10.4564 11.4356 10.0346 11.4531 9.76372 11.2037C9.75016 11.1913 9.73716 11.1782 9.72466 11.1647L8 9.44071L6.276 11.1647C6.01116 11.4204 5.58913 11.4131 5.33334 11.1483C5.08384 10.8899 5.08384 10.4804 5.33334 10.222L7.05734 8.49805L5.33334 6.77405C5.07756 6.50921 5.08491 6.08718 5.34975 5.83139C5.60809 5.58189 6.01766 5.58189 6.276 5.83139L8 7.55539L9.72466 5.83139C9.974 5.56049 10.3958 5.54299 10.6667 5.79233C10.9376 6.04168 10.9551 6.46343 10.7057 6.73433C10.6933 6.74789 10.6802 6.76089 10.6667 6.77339L8.94266 8.49805L10.6667 10.2227Z" fill="#564B5D"/>
</svg>
