<svg width="120" height="20" viewBox="0 0 120 20" fill="none" xmlns="http://www.w3.org/2000/svg">
<mask id="mask0_9_476" style="mask-type:luminance" maskUnits="userSpaceOnUse" x="0" y="0" width="120" height="20">
<path d="M119.712 0.505371H0.289062V19.5054H119.712V0.505371Z" fill="white"/>
</mask>
<g mask="url(#mask0_9_476)">
<g opacity="0.3">
<path d="M16.196 0.547363L10.5924 10.2683L4.98885 0.547363H4.96877H0.289062V19.4871H4.96877V9.92686L8.86517 16.6753L9.56813 17.8804H11.6168L12.5005 16.3138L16.196 9.92686V19.4871H20.8757V0.547363H16.196Z" fill="white"/>
<path d="M32.4057 12.617C32.4057 11.191 31.5019 10.1266 30.1964 10.1266C28.8306 10.1266 27.9068 11.2915 27.9068 12.617C27.9068 14.0029 28.8306 15.1075 30.1964 15.1075C31.5019 15.1075 32.4057 14.043 32.4057 12.617ZM22.9258 12.6572C22.9258 8.51979 25.7577 5.72803 28.6298 5.72803C30.6182 5.72803 31.8835 6.75235 32.6266 7.77666L33.0886 6.08956H37.2862V19.1244H33.0886L32.6266 17.4373C31.8835 18.4817 30.6182 19.486 28.6298 19.486C25.7577 19.506 22.9258 16.7143 22.9258 12.6572Z" fill="white"/>
<path d="M49.4559 6.65192V10.6287C48.532 10.1065 46.8449 9.62444 45.4189 9.62444C44.5955 9.62444 44.1536 9.78512 44.1536 10.1065C44.1536 10.4278 44.6155 10.6287 45.8809 10.9099C48.1303 11.3919 50.3798 12.1953 50.3798 15.0272C50.3798 17.7587 48.2308 19.486 44.3143 19.486C42.3058 19.486 40.6589 19.024 39.5542 18.4215V14.1636C40.7392 14.9469 42.1652 15.5896 44.0933 15.5896C45.0574 15.5896 45.6198 15.4289 45.6198 15.0674C45.6198 14.6456 44.9168 14.505 43.3502 14.1033C41.3418 13.5811 39.3936 12.597 39.3936 10.1466C39.3936 7.5959 41.4824 5.72803 45.1779 5.72803C46.7244 5.72803 48.3714 6.06947 49.4559 6.65192Z" fill="white"/>
<path d="M57.249 7.09359C57.972 6.33038 59.1771 5.70776 60.6031 5.70776C63.3748 5.70776 65.102 7.39486 65.102 10.3272V19.0841H60.1412V11.6126C60.1412 10.5482 59.6792 10.0862 58.7754 10.0862C57.8314 10.0862 57.249 10.7088 57.249 11.5323V19.064H52.2881V0.505859H57.249V7.09359Z" fill="white"/>
<path d="M76.269 12.617C76.269 11.191 75.3652 10.1266 74.0597 10.1266C72.6939 10.1266 71.77 11.2915 71.77 12.617C71.77 14.0029 72.6939 15.1075 74.0597 15.1075C75.3652 15.1075 76.269 14.043 76.269 12.617ZM66.7891 12.6572C66.7891 8.51979 69.621 5.72803 72.4931 5.72803C74.4814 5.72803 75.7468 6.75235 76.4899 7.77666L76.9519 6.08956H81.1495V19.1244H76.9519L76.4899 17.4373C75.7468 18.4817 74.4814 19.486 72.4931 19.486C69.621 19.506 66.7891 16.7143 66.7891 12.6572Z" fill="white"/>
<path d="M88.5212 12.5767C88.5212 14.0228 89.425 15.0672 90.7305 15.0672C92.0761 15.0672 93 13.9826 93 12.5968C93 11.231 92.0761 10.0862 90.7104 10.0862C89.4049 10.0862 88.5212 11.1507 88.5212 12.5767ZM88.5613 7.69613C89.3045 6.59148 90.8309 5.70776 92.4377 5.70776C95.4303 5.70776 97.981 8.39909 97.981 12.5767C97.981 16.7543 95.2093 19.4456 92.2167 19.4456C90.3288 19.4456 89.0233 18.4213 88.3002 17.397L87.8383 19.0841H83.6406V0.505859H88.5814L88.5613 7.69613Z" fill="white"/>
<path d="M104.806 0.505859H99.8652V19.0841H104.806V0.505859Z" fill="white"/>
<path d="M115.052 11.1905C115.032 10.2867 114.43 9.50338 113.365 9.50338C112.401 9.50338 111.598 10.1461 111.256 11.1905H115.052ZM119.591 13.922H111.437C112.06 15.1672 113.486 15.7497 115.032 15.7497C116.438 15.7497 117.683 15.2877 118.828 14.7856V18.5615C117.482 19.2042 115.976 19.5256 114.329 19.5256C109.348 19.5256 106.637 16.5932 106.637 12.6567C106.637 8.57949 109.549 5.74756 113.385 5.74756C116.86 5.74756 119.692 8.05729 119.692 12.4357C119.712 12.9178 119.672 13.4199 119.591 13.922Z" fill="white"/>
</g>
</g>
</svg>
