<svg width="33" height="21" viewBox="0 0 33 21" fill="none" xmlns="http://www.w3.org/2000/svg">
<path d="M30.8882 0.958008H2.88818C2.05976 0.958008 1.38818 1.62958 1.38818 2.45801V18.458C1.38818 19.2864 2.05976 19.958 2.88818 19.958H30.8882C31.7166 19.958 32.3882 19.2864 32.3882 18.458V2.45801C32.3882 1.62958 31.7166 0.958008 30.8882 0.958008Z" fill="white"/>
<path d="M30.8882 0.958008H2.88818C2.05976 0.958008 1.38818 1.62958 1.38818 2.45801V18.458C1.38818 19.2864 2.05976 19.958 2.88818 19.958H30.8882C31.7166 19.958 32.3882 19.2864 32.3882 18.458V2.45801C32.3882 1.62958 31.7166 0.958008 30.8882 0.958008Z" stroke="#EDEEF0"/>
<path fill-rule="evenodd" clip-rule="evenodd" d="M12.1861 13.4112H10.559L9.33894 8.75658C9.28103 8.54247 9.15808 8.35318 8.97721 8.26397C8.52583 8.03977 8.02844 7.86134 7.48584 7.77135V7.59215H10.1068C10.4686 7.59215 10.7399 7.86134 10.7851 8.17398L11.4182 11.5315L13.0444 7.59215H14.6262L12.1861 13.4112ZM15.5286 13.4112H13.992L15.2573 7.59216H16.7939L15.5286 13.4112ZM18.7852 9.20427C18.8304 8.89086 19.1017 8.71166 19.4182 8.71166C19.9156 8.66666 20.4574 8.75665 20.9096 8.98007L21.1809 7.7272C20.7287 7.548 20.2314 7.45801 19.78 7.45801C18.2886 7.45801 17.2034 8.26404 17.2034 9.3827C17.2034 10.2337 17.9721 10.6806 18.5147 10.9497C19.1017 11.2182 19.3278 11.3974 19.2826 11.6658C19.2826 12.0684 18.8304 12.2476 18.379 12.2476C17.8364 12.2476 17.2938 12.1134 16.7972 11.8892L16.5259 13.1429C17.0685 13.3663 17.6556 13.4563 18.1982 13.4563C19.8704 13.5005 20.9096 12.6952 20.9096 11.4866C20.9096 9.96453 18.7852 9.87531 18.7852 9.20427ZM26.2893 13.4112L25.0693 7.59215H23.7588C23.4875 7.59215 23.2162 7.77135 23.1257 8.03977L20.8665 13.4112H22.4483L22.764 12.561H24.7075L24.8884 13.4112H26.2893ZM23.9824 9.15931L24.4338 11.3524H23.1685L23.9824 9.15931Z" fill="#1938C4"/>
</svg>
