<svg width="30" height="21" viewBox="0 0 30 21" fill="none" xmlns="http://www.w3.org/2000/svg">
<path d="M26 0.84668H4C1.79086 0.84668 0 2.63754 0 4.84668V16.8467C0 19.0558 1.79086 20.8467 4 20.8467H26C28.2091 20.8467 30 19.0558 30 16.8467V4.84668C30 2.63754 28.2091 0.84668 26 0.84668Z" fill="#1F72CD"/>
<path fill-rule="evenodd" clip-rule="evenodd" d="M5.64537 7.80566L2.91797 13.8812H6.18305L6.58783 12.9125H7.51306L7.91783 13.8812H11.5118V13.1419L11.832 13.8812H13.6911L14.0113 13.1262V13.8812H21.4858L22.3946 12.9377L23.2456 13.8812L27.0846 13.889L24.3486 10.8604L27.0846 7.80566H23.3052L22.4204 8.73176L21.5962 7.80566H13.465L12.7668 9.37381L12.0522 7.80566H8.79393V8.51984L8.43147 7.80566H5.64537ZM16.8068 8.66842H21.099L22.4117 10.0958L23.7668 8.66842H25.0796L23.085 10.8596L25.0796 13.0255H23.7073L22.3945 11.5815L21.0325 13.0255H16.8068V8.66842ZM17.8668 10.3667V9.57087L20.545 9.57011L21.7136 10.8429L20.4932 12.1226H17.8668V11.2538H20.2083V10.3667H17.8668ZM6.27713 8.66842H7.86868L9.67777 12.7883V8.66842H11.4213L12.8186 11.6223L14.1063 8.66842H15.8411V13.028H14.7855L14.7769 9.61186L13.238 13.028H12.2938L10.7462 9.61186V13.028H8.57467L8.16299 12.0507H5.93881L5.52797 13.0272H4.36448L6.27713 8.66842ZM6.31862 11.147L7.0514 9.40592L7.78333 11.147H6.31862Z" fill="white"/>
</svg>
