<svg width="17" height="17" viewBox="0 0 17 17" fill="none" xmlns="http://www.w3.org/2000/svg">
<path d="M13.555 6.57401V5.62467C13.555 3.04735 11.4657 0.958008 8.88833 0.958008C6.31099 0.958008 4.22168 3.04735 4.22168 5.62467V6.57401C3.00836 7.10354 2.22343 8.30085 2.22168 9.62467V13.6247C2.22386 15.4647 3.71496 16.9558 5.55499 16.958H12.2217C14.0617 16.9558 15.5528 15.4647 15.555 13.6247V9.62467C15.5533 8.30085 14.7683 7.10354 13.555 6.57401ZM9.55499 12.2913C9.55499 12.6595 9.25652 12.958 8.88833 12.958C8.52015 12.958 8.22168 12.6595 8.22168 12.2913V10.958C8.22168 10.5898 8.52015 10.2913 8.88833 10.2913C9.25652 10.2913 9.55499 10.5898 9.55499 10.958V12.2913ZM12.2217 6.29135H5.55499V5.6247C5.55499 3.78376 7.04736 2.29135 8.88833 2.29135C10.7293 2.29135 12.2217 3.78373 12.2217 5.6247V6.29135Z" fill="#FFCD4C"/>
</svg>
