<svg width="33" height="21" viewBox="0 0 33 21" fill="none" xmlns="http://www.w3.org/2000/svg">
<path d="M29.8882 0.958008H3.88818C2.50747 0.958008 1.38818 2.0773 1.38818 3.45801V17.458C1.38818 18.8387 2.50747 19.958 3.88818 19.958H29.8882C31.2689 19.958 32.3882 18.8387 32.3882 17.458V3.45801C32.3882 2.0773 31.2689 0.958008 29.8882 0.958008Z" fill="white"/>
<path d="M29.8882 0.958008H3.88818C2.50747 0.958008 1.38818 2.0773 1.38818 3.45801V17.458C1.38818 18.8387 2.50747 19.958 3.88818 19.958H29.8882C31.2689 19.958 32.3882 18.8387 32.3882 17.458V3.45801C32.3882 2.0773 31.2689 0.958008 29.8882 0.958008Z" stroke="#EDEEF0"/>
<path fill-rule="evenodd" clip-rule="evenodd" d="M16.8841 13.8852C16.1087 14.5542 15.1033 14.958 14.0048 14.958C11.5511 14.958 9.56201 12.9433 9.56201 10.458C9.56201 7.97273 11.5511 5.95801 14.0048 5.95801C15.1033 5.95801 16.1087 6.36179 16.8841 7.0308C17.6596 6.36179 18.6649 5.95801 19.7634 5.95801C22.2171 5.95801 24.2062 7.97273 24.2062 10.458C24.2062 12.9433 22.2171 14.958 19.7634 14.958C18.6649 14.958 17.6596 14.5542 16.8841 13.8852Z" fill="#EC0014"/>
<path fill-rule="evenodd" clip-rule="evenodd" d="M16.8862 13.8816C17.8406 13.0563 18.4457 11.8287 18.4457 10.458C18.4457 9.0873 17.8406 7.85973 16.8862 7.03436C17.6623 6.36322 18.6692 5.95801 19.7696 5.95801C22.2233 5.95801 24.2125 7.97273 24.2125 10.458C24.2125 12.9433 22.2233 14.958 19.7696 14.958C18.6692 14.958 17.6623 14.5528 16.8862 13.8816Z" fill="#F9A000"/>
<path fill-rule="evenodd" clip-rule="evenodd" d="M16.8949 7.03125C17.8517 7.85665 18.4585 9.0858 18.4585 10.4585C18.4585 11.8311 17.8517 13.0603 16.895 13.8857C15.9383 13.0603 15.3315 11.8311 15.3315 10.4584C15.3315 9.08576 15.9382 7.85665 16.8949 7.03125Z" fill="#FF5E00"/>
</svg>
