<svg width="62" height="34" viewBox="0 0 62 34" fill="none" xmlns="http://www.w3.org/2000/svg">
<mask id="mask0_9_424" style="mask-type:luminance" maskUnits="userSpaceOnUse" x="0" y="1" width="62" height="33">
<path d="M61.4717 1.42236H0.689453V33.4224H61.4717V1.42236Z" fill="white"/>
</mask>
<g mask="url(#mask0_9_424)">
<path opacity="0.45" d="M32.2353 17.365C32.2353 25.9967 25.2376 32.9936 16.6051 32.9936C7.97407 32.9936 0.976562 25.9962 0.976562 17.365C0.976562 8.73252 7.97453 1.73486 16.6051 1.73486C25.2373 1.73486 32.2353 8.73221 32.2353 17.365Z" fill="white"/>
<path d="M42.1609 4.96631C40.9356 4.96631 40.0685 5.67459 40.0685 6.73304C40.0685 7.69577 40.7849 8.11735 41.5964 8.3644C42.2005 8.54758 42.5599 8.6585 42.5599 9.04883C42.5599 9.37542 42.3116 9.55045 41.8978 9.55045C41.3494 9.55045 40.8726 9.23979 40.5848 8.89801L39.8128 9.96388C40.1562 10.3381 40.9517 10.776 41.9781 10.776C43.3715 10.776 44.1422 9.97203 44.1422 8.89801C44.1422 7.87117 43.4419 7.457 42.5352 7.17068C42.0732 7.02715 41.652 6.93191 41.652 6.58198C41.652 6.35927 41.8274 6.1919 42.2412 6.1919C42.718 6.1919 43.1084 6.41498 43.3381 6.67734L44.0632 5.61048C43.658 5.22867 43.012 4.96631 42.1609 4.96631ZM46.2915 5.07761L44.2151 10.6645H45.8382L46.0926 9.86061H48.2011L48.4643 10.6645H50.1281L48.0505 5.07761H46.2915ZM34.4482 5.07785V8.63503C34.4482 10.0119 35.2845 10.776 36.915 10.776C38.4998 10.776 39.3829 10.0119 39.3829 8.63503V5.07785H37.7833V8.1738C37.7833 8.78622 37.7191 9.38345 36.915 9.38345C36.1121 9.38345 36.0478 8.78622 36.0478 8.1738V5.07785H34.4482ZM47.1277 6.40645H47.1747C47.2068 6.64522 47.2784 6.97996 47.3661 7.24232L47.796 8.58735H46.5064L46.9363 7.24232C47.024 6.97996 47.0956 6.64522 47.1277 6.40645ZM42.0016 11.6666C39.924 11.6666 38.937 13.2028 38.937 14.5794C38.937 15.948 39.924 17.476 42.0016 17.476C44.0866 17.476 45.0748 15.948 45.0748 14.5794C45.0748 13.2028 44.0866 11.6666 42.0016 11.6666ZM34.4729 11.7779V13.0752H35.849V17.3648H37.4486V13.0752H38.8246V11.7779H34.4729ZM52.6677 11.7779L50.5901 17.3648H52.2131L52.4676 16.5607H54.5773L54.8404 17.3648H56.503L54.4254 11.7779H52.6677ZM55.4062 11.7779L57.4912 15.3749V17.3648H59.1773V15.3749L61.2636 11.7779H59.5602L58.8043 13.1547C58.6449 13.4491 58.4213 13.8951 58.3744 14.1891H58.3423C58.2953 13.8951 58.0718 13.4491 57.9124 13.1547L57.1565 11.7779H55.4062ZM45.648 11.7782V17.3648H47.7083C49.6501 17.3648 50.8124 16.2828 50.8124 14.572C50.8124 12.8285 49.6822 11.7782 47.7083 11.7782H45.648ZM41.9942 13.0595C42.7748 13.0595 43.4258 13.5768 43.4258 14.5794C43.4258 15.5738 42.7748 16.0839 41.9942 16.0839C41.2296 16.0839 40.5774 15.5738 40.5774 14.5794C40.5774 13.5768 41.2296 13.0595 41.9942 13.0595ZM47.2476 13.0674H47.5897C48.6162 13.0674 49.1646 13.5607 49.1646 14.572C49.1646 15.5824 48.6162 16.0752 47.5897 16.0752H47.2476V13.0674ZM53.5027 13.1065H53.5509C53.583 13.3458 53.6546 13.6799 53.7423 13.9433L54.1722 15.2884H52.8826L53.3125 13.9433C53.3989 13.6799 53.4706 13.3458 53.5027 13.1065ZM40.6169 19.608L40.5774 19.6154V21.0495H40.8195V20.1428L41.7051 21.0766L41.7323 21.0717V19.6351H41.4902V20.5282L40.6169 19.608ZM42.2523 19.608L42.2141 19.6154V21.0495H42.4562V20.1428L43.3418 21.0766L43.369 21.0717V19.6351H43.1269V20.5282L42.2523 19.608ZM56.6661 19.608L56.6266 19.6154V21.0495H56.8687V20.1428L57.7543 21.0766L57.7815 21.0717V19.6351H57.5406V20.5282L56.6661 19.608ZM38.0711 19.6104C37.6722 19.6104 37.3201 19.9032 37.3201 20.3429C37.3201 20.779 37.6672 21.0729 38.0711 21.0729C38.2836 21.0729 38.4479 21.0174 38.5986 20.9185V20.3009H38.0365V20.5121H38.3676V20.7913C38.2836 20.837 38.2033 20.8592 38.081 20.8592C37.8006 20.8592 37.5783 20.6443 37.5783 20.3429C37.5783 20.0613 37.7611 19.834 38.0822 19.834C38.2132 19.834 38.3491 19.8772 38.4627 19.9514L38.5726 19.7587C38.4281 19.6685 38.2799 19.6104 38.0711 19.6104ZM49.4994 19.6117C49.0559 19.6117 48.7372 19.9242 48.7372 20.3429C48.7372 20.7641 49.0522 21.0729 49.4994 21.0729C49.6748 21.0729 49.844 21.0149 49.9613 20.9395L49.8885 20.7345C49.7748 20.8024 49.6278 20.8469 49.5018 20.8469C49.1906 20.8469 48.9966 20.6406 48.9966 20.3429C48.9966 20.044 49.1856 19.8377 49.4969 19.8377C49.6216 19.8377 49.76 19.881 49.8724 19.9452L49.9564 19.7401C49.8353 19.6673 49.6748 19.6117 49.4994 19.6117ZM50.9495 19.6117C50.5407 19.6117 50.2269 19.9229 50.2269 20.3429C50.2269 20.7617 50.5271 21.0729 50.9359 21.0729C51.346 21.0729 51.6585 20.7617 51.6585 20.3429C51.6585 19.9229 51.3596 19.6117 50.9495 19.6117ZM52.0723 19.6141L52.0365 19.6166L51.976 21.0495H52.2144L52.2292 20.2009L52.6788 20.8778H52.7085L53.1544 20.2021L53.1741 21.0495H53.4113L53.352 19.6166L53.3125 19.6141L52.6998 20.5517L52.0723 19.6141ZM35.7069 19.6154L35.0547 21.0495H35.303L35.4401 20.7258H35.9997L36.1368 21.0495H36.3925L35.7415 19.6154H35.7069ZM39.5262 19.6154L38.874 21.0495H39.1223L39.2606 20.7258H39.819L39.9573 21.0495H40.2105L39.5608 19.6154H39.5262ZM55.5754 19.6154L54.922 21.0495H55.1715L55.3086 20.7258H55.8694L56.0053 21.0495H56.2609L55.61 19.6154H55.5754ZM54.2401 19.6253C54.124 19.6253 54.0067 19.6327 53.8819 19.6487V21.0495H54.1228V20.5887C54.1685 20.5912 54.2179 20.5949 54.2636 20.5949C54.6255 20.5949 54.8269 20.3899 54.8269 20.1021C54.8269 19.8365 54.6292 19.6253 54.2401 19.6253ZM43.8507 19.6351V21.0495H44.7141V20.8296H44.0928V20.438H44.6536V20.2243H44.0928V19.8538H44.7141V19.6351H43.8507ZM45.0847 19.6351V19.855H45.5343V21.0495H45.7764V19.855H46.2236V19.6351H45.0847ZM46.5138 19.6351V19.855H46.9635V21.0495H47.2056V19.855H47.6539V19.6351H46.5138ZM58.1212 19.6351L58.619 20.4541V21.0495H58.8611V20.4553L59.3589 19.6351H59.0884L58.7437 20.233L58.3979 19.6351H58.1212ZM50.9433 19.8278C51.2126 19.8278 51.3991 20.0477 51.3991 20.3429C51.3991 20.6369 51.2126 20.858 50.9433 20.858C50.6741 20.858 50.4863 20.6369 50.4863 20.3429C50.4863 20.0477 50.6741 19.8278 50.9433 19.8278ZM54.2809 19.8476C54.4785 19.8476 54.5761 19.9699 54.5761 20.1095C54.5761 20.27 54.4761 20.3837 54.2574 20.3837C54.2154 20.3837 54.171 20.38 54.1228 20.3763V19.8587C54.1722 19.8513 54.2265 19.8476 54.2809 19.8476ZM35.7205 20.0613L35.9206 20.5344H35.5192L35.7205 20.0613ZM39.5398 20.0613L39.7411 20.5344H39.3385L39.5398 20.0613ZM55.589 20.0613L55.7891 20.5344H55.3876L55.589 20.0613Z" fill="white"/>
</g>
</svg>
