<svg width="17" height="18" viewBox="0 0 17 18" fill="none" xmlns="http://www.w3.org/2000/svg">
<path d="M13.5549 2.96777H4.22151C3.33778 2.96882 2.49055 3.32035 1.86566 3.94525C1.24077 4.57014 0.889242 5.41737 0.888184 6.3011H16.8882C16.8871 5.41737 16.5356 4.57014 15.9107 3.94525C15.2858 3.32035 14.4386 2.96882 13.5549 2.96777Z" fill="#FFCD4C"/>
<path d="M0.888184 11.6348C0.889242 12.5185 1.24077 13.3657 1.86566 13.9906C2.49055 14.6155 3.33778 14.967 4.22151 14.9681H13.5549C14.4386 14.967 15.2858 14.6155 15.9107 13.9906C16.5356 13.3657 16.8871 12.5185 16.8882 11.6348V7.63477H0.888184V11.6348ZM5.55485 11.3014C5.55485 11.4992 5.4962 11.6925 5.38632 11.857C5.27644 12.0214 5.12026 12.1496 4.93753 12.2253C4.7548 12.301 4.55374 12.3208 4.35976 12.2822C4.16578 12.2436 3.98759 12.1484 3.84774 12.0085C3.70789 11.8687 3.61265 11.6905 3.57406 11.4965C3.53548 11.3025 3.55528 11.1015 3.63097 10.9187C3.70665 10.736 3.83483 10.5798 3.99928 10.47C4.16373 10.3601 4.35707 10.3014 4.55485 10.3014C4.82006 10.3014 5.07442 10.4068 5.26195 10.5943C5.44949 10.7818 5.55485 11.0362 5.55485 11.3014Z" fill="#FFCD4C"/>
</svg>
