<svg width="24" height="25" viewBox="0 0 24 25" fill="none" xmlns="http://www.w3.org/2000/svg">
<mask id="mask0_9_296" style="mask-type:luminance" maskUnits="userSpaceOnUse" x="0" y="1" width="24" height="24">
<path d="M23.52 1.15137H0.480011V24.1914H23.52V1.15137Z" fill="white"/>
</mask>
<g mask="url(#mask0_9_296)">
<path d="M18.7216 2.39648H11.5412C11.0868 2.39648 10.6503 2.57741 10.3287 2.89896L0.982274 12.2437C0.31259 12.9134 0.31259 13.9989 0.982274 14.6695L8.16275 21.8499C8.83242 22.5196 9.91796 22.5196 10.5877 21.8499L19.9341 12.5052C20.2556 12.1828 20.4366 11.7464 20.4366 11.2911V4.11143C20.4366 3.16392 19.6692 2.39648 18.7216 2.39648ZM15.7205 8.39879C15.0105 8.39879 14.4343 7.82257 14.4343 7.11258C14.4343 6.40259 15.0105 5.82637 15.7205 5.82637C16.4305 5.82637 17.0067 6.40259 17.0067 7.11258C17.0067 7.82257 16.4305 8.39879 15.7205 8.39879Z" fill="#FFCD4C"/>
<path d="M22.1515 4.11035L22.1507 12.0926C22.1507 12.4878 21.9937 12.8677 21.7134 13.1472L12.216 22.6446L12.3617 22.7903C13.0314 23.46 14.117 23.46 14.7867 22.7903L23.3631 14.2156C23.6855 13.8941 23.8665 13.4576 23.8665 13.0031V5.82529C23.8665 4.87779 23.099 4.11035 22.1515 4.11035Z" fill="#FFCD4C"/>
</g>
</svg>
