<svg width="16" height="17" viewBox="0 0 16 17" fill="none" xmlns="http://www.w3.org/2000/svg">
<path d="M8 0.547852C3.58172 0.547852 0 4.12957 0 8.54785C0 12.9662 3.58172 16.5479 8 16.5479C12.4183 16.5479 16 12.9662 16 8.54785C15.9952 4.13154 12.4163 0.552633 8 0.547852ZM10.6667 10.2725C10.9376 10.5219 10.9551 10.9437 10.7057 11.2146C10.4564 11.4855 10.0346 11.503 9.76372 11.2536C9.75016 11.2412 9.73716 11.2281 9.72466 11.2146L8 9.49051L6.276 11.2146C6.01116 11.4703 5.58913 11.463 5.33334 11.1982C5.08384 10.9398 5.08384 10.5302 5.33334 10.2719L7.05734 8.54785L5.33334 6.82385C5.07756 6.55901 5.08491 6.13698 5.34975 5.88119C5.60809 5.63169 6.01766 5.63169 6.276 5.88119L8 7.60519L9.72466 5.88119C9.974 5.61029 10.3958 5.59279 10.6667 5.84213C10.9376 6.09148 10.9551 6.51323 10.7057 6.78413C10.6933 6.79769 10.6802 6.81069 10.6667 6.82319L8.94266 8.54785L10.6667 10.2725Z" fill="#564B5D"/>
</svg>
