<svg width="58" height="21" viewBox="0 0 58 21" fill="none" xmlns="http://www.w3.org/2000/svg">
<path fill-rule="evenodd" clip-rule="evenodd" d="M27.4411 0.518066C26.2819 0.518066 25.3903 1.47045 25.3903 2.58456C25.3903 3.71663 26.2819 4.6151 27.4411 4.6151C28.6003 4.6151 29.4385 3.71663 29.4385 2.58456C29.4385 1.47045 28.6003 0.518066 27.4411 0.518066ZM29.0461 5.31592L25.1584 6.82534C26.4603 8.22696 26.389 12.917 26.1036 13.9952C25.9431 14.6241 25.6578 15.271 25.1228 16.0437C25.0693 16.1066 24.9846 16.2054 24.8999 16.3043C24.8151 16.4031 24.7304 16.5019 24.6769 16.5648L24.1241 17.032H30.0805C29.5811 16.6008 29.0461 15.3429 29.0461 13.1147V5.31592ZM1.17244 16.7805L0.476929 10.6349C0.476929 10.6349 1.72528 12.1264 1.83228 12.2522C4.64997 15.9539 7.41415 16.8164 8.41283 16.8523C9.26884 16.8523 9.83951 16.5469 10.0535 15.5226C10.4102 13.8155 7.84216 12.1803 5.48814 10.9224C5.45248 10.9044 5.42127 10.8865 5.39006 10.8685C5.35885 10.8505 5.32764 10.8326 5.29197 10.8146C3.09845 9.62858 1.06543 8.01133 1.06543 5.24403C1.06543 2.45877 3.52646 1.18294 6.45115 1.18294C8.62683 1.18294 10.2675 1.57827 11.2127 2.02751L12.1222 6.48393H12.0865C10.0357 3.41115 6.68298 1.48841 5.11364 1.47045C4.20413 1.47045 3.11629 1.88375 3.09845 2.80019C3.06279 3.57288 3.61563 5.0284 7.539 6.98707C10.6598 8.53245 12.3005 10.2755 12.3183 12.6115C12.3362 15.0374 10.2497 16.7805 8.00266 17.1758C5.11364 17.6789 2.43862 17.3016 1.17244 16.7805ZM13.1134 8.33356C12.9367 7.91914 12.7951 7.58694 12.7107 7.52616L17.0264 5.29794V7.3824C17.1869 7.05895 18.2212 5.65733 20.3969 5.65733C22.5904 5.65733 24.8909 7.1488 24.8909 11.156C24.8909 15.4867 22.1803 17.1937 20.3077 17.1937C18.6492 17.1937 17.5614 16.2593 17.1334 15.882C17.0799 15.8281 17.0442 15.7921 17.0085 15.7742V16.7805C17.0085 18.5415 17.5435 20.0868 18.0429 20.5181H12.1222C13.2601 19.7309 13.6054 18.1777 13.7898 17.3485C13.799 17.307 13.8078 17.2674 13.8163 17.2297C13.8453 17.1032 13.8691 16.9714 13.8933 16.8372C13.9137 16.7236 13.9345 16.6083 13.959 16.4929C14.0416 16.0907 14.0817 15.4209 14.1121 14.9131C14.1211 14.763 14.1292 14.627 14.1374 14.5163C14.2622 12.6295 14.173 10.6888 13.3883 8.96371C13.2903 8.74865 13.1978 8.5317 13.1134 8.33356ZM16.9372 7.77773L16.9907 15.6124C17.3652 16.0078 18.0607 16.5109 19.1664 16.4929C20.8606 16.475 21.5204 14.5343 21.5026 11.3896C21.4491 7.92148 20.5039 6.17844 19.0951 6.28626C17.9537 6.37611 17.169 7.13083 16.9372 7.77773ZM32.0957 9.25122C31.9352 8.55041 31.3823 7.29255 31.2397 7.18473L35.4662 5.35186L35.2879 10.1138C35.7694 7.52616 37.089 5.98079 39.8711 5.71125L39.1934 9.01762C37.7311 8.69417 35.2879 8.40666 35.2879 10.7787L35.27 13.3663C35.3713 15.3899 36.2072 16.4962 36.5687 16.9746C36.5892 17.0017 36.6081 17.0269 36.6254 17.05H31.0078C31.8282 16.1695 32.167 15.253 32.3453 14.0491C32.488 13.0069 32.4345 10.7247 32.0957 9.25122ZM42.8314 0.589949C41.6722 0.589949 40.7806 1.54233 40.7806 2.65644C40.7806 3.78851 41.6722 4.66902 42.8314 4.68699C43.9906 4.68699 44.8288 3.78851 44.8288 2.65644C44.8288 1.54233 43.9906 0.589949 42.8314 0.589949ZM44.4543 5.36982L40.5666 6.87926C41.8506 8.28088 41.7792 12.9889 41.5117 14.0671C41.3512 14.696 41.0659 15.3429 40.5309 16.1156C40.4774 16.1785 40.3925 16.2775 40.3078 16.3764C40.2231 16.4752 40.1385 16.5739 40.0851 16.6367L39.5322 17.1039H45.4886C44.9893 16.6726 44.4543 15.4148 44.4543 13.1866V5.36982ZM45.8451 11.3715C45.8451 8.17294 48.4132 5.36971 51.5519 5.62128C54.5122 5.85489 57.0089 8.33467 57.2229 11.3895C57.4369 14.5701 54.7084 17.1577 51.534 17.1577C48.3775 17.1577 45.8451 14.606 45.8451 11.3715ZM48.3775 8.24482C48.2883 11.2997 50.4997 16.6186 53.2104 16.7444C54.0485 16.7803 54.5301 16.0795 54.4944 14.5521C54.4765 11.8567 52.5684 7.13071 49.715 6.17833C48.8412 5.89082 48.4132 6.98696 48.3775 8.24482ZM50.2678 8.74796C49.8577 10.4191 50.8564 13.7794 52.7467 14.624C53.0142 12.7372 52.176 9.6644 50.2678 8.74796Z" fill="url(#paint0_linear_40_310)"/>
<defs>
<linearGradient id="paint0_linear_40_310" x1="30.4775" y1="0.441817" x2="86.881" y2="38.8877" gradientUnits="userSpaceOnUse">
<stop stop-color="white"/>
<stop offset="1" stop-color="#59382A" stop-opacity="0"/>
</linearGradient>
</defs>
</svg>
