<svg width="58" height="21" viewBox="0 0 58 21" fill="none" xmlns="http://www.w3.org/2000/svg">
<path fill-rule="evenodd" clip-rule="evenodd" d="M27.6462 0.0153809C26.487 0.0153809 25.5954 0.967762 25.5954 2.08187C25.5954 3.21394 26.487 4.11241 27.6462 4.11241C28.8054 4.11241 29.6436 3.21394 29.6436 2.08187C29.6436 0.967762 28.8054 0.0153809 27.6462 0.0153809ZM29.2512 4.81323L25.3635 6.32265C26.6654 7.72427 26.5941 12.4143 26.3087 13.4925C26.1482 14.1214 25.8629 14.7683 25.3279 15.541C25.2744 15.6039 25.1897 15.7027 25.105 15.8016C25.0202 15.9004 24.9355 15.9992 24.882 16.0621L24.3292 16.5293H30.2856C29.7862 16.0981 29.2512 14.8402 29.2512 12.612V4.81323ZM1.37752 16.2778L0.682007 10.1322C0.682007 10.1322 1.93036 11.6237 2.03736 11.7495C4.85505 15.4512 7.61923 16.3137 8.61791 16.3496C9.47392 16.3496 10.0446 16.0442 10.2586 15.0199C10.6153 13.3128 8.04724 11.6776 5.69322 10.4197C5.65756 10.4017 5.62635 10.3838 5.59514 10.3658C5.56393 10.3478 5.53272 10.3299 5.49705 10.3119C3.30353 9.12589 1.27051 7.50864 1.27051 4.74134C1.27051 1.95608 3.73154 0.680253 6.65623 0.680253C8.83191 0.680253 10.4726 1.07558 11.4178 1.52482L12.3273 5.98124H12.2916C10.2408 2.90846 6.88806 0.985729 5.31872 0.96776C4.40921 0.96776 3.32137 1.38106 3.30353 2.2975C3.26787 3.07019 3.82071 4.52571 7.74408 6.48438C10.8649 8.02976 12.5056 9.77279 12.5234 12.1088C12.5413 14.5347 10.4548 16.2778 8.20774 16.6731C5.31872 17.1762 2.6437 16.7989 1.37752 16.2778ZM13.3185 7.83087C13.1418 7.41645 13.0002 7.08425 12.9158 7.02347L17.2315 4.79525V6.87971C17.392 6.55626 18.4263 5.15464 20.602 5.15464C22.7955 5.15464 25.096 6.64611 25.096 10.6533C25.096 14.984 22.3854 16.691 20.5128 16.691C18.8543 16.691 17.7665 15.7566 17.3385 15.3793C17.285 15.3254 17.2493 15.2894 17.2136 15.2715V16.2778C17.2136 18.0388 17.7486 19.5841 18.248 20.0154H12.3273C13.4652 19.2282 13.8105 17.675 13.9949 16.8458C14.0041 16.8043 14.0129 16.7647 14.0214 16.727C14.0504 16.6005 14.0742 16.4687 14.0984 16.3345C14.1188 16.2209 14.1396 16.1056 14.1641 15.9902C14.2467 15.588 14.2868 14.9182 14.3172 14.4104C14.3262 14.2603 14.3343 14.1243 14.3425 14.0136C14.4673 12.1268 14.3781 10.1861 13.5934 8.46102C13.4954 8.24596 13.4029 8.02901 13.3185 7.83087ZM17.1423 7.27504L17.1958 15.1097C17.5703 15.5051 18.2658 16.0082 19.3715 15.9902C21.0657 15.9723 21.7255 14.0316 21.7077 10.8869C21.6542 7.41879 20.709 5.67575 19.3002 5.78357C18.1588 5.87342 17.3741 6.62814 17.1423 7.27504ZM32.3008 8.74853C32.1403 8.04772 31.5874 6.78986 31.4448 6.68204L35.6713 4.84917L35.493 9.61107C35.9745 7.02347 37.2941 5.4781 40.0762 5.20856L39.3985 8.51493C37.9362 8.19148 35.493 7.90397 35.493 10.276L35.4751 12.8636C35.5764 14.8872 36.4123 15.9935 36.7738 16.4719C36.7943 16.499 36.8132 16.5242 36.8305 16.5473H31.2129C32.0333 15.6668 32.3721 14.7503 32.5504 13.5464C32.6931 12.5042 32.6396 10.222 32.3008 8.74853ZM43.0365 0.0872631C41.8773 0.0872631 40.9857 1.03964 40.9857 2.15375C40.9857 3.28582 41.8773 4.16633 43.0365 4.1843C44.1957 4.1843 45.0339 3.28582 45.0339 2.15375C45.0339 1.03964 44.1957 0.0872631 43.0365 0.0872631ZM44.6594 4.86713L40.7717 6.37657C42.0557 7.77819 41.9843 12.4862 41.7168 13.5644C41.5563 14.1933 41.271 14.8402 40.736 15.6129C40.6825 15.6758 40.5976 15.7748 40.5129 15.8737C40.4282 15.9725 40.3436 16.0712 40.2902 16.134L39.7373 16.6012H45.6937C45.1944 16.1699 44.6594 14.9121 44.6594 12.6839V4.86713ZM46.0502 10.8688C46.0502 7.67025 48.6183 4.86702 51.757 5.11859C54.7173 5.3522 57.214 7.83198 57.428 10.8868C57.642 14.0674 54.9135 16.655 51.7391 16.655C48.5826 16.655 46.0502 14.1033 46.0502 10.8688ZM48.5826 7.74213C48.4934 10.797 50.7048 16.1159 53.4155 16.2417C54.2536 16.2776 54.7352 15.5768 54.6995 14.0494C54.6816 11.354 52.7735 6.62802 49.9201 5.67564C49.0463 5.38813 48.6183 6.48427 48.5826 7.74213ZM50.4729 8.24527C50.0628 9.91643 51.0615 13.2767 52.9518 14.1213C53.2193 12.2345 52.3811 9.16171 50.4729 8.24527Z" fill="url(#paint0_linear_5_272)"/>
<defs>
<linearGradient id="paint0_linear_5_272" x1="30.6826" y1="-0.0608688" x2="87.0861" y2="38.385" gradientUnits="userSpaceOnUse">
<stop stop-color="white"/>
<stop offset="1" stop-color="#59382A" stop-opacity="0"/>
</linearGradient>
</defs>
</svg>
