<svg width="42" height="12" viewBox="0 0 42 12" fill="none" xmlns="http://www.w3.org/2000/svg">
<path d="M7.16255 11.142C5.99068 11.142 4.97071 10.9424 4.10266 10.5431C3.2346 10.1437 2.56186 9.57733 2.08443 8.84383C1.607 8.10598 1.36829 7.23792 1.36829 6.23966V6.22664C1.36829 5.22837 1.607 4.36249 2.08443 3.62898C2.56186 2.89548 3.2346 2.32907 4.10266 1.92977C4.97505 1.53046 5.99502 1.33081 7.16255 1.33081C8.33877 1.33081 9.36091 1.53046 10.229 1.92977C11.097 2.32907 11.7698 2.89548 12.2472 3.62898C12.7246 4.36249 12.9634 5.22837 12.9634 6.22664V6.23966C12.9634 7.23792 12.7246 8.10381 12.2472 8.83732C11.7698 9.57082 11.097 10.1394 10.229 10.5431C9.36091 10.9424 8.33877 11.142 7.16255 11.142ZM7.16255 9.42325C7.89606 9.42325 8.53191 9.29305 9.07011 9.03263C9.61264 8.77221 10.0315 8.40329 10.3266 7.92586C10.6261 7.44843 10.7758 6.88636 10.7758 6.23966V6.22664C10.7758 5.57994 10.6261 5.02004 10.3266 4.54695C10.0315 4.06952 9.61264 3.7006 9.07011 3.44018C8.53191 3.17976 7.89606 3.04956 7.16255 3.04956C6.43339 3.04956 5.79754 3.17976 5.255 3.44018C4.71681 3.7006 4.29797 4.06952 3.99849 4.54695C3.70335 5.02004 3.55578 5.57994 3.55578 6.22664V6.23966C3.55578 6.88636 3.70335 7.44843 3.99849 7.92586C4.29363 8.40329 4.71247 8.77221 5.255 9.03263C5.79754 9.29305 6.43339 9.42325 7.16255 9.42325ZM10.3787 11.8647L6.88912 7.84773H8.97896L12.4686 11.8647H10.3787ZM20.0662 11.1355C19.0289 11.1355 18.1305 10.9641 17.3709 10.6212C16.6157 10.2783 16.0319 9.78133 15.6196 9.13028C15.2116 8.47924 15.0076 7.68714 15.0076 6.75398V1.53914H17.1496V6.68888C17.1496 7.26614 17.2602 7.75876 17.4816 8.16674C17.7073 8.57039 18.035 8.87855 18.4647 9.09122C18.8987 9.3039 19.4325 9.41023 20.0662 9.41023C20.6999 9.41023 21.2316 9.3039 21.6613 9.09122C22.0953 8.87855 22.423 8.57039 22.6443 8.16674C22.8657 7.75876 22.9764 7.26614 22.9764 6.68888V1.53914H25.1248V6.75398C25.1248 7.6828 24.9208 8.4749 24.5128 9.13028C24.1048 9.78133 23.5211 10.2783 22.7615 10.6212C22.0063 10.9641 21.1079 11.1355 20.0662 11.1355ZM27.5923 10.9337V1.53914H29.7407V10.9337H27.5923ZM31.9477 10.9337V9.573L38.1847 3.29044V3.22534H32.0714V1.53914H41.1469V2.89982L34.923 9.18237V9.24747H41.2967V10.9337H31.9477Z" fill="white" fill-opacity="0.4"/>
</svg>
