<svg width="17" height="17" viewBox="0 0 17 17" fill="none" xmlns="http://www.w3.org/2000/svg">
<path fill-rule="evenodd" clip-rule="evenodd" d="M7.61873 8.14323C7.04809 8.14323 7.00112 7.97897 6.81449 7.83234C6.59596 7.66059 6.32723 7.72528 6.07651 7.94963C5.28275 8.6599 4.91615 7.27873 4.29257 7.89525C4.11896 8.06663 3.94242 8.18391 3.25268 8.1301C2.9954 8.11013 3.02818 7.73559 3.28419 7.7564C3.96385 7.81162 3.91746 7.69603 4.11221 7.54274C4.56786 7.18423 5.07263 7.41242 5.36642 7.67577C5.63574 7.91728 5.83195 7.63462 5.97512 7.54911C6.34064 7.33095 6.74853 7.22407 7.16386 7.63405C7.48094 7.94691 8.07125 7.5644 8.10188 7.92797C8.12204 8.16741 7.79909 8.14323 7.61873 8.14323Z" fill="#C3B1C8"/>
<path fill-rule="evenodd" clip-rule="evenodd" d="M7.81545 5.07488C7.76538 5.07488 7.7154 5.05651 7.67726 5.01994L6.5567 3.94582C6.37449 3.77134 6.65118 3.50602 6.83329 3.68068L7.95385 4.75481C8.07757 4.87341 7.98788 5.07488 7.81545 5.07488Z" fill="#C3B1C8"/>
<path fill-rule="evenodd" clip-rule="evenodd" d="M6.69285 5.07488C6.52062 5.07488 6.43074 4.87341 6.55466 4.75481L7.67521 3.68068C7.85743 3.50602 8.13382 3.77134 7.95181 3.94582L6.83125 5.01994C6.79301 5.05669 6.74283 5.07488 6.69285 5.07488Z" fill="#C3B1C8"/>
<path fill-rule="evenodd" clip-rule="evenodd" d="M4.49327 5.07488C4.4432 5.07488 4.39312 5.05651 4.35498 5.01994L3.23442 3.94582C3.05221 3.77134 3.329 3.50602 3.51101 3.68068L4.63157 4.75481C4.75539 4.87341 4.66571 5.07488 4.49327 5.07488Z" fill="#C3B1C8"/>
<path fill-rule="evenodd" clip-rule="evenodd" d="M3.39013 5.07488C3.21789 5.07488 3.12801 4.87341 3.25193 4.75481L4.37249 3.68068C4.5547 3.50602 4.8311 3.77134 4.64908 3.94582L3.52853 5.01994C3.49028 5.05669 3.44011 5.07488 3.39013 5.07488Z" fill="#C3B1C8"/>
<path fill-rule="evenodd" clip-rule="evenodd" d="M12.0622 16.6486H5.07164C4.9502 16.6486 4.85781 16.5431 4.87895 16.4284C5.02447 15.636 5.08476 14.3725 4.8173 13.2029C4.50091 11.819 3.85208 11.5089 3.39692 10.6348C3.28183 10.4138 3.63228 10.2465 3.74727 10.4673C4.18178 11.3011 4.86369 11.6531 5.19975 13.1226C5.45585 14.2424 5.42483 15.4434 5.30113 16.2734H11.8666V14.6201C11.8666 14.5166 11.9544 14.4326 12.0623 14.4326H13.1929C15.1015 14.4326 14.6327 13.1071 14.5093 11.617C14.5019 11.5265 14.5631 11.444 14.6546 11.4208L15.3311 11.2576C15.7842 11.2673 15.8412 11.1357 15.5877 10.8289C15.2156 10.3785 14.5946 9.44574 14.6142 9.30801C15.0941 5.93648 12.6093 3.94274 10.0976 3.51682C9.84363 3.47369 9.91242 3.10449 10.1658 3.14753C12.84 3.60091 15.4855 5.71635 15.0108 9.29423C15.1339 9.49618 15.5752 10.2095 15.8945 10.596C16.3798 11.1834 16.0792 11.6327 15.3596 11.6327L14.9139 11.7429C15.0563 13.1739 15.4409 14.8076 13.1929 14.8076H12.2582V16.461C12.258 16.5645 12.1703 16.6486 12.0622 16.6486Z" fill="#C3B1C8"/>
<path fill-rule="evenodd" clip-rule="evenodd" d="M5.59415 11.12C4.13452 11.12 2.7621 10.5754 1.72984 9.58663C-0.400831 7.54536 -0.400831 4.22398 1.72984 2.1827C3.8653 0.136923 7.32299 0.137111 9.45836 2.1827C11.5891 4.22398 11.5891 7.54536 9.45836 9.58663C8.42629 10.5755 7.05397 11.12 5.59415 11.12ZM5.59415 1.02429C4.23904 1.02429 2.96497 1.5299 2.00679 2.44793C0.0286891 4.34295 0.0286891 7.42648 2.00679 9.32141C3.98939 11.2207 7.1991 11.2206 9.1816 9.32141C11.1599 7.42638 11.1599 4.34295 9.1816 2.44793C8.22333 1.52981 6.94926 1.02429 5.59415 1.02429Z" fill="#C3B1C8"/>
</svg>
