<svg width="20" height="17" viewBox="0 0 20 17" fill="none" xmlns="http://www.w3.org/2000/svg">
<path d="M17.9777 7.32097H4.63473L9.02456 2.93114C9.14963 2.8071 9.24889 2.65953 9.31663 2.49693C9.38437 2.33433 9.41925 2.15993 9.41925 1.98379C9.41925 1.80765 9.38437 1.63325 9.31663 1.47065C9.24889 1.30805 9.14963 1.16048 9.02456 1.03644C8.77457 0.787926 8.43639 0.648438 8.08388 0.648438C7.73138 0.648438 7.3932 0.787926 7.14321 1.03644L1.41907 6.77391C0.917926 7.27207 0.634815 7.94865 0.631836 8.65526C0.638329 9.35724 0.921171 10.0284 1.41907 10.5233L7.14321 16.2607C7.26761 16.3842 7.41513 16.4821 7.57735 16.5486C7.73956 16.6151 7.91328 16.649 8.0886 16.6484C8.26392 16.6478 8.4374 16.6126 8.59914 16.545C8.76088 16.4773 8.9077 16.3784 9.03123 16.254C9.15477 16.1296 9.25258 15.9821 9.3191 15.8199C9.38562 15.6577 9.41954 15.484 9.41892 15.3086C9.4183 15.1333 9.38316 14.9598 9.31549 14.7981C9.24783 14.6364 9.14897 14.4895 9.02456 14.366L4.63473 9.98956H17.9777C18.3315 9.98956 18.6709 9.84898 18.9211 9.59875C19.1714 9.34852 19.3119 9.00914 19.3119 8.65526C19.3119 8.30139 19.1714 7.962 18.9211 7.71178C18.6709 7.46155 18.3315 7.32097 17.9777 7.32097Z" fill="white"/>
</svg>
