<svg width="300" height="159" viewBox="0 0 300 159" fill="none" xmlns="http://www.w3.org/2000/svg">
<path d="M268 0C285.001 2.727e-06 298.903 13.2586 299.936 30H295.5C292.462 30 290 32.4624 290 35.5C290 38.5376 292.462 41 295.5 41H300V75H295C292.239 75 290 77.2386 290 80C290 82.7614 292.239 85 295 85H300V119H295.5C292.462 119 290 121.462 290 124.5C290 127.538 292.462 130 295.5 130H299.858C298.346 146.266 284.661 159 268 159H28C12.536 159 0 146.464 0 131V28C0 12.536 12.536 6.4426e-08 28 0H268Z" fill="#0BF4C8"/>
</svg>
