<svg width="32" height="21" viewBox="0 0 32 21" fill="none" xmlns="http://www.w3.org/2000/svg">
<path d="M29 0.992676H3C1.61929 0.992676 0.5 2.11196 0.5 3.49268V17.4927C0.5 18.8734 1.61929 19.9927 3 19.9927H29C30.3807 19.9927 31.5 18.8734 31.5 17.4927V3.49268C31.5 2.11196 30.3807 0.992676 29 0.992676Z" fill="white"/>
<path d="M29 0.992676H3C1.61929 0.992676 0.5 2.11196 0.5 3.49268V17.4927C0.5 18.8734 1.61929 19.9927 3 19.9927H29C30.3807 19.9927 31.5 18.8734 31.5 17.4927V3.49268C31.5 2.11196 30.3807 0.992676 29 0.992676Z" stroke="#EDEEF0"/>
<path fill-rule="evenodd" clip-rule="evenodd" d="M15.9959 13.9199C15.2205 14.5889 14.2151 14.9927 13.1166 14.9927C10.6629 14.9927 8.67383 12.978 8.67383 10.4927C8.67383 8.0074 10.6629 5.99268 13.1166 5.99268C14.2151 5.99268 15.2205 6.39646 15.9959 7.06547C16.7714 6.39646 17.7767 5.99268 18.8752 5.99268C21.3289 5.99268 23.318 8.0074 23.318 10.4927C23.318 12.978 21.3289 14.9927 18.8752 14.9927C17.7767 14.9927 16.7714 14.5889 15.9959 13.9199Z" fill="#EC0014"/>
<path fill-rule="evenodd" clip-rule="evenodd" d="M15.998 13.9163C16.9524 13.091 17.5575 11.8634 17.5575 10.4927C17.5575 9.12197 16.9524 7.8944 15.998 7.06903C16.7741 6.39789 17.781 5.99268 18.8814 5.99268C21.3351 5.99268 23.3243 8.0074 23.3243 10.4927C23.3243 12.978 21.3351 14.9927 18.8814 14.9927C17.781 14.9927 16.7741 14.5875 15.998 13.9163Z" fill="#F9A000"/>
<path fill-rule="evenodd" clip-rule="evenodd" d="M16.0068 7.06592C16.9636 7.89132 17.5704 9.12047 17.5704 10.4932C17.5704 11.8658 16.9636 13.095 16.0069 13.9204C15.0502 13.095 14.4434 11.8658 14.4434 10.4931C14.4434 9.12043 15.0501 7.89132 16.0068 7.06592Z" fill="#FF5E00"/>
</svg>
