<svg width="30" height="22" viewBox="0 0 30 22" fill="none" xmlns="http://www.w3.org/2000/svg">
<path d="M26 0.769653H4C1.90592 0.769653 0.208328 2.46724 0.208328 4.56132V16.5613C0.208328 18.6554 1.90592 20.353 4 20.353H26C28.094 20.353 29.7916 18.6554 29.7916 16.5613V4.56132C29.7916 2.46724 28.094 0.769653 26 0.769653Z" fill="white" stroke="#DDDDDD" stroke-width="0.416667"/>
<path fill-rule="evenodd" clip-rule="evenodd" d="M25.7504 8.53048C26.6713 8.53048 27.1777 8.94149 27.1777 9.71784C27.2237 10.3116 26.8094 10.8139 26.2569 10.9053L27.5 12.595H26.5331L25.4742 10.9509H25.3821V12.595H24.5994V8.53048H25.7504ZM25.3821 10.4029H25.6123C26.1188 10.4029 26.349 10.1745 26.349 9.76352C26.349 9.39818 26.1188 9.16984 25.6123 9.16984H25.3821V10.4029ZM21.8831 12.595H24.093V11.91H22.6657V10.8139H24.047V10.1289H22.6657V9.21549H24.093V8.53048H21.8831V12.595ZM19.581 11.2706L18.5221 8.53048H17.6934L19.3969 12.6863H19.8112L21.5147 8.53048H20.686L19.581 11.2706ZM10.2348 10.5857C10.2348 11.7274 11.1556 12.6864 12.3066 12.6864C12.675 12.6864 12.9972 12.5951 13.3195 12.4581V11.5447C13.0893 11.8187 12.767 12.0014 12.3987 12.0014C11.6621 12.0014 11.0635 11.4534 11.0635 10.7227V10.6314C11.0175 9.90064 11.616 9.26129 12.3527 9.21562C12.721 9.21562 13.0893 9.39829 13.3195 9.6723V8.75894C13.0433 8.57627 12.675 8.5306 12.3527 8.5306C11.1556 8.43927 10.2348 9.39829 10.2348 10.5857ZM8.80755 10.0832C8.34715 9.90054 8.20903 9.8092 8.20903 9.58086C8.25507 9.30685 8.48527 9.07851 8.76151 9.12418C8.99172 9.12418 9.22192 9.26119 9.40608 9.44386L9.82045 8.89584C9.49816 8.62183 9.0838 8.43916 8.66943 8.43916C8.02487 8.39349 7.47238 8.89584 7.42634 9.53519V9.58086C7.42634 10.1289 7.65654 10.4486 8.39319 10.6769C8.57735 10.7226 8.76151 10.8139 8.94568 10.9053C9.0838 10.9966 9.17588 11.1336 9.17588 11.3163C9.17588 11.636 8.89964 11.91 8.62339 11.91H8.57735C8.20903 11.91 7.88674 11.6816 7.74862 11.362L7.24218 11.8643C7.51842 12.3667 8.07091 12.6407 8.62339 12.6407C9.36004 12.6863 9.95857 12.1383 10.0046 11.4076V11.2706C9.95857 10.7226 9.72836 10.4486 8.80755 10.0832ZM6.13721 12.595H6.9199V8.53048H6.13721V12.595ZM2.5 8.53048H3.65101H3.88122C4.98619 8.57614 5.86096 9.4895 5.81492 10.5856C5.81492 11.1793 5.53867 11.7273 5.07827 12.1383C4.6639 12.458 4.15746 12.6406 3.65101 12.595H2.5V8.53048ZM3.5129 11.9099C3.88123 11.9555 4.29559 11.8185 4.57183 11.5902C4.84808 11.3162 4.9862 10.9508 4.9862 10.5398C4.9862 10.1744 4.84808 9.8091 4.57183 9.53509C4.29559 9.30675 3.88123 9.16975 3.5129 9.21541H3.2827V11.9099H3.5129Z" fill="black"/>
<path fill-rule="evenodd" clip-rule="evenodd" d="M15.7101 8.43628C14.5591 8.43628 13.5923 9.34964 13.5923 10.537C13.5923 11.6786 14.5131 12.6377 15.7101 12.6833C16.9072 12.729 17.828 11.77 17.8741 10.5826C17.828 9.3953 16.9072 8.43628 15.7101 8.43628Z" fill="url(#paint0_linear_1_665)"/>
<path fill-rule="evenodd" clip-rule="evenodd" d="M15.7101 8.43628C14.5591 8.43628 13.5923 9.34964 13.5923 10.537C13.5923 11.6786 14.5131 12.6377 15.7101 12.6833C16.9072 12.729 17.828 11.77 17.8741 10.5826C17.828 9.3953 16.9072 8.43628 15.7101 8.43628Z" fill="url(#paint1_radial_1_665)"/>
<defs>
<linearGradient id="paint0_linear_1_665" x1="14.4196" y1="8.83772" x2="17.1997" y2="12.0752" gradientUnits="userSpaceOnUse">
<stop stop-color="#E15315"/>
<stop offset="1" stop-color="#FFB320"/>
</linearGradient>
<radialGradient id="paint1_radial_1_665" cx="0" cy="0" r="1" gradientUnits="userSpaceOnUse" gradientTransform="translate(16.0418 11.1862) rotate(-126.027) scale(2.83364 2.93383)">
<stop stop-color="#FFCD83" stop-opacity="0"/>
<stop offset="0.725604" stop-color="#E45816" stop-opacity="0.7"/>
<stop offset="1" stop-color="#912301"/>
</radialGradient>
</defs>
</svg>
