<svg width="30" height="22" viewBox="0 0 30 22" fill="none" xmlns="http://www.w3.org/2000/svg">
<path d="M26 0.879883H4C1.90592 0.879883 0.208328 2.57747 0.208328 4.67155V16.6715C0.208328 18.7656 1.90592 20.4632 4 20.4632H26C28.094 20.4632 29.7916 18.7656 29.7916 16.6715V4.67155C29.7916 2.57747 28.094 0.879883 26 0.879883Z" fill="white" stroke="#DDDDDD" stroke-width="0.416667"/>
<path fill-rule="evenodd" clip-rule="evenodd" d="M25.7504 8.64059C26.6713 8.64059 27.1777 9.0516 27.1777 9.82795C27.2237 10.4217 26.8094 10.924 26.2569 11.0154L27.5 12.7051H26.5331L25.4742 11.061H25.3821V12.7051H24.5994V8.64059H25.7504ZM25.3821 10.513H25.6123C26.1188 10.513 26.349 10.2846 26.349 9.87363C26.349 9.50829 26.1188 9.27995 25.6123 9.27995H25.3821V10.513ZM21.8831 12.7051H24.093V12.0201H22.6657V10.924H24.047V10.239H22.6657V9.3256H24.093V8.64059H21.8831V12.7051ZM19.581 11.3807L18.5221 8.64059H17.6934L19.3969 12.7964H19.8112L21.5147 8.64059H20.686L19.581 11.3807ZM10.2348 10.6958C10.2348 11.8375 11.1556 12.7965 12.3066 12.7965C12.675 12.7965 12.9972 12.7052 13.3195 12.5682V11.6548C13.0893 11.9288 12.767 12.1115 12.3987 12.1115C11.6621 12.1115 11.0635 11.5635 11.0635 10.8328V10.7415C11.0175 10.0108 11.616 9.3714 12.3527 9.32573C12.721 9.32573 13.0893 9.5084 13.3195 9.78241V8.86905C13.0433 8.68638 12.675 8.64071 12.3527 8.64071C11.1556 8.54938 10.2348 9.5084 10.2348 10.6958ZM8.80755 10.1933C8.34715 10.0107 8.20903 9.91931 8.20903 9.69097C8.25507 9.41696 8.48527 9.18862 8.76151 9.23429C8.99172 9.23429 9.22192 9.3713 9.40608 9.55397L9.82045 9.00595C9.49816 8.73194 9.0838 8.54927 8.66943 8.54927C8.02487 8.5036 7.47238 9.00595 7.42634 9.6453V9.69097C7.42634 10.239 7.65654 10.5587 8.39319 10.787C8.57735 10.8327 8.76151 10.924 8.94568 11.0154C9.0838 11.1067 9.17588 11.2437 9.17588 11.4264C9.17588 11.7461 8.89964 12.0201 8.62339 12.0201H8.57735C8.20903 12.0201 7.88674 11.7917 7.74862 11.4721L7.24218 11.9744C7.51842 12.4768 8.07091 12.7508 8.62339 12.7508C9.36004 12.7964 9.95857 12.2484 10.0046 11.5177V11.3807C9.95857 10.8327 9.72836 10.5587 8.80755 10.1933ZM6.13721 12.7051H6.9199V8.64059H6.13721V12.7051ZM2.5 8.64059H3.65101H3.88122C4.98619 8.68625 5.86096 9.59961 5.81492 10.6957C5.81492 11.2894 5.53867 11.8374 5.07827 12.2484C4.6639 12.5681 4.15746 12.7507 3.65101 12.7051H2.5V8.64059ZM3.5129 12.02C3.88123 12.0656 4.29559 11.9286 4.57183 11.7003C4.84808 11.4263 4.9862 11.0609 4.9862 10.6499C4.9862 10.2846 4.84808 9.91921 4.57183 9.6452C4.29559 9.41686 3.88123 9.27986 3.5129 9.32552H3.2827V12.02H3.5129Z" fill="black"/>
<path fill-rule="evenodd" clip-rule="evenodd" d="M15.7101 8.54639C14.5591 8.54639 13.5923 9.45975 13.5923 10.6472C13.5923 11.7888 14.5131 12.7479 15.7101 12.7935C16.9072 12.8392 17.828 11.8802 17.8741 10.6928C17.828 9.50541 16.9072 8.54639 15.7101 8.54639Z" fill="url(#paint0_linear_1_1441)"/>
<path fill-rule="evenodd" clip-rule="evenodd" d="M15.7101 8.54639C14.5591 8.54639 13.5923 9.45975 13.5923 10.6472C13.5923 11.7888 14.5131 12.7479 15.7101 12.7935C16.9072 12.8392 17.828 11.8802 17.8741 10.6928C17.828 9.50541 16.9072 8.54639 15.7101 8.54639Z" fill="url(#paint1_radial_1_1441)"/>
<defs>
<linearGradient id="paint0_linear_1_1441" x1="14.4196" y1="8.94783" x2="17.1997" y2="12.1854" gradientUnits="userSpaceOnUse">
<stop stop-color="#E15315"/>
<stop offset="1" stop-color="#FFB320"/>
</linearGradient>
<radialGradient id="paint1_radial_1_1441" cx="0" cy="0" r="1" gradientUnits="userSpaceOnUse" gradientTransform="translate(16.0418 11.2964) rotate(-126.027) scale(2.83364 2.93383)">
<stop stop-color="#FFCD83" stop-opacity="0"/>
<stop offset="0.725604" stop-color="#E45816" stop-opacity="0.7"/>
<stop offset="1" stop-color="#912301"/>
</radialGradient>
</defs>
</svg>
