<svg width="108" height="23" viewBox="0 0 108 23" fill="none" xmlns="http://www.w3.org/2000/svg">
<mask id="mask0_1_1219" style="mask-type:luminance" maskUnits="userSpaceOnUse" x="0" y="0" width="108" height="23">
<path d="M107.557 0.259277H0.342773V22.2593H107.557V0.259277Z" fill="white"/>
</mask>
<g mask="url(#mask0_1_1219)">
<g opacity="0.6">
<path d="M11.0622 21.9748L12.9905 2.8317C13.0621 1.83146 13.276 1.68872 13.6331 1.68872H13.8475V0.618393H10.7051V1.68872H10.9194C11.3482 1.68872 11.562 1.97421 11.4909 2.8317L10.3474 14.2604L9.0617 2.8317C8.91896 1.90309 9.13333 1.68872 9.63319 1.68872H9.70482V0.618393H5.3478V1.68872H5.56217C5.99091 1.68872 5.99091 1.83146 6.06203 2.8317L6.42017 5.76025L5.3478 15.0463L4.20482 2.8317C4.06207 1.83146 4.27645 1.68872 4.70468 1.68872H4.77631V0.618393H0.347656V1.68872H0.562028C1.06189 1.68872 1.06189 1.83146 1.13352 2.8317L3.13347 21.9748H5.9904L7.13338 12.1177L8.20473 21.9748H11.0622ZM29.4905 9.40304C29.4905 8.0457 29.4905 7.61746 30.3475 7.61746C30.919 7.61746 30.919 7.83184 30.919 8.97481V20.403C30.919 20.8318 30.7762 20.9029 30.5608 20.9029H30.4181V21.9743H34.7751V20.9029H34.5607C34.2752 20.9029 34.2026 20.7602 34.2026 20.3314V8.3317C34.2026 6.33174 33.7738 5.61751 31.8455 5.61751C31.3218 5.56059 30.7945 5.68572 30.3522 5.97186C29.9099 6.258 29.5796 6.6877 29.4168 7.18872C29.2024 6.11737 28.631 5.61751 27.1309 5.61751C25.9168 5.61751 25.2737 5.97565 24.7738 7.18872V5.61751L20.9877 5.903V6.97435H21.1305C21.3449 6.97435 21.5592 7.18872 21.5592 7.76021V20.2603C21.5592 20.7602 21.4165 20.9029 21.1305 20.9029H20.9877V21.9743H25.202V20.9029H25.0593C24.8449 20.9029 24.7738 20.8313 24.7738 20.4742V9.40304C24.7738 8.0457 24.7738 7.61746 25.5597 7.61746C26.1311 7.61746 26.1311 7.83184 26.1311 8.97481V20.403C26.1311 20.8318 25.9884 20.9029 25.773 20.9029H25.5586V21.9743H29.8445V20.9029H29.7729C29.4874 20.9029 29.3442 20.7602 29.3442 20.3314V9.40304H29.4905ZM59.6336 21.9743H64.9192V20.9029H64.5611C64.1323 20.9029 63.9896 20.6885 63.9896 19.7599V11.4746H66.7754V19.6888C66.7754 20.6174 66.6326 20.8318 66.2039 20.8318H65.7751V21.9021H70.9897V20.8318H70.5609C70.1322 20.8318 69.9894 20.6174 69.9894 19.6888V2.8317C69.9894 1.83146 70.0611 1.68872 70.5609 1.68872H70.9897V0.618393H65.7762V1.68872H66.2049C66.6337 1.68872 66.7764 1.83146 66.7764 2.8317V10.26H63.9195V2.8317C63.9195 1.83146 64.0622 1.68872 64.5621 1.68872H64.9202V0.618393H59.6336V1.68872H60.0623C60.4911 1.68872 60.6338 1.83146 60.6338 2.8317V20.2603C60.6338 20.689 60.4911 20.8318 60.0623 20.8318H59.6336V21.9743ZM98.4191 21.9743H102.563V20.9029H102.417C102.132 20.9029 102.132 20.8313 102.132 20.4742V9.40304C102.132 8.0457 102.132 7.61746 102.989 7.61746C103.632 7.61746 103.632 7.83184 103.632 8.97481V20.403C103.632 20.8318 103.489 20.9029 103.346 20.9029H103.134V21.9743H107.562V20.9029H107.348C107.062 20.9029 106.99 20.7602 106.99 20.3314V8.3317C106.99 6.33174 106.49 5.61751 104.561 5.61751C103.275 5.61751 102.561 5.97565 102.061 7.18872V0.260254L98.0614 0.618393V1.68872H98.4902C98.7757 1.68872 98.9189 1.83146 98.9189 2.47458V20.2603C98.9189 20.7602 98.8473 20.9029 98.4902 20.9029H98.3474V21.9743H98.4191ZM16.776 22.1886C20.2761 22.1886 20.7759 19.2601 20.7759 13.9028C20.7759 8.54556 20.2761 5.617 16.776 5.617C13.276 5.617 12.7761 8.47393 12.7761 13.9028C12.7761 19.2601 13.276 22.1886 16.776 22.1886ZM42.7759 21.9743H46.9902V20.9029H46.7758C46.5615 20.9029 46.5615 20.8313 46.5615 20.4742V9.40304C46.5615 8.0457 46.5615 7.61746 47.4184 7.61746C47.9899 7.61746 48.0616 7.83184 48.0616 8.97481V20.403C48.0616 20.8318 47.9188 20.9029 47.7034 20.9029H47.4891V21.9743H51.9198V20.9029H51.777C51.4915 20.9029 51.4189 20.7602 51.4189 20.3314V8.3317C51.4189 6.33174 50.9901 5.61751 48.9902 5.61751C47.7761 5.61751 46.9902 5.97565 46.5615 7.18872V5.61751L42.4899 5.903V6.97435H42.9187C43.1331 6.97435 43.3474 7.18872 43.3474 7.76021V20.2603C43.3474 20.7602 43.2047 20.9029 42.9187 20.9029H42.7759V21.9743ZM80.9193 22.2603C82.3478 22.2603 82.9193 21.544 83.2053 20.689C83.4908 21.9748 83.7768 22.2603 85.4196 22.2603C87.3479 22.2603 87.5623 21.1173 87.5623 18.903H86.6337C86.6337 20.5458 86.6337 20.6885 86.2756 20.6885C85.9901 20.6885 85.9901 20.5458 85.9901 19.6172V8.97532C85.9901 6.83263 85.2738 5.68965 82.776 5.68965C80.7761 5.68965 78.8472 6.26114 78.9189 8.47546C78.9905 9.4757 79.3476 10.4754 80.419 10.4038C81.3476 10.3322 81.7763 9.8323 81.7763 9.04644C81.7368 8.66943 81.6216 8.30428 81.4375 7.97292C81.2534 7.64155 81.0042 7.3508 80.705 7.11811C81.1081 6.93786 81.5508 6.86405 81.9907 6.90374C82.707 6.90374 82.8477 7.47523 82.8477 8.47495V11.4751C79.2049 12.6892 78.4906 13.1896 78.4906 17.761C78.4906 20.975 79.3476 22.2633 80.9193 22.2633V22.2603ZM74.7051 22.2603C77.4193 22.2603 78.0624 21.4744 77.9192 16.9746H76.7762C76.7762 20.5463 76.6334 20.7607 75.4188 20.7607C73.9187 20.7607 73.9187 20.1181 73.9187 14.0466V13.5467H78.2757C78.2757 7.40411 77.5595 5.68965 74.7041 5.68965C72.061 5.68965 70.7042 7.33249 70.7042 14.0466C70.7047 20.4747 71.7765 22.2603 74.7051 22.2603ZM38.9909 22.1886C41.634 22.1886 42.3482 21.4028 42.2766 16.903H41.1336C41.1336 20.4747 40.9909 20.689 39.7051 20.689C38.0623 20.689 38.2051 20.0464 38.2051 13.975V13.4751H42.4193C42.4193 7.33249 41.8478 5.61802 38.9914 5.61802C36.3484 5.61802 34.9915 7.26086 34.9915 13.975C34.9915 20.4726 36.0624 22.1886 38.9909 22.1886ZM87.7767 21.9743H92.1337V20.9029H91.7756C91.4901 20.9029 91.4174 20.7602 91.4174 20.3314V0.260254L87.3459 0.618393V1.68872H87.7746C88.0601 1.68872 88.1328 1.83146 88.1328 2.26021V20.403C88.1328 20.8318 88.1328 20.9029 87.9184 20.9029H87.704V21.9743H87.7767ZM56.4911 22.1886C58.4911 22.1886 59.4913 20.9029 59.4913 18.903C59.4913 14.2599 55.3471 11.6174 55.3471 8.3317C55.3471 7.33146 55.7053 7.04597 56.4185 7.04597C57.4898 7.04597 57.6326 7.47472 57.7758 9.04593L57.9186 10.546H59.1337V5.76025H58.2051C58.1335 6.33174 57.9907 6.54611 57.9907 6.47653C57.707 6.1801 57.3616 5.94967 56.979 5.80157C56.5963 5.65348 56.1857 5.59134 55.7764 5.61956C54.0619 5.61956 52.4907 6.40542 52.4907 8.97686C52.4907 13.0484 56.6349 16.1197 56.6349 19.191C56.6349 20.5483 56.3494 20.7622 55.3492 20.7622C54.4206 20.7622 54.1351 20.3335 53.9918 18.3335L53.9202 16.9762H52.6345V21.9763H53.7058C53.7775 21.4048 53.9913 21.0477 54.1346 21.26C54.4927 21.6182 54.9199 22.1886 56.4911 22.1886ZM92.85 18.6175C92.85 21.1889 93.2081 22.1891 95.7785 22.1891C97.5641 22.1891 97.9929 21.4729 97.9929 19.475V16.7603H96.9215V19.6172C96.9215 20.5458 96.8499 20.6885 96.4928 20.6885C96.1357 20.6885 96.064 20.5458 96.064 19.7599V6.97435H98.064V5.76025H96.064V1.68872H94.9211C94.1352 5.33151 93.421 5.76025 92.3496 5.76025H92.0641V6.97435H92.7804V18.6175H92.85ZM16.776 20.7602C15.9902 20.7602 15.9902 20.3314 15.9902 13.9043C15.9902 7.40667 15.9902 6.97588 16.776 6.97588C17.4923 6.97588 17.4923 7.40463 17.4923 13.8317C17.4923 20.3294 17.4923 20.7602 16.776 20.7602ZM52.1331 6.47449C54.8473 4.47453 55.4188 2.90281 54.4902 1.54597C54.0619 0.760114 52.919 0.260254 52.1336 0.976533C51.1334 1.76239 51.4173 3.19086 53.205 4.0463C52.8468 4.40444 52.1336 5.18928 51.4905 5.76077L52.1331 6.47449ZM82.2762 20.1887C81.633 20.1887 81.6331 19.4724 81.6331 17.3317C81.6331 13.403 81.6331 12.9031 82.9188 12.1889V18.903C82.9188 19.9743 82.776 20.1887 82.2762 20.1887ZM38.2045 12.2584C38.2762 7.18718 38.3473 6.90118 39.0615 6.90118C39.7757 6.90118 39.7041 7.18667 39.7041 12.2584H38.2045ZM73.9187 12.2584C73.9904 7.18718 74.0615 6.90118 74.7757 6.90118C75.4899 6.90118 75.3472 7.18667 75.3472 12.2584H73.9187Z" fill="white"/>
</g>
</g>
</svg>
