<svg width="32" height="21" viewBox="0 0 32 21" fill="none" xmlns="http://www.w3.org/2000/svg">
<path d="M29 1.19995H3C1.61929 1.19995 0.5 2.31924 0.5 3.69995V17.7C0.5 19.0807 1.61929 20.2 3 20.2H29C30.3807 20.2 31.5 19.0807 31.5 17.7V3.69995C31.5 2.31924 30.3807 1.19995 29 1.19995Z" fill="white"/>
<path d="M29 1.19995H3C1.61929 1.19995 0.5 2.31924 0.5 3.69995V17.7C0.5 19.0807 1.61929 20.2 3 20.2H29C30.3807 20.2 31.5 19.0807 31.5 17.7V3.69995C31.5 2.31924 30.3807 1.19995 29 1.19995Z" stroke="#EDEEF0"/>
<path d="M17.5594 10.7C17.5594 13.1853 15.5703 15.2 13.1166 15.2C10.6629 15.2 8.67383 13.1853 8.67383 10.7C8.67383 8.21467 10.6629 6.19995 13.1166 6.19995C15.5703 6.19995 17.5594 8.21467 17.5594 10.7Z" fill="#EC0014"/>
<path d="M23.3251 10.7C23.3251 13.1853 21.336 15.2 18.8823 15.2C16.4286 15.2 14.4395 13.1853 14.4395 10.7C14.4395 8.21467 16.4286 6.19995 18.8823 6.19995C21.336 6.19995 23.3251 8.21467 23.3251 10.7Z" fill="#00A3E6"/>
<path d="M16.0069 7.27332C16.9636 8.09872 17.5704 9.32787 17.5704 10.7006C17.5704 12.0733 16.9636 13.3024 16.0069 14.1278C15.0502 13.3024 14.4434 12.0732 14.4434 10.7005C14.4434 9.32784 15.0501 8.09872 16.0069 7.27332Z" fill="#7476D0"/>
</svg>
