<svg width="140" height="25" viewBox="0 0 140 25" fill="none" xmlns="http://www.w3.org/2000/svg">
<mask id="mask0_1_1226" style="mask-type:luminance" maskUnits="userSpaceOnUse" x="1" y="1" width="139" height="24">
<path d="M139.158 1.25928H1.05664V24.2593H139.158V1.25928Z" fill="white"/>
</mask>
<g mask="url(#mask0_1_1226)">
<g opacity="0.4">
<path fill-rule="evenodd" clip-rule="evenodd" d="M19.6152 23.1117H13.0573V12.7065C13.0573 11.6145 12.2733 10.9144 11.3549 10.9144C10.4589 10.9144 9.37802 11.6425 9.37802 12.7065V23.1117H3.49219V6.53511L1.59375 5.19105C3.76659 4.46304 7.40114 2.89502 9.37802 1.79736V10.4889C10.1676 9.50883 12.0885 8.24876 14.5246 8.24876C17.6159 8.24876 18.9431 10.2928 18.9431 12.7345V21.5156C18.9431 21.7846 19.1671 22.3109 19.6152 23.1117ZM87.2039 23.1117H80.646V12.7065C80.646 11.6145 79.8621 10.9144 78.9436 10.9144C78.0476 10.9144 76.9667 11.6425 76.9667 12.7065V23.1117H71.0809V6.53511L69.1825 5.19105C71.3553 4.46304 74.9899 2.89502 76.9667 1.79736V10.4889C77.7508 9.50883 79.6716 8.24876 82.1133 8.24876C85.2046 8.24876 86.5319 10.2928 86.5319 12.7345V21.5156C86.5319 21.7846 86.7558 22.3109 87.2039 23.1117ZM33.9517 20.6364V21.6724C32.6468 22.7981 31.2019 23.7221 28.105 23.7221C23.2105 23.7221 20.22 20.4404 20.22 16.3971C20.22 11.5753 23.2945 8.28801 27.8026 8.28801C32.266 8.28801 33.9517 11.3457 33.9517 15.193H25.7978C26.1505 19.6228 28.6203 21.6444 30.8771 21.6444C31.9636 21.6444 33.19 21.2803 33.9517 20.6364ZM27.5282 14.3194C28.8387 14.3194 28.9899 13.9443 28.9899 12.8466C28.9899 12.0065 28.8387 9.93444 27.5282 9.93444C26.2178 9.93444 26.0666 12.0065 26.0666 12.8466C26.0666 13.9442 26.2177 14.3194 27.5282 14.3194ZM138.619 20.6308V21.6669C137.314 22.7925 135.87 23.7165 132.773 23.7165C127.878 23.7165 124.888 20.4348 124.888 16.3971C124.888 11.5697 127.962 8.28801 132.476 8.28801C136.934 8.28801 138.619 11.3457 138.619 15.1874H130.465C130.818 19.6228 133.288 21.6388 135.545 21.6388C136.631 21.6388 137.858 21.2747 138.619 20.6308ZM132.196 14.3138C133.506 14.3138 133.657 13.9444 133.657 12.8466C133.657 12.0065 133.506 9.9288 132.196 9.9288C130.885 9.9288 130.734 12.0065 130.734 12.8466C130.734 13.9442 130.885 14.3138 132.196 14.3138ZM50.5786 20.5076L51.2338 20.6474C50.9372 21.8515 50.069 23.7219 47.2745 23.7219C44.9448 23.7219 44.2896 22.2883 43.8024 20.7762C43.3936 22.1763 41.7975 23.7219 38.7622 23.7219C36.0517 23.7219 34.5621 22.5178 34.5621 20.2442C34.5621 17.7185 37.0262 15.8648 43.1808 14.0391V11.3791C43.1808 10.0015 42.4471 9.52542 41.6351 9.52542C40.9015 9.52542 39.7366 10.3095 39.7366 11.5471C39.7366 12.1351 39.8484 12.5831 39.9272 13.1712C39.9272 13.9272 39.0592 15.0808 37.7319 15.0808C36.2703 15.0808 35.5646 14.0167 35.5646 12.7791C35.5646 10.7574 37.4351 8.28777 42.3409 8.28777C47.4371 8.28777 49.0611 10.9814 49.0611 13.5631V20.4122C49.0611 20.8322 49.229 21.2523 49.6884 21.2523C50.0915 21.2523 50.3714 21.0228 50.5786 20.5076ZM43.2088 19.9924V14.9074C41.1479 15.7418 40.4367 17.8139 40.4367 19.4044C40.4367 20.6868 40.8341 21.2748 41.7863 21.2748C42.6152 21.2748 43.2088 20.7428 43.2088 19.9924ZM59.0069 23.1117H52.2419V6.53511L50.4386 5.19105C52.4995 4.46304 56.2852 2.89502 58.1669 1.79736V21.5156C58.1669 21.7676 58.4469 22.2997 59.0069 23.1117ZM96.1026 23.1117H89.332V6.53511L87.5287 5.19105C89.5896 4.46304 93.3809 2.89502 95.2626 1.79736V21.5156C95.2626 21.7676 95.5425 22.2997 96.1026 23.1117ZM69.16 21.3925V22.4285C68.1744 23.2741 66.5392 23.7221 64.7751 23.7221C61.863 23.7221 60.8549 21.5604 60.8549 19.7348V9.98479H59.4493L66.8248 3.51101V8.84796H69.16V9.98479H66.8248V20.5524C66.8248 21.3925 67.3176 21.7844 67.9112 21.7844C68.2753 21.7844 68.9249 21.6168 69.16 21.3925ZM101.731 8.05839C100.056 8.05839 98.7179 6.66948 98.7179 4.92781C98.7179 3.18615 100.056 1.79736 101.731 1.79736C103.405 1.79736 104.738 3.18615 104.738 4.92781C104.738 6.66948 103.405 8.05839 101.731 8.05839ZM105.69 23.1117H98.7795V12.6729L96.881 11.3233C99.0539 10.5953 102.7 9.02161 104.682 7.92395V21.5156C104.682 21.779 105.018 22.3109 105.69 23.1117ZM124.445 23.1117H117.675V12.6729C117.675 11.5809 116.896 10.8753 115.972 10.8753C115.076 10.8753 113.995 11.6089 113.995 12.6729V23.1117H108.109V12.6729L106.216 11.3233C108.384 10.5953 111.862 9.02161 113.844 7.92395V10.7912C114.818 9.49758 116.706 8.20399 119.142 8.20399C122.233 8.20399 123.56 10.2592 123.56 12.7009V21.5156C123.56 21.7733 123.857 22.3053 124.445 23.1117Z" fill="white"/>
</g>
</g>
</svg>
