<svg width="32" height="21" viewBox="0 0 32 21" fill="none" xmlns="http://www.w3.org/2000/svg">
<path d="M30 1.31006H2C1.17157 1.31006 0.5 1.98163 0.5 2.81006V18.8101C0.5 19.6385 1.17157 20.3101 2 20.3101H30C30.8284 20.3101 31.5 19.6385 31.5 18.8101V2.81006C31.5 1.98163 30.8284 1.31006 30 1.31006Z" fill="white"/>
<path d="M30 1.31006H2C1.17157 1.31006 0.5 1.98163 0.5 2.81006V18.8101C0.5 19.6385 1.17157 20.3101 2 20.3101H30C30.8284 20.3101 31.5 19.6385 31.5 18.8101V2.81006C31.5 1.98163 30.8284 1.31006 30 1.31006Z" stroke="#EDEEF0"/>
<path d="M5.80878 7.20996H3.72868C3.58634 7.20996 3.46528 7.31445 3.44308 7.45643L2.60179 12.8457C2.58506 12.952 2.66658 13.0479 2.77334 13.0479H3.76639C3.90874 13.0479 4.02979 12.9434 4.05199 12.8011L4.27889 11.3475C4.30079 11.2053 4.42215 11.1008 4.56419 11.1008H5.22268C6.59289 11.1008 7.38369 10.4309 7.59021 9.1033C7.68328 8.52248 7.59416 8.06613 7.32498 7.74653C7.02935 7.39558 6.50499 7.20996 5.80878 7.20996ZM6.04876 9.17828C5.93501 9.93242 5.36472 9.93242 4.81329 9.93242H4.4994L4.71961 8.52402C4.73269 8.43889 4.80569 8.3762 4.89085 8.3762H5.03471C5.41034 8.3762 5.76468 8.3762 5.94778 8.59255C6.05697 8.72162 6.09043 8.91338 6.04876 9.17828Z" fill="#253B80"/>
<path d="M12.0258 9.15422H11.0297C10.9448 9.15422 10.8715 9.21692 10.8584 9.30204L10.8143 9.58354L10.7447 9.48151C10.529 9.16529 10.0482 9.05957 9.56822 9.05957C8.46749 9.05957 7.52735 9.90191 7.34425 11.0835C7.24905 11.6729 7.3844 12.2365 7.71532 12.6295C8.01886 12.9909 8.45319 13.1415 8.96995 13.1415C9.85686 13.1415 10.3487 12.5653 10.3487 12.5653L10.3043 12.845C10.2875 12.9519 10.3691 13.0478 10.4752 13.0478H11.3725C11.5151 13.0478 11.6355 12.9433 11.6581 12.801L12.1964 9.35643C12.2134 9.25041 12.1322 9.15422 12.0258 9.15422ZM10.6373 11.113C10.5412 11.6879 10.0895 12.0739 9.51347 12.0739C9.22422 12.0739 8.99306 11.9802 8.84464 11.8026C8.69743 11.6262 8.64146 11.3751 8.6883 11.0955C8.77803 10.5254 9.2373 10.1269 9.80455 10.1269C10.0874 10.1269 10.3173 10.2218 10.4688 10.401C10.6206 10.582 10.6808 10.8346 10.6373 11.113Z" fill="#253B80"/>
<path d="M17.3304 9.1543H16.3294C16.2339 9.1543 16.1442 9.20224 16.0901 9.28245L14.7095 11.3371L14.1243 9.36266C14.0875 9.23912 13.9747 9.1543 13.8469 9.1543H12.8633C12.7438 9.1543 12.6607 9.27231 12.6988 9.38601L13.8013 12.6551L12.7648 14.1336C12.6833 14.2501 12.7654 14.4102 12.9062 14.4102H13.906C14.0008 14.4102 14.0897 14.3635 14.1435 14.2848L17.4728 9.42934C17.5524 9.31318 17.4706 9.1543 17.3304 9.1543Z" fill="#253B80"/>
<path d="M20.6447 7.20996H18.5643C18.4223 7.20996 18.3012 7.31445 18.279 7.45643L17.4377 12.8457C17.421 12.952 17.5025 13.0479 17.6087 13.0479H18.6762C18.7754 13.0479 18.8603 12.9747 18.8758 12.8752L19.1145 11.3475C19.1364 11.2053 19.2578 11.1008 19.3998 11.1008H20.058C21.4285 11.1008 22.219 10.4309 22.4258 9.1033C22.5192 8.52248 22.4295 8.06613 22.1603 7.74653C21.865 7.39558 21.3409 7.20996 20.6447 7.20996ZM20.8847 9.17828C20.7712 9.93242 20.201 9.93242 19.6492 9.93242H19.3356L19.5562 8.52402C19.5692 8.43889 19.6416 8.3762 19.7271 8.3762H19.871C20.2463 8.3762 20.6009 8.3762 20.784 8.59255C20.8932 8.72162 20.9264 8.91338 20.8847 9.17828Z" fill="#179BD7"/>
<path d="M26.8643 9.15422H25.8688C25.7834 9.15422 25.7107 9.21692 25.6979 9.30204L25.6538 9.58354L25.5838 9.48151C25.3682 9.16529 24.8876 9.05957 24.4077 9.05957C23.3069 9.05957 22.3671 9.90191 22.184 11.0835C22.0891 11.6729 22.2239 12.2365 22.5548 12.6295C22.8589 12.9909 23.2926 13.1415 23.8094 13.1415C24.6963 13.1415 25.1881 12.5653 25.1881 12.5653L25.1437 12.845C25.127 12.9519 25.2085 13.0478 25.3153 13.0478H26.2122C26.3543 13.0478 26.4753 12.9433 26.4975 12.801L27.0362 9.35643C27.0526 9.25041 26.9711 9.15422 26.8643 9.15422ZM25.4759 11.113C25.3804 11.6879 24.9281 12.0739 24.352 12.0739C24.0634 12.0739 23.8316 11.9802 23.6832 11.8026C23.536 11.6262 23.4806 11.3751 23.5268 11.0955C23.6172 10.5254 24.0758 10.1269 24.6431 10.1269C24.926 10.1269 25.1559 10.2218 25.3074 10.401C25.4597 10.582 25.52 10.8346 25.4759 11.113Z" fill="#179BD7"/>
<path d="M28.0376 7.35809L27.1838 12.8461C27.1671 12.9524 27.2486 13.0483 27.3548 13.0483H28.2131C28.3557 13.0483 28.4768 12.9438 28.4987 12.8015L29.3406 7.41248C29.3573 7.30615 29.2758 7.20996 29.1696 7.20996H28.2085C28.1237 7.21027 28.0507 7.27296 28.0376 7.35809Z" fill="#179BD7"/>
</svg>
