<svg width="58" height="21" viewBox="0 0 58 21" fill="none" xmlns="http://www.w3.org/2000/svg">
<path fill-rule="evenodd" clip-rule="evenodd" d="M27.8997 0.563477C26.7405 0.563477 25.8489 1.51586 25.8489 2.62997C25.8489 3.76204 26.7405 4.66051 27.8997 4.66051C29.0589 4.66051 29.8971 3.76204 29.8971 2.62997C29.8971 1.51586 29.0589 0.563477 27.8997 0.563477ZM29.5047 5.36133L25.617 6.87075C26.9189 8.27237 26.8476 12.9624 26.5622 14.0406C26.4017 14.6695 26.1164 15.3164 25.5814 16.0891C25.5279 16.152 25.4432 16.2508 25.3585 16.3497C25.2737 16.4485 25.189 16.5473 25.1355 16.6102L24.5827 17.0774H30.5391C30.0397 16.6462 29.5047 15.3883 29.5047 13.1601V5.36133ZM1.63106 16.8259L0.935547 10.6803C0.935547 10.6803 2.1839 12.1718 2.2909 12.2976C5.10859 15.9993 7.87277 16.8618 8.87145 16.8977C9.72746 16.8977 10.2981 16.5923 10.5121 15.568C10.8688 13.8609 8.30078 12.2257 5.94676 10.9678C5.9111 10.9498 5.87989 10.9319 5.84868 10.9139C5.81747 10.8959 5.78626 10.878 5.75059 10.86C3.55707 9.67399 1.52405 8.05674 1.52405 5.28944C1.52405 2.50418 3.98508 1.22835 6.90977 1.22835C9.08545 1.22835 10.7261 1.62368 11.6713 2.07292L12.5808 6.52934H12.5451C10.4943 3.45656 7.1416 1.53382 5.57226 1.51586C4.66275 1.51586 3.57491 1.92916 3.55707 2.8456C3.52141 3.61829 4.07425 5.07381 7.99762 7.03248C11.1184 8.57786 12.7591 10.3209 12.7769 12.6569C12.7948 15.0828 10.7083 16.8259 8.46128 17.2212C5.57226 17.7243 2.89724 17.347 1.63106 16.8259ZM13.572 8.37897C13.3953 7.96455 13.2537 7.63235 13.1693 7.57157L17.485 5.34335V7.42781C17.6455 7.10436 18.6798 5.70274 20.8555 5.70274C23.049 5.70274 25.3495 7.19421 25.3495 11.2014C25.3495 15.5321 22.6389 17.2391 20.7663 17.2391C19.1078 17.2391 18.02 16.3047 17.592 15.9274C17.5385 15.8735 17.5028 15.8375 17.4671 15.8196V16.8259C17.4671 18.5869 18.0021 20.1322 18.5015 20.5635H12.5808C13.7187 19.7763 14.064 18.2231 14.2484 17.3939C14.2576 17.3524 14.2664 17.3128 14.2749 17.2751C14.3039 17.1486 14.3277 17.0168 14.3519 16.8826C14.3723 16.769 14.3931 16.6537 14.4176 16.5383C14.5002 16.1361 14.5403 15.4663 14.5707 14.9585C14.5797 14.8084 14.5878 14.6724 14.596 14.5617C14.7208 12.6749 14.6316 10.7342 13.8469 9.00912C13.7489 8.79406 13.6564 8.57711 13.572 8.37897ZM17.3958 7.82314L17.4493 15.6578C17.8238 16.0532 18.5193 16.5563 19.625 16.5383C21.3192 16.5204 21.979 14.5797 21.9612 11.435C21.9077 7.96689 20.9625 6.22385 19.5537 6.33167C18.4123 6.42152 17.6276 7.17624 17.3958 7.82314ZM32.5543 9.29663C32.3938 8.59582 31.8409 7.33796 31.6983 7.23014L35.9248 5.39727L35.7465 10.1592C36.228 7.57157 37.5476 6.0262 40.3297 5.75666L39.652 9.06303C38.1897 8.73958 35.7465 8.45207 35.7465 10.8241L35.7286 13.4117C35.8299 15.4353 36.6658 16.5416 37.0273 17.02C37.0478 17.0471 37.0667 17.0723 37.084 17.0954H31.4664C32.2868 16.2149 32.6256 15.2984 32.8039 14.0945C32.9466 13.0523 32.8931 10.7701 32.5543 9.29663ZM43.29 0.635359C42.1308 0.635359 41.2392 1.58774 41.2392 2.70185C41.2392 3.83392 42.1308 4.71443 43.29 4.7324C44.4492 4.7324 45.2874 3.83392 45.2874 2.70185C45.2874 1.58774 44.4492 0.635359 43.29 0.635359ZM44.9129 5.41523L41.0252 6.92467C42.3092 8.32629 42.2378 13.0343 41.9703 14.1125C41.8098 14.7414 41.5245 15.3883 40.9895 16.161C40.936 16.2239 40.8511 16.3229 40.7664 16.4218C40.6817 16.5206 40.5971 16.6193 40.5437 16.6821L39.9908 17.1493H45.9472C45.4479 16.718 44.9129 15.4602 44.9129 13.232V5.41523ZM46.3037 11.4169C46.3037 8.21835 48.8718 5.41512 52.0105 5.66669C54.9708 5.9003 57.4675 8.38008 57.6815 11.4349C57.8955 14.6155 55.167 17.2031 51.9926 17.2031C48.8361 17.2031 46.3037 14.6514 46.3037 11.4169ZM48.8361 8.29023C48.7469 11.3451 50.9583 16.664 53.669 16.7898C54.5071 16.8257 54.9887 16.1249 54.953 14.5975C54.9351 11.9021 53.027 7.17612 50.1736 6.22374C49.2998 5.93623 48.8718 7.03237 48.8361 8.29023ZM50.7264 8.79337C50.3163 10.4645 51.315 13.8248 53.2053 14.6694C53.4728 12.7826 52.6346 9.70981 50.7264 8.79337Z" fill="url(#paint0_linear_4_481)"/>
<defs>
<linearGradient id="paint0_linear_4_481" x1="30.9361" y1="0.487227" x2="87.3396" y2="38.9331" gradientUnits="userSpaceOnUse">
<stop stop-color="#59382A"/>
<stop offset="1" stop-color="#FFFAF4" stop-opacity="0"/>
</linearGradient>
</defs>
</svg>
