<svg width="10" height="10" viewBox="0 0 10 10" fill="none" xmlns="http://www.w3.org/2000/svg">
<g clip-path="url(#clip0_1_486)">
<path d="M9.37029 5.18836C9.37029 5.05841 9.33929 4.93648 9.28736 4.82566C8.94094 3.70811 7.31912 3.78974 5.0122 3.73523C4.62651 3.72619 4.84713 3.27075 4.98249 2.271C5.07059 1.62077 4.65131 0.622314 3.94658 0.622314C2.78459 0.622314 3.9024 1.53888 2.87501 3.8055C2.32605 5.01656 1.09897 4.33818 1.09897 5.55467V8.32375C1.09897 8.79727 1.14547 9.25246 1.81145 9.32737C2.45703 9.39996 2.31184 9.86006 3.24314 9.86006H7.9045C8.37932 9.86006 8.76553 9.47359 8.76553 8.99877C8.76553 8.80192 8.69655 8.62264 8.58521 8.47746C8.84871 8.32995 9.02954 8.05146 9.02954 7.72855C9.02954 7.53221 8.96083 7.35293 8.84974 7.20801C9.11402 7.06076 9.29537 6.78201 9.29537 6.45858C9.29537 6.22376 9.2003 6.01089 9.04711 5.85511C9.24267 5.69727 9.37029 5.45857 9.37029 5.18836Z" fill="#FFDC5D"/>
<path d="M6.28683 6.04944H8.50953C8.81178 6.04944 9.09543 5.88773 9.24991 5.62758C9.31346 5.52038 9.27807 5.38165 9.1706 5.31784C9.06339 5.25403 8.92467 5.28994 8.86086 5.39715C8.78775 5.52089 8.65264 5.59736 8.50927 5.59736H6.23335C6.00783 5.59736 5.82441 5.41394 5.82441 5.18842C5.82441 4.96289 6.00783 4.77948 6.23335 4.77948H7.75416C7.87894 4.77948 7.9802 4.67821 7.9802 4.55343C7.9802 4.42866 7.87894 4.32739 7.75416 4.32739H6.2331C5.75828 4.32739 5.37207 4.7136 5.37207 5.18842C5.37207 5.45321 5.49478 5.68752 5.68336 5.84562C5.52449 6.00191 5.42555 6.21891 5.42555 6.45864C5.42555 6.72421 5.54903 6.95929 5.73865 7.11713C5.5808 7.27317 5.4829 7.48939 5.4829 7.72861C5.4829 8.01794 5.6273 8.27318 5.84689 8.42947C5.71152 8.58163 5.62679 8.77977 5.62679 8.99883C5.62679 9.47365 6.013 9.85986 6.48781 9.85986H7.90451C8.20676 9.85986 8.49067 9.6984 8.64515 9.43826C8.70896 9.33105 8.67357 9.19233 8.56636 9.12852C8.4589 9.06523 8.32017 9.1001 8.25662 9.20731C8.183 9.33105 8.04789 9.40778 7.90451 9.40778H6.48781C6.26229 9.40778 6.07887 9.22436 6.07887 8.99883C6.07887 8.77331 6.26229 8.58989 6.48781 8.58989H8.16853C8.47078 8.58989 8.75495 8.42818 8.90917 8.16803C8.97298 8.06057 8.93759 7.92184 8.83038 7.85829C8.72214 7.79345 8.58393 7.82988 8.52064 7.93708C8.44598 8.06289 8.31423 8.13781 8.16853 8.13781H6.34392C6.1184 8.13781 5.93498 7.95413 5.93498 7.72861C5.93498 7.50308 6.1184 7.31967 6.34392 7.31967H8.4341C8.73635 7.31967 9.02025 7.15821 9.17474 6.89807C9.23855 6.79086 9.20315 6.65213 9.09595 6.58833C8.98822 6.52478 8.84975 6.55991 8.7862 6.66712C8.71154 6.79267 8.5798 6.86758 8.4341 6.86758H6.28683C6.0613 6.86758 5.87789 6.68417 5.87789 6.45864C5.87789 6.23312 6.06105 6.04944 6.28683 6.04944Z" fill="#EE9547"/>
</g>
<defs>
<clipPath id="clip0_1_486">
<rect width="9.3" height="9.3" fill="white" transform="translate(0.339996 0.560059)"/>
</clipPath>
</defs>
</svg>
