<svg width="14" height="15" viewBox="0 0 14 15" fill="none" xmlns="http://www.w3.org/2000/svg">
<g clip-path="url(#clip0_1_38)">
<path d="M11.6666 9.26562C10.5 9.26562 9.06575 12.0244 8.94441 13.1545C8.78069 14.677 9.72219 14.7101 9.72219 14.7101H14V10.8212C14 10.8212 12.663 9.26562 11.6666 9.26562Z" fill="#50A5E6"/>
<path d="M11.2745 12.1077C11.9026 11.0199 12.1647 9.99552 11.86 9.81962C11.5553 9.64371 10.7992 10.3829 10.1712 11.4707C9.54322 12.5584 9.2811 13.5828 9.58578 13.7587C9.89045 13.9346 10.6465 13.1954 11.2745 12.1077Z" fill="#1C6399"/>
<path d="M7.81124 0.709961C8.27052 0.709961 8.64269 1.08213 8.64269 1.54141C8.64269 1.84824 8.90246 5.75074 8.90246 5.75074L6.9798 7.70996V1.54141C6.9798 1.08213 7.35196 0.709961 7.81124 0.709961Z" fill="#F9CA55"/>
<path d="M7.34029 2.39118C7.34029 1.96379 7.67162 1.61768 8.08035 1.61768C8.48907 1.61768 8.8204 1.96418 8.8204 2.39118C8.8204 2.39118 9.02846 4.70195 9.28396 6.03506C9.6254 6.76073 9.81635 7.85584 9.77435 8.46484C9.79535 8.61962 11.9618 10.4116 11.9618 10.4116C11.8526 11.1167 11.0833 12.8052 10.1111 13.5846L8.74185 12.4475C7.6199 12.2903 7.00818 11.1521 7.00818 10.7892C7.00818 9.62879 7.34029 2.39118 7.34029 2.39118Z" fill="#FFDC5D"/>
<path d="M2.33333 9.26562C3.5 9.26562 4.93422 12.0244 5.05556 13.1545C5.21928 14.677 4.27778 14.7101 4.27778 14.7101H0V10.8212C0 10.8212 1.337 9.26562 2.33333 9.26562Z" fill="#50A5E6"/>
<path d="M4.41377 13.7583C4.71844 13.5824 4.45633 12.558 3.82832 11.4702C3.20031 10.3825 2.44422 9.64329 2.13955 9.8192C1.83488 9.9951 2.09699 11.0195 2.725 12.1072C3.35301 13.195 4.1091 13.9342 4.41377 13.7583Z" fill="#1C6399"/>
<path d="M6.24592 0.714233C5.75359 0.664844 5.33865 1.05023 5.33865 1.53207C5.33865 1.8354 5.26709 5.54501 5.26709 5.54501L6.95915 7.70996L6.98326 1.57912C6.98326 1.14901 6.67409 0.757011 6.24592 0.714233Z" fill="#F9CA55"/>
<path d="M6.6597 2.39118C6.6597 1.96379 6.32837 1.61768 5.91965 1.61768C5.51092 1.61768 5.17959 1.96418 5.17959 2.39118C5.17959 2.39118 4.97154 4.70195 4.71604 6.03506C4.37459 6.76073 4.18365 7.85584 4.22565 8.46484C4.20465 8.61962 2.03815 10.4116 2.03815 10.4116C2.14742 11.1167 2.91665 12.8052 3.88887 13.5846L5.25815 12.4475C6.38009 12.2903 6.99181 11.1521 6.99181 10.7892C6.99181 9.62879 6.6597 2.39118 6.6597 2.39118Z" fill="#FFDC5D"/>
<path d="M6.98368 10.7523C6.82268 10.7523 6.69202 10.6217 6.69202 10.4607V1.79582C6.69202 1.63482 6.82268 1.50415 6.98368 1.50415C7.14468 1.50415 7.27535 1.63482 7.27535 1.79582V10.461C7.27574 10.6217 7.14507 10.7523 6.98368 10.7523Z" fill="#F9CA55"/>
</g>
<defs>
<clipPath id="clip0_1_38">
<rect width="14" height="14" fill="white" transform="translate(0 0.709961)"/>
</clipPath>
</defs>
</svg>
