<svg width="17" height="17" viewBox="0 0 17 17" fill="none" xmlns="http://www.w3.org/2000/svg">
<mask id="mask0_16_3035" style="mask-type:luminance" maskUnits="userSpaceOnUse" x="0" y="0" width="17" height="17">
<path d="M16.7251 0.972656H0.725098V16.9727H16.7251V0.972656Z" fill="white"/>
</mask>
<g mask="url(#mask0_16_3035)">
<path d="M11.0225 5.43913L9.99447 6.03246C9.71908 5.79598 9.40277 5.61184 9.06114 5.48913V4.3058H7.06114V5.4898C6.71952 5.61251 6.4032 5.79665 6.12781 6.03313L5.09447 5.43913L4.09447 7.17246L5.11381 7.76113C5.04002 8.12094 5.04002 8.49199 5.11381 8.8518L4.09447 9.43913L5.09447 11.1725L6.12247 10.5791C6.39787 10.8156 6.71418 10.9998 7.05581 11.1225V12.3058H9.05581V11.1218C9.39743 10.9991 9.71374 10.8149 9.98914 10.5785L11.0171 11.1718L12.0171 9.43846L10.9978 8.8498C11.0716 8.48999 11.0716 8.11894 10.9978 7.75913L12.0225 7.17246L11.0225 5.43913ZM8.05847 9.3058C7.86069 9.3058 7.66735 9.24715 7.5029 9.13727C7.33846 9.02739 7.21028 8.87121 7.13459 8.68848C7.05891 8.50575 7.0391 8.30469 7.07769 8.11071C7.11627 7.91673 7.21151 7.73854 7.35137 7.59869C7.49122 7.45884 7.6694 7.3636 7.86338 7.32501C8.05736 7.28643 8.25843 7.30623 8.44116 7.38192C8.62388 7.45761 8.78006 7.58578 8.88994 7.75023C8.99983 7.91468 9.05847 8.10802 9.05847 8.3058C9.05847 8.57101 8.95312 8.82537 8.76558 9.0129C8.57804 9.20044 8.32369 9.3058 8.05847 9.3058ZM16.6391 9.2338C16.4905 8.90046 16.3418 8.5558 16.1931 8.21313C15.6245 6.70433 14.8817 5.26705 13.9798 3.93046C13.1561 2.8262 12.0391 1.97525 10.7557 1.47439C9.47239 0.973544 8.07424 0.842899 6.72031 1.09732C5.36639 1.35174 4.11103 1.98102 3.09704 2.91357C2.08304 3.84612 1.3511 5.04452 0.984471 6.37246C0.676532 7.51847 0.652871 8.7223 0.915542 9.87951C1.17821 11.0368 1.71928 12.1124 2.49181 13.0132C2.64166 13.1913 2.72423 13.4164 2.72514 13.6492V16.9725H12.0585V14.9725H12.6538C13.2169 14.9705 13.7604 14.7658 14.1848 14.3958C14.6093 14.0258 14.8863 13.5154 14.9651 12.9578L15.1918 11.3058H16.7251V9.4278L16.6391 9.2338ZM13.4491 9.3058L12.9825 12.6845C12.9714 12.7648 12.9315 12.8384 12.8702 12.8914C12.8088 12.9444 12.7302 12.9732 12.6491 12.9725H10.0585V14.9725H4.72514V13.6492C4.7238 12.9479 4.47683 12.2693 4.02714 11.7312C3.46206 11.0757 3.06543 10.2923 2.87165 9.44886C2.67788 8.60544 2.6928 7.72748 2.91514 6.89113C3.18568 5.92254 3.7231 5.04953 4.46605 4.37174C5.209 3.69396 6.12754 3.23871 7.11683 3.05797C8.10612 2.87723 9.1263 2.97827 10.0609 3.34956C10.9955 3.72086 11.8069 4.34744 12.4025 5.1578C13.1899 6.36816 13.8457 7.65929 14.3585 9.00913L14.4871 9.30513L13.4491 9.3058Z" fill="#227E64"/>
</g>
</svg>
