<svg width="33" height="21" viewBox="0 0 33 21" fill="none" xmlns="http://www.w3.org/2000/svg">
<path d="M30.3452 1.47266H2.34521C1.51679 1.47266 0.845215 2.14423 0.845215 2.97266V18.9727C0.845215 19.8011 1.51679 20.4727 2.34521 20.4727H30.3452C31.1736 20.4727 31.8452 19.8011 31.8452 18.9727V2.97266C31.8452 2.14423 31.1736 1.47266 30.3452 1.47266Z" fill="white"/>
<path d="M30.3452 1.47266H2.34521C1.51679 1.47266 0.845215 2.14423 0.845215 2.97266V18.9727C0.845215 19.8011 1.51679 20.4727 2.34521 20.4727H30.3452C31.1736 20.4727 31.8452 19.8011 31.8452 18.9727V2.97266C31.8452 2.14423 31.1736 1.47266 30.3452 1.47266Z" stroke="#EDEEF0"/>
<mask id="mask0_16_3108" style="mask-type:luminance" maskUnits="userSpaceOnUse" x="5" y="6" width="23" height="10">
<path d="M27.6767 6.97266H5.01318V15.9727H27.6767V6.97266Z" fill="white"/>
</mask>
<g mask="url(#mask0_16_3108)">
<path d="M15.7329 11.3696V14.0078H14.896V7.49263H17.1157C17.3807 7.48709 17.6441 7.53408 17.8908 7.63089C18.1375 7.7277 18.3626 7.8724 18.5531 8.05665C18.7455 8.22972 18.8986 8.44197 19.0022 8.67913C19.1057 8.91629 19.1573 9.17287 19.1535 9.43163C19.159 9.69178 19.1082 9.95003 19.0045 10.1887C18.9009 10.4274 18.7469 10.6408 18.5531 10.8144C18.1649 11.1846 17.6858 11.3694 17.1157 11.3691L15.7329 11.3696ZM15.7329 8.29474V10.569H17.1365C17.2904 10.5736 17.4435 10.546 17.5861 10.488C17.7287 10.43 17.8576 10.3429 17.9646 10.2322C18.071 10.1287 18.1556 10.0049 18.2134 9.86819C18.2712 9.73144 18.301 9.5845 18.301 9.43605C18.301 9.2876 18.2712 9.14066 18.2134 9.00391C18.1556 8.86717 18.071 8.7434 17.9646 8.63992C17.8589 8.52691 17.7305 8.43764 17.5877 8.37805C17.4449 8.31845 17.2911 8.28987 17.1365 8.29422L15.7329 8.29474Z" fill="black"/>
<path d="M21.0813 9.4043C21.6999 9.4043 22.1882 9.56961 22.5462 9.90023C22.9042 10.2308 23.083 10.6841 23.0827 11.2601V14.0075H22.2821V13.3888H22.2457C21.8992 13.8983 21.4383 14.153 20.863 14.153C20.3719 14.153 19.961 14.0075 19.6304 13.7163C19.4718 13.5827 19.3449 13.4154 19.2591 13.2265C19.1733 13.0377 19.1307 12.8321 19.1345 12.6247C19.1345 12.1634 19.3088 11.7966 19.6574 11.5242C20.0061 11.2518 20.4715 11.1152 21.0537 11.1145C21.5507 11.1145 21.96 11.2055 22.2816 11.3875V11.1962C22.2826 11.0548 22.252 10.915 22.1922 10.7868C22.1324 10.6587 22.0449 10.5455 21.9359 10.4554C21.7146 10.2557 21.4261 10.1468 21.1281 10.1503C20.6606 10.1503 20.2906 10.3475 20.0182 10.7418L19.2811 10.2776C19.6866 9.69541 20.2866 9.4043 21.0813 9.4043ZM19.9985 12.6429C19.9979 12.7494 20.0228 12.8545 20.0711 12.9494C20.1194 13.0444 20.1897 13.1264 20.2761 13.1887C20.4612 13.3343 20.6909 13.4114 20.9264 13.407C21.2796 13.4064 21.6181 13.2659 21.8678 13.0161C22.1451 12.7552 22.2837 12.449 22.2837 12.0976C22.0227 11.8896 21.6588 11.7857 21.192 11.7857C20.852 11.7857 20.5686 11.8676 20.3416 12.0315C20.1123 12.1979 19.9985 12.4001 19.9985 12.6429Z" fill="black"/>
<path d="M27.6775 9.5498L24.8829 15.9724H24.0189L25.056 13.7252L23.2183 9.5498H24.1281L25.4563 12.752H25.4745L26.7663 9.5498H27.6775Z" fill="black"/>
<path d="M12.3495 10.8011C12.3498 10.546 12.3283 10.2914 12.2851 10.04H8.75537V11.4815H10.777C10.7356 11.7118 10.6481 11.9312 10.5196 12.1267C10.3911 12.3222 10.2244 12.4896 10.0295 12.6189V13.5547H11.236C11.9425 12.9033 12.3495 11.94 12.3495 10.8011Z" fill="#4285F4"/>
<path d="M8.75575 14.4581C9.7658 14.4581 10.6162 14.1265 11.2364 13.5547L10.0299 12.6189C9.69406 12.8466 9.26156 12.9766 8.75575 12.9766C7.77949 12.9766 6.95086 12.3185 6.65455 11.4316H5.41162V12.3959C5.72314 13.0158 6.20083 13.5369 6.79135 13.9011C7.38187 14.2653 8.06198 14.4581 8.75575 14.4581Z" fill="#34A853"/>
<path d="M6.65466 11.4321C6.49802 10.9674 6.49802 10.4642 6.65466 9.99946V9.03516H5.41173C5.14966 9.55664 5.01318 10.1322 5.01318 10.7158C5.01318 11.2994 5.14966 11.875 5.41173 12.3964L6.65466 11.4321Z" fill="#FF5E00"/>
<path d="M8.75575 8.45445C9.28952 8.44573 9.80528 8.6474 10.1916 9.01587L11.2598 7.9476C10.5824 7.31136 9.68503 6.96205 8.75575 6.9729C8.06198 6.97293 7.38187 7.16579 6.79135 7.52994C6.20083 7.8941 5.72314 8.41521 5.41162 9.03511L6.65455 9.99941C6.95086 9.11256 7.77949 8.45445 8.75575 8.45445Z" fill="#EA4335"/>
</g>
</svg>
