<svg width="32" height="20" viewBox="0 0 32 20" fill="none" xmlns="http://www.w3.org/2000/svg">
<path d="M29 0.5H3C1.61929 0.5 0.5 1.61929 0.5 3V17C0.5 18.3807 1.61929 19.5 3 19.5H29C30.3807 19.5 31.5 18.3807 31.5 17V3C31.5 1.61929 30.3807 0.5 29 0.5Z" fill="white"/>
<path d="M29 0.5H3C1.61929 0.5 0.5 1.61929 0.5 3V17C0.5 18.3807 1.61929 19.5 3 19.5H29C30.3807 19.5 31.5 18.3807 31.5 17V3C31.5 1.61929 30.3807 0.5 29 0.5Z" stroke="#EDEEF0"/>
<path fill-rule="evenodd" clip-rule="evenodd" d="M15.9959 13.4272C15.2205 14.0962 14.2151 14.5 13.1166 14.5C10.6629 14.5 8.67383 12.4853 8.67383 10C8.67383 7.51472 10.6629 5.5 13.1166 5.5C14.2151 5.5 15.2205 5.90378 15.9959 6.57279C16.7714 5.90378 17.7767 5.5 18.8752 5.5C21.3289 5.5 23.318 7.51472 23.318 10C23.318 12.4853 21.3289 14.5 18.8752 14.5C17.7767 14.5 16.7714 14.0962 15.9959 13.4272Z" fill="#EC0014"/>
<path fill-rule="evenodd" clip-rule="evenodd" d="M15.998 13.4236C16.9524 12.5983 17.5575 11.3707 17.5575 10C17.5575 8.62929 16.9524 7.40172 15.998 6.57635C16.7741 5.90521 17.781 5.5 18.8814 5.5C21.3351 5.5 23.3243 7.51472 23.3243 10C23.3243 12.4853 21.3351 14.5 18.8814 14.5C17.781 14.5 16.7741 14.0948 15.998 13.4236Z" fill="#F9A000"/>
<path fill-rule="evenodd" clip-rule="evenodd" d="M16.0068 6.57324C16.9636 7.39864 17.5704 8.62779 17.5704 10.0005C17.5704 11.3731 16.9636 12.6023 16.0069 13.4277C15.0502 12.6023 14.4434 11.3731 14.4434 10.0004C14.4434 8.62775 15.0501 7.39864 16.0068 6.57324Z" fill="#FF5E00"/>
</svg>
