<svg width="32" height="32" viewBox="0 0 32 32" fill="none" xmlns="http://www.w3.org/2000/svg">
<mask id="mask0_1_463" style="mask-type:luminance" maskUnits="userSpaceOnUse" x="0" y="0" width="32" height="32">
<path d="M32 0H0V32H32V0Z" fill="white"/>
</mask>
<g mask="url(#mask0_1_463)">
<path d="M15.7763 31.9996C15.3806 31.9998 14.9937 31.8826 14.6647 31.6628C14.3356 31.4432 14.0791 31.1308 13.9277 30.7652C13.7762 30.3996 13.7366 29.9974 13.8139 29.6092C13.8911 29.2212 14.0817 28.8648 14.3616 28.585L24.591 18.357C24.9006 18.0475 25.1462 17.68 25.3138 17.2755C25.4814 16.871 25.5676 16.4375 25.5676 15.9997C25.5676 15.5619 25.4814 15.1283 25.3138 14.7239C25.1462 14.3194 24.9006 13.9519 24.591 13.6423L14.3616 3.41434C14.1759 3.22856 14.0285 3.008 13.9279 2.76528C13.8274 2.52254 13.7757 2.2624 13.7757 1.99966C13.7757 1.46906 13.9864 0.96019 14.3616 0.584998C14.7368 0.209804 15.2457 -0.000976562 15.7763 -0.000976562C16.039 -0.000976562 16.2992 0.0507716 16.5419 0.151313C16.7846 0.251854 17.0052 0.39922 17.191 0.584998L27.419 10.8143C28.7942 12.1896 29.5668 14.0548 29.5668 15.9997C29.5668 17.9445 28.7942 19.8097 27.419 21.185L17.191 31.4144C17.0052 31.6 16.7846 31.7472 16.5419 31.8478C16.2991 31.9482 16.039 31.9998 15.7763 31.9996Z" fill="#FF854C"/>
<path d="M3.04938 32.0002C2.6538 32 2.26712 31.8826 1.93827 31.6628C1.60941 31.443 1.35313 31.1306 1.20184 30.765C1.05056 30.3996 1.01106 29.9974 1.08835 29.6094C1.16564 29.2214 1.35624 28.8652 1.63605 28.5856L13.7494 16.4722C13.8115 16.4102 13.8607 16.3367 13.8943 16.2557C13.9279 16.1747 13.9452 16.0879 13.9452 16.0002C13.9452 15.9125 13.9279 15.8257 13.8943 15.7447C13.8607 15.6637 13.8115 15.5901 13.7494 15.5282L1.63605 3.41484C1.26085 3.03982 1.05 2.53112 1.04988 2.00064C1.04975 1.47016 1.26036 0.961362 1.63538 0.58617C2.0104 0.210976 2.5191 0.00012508 3.04958 5.56314e-08C3.58006 -0.000124969 4.08886 0.210486 4.46404 0.585502L16.5787 12.7002C17.4513 13.5765 17.9412 14.7628 17.9412 15.9995C17.9412 17.2362 17.4513 18.4225 16.5787 19.2988L4.46404 31.4148C4.27824 31.6006 4.05766 31.7478 3.81494 31.8482C3.5722 31.9486 3.31206 32.0002 3.04938 32.0002Z" fill="#FF854C"/>
</g>
</svg>
