<svg width="32" height="20" viewBox="0 0 32 20" fill="none" xmlns="http://www.w3.org/2000/svg">
<path d="M30 0.5H2C1.17157 0.5 0.5 1.17157 0.5 2V18C0.5 18.8284 1.17157 19.5 2 19.5H30C30.8284 19.5 31.5 18.8284 31.5 18V2C31.5 1.17157 30.8284 0.5 30 0.5Z" fill="white"/>
<path d="M30 0.5H2C1.17157 0.5 0.5 1.17157 0.5 2V18C0.5 18.8284 1.17157 19.5 2 19.5H30C30.8284 19.5 31.5 18.8284 31.5 18V2C31.5 1.17157 30.8284 0.5 30 0.5Z" stroke="#EDEEF0"/>
<path d="M5.80878 6.3999H3.72868C3.58634 6.3999 3.46528 6.50439 3.44308 6.64637L2.60179 12.0357C2.58506 12.142 2.66658 12.2379 2.77334 12.2379H3.76639C3.90874 12.2379 4.02979 12.1334 4.05199 11.9911L4.27889 10.5375C4.30079 10.3953 4.42215 10.2908 4.56419 10.2908H5.22268C6.59289 10.2908 7.38369 9.62081 7.59021 8.29324C7.68328 7.71242 7.59416 7.25607 7.32498 6.93647C7.02935 6.58552 6.50499 6.3999 5.80878 6.3999ZM6.04876 8.36822C5.93501 9.12236 5.36472 9.12236 4.81329 9.12236H4.4994L4.71961 7.71396C4.73269 7.62883 4.80569 7.56614 4.89085 7.56614H5.03471C5.41034 7.56614 5.76468 7.56614 5.94778 7.78249C6.05697 7.91156 6.09043 8.10332 6.04876 8.36822Z" fill="#253B80"/>
<path d="M12.0258 8.34416H11.0297C10.9448 8.34416 10.8715 8.40686 10.8584 8.49198L10.8143 8.77348L10.7447 8.67145C10.529 8.35523 10.0482 8.24951 9.56822 8.24951C8.46749 8.24951 7.52735 9.09185 7.34425 10.2735C7.24905 10.8629 7.3844 11.4265 7.71532 11.8195C8.01886 12.1809 8.45319 12.3315 8.96995 12.3315C9.85686 12.3315 10.3487 11.7553 10.3487 11.7553L10.3043 12.035C10.2875 12.1419 10.3691 12.2378 10.4752 12.2378H11.3725C11.5151 12.2378 11.6355 12.1333 11.6581 11.991L12.1964 8.54637C12.2134 8.44035 12.1322 8.34416 12.0258 8.34416ZM10.6373 10.303C10.5412 10.8779 10.0895 11.2639 9.51347 11.2639C9.22422 11.2639 8.99306 11.1702 8.84464 10.9926C8.69743 10.8162 8.64146 10.5651 8.6883 10.2855C8.77803 9.71538 9.2373 9.3168 9.80455 9.3168C10.0874 9.3168 10.3173 9.41176 10.4688 9.59092C10.6206 9.77192 10.6808 10.0246 10.6373 10.303Z" fill="#253B80"/>
<path d="M17.3304 8.34424H16.3294C16.2339 8.34424 16.1442 8.39218 16.0901 8.47239L14.7095 10.5271L14.1243 8.5526C14.0875 8.42906 13.9747 8.34424 13.8469 8.34424H12.8633C12.7438 8.34424 12.6607 8.46225 12.6988 8.57595L13.8013 11.8451L12.7648 13.3236C12.6833 13.4401 12.7654 13.6002 12.9062 13.6002H13.906C14.0008 13.6002 14.0897 13.5535 14.1435 13.4748L17.4728 8.61928C17.5524 8.50312 17.4706 8.34424 17.3304 8.34424Z" fill="#253B80"/>
<path d="M20.6447 6.3999H18.5643C18.4223 6.3999 18.3012 6.50439 18.279 6.64637L17.4377 12.0357C17.421 12.142 17.5025 12.2379 17.6087 12.2379H18.6762C18.7754 12.2379 18.8603 12.1647 18.8758 12.0652L19.1145 10.5375C19.1364 10.3953 19.2578 10.2908 19.3998 10.2908H20.058C21.4285 10.2908 22.219 9.62081 22.4258 8.29324C22.5192 7.71242 22.4295 7.25607 22.1603 6.93647C21.865 6.58552 21.3409 6.3999 20.6447 6.3999ZM20.8847 8.36822C20.7712 9.12236 20.201 9.12236 19.6492 9.12236H19.3356L19.5562 7.71396C19.5692 7.62883 19.6416 7.56614 19.7271 7.56614H19.871C20.2463 7.56614 20.6009 7.56614 20.784 7.78249C20.8932 7.91156 20.9264 8.10332 20.8847 8.36822Z" fill="#179BD7"/>
<path d="M26.8643 8.34416H25.8688C25.7834 8.34416 25.7107 8.40686 25.6979 8.49198L25.6538 8.77348L25.5838 8.67145C25.3682 8.35523 24.8876 8.24951 24.4077 8.24951C23.3069 8.24951 22.3671 9.09185 22.184 10.2735C22.0891 10.8629 22.2239 11.4265 22.5548 11.8195C22.8589 12.1809 23.2926 12.3315 23.8094 12.3315C24.6963 12.3315 25.1881 11.7553 25.1881 11.7553L25.1437 12.035C25.127 12.1419 25.2085 12.2378 25.3153 12.2378H26.2122C26.3543 12.2378 26.4753 12.1333 26.4975 11.991L27.0362 8.54637C27.0526 8.44035 26.9711 8.34416 26.8643 8.34416ZM25.4759 10.303C25.3804 10.8779 24.9281 11.2639 24.352 11.2639C24.0634 11.2639 23.8316 11.1702 23.6832 10.9926C23.536 10.8162 23.4806 10.5651 23.5268 10.2855C23.6172 9.71538 24.0758 9.3168 24.6431 9.3168C24.926 9.3168 25.1559 9.41176 25.3074 9.59092C25.4597 9.77192 25.52 10.0246 25.4759 10.303Z" fill="#179BD7"/>
<path d="M28.0376 6.54803L27.1838 12.036C27.1671 12.1423 27.2486 12.2382 27.3548 12.2382H28.2131C28.3557 12.2382 28.4768 12.1337 28.4987 11.9914L29.3406 6.60242C29.3573 6.49609 29.2758 6.3999 29.1696 6.3999H28.2085C28.1237 6.40021 28.0507 6.4629 28.0376 6.54803Z" fill="#179BD7"/>
</svg>
