<svg width="90" height="25" viewBox="0 0 90 25" fill="none" xmlns="http://www.w3.org/2000/svg">
<mask id="mask0_1_1203" style="mask-type:luminance" maskUnits="userSpaceOnUse" x="0" y="0" width="90" height="25">
<path d="M89.3606 0.509277H0.47168V24.5093H89.3606V0.509277Z" fill="white"/>
</mask>
<g mask="url(#mask0_1_1203)">
<g opacity="0.6">
<path d="M50.8271 8.59844C50.8271 6.02066 50.8716 3.62066 51.0049 1.39844L44.2049 2.68733V3.30955L44.8716 3.39844C45.3605 3.44288 45.6716 3.62066 45.8493 3.88733C46.0271 4.19844 46.1605 4.64288 46.2493 5.30955C46.3382 6.59844 46.4271 9.53177 46.3827 14.154C46.3827 18.7318 46.3382 21.6207 46.2493 22.7318C48.6938 23.2651 50.6049 23.4873 52.0271 23.4873C54.6938 23.4873 56.7827 22.7318 58.2938 21.1762C59.8049 19.6651 60.6049 17.5318 60.6049 14.9095C60.6049 12.8207 60.0271 11.0873 58.8716 9.70955C57.716 8.33177 56.2493 7.6651 54.516 7.6651C53.3605 7.6651 52.1605 7.97622 50.8271 8.59844ZM50.9605 22.2873C50.8716 20.8651 50.7827 16.5984 50.7827 9.62066C51.1827 9.48733 51.716 9.39844 52.3827 9.39844C53.4494 9.39844 54.2938 9.93177 54.916 11.0429C55.5382 12.154 55.8493 13.4873 55.8493 15.1762C55.8493 17.2651 55.4938 18.954 54.7827 20.3762C54.0716 21.754 53.1827 22.4651 52.0716 22.4651C51.716 22.3762 51.3605 22.3318 50.9605 22.2873ZM18.6938 1.84288H0.916016V2.73177L1.84935 2.82066C2.56046 2.95399 3.04935 3.22066 3.36046 3.62066C3.67157 4.0651 3.84935 4.77622 3.89379 5.75399C4.24935 10.554 4.24935 15.0429 3.89379 19.1762C3.8049 20.154 3.62713 20.8651 3.36046 21.3095C3.04935 21.754 2.56046 22.0207 1.84935 22.1095L0.916016 22.2429V23.1318H12.3827V22.2429L11.1827 22.154C10.8899 22.1295 10.605 22.046 10.3453 21.9085C10.0856 21.771 9.85645 21.5824 9.67157 21.354C9.36046 20.9095 9.18268 20.1984 9.13824 19.2207C9.0049 17.4429 8.91602 15.3984 8.91602 13.1318L11.316 13.1762C12.6049 13.2207 13.4938 14.1984 13.9382 16.154H14.8271V8.90955H13.9382C13.4938 10.8207 12.6493 11.7984 11.316 11.8429L8.91602 11.8873C8.91602 7.88733 9.0049 5.04288 9.13824 3.30955H12.6493C15.1382 3.30955 16.8271 4.90955 17.8049 8.10955L18.8716 7.79844L18.6938 1.84288ZM16.6049 15.5318C16.6049 17.8429 17.2716 19.754 18.5605 21.2651C19.8493 22.7762 21.7605 23.4873 24.1605 23.4873C26.5605 23.4873 28.516 22.7318 29.9382 21.1762C31.3605 19.6651 32.0271 17.754 32.0271 15.4429C32.0271 13.1318 31.3605 11.2207 30.0716 9.70955C28.7827 8.19844 26.8716 7.48733 24.4716 7.48733C22.0716 7.48733 20.116 8.24288 18.6938 9.79844C17.2716 11.3095 16.6049 13.2207 16.6049 15.5318ZM26.516 10.4651C27.0493 11.754 27.2716 13.4429 27.2716 15.4873C27.2716 20.1984 26.2938 22.5095 24.3827 22.5095C23.4049 22.5095 22.6493 21.8429 22.116 20.5095C21.5827 19.1762 21.3605 17.4873 21.3605 15.4873C21.3605 10.8207 22.3382 8.50955 24.2493 8.50955C25.2271 8.4651 25.9827 9.13177 26.516 10.4651ZM64.0716 21.2651C65.5382 22.7318 67.4049 23.4873 69.6271 23.4873C71.0049 23.4873 72.2049 23.2207 73.2716 22.6429C74.3382 22.1095 75.1827 21.4429 75.7605 20.6429L75.316 20.1095C74.3382 20.8651 73.2271 21.2207 71.9382 21.2207C70.1605 21.2207 68.7827 20.6429 67.8493 19.4429C66.8716 18.2429 66.4271 16.7318 66.516 14.7762H76.0271C76.0271 12.6429 75.4938 10.9095 74.3827 9.53177C73.2716 8.19844 71.716 7.53177 69.716 7.53177C67.2271 7.53177 65.316 8.33177 63.9382 9.88733C62.5605 11.4429 61.8938 13.354 61.8938 15.6207C61.8938 17.9318 62.6049 19.7984 64.0716 21.2651ZM67.3605 10.1095C67.8493 9.04288 68.4716 8.50955 69.316 8.50955C70.6493 8.50955 71.316 10.1984 71.316 13.6207L66.6049 13.7095C66.6494 12.3762 66.8716 11.1762 67.3605 10.1095ZM87.9827 8.33177C86.7827 7.79844 85.2716 7.48733 83.4493 7.48733C81.5827 7.48733 80.116 7.97622 79.0049 8.90955C77.8938 9.84288 77.316 10.9984 77.316 12.3762C77.316 13.5762 77.6716 14.5095 78.3382 15.1762C79.0049 15.8429 80.0716 16.4207 81.4493 16.9095C82.6938 17.354 83.5827 17.7984 84.0271 18.1984C84.4716 18.6429 84.7382 19.1318 84.7382 19.7984C84.7382 20.4207 84.516 20.9984 84.0271 21.4429C83.5827 21.9318 82.9605 22.154 82.1605 22.154C80.2049 22.154 78.7382 20.7318 77.716 17.8873L76.9605 18.1095L77.1382 22.554C78.7382 23.1762 80.516 23.4873 82.4716 23.4873C84.516 23.4873 86.0716 23.0429 87.2271 22.1095C88.3827 21.2207 88.9605 19.9318 88.9605 18.3318C88.9605 17.2651 88.6938 16.3762 88.116 15.7095C87.5382 15.0429 86.6049 14.4651 85.2716 13.9318C83.8049 13.3984 82.7827 12.9095 82.2494 12.4651C81.716 12.0207 81.4493 11.4873 81.4493 10.8207C81.4493 10.154 81.6271 9.62066 82.0271 9.17622C82.4271 8.73177 82.916 8.55399 83.5382 8.55399C85.316 8.55399 86.6049 9.84288 87.4049 12.3762L88.1605 12.154L87.9827 8.33177ZM45.2271 7.93177C44.6049 7.62066 43.9382 7.48733 43.1827 7.48733C42.4271 7.48733 41.6716 7.79844 40.8271 8.42066C39.9827 9.04288 39.3605 9.88733 38.8716 11.0429L38.916 7.48733L32.1605 8.82066V9.44288L32.8271 9.48733C33.6716 9.57622 34.1605 10.2429 34.2493 11.4429C34.516 14.1984 34.516 17.1318 34.2493 20.2429C34.1605 21.4429 33.6716 22.0651 32.8271 22.1984L32.1605 22.2873V23.1318H41.5827V22.2873L40.3827 22.1984C39.5382 22.1095 39.0493 21.4429 38.9605 20.2429C38.6938 17.6651 38.6493 14.9095 38.8716 12.0651C39.1382 11.6207 39.716 11.354 40.6049 11.2651C41.4938 11.1762 42.516 11.4429 43.5827 12.0651L45.2271 7.93177Z" fill="white"/>
</g>
</g>
</svg>
