<svg width="30" height="20" viewBox="0 0 30 20" fill="none" xmlns="http://www.w3.org/2000/svg">
<path d="M26 0H4C1.79086 0 0 1.79086 0 4V16C0 18.2091 1.79086 20 4 20H26C28.2091 20 30 18.2091 30 16V4C30 1.79086 28.2091 0 26 0Z" fill="#1F72CD"/>
<path fill-rule="evenodd" clip-rule="evenodd" d="M5.64537 6.95898L2.91797 13.0345H6.18305L6.58783 12.0658H7.51306L7.91783 13.0345H11.5118V12.2952L11.832 13.0345H13.6911L14.0113 12.2795V13.0345H21.4858L22.3946 12.091L23.2456 13.0345L27.0846 13.0423L24.3486 10.0137L27.0846 6.95898H23.3052L22.4204 7.88508L21.5962 6.95898H13.465L12.7668 8.52713L12.0522 6.95898H8.79393V7.67316L8.43147 6.95898H5.64537ZM16.8068 7.82174H21.099L22.4117 9.24914L23.7668 7.82174H25.0796L23.085 10.0129L25.0796 12.1788H23.7073L22.3945 10.7348L21.0325 12.1788H16.8068V7.82174ZM17.8668 9.52003V8.72419L20.545 8.72343L21.7136 9.99618L20.4932 11.2759H17.8668V10.4071H20.2083V9.52003H17.8668ZM6.27713 7.82174H7.86868L9.67777 11.9416V7.82174H11.4213L12.8186 10.7756L14.1063 7.82174H15.8411V12.1813H14.7855L14.7769 8.76518L13.238 12.1813H12.2938L10.7462 8.76518V12.1813H8.57467L8.16299 11.204H5.93881L5.52797 12.1805H4.36448L6.27713 7.82174ZM6.31862 10.3003L7.0514 8.55924L7.78333 10.3003H6.31862Z" fill="white"/>
</svg>
