<svg width="32" height="21" viewBox="0 0 32 21" fill="none" xmlns="http://www.w3.org/2000/svg">
<path d="M30 1.28027H2C1.17157 1.28027 0.5 1.95185 0.5 2.78027V18.7803C0.5 19.6087 1.17157 20.2803 2 20.2803H30C30.8284 20.2803 31.5 19.6087 31.5 18.7803V2.78027C31.5 1.95185 30.8284 1.28027 30 1.28027Z" fill="white"/>
<path d="M30 1.28027H2C1.17157 1.28027 0.5 1.95185 0.5 2.78027V18.7803C0.5 19.6087 1.17157 20.2803 2 20.2803H30C30.8284 20.2803 31.5 19.6087 31.5 18.7803V2.78027C31.5 1.95185 30.8284 1.28027 30 1.28027Z" stroke="#EDEEF0"/>
<path fill-rule="evenodd" clip-rule="evenodd" d="M11.2979 13.7335H9.67083L8.45076 9.07884C8.39285 8.86473 8.2699 8.67544 8.08903 8.58623C7.63765 8.36203 7.14026 8.1836 6.59766 8.09361V7.91441H9.21866C9.5804 7.91441 9.8517 8.1836 9.89692 8.49624L10.53 11.8538L12.1562 7.91441H13.738L11.2979 13.7335ZM14.6404 13.7335H13.1038L14.3691 7.91442H15.9057L14.6404 13.7335ZM17.897 9.52653C17.9422 9.21312 18.2135 9.03392 18.53 9.03392C19.0274 8.98892 19.5692 9.07891 20.0214 9.30233L20.2927 8.04946C19.8405 7.87026 19.3432 7.78027 18.8918 7.78027C17.4004 7.78027 16.3152 8.5863 16.3152 9.70496C16.3152 10.556 17.0839 11.0029 17.6265 11.272C18.2135 11.5405 18.4396 11.7197 18.3944 11.9881C18.3944 12.3907 17.9422 12.5699 17.4908 12.5699C16.9482 12.5699 16.4056 12.4357 15.909 12.2115L15.6377 13.4652C16.1803 13.6886 16.7674 13.7786 17.31 13.7786C18.9822 13.8228 20.0214 13.0175 20.0214 11.8089C20.0214 10.2868 17.897 10.1976 17.897 9.52653ZM25.4011 13.7335L24.1811 7.91441H22.8706C22.5993 7.91441 22.328 8.09361 22.2375 8.36203L19.9783 13.7335H21.5601L21.8758 12.8833H23.8193L24.0002 13.7335H25.4011ZM23.0942 9.48157L23.5456 11.6747H22.2803L23.0942 9.48157Z" fill="#1938C4"/>
</svg>
