<svg width="32" height="21" viewBox="0 0 32 21" fill="none" xmlns="http://www.w3.org/2000/svg">
<path d="M29 0.711914H3C1.61929 0.711914 0.5 1.8312 0.5 3.21191V17.2119C0.5 18.5926 1.61929 19.7119 3 19.7119H29C30.3807 19.7119 31.5 18.5926 31.5 17.2119V3.21191C31.5 1.8312 30.3807 0.711914 29 0.711914Z" fill="white"/>
<path d="M29 0.711914H3C1.61929 0.711914 0.5 1.8312 0.5 3.21191V17.2119C0.5 18.5926 1.61929 19.7119 3 19.7119H29C30.3807 19.7119 31.5 18.5926 31.5 17.2119V3.21191C31.5 1.8312 30.3807 0.711914 29 0.711914Z" stroke="#EDEEF0"/>
<path d="M17.5594 10.2119C17.5594 12.6972 15.5703 14.7119 13.1166 14.7119C10.6629 14.7119 8.67383 12.6972 8.67383 10.2119C8.67383 7.72663 10.6629 5.71191 13.1166 5.71191C15.5703 5.71191 17.5594 7.72663 17.5594 10.2119Z" fill="#EC0014"/>
<path d="M23.3251 10.2119C23.3251 12.6972 21.336 14.7119 18.8823 14.7119C16.4286 14.7119 14.4395 12.6972 14.4395 10.2119C14.4395 7.72663 16.4286 5.71191 18.8823 5.71191C21.336 5.71191 23.3251 7.72663 23.3251 10.2119Z" fill="#00A3E6"/>
<path d="M16.0069 6.78516C16.9636 7.61056 17.5704 8.83971 17.5704 10.2124C17.5704 11.5851 16.9636 12.8142 16.0069 13.6396C15.0502 12.8142 14.4434 11.585 14.4434 10.2123C14.4434 8.83968 15.0501 7.61056 16.0069 6.78516Z" fill="#7476D0"/>
</svg>
