<svg width="33" height="21" viewBox="0 0 33 21" fill="none" xmlns="http://www.w3.org/2000/svg">
<path d="M30.8882 0.847656H2.88818C2.05976 0.847656 1.38818 1.51923 1.38818 2.34766V18.3477C1.38818 19.1761 2.05976 19.8477 2.88818 19.8477H30.8882C31.7166 19.8477 32.3882 19.1761 32.3882 18.3477V2.34766C32.3882 1.51923 31.7166 0.847656 30.8882 0.847656Z" fill="white"/>
<path d="M30.8882 0.847656H2.88818C2.05976 0.847656 1.38818 1.51923 1.38818 2.34766V18.3477C1.38818 19.1761 2.05976 19.8477 2.88818 19.8477H30.8882C31.7166 19.8477 32.3882 19.1761 32.3882 18.3477V2.34766C32.3882 1.51923 31.7166 0.847656 30.8882 0.847656Z" stroke="#EDEEF0"/>
<path fill-rule="evenodd" clip-rule="evenodd" d="M12.1861 13.3009H10.559L9.33894 8.64623C9.28103 8.43212 9.15808 8.24283 8.97721 8.15362C8.52583 7.92942 8.02844 7.75099 7.48584 7.661V7.4818H10.1068C10.4686 7.4818 10.7399 7.75099 10.7851 8.06363L11.4182 11.4212L13.0444 7.4818H14.6262L12.1861 13.3009ZM15.5286 13.3009H13.992L15.2573 7.48181H16.7939L15.5286 13.3009ZM18.7852 9.09392C18.8304 8.78051 19.1017 8.60131 19.4182 8.60131C19.9156 8.55631 20.4574 8.6463 20.9096 8.86972L21.1809 7.61685C20.7287 7.43765 20.2314 7.34766 19.78 7.34766C18.2886 7.34766 17.2034 8.15369 17.2034 9.27235C17.2034 10.1234 17.9721 10.5703 18.5147 10.8394C19.1017 11.1079 19.3278 11.2871 19.2826 11.5555C19.2826 11.9581 18.8304 12.1373 18.379 12.1373C17.8364 12.1373 17.2938 12.0031 16.7972 11.7789L16.5259 13.0326C17.0685 13.256 17.6556 13.346 18.1982 13.346C19.8704 13.3902 20.9096 12.5849 20.9096 11.3763C20.9096 9.85418 18.7852 9.76496 18.7852 9.09392ZM26.2893 13.3009L25.0693 7.4818H23.7588C23.4875 7.4818 23.2162 7.661 23.1257 7.92942L20.8665 13.3009H22.4483L22.764 12.4507H24.7075L24.8884 13.3009H26.2893ZM23.9824 9.04896L24.4338 11.2421H23.1685L23.9824 9.04896Z" fill="#1938C4"/>
</svg>
