<svg width="16" height="17" viewBox="0 0 16 17" fill="none" xmlns="http://www.w3.org/2000/svg">
<path d="M8 0.481445C3.58172 0.481445 0 4.06317 0 8.48145C0 12.8997 3.58172 16.4814 8 16.4814C12.4183 16.4814 16 12.8997 16 8.48145C15.9952 4.06514 12.4163 0.486227 8 0.481445ZM10.6667 10.2061C10.9376 10.4554 10.9551 10.8772 10.7057 11.1481C10.4564 11.419 10.0346 11.4365 9.76372 11.1871C9.75016 11.1747 9.73716 11.1616 9.72466 11.1481L8 9.42411L6.276 11.1481C6.01116 11.4038 5.58913 11.3965 5.33334 11.1317C5.08384 10.8733 5.08384 10.4638 5.33334 10.2054L7.05734 8.48145L5.33334 6.75745C5.07756 6.49261 5.08491 6.07058 5.34975 5.81479C5.60809 5.56529 6.01766 5.56529 6.276 5.81479L8 7.53879L9.72466 5.81479C9.974 5.54389 10.3958 5.52639 10.6667 5.77573C10.9376 6.02508 10.9551 6.44683 10.7057 6.71773C10.6933 6.73129 10.6802 6.74429 10.6667 6.75679L8.94266 8.48145L10.6667 10.2061Z" fill="#564B5D"/>
</svg>
