<svg width="16" height="18" viewBox="0 0 16 18" fill="none" xmlns="http://www.w3.org/2000/svg">
<mask id="mask0_9_320" style="mask-type:luminance" maskUnits="userSpaceOnUse" x="0" y="1" width="16" height="17">
<path d="M16 1.49707H0V17.4971H16V1.49707Z" fill="white"/>
</mask>
<g mask="url(#mask0_9_320)">
<path d="M6.01351 9.16397L7.34684 10.4973L10.3469 7.49731M13.3469 9.49731C13.3469 12.7696 9.77756 15.1496 8.47884 15.9072C8.33124 15.9933 8.25744 16.0364 8.1533 16.0587C8.07247 16.076 7.95455 16.076 7.87372 16.0587C7.76957 16.0364 7.69578 15.9933 7.54818 15.9072C6.24948 15.1496 2.68018 12.7696 2.68018 9.49731V6.30904C2.68018 5.77603 2.68018 5.50953 2.76735 5.28044C2.84436 5.07807 2.9695 4.89749 3.13195 4.75433C3.31584 4.59226 3.56537 4.49869 4.06445 4.31154L7.63898 2.97109C7.77757 2.91911 7.84687 2.89313 7.91816 2.88283C7.9814 2.87369 8.04562 2.87369 8.10885 2.88283C8.18014 2.89313 8.24944 2.91911 8.38804 2.97109L11.9626 4.31154C12.4617 4.49869 12.7112 4.59226 12.8951 4.75433C13.0576 4.89749 13.1827 5.07807 13.2597 5.28044C13.3469 5.50953 13.3469 5.77603 13.3469 6.30904V9.49731Z" stroke="#03BF5A" stroke-width="1.5" stroke-linecap="round" stroke-linejoin="round"/>
</g>
</svg>
