<svg width="16" height="17" viewBox="0 0 16 17" fill="none" xmlns="http://www.w3.org/2000/svg">
<path d="M12.6668 6.04764V5.0983C12.6668 2.52098 10.5775 0.431641 8.00015 0.431641C5.42281 0.431641 3.3335 2.52098 3.3335 5.0983V6.04764C2.12018 6.57717 1.33525 7.77448 1.3335 9.0983V13.0983C1.33568 14.9383 2.82678 16.4294 4.66681 16.4316H11.3335C13.1735 16.4294 14.6646 14.9383 14.6668 13.0983V9.0983C14.6651 7.77448 13.8801 6.57717 12.6668 6.04764ZM8.66681 11.7649C8.66681 12.1331 8.36834 12.4316 8.00015 12.4316C7.63197 12.4316 7.3335 12.1331 7.3335 11.7649V10.4316C7.3335 10.0635 7.63197 9.76498 8.00015 9.76498C8.36834 9.76498 8.66681 10.0635 8.66681 10.4316V11.7649ZM11.3335 5.76498H4.66681V5.09833C4.66681 3.25739 6.15918 1.76498 8.00015 1.76498C9.84112 1.76498 11.3335 3.25736 11.3335 5.09833V5.76498Z" fill="#FFCD4C"/>
</svg>
