<svg width="32" height="21" viewBox="0 0 32 21" fill="none" xmlns="http://www.w3.org/2000/svg">
<path d="M30 0.678711H2C1.17157 0.678711 0.5 1.35028 0.5 2.17871V18.1787C0.5 19.0071 1.17157 19.6787 2 19.6787H30C30.8284 19.6787 31.5 19.0071 31.5 18.1787V2.17871C31.5 1.35028 30.8284 0.678711 30 0.678711Z" fill="white"/>
<path d="M30 0.678711H2C1.17157 0.678711 0.5 1.35028 0.5 2.17871V18.1787C0.5 19.0071 1.17157 19.6787 2 19.6787H30C30.8284 19.6787 31.5 19.0071 31.5 18.1787V2.17871C31.5 1.35028 30.8284 0.678711 30 0.678711Z" stroke="#EDEEF0"/>
<path fill-rule="evenodd" clip-rule="evenodd" d="M11.2979 13.1319H9.67083L8.45076 8.47728C8.39285 8.26317 8.2699 8.07388 8.08903 7.98467C7.63765 7.76047 7.14026 7.58204 6.59766 7.49205V7.31285H9.21866C9.5804 7.31285 9.8517 7.58204 9.89692 7.89468L10.53 11.2522L12.1562 7.31285H13.738L11.2979 13.1319ZM14.6404 13.1319H13.1038L14.3691 7.31286H15.9057L14.6404 13.1319ZM17.897 8.92497C17.9422 8.61156 18.2135 8.43236 18.53 8.43236C19.0274 8.38736 19.5692 8.47735 20.0214 8.70077L20.2927 7.4479C19.8405 7.2687 19.3432 7.17871 18.8918 7.17871C17.4004 7.17871 16.3152 7.98474 16.3152 9.1034C16.3152 9.95442 17.0839 10.4013 17.6265 10.6704C18.2135 10.9389 18.4396 11.1181 18.3944 11.3865C18.3944 11.7891 17.9422 11.9683 17.4908 11.9683C16.9482 11.9683 16.4056 11.8341 15.909 11.6099L15.6377 12.8636C16.1803 13.087 16.7674 13.177 17.31 13.177C18.9822 13.2212 20.0214 12.4159 20.0214 11.2073C20.0214 9.68523 17.897 9.59601 17.897 8.92497ZM25.4011 13.1319L24.1811 7.31285H22.8706C22.5993 7.31285 22.328 7.49205 22.2375 7.76047L19.9783 13.1319H21.5601L21.8758 12.2817H23.8193L24.0002 13.1319H25.4011ZM23.0942 8.88001L23.5456 11.0731H22.2803L23.0942 8.88001Z" fill="#1938C4"/>
</svg>
