<svg width="42" height="11" viewBox="0 0 42 11" fill="none" xmlns="http://www.w3.org/2000/svg">
<path d="M6.58937 10.2083C5.4175 10.2083 4.39753 10.0087 3.52948 9.60938C2.66142 9.21007 1.98868 8.64366 1.51125 7.91016C1.03382 7.17231 0.795105 6.30425 0.795105 5.30599V5.29297C0.795105 4.2947 1.03382 3.42882 1.51125 2.69531C1.98868 1.96181 2.66142 1.3954 3.52948 0.996099C4.40187 0.596793 5.42184 0.397141 6.58937 0.397141C7.76559 0.397141 8.78773 0.596793 9.65578 0.996099C10.5238 1.3954 11.1966 1.96181 11.674 2.69531C12.1514 3.42882 12.3902 4.2947 12.3902 5.29297V5.30599C12.3902 6.30425 12.1514 7.17014 11.674 7.90365C11.1966 8.63715 10.5238 9.20573 9.65578 9.60938C8.78773 10.0087 7.76559 10.2083 6.58937 10.2083ZM6.58937 8.48958C7.32288 8.48958 7.95873 8.35938 8.49693 8.09896C9.03946 7.83854 9.4583 7.46962 9.75344 6.99219C10.0529 6.51476 10.2027 5.95269 10.2027 5.30599V5.29297C10.2027 4.64627 10.0529 4.08637 9.75344 3.61328C9.4583 3.13585 9.03946 2.76693 8.49693 2.50651C7.95873 2.24609 7.32288 2.11589 6.58937 2.11589C5.86021 2.11589 5.22436 2.24609 4.68182 2.50651C4.14363 2.76693 3.72479 3.13585 3.42531 3.61328C3.13017 4.08637 2.9826 4.64627 2.9826 5.29297V5.30599C2.9826 5.95269 3.13017 6.51476 3.42531 6.99219C3.72045 7.46962 4.13929 7.83854 4.68182 8.09896C5.22436 8.35938 5.86021 8.48958 6.58937 8.48958ZM9.80552 10.931L6.31594 6.91406H8.40578L11.8954 10.931H9.80552ZM19.493 10.2018C18.4557 10.2018 17.5573 10.0304 16.7977 9.6875C16.0425 9.34462 15.4587 8.84766 15.0464 8.19661C14.6384 7.54557 14.4344 6.75347 14.4344 5.82031V0.605473H16.5764V5.75521C16.5764 6.33247 16.687 6.82509 16.9084 7.23307C17.1341 7.63672 17.4618 7.94488 17.8915 8.15755C18.3255 8.37023 18.8593 8.47656 19.493 8.47656C20.1267 8.47656 20.6584 8.37023 21.0881 8.15755C21.5221 7.94488 21.8498 7.63672 22.0711 7.23307C22.2925 6.82509 22.4032 6.33247 22.4032 5.75521V0.605473H24.5516V5.82031C24.5516 6.74913 24.3476 7.54123 23.9396 8.19661C23.5316 8.84766 22.9479 9.34462 22.1883 9.6875C21.4331 10.0304 20.5347 10.2018 19.493 10.2018ZM27.0191 10V0.605473H29.1675V10H27.0191ZM31.3745 10V8.63933L37.6115 2.35677V2.29167H31.4982V0.605473H40.5737V1.96615L34.3498 8.2487V8.3138H40.7235V10H31.3745Z" fill="white" fill-opacity="0.4"/>
</svg>
