<svg width="20" height="17" viewBox="0 0 20 17" fill="none" xmlns="http://www.w3.org/2000/svg">
<path d="M17.8228 7.1906H4.47982L8.86965 2.80077C8.99472 2.67673 9.09398 2.52916 9.16172 2.36656C9.22946 2.20396 9.26434 2.02956 9.26434 1.85342C9.26434 1.67728 9.22946 1.50288 9.16172 1.34028C9.09398 1.17768 8.99472 1.03011 8.86965 0.906069C8.61966 0.657555 8.28148 0.518066 7.92897 0.518066C7.57647 0.518066 7.23829 0.657555 6.9883 0.906069L1.26416 6.64354C0.763019 7.1417 0.479908 7.81828 0.476929 8.52489C0.483422 9.22687 0.766264 9.89802 1.26416 10.3929L6.9883 16.1304C7.1127 16.2539 7.26022 16.3518 7.42244 16.4183C7.58465 16.4848 7.75837 16.5187 7.93369 16.5181C8.10901 16.5175 8.28249 16.4823 8.44423 16.4147C8.60597 16.347 8.75279 16.2481 8.87632 16.1237C8.99986 15.9993 9.09767 15.8518 9.16419 15.6896C9.23071 15.5274 9.26463 15.3537 9.26401 15.1783C9.26339 15.003 9.22825 14.8295 9.16058 14.6678C9.09292 14.5061 8.99406 14.3592 8.86965 14.2357L4.47982 9.85919H17.8228C18.1766 9.85919 18.516 9.71861 18.7662 9.46838C19.0165 9.21815 19.157 8.87877 19.157 8.52489C19.157 8.17102 19.0165 7.83163 18.7662 7.58141C18.516 7.33118 18.1766 7.1906 17.8228 7.1906Z" fill="white"/>
</svg>
