<svg width="42" height="12" viewBox="0 0 42 12" fill="none" xmlns="http://www.w3.org/2000/svg">
<path d="M7.04134 10.2238C5.86947 10.2238 4.8495 10.0242 3.98145 9.62484C3.11339 9.22553 2.44065 8.65912 1.96322 7.92562C1.48579 7.18777 1.24707 6.31971 1.24707 5.32145V5.30843C1.24707 4.31016 1.48579 3.44428 1.96322 2.71077C2.44065 1.97727 3.11339 1.41086 3.98145 1.01156C4.85384 0.61225 5.87381 0.412598 7.04134 0.412598C8.21756 0.412598 9.2397 0.61225 10.1077 1.01156C10.9758 1.41086 11.6486 1.97727 12.126 2.71077C12.6034 3.44428 12.8422 4.31016 12.8422 5.30843V5.32145C12.8422 6.31971 12.6034 7.1856 12.126 7.91911C11.6486 8.65261 10.9758 9.22119 10.1077 9.62484C9.2397 10.0242 8.21756 10.2238 7.04134 10.2238ZM7.04134 8.50504C7.77485 8.50504 8.4107 8.37484 8.9489 8.11442C9.49143 7.854 9.91027 7.48508 10.2054 7.00765C10.5049 6.53022 10.6546 5.96815 10.6546 5.32145V5.30843C10.6546 4.66173 10.5049 4.10183 10.2054 3.62874C9.91027 3.15131 9.49143 2.78239 8.9489 2.52197C8.4107 2.26155 7.77485 2.13135 7.04134 2.13135C6.31218 2.13135 5.67633 2.26155 5.13379 2.52197C4.5956 2.78239 4.17676 3.15131 3.87728 3.62874C3.58214 4.10183 3.43457 4.66173 3.43457 5.30843V5.32145C3.43457 5.96815 3.58214 6.53022 3.87728 7.00765C4.17242 7.48508 4.59126 7.854 5.13379 8.11442C5.67633 8.37484 6.31218 8.50504 7.04134 8.50504ZM10.2575 10.9465L6.76791 6.92952H8.85775L12.3474 10.9465H10.2575ZM19.945 10.2173C18.9077 10.2173 18.0093 10.0459 17.2497 9.70296C16.4945 9.36008 15.9107 8.86312 15.4984 8.21207C15.0904 7.56103 14.8864 6.76893 14.8864 5.83577V0.620931H17.0284V5.77067C17.0284 6.34793 17.139 6.84055 17.3604 7.24853C17.5861 7.65218 17.9138 7.96034 18.3435 8.17301C18.7775 8.38569 19.3113 8.49202 19.945 8.49202C20.5787 8.49202 21.1104 8.38569 21.5401 8.17301C21.9741 7.96034 22.3018 7.65218 22.5231 7.24853C22.7445 6.84055 22.8552 6.34793 22.8552 5.77067V0.620931H25.0036V5.83577C25.0036 6.76459 24.7996 7.55669 24.3916 8.21207C23.9836 8.86312 23.3999 9.36008 22.6403 9.70296C21.8851 10.0459 20.9867 10.2173 19.945 10.2173ZM27.4711 10.0155V0.620931H29.6195V10.0155H27.4711ZM31.8265 10.0155V8.65478L38.0635 2.37223V2.30713H31.9502V0.620931H41.0257V1.98161L34.8018 8.26416V8.32926H41.1755V10.0155H31.8265Z" fill="white" fill-opacity="0.4"/>
</svg>
