<svg width="20" height="17" viewBox="0 0 20 17" fill="none" xmlns="http://www.w3.org/2000/svg">
<path d="M17.5279 6.68791H4.1849L8.57473 2.29808C8.6998 2.17404 8.79906 2.02647 8.8668 1.86387C8.93454 1.70127 8.96942 1.52687 8.96942 1.35073C8.96942 1.17459 8.93454 1.00019 8.8668 0.837594C8.79906 0.674998 8.6998 0.527424 8.57473 0.403384C8.32474 0.15487 7.98656 0.0153809 7.63405 0.0153809C7.28155 0.0153809 6.94337 0.15487 6.69338 0.403384L0.969242 6.14085C0.468097 6.63901 0.184986 7.31559 0.182007 8.0222C0.1885 8.72418 0.471342 9.39533 0.969242 9.89022L6.69338 15.6277C6.81778 15.7512 6.9653 15.8491 7.12752 15.9156C7.28973 15.9821 7.46345 16.016 7.63877 16.0154C7.81409 16.0148 7.98757 15.9796 8.14931 15.912C8.31105 15.8443 8.45787 15.7454 8.5814 15.621C8.70494 15.4966 8.80275 15.3491 8.86927 15.1869C8.93579 15.0247 8.96971 14.851 8.96909 14.6756C8.96847 14.5003 8.93333 14.3268 8.86566 14.1651C8.798 14.0034 8.69914 13.8565 8.57473 13.733L4.1849 9.3565H17.5279C17.8817 9.3565 18.2211 9.21592 18.4713 8.96569C18.7216 8.71546 18.8621 8.37608 18.8621 8.0222C18.8621 7.66833 18.7216 7.32894 18.4713 7.07872C18.2211 6.82849 17.8817 6.68791 17.5279 6.68791Z" fill="white"/>
</svg>
