<svg width="20" height="17" viewBox="0 0 20 17" fill="none" xmlns="http://www.w3.org/2000/svg">
<path d="M17.9191 7.10612H4.57607L8.9659 2.71629C9.09097 2.59225 9.19023 2.44468 9.25797 2.28208C9.32571 2.11948 9.36059 1.94508 9.36059 1.76894C9.36059 1.5928 9.32571 1.4184 9.25797 1.25581C9.19023 1.09321 9.09097 0.945637 8.9659 0.821597C8.71591 0.573083 8.37773 0.433594 8.02522 0.433594C7.67272 0.433594 7.33454 0.573083 7.08455 0.821597L1.36042 6.55906C0.859271 7.05722 0.57616 7.7338 0.573181 8.44041C0.579675 9.14239 0.862516 9.81354 1.36042 10.3084L7.08455 16.0459C7.20895 16.1694 7.35647 16.2673 7.51869 16.3338C7.6809 16.4003 7.85462 16.4342 8.02994 16.4336C8.20526 16.433 8.37874 16.3978 8.54048 16.3302C8.70222 16.2625 8.84904 16.1636 8.97257 16.0392C9.09611 15.9148 9.19392 15.7673 9.26044 15.6051C9.32696 15.4429 9.36088 15.2692 9.36026 15.0938C9.35964 14.9185 9.3245 14.745 9.25683 14.5833C9.18917 14.4216 9.09031 14.2747 8.9659 14.1512L4.57607 9.77471H17.9191C18.2729 9.77471 18.6123 9.63413 18.8625 9.3839C19.1128 9.13367 19.2533 8.79429 19.2533 8.44041C19.2533 8.08654 19.1128 7.74715 18.8625 7.49693C18.6123 7.2467 18.2729 7.10612 17.9191 7.10612Z" fill="white"/>
</svg>
