<svg width="42" height="12" viewBox="0 0 42 12" fill="none" xmlns="http://www.w3.org/2000/svg">
<path d="M6.93254 10.6417C5.76067 10.6417 4.7407 10.4421 3.87265 10.0428C3.00459 9.6435 2.33185 9.07709 1.85442 8.34359C1.37699 7.60574 1.13828 6.73768 1.13828 5.73942V5.7264C1.13828 4.72813 1.37699 3.86225 1.85442 3.12874C2.33185 2.39524 3.00459 1.82883 3.87265 1.42952C4.74504 1.03022 5.76501 0.830566 6.93254 0.830566C8.10876 0.830566 9.1309 1.03022 9.99895 1.42952C10.867 1.82883 11.5398 2.39524 12.0172 3.12874C12.4946 3.86225 12.7334 4.72813 12.7334 5.7264V5.73942C12.7334 6.73768 12.4946 7.60357 12.0172 8.33708C11.5398 9.07058 10.867 9.63916 9.99895 10.0428C9.1309 10.4421 8.10876 10.6417 6.93254 10.6417ZM6.93254 8.92301C7.66605 8.92301 8.3019 8.79281 8.8401 8.53239C9.38263 8.27197 9.80147 7.90305 10.0966 7.42562C10.3961 6.94819 10.5458 6.38612 10.5458 5.73942V5.7264C10.5458 5.0797 10.3961 4.5198 10.0966 4.04671C9.80147 3.56928 9.38263 3.20036 8.8401 2.93994C8.3019 2.67952 7.66605 2.54932 6.93254 2.54932C6.20338 2.54932 5.56753 2.67952 5.02499 2.93994C4.4868 3.20036 4.06796 3.56928 3.76848 4.04671C3.47334 4.5198 3.32577 5.0797 3.32577 5.7264V5.73942C3.32577 6.38612 3.47334 6.94819 3.76848 7.42562C4.06362 7.90305 4.48246 8.27197 5.02499 8.53239C5.56753 8.79281 6.20338 8.92301 6.93254 8.92301ZM10.1487 11.3644L6.65911 7.34749H8.74895L12.2386 11.3644H10.1487ZM19.8362 10.6352C18.7989 10.6352 17.9005 10.4638 17.1409 10.1209C16.3857 9.77805 15.8019 9.28109 15.3896 8.63004C14.9816 7.979 14.7776 7.1869 14.7776 6.25374V1.0389H16.9196V6.18864C16.9196 6.7659 17.0302 7.25852 17.2516 7.6665C17.4773 8.07015 17.805 8.37831 18.2347 8.59098C18.6687 8.80366 19.2025 8.90999 19.8362 8.90999C20.4699 8.90999 21.0016 8.80366 21.4313 8.59098C21.8653 8.37831 22.193 8.07015 22.4143 7.6665C22.6357 7.25852 22.7464 6.7659 22.7464 6.18864V1.0389H24.8948V6.25374C24.8948 7.18256 24.6908 7.97466 24.2828 8.63004C23.8748 9.28109 23.2911 9.77805 22.5315 10.1209C21.7763 10.4638 20.8779 10.6352 19.8362 10.6352ZM27.3623 10.4334V1.0389H29.5107V10.4334H27.3623ZM31.7177 10.4334V9.07275L37.9547 2.7902V2.7251H31.8414V1.0389H40.9169V2.39958L34.693 8.68213V8.74723H41.0667V10.4334H31.7177Z" fill="white" fill-opacity="0.4"/>
</svg>
