<svg width="58" height="21" viewBox="0 0 58 21" fill="none" xmlns="http://www.w3.org/2000/svg">
<path fill-rule="evenodd" clip-rule="evenodd" d="M27.5374 0.433594C26.3782 0.433594 25.4866 1.38597 25.4866 2.50008C25.4866 3.63215 26.3782 4.53062 27.5374 4.53062C28.6966 4.53062 29.5348 3.63215 29.5348 2.50008C29.5348 1.38597 28.6966 0.433594 27.5374 0.433594ZM29.1424 5.23144L25.2547 6.74086C26.5566 8.14248 26.4853 12.8325 26.1999 13.9107C26.0394 14.5396 25.7541 15.1865 25.2191 15.9592C25.1656 16.0221 25.0809 16.1209 24.9962 16.2198C24.9114 16.3186 24.8267 16.4174 24.7732 16.4803L24.2204 16.9475H30.1768C29.6774 16.5163 29.1424 15.2584 29.1424 13.0302V5.23144ZM1.26875 16.696L0.573242 10.5504C0.573242 10.5504 1.82159 12.0419 1.92859 12.1677C4.74628 15.8694 7.51046 16.7319 8.50914 16.7678C9.36515 16.7678 9.93582 16.4624 10.1498 15.4381C10.5065 13.731 7.93847 12.0958 5.58445 10.8379C5.54879 10.8199 5.51758 10.802 5.48637 10.784C5.45516 10.766 5.42395 10.7481 5.38828 10.7301C3.19476 9.5441 1.16175 7.92685 1.16175 5.15955C1.16175 2.37429 3.62277 1.09847 6.54746 1.09847C8.72314 1.09847 10.3638 1.49379 11.309 1.94303L12.2185 6.39945H12.1828C10.132 3.32667 6.77929 1.40394 5.20995 1.38597C4.30044 1.38597 3.2126 1.79927 3.19476 2.71571C3.1591 3.4884 3.71194 4.94392 7.63531 6.90259C10.7561 8.44797 12.3968 10.191 12.4146 12.527C12.4325 14.9529 10.346 16.696 8.09897 17.0913C5.20995 17.5944 2.53493 17.2171 1.26875 16.696ZM13.2097 8.24908C13.033 7.83466 12.8914 7.50246 12.807 7.44168L17.1227 5.21346V7.29792C17.2832 6.97447 18.3175 5.57285 20.4932 5.57285C22.6867 5.57285 24.9872 7.06432 24.9872 11.0715C24.9872 15.4022 22.2766 17.1092 20.404 17.1092C18.7455 17.1092 17.6577 16.1748 17.2297 15.7975C17.1762 15.7436 17.1405 15.7076 17.1048 15.6897V16.696C17.1048 18.457 17.6398 20.0023 18.1392 20.4336H12.2185C13.3564 19.6464 13.7017 18.0932 13.8861 17.264C13.8953 17.2225 13.9041 17.1829 13.9126 17.1452C13.9416 17.0187 13.9654 16.8869 13.9896 16.7527C14.01 16.6391 14.0308 16.5238 14.0553 16.4084C14.1379 16.0062 14.178 15.3364 14.2084 14.8286C14.2174 14.6785 14.2255 14.5425 14.2337 14.4318C14.3585 12.545 14.2693 10.6043 13.4846 8.87923C13.3866 8.66417 13.2941 8.44722 13.2097 8.24908ZM17.0335 7.69325L17.087 15.5279C17.4615 15.9233 18.157 16.4264 19.2627 16.4084C20.9569 16.3905 21.6167 14.4498 21.5989 11.3051C21.5454 7.837 20.6002 6.09396 19.1914 6.20178C18.05 6.29163 17.2653 7.04635 17.0335 7.69325ZM32.192 9.16674C32.0315 8.46593 31.4786 7.20807 31.336 7.10025L35.5625 5.26738L35.3842 10.0293C35.8657 7.44168 37.1853 5.89631 39.9674 5.62677L39.2897 8.93314C37.8274 8.60969 35.3842 8.32218 35.3842 10.6942L35.3663 13.2818C35.4676 15.3054 36.3035 16.4117 36.665 16.8901C36.6855 16.9172 36.7044 16.9424 36.7217 16.9655H31.1041C31.9245 16.085 32.2633 15.1685 32.4416 13.9646C32.5843 12.9224 32.5308 10.6402 32.192 9.16674ZM42.9277 0.505476C41.7685 0.505476 40.8769 1.45785 40.8769 2.57196C40.8769 3.70403 41.7685 4.58454 42.9277 4.60251C44.0869 4.60251 44.9251 3.70403 44.9251 2.57196C44.9251 1.45785 44.0869 0.505476 42.9277 0.505476ZM44.5506 5.28534L40.6629 6.79478C41.9469 8.1964 41.8755 12.9044 41.608 13.9826C41.4475 14.6115 41.1622 15.2584 40.6272 16.0311C40.5737 16.094 40.4888 16.193 40.4041 16.2919C40.3194 16.3907 40.2348 16.4894 40.1814 16.5522L39.6285 17.0194H45.5849C45.0856 16.5881 44.5506 15.3303 44.5506 13.1021V5.28534ZM45.9414 11.287C45.9414 8.08846 48.5095 5.28523 51.6482 5.5368C54.6085 5.77041 57.1052 8.25019 57.3192 11.305C57.5332 14.4856 54.8047 17.0732 51.6303 17.0732C48.4738 17.0732 45.9414 14.5215 45.9414 11.287ZM48.4738 8.16034C48.3846 11.2152 50.596 16.5341 53.3067 16.6599C54.1448 16.6958 54.6264 15.995 54.5907 14.4676C54.5728 11.7722 52.6647 7.04623 49.8113 6.09385C48.9375 5.80634 48.5095 6.90248 48.4738 8.16034ZM50.3641 8.66348C49.954 10.3346 50.9527 13.6949 52.843 14.5395C53.1105 12.6527 52.2723 9.57992 50.3641 8.66348Z" fill="url(#paint0_linear_10_22)"/>
<defs>
<linearGradient id="paint0_linear_10_22" x1="30.5738" y1="0.357344" x2="86.9773" y2="38.8032" gradientUnits="userSpaceOnUse">
<stop stop-color="white"/>
<stop offset="1" stop-color="#59382A" stop-opacity="0"/>
</linearGradient>
</defs>
</svg>
