<svg width="120" height="21" viewBox="0 0 120 21" fill="none" xmlns="http://www.w3.org/2000/svg">
<mask id="mask0_1_255" style="mask-type:luminance" maskUnits="userSpaceOnUse" x="0" y="1" width="120" height="20">
<path d="M119.712 1.25098H0.289062V20.251H119.712V1.25098Z" fill="white"/>
</mask>
<g mask="url(#mask0_1_255)">
<g opacity="0.3">
<path d="M16.196 1.29395L10.5924 11.0149L4.98885 1.29395H4.96877H0.289062V20.2337H4.96877V10.6734L8.86517 17.4219L9.56813 18.627H11.6168L12.5005 17.0604L16.196 10.6734V20.2337H20.8757V1.29395H16.196Z" fill="white"/>
<path d="M32.4057 13.3626C32.4057 11.9366 31.5019 10.8722 30.1964 10.8722C28.8306 10.8722 27.9068 12.0371 27.9068 13.3626C27.9068 14.7485 28.8306 15.8531 30.1964 15.8531C31.5019 15.8531 32.4057 14.7886 32.4057 13.3626ZM22.9258 13.4028C22.9258 9.26539 25.7577 6.47363 28.6298 6.47363C30.6182 6.47363 31.8835 7.49795 32.6266 8.52226L33.0886 6.83516H37.2862V19.87H33.0886L32.6266 18.1829C31.8835 19.2273 30.6182 20.2316 28.6298 20.2316C25.7577 20.2516 22.9258 17.4599 22.9258 13.4028Z" fill="white"/>
<path d="M49.4559 7.39752V11.3743C48.532 10.8521 46.8449 10.37 45.4189 10.37C44.5955 10.37 44.1536 10.5307 44.1536 10.8521C44.1536 11.1734 44.6155 11.3743 45.8809 11.6555C48.1303 12.1375 50.3798 12.9409 50.3798 15.7728C50.3798 18.5043 48.2308 20.2316 44.3143 20.2316C42.3058 20.2316 40.6589 19.7696 39.5542 19.1671V14.9092C40.7392 15.6925 42.1652 16.3352 44.0933 16.3352C45.0574 16.3352 45.6198 16.1745 45.6198 15.813C45.6198 15.3912 44.9168 15.2506 43.3502 14.8489C41.3418 14.3267 39.3936 13.3426 39.3936 10.8922C39.3936 8.3415 41.4824 6.47363 45.1779 6.47363C46.7244 6.47363 48.3714 6.81507 49.4559 7.39752Z" fill="white"/>
<path d="M57.249 7.83969C57.972 7.07648 59.1771 6.45386 60.6031 6.45386C63.3748 6.45386 65.102 8.14096 65.102 11.0733V19.8302H60.1412V12.3587C60.1412 11.2943 59.6792 10.8323 58.7754 10.8323C57.8314 10.8323 57.249 11.4549 57.249 12.2784V19.8101H52.2881V1.25195H57.249V7.83969Z" fill="white"/>
<path d="M76.269 13.3626C76.269 11.9366 75.3652 10.8722 74.0597 10.8722C72.6939 10.8722 71.77 12.0371 71.77 13.3626C71.77 14.7485 72.6939 15.8531 74.0597 15.8531C75.3652 15.8531 76.269 14.7886 76.269 13.3626ZM66.7891 13.4028C66.7891 9.26539 69.621 6.47363 72.4931 6.47363C74.4814 6.47363 75.7468 7.49795 76.4899 8.52226L76.9519 6.83516H81.1495V19.87H76.9519L76.4899 18.1829C75.7468 19.2273 74.4814 20.2316 72.4931 20.2316C69.621 20.2516 66.7891 17.4599 66.7891 13.4028Z" fill="white"/>
<path d="M88.5212 13.3228C88.5212 14.7689 89.425 15.8133 90.7305 15.8133C92.0761 15.8133 93 14.7287 93 13.3429C93 11.9771 92.0761 10.8323 90.7104 10.8323C89.4049 10.8323 88.5212 11.8968 88.5212 13.3228ZM88.5613 8.44223C89.3045 7.33758 90.8309 6.45386 92.4377 6.45386C95.4303 6.45386 97.981 9.14519 97.981 13.3228C97.981 17.5004 95.2093 20.1917 92.2167 20.1917C90.3288 20.1917 89.0233 19.1674 88.3002 18.1431L87.8383 19.8302H83.6406V1.25195H88.5814L88.5613 8.44223Z" fill="white"/>
<path d="M104.806 1.25195H99.8652V19.8302H104.806V1.25195Z" fill="white"/>
<path d="M115.052 11.9361C115.032 11.0323 114.43 10.249 113.365 10.249C112.401 10.249 111.598 10.8917 111.256 11.9361H115.052ZM119.591 14.6676H111.437C112.06 15.9128 113.486 16.4953 115.032 16.4953C116.438 16.4953 117.683 16.0333 118.828 15.5312V19.3071C117.482 19.9498 115.976 20.2712 114.329 20.2712C109.348 20.2712 106.637 17.3388 106.637 13.4023C106.637 9.32509 109.549 6.49316 113.385 6.49316C116.86 6.49316 119.692 8.80289 119.692 13.1813C119.712 13.6634 119.672 14.1655 119.591 14.6676Z" fill="white"/>
</g>
</g>
</svg>
