<svg width="24" height="25" viewBox="0 0 24 25" fill="none" xmlns="http://www.w3.org/2000/svg">
<mask id="mask0_1_1351" style="mask-type:luminance" maskUnits="userSpaceOnUse" x="0" y="0" width="24" height="24">
<path d="M23.52 0.780762H0.479996V23.8208H23.52V0.780762Z" fill="white"/>
</mask>
<g mask="url(#mask0_1_1351)">
<path d="M18.7216 2.02588H11.5412C11.0867 2.02588 10.6502 2.2068 10.3287 2.52835L0.982258 11.8731C0.312575 12.5428 0.312575 13.6283 0.982258 14.2989L8.16273 21.4793C8.83241 22.149 9.91795 22.149 10.5876 21.4793L19.9341 12.1346C20.2556 11.8122 20.4366 11.3758 20.4366 10.9205V3.74082C20.4366 2.79331 19.6691 2.02588 18.7216 2.02588ZM15.7205 8.02818C15.0105 8.02818 14.4343 7.45196 14.4343 6.74197C14.4343 6.03199 15.0105 5.45577 15.7205 5.45577C16.4305 5.45577 17.0067 6.03199 17.0067 6.74197C17.0067 7.45196 16.4305 8.02818 15.7205 8.02818Z" fill="#FFCD4C"/>
<path d="M22.1515 3.73975L22.1507 11.722C22.1507 12.1172 21.9937 12.4971 21.7134 12.7766L12.216 22.274L12.3617 22.4197C13.0314 23.0894 14.117 23.0894 14.7867 22.4197L23.3631 13.845C23.6855 13.5235 23.8665 13.087 23.8665 12.6325V5.45468C23.8665 4.50718 23.099 3.73975 22.1515 3.73975Z" fill="#FFCD4C"/>
</g>
</svg>
