<svg width="16" height="17" viewBox="0 0 16 17" fill="none" xmlns="http://www.w3.org/2000/svg">
<path d="M12.6668 6.39139V5.44205C12.6668 2.86473 10.5775 0.775391 8.00015 0.775391C5.42281 0.775391 3.3335 2.86473 3.3335 5.44205V6.39139C2.12018 6.92092 1.33525 8.11823 1.3335 9.44205V13.4421C1.33568 15.2821 2.82678 16.7732 4.66681 16.7754H11.3335C13.1735 16.7732 14.6646 15.2821 14.6668 13.4421V9.44205C14.6651 8.11823 13.8801 6.92092 12.6668 6.39139ZM8.66681 12.1087C8.66681 12.4769 8.36834 12.7754 8.00015 12.7754C7.63197 12.7754 7.3335 12.4769 7.3335 12.1087V10.7754C7.3335 10.4072 7.63197 10.1087 8.00015 10.1087C8.36834 10.1087 8.66681 10.4072 8.66681 10.7754V12.1087ZM11.3335 6.10873H4.66681V5.44208C4.66681 3.60114 6.15918 2.10873 8.00015 2.10873C9.84112 2.10873 11.3335 3.60111 11.3335 5.44208V6.10873Z" fill="#FFCD4C"/>
</svg>
