<svg width="16" height="17" viewBox="0 0 16 17" fill="none" xmlns="http://www.w3.org/2000/svg">
<path d="M8 0.625C3.58172 0.625 0 4.20672 0 8.625C0 13.0433 3.58172 16.625 8 16.625C12.4183 16.625 16 13.0433 16 8.625C15.9952 4.20869 12.4163 0.629781 8 0.625ZM10.6667 10.3497C10.9376 10.599 10.9551 11.0208 10.7057 11.2917C10.4564 11.5626 10.0346 11.5801 9.76372 11.3307C9.75016 11.3183 9.73716 11.3052 9.72466 11.2917L8 9.56766L6.276 11.2917C6.01116 11.5474 5.58913 11.5401 5.33334 11.2753C5.08384 11.0169 5.08384 10.6073 5.33334 10.349L7.05734 8.625L5.33334 6.901C5.07756 6.63616 5.08491 6.21413 5.34975 5.95834C5.60809 5.70884 6.01766 5.70884 6.276 5.95834L8 7.68234L9.72466 5.95834C9.974 5.68744 10.3958 5.66994 10.6667 5.91928C10.9376 6.16863 10.9551 6.59038 10.7057 6.86128C10.6933 6.87484 10.6802 6.88784 10.6667 6.90034L8.94266 8.625L10.6667 10.3497Z" fill="#564B5D"/>
</svg>
