<svg width="32" height="21" viewBox="0 0 32 21" fill="none" xmlns="http://www.w3.org/2000/svg">
<path d="M30 1.19995H2C1.17157 1.19995 0.5 1.87152 0.5 2.69995V18.7C0.5 19.5284 1.17157 20.2 2 20.2H30C30.8284 20.2 31.5 19.5284 31.5 18.7V2.69995C31.5 1.87152 30.8284 1.19995 30 1.19995Z" fill="white"/>
<path d="M30 1.19995H2C1.17157 1.19995 0.5 1.87152 0.5 2.69995V18.7C0.5 19.5284 1.17157 20.2 2 20.2H30C30.8284 20.2 31.5 19.5284 31.5 18.7V2.69995C31.5 1.87152 30.8284 1.19995 30 1.19995Z" stroke="#EDEEF0"/>
<path fill-rule="evenodd" clip-rule="evenodd" d="M11.2979 13.6532H9.67083L8.45076 8.99852C8.39285 8.78441 8.2699 8.59512 8.08903 8.50591C7.63765 8.28171 7.14026 8.10328 6.59766 8.01329V7.83409H9.21866C9.5804 7.83409 9.8517 8.10328 9.89692 8.41592L10.53 11.7735L12.1562 7.83409H13.738L11.2979 13.6532ZM14.6404 13.6532H13.1038L14.3691 7.8341H15.9057L14.6404 13.6532ZM17.897 9.44621C17.9422 9.1328 18.2135 8.9536 18.53 8.9536C19.0274 8.9086 19.5692 8.99859 20.0214 9.22201L20.2927 7.96914C19.8405 7.78994 19.3432 7.69995 18.8918 7.69995C17.4004 7.69995 16.3152 8.50598 16.3152 9.62464C16.3152 10.4757 17.0839 10.9226 17.6265 11.1917C18.2135 11.4602 18.4396 11.6394 18.3944 11.9078C18.3944 12.3104 17.9422 12.4896 17.4908 12.4896C16.9482 12.4896 16.4056 12.3554 15.909 12.1312L15.6377 13.3849C16.1803 13.6083 16.7674 13.6983 17.31 13.6983C18.9822 13.7425 20.0214 12.9372 20.0214 11.7286C20.0214 10.2065 17.897 10.1173 17.897 9.44621ZM25.4011 13.6532L24.1811 7.83409H22.8706C22.5993 7.83409 22.328 8.01329 22.2375 8.28171L19.9783 13.6532H21.5601L21.8758 12.803H23.8193L24.0002 13.6532H25.4011ZM23.0942 9.40125L23.5456 11.5944H22.2803L23.0942 9.40125Z" fill="#1938C4"/>
</svg>
