<svg width="46" height="28" viewBox="0 0 46 28" fill="none" xmlns="http://www.w3.org/2000/svg">
<mask id="mask0_1_223" style="mask-type:luminance" maskUnits="userSpaceOnUse" x="0" y="1" width="46" height="27">
<path d="M45.3105 1.2002H0.361328V27.2002H45.3105V1.2002Z" fill="white"/>
</mask>
<g mask="url(#mask0_1_223)">
<g opacity="0.8">
<path fill-rule="evenodd" clip-rule="evenodd" d="M11.2637 5.82451C10.5586 2.47536 10.3382 2.34315 8.75179 2.25502V1.68213H15.8467V2.25502C13.9077 2.43129 13.8637 2.43129 14.5687 6.35332L16.9043 18.7364L19.6806 5.4279C20.2535 2.6957 20.0331 2.43129 18.2264 2.29908L17.6535 2.25502V1.68213H22.7213V2.25502C21.1789 2.38722 21.1789 2.78383 20.562 5.6923L16.023 27.1974H15.5823L11.7043 7.93976L7.60602 27.1974H7.16535L2.53823 4.63468C2.14162 2.65163 2.05348 2.34315 0.378906 2.25502V1.68213H7.29755V2.25502C5.53484 2.43129 5.49077 2.60756 6.19586 6.35332L8.57552 18.6482L11.2637 5.82451ZM29.7281 27.0652C27.2162 27.0652 25.7179 24.7296 25.145 24.7296C24.5281 24.7296 23.823 26.0516 23.6026 26.6245H23.0738V18.3397H23.6026C25.145 22.8787 27.6128 26.4482 29.6399 26.4482C30.8298 26.4482 31.5789 25.3465 31.5789 23.716C31.5789 17.7228 23.206 13.8448 23.206 6.48553C23.206 3.48892 25.3213 1.15332 27.6128 1.15332C29.684 1.15332 30.8298 2.8279 31.4908 2.8279C31.8433 2.8279 32.1077 2.56349 32.5484 1.50586H32.945V8.90925H32.4162C31.4467 5.33976 29.4637 1.7262 27.5247 1.7262C26.3348 1.7262 25.4535 2.8279 25.4535 4.45841C25.4535 10.2313 33.8264 13.8889 33.8264 21.5126C33.8704 24.6855 31.9314 27.0652 29.7281 27.0652ZM38.4094 27.0652C35.8535 27.0652 34.8399 25.4787 34.8399 23.9363C34.8399 22.394 35.7653 20.8075 37.1755 20.8075C38.6738 20.8075 39.2908 22.3058 38.5857 23.3635C38.0128 24.2889 36.4704 24.377 36.4704 25.0821C36.4704 26.1838 37.3959 26.4482 38.145 26.4482C40.3484 26.4482 40.2162 25.0821 40.2162 20.4109V3.88553C40.2162 2.56349 39.9077 2.25502 38.4976 2.25502H37.9687V1.68213H45.3281V2.25502H44.7111C43.962 2.25502 43.6535 2.56349 43.6535 3.92959V20.1025C43.6535 24.6414 40.3925 27.0652 38.4094 27.0652Z" fill="white"/>
</g>
</g>
</svg>
