<svg width="33" height="33" viewBox="0 0 33 33" fill="none" xmlns="http://www.w3.org/2000/svg">
<mask id="mask0_16_675" style="mask-type:luminance" maskUnits="userSpaceOnUse" x="0" y="0" width="33" height="33">
<path d="M32.7581 0.35498H0.758057V32.355H32.7581V0.35498Z" fill="white"/>
</mask>
<g mask="url(#mask0_16_675)">
<path d="M16.5344 32.3546C16.1387 32.3548 15.7518 32.2376 15.4227 32.0178C15.0937 31.7982 14.8372 31.4858 14.6857 31.1202C14.5343 30.7546 14.4947 30.3524 14.5719 29.9642C14.6492 29.5762 14.8398 29.2198 15.1197 28.94L25.3491 18.712C25.6587 18.4024 25.9043 18.0349 26.0719 17.6305C26.2395 17.226 26.3257 16.7925 26.3257 16.3546C26.3257 15.9168 26.2395 15.4833 26.0719 15.0788C25.9043 14.6744 25.6587 14.3069 25.3491 13.9973L15.1197 3.76932C14.9339 3.58354 14.7865 3.36298 14.686 3.12026C14.5855 2.87752 14.5337 2.61738 14.5337 2.35464C14.5337 1.82404 14.7445 1.31517 15.1197 0.939978C15.4949 0.564784 16.0038 0.354004 16.5344 0.354004C16.7971 0.354004 17.0572 0.405752 17.3 0.506294C17.5427 0.606834 17.7632 0.7542 17.949 0.939978L28.1771 11.1693C29.5523 12.5446 30.3249 14.4098 30.3249 16.3546C30.3249 18.2995 29.5523 20.1647 28.1771 21.54L17.949 31.7694C17.7632 31.955 17.5426 32.1022 17.2999 32.2028C17.0572 32.3032 16.797 32.3548 16.5344 32.3546Z" fill="#FF854C"/>
</g>
</svg>
