<svg width="33" height="21" viewBox="0 0 33 21" fill="none" xmlns="http://www.w3.org/2000/svg">
<path d="M30.3452 1.47266H2.34521C1.51679 1.47266 0.845215 2.14423 0.845215 2.97266V18.9727C0.845215 19.8011 1.51679 20.4727 2.34521 20.4727H30.3452C31.1736 20.4727 31.8452 19.8011 31.8452 18.9727V2.97266C31.8452 2.14423 31.1736 1.47266 30.3452 1.47266Z" fill="white"/>
<path d="M30.3452 1.47266H2.34521C1.51679 1.47266 0.845215 2.14423 0.845215 2.97266V18.9727C0.845215 19.8011 1.51679 20.4727 2.34521 20.4727H30.3452C31.1736 20.4727 31.8452 19.8011 31.8452 18.9727V2.97266C31.8452 2.14423 31.1736 1.47266 30.3452 1.47266Z" stroke="#EDEEF0"/>
<path fill-rule="evenodd" clip-rule="evenodd" d="M11.6431 13.9259H10.016L8.79597 9.27123C8.73806 9.05712 8.61511 8.86783 8.43424 8.77862C7.98286 8.55442 7.48547 8.37599 6.94287 8.286V8.1068H9.56387C9.92561 8.1068 10.1969 8.37599 10.2421 8.68863L10.8752 12.0462L12.5014 8.1068H14.0832L11.6431 13.9259ZM14.9856 13.9259H13.449L14.7143 8.10681H16.2509L14.9856 13.9259ZM18.2422 9.71892C18.2874 9.40551 18.5587 9.22631 18.8752 9.22631C19.3726 9.18131 19.9144 9.2713 20.3666 9.49472L20.6379 8.24185C20.1857 8.06265 19.6884 7.97266 19.237 7.97266C17.7456 7.97266 16.6604 8.77869 16.6604 9.89735C16.6604 10.7484 17.4291 11.1953 17.9717 11.4644C18.5587 11.7329 18.7848 11.9121 18.7396 12.1805C18.7396 12.5831 18.2874 12.7623 17.836 12.7623C17.2934 12.7623 16.7508 12.6281 16.2542 12.4039L15.9829 13.6576C16.5255 13.881 17.1126 13.971 17.6552 13.971C19.3274 14.0152 20.3666 13.2099 20.3666 12.0013C20.3666 10.4792 18.2422 10.39 18.2422 9.71892ZM25.7463 13.9259L24.5263 8.1068H23.2158C22.9445 8.1068 22.6732 8.286 22.5827 8.55442L20.3235 13.9259H21.9053L22.221 13.0757H24.1645L24.3454 13.9259H25.7463ZM23.4394 9.67396L23.8908 11.8671H22.6255L23.4394 9.67396Z" fill="#1938C4"/>
</svg>
