<svg width="18" height="18" viewBox="0 0 18 18" fill="none" xmlns="http://www.w3.org/2000/svg">
<mask id="mask0_16_3049" style="mask-type:luminance" maskUnits="userSpaceOnUse" x="0" y="1" width="17" height="17">
<path d="M16.9651 1.23926H0.965088V17.2393H16.9651V1.23926Z" fill="white"/>
</mask>
<g mask="url(#mask0_16_3049)">
<path d="M13.9651 3.90593H11.2644C11.1842 3.17463 10.8374 2.49851 10.2903 2.00663C9.74318 1.51476 9.03411 1.24158 8.29842 1.23926H3.96509C3.16971 1.24014 2.40716 1.5565 1.84474 2.11892C1.28232 2.68133 0.96597 3.44388 0.965088 4.23926V16.2393C0.965088 16.5045 1.07044 16.7589 1.25798 16.9464C1.44552 17.1339 1.69987 17.2393 1.96509 17.2393C2.23031 17.2393 2.48466 17.1339 2.6722 16.9464C2.85973 16.7589 2.96509 16.5045 2.96509 16.2393V10.5726H7.33242C7.41271 11.3039 7.75949 11.9801 8.30658 12.4719C8.85367 12.9638 9.56273 13.237 10.2984 13.2393H13.9651C14.7605 13.2384 15.523 12.9221 16.0854 12.3596C16.6479 11.7972 16.9642 11.0347 16.9651 10.2393V6.90593C16.9642 6.11055 16.6479 5.348 16.0854 4.78558C15.523 4.22316 14.7605 3.90681 13.9651 3.90593ZM2.96509 4.23926C2.96509 3.97405 3.07045 3.71969 3.25798 3.53215C3.44552 3.34462 3.69987 3.23926 3.96509 3.23926H8.29842C8.56364 3.23926 8.81799 3.34462 9.00553 3.53215C9.19307 3.71969 9.29842 3.97405 9.29842 4.23926V7.5726C9.29842 7.83781 9.19307 8.09217 9.00553 8.2797C8.81799 8.46724 8.56364 8.5726 8.29842 8.5726H2.96509V4.23926ZM14.9651 10.2393C14.9651 10.5045 14.8597 10.7589 14.6722 10.9464C14.4847 11.1339 14.2303 11.2393 13.9651 11.2393H10.2984C10.059 11.2383 9.82785 11.1514 9.64704 10.9945C9.46622 10.8375 9.34773 10.6209 9.31309 10.3839C9.89289 10.1763 10.3946 9.79494 10.7498 9.29187C11.1051 8.7888 11.2967 8.18846 11.2984 7.5726V5.90593H13.9651C14.2303 5.90593 14.4847 6.01129 14.6722 6.19882C14.8597 6.38636 14.9651 6.64071 14.9651 6.90593V10.2393Z" fill="#227E64"/>
</g>
</svg>
