<svg width="10" height="11" viewBox="0 0 10 11" fill="none" xmlns="http://www.w3.org/2000/svg">
<g clip-path="url(#clip0_1_275)">
<path d="M9.37029 5.35816C9.37029 5.22821 9.33929 5.10628 9.28736 4.99546C8.94094 3.87791 7.31912 3.95954 5.0122 3.90503C4.62651 3.89599 4.84713 3.44055 4.98249 2.4408C5.07059 1.79057 4.65131 0.792114 3.94658 0.792114C2.78459 0.792114 3.9024 1.70868 2.87501 3.9753C2.32605 5.18636 1.09897 4.50798 1.09897 5.72447V8.49355C1.09897 8.96707 1.14547 9.42226 1.81145 9.49717C2.45703 9.56976 2.31184 10.0299 3.24314 10.0299H7.9045C8.37932 10.0299 8.76553 9.64339 8.76553 9.16857C8.76553 8.97172 8.69655 8.79244 8.58521 8.64726C8.84871 8.49975 9.02954 8.22126 9.02954 7.89835C9.02954 7.70201 8.96083 7.52273 8.84974 7.37781C9.11402 7.23056 9.29537 6.95181 9.29537 6.62838C9.29537 6.39356 9.2003 6.18069 9.04711 6.02491C9.24267 5.86707 9.37029 5.62837 9.37029 5.35816Z" fill="#FFDC5D"/>
<path d="M6.28683 6.21924H8.50953C8.81178 6.21924 9.09543 6.05753 9.24991 5.79738C9.31346 5.69018 9.27807 5.55145 9.1706 5.48764C9.06339 5.42383 8.92467 5.45974 8.86086 5.56695C8.78775 5.69069 8.65264 5.76716 8.50927 5.76716H6.23335C6.00783 5.76716 5.82441 5.58374 5.82441 5.35822C5.82441 5.13269 6.00783 4.94928 6.23335 4.94928H7.75416C7.87894 4.94928 7.9802 4.84801 7.9802 4.72323C7.9802 4.59846 7.87894 4.49719 7.75416 4.49719H6.2331C5.75828 4.49719 5.37207 4.8834 5.37207 5.35822C5.37207 5.62301 5.49478 5.85732 5.68336 6.01542C5.52449 6.17171 5.42555 6.38871 5.42555 6.62844C5.42555 6.89401 5.54903 7.12909 5.73865 7.28693C5.5808 7.44297 5.4829 7.65919 5.4829 7.89841C5.4829 8.18774 5.6273 8.44298 5.84689 8.59927C5.71152 8.75143 5.62679 8.94957 5.62679 9.16863C5.62679 9.64345 6.013 10.0297 6.48781 10.0297H7.90451C8.20676 10.0297 8.49067 9.8682 8.64515 9.60806C8.70896 9.50085 8.67357 9.36213 8.56636 9.29832C8.4589 9.23503 8.32017 9.2699 8.25662 9.37711C8.183 9.50085 8.04789 9.57758 7.90451 9.57758H6.48781C6.26229 9.57758 6.07887 9.39416 6.07887 9.16863C6.07887 8.94311 6.26229 8.75969 6.48781 8.75969H8.16853C8.47078 8.75969 8.75495 8.59798 8.90917 8.33783C8.97298 8.23037 8.93759 8.09164 8.83038 8.02809C8.72214 7.96325 8.58393 7.99968 8.52064 8.10688C8.44598 8.23269 8.31423 8.30761 8.16853 8.30761H6.34392C6.1184 8.30761 5.93498 8.12393 5.93498 7.89841C5.93498 7.67288 6.1184 7.48947 6.34392 7.48947H8.4341C8.73635 7.48947 9.02025 7.32801 9.17474 7.06787C9.23855 6.96066 9.20315 6.82193 9.09595 6.75813C8.98822 6.69458 8.84975 6.72971 8.7862 6.83692C8.71154 6.96247 8.5798 7.03738 8.4341 7.03738H6.28683C6.0613 7.03738 5.87789 6.85397 5.87789 6.62844C5.87789 6.40292 6.06105 6.21924 6.28683 6.21924Z" fill="#EE9547"/>
</g>
<defs>
<clipPath id="clip0_1_275">
<rect width="9.3" height="9.3" fill="white" transform="translate(0.339996 0.729858)"/>
</clipPath>
</defs>
</svg>
