<svg width="10" height="11" viewBox="0 0 10 11" fill="none" xmlns="http://www.w3.org/2000/svg">
<g clip-path="url(#clip0_1_371)">
<path d="M9.37029 5.42822C9.37029 5.29828 9.33929 5.17635 9.28736 5.06552C8.94094 3.94797 7.31912 4.02961 5.0122 3.9751C4.62651 3.96606 4.84713 3.51062 4.98249 2.51087C5.07059 1.86064 4.65131 0.862183 3.94658 0.862183C2.78459 0.862183 3.9024 1.77875 2.87501 4.04537C2.32605 5.25643 1.09897 4.57805 1.09897 5.79454V8.56362C1.09897 9.03714 1.14547 9.49232 1.81145 9.56724C2.45703 9.63983 2.31184 10.0999 3.24314 10.0999H7.9045C8.37932 10.0999 8.76553 9.71346 8.76553 9.23864C8.76553 9.04179 8.69655 8.86251 8.58521 8.71732C8.84871 8.56982 9.02954 8.29133 9.02954 7.96842C9.02954 7.77208 8.96083 7.5928 8.84974 7.44787C9.11402 7.30062 9.29537 7.02188 9.29537 6.69845C9.29537 6.46362 9.2003 6.25076 9.04711 6.09498C9.24267 5.93714 9.37029 5.69844 9.37029 5.42822Z" fill="#FFDC5D"/>
<path d="M6.28683 6.28931H8.50953C8.81178 6.28931 9.09543 6.12759 9.24991 5.86745C9.31346 5.76024 9.27807 5.62152 9.1706 5.55771C9.06339 5.4939 8.92467 5.52981 8.86086 5.63702C8.78775 5.76076 8.65264 5.83723 8.50927 5.83723H6.23335C6.00783 5.83723 5.82441 5.65381 5.82441 5.42829C5.82441 5.20276 6.00783 5.01934 6.23335 5.01934H7.75416C7.87894 5.01934 7.9802 4.91808 7.9802 4.7933C7.9802 4.66853 7.87894 4.56726 7.75416 4.56726H6.2331C5.75828 4.56726 5.37207 4.95347 5.37207 5.42829C5.37207 5.69308 5.49478 5.92739 5.68336 6.08549C5.52449 6.24178 5.42555 6.45878 5.42555 6.69851C5.42555 6.96408 5.54903 7.19916 5.73865 7.357C5.5808 7.51304 5.4829 7.72926 5.4829 7.96848C5.4829 8.25781 5.6273 8.51304 5.84689 8.66934C5.71152 8.82149 5.62679 9.01964 5.62679 9.2387C5.62679 9.71352 6.013 10.0997 6.48781 10.0997H7.90451C8.20676 10.0997 8.49067 9.93827 8.64515 9.67813C8.70896 9.57092 8.67357 9.43219 8.56636 9.36839C8.4589 9.30509 8.32017 9.33997 8.25662 9.44718C8.183 9.57092 8.04789 9.64764 7.90451 9.64764H6.48781C6.26229 9.64764 6.07887 9.46423 6.07887 9.2387C6.07887 9.01318 6.26229 8.82976 6.48781 8.82976H8.16853C8.47078 8.82976 8.75495 8.66804 8.90917 8.4079C8.97298 8.30044 8.93759 8.16171 8.83038 8.09816C8.72214 8.03332 8.58393 8.06974 8.52064 8.17695C8.44598 8.30276 8.31423 8.37768 8.16853 8.37768H6.34392C6.1184 8.37768 5.93498 8.194 5.93498 7.96848C5.93498 7.74295 6.1184 7.55954 6.34392 7.55954H8.4341C8.73635 7.55954 9.02025 7.39808 9.17474 7.13794C9.23855 7.03073 9.20315 6.892 9.09595 6.82819C8.98822 6.76464 8.84975 6.79978 8.7862 6.90699C8.71154 7.03254 8.5798 7.10745 8.4341 7.10745H6.28683C6.0613 7.10745 5.87789 6.92404 5.87789 6.69851C5.87789 6.47299 6.06105 6.28931 6.28683 6.28931Z" fill="#EE9547"/>
</g>
<defs>
<clipPath id="clip0_1_371">
<rect width="9.3" height="9.3" fill="white" transform="translate(0.339996 0.799927)"/>
</clipPath>
</defs>
</svg>
