<svg width="33" height="21" viewBox="0 0 33 21" fill="none" xmlns="http://www.w3.org/2000/svg">
<path d="M30.3452 1.11279H2.34521C1.51679 1.11279 0.845215 1.78437 0.845215 2.61279V18.6128C0.845215 19.4412 1.51679 20.1128 2.34521 20.1128H30.3452C31.1736 20.1128 31.8452 19.4412 31.8452 18.6128V2.61279C31.8452 1.78437 31.1736 1.11279 30.3452 1.11279Z" fill="white"/>
<path d="M30.3452 1.11279H2.34521C1.51679 1.11279 0.845215 1.78437 0.845215 2.61279V18.6128C0.845215 19.4412 1.51679 20.1128 2.34521 20.1128H30.3452C31.1736 20.1128 31.8452 19.4412 31.8452 18.6128V2.61279C31.8452 1.78437 31.1736 1.11279 30.3452 1.11279Z" stroke="#EDEEF0"/>
<mask id="mask0_16_2662" style="mask-type:luminance" maskUnits="userSpaceOnUse" x="5" y="6" width="23" height="10">
<path d="M27.6767 6.61279H5.01318V15.6128H27.6767V6.61279Z" fill="white"/>
</mask>
<g mask="url(#mask0_16_2662)">
<path d="M15.7329 11.0092V13.6474H14.896V7.13227H17.1157C17.3807 7.12673 17.6441 7.17372 17.8908 7.27053C18.1375 7.36734 18.3626 7.51204 18.5531 7.69629C18.7455 7.86936 18.8986 8.08161 19.0022 8.31877C19.1057 8.55593 19.1573 8.81251 19.1535 9.07127C19.159 9.33142 19.1082 9.58967 19.0045 9.82835C18.9009 10.067 18.7469 10.2805 18.5531 10.4541C18.1649 10.8242 17.6858 11.009 17.1157 11.0087L15.7329 11.0092ZM15.7329 7.93438V10.2087H17.1365C17.2904 10.2133 17.4435 10.1856 17.5861 10.1276C17.7287 10.0696 17.8576 9.9825 17.9646 9.87183C18.071 9.76835 18.1556 9.64457 18.2134 9.50783C18.2712 9.37108 18.301 9.22414 18.301 9.07569C18.301 8.92724 18.2712 8.7803 18.2134 8.64355C18.1556 8.50681 18.071 8.38304 17.9646 8.27956C17.8589 8.16655 17.7305 8.07728 17.5877 8.01769C17.4449 7.95809 17.2911 7.92951 17.1365 7.93386L15.7329 7.93438Z" fill="black"/>
<path d="M21.0813 9.04443C21.6999 9.04443 22.1882 9.20974 22.5462 9.54036C22.9042 9.87098 23.083 10.3243 23.0827 10.9003V13.6477H22.2821V13.029H22.2457C21.8992 13.5385 21.4383 13.7932 20.863 13.7932C20.3719 13.7932 19.961 13.6477 19.6304 13.3565C19.4718 13.2229 19.3449 13.0556 19.2591 12.8667C19.1733 12.6779 19.1307 12.4723 19.1345 12.2649C19.1345 11.8036 19.3088 11.4368 19.6574 11.1644C20.0061 10.892 20.4715 10.7554 21.0537 10.7547C21.5507 10.7547 21.96 10.8457 22.2816 11.0277V10.8364C22.2826 10.695 22.252 10.5551 22.1922 10.427C22.1324 10.2989 22.0449 10.1856 21.9359 10.0956C21.7146 9.89587 21.4261 9.78691 21.1281 9.7904C20.6606 9.7904 20.2906 9.9876 20.0182 10.382L19.2811 9.91776C19.6866 9.33554 20.2866 9.04443 21.0813 9.04443ZM19.9985 12.2831C19.9979 12.3896 20.0228 12.4947 20.0711 12.5896C20.1194 12.6846 20.1897 12.7666 20.2761 12.8289C20.4612 12.9745 20.6909 13.0516 20.9264 13.0472C21.2796 13.0466 21.6181 12.9061 21.8678 12.6563C22.1451 12.3954 22.2837 12.0892 22.2837 11.7378C22.0227 11.5298 21.6588 11.4259 21.192 11.4259C20.852 11.4259 20.5686 11.5078 20.3416 11.6717C20.1123 11.8381 19.9985 12.0403 19.9985 12.2831Z" fill="black"/>
<path d="M27.6775 9.18994L24.8829 15.6126H24.0189L25.056 13.3654L23.2183 9.18994H24.1281L25.4563 12.3922H25.4745L26.7663 9.18994H27.6775Z" fill="black"/>
<path d="M12.3495 10.4407C12.3498 10.1857 12.3283 9.93106 12.2851 9.67969H8.75537V11.1212H10.777C10.7356 11.3515 10.6481 11.5709 10.5196 11.7664C10.3911 11.9619 10.2244 12.1293 10.0295 12.2586V13.1944H11.236C11.9425 12.543 12.3495 11.5797 12.3495 10.4407Z" fill="#4285F4"/>
<path d="M8.75575 14.0983C9.7658 14.0983 10.6162 13.7667 11.2364 13.1949L10.0299 12.2591C9.69406 12.4868 9.26156 12.6168 8.75575 12.6168C7.77949 12.6168 6.95086 11.9587 6.65455 11.0718H5.41162V12.0361C5.72314 12.656 6.20083 13.1771 6.79135 13.5413C7.38187 13.9055 8.06198 14.0983 8.75575 14.0983Z" fill="#34A853"/>
<path d="M6.65466 11.0717C6.49802 10.6071 6.49802 10.1038 6.65466 9.6391V8.6748H5.41173C5.14966 9.19628 5.01318 9.77182 5.01318 10.3554C5.01318 10.939 5.14966 11.5146 5.41173 12.036L6.65466 11.0717Z" fill="#FF5E00"/>
<path d="M8.75575 8.0941C9.28952 8.08538 9.80528 8.28705 10.1916 8.65552L11.2598 7.58725C10.5824 6.95101 9.68503 6.6017 8.75575 6.61255C8.06198 6.61258 7.38187 6.80544 6.79135 7.16959C6.20083 7.53375 5.72314 8.05486 5.41162 8.67476L6.65455 9.63906C6.95086 8.75221 7.77949 8.0941 8.75575 8.0941Z" fill="#EA4335"/>
</g>
</svg>
