<svg width="33" height="32" viewBox="0 0 33 32" fill="none" xmlns="http://www.w3.org/2000/svg">
<mask id="mask0_16_2618" style="mask-type:luminance" maskUnits="userSpaceOnUse" x="0" y="1" width="33" height="30">
<path d="M32.3452 1.33838H0.345215V30.9061H32.3452V1.33838Z" fill="white"/>
</mask>
<g mask="url(#mask0_16_2618)">
<path d="M13.7983 3.99723C15.1265 3.99723 16.4051 4.18994 17.6134 4.54671C17.8061 4.604 18.0014 4.6665 18.1994 4.73421C18.4181 4.80973 18.6343 4.89046 18.8478 4.9764L17.9676 6.59358C16.6733 6.09619 15.2697 5.82536 13.8009 5.82536H13.7983C12.1942 5.82536 10.6655 6.15088 9.27491 6.73942C9.04835 6.83577 8.82438 6.93733 8.60823 7.04671C7.48323 7.60921 6.4624 8.34879 5.58219 9.229L5.57698 9.23421C5.28531 9.52588 5.00667 9.83577 4.74886 10.1587C4.48844 10.4842 4.24365 10.8228 4.01709 11.1743C2.84781 12.9868 2.17334 15.1405 2.17334 17.4504V17.453C2.17334 19.0571 2.49886 20.5858 3.0874 21.9764C3.18375 22.203 3.28531 22.4269 3.39469 22.6431C3.95719 23.7655 4.69677 24.7889 5.57959 25.6691L5.58479 25.6743C5.87646 25.966 6.18636 26.2446 6.50927 26.5051C6.83479 26.7655 7.17334 27.0103 7.5249 27.2368C9.33479 28.3983 11.4884 29.0728 13.7983 29.0728H13.8009C15.4051 29.0728 16.9337 28.7472 18.3244 28.1587C18.5509 28.0623 18.7749 27.9608 18.991 27.8514C20.116 27.2889 21.1369 26.5493 22.0171 25.6691H22.0197L22.0275 25.6613C22.3192 25.3696 22.5952 25.0623 22.8556 24.7394C23.116 24.4139 23.3608 24.0754 23.5874 23.7238C24.7488 21.9165 25.4233 19.7655 25.4233 17.4582L27.2488 17.1769C27.2515 17.2681 27.2515 17.3592 27.2515 17.4504V17.453C27.2515 19.3097 26.8738 21.0806 26.1942 22.6873C26.0848 22.9478 25.965 23.2056 25.8374 23.4608C25.1863 24.7629 24.3296 25.9452 23.3113 26.9634L23.3061 26.9686C22.9676 27.3071 22.6082 27.6301 22.2358 27.9295C21.8608 28.2316 21.4676 28.5155 21.0613 28.7759C18.9676 30.1222 16.4754 30.9035 13.8009 30.9035C11.9442 30.9035 10.1733 30.5259 8.56656 29.8462C8.30615 29.7368 8.04834 29.617 7.79313 29.4894C6.49104 28.8384 5.30875 27.9816 4.29052 26.9634L4.28531 26.9556C3.94677 26.617 3.62646 26.2603 3.32438 25.8853C3.02229 25.5103 2.73844 25.117 2.47802 24.7108C1.12646 22.617 0.345215 20.1248 0.345215 17.4504V17.4478C0.345215 15.591 0.722819 13.8228 1.4025 12.2134C1.51188 11.953 1.63167 11.6952 1.75927 11.4399C2.41031 10.1379 3.26709 8.95556 4.28531 7.93733L4.29052 7.93213C4.62906 7.59358 4.98844 7.27327 5.36084 6.97119C5.73584 6.66911 6.12907 6.38525 6.53532 6.12483C8.63168 4.77848 11.1238 3.99723 13.7983 3.99723ZM14.8973 16.8436L23.34 1.33838L24.4311 10.1431L32.3452 14.1509L14.8973 16.8436ZM13.7983 13.1926H13.8009C13.9884 13.1926 14.1733 13.2056 14.353 13.229L13.3556 15.0623C13.1811 15.0936 13.0119 15.1457 12.853 15.2134C12.8061 15.2342 12.7593 15.2551 12.7124 15.2785C12.478 15.3957 12.2645 15.5493 12.0796 15.7342L12.0744 15.7394C12.0145 15.7993 11.9598 15.8618 11.9051 15.9269C11.8504 15.9946 11.7983 16.0649 11.7515 16.1405C11.5093 16.5181 11.3686 16.9686 11.3686 17.4504V17.453C11.3686 17.7889 11.4363 18.1066 11.5613 18.3983C11.5822 18.4478 11.603 18.4946 11.6265 18.5389C11.7436 18.7733 11.8973 18.9868 12.0822 19.1717L12.0874 19.1769C12.1473 19.2368 12.2098 19.2941 12.2749 19.3462C12.3426 19.4009 12.4129 19.453 12.4884 19.4998C12.866 19.742 13.3166 19.8827 13.7983 19.8827C14.1343 19.8827 14.452 19.815 14.7436 19.6926C14.7931 19.6717 14.8374 19.6509 14.8843 19.6275C15.1186 19.5103 15.3322 19.3566 15.5171 19.1717L15.5223 19.1665C15.5561 19.1327 15.5874 19.0988 15.616 19.0676C15.6447 19.0363 15.6733 18.9998 15.702 18.9634L17.8921 18.6248C17.8452 18.7915 17.7879 18.9556 17.7202 19.1118C17.6863 19.1926 17.6473 19.2759 17.6082 19.3566C17.4025 19.7707 17.1317 20.1431 16.8087 20.466L16.8009 20.4712C16.6942 20.5754 16.5848 20.6769 16.4676 20.7707C16.3478 20.867 16.2254 20.9556 16.0952 21.0389C15.4311 21.4634 14.6447 21.7108 13.7983 21.7108C13.2098 21.7108 12.6499 21.591 12.1421 21.3748C12.0613 21.341 11.978 21.3019 11.8973 21.2629C11.4832 21.0571 11.1108 20.7863 10.7879 20.4634L10.7801 20.4556C10.6759 20.3514 10.5744 20.2394 10.4806 20.1222C10.3843 20.0024 10.2957 19.8801 10.2124 19.7498C9.78793 19.0884 9.54052 18.2993 9.54052 17.453V17.4504C9.54052 16.8618 9.66031 16.3019 9.87646 15.7941C9.91031 15.7134 9.94939 15.6301 9.98845 15.5493C10.1942 15.1379 10.465 14.7629 10.7879 14.4426C10.8947 14.3358 11.0093 14.2342 11.1291 14.1379C11.2488 14.0415 11.3712 13.953 11.5015 13.8696C12.1629 13.4399 12.952 13.1926 13.7983 13.1926ZM13.7983 8.55713C14.5952 8.55713 15.366 8.66129 16.0978 8.85921C16.2176 8.89046 16.3348 8.92431 16.452 8.96338C16.5145 8.98421 16.5796 9.00504 16.6421 9.02588L15.7515 10.6639C15.1317 10.4868 14.4754 10.3905 13.7957 10.3905C12.8218 10.3905 11.8921 10.5884 11.0457 10.9452C10.9129 11.0024 10.7775 11.0649 10.6395 11.1327L10.6291 11.1379C9.94939 11.479 9.3348 11.9269 8.80095 12.4608L8.79573 12.466C8.61865 12.6431 8.45198 12.8306 8.29313 13.0259C8.13427 13.2238 7.98585 13.4295 7.84782 13.6431C7.1421 14.742 6.73323 16.0519 6.73323 17.4556V17.4582C6.73323 18.4321 6.93115 19.3618 7.28792 20.2082C7.34521 20.3462 7.40771 20.4816 7.47542 20.6144C7.81656 21.2967 8.26709 21.9165 8.80354 22.453C8.98324 22.6327 9.17335 22.8019 9.36866 22.9608C9.56658 23.1196 9.77229 23.2681 9.98584 23.4061C11.0848 24.1066 12.3947 24.5155 13.7983 24.5155H13.8009C14.7749 24.5155 15.7046 24.3176 16.5509 23.9608C16.689 23.9035 16.8244 23.841 16.9572 23.7733C17.6395 23.4321 18.2593 22.9816 18.7957 22.4452C18.9754 22.2655 19.1473 22.0754 19.3035 21.8801C19.4624 21.6821 19.6108 21.4764 19.7488 21.2629C20.3348 20.3514 20.715 19.2993 20.8296 18.1665L22.6837 17.8801C22.6317 18.9504 22.3921 19.9712 21.9962 20.9113C21.9233 21.0832 21.8452 21.2551 21.7593 21.4217C21.3296 22.2837 20.7619 23.065 20.09 23.7368L20.0848 23.742C19.8608 23.966 19.6238 24.1769 19.3791 24.3775C19.1317 24.578 18.8712 24.7655 18.603 24.9373C17.2176 25.8254 15.5692 26.3436 13.8035 26.3436C12.577 26.3436 11.4051 26.0936 10.3426 25.6457C10.1707 25.5728 9.99887 25.4946 9.8322 25.4087C8.97022 24.979 8.18896 24.4113 7.51709 23.7394L7.51188 23.7316C7.28792 23.5077 7.07699 23.2733 6.87907 23.0259C6.67855 22.7785 6.49104 22.5181 6.31917 22.2498C5.42854 20.8644 4.91292 19.2186 4.91292 17.4504V17.4478C4.91292 16.2212 5.16292 15.0493 5.61344 13.9868C5.68636 13.8149 5.76448 13.6431 5.85042 13.4764C6.28011 12.6144 6.84781 11.8332 7.51969 11.1613L7.5249 11.1561C7.74886 10.9321 7.98323 10.7212 8.23063 10.5233C8.47802 10.3228 8.73844 10.1353 9.00667 9.96338C10.3843 9.07275 12.0327 8.55713 13.7983 8.55713Z" fill="#FF854C"/>
</g>
</svg>
