<svg width="62" height="33" viewBox="0 0 62 33" fill="none" xmlns="http://www.w3.org/2000/svg">
<mask id="mask0_1_1196" style="mask-type:luminance" maskUnits="userSpaceOnUse" x="0" y="0" width="62" height="33">
<path d="M61.4717 0.509277H0.689453V32.5093H61.4717V0.509277Z" fill="white"/>
</mask>
<g mask="url(#mask0_1_1196)">
<path opacity="0.45" d="M32.2353 16.4519C32.2353 25.0836 25.2376 32.0805 16.6051 32.0805C7.97407 32.0805 0.976562 25.0831 0.976562 16.4519C0.976562 7.81944 7.97453 0.821777 16.6051 0.821777C25.2373 0.821777 32.2353 7.81913 32.2353 16.4519Z" fill="white"/>
<path d="M42.1609 4.05322C40.9356 4.05322 40.0685 4.7615 40.0685 5.81995C40.0685 6.78268 40.7849 7.20426 41.5964 7.45131C42.2005 7.63449 42.5599 7.74541 42.5599 8.13574C42.5599 8.46233 42.3116 8.63736 41.8978 8.63736C41.3494 8.63736 40.8726 8.3267 40.5848 7.98492L39.8128 9.05079C40.1562 9.42506 40.9517 9.86294 41.9781 9.86294C43.3715 9.86294 44.1422 9.05894 44.1422 7.98492C44.1422 6.95808 43.4419 6.54391 42.5352 6.25759C42.0732 6.11406 41.652 6.01882 41.652 5.66889C41.652 5.44618 41.8274 5.27881 42.2412 5.27881C42.718 5.27881 43.1084 5.50189 43.3381 5.76425L44.0632 4.69739C43.658 4.31558 43.012 4.05322 42.1609 4.05322ZM46.2915 4.16452L44.2151 9.7514H45.8382L46.0926 8.94752H48.2011L48.4643 9.7514H50.1281L48.0505 4.16452H46.2915ZM34.4482 4.16476V7.72194C34.4482 9.09884 35.2845 9.86294 36.915 9.86294C38.4998 9.86294 39.3829 9.09884 39.3829 7.72194V4.16476H37.7833V7.26071C37.7833 7.87313 37.7191 8.47036 36.915 8.47036C36.1121 8.47036 36.0478 7.87313 36.0478 7.26071V4.16476H34.4482ZM47.1277 5.49336H47.1747C47.2068 5.73213 47.2784 6.06687 47.3661 6.32923L47.796 7.67426H46.5064L46.9363 6.32923C47.024 6.06687 47.0956 5.73213 47.1277 5.49336ZM42.0016 10.7535C39.924 10.7535 38.937 12.2897 38.937 13.6663C38.937 15.0349 39.924 16.5629 42.0016 16.5629C44.0866 16.5629 45.0748 15.0349 45.0748 13.6663C45.0748 12.2897 44.0866 10.7535 42.0016 10.7535ZM34.4729 10.8648V12.1621H35.849V16.4517H37.4486V12.1621H38.8246V10.8648H34.4729ZM52.6677 10.8648L50.5901 16.4517H52.2131L52.4676 15.6476H54.5773L54.8404 16.4517H56.503L54.4254 10.8648H52.6677ZM55.4062 10.8648L57.4912 14.4618V16.4517H59.1773V14.4618L61.2636 10.8648H59.5602L58.8043 12.2416C58.6449 12.536 58.4213 12.982 58.3744 13.276H58.3423C58.2953 12.982 58.0718 12.536 57.9124 12.2416L57.1565 10.8648H55.4062ZM45.648 10.8651V16.4517H47.7083C49.6501 16.4517 50.8124 15.3697 50.8124 13.6589C50.8124 11.9154 49.6822 10.8651 47.7083 10.8651H45.648ZM41.9942 12.1464C42.7748 12.1464 43.4258 12.6637 43.4258 13.6663C43.4258 14.6607 42.7748 15.1708 41.9942 15.1708C41.2296 15.1708 40.5774 14.6607 40.5774 13.6663C40.5774 12.6637 41.2296 12.1464 41.9942 12.1464ZM47.2476 12.1543H47.5897C48.6162 12.1543 49.1646 12.6476 49.1646 13.6589C49.1646 14.6693 48.6162 15.1621 47.5897 15.1621H47.2476V12.1543ZM53.5027 12.1934H53.5509C53.583 12.4327 53.6546 12.7668 53.7423 13.0302L54.1722 14.3753H52.8826L53.3125 13.0302C53.3989 12.7668 53.4706 12.4327 53.5027 12.1934ZM40.6169 18.6949L40.5774 18.7023V20.1364H40.8195V19.2297L41.7051 20.1635L41.7323 20.1586V18.722H41.4902V19.6151L40.6169 18.6949ZM42.2523 18.6949L42.2141 18.7023V20.1364H42.4562V19.2297L43.3418 20.1635L43.369 20.1586V18.722H43.1269V19.6151L42.2523 18.6949ZM56.6661 18.6949L56.6266 18.7023V20.1364H56.8687V19.2297L57.7543 20.1635L57.7815 20.1586V18.722H57.5406V19.6151L56.6661 18.6949ZM38.0711 18.6973C37.6722 18.6973 37.3201 18.9901 37.3201 19.4298C37.3201 19.8659 37.6672 20.1598 38.0711 20.1598C38.2836 20.1598 38.4479 20.1043 38.5986 20.0054V19.3878H38.0365V19.599H38.3676V19.8782C38.2836 19.9239 38.2033 19.9461 38.081 19.9461C37.8006 19.9461 37.5783 19.7312 37.5783 19.4298C37.5783 19.1482 37.7611 18.9209 38.0822 18.9209C38.2132 18.9209 38.3491 18.9641 38.4627 19.0383L38.5726 18.8456C38.4281 18.7554 38.2799 18.6973 38.0711 18.6973ZM49.4994 18.6986C49.0559 18.6986 48.7372 19.0111 48.7372 19.4298C48.7372 19.851 49.0522 20.1598 49.4994 20.1598C49.6748 20.1598 49.844 20.1018 49.9613 20.0264L49.8885 19.8214C49.7748 19.8893 49.6278 19.9338 49.5018 19.9338C49.1906 19.9338 48.9966 19.7275 48.9966 19.4298C48.9966 19.1309 49.1856 18.9246 49.4969 18.9246C49.6216 18.9246 49.76 18.9679 49.8724 19.0321L49.9564 18.827C49.8353 18.7542 49.6748 18.6986 49.4994 18.6986ZM50.9495 18.6986C50.5407 18.6986 50.2269 19.0098 50.2269 19.4298C50.2269 19.8486 50.5271 20.1598 50.9359 20.1598C51.346 20.1598 51.6585 19.8486 51.6585 19.4298C51.6585 19.0098 51.3596 18.6986 50.9495 18.6986ZM52.0723 18.701L52.0365 18.7035L51.976 20.1364H52.2144L52.2292 19.2878L52.6788 19.9647H52.7085L53.1544 19.289L53.1741 20.1364H53.4113L53.352 18.7035L53.3125 18.701L52.6998 19.6386L52.0723 18.701ZM35.7069 18.7023L35.0547 20.1364H35.303L35.4401 19.8127H35.9997L36.1368 20.1364H36.3925L35.7415 18.7023H35.7069ZM39.5262 18.7023L38.874 20.1364H39.1223L39.2606 19.8127H39.819L39.9573 20.1364H40.2105L39.5608 18.7023H39.5262ZM55.5754 18.7023L54.922 20.1364H55.1715L55.3086 19.8127H55.8694L56.0053 20.1364H56.2609L55.61 18.7023H55.5754ZM54.2401 18.7122C54.124 18.7122 54.0067 18.7196 53.8819 18.7356V20.1364H54.1228V19.6756C54.1685 19.6781 54.2179 19.6818 54.2636 19.6818C54.6255 19.6818 54.8269 19.4768 54.8269 19.189C54.8269 18.9234 54.6292 18.7122 54.2401 18.7122ZM43.8507 18.722V20.1364H44.7141V19.9165H44.0928V19.5249H44.6536V19.3112H44.0928V18.9407H44.7141V18.722H43.8507ZM45.0847 18.722V18.9419H45.5343V20.1364H45.7764V18.9419H46.2236V18.722H45.0847ZM46.5138 18.722V18.9419H46.9635V20.1364H47.2056V18.9419H47.6539V18.722H46.5138ZM58.1212 18.722L58.619 19.541V20.1364H58.8611V19.5422L59.3589 18.722H59.0884L58.7437 19.3199L58.3979 18.722H58.1212ZM50.9433 18.9147C51.2126 18.9147 51.3991 19.1346 51.3991 19.4298C51.3991 19.7238 51.2126 19.9449 50.9433 19.9449C50.6741 19.9449 50.4863 19.7238 50.4863 19.4298C50.4863 19.1346 50.6741 18.9147 50.9433 18.9147ZM54.2809 18.9345C54.4785 18.9345 54.5761 19.0568 54.5761 19.1964C54.5761 19.3569 54.4761 19.4706 54.2574 19.4706C54.2154 19.4706 54.171 19.4669 54.1228 19.4632V18.9456C54.1722 18.9382 54.2265 18.9345 54.2809 18.9345ZM35.7205 19.1482L35.9206 19.6213H35.5192L35.7205 19.1482ZM39.5398 19.1482L39.7411 19.6213H39.3385L39.5398 19.1482ZM55.589 19.1482L55.7891 19.6213H55.3876L55.589 19.1482Z" fill="white"/>
</g>
</svg>
