<svg width="24" height="24" viewBox="0 0 24 24" fill="none" xmlns="http://www.w3.org/2000/svg">
<mask id="mask0_1_1351" style="mask-type:luminance" maskUnits="userSpaceOnUse" x="0" y="0" width="24" height="24">
<path d="M23.52 0.470703H0.479996V23.5107H23.52V0.470703Z" fill="white"/>
</mask>
<g mask="url(#mask0_1_1351)">
<path d="M18.7216 1.71582H11.5412C11.0867 1.71582 10.6502 1.89674 10.3287 2.21829L0.982258 11.563C0.312575 12.2327 0.312575 13.3183 0.982258 13.9888L8.16273 21.1693C8.83241 21.8389 9.91795 21.8389 10.5876 21.1693L19.9341 11.8245C20.2556 11.5021 20.4366 11.0657 20.4366 10.6104V3.43076C20.4366 2.48325 19.6691 1.71582 18.7216 1.71582ZM15.7205 7.71812C15.0105 7.71812 14.4343 7.1419 14.4343 6.43192C14.4343 5.72193 15.0105 5.14571 15.7205 5.14571C16.4305 5.14571 17.0067 5.72193 17.0067 6.43192C17.0067 7.1419 16.4305 7.71812 15.7205 7.71812Z" fill="#FF854C"/>
<path d="M22.1515 3.42969L22.1507 11.4119C22.1507 11.8072 21.9937 12.187 21.7134 12.4666L12.216 21.964L12.3617 22.1097C13.0314 22.7794 14.117 22.7794 14.7867 22.1097L23.3631 13.535C23.6855 13.2135 23.8665 12.7769 23.8665 12.3225V5.14462C23.8665 4.19712 23.099 3.42969 22.1515 3.42969Z" fill="#FF854C"/>
</g>
</svg>
