<svg width="24" height="24" viewBox="0 0 24 24" fill="none" xmlns="http://www.w3.org/2000/svg">
<mask id="mask0_1_552" style="mask-type:luminance" maskUnits="userSpaceOnUse" x="0" y="0" width="24" height="24">
<path d="M23.52 0.470581H0.479996V23.5106H23.52V0.470581Z" fill="white"/>
</mask>
<g mask="url(#mask0_1_552)">
<path d="M18.7216 1.71558H11.5412C11.0867 1.71558 10.6502 1.8965 10.3287 2.21805L0.982258 11.5628C0.312575 12.2325 0.312575 13.318 0.982258 13.9886L8.16273 21.169C8.83241 21.8387 9.91795 21.8387 10.5876 21.169L19.9341 11.8243C20.2556 11.5019 20.4366 11.0655 20.4366 10.6102V3.43052C20.4366 2.48301 19.6691 1.71558 18.7216 1.71558ZM15.7205 7.71788C15.0105 7.71788 14.4343 7.14166 14.4343 6.43167C14.4343 5.72168 15.0105 5.14546 15.7205 5.14546C16.4305 5.14546 17.0067 5.72168 17.0067 6.43167C17.0067 7.14166 16.4305 7.71788 15.7205 7.71788Z" fill="#FF854C"/>
<path d="M22.1515 3.42932L22.1507 11.4116C22.1507 11.8068 21.9937 12.1867 21.7134 12.4662L12.216 21.9636L12.3617 22.1093C13.0314 22.779 14.117 22.779 14.7867 22.1093L23.3631 13.5346C23.6855 13.2131 23.8665 12.7766 23.8665 12.3221V5.14426C23.8665 4.19676 23.099 3.42932 22.1515 3.42932Z" fill="#FF854C"/>
</g>
</svg>
