<svg width="108" height="22" viewBox="0 0 108 22" fill="none" xmlns="http://www.w3.org/2000/svg">
<mask id="mask0_1_1219" style="mask-type:luminance" maskUnits="userSpaceOnUse" x="0" y="0" width="108" height="23">
<path d="M107.557 0.00927734H0.342773V22.0093H107.557V0.00927734Z" fill="white"/>
</mask>
<g mask="url(#mask0_1_1219)">
<g opacity="0.6">
<path d="M11.0622 21.7248L12.9905 2.5817C13.0621 1.58146 13.276 1.43872 13.6331 1.43872H13.8475V0.368393H10.7051V1.43872H10.9194C11.3482 1.43872 11.562 1.72421 11.4909 2.5817L10.3474 14.0104L9.0617 2.5817C8.91896 1.65309 9.13333 1.43872 9.63319 1.43872H9.70482V0.368393H5.3478V1.43872H5.56217C5.99091 1.43872 5.99091 1.58146 6.06203 2.5817L6.42017 5.51025L5.3478 14.7963L4.20482 2.5817C4.06207 1.58146 4.27645 1.43872 4.70468 1.43872H4.77631V0.368393H0.347656V1.43872H0.562028C1.06189 1.43872 1.06189 1.58146 1.13352 2.5817L3.13347 21.7248H5.9904L7.13338 11.8677L8.20473 21.7248H11.0622ZM29.4905 9.15304C29.4905 7.7957 29.4905 7.36746 30.3475 7.36746C30.919 7.36746 30.919 7.58184 30.919 8.72481V20.153C30.919 20.5818 30.7762 20.6529 30.5608 20.6529H30.4181V21.7243H34.7751V20.6529H34.5607C34.2752 20.6529 34.2026 20.5102 34.2026 20.0814V8.0817C34.2026 6.08174 33.7738 5.36751 31.8455 5.36751C31.3218 5.31059 30.7945 5.43572 30.3522 5.72186C29.9099 6.008 29.5796 6.4377 29.4168 6.93872C29.2024 5.86737 28.631 5.36751 27.1309 5.36751C25.9168 5.36751 25.2737 5.72565 24.7738 6.93872V5.36751L20.9877 5.653V6.72435H21.1305C21.3449 6.72435 21.5592 6.93872 21.5592 7.51021V20.0103C21.5592 20.5102 21.4165 20.6529 21.1305 20.6529H20.9877V21.7243H25.202V20.6529H25.0593C24.8449 20.6529 24.7738 20.5813 24.7738 20.2242V9.15304C24.7738 7.7957 24.7738 7.36746 25.5597 7.36746C26.1311 7.36746 26.1311 7.58184 26.1311 8.72481V20.153C26.1311 20.5818 25.9884 20.6529 25.773 20.6529H25.5586V21.7243H29.8445V20.6529H29.7729C29.4874 20.6529 29.3442 20.5102 29.3442 20.0814V9.15304H29.4905ZM59.6336 21.7243H64.9192V20.6529H64.5611C64.1323 20.6529 63.9896 20.4385 63.9896 19.5099V11.2246H66.7754V19.4388C66.7754 20.3674 66.6326 20.5818 66.2039 20.5818H65.7751V21.6521H70.9897V20.5818H70.5609C70.1322 20.5818 69.9894 20.3674 69.9894 19.4388V2.5817C69.9894 1.58146 70.0611 1.43872 70.5609 1.43872H70.9897V0.368393H65.7762V1.43872H66.2049C66.6337 1.43872 66.7764 1.58146 66.7764 2.5817V10.01H63.9195V2.5817C63.9195 1.58146 64.0622 1.43872 64.5621 1.43872H64.9202V0.368393H59.6336V1.43872H60.0623C60.4911 1.43872 60.6338 1.58146 60.6338 2.5817V20.0103C60.6338 20.439 60.4911 20.5818 60.0623 20.5818H59.6336V21.7243ZM98.4191 21.7243H102.563V20.6529H102.417C102.132 20.6529 102.132 20.5813 102.132 20.2242V9.15304C102.132 7.7957 102.132 7.36746 102.989 7.36746C103.632 7.36746 103.632 7.58184 103.632 8.72481V20.153C103.632 20.5818 103.489 20.6529 103.346 20.6529H103.134V21.7243H107.562V20.6529H107.348C107.062 20.6529 106.99 20.5102 106.99 20.0814V8.0817C106.99 6.08174 106.49 5.36751 104.561 5.36751C103.275 5.36751 102.561 5.72565 102.061 6.93872V0.0102539L98.0614 0.368393V1.43872H98.4902C98.7757 1.43872 98.9189 1.58146 98.9189 2.22458V20.0103C98.9189 20.5102 98.8473 20.6529 98.4902 20.6529H98.3474V21.7243H98.4191ZM16.776 21.9386C20.2761 21.9386 20.7759 19.0101 20.7759 13.6528C20.7759 8.29556 20.2761 5.367 16.776 5.367C13.276 5.367 12.7761 8.22393 12.7761 13.6528C12.7761 19.0101 13.276 21.9386 16.776 21.9386ZM42.7759 21.7243H46.9902V20.6529H46.7758C46.5615 20.6529 46.5615 20.5813 46.5615 20.2242V9.15304C46.5615 7.7957 46.5615 7.36746 47.4184 7.36746C47.9899 7.36746 48.0616 7.58184 48.0616 8.72481V20.153C48.0616 20.5818 47.9188 20.6529 47.7034 20.6529H47.4891V21.7243H51.9198V20.6529H51.777C51.4915 20.6529 51.4189 20.5102 51.4189 20.0814V8.0817C51.4189 6.08174 50.9901 5.36751 48.9902 5.36751C47.7761 5.36751 46.9902 5.72565 46.5615 6.93872V5.36751L42.4899 5.653V6.72435H42.9187C43.1331 6.72435 43.3474 6.93872 43.3474 7.51021V20.0103C43.3474 20.5102 43.2047 20.6529 42.9187 20.6529H42.7759V21.7243ZM80.9193 22.0103C82.3478 22.0103 82.9193 21.294 83.2053 20.439C83.4908 21.7248 83.7768 22.0103 85.4196 22.0103C87.3479 22.0103 87.5623 20.8673 87.5623 18.653H86.6337C86.6337 20.2958 86.6337 20.4385 86.2756 20.4385C85.9901 20.4385 85.9901 20.2958 85.9901 19.3672V8.72532C85.9901 6.58263 85.2738 5.43965 82.776 5.43965C80.7761 5.43965 78.8472 6.01114 78.9189 8.22546C78.9905 9.2257 79.3476 10.2254 80.419 10.1538C81.3476 10.0822 81.7763 9.5823 81.7763 8.79644C81.7368 8.41943 81.6216 8.05428 81.4375 7.72292C81.2534 7.39155 81.0042 7.1008 80.705 6.86811C81.1081 6.68786 81.5508 6.61405 81.9907 6.65374C82.707 6.65374 82.8477 7.22523 82.8477 8.22495V11.2251C79.2049 12.4392 78.4906 12.9396 78.4906 17.511C78.4906 20.725 79.3476 22.0133 80.9193 22.0133V22.0103ZM74.7051 22.0103C77.4193 22.0103 78.0624 21.2244 77.9192 16.7246H76.7762C76.7762 20.2963 76.6334 20.5107 75.4188 20.5107C73.9187 20.5107 73.9187 19.8681 73.9187 13.7966V13.2967H78.2757C78.2757 7.15411 77.5595 5.43965 74.7041 5.43965C72.061 5.43965 70.7042 7.08249 70.7042 13.7966C70.7047 20.2247 71.7765 22.0103 74.7051 22.0103ZM38.9909 21.9386C41.634 21.9386 42.3482 21.1528 42.2766 16.653H41.1336C41.1336 20.2247 40.9909 20.439 39.7051 20.439C38.0623 20.439 38.2051 19.7964 38.2051 13.725V13.2251H42.4193C42.4193 7.08249 41.8478 5.36802 38.9914 5.36802C36.3484 5.36802 34.9915 7.01086 34.9915 13.725C34.9915 20.2226 36.0624 21.9386 38.9909 21.9386ZM87.7767 21.7243H92.1337V20.6529H91.7756C91.4901 20.6529 91.4174 20.5102 91.4174 20.0814V0.0102539L87.3459 0.368393V1.43872H87.7746C88.0601 1.43872 88.1328 1.58146 88.1328 2.01021V20.153C88.1328 20.5818 88.1328 20.6529 87.9184 20.6529H87.704V21.7243H87.7767ZM56.4911 21.9386C58.4911 21.9386 59.4913 20.6529 59.4913 18.653C59.4913 14.0099 55.3471 11.3674 55.3471 8.0817C55.3471 7.08146 55.7053 6.79597 56.4185 6.79597C57.4898 6.79597 57.6326 7.22472 57.7758 8.79593L57.9186 10.296H59.1337V5.51025H58.2051C58.1335 6.08174 57.9907 6.29611 57.9907 6.22653C57.707 5.9301 57.3616 5.69967 56.979 5.55157C56.5963 5.40348 56.1857 5.34134 55.7764 5.36956C54.0619 5.36956 52.4907 6.15542 52.4907 8.72686C52.4907 12.7984 56.6349 15.8697 56.6349 18.941C56.6349 20.2983 56.3494 20.5122 55.3492 20.5122C54.4206 20.5122 54.1351 20.0835 53.9918 18.0835L53.9202 16.7262H52.6345V21.7263H53.7058C53.7775 21.1548 53.9913 20.7977 54.1346 21.01C54.4927 21.3682 54.9199 21.9386 56.4911 21.9386ZM92.85 18.3675C92.85 20.9389 93.2081 21.9391 95.7785 21.9391C97.5641 21.9391 97.9929 21.2229 97.9929 19.225V16.5103H96.9215V19.3672C96.9215 20.2958 96.8499 20.4385 96.4928 20.4385C96.1357 20.4385 96.064 20.2958 96.064 19.5099V6.72435H98.064V5.51025H96.064V1.43872H94.9211C94.1352 5.08151 93.421 5.51025 92.3496 5.51025H92.0641V6.72435H92.7804V18.3675H92.85ZM16.776 20.5102C15.9902 20.5102 15.9902 20.0814 15.9902 13.6543C15.9902 7.15667 15.9902 6.72588 16.776 6.72588C17.4923 6.72588 17.4923 7.15463 17.4923 13.5817C17.4923 20.0794 17.4923 20.5102 16.776 20.5102ZM52.1331 6.22449C54.8473 4.22453 55.4188 2.65281 54.4902 1.29597C54.0619 0.510114 52.919 0.0102539 52.1336 0.726533C51.1334 1.51239 51.4173 2.94086 53.205 3.7963C52.8468 4.15444 52.1336 4.93928 51.4905 5.51077L52.1331 6.22449ZM82.2762 19.9387C81.633 19.9387 81.6331 19.2224 81.6331 17.0817C81.6331 13.153 81.6331 12.6531 82.9188 11.9389V18.653C82.9188 19.7243 82.776 19.9387 82.2762 19.9387ZM38.2045 12.0084C38.2762 6.93718 38.3473 6.65118 39.0615 6.65118C39.7757 6.65118 39.7041 6.93667 39.7041 12.0084H38.2045ZM73.9187 12.0084C73.9904 6.93718 74.0615 6.65118 74.7757 6.65118C75.4899 6.65118 75.3472 6.93667 75.3472 12.0084H73.9187Z" fill="white"/>
</g>
</g>
</svg>
