<svg width="16" height="17" viewBox="0 0 16 17" fill="none" xmlns="http://www.w3.org/2000/svg">
<mask id="mask0_15_29" style="mask-type:luminance" maskUnits="userSpaceOnUse" x="0" y="0" width="16" height="17">
<path d="M16 0.766602H0V16.7666H16V0.766602Z" fill="white"/>
</mask>
<g mask="url(#mask0_15_29)">
<path d="M6.01351 8.4335L7.34684 9.76684L10.3469 6.76684M13.3469 8.76684C13.3469 12.0391 9.77756 14.4191 8.47884 15.1767C8.33124 15.2628 8.25744 15.3059 8.1533 15.3282C8.07247 15.3455 7.95455 15.3455 7.87372 15.3282C7.76957 15.3059 7.69578 15.2628 7.54818 15.1767C6.24948 14.4191 2.68018 12.0391 2.68018 8.76684V5.57857C2.68018 5.04556 2.68018 4.77906 2.76735 4.54997C2.84436 4.3476 2.9695 4.16702 3.13195 4.02386C3.31584 3.86179 3.56537 3.76822 4.06445 3.58107L7.63898 2.24062C7.77757 2.18864 7.84687 2.16266 7.91816 2.15236C7.9814 2.14322 8.04562 2.14322 8.10885 2.15236C8.18014 2.16266 8.24944 2.18864 8.38804 2.24062L11.9626 3.58107C12.4617 3.76822 12.7112 3.86179 12.8951 4.02386C13.0576 4.16702 13.1827 4.3476 13.2597 4.54997C13.3469 4.77906 13.3469 5.04556 13.3469 5.57857V8.76684Z" stroke="#03BF5A" stroke-width="1.5" stroke-linecap="round" stroke-linejoin="round"/>
</g>
</svg>
