<svg width="109" height="23" viewBox="0 0 109 23" fill="none" xmlns="http://www.w3.org/2000/svg">
<mask id="mask0_9_1602" style="mask-type:luminance" maskUnits="userSpaceOnUse" x="1" y="0" width="108" height="23">
<path d="M108.445 0.906738H1.23096V22.9067H108.445V0.906738Z" fill="white"/>
</mask>
<g mask="url(#mask0_9_1602)">
<g opacity="0.6">
<path d="M11.9504 22.6223L13.8787 3.47916C13.9503 2.47892 14.1642 2.33618 14.5213 2.33618H14.7357V1.26585H11.5933V2.33618H11.8076C12.2364 2.33618 12.4502 2.62167 12.3791 3.47916L11.2356 14.9079L9.94988 3.47916C9.80714 2.55055 10.0215 2.33618 10.5214 2.33618H10.593V1.26585H6.23598V2.33618H6.45035C6.87909 2.33618 6.87909 2.47892 6.95021 3.47916L7.30835 6.40771L6.23598 15.6938L5.093 3.47916C4.95025 2.47892 5.16463 2.33618 5.59286 2.33618H5.66449V1.26585H1.23584V2.33618H1.45021C1.95007 2.33618 1.95007 2.47892 2.0217 3.47916L4.02165 22.6223H6.87858L8.02156 12.7652L9.09291 22.6223H11.9504ZM30.3787 10.0505C30.3787 8.69316 30.3787 8.26492 31.2357 8.26492C31.8072 8.26492 31.8072 8.4793 31.8072 9.62227V21.0505C31.8072 21.4793 31.6644 21.5504 31.449 21.5504H31.3063V22.6218H35.6633V21.5504H35.4489C35.1634 21.5504 35.0908 21.4077 35.0908 20.9789V8.97916C35.0908 6.9792 34.662 6.26497 32.7337 6.26497C32.21 6.20805 31.6827 6.33318 31.2404 6.61932C30.7981 6.90546 30.4678 7.33516 30.305 7.83618C30.0906 6.76483 29.5192 6.26497 28.0191 6.26497C26.805 6.26497 26.1619 6.62311 25.662 7.83618V6.26497L21.8759 6.55046V7.62181H22.0187C22.2331 7.62181 22.4474 7.83618 22.4474 8.40767V20.9078C22.4474 21.4077 22.3047 21.5504 22.0187 21.5504H21.8759V22.6218H26.0902V21.5504H25.9475C25.7331 21.5504 25.662 21.4788 25.662 21.1217V10.0505C25.662 8.69316 25.662 8.26492 26.4479 8.26492C27.0193 8.26492 27.0193 8.4793 27.0193 9.62227V21.0505C27.0193 21.4793 26.8766 21.5504 26.6612 21.5504H26.4468V22.6218H30.7327V21.5504H30.6611C30.3756 21.5504 30.2324 21.4077 30.2324 20.9789V10.0505H30.3787ZM60.5218 22.6218H65.8074V21.5504H65.4493C65.0205 21.5504 64.8778 21.336 64.8778 20.4074V12.1221H67.6636V20.3363C67.6636 21.2649 67.5208 21.4793 67.0921 21.4793H66.6633V22.5496H71.8779V21.4793H71.4491C71.0204 21.4793 70.8776 21.2649 70.8776 20.3363V3.47916C70.8776 2.47892 70.9493 2.33618 71.4491 2.33618H71.8779V1.26585H66.6644V2.33618H67.0931C67.5219 2.33618 67.6646 2.47892 67.6646 3.47916V10.9075H64.8077V3.47916C64.8077 2.47892 64.9504 2.33618 65.4503 2.33618H65.8084V1.26585H60.5218V2.33618H60.9505C61.3793 2.33618 61.522 2.47892 61.522 3.47916V20.9078C61.522 21.3365 61.3793 21.4793 60.9505 21.4793H60.5218V22.6218ZM99.3073 22.6218H103.451V21.5504H103.305C103.02 21.5504 103.02 21.4788 103.02 21.1217V10.0505C103.02 8.69316 103.02 8.26492 103.877 8.26492C104.52 8.26492 104.52 8.4793 104.52 9.62227V21.0505C104.52 21.4793 104.377 21.5504 104.234 21.5504H104.022V22.6218H108.45V21.5504H108.236C107.95 21.5504 107.878 21.4077 107.878 20.9789V8.97916C107.878 6.9792 107.378 6.26497 105.449 6.26497C104.163 6.26497 103.449 6.62311 102.949 7.83618V0.907715L98.9496 1.26585V2.33618H99.3784C99.6639 2.33618 99.8071 2.47892 99.8071 3.12204V20.9078C99.8071 21.4077 99.7355 21.5504 99.3784 21.5504H99.2356V22.6218H99.3073ZM17.6642 22.8361C21.1643 22.8361 21.6641 19.9076 21.6641 14.5503C21.6641 9.19302 21.1643 6.26446 17.6642 6.26446C14.1642 6.26446 13.6643 9.12139 13.6643 14.5503C13.6643 19.9076 14.1642 22.8361 17.6642 22.8361ZM43.6641 22.6218H47.8784V21.5504H47.664C47.4497 21.5504 47.4497 21.4788 47.4497 21.1217V10.0505C47.4497 8.69316 47.4497 8.26492 48.3066 8.26492C48.8781 8.26492 48.9498 8.4793 48.9498 9.62227V21.0505C48.9498 21.4793 48.807 21.5504 48.5916 21.5504H48.3773V22.6218H52.808V21.5504H52.6652C52.3797 21.5504 52.3071 21.4077 52.3071 20.9789V8.97916C52.3071 6.9792 51.8783 6.26497 49.8784 6.26497C48.6643 6.26497 47.8784 6.62311 47.4497 7.83618V6.26497L43.3781 6.55046V7.62181H43.8069C44.0213 7.62181 44.2356 7.83618 44.2356 8.40767V20.9078C44.2356 21.4077 44.0929 21.5504 43.8069 21.5504H43.6641V22.6218ZM81.8075 22.9078C83.236 22.9078 83.8075 22.1915 84.0935 21.3365C84.379 22.6223 84.665 22.9078 86.3078 22.9078C88.2361 22.9078 88.4505 21.7648 88.4505 19.5505H87.5219C87.5219 21.1933 87.5219 21.336 87.1638 21.336C86.8783 21.336 86.8783 21.1933 86.8783 20.2647V9.62278C86.8783 7.48009 86.162 6.33711 83.6642 6.33711C81.6643 6.33711 79.7354 6.9086 79.8071 9.12292C79.8787 10.1232 80.2358 11.1229 81.3072 11.0513C82.2358 10.9797 82.6645 10.4798 82.6645 9.6939C82.625 9.31689 82.5098 8.95174 82.3257 8.62038C82.1416 8.28901 81.8924 7.99826 81.5932 7.76557C81.9963 7.58532 82.439 7.51151 82.8789 7.5512C83.5952 7.5512 83.7359 8.12269 83.7359 9.12241V12.1226C80.0931 13.3367 79.3788 13.8371 79.3788 18.4085C79.3788 21.6225 80.2358 22.9108 81.8075 22.9108V22.9078ZM75.5933 22.9078C78.3075 22.9078 78.9506 22.1219 78.8074 17.6221H77.6644C77.6644 21.1938 77.5216 21.4082 76.307 21.4082C74.8069 21.4082 74.8069 20.7656 74.8069 14.6941V14.1942H79.1639C79.1639 8.05157 78.4477 6.33711 75.5923 6.33711C72.9492 6.33711 71.5924 7.97995 71.5924 14.6941C71.5929 21.1222 72.6647 22.9078 75.5933 22.9078ZM39.8791 22.8361C42.5222 22.8361 43.2364 22.0503 43.1648 17.5505H42.0218C42.0218 21.1222 41.8791 21.3365 40.5933 21.3365C38.9505 21.3365 39.0933 20.6939 39.0933 14.6225V14.1226H43.3075C43.3075 7.97995 42.736 6.26548 39.8796 6.26548C37.2366 6.26548 35.8797 7.90832 35.8797 14.6225C35.8797 21.1201 36.9506 22.8361 39.8791 22.8361ZM88.6649 22.6218H93.0219V21.5504H92.6638C92.3783 21.5504 92.3056 21.4077 92.3056 20.9789V0.907715L88.2341 1.26585V2.33618H88.6628C88.9483 2.33618 89.021 2.47892 89.021 2.90767V21.0505C89.021 21.4793 89.021 21.5504 88.8066 21.5504H88.5922V22.6218H88.6649ZM57.3793 22.8361C59.3793 22.8361 60.3795 21.5504 60.3795 19.5505C60.3795 14.9074 56.2353 12.2649 56.2353 8.97916C56.2353 7.97892 56.5935 7.69343 57.3067 7.69343C58.378 7.69343 58.5208 8.12218 58.664 9.69339L58.8068 11.1935H60.0219V6.40771H59.0933C59.0217 6.9792 58.8789 7.19357 58.8789 7.12399C58.5952 6.82756 58.2498 6.59713 57.8672 6.44903C57.4845 6.30094 57.0739 6.2388 56.6646 6.26702C54.9501 6.26702 53.3789 7.05288 53.3789 9.62432C53.3789 13.6959 57.5231 16.7672 57.5231 19.8385C57.5231 21.1958 57.2376 21.4097 56.2374 21.4097C55.3088 21.4097 55.0233 20.981 54.88 18.981L54.8084 17.6237H53.5227V22.6238H54.594C54.6657 22.0523 54.8795 21.6952 55.0228 21.9075C55.3809 22.2657 55.8081 22.8361 57.3793 22.8361ZM93.7382 19.265C93.7382 21.8364 94.0963 22.8366 96.6667 22.8366C98.4523 22.8366 98.8811 22.1204 98.8811 20.1225V17.4078H97.8097V20.2647C97.8097 21.1933 97.7381 21.336 97.381 21.336C97.0239 21.336 96.9522 21.1933 96.9522 20.4074V7.62181H98.9522V6.40771H96.9522V2.33618H95.8093C95.0234 5.97897 94.3092 6.40771 93.2378 6.40771H92.9523V7.62181H93.6686V19.265H93.7382ZM17.6642 21.4077C16.8784 21.4077 16.8784 20.9789 16.8784 14.5518C16.8784 8.05413 16.8784 7.62334 17.6642 7.62334C18.3805 7.62334 18.3805 8.05209 18.3805 14.4792C18.3805 20.9769 18.3805 21.4077 17.6642 21.4077ZM53.0213 7.12195C55.7355 5.12199 56.307 3.55027 55.3784 2.19343C54.9501 1.40757 53.8072 0.907715 53.0218 1.62399C52.0216 2.40985 52.3055 3.83832 54.0932 4.69376C53.735 5.0519 53.0218 5.83674 52.3787 6.40823L53.0213 7.12195ZM83.1644 20.8362C82.5212 20.8362 82.5213 20.1199 82.5213 17.9792C82.5213 14.0505 82.5213 13.5506 83.807 12.8364V19.5505C83.807 20.6218 83.6642 20.8362 83.1644 20.8362ZM39.0927 12.9059C39.1644 7.83464 39.2355 7.54864 39.9497 7.54864C40.6639 7.54864 40.5923 7.83413 40.5923 12.9059H39.0927ZM74.8069 12.9059C74.8786 7.83464 74.9497 7.54864 75.6639 7.54864C76.3781 7.54864 76.2354 7.83413 76.2354 12.9059H74.8069Z" fill="white"/>
</g>
</g>
</svg>
