<svg width="31" height="22" viewBox="0 0 31 22" fill="none" xmlns="http://www.w3.org/2000/svg">
<path d="M26.8881 1.52783H4.88811C2.79402 1.52783 1.09644 3.22542 1.09644 5.3195V17.3195C1.09644 19.4135 2.79402 21.1111 4.88811 21.1111H26.8881C28.9821 21.1111 30.6797 19.4135 30.6797 17.3195V5.3195C30.6797 3.22542 28.9821 1.52783 26.8881 1.52783Z" fill="white" stroke="#DDDDDD" stroke-width="0.416667"/>
<path fill-rule="evenodd" clip-rule="evenodd" d="M26.6386 9.28854C27.5595 9.28854 28.0659 9.69955 28.0659 10.4759C28.1119 11.0696 27.6976 11.5719 27.1451 11.6633L28.3882 13.353H27.4213L26.3624 11.7089H26.2703V13.353H25.4876V9.28854H26.6386ZM26.2703 11.1609H26.5005C27.007 11.1609 27.2372 10.9326 27.2372 10.5216C27.2372 10.1562 27.007 9.9279 26.5005 9.9279H26.2703V11.1609ZM22.7713 13.353H24.9812V12.668H23.5539V11.5719H24.9352V10.8869H23.5539V9.97355H24.9812V9.28854H22.7713V13.353ZM20.4692 12.0286L19.4103 9.28854H18.5816L20.2851 13.4443H20.6994L22.4029 9.28854H21.5742L20.4692 12.0286ZM11.123 11.3437C11.123 12.4854 12.0438 13.4444 13.1948 13.4444C13.5632 13.4444 13.8854 13.3531 14.2077 13.2161V12.3027C13.9775 12.5767 13.6552 12.7594 13.2869 12.7594C12.5503 12.7594 11.9517 12.2114 11.9517 11.4807V11.3894C11.9057 10.6587 12.5042 10.0194 13.2409 9.97368C13.6092 9.97368 13.9775 10.1564 14.2077 10.4304V9.517C13.9315 9.33433 13.5632 9.28866 13.2409 9.28866C12.0438 9.19733 11.123 10.1564 11.123 11.3437ZM9.69573 10.8413C9.23533 10.6586 9.09721 10.5673 9.09721 10.3389C9.14325 10.0649 9.37345 9.83657 9.64969 9.88224C9.8799 9.88224 10.1101 10.0193 10.2943 10.2019L10.7086 9.6539C10.3863 9.37989 9.97198 9.19722 9.55761 9.19722C8.91305 9.15155 8.36056 9.6539 8.31452 10.2933V10.3389C8.31452 10.8869 8.54472 11.2066 9.28137 11.4349C9.46553 11.4806 9.64969 11.5719 9.83386 11.6633C9.97198 11.7546 10.0641 11.8916 10.0641 12.0743C10.0641 12.394 9.78782 12.668 9.51157 12.668H9.46553C9.09721 12.668 8.77492 12.4396 8.6368 12.12L8.13036 12.6223C8.4066 13.1247 8.95909 13.3987 9.51157 13.3987C10.2482 13.4443 10.8468 12.8963 10.8928 12.1656V12.0286C10.8468 11.4806 10.6165 11.2066 9.69573 10.8413ZM7.02539 13.353H7.80808V9.28854H7.02539V13.353ZM3.38818 9.28854H4.53919H4.7694C5.87437 9.3342 6.74914 10.2476 6.7031 11.3436C6.7031 11.9373 6.42685 12.4853 5.96645 12.8963C5.55208 13.216 5.04564 13.3986 4.53919 13.353H3.38818V9.28854ZM4.40108 12.6679C4.76941 12.7135 5.18377 12.5765 5.46001 12.3482C5.73626 12.0742 5.87438 11.7088 5.87438 11.2978C5.87438 10.9325 5.73626 10.5672 5.46001 10.2932C5.18377 10.0648 4.76941 9.92781 4.40108 9.97347H4.17088V12.6679H4.40108Z" fill="black"/>
<path fill-rule="evenodd" clip-rule="evenodd" d="M16.5983 9.19434C15.4473 9.19434 14.4805 10.1077 14.4805 11.2951C14.4805 12.4367 15.4013 13.3958 16.5983 13.4414C17.7954 13.4871 18.7162 12.5281 18.7623 11.3407C18.7162 10.1534 17.7954 9.19434 16.5983 9.19434Z" fill="url(#paint0_linear_9_1832)"/>
<path fill-rule="evenodd" clip-rule="evenodd" d="M16.5983 9.19434C15.4473 9.19434 14.4805 10.1077 14.4805 11.2951C14.4805 12.4367 15.4013 13.3958 16.5983 13.4414C17.7954 13.4871 18.7162 12.5281 18.7623 11.3407C18.7162 10.1534 17.7954 9.19434 16.5983 9.19434Z" fill="url(#paint1_radial_9_1832)"/>
<defs>
<linearGradient id="paint0_linear_9_1832" x1="15.3078" y1="9.59578" x2="18.0879" y2="12.8333" gradientUnits="userSpaceOnUse">
<stop stop-color="#E15315"/>
<stop offset="1" stop-color="#FFB320"/>
</linearGradient>
<radialGradient id="paint1_radial_9_1832" cx="0" cy="0" r="1" gradientUnits="userSpaceOnUse" gradientTransform="translate(16.93 11.9443) rotate(-126.027) scale(2.83364 2.93383)">
<stop stop-color="#FFCD83" stop-opacity="0"/>
<stop offset="0.725604" stop-color="#E45816" stop-opacity="0.7"/>
<stop offset="1" stop-color="#912301"/>
</radialGradient>
</defs>
</svg>
