<svg width="108" height="23" viewBox="0 0 108 23" fill="none" xmlns="http://www.w3.org/2000/svg">
<mask id="mask0_9_453" style="mask-type:luminance" maskUnits="userSpaceOnUse" x="0" y="0" width="108" height="23">
<path d="M107.557 0.972168H0.342773V22.9722H107.557V0.972168Z" fill="white"/>
</mask>
<g mask="url(#mask0_9_453)">
<g opacity="0.6">
<path d="M11.0622 22.6877L12.9905 3.54459C13.0621 2.54435 13.276 2.40161 13.6331 2.40161H13.8475V1.33128H10.7051V2.40161H10.9194C11.3482 2.40161 11.562 2.6871 11.4909 3.54459L10.3474 14.9733L9.0617 3.54459C8.91896 2.61598 9.13333 2.40161 9.63319 2.40161H9.70482V1.33128H5.3478V2.40161H5.56217C5.99091 2.40161 5.99091 2.54435 6.06203 3.54459L6.42017 6.47314L5.3478 15.7592L4.20482 3.54459C4.06207 2.54435 4.27645 2.40161 4.70468 2.40161H4.77631V1.33128H0.347656V2.40161H0.562028C1.06189 2.40161 1.06189 2.54435 1.13352 3.54459L3.13347 22.6877H5.9904L7.13338 12.8306L8.20473 22.6877H11.0622ZM29.4905 10.1159C29.4905 8.75859 29.4905 8.33035 30.3475 8.33035C30.919 8.33035 30.919 8.54473 30.919 9.6877V21.1159C30.919 21.5447 30.7762 21.6158 30.5608 21.6158H30.4181V22.6872H34.7751V21.6158H34.5607C34.2752 21.6158 34.2026 21.4731 34.2026 21.0443V9.04459C34.2026 7.04463 33.7738 6.3304 31.8455 6.3304C31.3218 6.27348 30.7945 6.39861 30.3522 6.68475C29.9099 6.97089 29.5796 7.40059 29.4168 7.90161C29.2024 6.83026 28.631 6.3304 27.1309 6.3304C25.9168 6.3304 25.2737 6.68854 24.7738 7.90161V6.3304L20.9877 6.61589V7.68724H21.1305C21.3449 7.68724 21.5592 7.90161 21.5592 8.4731V20.9732C21.5592 21.4731 21.4165 21.6158 21.1305 21.6158H20.9877V22.6872H25.202V21.6158H25.0593C24.8449 21.6158 24.7738 21.5442 24.7738 21.1871V10.1159C24.7738 8.75859 24.7738 8.33035 25.5597 8.33035C26.1311 8.33035 26.1311 8.54473 26.1311 9.6877V21.1159C26.1311 21.5447 25.9884 21.6158 25.773 21.6158H25.5586V22.6872H29.8445V21.6158H29.7729C29.4874 21.6158 29.3442 21.4731 29.3442 21.0443V10.1159H29.4905ZM59.6336 22.6872H64.9192V21.6158H64.5611C64.1323 21.6158 63.9896 21.4014 63.9896 20.4728V12.1875H66.7754V20.4017C66.7754 21.3303 66.6326 21.5447 66.2039 21.5447H65.7751V22.615H70.9897V21.5447H70.5609C70.1322 21.5447 69.9894 21.3303 69.9894 20.4017V3.54459C69.9894 2.54435 70.0611 2.40161 70.5609 2.40161H70.9897V1.33128H65.7762V2.40161H66.2049C66.6337 2.40161 66.7764 2.54435 66.7764 3.54459V10.9729H63.9195V3.54459C63.9195 2.54435 64.0622 2.40161 64.5621 2.40161H64.9202V1.33128H59.6336V2.40161H60.0623C60.4911 2.40161 60.6338 2.54435 60.6338 3.54459V20.9732C60.6338 21.4019 60.4911 21.5447 60.0623 21.5447H59.6336V22.6872ZM98.4191 22.6872H102.563V21.6158H102.417C102.132 21.6158 102.132 21.5442 102.132 21.1871V10.1159C102.132 8.75859 102.132 8.33035 102.989 8.33035C103.632 8.33035 103.632 8.54473 103.632 9.6877V21.1159C103.632 21.5447 103.489 21.6158 103.346 21.6158H103.134V22.6872H107.562V21.6158H107.348C107.062 21.6158 106.99 21.4731 106.99 21.0443V9.04459C106.99 7.04463 106.49 6.3304 104.561 6.3304C103.275 6.3304 102.561 6.68854 102.061 7.90161V0.973145L98.0614 1.33128V2.40161H98.4902C98.7757 2.40161 98.9189 2.54435 98.9189 3.18747V20.9732C98.9189 21.4731 98.8473 21.6158 98.4902 21.6158H98.3474V22.6872H98.4191ZM16.776 22.9015C20.2761 22.9015 20.7759 19.973 20.7759 14.6157C20.7759 9.25845 20.2761 6.32989 16.776 6.32989C13.276 6.32989 12.7761 9.18682 12.7761 14.6157C12.7761 19.973 13.276 22.9015 16.776 22.9015ZM42.7759 22.6872H46.9902V21.6158H46.7758C46.5615 21.6158 46.5615 21.5442 46.5615 21.1871V10.1159C46.5615 8.75859 46.5615 8.33035 47.4184 8.33035C47.9899 8.33035 48.0616 8.54473 48.0616 9.6877V21.1159C48.0616 21.5447 47.9188 21.6158 47.7034 21.6158H47.4891V22.6872H51.9198V21.6158H51.777C51.4915 21.6158 51.4189 21.4731 51.4189 21.0443V9.04459C51.4189 7.04463 50.9901 6.3304 48.9902 6.3304C47.7761 6.3304 46.9902 6.68854 46.5615 7.90161V6.3304L42.4899 6.61589V7.68724H42.9187C43.1331 7.68724 43.3474 7.90161 43.3474 8.4731V20.9732C43.3474 21.4731 43.2047 21.6158 42.9187 21.6158H42.7759V22.6872ZM80.9193 22.9732C82.3478 22.9732 82.9193 22.2569 83.2053 21.4019C83.4908 22.6877 83.7768 22.9732 85.4196 22.9732C87.3479 22.9732 87.5623 21.8302 87.5623 19.6159H86.6337C86.6337 21.2587 86.6337 21.4014 86.2756 21.4014C85.9901 21.4014 85.9901 21.2587 85.9901 20.3301V9.68821C85.9901 7.54552 85.2738 6.40254 82.776 6.40254C80.7761 6.40254 78.8472 6.97403 78.9189 9.18835C78.9905 10.1886 79.3476 11.1883 80.419 11.1167C81.3476 11.0451 81.7763 10.5452 81.7763 9.75933C81.7368 9.38232 81.6216 9.01717 81.4375 8.68581C81.2534 8.35444 81.0042 8.06369 80.705 7.831C81.1081 7.65075 81.5508 7.57694 81.9907 7.61663C82.707 7.61663 82.8477 8.18812 82.8477 9.18784V12.188C79.2049 13.4021 78.4906 13.9025 78.4906 18.4739C78.4906 21.6879 79.3476 22.9762 80.9193 22.9762V22.9732ZM74.7051 22.9732C77.4193 22.9732 78.0624 22.1873 77.9192 17.6875H76.7762C76.7762 21.2592 76.6334 21.4736 75.4188 21.4736C73.9187 21.4736 73.9187 20.831 73.9187 14.7595V14.2596H78.2757C78.2757 8.117 77.5595 6.40254 74.7041 6.40254C72.061 6.40254 70.7042 8.04538 70.7042 14.7595C70.7047 21.1876 71.7765 22.9732 74.7051 22.9732ZM38.9909 22.9015C41.634 22.9015 42.3482 22.1157 42.2766 17.6159H41.1336C41.1336 21.1876 40.9909 21.4019 39.7051 21.4019C38.0623 21.4019 38.2051 20.7593 38.2051 14.6879V14.188H42.4193C42.4193 8.04538 41.8478 6.33091 38.9914 6.33091C36.3484 6.33091 34.9915 7.97375 34.9915 14.6879C34.9915 21.1855 36.0624 22.9015 38.9909 22.9015ZM87.7767 22.6872H92.1337V21.6158H91.7756C91.4901 21.6158 91.4174 21.4731 91.4174 21.0443V0.973145L87.3459 1.33128V2.40161H87.7746C88.0601 2.40161 88.1328 2.54435 88.1328 2.9731V21.1159C88.1328 21.5447 88.1328 21.6158 87.9184 21.6158H87.704V22.6872H87.7767ZM56.4911 22.9015C58.4911 22.9015 59.4913 21.6158 59.4913 19.6159C59.4913 14.9728 55.3471 12.3303 55.3471 9.04459C55.3471 8.04435 55.7053 7.75886 56.4185 7.75886C57.4898 7.75886 57.6326 8.18761 57.7758 9.75882L57.9186 11.2589H59.1337V6.47314H58.2051C58.1335 7.04463 57.9907 7.259 57.9907 7.18942C57.707 6.89299 57.3616 6.66256 56.979 6.51446C56.5963 6.36637 56.1857 6.30423 55.7764 6.33245C54.0619 6.33245 52.4907 7.11831 52.4907 9.68975C52.4907 13.7613 56.6349 16.8326 56.6349 19.9039C56.6349 21.2612 56.3494 21.4751 55.3492 21.4751C54.4206 21.4751 54.1351 21.0464 53.9918 19.0464L53.9202 17.6891H52.6345V22.6892H53.7058C53.7775 22.1177 53.9913 21.7606 54.1346 21.9729C54.4927 22.3311 54.9199 22.9015 56.4911 22.9015ZM92.85 19.3304C92.85 21.9018 93.2081 22.902 95.7785 22.902C97.5641 22.902 97.9929 22.1858 97.9929 20.1879V17.4732H96.9215V20.3301C96.9215 21.2587 96.8499 21.4014 96.4928 21.4014C96.1357 21.4014 96.064 21.2587 96.064 20.4728V7.68724H98.064V6.47314H96.064V2.40161H94.9211C94.1352 6.0444 93.421 6.47314 92.3496 6.47314H92.0641V7.68724H92.7804V19.3304H92.85ZM16.776 21.4731C15.9902 21.4731 15.9902 21.0443 15.9902 14.6172C15.9902 8.11956 15.9902 7.68877 16.776 7.68877C17.4923 7.68877 17.4923 8.11752 17.4923 14.5446C17.4923 21.0423 17.4923 21.4731 16.776 21.4731ZM52.1331 7.18738C54.8473 5.18742 55.4188 3.6157 54.4902 2.25886C54.0619 1.473 52.919 0.973145 52.1336 1.68942C51.1334 2.47528 51.4173 3.90375 53.205 4.75919C52.8468 5.11733 52.1336 5.90217 51.4905 6.47366L52.1331 7.18738ZM82.2762 20.9016C81.633 20.9016 81.6331 20.1853 81.6331 18.0446C81.6331 14.1159 81.6331 13.616 82.9188 12.9018V19.6159C82.9188 20.6872 82.776 20.9016 82.2762 20.9016ZM38.2045 12.9713C38.2762 7.90007 38.3473 7.61407 39.0615 7.61407C39.7757 7.61407 39.7041 7.89956 39.7041 12.9713H38.2045ZM73.9187 12.9713C73.9904 7.90007 74.0615 7.61407 74.7757 7.61407C75.4899 7.61407 75.3472 7.89956 75.3472 12.9713H73.9187Z" fill="white"/>
</g>
</g>
</svg>
