<svg width="30" height="21" viewBox="0 0 30 21" fill="none" xmlns="http://www.w3.org/2000/svg">
<path d="M26 0.245117H4C1.79086 0.245117 0 2.03598 0 4.24512V16.2451C0 18.4543 1.79086 20.2451 4 20.2451H26C28.2091 20.2451 30 18.4543 30 16.2451V4.24512C30 2.03598 28.2091 0.245117 26 0.245117Z" fill="#1F72CD"/>
<path fill-rule="evenodd" clip-rule="evenodd" d="M5.64537 7.2041L2.91797 13.2796H6.18305L6.58783 12.3109H7.51306L7.91783 13.2796H11.5118V12.5403L11.832 13.2796H13.6911L14.0113 12.5246V13.2796H21.4858L22.3946 12.3361L23.2456 13.2796L27.0846 13.2874L24.3486 10.2588L27.0846 7.2041H23.3052L22.4204 8.1302L21.5962 7.2041H13.465L12.7668 8.77225L12.0522 7.2041H8.79393V7.91828L8.43147 7.2041H5.64537ZM16.8068 8.06686H21.099L22.4117 9.49426L23.7668 8.06686H25.0796L23.085 10.258L25.0796 12.4239H23.7073L22.3945 10.9799L21.0325 12.4239H16.8068V8.06686ZM17.8668 9.76515V8.96931L20.545 8.96855L21.7136 10.2413L20.4932 11.521H17.8668V10.6522H20.2083V9.76515H17.8668ZM6.27713 8.06686H7.86868L9.67777 12.1867V8.06686H11.4213L12.8186 11.0207L14.1063 8.06686H15.8411V12.4264H14.7855L14.7769 9.0103L13.238 12.4264H12.2938L10.7462 9.0103V12.4264H8.57467L8.16299 11.4491H5.93881L5.52797 12.4256H4.36448L6.27713 8.06686ZM6.31862 10.5454L7.0514 8.80436L7.78333 10.5454H6.31862Z" fill="white"/>
</svg>
