<svg width="90" height="26" viewBox="0 0 90 26" fill="none" xmlns="http://www.w3.org/2000/svg">
<mask id="mask0_9_432" style="mask-type:luminance" maskUnits="userSpaceOnUse" x="0" y="1" width="90" height="25">
<path d="M89.3606 1.43896H0.47168V25.439H89.3606V1.43896Z" fill="white"/>
</mask>
<g mask="url(#mask0_9_432)">
<g opacity="0.6">
<path d="M50.8271 9.52813C50.8271 6.95035 50.8716 4.55034 51.0049 2.32812L44.2049 3.61702V4.23924L44.8716 4.32812C45.3605 4.37256 45.6716 4.55035 45.8493 4.81702C46.0271 5.12813 46.1605 5.57256 46.2493 6.23923C46.3382 7.52812 46.4271 10.4615 46.3827 15.0837C46.3827 19.6615 46.3382 22.5504 46.2493 23.6615C48.6938 24.1948 50.6049 24.417 52.0271 24.417C54.6938 24.417 56.7827 23.6615 58.2938 22.1059C59.8049 20.5948 60.6049 18.4615 60.6049 15.8392C60.6049 13.7504 60.0271 12.017 58.8716 10.6392C57.716 9.26145 56.2493 8.59479 54.516 8.59479C53.3605 8.59479 52.1605 8.90591 50.8271 9.52813ZM50.9605 23.217C50.8716 21.7948 50.7827 17.5281 50.7827 10.5503C51.1827 10.417 51.716 10.3281 52.3827 10.3281C53.4494 10.3281 54.2938 10.8615 54.916 11.9726C55.5382 13.0837 55.8493 14.417 55.8493 16.1059C55.8493 18.1948 55.4938 19.8837 54.7827 21.3059C54.0716 22.6837 53.1827 23.3948 52.0716 23.3948C51.716 23.3059 51.3605 23.2615 50.9605 23.217ZM18.6938 2.77257H0.916016V3.66146L1.84935 3.75035C2.56046 3.88368 3.04935 4.15034 3.36046 4.55034C3.67157 4.99478 3.84935 5.70591 3.89379 6.68368C4.24935 11.4837 4.24935 15.9726 3.89379 20.1059C3.8049 21.0837 3.62713 21.7948 3.36046 22.2392C3.04935 22.6837 2.56046 22.9504 1.84935 23.0392L0.916016 23.1726V24.0615H12.3827V23.1726L11.1827 23.0837C10.8899 23.0592 10.605 22.9757 10.3453 22.8382C10.0856 22.7007 9.85645 22.5121 9.67157 22.2837C9.36046 21.8392 9.18268 21.1281 9.13824 20.1504C9.0049 18.3726 8.91602 16.3281 8.91602 14.0615L11.316 14.1059C12.6049 14.1504 13.4938 15.1281 13.9382 17.0837H14.8271V9.83923H13.9382C13.4938 11.7504 12.6493 12.7281 11.316 12.7726L8.91602 12.817C8.91602 8.81701 9.0049 5.97257 9.13824 4.23924H12.6493C15.1382 4.23924 16.8271 5.83924 17.8049 9.03924L18.8716 8.72813L18.6938 2.77257ZM16.6049 16.4615C16.6049 18.7726 17.2716 20.6837 18.5605 22.1948C19.8493 23.7059 21.7605 24.417 24.1605 24.417C26.5605 24.417 28.516 23.6615 29.9382 22.1059C31.3605 20.5948 32.0271 18.6837 32.0271 16.3726C32.0271 14.0615 31.3605 12.1504 30.0716 10.6392C28.7827 9.12812 26.8716 8.41702 24.4716 8.41702C22.0716 8.41702 20.116 9.17256 18.6938 10.7281C17.2716 12.2392 16.6049 14.1504 16.6049 16.4615ZM26.516 11.3948C27.0493 12.6837 27.2716 14.3726 27.2716 16.417C27.2716 21.1281 26.2938 23.4392 24.3827 23.4392C23.4049 23.4392 22.6493 22.7726 22.116 21.4392C21.5827 20.1059 21.3605 18.417 21.3605 16.417C21.3605 11.7504 22.3382 9.43924 24.2493 9.43924C25.2271 9.39479 25.9827 10.0615 26.516 11.3948ZM64.0716 22.1948C65.5382 23.6615 67.4049 24.417 69.6271 24.417C71.0049 24.417 72.2049 24.1504 73.2716 23.5726C74.3382 23.0392 75.1827 22.3726 75.7605 21.5726L75.316 21.0392C74.3382 21.7948 73.2271 22.1504 71.9382 22.1504C70.1605 22.1504 68.7827 21.5726 67.8493 20.3726C66.8716 19.1726 66.4271 17.6615 66.516 15.7059H76.0271C76.0271 13.5726 75.4938 11.8392 74.3827 10.4615C73.2716 9.12812 71.716 8.46146 69.716 8.46146C67.2271 8.46146 65.316 9.26145 63.9382 10.817C62.5605 12.3726 61.8938 14.2837 61.8938 16.5504C61.8938 18.8615 62.6049 20.7281 64.0716 22.1948ZM67.3605 11.0392C67.8493 9.97256 68.4716 9.43924 69.316 9.43924C70.6493 9.43924 71.316 11.1281 71.316 14.5504L66.6049 14.6392C66.6494 13.3059 66.8716 12.1059 67.3605 11.0392ZM87.9827 9.26146C86.7827 8.72813 85.2716 8.41702 83.4493 8.41702C81.5827 8.41702 80.116 8.9059 79.0049 9.83923C77.8938 10.7726 77.316 11.9281 77.316 13.3059C77.316 14.5059 77.6716 15.4392 78.3382 16.1059C79.0049 16.7726 80.0716 17.3504 81.4493 17.8392C82.6938 18.2837 83.5827 18.7281 84.0271 19.1281C84.4716 19.5726 84.7382 20.0615 84.7382 20.7281C84.7382 21.3504 84.516 21.9281 84.0271 22.3726C83.5827 22.8615 82.9605 23.0837 82.1605 23.0837C80.2049 23.0837 78.7382 21.6615 77.716 18.817L76.9605 19.0392L77.1382 23.4837C78.7382 24.1059 80.516 24.417 82.4716 24.417C84.516 24.417 86.0716 23.9726 87.2271 23.0392C88.3827 22.1504 88.9605 20.8615 88.9605 19.2615C88.9605 18.1948 88.6938 17.3059 88.116 16.6392C87.5382 15.9726 86.6049 15.3948 85.2716 14.8615C83.8049 14.3281 82.7827 13.8392 82.2494 13.3948C81.716 12.9504 81.4493 12.417 81.4493 11.7504C81.4493 11.0837 81.6271 10.5503 82.0271 10.1059C82.4271 9.66146 82.916 9.48368 83.5382 9.48368C85.316 9.48368 86.6049 10.7726 87.4049 13.3059L88.1605 13.0837L87.9827 9.26146ZM45.2271 8.86145C44.6049 8.55034 43.9382 8.41702 43.1827 8.41702C42.4271 8.41702 41.6716 8.72813 40.8271 9.35035C39.9827 9.97257 39.3605 10.817 38.8716 11.9726L38.916 8.41702L32.1605 9.75034V10.3726L32.8271 10.417C33.6716 10.5059 34.1605 11.1726 34.2493 12.3726C34.516 15.1281 34.516 18.0615 34.2493 21.1726C34.1605 22.3726 33.6716 22.9948 32.8271 23.1281L32.1605 23.217V24.0615H41.5827V23.217L40.3827 23.1281C39.5382 23.0392 39.0493 22.3726 38.9605 21.1726C38.6938 18.5948 38.6493 15.8392 38.8716 12.9948C39.1382 12.5504 39.716 12.2837 40.6049 12.1948C41.4938 12.1059 42.516 12.3726 43.5827 12.9948L45.2271 8.86145Z" fill="white"/>
</g>
</g>
</svg>
