<svg width="31" height="21" viewBox="0 0 31 21" fill="none" xmlns="http://www.w3.org/2000/svg">
<path d="M26.8882 0.347656H4.88818C2.67904 0.347656 0.888184 2.13852 0.888184 4.34766V16.3477C0.888184 18.5568 2.67904 20.3477 4.88818 20.3477H26.8882C29.0973 20.3477 30.8882 18.5568 30.8882 16.3477V4.34766C30.8882 2.13852 29.0973 0.347656 26.8882 0.347656Z" fill="#1F72CD"/>
<path fill-rule="evenodd" clip-rule="evenodd" d="M6.53355 7.30664L3.80615 13.3822H7.07123L7.47601 12.4135H8.40124L8.80601 13.3822H12.4V12.6429L12.7202 13.3822H14.5793L14.8995 12.6272V13.3822H22.374L23.2828 12.4387L24.1338 13.3822L27.9728 13.39L25.2368 10.3614L27.9728 7.30664H24.1934L23.3086 8.23274L22.4844 7.30664H14.3532L13.655 8.87479L12.9404 7.30664H9.68211V8.02082L9.31965 7.30664H6.53355ZM17.695 8.1694H21.9872L23.2999 9.5968L24.655 8.1694H25.9678L23.9732 10.3606L25.9678 12.5265H24.5955L23.2827 11.0825L21.9207 12.5265H17.695V8.1694ZM18.755 9.86769V9.07185L21.4332 9.07109L22.6018 10.3438L21.3814 11.6236H18.755V10.7548H21.0965V9.86769H18.755ZM7.16531 8.1694H8.75686L10.566 12.2893V8.1694H12.3095L13.7068 11.1233L14.9945 8.1694H16.7293V12.529H15.6737L15.6651 9.11284L14.1262 12.529H13.182L11.6344 9.11284V12.529H9.46285L9.05117 11.5517H6.82699L6.41615 12.5282H5.25266L7.16531 8.1694ZM7.2068 10.648L7.93958 8.9069L8.67151 10.648H7.2068Z" fill="white"/>
</svg>
