<svg width="140" height="25" viewBox="0 0 140 25" fill="none" xmlns="http://www.w3.org/2000/svg">
<mask id="mask0_9_1609" style="mask-type:luminance" maskUnits="userSpaceOnUse" x="0" y="0" width="140" height="24">
<path d="M139.046 0.906738H0.944824V23.9067H139.046V0.906738Z" fill="white"/>
</mask>
<g mask="url(#mask0_9_1609)">
<g opacity="0.4">
<path fill-rule="evenodd" clip-rule="evenodd" d="M19.5034 22.7592H12.9455V12.354C12.9455 11.262 12.1615 10.5619 11.2431 10.5619C10.347 10.5619 9.2662 11.29 9.2662 12.354V22.7592H3.38037V6.18257L1.48193 4.83851C3.65477 4.1105 7.28932 2.54248 9.2662 1.44482V10.1363C10.0558 9.15629 11.9767 7.89622 14.4128 7.89622C17.5041 7.89622 18.8313 9.94026 18.8313 12.382V21.1631C18.8313 21.4321 19.0553 21.9584 19.5034 22.7592ZM87.0921 22.7592H80.5342V12.354C80.5342 11.262 79.7503 10.5619 78.8318 10.5619C77.9358 10.5619 76.8549 11.29 76.8549 12.354V22.7592H70.9691V6.18257L69.0707 4.83851C71.2435 4.1105 74.8781 2.54248 76.8549 1.44482V10.1363C77.639 9.15629 79.5598 7.89622 82.0015 7.89622C85.0928 7.89622 86.4201 9.94026 86.4201 12.382V21.1631C86.4201 21.4321 86.644 21.9584 87.0921 22.7592ZM33.8399 20.2839V21.3199C32.535 22.4456 31.0901 23.3696 27.9932 23.3696C23.0987 23.3696 20.1082 20.0879 20.1082 16.0446C20.1082 11.2228 23.1827 7.93547 27.6908 7.93547C32.1542 7.93547 33.8399 10.9932 33.8399 14.8405H25.686C26.0387 19.2703 28.5085 21.2919 30.7653 21.2919C31.8518 21.2919 33.0782 20.9278 33.8399 20.2839ZM27.4164 13.9669C28.7269 13.9669 28.8781 13.5918 28.8781 12.4941C28.8781 11.654 28.7269 9.5819 27.4164 9.5819C26.106 9.5819 25.9548 11.654 25.9548 12.4941C25.9548 13.5917 26.1059 13.9669 27.4164 13.9669ZM138.507 20.2783V21.3144C137.202 22.44 135.758 23.364 132.661 23.364C127.766 23.364 124.776 20.0823 124.776 16.0446C124.776 11.2172 127.85 7.93547 132.364 7.93547C136.822 7.93547 138.507 10.9932 138.507 14.8349H130.353C130.706 19.2703 133.176 21.2863 135.433 21.2863C136.519 21.2863 137.746 20.9222 138.507 20.2783ZM132.084 13.9613C133.394 13.9613 133.545 13.5919 133.545 12.4941C133.545 11.654 133.394 9.57626 132.084 9.57626C130.773 9.57626 130.622 11.654 130.622 12.4941C130.622 13.5917 130.773 13.9613 132.084 13.9613ZM50.4668 20.1551L51.122 20.2949C50.8254 21.499 49.9572 23.3694 47.1627 23.3694C44.833 23.3694 44.1778 21.9358 43.6906 20.4237C43.2818 21.8238 41.6857 23.3694 38.6504 23.3694C35.9399 23.3694 34.4503 22.1653 34.4503 19.8917C34.4503 17.366 36.9144 15.5123 43.069 13.6866V11.0266C43.069 9.64893 42.3353 9.17288 41.5233 9.17288C40.7897 9.17288 39.6248 9.95692 39.6248 11.1946C39.6248 11.7826 39.7366 12.2306 39.8154 12.8187C39.8154 13.5747 38.9474 14.7283 37.6201 14.7283C36.1585 14.7283 35.4528 13.6642 35.4528 12.4266C35.4528 10.4049 37.3233 7.93523 42.2291 7.93523C47.3253 7.93523 48.9493 10.6289 48.9493 13.2106V20.0597C48.9493 20.4797 49.1172 20.8998 49.5766 20.8998C49.9797 20.8998 50.2596 20.6703 50.4668 20.1551ZM43.097 19.6399V14.5549C41.0361 15.3893 40.3249 17.4614 40.3249 19.0519C40.3249 20.3343 40.7223 20.9223 41.6745 20.9223C42.5034 20.9223 43.097 20.3903 43.097 19.6399ZM58.8951 22.7592H52.1301V6.18257L50.3268 4.83851C52.3877 4.1105 56.1734 2.54248 58.0551 1.44482V21.1631C58.0551 21.4151 58.3351 21.9472 58.8951 22.7592ZM95.9908 22.7592H89.2202V6.18257L87.4169 4.83851C89.4778 4.1105 93.2691 2.54248 95.1508 1.44482V21.1631C95.1508 21.4151 95.4307 21.9472 95.9908 22.7592ZM69.0482 21.04V22.076C68.0626 22.9216 66.4274 23.3696 64.6633 23.3696C61.7512 23.3696 60.7431 21.2079 60.7431 19.3823V9.63225H59.3375L66.713 3.15847V8.49542H69.0482V9.63225H66.713V20.1999C66.713 21.04 67.2058 21.4319 67.7994 21.4319C68.1635 21.4319 68.8131 21.2643 69.0482 21.04ZM101.619 7.70585C99.9445 7.70585 98.6061 6.31694 98.6061 4.57527C98.6061 2.83361 99.9445 1.44482 101.619 1.44482C103.293 1.44482 104.626 2.83361 104.626 4.57527C104.626 6.31694 103.293 7.70585 101.619 7.70585ZM105.578 22.7592H98.6677V12.3204L96.7692 10.9708C98.9421 10.2427 102.588 8.66907 104.57 7.57141V21.1631C104.57 21.4265 104.906 21.9584 105.578 22.7592ZM124.333 22.7592H117.563V12.3204C117.563 11.2284 116.784 10.5228 115.86 10.5228C114.964 10.5228 113.883 11.2564 113.883 12.3204V22.7592H107.997V12.3204L106.104 10.9708C108.272 10.2427 111.75 8.66907 113.732 7.57141V10.4387C114.706 9.14504 116.594 7.85145 119.03 7.85145C122.121 7.85145 123.448 9.90669 123.448 12.3484V21.1631C123.448 21.4208 123.745 21.9528 124.333 22.7592Z" fill="white"/>
</g>
</g>
</svg>
