<svg width="32" height="32" viewBox="0 0 32 32" fill="none" xmlns="http://www.w3.org/2000/svg">
<mask id="mask0_9_312" style="mask-type:luminance" maskUnits="userSpaceOnUse" x="0" y="1" width="32" height="31">
<path d="M32 1.43945H0V31.0072H32V1.43945Z" fill="white"/>
</mask>
<g mask="url(#mask0_9_312)">
<path d="M13.4531 4.09831C14.7813 4.09831 16.0599 4.29102 17.2682 4.64779C17.4609 4.70508 17.6562 4.76758 17.8542 4.83529C18.0729 4.91081 18.2891 4.99154 18.5026 5.07748L17.6224 6.69466C16.3281 6.19727 14.9245 5.92644 13.4557 5.92644H13.4531C11.849 5.92644 10.3203 6.25196 8.92969 6.8405C8.70313 6.93685 8.47917 7.03841 8.26302 7.14779C7.13802 7.71029 6.11719 8.44987 5.23698 9.33008L5.23177 9.33529C4.9401 9.62696 4.66146 9.93685 4.40365 10.2598C4.14323 10.5853 3.89844 10.9239 3.67188 11.2754C2.5026 13.0879 1.82813 15.2416 1.82813 17.5515V17.5541C1.82813 19.1582 2.15365 20.6869 2.74219 22.0775C2.83854 22.3041 2.9401 22.528 3.04948 22.7442C3.61198 23.8666 4.35156 24.89 5.23438 25.7702L5.23958 25.7754C5.53125 26.0671 5.84115 26.3457 6.16406 26.6062C6.48958 26.8666 6.82813 27.1114 7.17969 27.3379C8.98958 28.4994 11.1432 29.1739 13.4531 29.1739H13.4557C15.0599 29.1739 16.5885 28.8483 17.9792 28.2598C18.2057 28.1634 18.4297 28.0619 18.6458 27.9525C19.7708 27.39 20.7917 26.6504 21.6719 25.7702H21.6745L21.6823 25.7624C21.974 25.4707 22.25 25.1634 22.5104 24.8405C22.7708 24.515 23.0156 24.1765 23.2422 23.8249C24.4036 22.0176 25.0781 19.8666 25.0781 17.5593L26.9036 17.278C26.9063 17.3692 26.9063 17.4603 26.9063 17.5515V17.5541C26.9063 19.4108 26.5286 21.1817 25.849 22.7884C25.7396 23.0489 25.6198 23.3067 25.4922 23.5619C24.8411 24.864 23.9844 26.0463 22.9661 27.0645L22.9609 27.0697C22.6224 27.4082 22.263 27.7312 21.8906 28.0306C21.5156 28.3327 21.1224 28.6166 20.7161 28.877C18.6224 30.2233 16.1302 31.0046 13.4557 31.0046C11.599 31.0046 9.82813 30.627 8.22135 29.9473C7.96094 29.8379 7.70313 29.7181 7.44792 29.5905C6.14583 28.9395 4.96354 28.0827 3.94531 27.0645L3.9401 27.0567C3.60156 26.7181 3.28125 26.3614 2.97917 25.9864C2.67708 25.6114 2.39323 25.2181 2.13281 24.8119C0.78125 22.7181 0 20.2259 0 17.5515V17.5489C0 15.6921 0.377604 13.9239 1.05729 12.3145C1.16667 12.0541 1.28646 11.7963 1.41406 11.541C2.0651 10.2389 2.92188 9.05664 3.9401 8.03841L3.94531 8.03321C4.28385 7.69466 4.64323 7.37435 5.01563 7.07227C5.39063 6.77019 5.78385 6.48633 6.1901 6.22591C8.28646 4.87956 10.7786 4.09831 13.4531 4.09831ZM14.5521 16.9447L22.9948 1.43945L24.0859 10.2441L32 14.252L14.5521 16.9447ZM13.4531 13.2937H13.4557C13.6432 13.2937 13.8281 13.3067 14.0078 13.3301L13.0104 15.1634C12.8359 15.1947 12.6667 15.2468 12.5078 15.3145C12.4609 15.3353 12.4141 15.3562 12.3672 15.3796C12.1328 15.4968 11.9193 15.6504 11.7344 15.8353L11.7292 15.8405C11.6693 15.9004 11.6146 15.9629 11.5599 16.028C11.5052 16.0957 11.4531 16.166 11.4063 16.2416C11.1641 16.6192 11.0234 17.0697 11.0234 17.5515V17.5541C11.0234 17.89 11.0911 18.2077 11.2161 18.4994C11.237 18.5489 11.2578 18.5957 11.2813 18.64C11.3984 18.8744 11.5521 19.0879 11.737 19.2728L11.7422 19.278C11.8021 19.3379 11.8646 19.3952 11.9297 19.4473C11.9974 19.502 12.0677 19.5541 12.1432 19.6009C12.5208 19.8431 12.9714 19.9838 13.4531 19.9838C13.7891 19.9838 14.1068 19.9161 14.3984 19.7937C14.4479 19.7728 14.4922 19.752 14.5391 19.7286C14.7734 19.6114 14.987 19.4577 15.1719 19.2728L15.1771 19.2676C15.2109 19.2338 15.2422 19.1999 15.2708 19.1687C15.2995 19.1374 15.3281 19.1009 15.3568 19.0645L17.5469 18.7259C17.5 18.8926 17.4427 19.0567 17.375 19.2129C17.3411 19.2937 17.3021 19.377 17.263 19.4577C17.0573 19.8718 16.7865 20.2442 16.4635 20.5671L16.4557 20.5723C16.349 20.6765 16.2396 20.778 16.1224 20.8718C16.0026 20.9681 15.8802 21.0567 15.75 21.14C15.0859 21.5645 14.2995 21.8119 13.4531 21.8119C12.8646 21.8119 12.3047 21.6921 11.7969 21.4759C11.7161 21.4421 11.6328 21.403 11.5521 21.364C11.138 21.1582 10.7656 20.8874 10.4427 20.5645L10.4349 20.5567C10.3307 20.4525 10.2292 20.3405 10.1354 20.2233C10.0391 20.1035 9.95052 19.9812 9.86719 19.8509C9.44271 19.1895 9.19531 18.4004 9.19531 17.5541V17.5515C9.19531 16.9629 9.3151 16.403 9.53125 15.8952C9.5651 15.8145 9.60417 15.7312 9.64323 15.6504C9.84896 15.239 10.1198 14.864 10.4427 14.5437C10.5495 14.4369 10.6641 14.3353 10.7839 14.239C10.9036 14.1426 11.026 14.0541 11.1563 13.9707C11.8177 13.541 12.6068 13.2937 13.4531 13.2937ZM13.4531 8.65821C14.25 8.65821 15.0208 8.76237 15.7526 8.96029C15.8724 8.99154 15.9896 9.02539 16.1068 9.06446C16.1693 9.08529 16.2344 9.10612 16.2969 9.12696L15.4063 10.765C14.7865 10.5879 14.1302 10.4915 13.4505 10.4915C12.4766 10.4915 11.5469 10.6895 10.7005 11.0463C10.5677 11.1035 10.4323 11.166 10.2943 11.2338L10.2839 11.239C9.60417 11.5801 8.98958 12.028 8.45573 12.5619L8.45052 12.5671C8.27344 12.7442 8.10677 12.9317 7.94792 13.127C7.78906 13.3249 7.64063 13.5306 7.5026 13.7442C6.79688 14.8431 6.38802 16.153 6.38802 17.5567V17.5593C6.38802 18.5332 6.58594 19.4629 6.94271 20.3093C7 20.4473 7.0625 20.5827 7.13021 20.7155C7.47135 21.3978 7.92188 22.0176 8.45833 22.5541C8.63802 22.7338 8.82813 22.903 9.02344 23.0619C9.22136 23.2207 9.42708 23.3692 9.64063 23.5072C10.7396 24.2077 12.0495 24.6166 13.4531 24.6166H13.4557C14.4297 24.6166 15.3594 24.4187 16.2057 24.0619C16.3438 24.0046 16.4792 23.9421 16.612 23.8744C17.2943 23.5332 17.9141 23.0827 18.4505 22.5463C18.6302 22.3666 18.8021 22.1765 18.9583 21.9812C19.1172 21.7832 19.2656 21.5775 19.4036 21.364C19.9896 20.4525 20.3698 19.4004 20.4844 18.2676L22.3385 17.9812C22.2865 19.0515 22.0469 20.0723 21.651 21.0124C21.5781 21.1843 21.5 21.3562 21.4141 21.5228C20.9844 22.3848 20.4167 23.1661 19.7448 23.8379L19.7396 23.8431C19.5156 24.0671 19.2786 24.278 19.0339 24.4786C18.7865 24.6791 18.526 24.8666 18.2578 25.0384C16.8724 25.9265 15.224 26.4447 13.4583 26.4447C12.2318 26.4447 11.0599 26.1947 9.9974 25.7468C9.82552 25.6739 9.65365 25.5957 9.48698 25.5098C8.625 25.0801 7.84375 24.5124 7.17188 23.8405L7.16667 23.8327C6.94271 23.6088 6.73177 23.3744 6.53385 23.127C6.33333 22.8796 6.14583 22.6192 5.97396 22.3509C5.08333 20.9655 4.56771 19.3197 4.56771 17.5515V17.5489C4.56771 16.3223 4.81771 15.1504 5.26823 14.0879C5.34115 13.916 5.41927 13.7442 5.50521 13.5775C5.9349 12.7155 6.5026 11.9343 7.17448 11.2624L7.17969 11.2572C7.40365 11.0332 7.63802 10.8223 7.88542 10.6243C8.13281 10.4238 8.39323 10.2363 8.66146 10.0645C10.0391 9.17383 11.6875 8.65821 13.4531 8.65821Z" fill="#FDD6F0"/>
</g>
</svg>
