<svg width="32" height="21" viewBox="0 0 32 21" fill="none" xmlns="http://www.w3.org/2000/svg">
<path d="M29 0.695312H3C1.61929 0.695312 0.5 1.8146 0.5 3.19531V17.1953C0.5 18.576 1.61929 19.6953 3 19.6953H29C30.3807 19.6953 31.5 18.576 31.5 17.1953V3.19531C31.5 1.8146 30.3807 0.695312 29 0.695312Z" fill="white"/>
<path d="M29 0.695312H3C1.61929 0.695312 0.5 1.8146 0.5 3.19531V17.1953C0.5 18.576 1.61929 19.6953 3 19.6953H29C30.3807 19.6953 31.5 18.576 31.5 17.1953V3.19531C31.5 1.8146 30.3807 0.695312 29 0.695312Z" stroke="#EDEEF0"/>
<path fill-rule="evenodd" clip-rule="evenodd" d="M15.9959 13.6225C15.2205 14.2915 14.2151 14.6953 13.1166 14.6953C10.6629 14.6953 8.67383 12.6806 8.67383 10.1953C8.67383 7.71003 10.6629 5.69531 13.1166 5.69531C14.2151 5.69531 15.2205 6.09909 15.9959 6.7681C16.7714 6.09909 17.7767 5.69531 18.8752 5.69531C21.3289 5.69531 23.318 7.71003 23.318 10.1953C23.318 12.6806 21.3289 14.6953 18.8752 14.6953C17.7767 14.6953 16.7714 14.2915 15.9959 13.6225Z" fill="#EC0014"/>
<path fill-rule="evenodd" clip-rule="evenodd" d="M15.998 13.6189C16.9524 12.7936 17.5575 11.566 17.5575 10.1953C17.5575 8.8246 16.9524 7.59703 15.998 6.77166C16.7741 6.10052 17.781 5.69531 18.8814 5.69531C21.3351 5.69531 23.3243 7.71003 23.3243 10.1953C23.3243 12.6806 21.3351 14.6953 18.8814 14.6953C17.781 14.6953 16.7741 14.2901 15.998 13.6189Z" fill="#F9A000"/>
<path fill-rule="evenodd" clip-rule="evenodd" d="M16.0068 6.76855C16.9636 7.59395 17.5704 8.8231 17.5704 10.1958C17.5704 11.5684 16.9636 12.7976 16.0069 13.623C15.0502 12.7976 14.4434 11.5684 14.4434 10.1957C14.4434 8.82306 15.0501 7.59395 16.0068 6.76855Z" fill="#FF5E00"/>
</svg>
