<svg width="32" height="32" viewBox="0 0 32 32" fill="none" xmlns="http://www.w3.org/2000/svg">
<mask id="mask0_9_528" style="mask-type:luminance" maskUnits="userSpaceOnUse" x="0" y="0" width="32" height="31">
<path d="M32 0.837891H0V30.4056H32V0.837891Z" fill="white"/>
</mask>
<g mask="url(#mask0_9_528)">
<path d="M13.4531 3.49674C14.7813 3.49674 16.0599 3.68945 17.2682 4.04622C17.4609 4.10351 17.6562 4.16601 17.8542 4.23372C18.0729 4.30924 18.2891 4.38997 18.5026 4.47591L17.6224 6.09309C16.3281 5.59571 14.9245 5.32487 13.4557 5.32487H13.4531C11.849 5.32487 10.3203 5.65039 8.92969 6.23893C8.70313 6.33528 8.47917 6.43684 8.26302 6.54622C7.13802 7.10872 6.11719 7.8483 5.23698 8.72851L5.23177 8.73372C4.9401 9.02539 4.66146 9.33529 4.40365 9.65821C4.14323 9.98372 3.89844 10.3223 3.67188 10.6738C2.5026 12.4863 1.82813 14.64 1.82813 16.9499V16.9525C1.82813 18.5566 2.15365 20.0853 2.74219 21.4759C2.83854 21.7025 2.9401 21.9264 3.04948 22.1426C3.61198 23.265 4.35156 24.2884 5.23438 25.1686L5.23958 25.1738C5.53125 25.4655 5.84115 25.7441 6.16406 26.0046C6.48958 26.265 6.82813 26.5098 7.17969 26.7363C8.98958 27.8978 11.1432 28.5723 13.4531 28.5723H13.4557C15.0599 28.5723 16.5885 28.2467 17.9792 27.6582C18.2057 27.5618 18.4297 27.4603 18.6458 27.3509C19.7708 26.7884 20.7917 26.0488 21.6719 25.1686H21.6745L21.6823 25.1608C21.974 24.8691 22.25 24.5618 22.5104 24.2389C22.7708 23.9134 23.0156 23.5749 23.2422 23.2233C24.4036 21.416 25.0781 19.265 25.0781 16.9577L26.9036 16.6764C26.9063 16.7676 26.9063 16.8587 26.9063 16.9499V16.9525C26.9063 18.8092 26.5286 20.5801 25.849 22.1868C25.7396 22.4473 25.6198 22.7051 25.4922 22.9603C24.8411 24.2624 23.9844 25.4447 22.9661 26.4629L22.9609 26.4681C22.6224 26.8066 22.263 27.1296 21.8906 27.429C21.5156 27.7311 21.1224 28.015 20.7161 28.2754C18.6224 29.6217 16.1302 30.403 13.4557 30.403C11.599 30.403 9.82813 30.0254 8.22135 29.3457C7.96094 29.2363 7.70313 29.1165 7.44792 28.9889C6.14583 28.3379 4.96354 27.4811 3.94531 26.4629L3.9401 26.4551C3.60156 26.1165 3.28125 25.7598 2.97917 25.3848C2.67708 25.0098 2.39323 24.6165 2.13281 24.2103C0.78125 22.1165 0 19.6243 0 16.9499V16.9473C0 15.0905 0.377604 13.3223 1.05729 11.7129C1.16667 11.4525 1.28646 11.1947 1.41406 10.9394C2.0651 9.63737 2.92188 8.45507 3.9401 7.43684L3.94531 7.43164C4.28385 7.09309 4.64323 6.77278 5.01563 6.4707C5.39063 6.16862 5.78385 5.88476 6.1901 5.62434C8.28646 4.27799 10.7786 3.49674 13.4531 3.49674ZM14.5521 16.3431L22.9948 0.837891L24.0859 9.64257L32 13.6504L14.5521 16.3431ZM13.4531 12.6921H13.4557C13.6432 12.6921 13.8281 12.7051 14.0078 12.7285L13.0104 14.5618C12.8359 14.5931 12.6667 14.6452 12.5078 14.7129C12.4609 14.7337 12.4141 14.7546 12.3672 14.778C12.1328 14.8952 11.9193 15.0488 11.7344 15.2337L11.7292 15.2389C11.6693 15.2988 11.6146 15.3613 11.5599 15.4264C11.5052 15.4941 11.4531 15.5644 11.4063 15.64C11.1641 16.0176 11.0234 16.4681 11.0234 16.9499V16.9525C11.0234 17.2884 11.0911 17.6061 11.2161 17.8978C11.237 17.9473 11.2578 17.9941 11.2813 18.0384C11.3984 18.2728 11.5521 18.4863 11.737 18.6712L11.7422 18.6764C11.8021 18.7363 11.8646 18.7936 11.9297 18.8457C11.9974 18.9004 12.0677 18.9525 12.1432 18.9993C12.5208 19.2415 12.9714 19.3822 13.4531 19.3822C13.7891 19.3822 14.1068 19.3145 14.3984 19.1921C14.4479 19.1712 14.4922 19.1504 14.5391 19.127C14.7734 19.0098 14.987 18.8561 15.1719 18.6712L15.1771 18.666C15.2109 18.6322 15.2422 18.5983 15.2708 18.5671C15.2995 18.5358 15.3281 18.4993 15.3568 18.4629L17.5469 18.1243C17.5 18.291 17.4427 18.4551 17.375 18.6113C17.3411 18.6921 17.3021 18.7754 17.263 18.8561C17.0573 19.2702 16.7865 19.6426 16.4635 19.9655L16.4557 19.9707C16.349 20.0749 16.2396 20.1764 16.1224 20.2702C16.0026 20.3665 15.8802 20.4551 15.75 20.5384C15.0859 20.9629 14.2995 21.2103 13.4531 21.2103C12.8646 21.2103 12.3047 21.0905 11.7969 20.8743C11.7161 20.8405 11.6328 20.8014 11.5521 20.7624C11.138 20.5566 10.7656 20.2858 10.4427 19.9629L10.4349 19.9551C10.3307 19.8509 10.2292 19.7389 10.1354 19.6217C10.0391 19.5019 9.95052 19.3796 9.86719 19.2493C9.44271 18.5879 9.19531 17.7988 9.19531 16.9525V16.9499C9.19531 16.3613 9.3151 15.8014 9.53125 15.2936C9.5651 15.2129 9.60417 15.1296 9.64323 15.0488C9.84896 14.6374 10.1198 14.2624 10.4427 13.9421C10.5495 13.8353 10.6641 13.7337 10.7839 13.6374C10.9036 13.541 11.026 13.4525 11.1563 13.3691C11.8177 12.9394 12.6068 12.6921 13.4531 12.6921ZM13.4531 8.05664C14.25 8.05664 15.0208 8.1608 15.7526 8.35872C15.8724 8.38997 15.9896 8.42382 16.1068 8.46289C16.1693 8.48372 16.2344 8.50455 16.2969 8.52539L15.4063 10.1634C14.7865 9.98632 14.1302 9.88997 13.4505 9.88997C12.4766 9.88997 11.5469 10.0879 10.7005 10.4447C10.5677 10.5019 10.4323 10.5644 10.2943 10.6322L10.2839 10.6374C9.60417 10.9785 8.98958 11.4264 8.45573 11.9603L8.45052 11.9655C8.27344 12.1426 8.10677 12.3301 7.94792 12.5254C7.78906 12.7233 7.64063 12.929 7.5026 13.1426C6.79688 14.2415 6.38802 15.5514 6.38802 16.9551V16.9577C6.38802 17.9316 6.58594 18.8613 6.94271 19.7077C7 19.8457 7.0625 19.9811 7.13021 20.1139C7.47135 20.7962 7.92188 21.416 8.45833 21.9525C8.63802 22.1322 8.82813 22.3014 9.02344 22.4603C9.22136 22.6191 9.42708 22.7676 9.64063 22.9056C10.7396 23.6061 12.0495 24.015 13.4531 24.015H13.4557C14.4297 24.015 15.3594 23.8171 16.2057 23.4603C16.3438 23.403 16.4792 23.3405 16.612 23.2728C17.2943 22.9316 17.9141 22.4811 18.4505 21.9447C18.6302 21.765 18.8021 21.5749 18.9583 21.3796C19.1172 21.1816 19.2656 20.9759 19.4036 20.7624C19.9896 19.8509 20.3698 18.7988 20.4844 17.666L22.3385 17.3796C22.2865 18.4499 22.0469 19.4707 21.651 20.4108C21.5781 20.5827 21.5 20.7546 21.4141 20.9212C20.9844 21.7832 20.4167 22.5645 19.7448 23.2363L19.7396 23.2415C19.5156 23.4655 19.2786 23.6764 19.0339 23.877C18.7865 24.0775 18.526 24.265 18.2578 24.4368C16.8724 25.3249 15.224 25.8431 13.4583 25.8431C12.2318 25.8431 11.0599 25.5931 9.9974 25.1452C9.82552 25.0723 9.65365 24.9941 9.48698 24.9082C8.625 24.4785 7.84375 23.9108 7.17188 23.2389L7.16667 23.2311C6.94271 23.0072 6.73177 22.7728 6.53385 22.5254C6.33333 22.278 6.14583 22.0176 5.97396 21.7493C5.08333 20.3639 4.56771 18.7181 4.56771 16.9499V16.9473C4.56771 15.7207 4.81771 14.5488 5.26823 13.4863C5.34115 13.3144 5.41927 13.1426 5.50521 12.9759C5.9349 12.1139 6.5026 11.3327 7.17448 10.6608L7.17969 10.6556C7.40365 10.4316 7.63802 10.2207 7.88542 10.0228C8.13281 9.82226 8.39323 9.63476 8.66146 9.46289C10.0391 8.57226 11.6875 8.05664 13.4531 8.05664Z" fill="#FDD6F0"/>
</g>
</svg>
