<svg width="25" height="25" viewBox="0 0 25 25" fill="none" xmlns="http://www.w3.org/2000/svg">
<mask id="mask0_9_1742" style="mask-type:luminance" maskUnits="userSpaceOnUse" x="1" y="1" width="24" height="24">
<path d="M24.4082 1.42871H1.36816V24.4687H24.4082V1.42871Z" fill="white"/>
</mask>
<g mask="url(#mask0_9_1742)">
<path d="M19.6098 2.67383H12.4294C11.9749 2.67383 11.5384 2.85475 11.2169 3.1763L1.87043 12.521C1.20074 13.1907 1.20074 14.2763 1.87043 14.9468L9.0509 22.1273C9.72058 22.797 10.8061 22.797 11.4758 22.1273L20.8223 12.7825C21.1438 12.4602 21.3247 12.0237 21.3247 11.5684V4.38877C21.3247 3.44126 20.5573 2.67383 19.6098 2.67383ZM16.6086 8.67613C15.8986 8.67613 15.3224 8.09991 15.3224 7.38992C15.3224 6.67994 15.8986 6.10372 16.6086 6.10372C17.3187 6.10372 17.8949 6.67994 17.8949 7.38992C17.8949 8.09991 17.3187 8.67613 16.6086 8.67613Z" fill="#FFCD4C"/>
<path d="M23.0398 4.3877L23.0389 12.3699C23.0389 12.7652 22.8819 13.145 22.6016 13.4246L13.1042 22.922L13.25 23.0677C13.9197 23.7374 15.0052 23.7374 15.6749 23.0677L24.2514 14.493C24.5738 14.1715 24.7547 13.735 24.7547 13.2805V6.10263C24.7547 5.15513 23.9873 4.3877 23.0398 4.3877Z" fill="#FFCD4C"/>
</g>
</svg>
