<svg width="91" height="26" viewBox="0 0 91 26" fill="none" xmlns="http://www.w3.org/2000/svg">
<mask id="mask0_9_1586" style="mask-type:luminance" maskUnits="userSpaceOnUse" x="1" y="0" width="90" height="25">
<path d="M90.2488 0.906738H1.35986V24.9067H90.2488V0.906738Z" fill="white"/>
</mask>
<g mask="url(#mask0_9_1586)">
<g opacity="0.6">
<path d="M51.7153 8.9959C51.7153 6.41812 51.7598 4.01812 51.8931 1.7959L45.0931 3.08479V3.70701L45.7598 3.7959C46.2487 3.84034 46.5598 4.01812 46.7375 4.28479C46.9153 4.5959 47.0487 5.04034 47.1375 5.70701C47.2264 6.9959 47.3153 9.92923 47.2709 14.5515C47.2709 19.1293 47.2264 22.0182 47.1375 23.1293C49.582 23.6626 51.4931 23.8848 52.9153 23.8848C55.582 23.8848 57.6709 23.1293 59.182 21.5737C60.6931 20.0626 61.4931 17.9293 61.4931 15.307C61.4931 13.2182 60.9153 11.4848 59.7598 10.107C58.6042 8.72923 57.1375 8.06256 55.4042 8.06256C54.2487 8.06256 53.0487 8.37368 51.7153 8.9959ZM51.8487 22.6848C51.7598 21.2626 51.6709 16.9959 51.6709 10.0181C52.0709 9.88479 52.6042 9.7959 53.2709 9.7959C54.3376 9.7959 55.182 10.3292 55.8042 11.4404C56.4264 12.5515 56.7375 13.8848 56.7375 15.5737C56.7375 17.6626 56.382 19.3515 55.6709 20.7737C54.9598 22.1515 54.0709 22.8626 52.9598 22.8626C52.6042 22.7737 52.2487 22.7293 51.8487 22.6848ZM19.582 2.24034H1.8042V3.12923L2.73753 3.21812C3.44864 3.35145 3.93753 3.61812 4.24864 4.01812C4.55975 4.46256 4.73753 5.17368 4.78197 6.15145C5.13753 10.9515 5.13753 15.4404 4.78197 19.5737C4.69308 20.5515 4.51531 21.2626 4.24864 21.707C3.93753 22.1515 3.44864 22.4182 2.73753 22.507L1.8042 22.6404V23.5293H13.2709V22.6404L12.0709 22.5515C11.7781 22.527 11.4932 22.4435 11.2335 22.306C10.9738 22.1685 10.7446 21.9799 10.5598 21.7515C10.2486 21.307 10.0709 20.5959 10.0264 19.6182C9.89308 17.8404 9.8042 15.7959 9.8042 13.5293L12.2042 13.5737C13.4931 13.6182 14.382 14.5959 14.8264 16.5515H15.7153V9.30701H14.8264C14.382 11.2182 13.5375 12.1959 12.2042 12.2404L9.8042 12.2848C9.8042 8.28479 9.89308 5.44034 10.0264 3.70701H13.5375C16.0264 3.70701 17.7153 5.30701 18.6931 8.50701L19.7598 8.1959L19.582 2.24034ZM17.4931 15.9293C17.4931 18.2404 18.1598 20.1515 19.4487 21.6626C20.7375 23.1737 22.6487 23.8848 25.0487 23.8848C27.4487 23.8848 29.4042 23.1293 30.8264 21.5737C32.2487 20.0626 32.9153 18.1515 32.9153 15.8404C32.9153 13.5293 32.2487 11.6182 30.9598 10.107C29.6709 8.5959 27.7598 7.88479 25.3598 7.88479C22.9598 7.88479 21.0042 8.64034 19.582 10.1959C18.1598 11.707 17.4931 13.6182 17.4931 15.9293ZM27.4042 10.8626C27.9375 12.1515 28.1598 13.8404 28.1598 15.8848C28.1598 20.5959 27.182 22.907 25.2709 22.907C24.2931 22.907 23.5375 22.2404 23.0042 20.907C22.4709 19.5737 22.2487 17.8848 22.2487 15.8848C22.2487 11.2182 23.2264 8.90701 25.1375 8.90701C26.1153 8.86256 26.8709 9.52923 27.4042 10.8626ZM64.9598 21.6626C66.4264 23.1293 68.2931 23.8848 70.5153 23.8848C71.8931 23.8848 73.0931 23.6182 74.1598 23.0404C75.2264 22.507 76.0709 21.8404 76.6487 21.0404L76.2042 20.507C75.2264 21.2626 74.1153 21.6182 72.8264 21.6182C71.0487 21.6182 69.6709 21.0404 68.7375 19.8404C67.7598 18.6404 67.3153 17.1293 67.4042 15.1737H76.9153C76.9153 13.0404 76.382 11.307 75.2709 9.92923C74.1598 8.5959 72.6042 7.92923 70.6042 7.92923C68.1153 7.92923 66.2042 8.72923 64.8264 10.2848C63.4487 11.8404 62.782 13.7515 62.782 16.0182C62.782 18.3293 63.4931 20.1959 64.9598 21.6626ZM68.2487 10.507C68.7375 9.44034 69.3598 8.90701 70.2042 8.90701C71.5375 8.90701 72.2042 10.5959 72.2042 14.0182L67.4931 14.107C67.5376 12.7737 67.7598 11.5737 68.2487 10.507ZM88.8709 8.72923C87.6709 8.1959 86.1598 7.88479 84.3375 7.88479C82.4709 7.88479 81.0042 8.37368 79.8931 9.30701C78.782 10.2403 78.2042 11.3959 78.2042 12.7737C78.2042 13.9737 78.5598 14.907 79.2264 15.5737C79.8931 16.2404 80.9598 16.8182 82.3375 17.307C83.582 17.7515 84.4709 18.1959 84.9153 18.5959C85.3598 19.0404 85.6264 19.5293 85.6264 20.1959C85.6264 20.8182 85.4042 21.3959 84.9153 21.8404C84.4709 22.3293 83.8487 22.5515 83.0487 22.5515C81.0931 22.5515 79.6264 21.1293 78.6042 18.2848L77.8487 18.507L78.0264 22.9515C79.6264 23.5737 81.4042 23.8848 83.3598 23.8848C85.4042 23.8848 86.9598 23.4404 88.1153 22.507C89.2709 21.6182 89.8487 20.3293 89.8487 18.7293C89.8487 17.6626 89.582 16.7737 89.0042 16.107C88.4264 15.4404 87.4931 14.8626 86.1598 14.3293C84.6931 13.7959 83.6709 13.307 83.1376 12.8626C82.6042 12.4182 82.3375 11.8848 82.3375 11.2182C82.3375 10.5515 82.5153 10.0181 82.9153 9.57368C83.3153 9.12923 83.8042 8.95145 84.4264 8.95145C86.2042 8.95145 87.4931 10.2403 88.2931 12.7737L89.0487 12.5515L88.8709 8.72923ZM46.1153 8.32923C45.4931 8.01812 44.8264 7.88479 44.0709 7.88479C43.3153 7.88479 42.5598 8.1959 41.7153 8.81812C40.8709 9.44034 40.2487 10.2848 39.7598 11.4404L39.8042 7.88479L33.0487 9.21812V9.84034L33.7153 9.88479C34.5598 9.97368 35.0487 10.6404 35.1375 11.8404C35.4042 14.5959 35.4042 17.5293 35.1375 20.6404C35.0487 21.8404 34.5598 22.4626 33.7153 22.5959L33.0487 22.6848V23.5293H42.4709V22.6848L41.2709 22.5959C40.4264 22.507 39.9375 21.8404 39.8487 20.6404C39.582 18.0626 39.5375 15.307 39.7598 12.4626C40.0264 12.0182 40.6042 11.7515 41.4931 11.6626C42.382 11.5737 43.4042 11.8404 44.4709 12.4626L46.1153 8.32923Z" fill="white"/>
</g>
</g>
</svg>
