<svg width="31" height="21" viewBox="0 0 31 21" fill="none" xmlns="http://www.w3.org/2000/svg">
<path d="M26.8882 0.458008H4.88818C2.67904 0.458008 0.888184 2.24887 0.888184 4.45801V16.458C0.888184 18.6671 2.67904 20.458 4.88818 20.458H26.8882C29.0973 20.458 30.8882 18.6671 30.8882 16.458V4.45801C30.8882 2.24887 29.0973 0.458008 26.8882 0.458008Z" fill="#1F72CD"/>
<path fill-rule="evenodd" clip-rule="evenodd" d="M6.53355 7.41699L3.80615 13.4925H7.07123L7.47601 12.5238H8.40124L8.80601 13.4925H12.4V12.7532L12.7202 13.4925H14.5793L14.8995 12.7375V13.4925H22.374L23.2828 12.549L24.1338 13.4925L27.9728 13.5003L25.2368 10.4717L27.9728 7.41699H24.1934L23.3086 8.34309L22.4844 7.41699H14.3532L13.655 8.98514L12.9404 7.41699H9.68211V8.13117L9.31965 7.41699H6.53355ZM17.695 8.27975H21.9872L23.2999 9.70715L24.655 8.27975H25.9678L23.9732 10.4709L25.9678 12.6368H24.5955L23.2827 11.1928L21.9207 12.6368H17.695V8.27975ZM18.755 9.97804V9.1822L21.4332 9.18144L22.6018 10.4542L21.3814 11.7339H18.755V10.8651H21.0965V9.97804H18.755ZM7.16531 8.27975H8.75686L10.566 12.3996V8.27975H12.3095L13.7068 11.2336L14.9945 8.27975H16.7293V12.6393H15.6737L15.6651 9.22319L14.1262 12.6393H13.182L11.6344 9.22319V12.6393H9.46285L9.05117 11.662H6.82699L6.41615 12.6385H5.25266L7.16531 8.27975ZM7.2068 10.7583L7.93958 9.01725L8.67151 10.7583H7.2068Z" fill="white"/>
</svg>
