<svg width="16" height="17" viewBox="0 0 16 17" fill="none" xmlns="http://www.w3.org/2000/svg">
<path d="M8 0.53125C3.58172 0.53125 0 4.11297 0 8.53125C0 12.9496 3.58172 16.5312 8 16.5312C12.4183 16.5312 16 12.9496 16 8.53125C15.9952 4.11494 12.4163 0.536031 8 0.53125ZM10.6667 10.2559C10.9376 10.5052 10.9551 10.9271 10.7057 11.198C10.4564 11.4689 10.0346 11.4864 9.76372 11.2369C9.75016 11.2246 9.73716 11.2115 9.72466 11.198L8 9.47391L6.276 11.198C6.01116 11.4537 5.58913 11.4464 5.33334 11.1816C5.08384 10.9232 5.08384 10.5136 5.33334 10.2552L7.05734 8.53125L5.33334 6.80725C5.07756 6.54241 5.08491 6.12038 5.34975 5.86459C5.60809 5.61509 6.01766 5.61509 6.276 5.86459L8 7.58859L9.72466 5.86459C9.974 5.59369 10.3958 5.57619 10.6667 5.82553C10.9376 6.07488 10.9551 6.49663 10.7057 6.76753C10.6933 6.78109 10.6802 6.79409 10.6667 6.80659L8.94266 8.53125L10.6667 10.2559Z" fill="#564B5D"/>
</svg>
