<svg width="32" height="21" viewBox="0 0 32 21" fill="none" xmlns="http://www.w3.org/2000/svg">
<path d="M30 0.662109H2C1.17157 0.662109 0.5 1.33368 0.5 2.16211V18.1621C0.5 18.9905 1.17157 19.6621 2 19.6621H30C30.8284 19.6621 31.5 18.9905 31.5 18.1621V2.16211C31.5 1.33368 30.8284 0.662109 30 0.662109Z" fill="white"/>
<path d="M30 0.662109H2C1.17157 0.662109 0.5 1.33368 0.5 2.16211V18.1621C0.5 18.9905 1.17157 19.6621 2 19.6621H30C30.8284 19.6621 31.5 18.9905 31.5 18.1621V2.16211C31.5 1.33368 30.8284 0.662109 30 0.662109Z" stroke="#EDEEF0"/>
<mask id="mask0_9_555" style="mask-type:luminance" maskUnits="userSpaceOnUse" x="5" y="6" width="22" height="10">
<path d="M27 6.16211H5V15.1621H27V6.16211Z" fill="white"/>
</mask>
<g mask="url(#mask0_9_555)">
<path d="M9.02326 7.32243C8.76545 7.62643 8.35295 7.8662 7.94045 7.83195C7.88889 7.42091 8.09084 6.98418 8.32717 6.71444C8.58498 6.40188 9.03615 6.17924 9.40139 6.16211C9.44435 6.59027 9.27678 7.00987 9.02326 7.32243ZM9.39709 7.9133C8.79982 7.87905 8.2885 8.25155 8.0049 8.25155C7.71701 8.25155 7.28303 7.93043 6.81037 7.93899C6.19592 7.94755 5.62443 8.29437 5.31076 8.8467C4.66623 9.95136 5.14318 11.5869 5.76623 12.4861C6.07131 12.9314 6.43654 13.4195 6.91779 13.4023C7.37326 13.3852 7.55373 13.1069 8.10373 13.1069C8.65803 13.1069 8.81701 13.4023 9.29826 13.3938C9.7967 13.3852 10.1104 12.9485 10.4154 12.5032C10.7635 11.998 10.9053 11.5056 10.9139 11.4799C10.9053 11.4713 9.95139 11.1074 9.94279 10.0113C9.9342 9.09503 10.6947 8.6583 10.7291 8.63261C10.2994 7.99893 9.62912 7.93043 9.39709 7.9133ZM12.8475 6.67162V13.3467H13.8873V11.0646H15.3268C16.6416 11.0646 17.5654 10.1654 17.5654 8.86382C17.5654 7.56221 16.6588 6.67162 15.3612 6.67162H12.8475ZM13.8873 7.54508H15.0862C15.9885 7.54508 16.5041 8.02462 16.5041 8.8681C16.5041 9.71159 15.9885 10.1954 15.0819 10.1954H13.8873V7.54508ZM19.4647 13.3981C20.1178 13.3981 20.7236 13.0684 20.9986 12.546H21.0201V13.3467H21.9826V10.0241C21.9826 9.06078 21.2092 8.43994 20.019 8.43994C18.9147 8.43994 18.0983 9.06934 18.0682 9.93423H19.0049C19.0822 9.52319 19.4647 9.25345 19.9889 9.25345C20.6248 9.25345 20.9815 9.54888 20.9815 10.0926V10.4609L19.6838 10.5379C18.4764 10.6107 17.8233 11.1031 17.8233 11.9594C17.8233 12.8243 18.4979 13.3981 19.4647 13.3981ZM19.744 12.606C19.1897 12.606 18.8373 12.3405 18.8373 11.9337C18.8373 11.5141 19.1768 11.2701 19.8256 11.2316L20.9815 11.1588V11.5356C20.9815 12.1607 20.4487 12.606 19.744 12.606ZM23.2674 15.1621C24.2815 15.1621 24.7584 14.7768 25.1752 13.6079L27.0014 8.50417H25.9444L24.7197 12.4475H24.6983L23.4736 8.50417H22.3865L24.1483 13.3638L24.0537 13.6592C23.8947 14.1602 23.6369 14.3529 23.1772 14.3529C23.0955 14.3529 22.9365 14.3443 22.8721 14.3357V15.1364C22.9322 15.1535 23.1901 15.1621 23.2674 15.1621Z" fill="black"/>
</g>
</svg>
