<svg width="57" height="21" viewBox="0 0 57 21" fill="none" xmlns="http://www.w3.org/2000/svg">
<path fill-rule="evenodd" clip-rule="evenodd" d="M26.9642 0.5C25.805 0.5 24.9134 1.45238 24.9134 2.56649C24.9134 3.69856 25.805 4.59703 26.9642 4.59703C28.1234 4.59703 28.9616 3.69856 28.9616 2.56649C28.9616 1.45238 28.1234 0.5 26.9642 0.5ZM28.5692 5.29785L24.6815 6.80727C25.9834 8.20889 25.9121 12.8989 25.6267 13.9771C25.4662 14.606 25.1809 15.2529 24.6459 16.0256C24.5924 16.0885 24.5077 16.1873 24.423 16.2862C24.3382 16.385 24.2535 16.4838 24.2 16.5467L23.6472 17.0139H29.6036C29.1042 16.5827 28.5692 15.3248 28.5692 13.0966V5.29785ZM0.69551 16.7624L0 10.6168C0 10.6168 1.24835 12.1083 1.35535 12.2341C4.17304 15.9358 6.93722 16.7983 7.9359 16.8342C8.79191 16.8342 9.36258 16.5288 9.57658 15.5045C9.93325 13.7974 7.36523 12.1622 5.01121 10.9043C4.97555 10.8863 4.94434 10.8684 4.91313 10.8504C4.88192 10.8324 4.85071 10.8145 4.81504 10.7965C2.62152 9.61051 0.588503 7.99326 0.588503 5.22596C0.588503 2.4407 3.04953 1.16487 5.97422 1.16487C8.1499 1.16487 9.79058 1.5602 10.7358 2.00944L11.6453 6.46586H11.6096C9.55875 3.39308 6.20605 1.47035 4.63671 1.45238C3.7272 1.45238 2.63936 1.86568 2.62152 2.78212C2.58586 3.55481 3.1387 5.01033 7.06207 6.969C10.1829 8.51438 11.8236 10.2574 11.8414 12.5934C11.8593 15.0193 9.77275 16.7624 7.52573 17.1577C4.63671 17.6608 1.96169 17.2835 0.69551 16.7624ZM12.6365 8.31549C12.4598 7.90107 12.3182 7.56887 12.2338 7.50809L16.5495 5.27987V7.36433C16.71 7.04088 17.7443 5.63926 19.92 5.63926C22.1135 5.63926 24.414 7.13073 24.414 11.1379C24.414 15.4686 21.7034 17.1756 19.8308 17.1756C18.1723 17.1756 17.0845 16.2412 16.6565 15.8639C16.603 15.81 16.5673 15.774 16.5316 15.7561V16.7624C16.5316 18.5234 17.0666 20.0687 17.566 20.5H11.6453C12.7832 19.7128 13.1285 18.1596 13.3129 17.3304C13.3221 17.2889 13.3309 17.2493 13.3394 17.2116C13.3684 17.0851 13.3922 16.9533 13.4164 16.8191C13.4368 16.7055 13.4576 16.5902 13.4821 16.4748C13.5647 16.0726 13.6048 15.4028 13.6352 14.895C13.6442 14.7449 13.6523 14.6089 13.6605 14.4982C13.7853 12.6114 13.6961 10.6707 12.9114 8.94564C12.8134 8.73058 12.7209 8.51363 12.6365 8.31549ZM16.4603 7.75966L16.5138 15.5943C16.8883 15.9897 17.5838 16.4928 18.6895 16.4748C20.3837 16.4569 21.0435 14.5162 21.0257 11.3715C20.9722 7.90341 20.027 6.16037 18.6182 6.26819C17.4768 6.35804 16.6921 7.11276 16.4603 7.75966ZM31.6188 9.23315C31.4583 8.53234 30.9054 7.27448 30.7628 7.16666L34.9893 5.33379L34.811 10.0957C35.2925 7.50809 36.6121 5.96272 39.3942 5.69318L38.7165 8.99955C37.2542 8.6761 34.811 8.38859 34.811 10.7606L34.7931 13.3482C34.8944 15.3718 35.7303 16.4781 36.0918 16.9565C36.1123 16.9836 36.1312 17.0088 36.1485 17.0319H30.5309C31.3513 16.1514 31.6901 15.2349 31.8684 14.031C32.0111 12.9888 31.9576 10.7066 31.6188 9.23315ZM42.3545 0.571882C41.1953 0.571882 40.3037 1.52426 40.3037 2.63837C40.3037 3.77044 41.1953 4.65095 42.3545 4.66892C43.5137 4.66892 44.3519 3.77044 44.3519 2.63837C44.3519 1.52426 43.5137 0.571882 42.3545 0.571882ZM43.9774 5.35175L40.0897 6.86119C41.3737 8.26281 41.3023 12.9708 41.0348 14.049C40.8743 14.6779 40.589 15.3248 40.054 16.0975C40.0005 16.1604 39.9156 16.2594 39.8309 16.3583C39.7462 16.4571 39.6616 16.5558 39.6082 16.6186L39.0553 17.0858H45.0117C44.5124 16.6545 43.9774 15.3967 43.9774 13.1685V5.35175ZM45.3682 11.3534C45.3682 8.15487 47.9363 5.35164 51.075 5.60321C54.0353 5.83682 56.532 8.3166 56.746 11.3714C56.96 14.552 54.2315 17.1396 51.0571 17.1396C47.9006 17.1396 45.3682 14.5879 45.3682 11.3534ZM47.9006 8.22675C47.8114 11.2816 50.0228 16.6005 52.7335 16.7263C53.5716 16.7622 54.0532 16.0614 54.0175 14.534C53.9996 11.8386 52.0915 7.11264 49.2381 6.16026C48.3643 5.87275 47.9363 6.96889 47.9006 8.22675ZM49.7909 8.72989C49.3808 10.401 50.3795 13.7613 52.2698 14.6059C52.5373 12.7191 51.6991 9.64633 49.7909 8.72989Z" fill="url(#paint0_linear_39_88)"/>
<defs>
<linearGradient id="paint0_linear_39_88" x1="30.0006" y1="0.42375" x2="86.4041" y2="38.8696" gradientUnits="userSpaceOnUse">
<stop stop-color="white"/>
<stop offset="1" stop-color="#59382A" stop-opacity="0"/>
</linearGradient>
</defs>
</svg>
