<svg width="20" height="17" viewBox="0 0 20 17" fill="none" xmlns="http://www.w3.org/2000/svg">
<path d="M17.6344 6.9467H4.29134L8.68117 2.55687C8.80624 2.43283 8.9055 2.28526 8.97324 2.12266C9.04098 1.96006 9.07586 1.78566 9.07586 1.60952C9.07586 1.43338 9.04098 1.25898 8.97324 1.09638C8.9055 0.933787 8.80624 0.786213 8.68117 0.662173C8.43118 0.413659 8.093 0.27417 7.74049 0.27417C7.38799 0.27417 7.04981 0.413659 6.79982 0.662173L1.07569 6.39964C0.574542 6.8978 0.291431 7.57438 0.288452 8.28099C0.294946 8.98297 0.577787 9.65412 1.07569 10.149L6.79982 15.8865C6.92422 16.01 7.07174 16.1079 7.23396 16.1744C7.39617 16.2409 7.56989 16.2748 7.74521 16.2742C7.92053 16.2736 8.09401 16.2384 8.25575 16.1708C8.41749 16.1031 8.56431 16.0042 8.68784 15.8798C8.81138 15.7554 8.90919 15.6079 8.97571 15.4457C9.04223 15.2835 9.07615 15.1098 9.07553 14.9344C9.07491 14.7591 9.03977 14.5856 8.9721 14.4239C8.90444 14.2622 8.80558 14.1153 8.68117 13.9918L4.29134 9.61529H17.6344C17.9882 9.61529 18.3276 9.47471 18.5778 9.22448C18.8281 8.97425 18.9686 8.63487 18.9686 8.28099C18.9686 7.92712 18.8281 7.58773 18.5778 7.33751C18.3276 7.08728 17.9882 6.9467 17.6344 6.9467Z" fill="white"/>
</svg>
