<svg width="42" height="12" viewBox="0 0 42 12" fill="none" xmlns="http://www.w3.org/2000/svg">
<path d="M6.87782 10.9826C5.70595 10.9826 4.68598 10.783 3.81793 10.3836C2.94987 9.98432 2.27713 9.41791 1.7997 8.68441C1.32227 7.94656 1.08356 7.0785 1.08356 6.08024V6.06722C1.08356 5.06895 1.32227 4.20307 1.7997 3.46956C2.27713 2.73606 2.94987 2.16965 3.81793 1.77034C4.69032 1.37104 5.71029 1.17139 6.87782 1.17139C8.05404 1.17139 9.07618 1.37104 9.94423 1.77034C10.8123 2.16965 11.4851 2.73606 11.9625 3.46956C12.4399 4.20307 12.6787 5.06895 12.6787 6.06722V6.08024C12.6787 7.0785 12.4399 7.94439 11.9625 8.6779C11.4851 9.4114 10.8123 9.97998 9.94423 10.3836C9.07618 10.783 8.05404 10.9826 6.87782 10.9826ZM6.87782 9.26383C7.61133 9.26383 8.24718 9.13363 8.78538 8.87321C9.32791 8.61279 9.74675 8.24387 10.0419 7.76644C10.3414 7.28901 10.4911 6.72694 10.4911 6.08024V6.06722C10.4911 5.42052 10.3414 4.86062 10.0419 4.38753C9.74675 3.9101 9.32791 3.54118 8.78538 3.28076C8.24718 3.02034 7.61133 2.89014 6.87782 2.89014C6.14866 2.89014 5.51281 3.02034 4.97027 3.28076C4.43208 3.54118 4.01324 3.9101 3.71376 4.38753C3.41862 4.86062 3.27105 5.42052 3.27105 6.06722V6.08024C3.27105 6.72694 3.41862 7.28901 3.71376 7.76644C4.0089 8.24387 4.42774 8.61279 4.97027 8.87321C5.51281 9.13363 6.14866 9.26383 6.87782 9.26383ZM10.094 11.7053L6.60439 7.68831H8.69423L12.1839 11.7053H10.094ZM19.7815 10.9761C18.7442 10.9761 17.8458 10.8047 17.0862 10.4618C16.331 10.1189 15.7472 9.62191 15.3349 8.97086C14.9269 8.31982 14.7229 7.52772 14.7229 6.59456V1.37972H16.8649V6.52946C16.8649 7.10672 16.9755 7.59934 17.1969 8.00732C17.4226 8.41097 17.7503 8.71913 18.18 8.9318C18.614 9.14448 19.1478 9.25081 19.7815 9.25081C20.4152 9.25081 20.9469 9.14448 21.3766 8.9318C21.8106 8.71913 22.1383 8.41097 22.3596 8.00732C22.581 7.59934 22.6917 7.10672 22.6917 6.52946V1.37972H24.8401V6.59456C24.8401 7.52338 24.6361 8.31548 24.2281 8.97086C23.8201 9.62191 23.2364 10.1189 22.4768 10.4618C21.7216 10.8047 20.8232 10.9761 19.7815 10.9761ZM27.3076 10.7743V1.37972H29.456V10.7743H27.3076ZM31.663 10.7743V9.41357L37.9 3.13102V3.06592H31.7867V1.37972H40.8622V2.7404L34.6383 9.02295V9.08805H41.012V10.7743H31.663Z" fill="white" fill-opacity="0.4"/>
</svg>
