<svg width="20" height="17" viewBox="0 0 20 17" fill="none" xmlns="http://www.w3.org/2000/svg">
<path d="M18.1344 6.94676H4.79134L9.18117 2.55693C9.30624 2.43289 9.4055 2.28532 9.47324 2.12272C9.54098 1.96012 9.57586 1.78572 9.57586 1.60958C9.57586 1.43344 9.54098 1.25904 9.47324 1.09644C9.4055 0.933848 9.30624 0.786274 9.18117 0.662234C8.93118 0.41372 8.593 0.274231 8.24049 0.274231C7.88799 0.274231 7.54981 0.41372 7.29982 0.662234L1.57569 6.3997C1.07454 6.89786 0.791431 7.57444 0.788452 8.28105C0.794946 8.98303 1.07779 9.65418 1.57569 10.1491L7.29982 15.8865C7.42422 16.01 7.57174 16.1079 7.73396 16.1744C7.89617 16.2409 8.06989 16.2748 8.24521 16.2742C8.42053 16.2736 8.59401 16.2384 8.75575 16.1708C8.91749 16.1031 9.06431 16.0042 9.18784 15.8798C9.31138 15.7554 9.40919 15.6079 9.47571 15.4457C9.54223 15.2835 9.57615 15.1098 9.57553 14.9344C9.57491 14.7591 9.53977 14.5856 9.4721 14.4239C9.40444 14.2622 9.30558 14.1153 9.18117 13.9918L4.79134 9.61535H18.1344C18.4882 9.61535 18.8276 9.47477 19.0778 9.22454C19.3281 8.97431 19.4686 8.63493 19.4686 8.28105C19.4686 7.92718 19.3281 7.58779 19.0778 7.33757C18.8276 7.08734 18.4882 6.94676 18.1344 6.94676Z" fill="white"/>
</svg>
