<svg width="42" height="12" viewBox="0 0 42 12" fill="none" xmlns="http://www.w3.org/2000/svg">
<path d="M6.83632 10.7264C5.66445 10.7264 4.64448 10.5268 3.77643 10.1275C2.90837 9.72822 2.23563 9.16181 1.7582 8.42831C1.28077 7.69046 1.04205 6.8224 1.04205 5.82414V5.81112C1.04205 4.81285 1.28077 3.94697 1.7582 3.21346C2.23563 2.47996 2.90837 1.91355 3.77643 1.51424C4.64882 1.11494 5.66879 0.915283 6.83632 0.915283C8.01254 0.915283 9.03468 1.11494 9.90273 1.51424C10.7707 1.91355 11.4435 2.47996 11.9209 3.21346C12.3983 3.94697 12.6371 4.81285 12.6371 5.81112V5.82414C12.6371 6.8224 12.3983 7.68829 11.9209 8.4218C11.4435 9.1553 10.7707 9.72388 9.90273 10.1275C9.03468 10.5268 8.01254 10.7264 6.83632 10.7264ZM6.83632 9.00773C7.56983 9.00773 8.20568 8.87753 8.74388 8.61711C9.28641 8.35669 9.70525 7.98777 10.0004 7.51034C10.2999 7.03291 10.4496 6.47084 10.4496 5.82414V5.81112C10.4496 5.16442 10.2999 4.60452 10.0004 4.13143C9.70525 3.654 9.28641 3.28508 8.74388 3.02466C8.20568 2.76424 7.56983 2.63404 6.83632 2.63404C6.10716 2.63404 5.47131 2.76424 4.92877 3.02466C4.39058 3.28508 3.97174 3.654 3.67226 4.13143C3.37712 4.60452 3.22955 5.16442 3.22955 5.81112V5.82414C3.22955 6.47084 3.37712 7.03291 3.67226 7.51034C3.9674 7.98777 4.38624 8.35669 4.92877 8.61711C5.47131 8.87753 6.10716 9.00773 6.83632 9.00773ZM10.0525 11.4491L6.56289 7.43221H8.65273L12.1423 11.4491H10.0525ZM19.74 10.7199C18.7027 10.7199 17.8042 10.5485 17.0446 10.2056C16.2894 9.86277 15.7056 9.36581 15.2933 8.71476C14.8853 8.06372 14.6813 7.27162 14.6813 6.33846V1.12362H16.8233V6.27336C16.8233 6.85062 16.9339 7.34324 17.1553 7.75122C17.381 8.15487 17.7088 8.46303 18.1385 8.6757C18.5725 8.88838 19.1063 8.99471 19.74 8.99471C20.3737 8.99471 20.9054 8.88838 21.3351 8.6757C21.7691 8.46303 22.0968 8.15487 22.3181 7.75122C22.5395 7.34324 22.6502 6.85062 22.6502 6.27336V1.12362H24.7985V6.33846C24.7985 7.26728 24.5946 8.05938 24.1866 8.71476C23.7786 9.36581 23.1948 9.86277 22.4352 10.2056C21.68 10.5485 20.7817 10.7199 19.74 10.7199ZM27.2661 10.5181V1.12362H29.4144V10.5181H27.2661ZM31.6215 10.5181V9.15747L37.8584 2.87492V2.80982H31.7451V1.12362H40.8206V2.4843L34.5967 8.76685V8.83195H40.9704V10.5181H31.6215Z" fill="white" fill-opacity="0.4"/>
</svg>
