<svg width="58" height="21" viewBox="0 0 58 21" fill="none" xmlns="http://www.w3.org/2000/svg">
<path fill-rule="evenodd" clip-rule="evenodd" d="M27.9478 0.934814C26.7886 0.934814 25.897 1.8872 25.897 3.0013C25.897 4.13337 26.7886 5.03184 27.9478 5.03184C29.107 5.03184 29.9452 4.13337 29.9452 3.0013C29.9452 1.8872 29.107 0.934814 27.9478 0.934814ZM29.5528 5.73266L25.6651 7.24208C26.967 8.6437 26.8957 13.3337 26.6103 14.4119C26.4498 15.0408 26.1645 15.6877 25.6295 16.4604C25.576 16.5233 25.4913 16.6221 25.4066 16.721C25.3218 16.8198 25.2371 16.9186 25.1836 16.9815L24.6308 17.4487H30.5872C30.0878 17.0175 29.5528 15.7596 29.5528 13.5314V5.73266ZM1.67915 17.1972L0.983643 11.0516C0.983643 11.0516 2.23199 12.5431 2.33899 12.6689C5.15668 16.3706 7.92086 17.2331 8.91954 17.269C9.77555 17.269 10.3462 16.9636 10.5602 15.9393C10.9169 14.2322 8.34887 12.597 5.99485 11.3391C5.95919 11.3211 5.92798 11.3032 5.89677 11.2852C5.86556 11.2672 5.83435 11.2493 5.79868 11.2313C3.60516 10.0453 1.57215 8.42807 1.57215 5.66077C1.57215 2.87551 4.03317 1.59969 6.95786 1.59969C9.13354 1.59969 10.7742 1.99501 11.7194 2.44425L12.6289 6.90067H12.5932C10.5424 3.82789 7.18969 1.90516 5.62035 1.88719C4.71084 1.88719 3.623 2.30049 3.60516 3.21693C3.5695 3.98962 4.12234 5.44514 8.04571 7.40381C11.1665 8.94919 12.8072 10.6922 12.825 13.0282C12.8429 15.4541 10.7564 17.1972 8.50937 17.5925C5.62035 18.0956 2.94533 17.7183 1.67915 17.1972ZM13.6201 8.7503C13.4434 8.33588 13.3018 8.00368 13.2174 7.9429L17.5331 5.71468V7.79914C17.6936 7.47569 18.7279 6.07407 20.9036 6.07407C23.0971 6.07407 25.3976 7.56554 25.3976 11.5727C25.3976 15.9034 22.687 17.6104 20.8144 17.6104C19.1559 17.6104 18.0681 16.676 17.6401 16.2987C17.5866 16.2448 17.5509 16.2088 17.5152 16.1909V17.1972C17.5152 18.9582 18.0502 20.5035 18.5496 20.9348H12.6289C13.7668 20.1476 14.1121 18.5944 14.2965 17.7652C14.3057 17.7237 14.3145 17.6841 14.323 17.6464C14.352 17.5199 14.3758 17.3881 14.4 17.2539C14.4204 17.1403 14.4412 17.025 14.4657 16.9096C14.5483 16.5074 14.5884 15.8376 14.6188 15.3298C14.6278 15.1797 14.6359 15.0437 14.6441 14.933C14.7689 13.0462 14.6797 11.1055 13.895 9.38045C13.797 9.16539 13.7045 8.94844 13.6201 8.7503ZM17.4439 8.19447L17.4974 16.0291C17.8719 16.4245 18.5674 16.9276 19.6731 16.9096C21.3673 16.8917 22.0271 14.951 22.0093 11.8063C21.9558 8.33822 21.0106 6.59518 19.6018 6.703C18.4604 6.79285 17.6757 7.54757 17.4439 8.19447ZM32.6024 9.66796C32.4419 8.96715 31.889 7.70929 31.7464 7.60147L35.9729 5.7686L35.7946 10.5305C36.2761 7.9429 37.5957 6.39753 40.3778 6.12799L39.7001 9.43436C38.2378 9.11091 35.7946 8.8234 35.7946 11.1954L35.7767 13.783C35.878 15.8066 36.7139 16.9129 37.0754 17.3913C37.0959 17.4184 37.1148 17.4436 37.1321 17.4667H31.5145C32.3349 16.5862 32.6737 15.6697 32.852 14.4658C32.9947 13.4236 32.9412 11.1414 32.6024 9.66796ZM43.3381 1.0067C42.1789 1.0067 41.2873 1.95907 41.2873 3.07318C41.2873 4.20525 42.1789 5.08576 43.3381 5.10373C44.4973 5.10373 45.3355 4.20525 45.3355 3.07318C45.3355 1.95907 44.4973 1.0067 43.3381 1.0067ZM44.961 5.78656L41.0733 7.296C42.3573 8.69762 42.2859 13.4056 42.0184 14.4838C41.8579 15.1127 41.5726 15.7596 41.0376 16.5323C40.9841 16.5952 40.8992 16.6942 40.8145 16.7931C40.7298 16.8919 40.6452 16.9906 40.5918 17.0534L40.0389 17.5206H45.9953C45.496 17.0893 44.961 15.8315 44.961 13.6033V5.78656ZM46.3518 11.7882C46.3518 8.58968 48.9199 5.78645 52.0586 6.03802C55.0189 6.27163 57.5156 8.75141 57.7296 11.8062C57.9436 14.9868 55.2151 17.5744 52.0407 17.5744C48.8842 17.5744 46.3518 15.0227 46.3518 11.7882ZM48.8842 8.66156C48.795 11.7164 51.0064 17.0353 53.7171 17.1611C54.5552 17.197 55.0368 16.4962 55.0011 14.9688C54.9832 12.2734 53.0751 7.54745 50.2217 6.59507C49.3479 6.30756 48.9199 7.4037 48.8842 8.66156ZM50.7745 9.1647C50.3644 10.8359 51.3631 14.1961 53.2534 15.0407C53.5209 13.1539 52.6827 10.0811 50.7745 9.1647Z" fill="url(#paint0_linear_41_77)"/>
<defs>
<linearGradient id="paint0_linear_41_77" x1="30.9842" y1="0.858565" x2="87.3877" y2="39.3044" gradientUnits="userSpaceOnUse">
<stop stop-color="white"/>
<stop offset="1" stop-color="#59382A" stop-opacity="0"/>
</linearGradient>
</defs>
</svg>
