<svg width="20" height="17" viewBox="0 0 20 17" fill="none" xmlns="http://www.w3.org/2000/svg">
<path d="M18.3295 7.6071H4.98653L9.37636 3.21727C9.50143 3.09323 9.60069 2.94566 9.66843 2.78306C9.73617 2.62046 9.77105 2.44606 9.77105 2.26992C9.77105 2.09378 9.73617 1.91938 9.66843 1.75678C9.60069 1.59419 9.50143 1.44661 9.37636 1.32257C9.12637 1.07406 8.78819 0.93457 8.43568 0.93457C8.08318 0.93457 7.745 1.07406 7.49501 1.32257L1.77088 7.06004C1.26973 7.5582 0.986622 8.23478 0.983643 8.94139C0.990136 9.64337 1.27298 10.3145 1.77088 10.8094L7.49501 16.5469C7.61941 16.6704 7.76693 16.7683 7.92915 16.8348C8.09136 16.9013 8.26508 16.9352 8.4404 16.9346C8.61572 16.934 8.7892 16.8988 8.95094 16.8312C9.11268 16.7635 9.2595 16.6646 9.38303 16.5402C9.50657 16.4158 9.60438 16.2683 9.6709 16.1061C9.73742 15.9439 9.77134 15.7702 9.77072 15.5948C9.7701 15.4195 9.73496 15.246 9.66729 15.0843C9.59963 14.9226 9.50077 14.7757 9.37636 14.6522L4.98653 10.2757H18.3295C18.6833 10.2757 19.0227 10.1351 19.2729 9.88488C19.5232 9.63465 19.6637 9.29527 19.6637 8.94139C19.6637 8.58752 19.5232 8.24813 19.2729 7.99791C19.0227 7.74768 18.6833 7.6071 18.3295 7.6071Z" fill="white"/>
</svg>
