<svg width="20" height="17" viewBox="0 0 20 17" fill="none" xmlns="http://www.w3.org/2000/svg">
<path d="M17.8295 7.60734H4.48653L8.87636 3.21751C9.00143 3.09347 9.10069 2.9459 9.16843 2.7833C9.23617 2.6207 9.27105 2.4463 9.27105 2.27016C9.27105 2.09402 9.23617 1.91962 9.16843 1.75703C9.10069 1.59443 9.00143 1.44686 8.87636 1.32282C8.62637 1.0743 8.28819 0.934814 7.93568 0.934814C7.58318 0.934814 7.245 1.0743 6.99501 1.32282L1.27088 7.06028C0.769733 7.55844 0.486622 8.23502 0.483643 8.94163C0.490136 9.64361 0.772978 10.3148 1.27088 10.8097L6.99501 16.5471C7.11941 16.6706 7.26693 16.7685 7.42915 16.835C7.59136 16.9015 7.76508 16.9354 7.9404 16.9348C8.11572 16.9342 8.2892 16.899 8.45094 16.8314C8.61268 16.7637 8.7595 16.6648 8.88303 16.5404C9.00657 16.416 9.10438 16.2685 9.1709 16.1063C9.23742 15.9441 9.27134 15.7704 9.27072 15.595C9.2701 15.4197 9.23496 15.2462 9.16729 15.0845C9.09963 14.9228 9.00077 14.7759 8.87636 14.6524L4.48653 10.2759H17.8295C18.1833 10.2759 18.5227 10.1354 18.7729 9.88512C19.0232 9.63489 19.1637 9.29551 19.1637 8.94163C19.1637 8.58776 19.0232 8.24837 18.7729 7.99815C18.5227 7.74792 18.1833 7.60734 17.8295 7.60734Z" fill="white"/>
</svg>
