<svg width="20" height="17" viewBox="0 0 20 17" fill="none" xmlns="http://www.w3.org/2000/svg">
<path d="M18.0279 6.68791H4.6849L9.07473 2.29808C9.1998 2.17404 9.29906 2.02647 9.3668 1.86387C9.43454 1.70127 9.46942 1.52687 9.46942 1.35073C9.46942 1.17459 9.43454 1.00019 9.3668 0.837594C9.29906 0.674998 9.1998 0.527424 9.07473 0.403384C8.82474 0.15487 8.48656 0.0153809 8.13405 0.0153809C7.78155 0.0153809 7.44337 0.15487 7.19338 0.403384L1.46924 6.14085C0.968097 6.63901 0.684986 7.31559 0.682007 8.0222C0.6885 8.72418 0.971342 9.39533 1.46924 9.89022L7.19338 15.6277C7.31778 15.7512 7.4653 15.8491 7.62752 15.9156C7.78973 15.9821 7.96345 16.016 8.13877 16.0154C8.31409 16.0148 8.48757 15.9796 8.64931 15.912C8.81105 15.8443 8.95787 15.7454 9.0814 15.621C9.20494 15.4966 9.30275 15.3491 9.36927 15.1869C9.43579 15.0247 9.46971 14.851 9.46909 14.6756C9.46847 14.5003 9.43333 14.3268 9.36566 14.1651C9.298 14.0034 9.19914 13.8565 9.07473 13.733L4.6849 9.3565H18.0279C18.3817 9.3565 18.7211 9.21592 18.9713 8.96569C19.2216 8.71546 19.3621 8.37608 19.3621 8.0222C19.3621 7.66833 19.2216 7.32894 18.9713 7.07872C18.7211 6.82849 18.3817 6.68791 18.0279 6.68791Z" fill="white"/>
</svg>
