<svg width="42" height="12" viewBox="0 0 42 12" fill="none" xmlns="http://www.w3.org/2000/svg">
<path d="M7.27138 10.7238C6.09951 10.7238 5.07954 10.5242 4.21149 10.1248C3.34343 9.72553 2.67069 9.15912 2.19326 8.42562C1.71583 7.68777 1.47711 6.81971 1.47711 5.82145V5.80843C1.47711 4.81016 1.71583 3.94428 2.19326 3.21077C2.67069 2.47727 3.34343 1.91086 4.21149 1.51156C5.08388 1.11225 6.10385 0.912598 7.27138 0.912598C8.4476 0.912598 9.46974 1.11225 10.3378 1.51156C11.2058 1.91086 11.8786 2.47727 12.356 3.21077C12.8334 3.94428 13.0722 4.81016 13.0722 5.80843V5.82145C13.0722 6.81971 12.8334 7.6856 12.356 8.41911C11.8786 9.15261 11.2058 9.72119 10.3378 10.1248C9.46974 10.5242 8.4476 10.7238 7.27138 10.7238ZM7.27138 9.00504C8.00489 9.00504 8.64074 8.87484 9.17894 8.61442C9.72147 8.354 10.1403 7.98508 10.4354 7.50765C10.7349 7.03022 10.8847 6.46815 10.8847 5.82145V5.80843C10.8847 5.16173 10.7349 4.60183 10.4354 4.12874C10.1403 3.65131 9.72147 3.28239 9.17894 3.02197C8.64074 2.76155 8.00489 2.63135 7.27138 2.63135C6.54222 2.63135 5.90637 2.76155 5.36383 3.02197C4.82564 3.28239 4.4068 3.65131 4.10732 4.12874C3.81218 4.60183 3.66461 5.16173 3.66461 5.80843V5.82145C3.66461 6.46815 3.81218 7.03022 4.10732 7.50765C4.40246 7.98508 4.8213 8.354 5.36383 8.61442C5.90637 8.87484 6.54222 9.00504 7.27138 9.00504ZM10.4875 11.4465L6.99795 7.42952H9.08779L12.5774 11.4465H10.4875ZM20.175 10.7173C19.1377 10.7173 18.2393 10.5459 17.4797 10.203C16.7245 9.86008 16.1407 9.36312 15.7284 8.71207C15.3204 8.06103 15.1164 7.26893 15.1164 6.33577V1.12093H17.2584V6.27067C17.2584 6.84793 17.369 7.34055 17.5904 7.74853C17.8161 8.15218 18.1438 8.46034 18.5735 8.67301C19.0075 8.88569 19.5413 8.99202 20.175 8.99202C20.8087 8.99202 21.3404 8.88569 21.7701 8.67301C22.2041 8.46034 22.5318 8.15218 22.7531 7.74853C22.9745 7.34055 23.0852 6.84793 23.0852 6.27067V1.12093H25.2336V6.33577C25.2336 7.26459 25.0296 8.05669 24.6216 8.71207C24.2136 9.36312 23.6299 9.86008 22.8703 10.203C22.1151 10.5459 21.2167 10.7173 20.175 10.7173ZM27.7011 10.5155V1.12093H29.8495V10.5155H27.7011ZM32.0565 10.5155V9.15478L38.2935 2.87223V2.80713H32.1802V1.12093H41.2557V2.48161L35.0318 8.76416V8.82926H41.4055V10.5155H32.0565Z" fill="white" fill-opacity="0.4"/>
</svg>
