<svg width="33" height="33" viewBox="0 0 33 33" fill="none" xmlns="http://www.w3.org/2000/svg">
<mask id="mask0_10_69" style="mask-type:luminance" maskUnits="userSpaceOnUse" x="0" y="0" width="33" height="33">
<path d="M32.5732 0.433594H0.573242V32.4336H32.5732V0.433594Z" fill="white"/>
</mask>
<g mask="url(#mask0_10_69)">
<path d="M18.6829 0.434307C18.5185 0.442356 18.3673 0.527434 18.2734 0.662625L6.00605 18.2607C5.75947 18.6141 6.0121 19.099 6.44303 19.0993H14.931L13.9113 31.8588C13.8706 32.3993 14.5685 32.649 14.8798 32.2053L27.1473 14.6073C27.3938 14.2538 27.1412 13.7691 26.7103 13.7687H17.6436C16.9323 13.7687 16.9323 14.8356 17.6436 14.8356H25.6907L15.1319 29.9809L16.0413 18.6111C16.0679 18.2997 15.8224 18.0323 15.5098 18.0323H7.46276L18.0216 2.88694L17.2814 12.1309C17.2065 12.854 18.3013 12.9432 18.3444 12.2175L19.242 1.00908C19.2674 0.688069 19.0046 0.417863 18.6829 0.434307Z" fill="white"/>
</g>
</svg>
