<svg width="20" height="17" viewBox="0 0 20 17" fill="none" xmlns="http://www.w3.org/2000/svg">
<path d="M17.9191 7.10612H4.57613L8.96596 2.71629C9.09103 2.59225 9.19029 2.44468 9.25803 2.28208C9.32577 2.11948 9.36065 1.94508 9.36065 1.76894C9.36065 1.5928 9.32577 1.4184 9.25803 1.25581C9.19029 1.09321 9.09103 0.945637 8.96596 0.821597C8.71597 0.573083 8.37779 0.433594 8.02528 0.433594C7.67278 0.433594 7.3346 0.573083 7.08461 0.821597L1.36048 6.55906C0.859332 7.05722 0.576221 7.7338 0.573242 8.44041C0.579736 9.14239 0.862577 9.81354 1.36048 10.3084L7.08461 16.0459C7.20901 16.1694 7.35653 16.2673 7.51875 16.3338C7.68096 16.4003 7.85468 16.4342 8.03 16.4336C8.20532 16.433 8.3788 16.3978 8.54054 16.3302C8.70228 16.2625 8.8491 16.1636 8.97263 16.0392C9.09617 15.9148 9.19398 15.7673 9.2605 15.6051C9.32702 15.4429 9.36094 15.2692 9.36032 15.0938C9.3597 14.9185 9.32456 14.745 9.25689 14.5833C9.18923 14.4216 9.09037 14.2747 8.96596 14.1512L4.57613 9.77471H17.9191C18.2729 9.77471 18.6123 9.63413 18.8625 9.3839C19.1128 9.13367 19.2533 8.79429 19.2533 8.44041C19.2533 8.08654 19.1128 7.74715 18.8625 7.49693C18.6123 7.2467 18.2729 7.10612 17.9191 7.10612Z" fill="white"/>
</svg>
