<svg width="42" height="12" viewBox="0 0 42 12" fill="none" xmlns="http://www.w3.org/2000/svg">
<path d="M7.16267 11.142C5.9908 11.142 4.97083 10.9424 4.10278 10.5431C3.23472 10.1437 2.56198 9.57733 2.08455 8.84383C1.60712 8.10598 1.36841 7.23792 1.36841 6.23966V6.22664C1.36841 5.22837 1.60712 4.36249 2.08455 3.62898C2.56198 2.89548 3.23472 2.32907 4.10278 1.92977C4.97517 1.53046 5.99514 1.33081 7.16267 1.33081C8.33889 1.33081 9.36103 1.53046 10.2291 1.92977C11.0971 2.32907 11.7699 2.89548 12.2473 3.62898C12.7247 4.36249 12.9635 5.22837 12.9635 6.22664V6.23966C12.9635 7.23792 12.7247 8.10381 12.2473 8.83732C11.7699 9.57082 11.0971 10.1394 10.2291 10.5431C9.36103 10.9424 8.33889 11.142 7.16267 11.142ZM7.16267 9.42325C7.89618 9.42325 8.53203 9.29305 9.07023 9.03263C9.61276 8.77221 10.0316 8.40329 10.3267 7.92586C10.6262 7.44843 10.776 6.88636 10.776 6.23966V6.22664C10.776 5.57994 10.6262 5.02004 10.3267 4.54695C10.0316 4.06952 9.61276 3.7006 9.07023 3.44018C8.53203 3.17976 7.89618 3.04956 7.16267 3.04956C6.43351 3.04956 5.79766 3.17976 5.25512 3.44018C4.71693 3.7006 4.29809 4.06952 3.99861 4.54695C3.70347 5.02004 3.5559 5.57994 3.5559 6.22664V6.23966C3.5559 6.88636 3.70347 7.44843 3.99861 7.92586C4.29375 8.40329 4.71259 8.77221 5.25512 9.03263C5.79766 9.29305 6.43351 9.42325 7.16267 9.42325ZM10.3788 11.8647L6.88924 7.84773H8.97908L12.4687 11.8647H10.3788ZM20.0663 11.1355C19.029 11.1355 18.1306 10.9641 17.371 10.6212C16.6158 10.2783 16.032 9.78133 15.6197 9.13028C15.2117 8.47924 15.0077 7.68714 15.0077 6.75398V1.53914H17.1497V6.68888C17.1497 7.26614 17.2603 7.75876 17.4817 8.16674C17.7074 8.57039 18.0351 8.87855 18.4648 9.09122C18.8988 9.3039 19.4326 9.41023 20.0663 9.41023C20.7 9.41023 21.2317 9.3039 21.6614 9.09122C22.0954 8.87855 22.4231 8.57039 22.6444 8.16674C22.8658 7.75876 22.9765 7.26614 22.9765 6.68888V1.53914H25.1249V6.75398C25.1249 7.6828 24.9209 8.4749 24.5129 9.13028C24.1049 9.78133 23.5212 10.2783 22.7616 10.6212C22.0064 10.9641 21.108 11.1355 20.0663 11.1355ZM27.5924 10.9337V1.53914H29.7408V10.9337H27.5924ZM31.9478 10.9337V9.573L38.1848 3.29044V3.22534H32.0715V1.53914H41.147V2.89982L34.9231 9.18237V9.24747H41.2968V10.9337H31.9478Z" fill="white" fill-opacity="0.4"/>
</svg>
