<svg width="20" height="17" viewBox="0 0 20 17" fill="none" xmlns="http://www.w3.org/2000/svg">
<path d="M17.4777 7.32097H4.13473L8.52456 2.93114C8.64963 2.8071 8.74889 2.65953 8.81663 2.49693C8.88437 2.33433 8.91925 2.15993 8.91925 1.98379C8.91925 1.80765 8.88437 1.63325 8.81663 1.47065C8.74889 1.30805 8.64963 1.16048 8.52456 1.03644C8.27457 0.787926 7.93639 0.648438 7.58388 0.648438C7.23138 0.648438 6.8932 0.787926 6.64321 1.03644L0.919071 6.77391C0.417926 7.27207 0.134815 7.94865 0.131836 8.65526C0.138329 9.35724 0.421171 10.0284 0.919071 10.5233L6.64321 16.2607C6.76761 16.3842 6.91513 16.4821 7.07735 16.5486C7.23956 16.6151 7.41328 16.649 7.5886 16.6484C7.76392 16.6478 7.9374 16.6126 8.09914 16.545C8.26088 16.4773 8.4077 16.3784 8.53123 16.254C8.65477 16.1296 8.75258 15.9821 8.8191 15.8199C8.88562 15.6577 8.91954 15.484 8.91892 15.3086C8.9183 15.1333 8.88316 14.9598 8.81549 14.7981C8.74783 14.6364 8.64897 14.4895 8.52456 14.366L4.13473 9.98956H17.4777C17.8315 9.98956 18.1709 9.84898 18.4211 9.59875C18.6714 9.34852 18.8119 9.00914 18.8119 8.65526C18.8119 8.30139 18.6714 7.962 18.4211 7.71178C18.1709 7.46155 17.8315 7.32097 17.4777 7.32097Z" fill="white"/>
</svg>
