<svg width="32" height="21" viewBox="0 0 32 21" fill="none" xmlns="http://www.w3.org/2000/svg">
<path d="M29 1.31006H3C1.61929 1.31006 0.5 2.42935 0.5 3.81006V17.8101C0.5 19.1908 1.61929 20.3101 3 20.3101H29C30.3807 20.3101 31.5 19.1908 31.5 17.8101V3.81006C31.5 2.42935 30.3807 1.31006 29 1.31006Z" fill="white"/>
<path d="M29 1.31006H3C1.61929 1.31006 0.5 2.42935 0.5 3.81006V17.8101C0.5 19.1908 1.61929 20.3101 3 20.3101H29C30.3807 20.3101 31.5 19.1908 31.5 17.8101V3.81006C31.5 2.42935 30.3807 1.31006 29 1.31006Z" stroke="#EDEEF0"/>
<path fill-rule="evenodd" clip-rule="evenodd" d="M15.9959 14.2373C15.2205 14.9063 14.2151 15.3101 13.1166 15.3101C10.6629 15.3101 8.67383 13.2954 8.67383 10.8101C8.67383 8.32478 10.6629 6.31006 13.1166 6.31006C14.2151 6.31006 15.2205 6.71384 15.9959 7.38285C16.7714 6.71384 17.7767 6.31006 18.8752 6.31006C21.3289 6.31006 23.318 8.32478 23.318 10.8101C23.318 13.2954 21.3289 15.3101 18.8752 15.3101C17.7767 15.3101 16.7714 14.9063 15.9959 14.2373Z" fill="#EC0014"/>
<path fill-rule="evenodd" clip-rule="evenodd" d="M15.998 14.2337C16.9524 13.4084 17.5575 12.1808 17.5575 10.8101C17.5575 9.43935 16.9524 8.21178 15.998 7.38641C16.7741 6.71527 17.781 6.31006 18.8814 6.31006C21.3351 6.31006 23.3243 8.32478 23.3243 10.8101C23.3243 13.2954 21.3351 15.3101 18.8814 15.3101C17.781 15.3101 16.7741 14.9049 15.998 14.2337Z" fill="#F9A000"/>
<path fill-rule="evenodd" clip-rule="evenodd" d="M16.0068 7.3833C16.9636 8.2087 17.5704 9.43785 17.5704 10.8106C17.5704 12.1832 16.9636 13.4124 16.0069 14.2378C15.0502 13.4124 14.4434 12.1832 14.4434 10.8105C14.4434 9.43781 15.0501 8.2087 16.0068 7.3833Z" fill="#FF5E00"/>
</svg>
