<svg width="30" height="22" viewBox="0 0 30 22" fill="none" xmlns="http://www.w3.org/2000/svg">
<path d="M25.9999 1.0957H3.99998C1.9059 1.0957 0.208313 2.79329 0.208313 4.88737V16.8873C0.208313 18.9814 1.9059 20.679 3.99998 20.679H25.9999C28.094 20.679 29.7916 18.9814 29.7916 16.8873V4.88737C29.7916 2.79329 28.094 1.0957 25.9999 1.0957Z" fill="white" stroke="#DDDDDD" stroke-width="0.416667"/>
<path fill-rule="evenodd" clip-rule="evenodd" d="M25.7504 8.85641C26.6713 8.85641 27.1777 9.26742 27.1777 10.0438C27.2237 10.6375 26.8094 11.1398 26.2569 11.2312L27.5 12.9209H26.5331L25.4742 11.2768H25.3821V12.9209H24.5994V8.85641H25.7504ZM25.3821 10.7288H25.6123C26.1188 10.7288 26.349 10.5005 26.349 10.0895C26.349 9.72411 26.1188 9.49577 25.6123 9.49577H25.3821V10.7288ZM21.8831 12.9209H24.093V12.2359H22.6657V11.1398H24.047V10.4548H22.6657V9.54142H24.093V8.85641H21.8831V12.9209ZM19.581 11.5965L18.5221 8.85641H17.6934L19.3969 13.0122H19.8112L21.5147 8.85641H20.686L19.581 11.5965ZM10.2348 10.9116C10.2348 12.0533 11.1556 13.0123 12.3066 13.0123C12.675 13.0123 12.9972 12.921 13.3195 12.784V11.8706C13.0893 12.1446 12.767 12.3273 12.3987 12.3273C11.6621 12.3273 11.0635 11.7793 11.0635 11.0486V10.9573C11.0175 10.2266 11.616 9.58722 12.3527 9.54155C12.721 9.54155 13.0893 9.72422 13.3195 9.99823V9.08487C13.0433 8.9022 12.675 8.85653 12.3527 8.85653C11.1556 8.7652 10.2348 9.72422 10.2348 10.9116ZM8.80755 10.4091C8.34715 10.2265 8.20903 10.1351 8.20903 9.90679C8.25507 9.63278 8.48527 9.40444 8.76151 9.45011C8.99172 9.45011 9.22192 9.58712 9.40608 9.76979L9.82045 9.22177C9.49816 8.94776 9.0838 8.76509 8.66943 8.76509C8.02487 8.71942 7.47238 9.22177 7.42634 9.86112V9.90679C7.42634 10.4548 7.65654 10.7745 8.39319 11.0028C8.57735 11.0485 8.76151 11.1398 8.94568 11.2312C9.0838 11.3225 9.17588 11.4595 9.17588 11.6422C9.17588 11.9619 8.89964 12.2359 8.62339 12.2359H8.57735C8.20903 12.2359 7.88674 12.0075 7.74862 11.6879L7.24218 12.1902C7.51842 12.6926 8.07091 12.9666 8.62339 12.9666C9.36004 13.0122 9.95857 12.4642 10.0046 11.7335V11.5965C9.95857 11.0485 9.72836 10.7745 8.80755 10.4091ZM6.13721 12.9209H6.9199V8.85641H6.13721V12.9209ZM2.5 8.85641H3.65101H3.88122C4.98619 8.90207 5.86096 9.81543 5.81492 10.9115C5.81492 11.5052 5.53867 12.0532 5.07827 12.4642C4.6639 12.7839 4.15746 12.9665 3.65101 12.9209H2.5V8.85641ZM3.5129 12.2358C3.88123 12.2814 4.29559 12.1444 4.57183 11.9161C4.84808 11.6421 4.9862 11.2767 4.9862 10.8657C4.9862 10.5004 4.84808 10.135 4.57183 9.86102C4.29559 9.63268 3.88123 9.49568 3.5129 9.54134H3.2827V12.2358H3.5129Z" fill="black"/>
<path fill-rule="evenodd" clip-rule="evenodd" d="M15.7101 8.76221C14.5591 8.76221 13.5923 9.67557 13.5923 10.863C13.5923 12.0046 14.5131 12.9637 15.7101 13.0093C16.9072 13.055 17.828 12.096 17.8741 10.9086C17.828 9.72123 16.9072 8.76221 15.7101 8.76221Z" fill="url(#paint0_linear_1_138)"/>
<path fill-rule="evenodd" clip-rule="evenodd" d="M15.7101 8.76221C14.5591 8.76221 13.5923 9.67557 13.5923 10.863C13.5923 12.0046 14.5131 12.9637 15.7101 13.0093C16.9072 13.055 17.828 12.096 17.8741 10.9086C17.828 9.72123 16.9072 8.76221 15.7101 8.76221Z" fill="url(#paint1_radial_1_138)"/>
<defs>
<linearGradient id="paint0_linear_1_138" x1="14.4196" y1="9.16365" x2="17.1997" y2="12.4012" gradientUnits="userSpaceOnUse">
<stop stop-color="#E15315"/>
<stop offset="1" stop-color="#FFB320"/>
</linearGradient>
<radialGradient id="paint1_radial_1_138" cx="0" cy="0" r="1" gradientUnits="userSpaceOnUse" gradientTransform="translate(16.0418 11.5122) rotate(-126.027) scale(2.83364 2.93383)">
<stop stop-color="#FFCD83" stop-opacity="0"/>
<stop offset="0.725604" stop-color="#E45816" stop-opacity="0.7"/>
<stop offset="1" stop-color="#912301"/>
</radialGradient>
</defs>
</svg>
