<svg width="90" height="26" viewBox="0 0 90 26" fill="none" xmlns="http://www.w3.org/2000/svg">
<mask id="mask0_1_211" style="mask-type:luminance" maskUnits="userSpaceOnUse" x="0" y="1" width="90" height="25">
<path d="M89.3606 1.18457H0.47168V25.1846H89.3606V1.18457Z" fill="white"/>
</mask>
<g mask="url(#mask0_1_211)">
<g opacity="0.6">
<path d="M50.8271 9.27422C50.8271 6.69644 50.8716 4.29644 51.0049 2.07422L44.2049 3.36311V3.98533L44.8716 4.07422C45.3605 4.11866 45.6716 4.29644 45.8493 4.56311C46.0271 4.87422 46.1605 5.31866 46.2493 5.98533C46.3382 7.27422 46.4271 10.2075 46.3827 14.8298C46.3827 19.4076 46.3382 22.2965 46.2493 23.4076C48.6938 23.9409 50.6049 24.1631 52.0271 24.1631C54.6938 24.1631 56.7827 23.4076 58.2938 21.852C59.8049 20.3409 60.6049 18.2076 60.6049 15.5853C60.6049 13.4965 60.0271 11.7631 58.8716 10.3853C57.716 9.00755 56.2493 8.34088 54.516 8.34088C53.3605 8.34088 52.1605 8.652 50.8271 9.27422ZM50.9605 22.9631C50.8716 21.5409 50.7827 17.2742 50.7827 10.2964C51.1827 10.1631 51.716 10.0742 52.3827 10.0742C53.4494 10.0742 54.2938 10.6075 54.916 11.7187C55.5382 12.8298 55.8493 14.1631 55.8493 15.852C55.8493 17.9409 55.4938 19.6298 54.7827 21.052C54.0716 22.4298 53.1827 23.1409 52.0716 23.1409C51.716 23.052 51.3605 23.0076 50.9605 22.9631ZM18.6938 2.51866H0.916016V3.40755L1.84935 3.49644C2.56046 3.62977 3.04935 3.89644 3.36046 4.29644C3.67157 4.74088 3.84935 5.452 3.89379 6.42977C4.24935 11.2298 4.24935 15.7187 3.89379 19.852C3.8049 20.8298 3.62713 21.5409 3.36046 21.9853C3.04935 22.4298 2.56046 22.6965 1.84935 22.7853L0.916016 22.9187V23.8076H12.3827V22.9187L11.1827 22.8298C10.8899 22.8053 10.605 22.7218 10.3453 22.5843C10.0856 22.4468 9.85645 22.2582 9.67157 22.0298C9.36046 21.5853 9.18268 20.8742 9.13824 19.8965C9.0049 18.1187 8.91602 16.0742 8.91602 13.8076L11.316 13.852C12.6049 13.8965 13.4938 14.8742 13.9382 16.8298H14.8271V9.58533H13.9382C13.4938 11.4965 12.6493 12.4742 11.316 12.5187L8.91602 12.5631C8.91602 8.56311 9.0049 5.71866 9.13824 3.98533H12.6493C15.1382 3.98533 16.8271 5.58533 17.8049 8.78533L18.8716 8.47422L18.6938 2.51866ZM16.6049 16.2076C16.6049 18.5187 17.2716 20.4298 18.5605 21.9409C19.8493 23.452 21.7605 24.1631 24.1605 24.1631C26.5605 24.1631 28.516 23.4076 29.9382 21.852C31.3605 20.3409 32.0271 18.4298 32.0271 16.1187C32.0271 13.8076 31.3605 11.8965 30.0716 10.3853C28.7827 8.87422 26.8716 8.16311 24.4716 8.16311C22.0716 8.16311 20.116 8.91866 18.6938 10.4742C17.2716 11.9853 16.6049 13.8965 16.6049 16.2076ZM26.516 11.1409C27.0493 12.4298 27.2716 14.1187 27.2716 16.1631C27.2716 20.8742 26.2938 23.1853 24.3827 23.1853C23.4049 23.1853 22.6493 22.5187 22.116 21.1853C21.5827 19.852 21.3605 18.1631 21.3605 16.1631C21.3605 11.4965 22.3382 9.18533 24.2493 9.18533C25.2271 9.14088 25.9827 9.80755 26.516 11.1409ZM64.0716 21.9409C65.5382 23.4076 67.4049 24.1631 69.6271 24.1631C71.0049 24.1631 72.2049 23.8965 73.2716 23.3187C74.3382 22.7853 75.1827 22.1187 75.7605 21.3187L75.316 20.7853C74.3382 21.5409 73.2271 21.8965 71.9382 21.8965C70.1605 21.8965 68.7827 21.3187 67.8493 20.1187C66.8716 18.9187 66.4271 17.4076 66.516 15.452H76.0271C76.0271 13.3187 75.4938 11.5853 74.3827 10.2075C73.2716 8.87422 71.716 8.20755 69.716 8.20755C67.2271 8.20755 65.316 9.00755 63.9382 10.5631C62.5605 12.1187 61.8938 14.0298 61.8938 16.2965C61.8938 18.6076 62.6049 20.4742 64.0716 21.9409ZM67.3605 10.7853C67.8493 9.71866 68.4716 9.18533 69.316 9.18533C70.6493 9.18533 71.316 10.8742 71.316 14.2965L66.6049 14.3853C66.6494 13.052 66.8716 11.852 67.3605 10.7853ZM87.9827 9.00755C86.7827 8.47422 85.2716 8.16311 83.4493 8.16311C81.5827 8.16311 80.116 8.652 79.0049 9.58533C77.8938 10.5187 77.316 11.6742 77.316 13.052C77.316 14.252 77.6716 15.1853 78.3382 15.852C79.0049 16.5187 80.0716 17.0965 81.4493 17.5853C82.6938 18.0298 83.5827 18.4742 84.0271 18.8742C84.4716 19.3187 84.7382 19.8076 84.7382 20.4742C84.7382 21.0965 84.516 21.6742 84.0271 22.1187C83.5827 22.6076 82.9605 22.8298 82.1605 22.8298C80.2049 22.8298 78.7382 21.4076 77.716 18.5631L76.9605 18.7853L77.1382 23.2298C78.7382 23.852 80.516 24.1631 82.4716 24.1631C84.516 24.1631 86.0716 23.7187 87.2271 22.7853C88.3827 21.8965 88.9605 20.6076 88.9605 19.0076C88.9605 17.9409 88.6938 17.052 88.116 16.3853C87.5382 15.7187 86.6049 15.1409 85.2716 14.6076C83.8049 14.0742 82.7827 13.5853 82.2494 13.1409C81.716 12.6965 81.4493 12.1631 81.4493 11.4965C81.4493 10.8298 81.6271 10.2964 82.0271 9.852C82.4271 9.40755 82.916 9.22977 83.5382 9.22977C85.316 9.22977 86.6049 10.5187 87.4049 13.052L88.1605 12.8298L87.9827 9.00755ZM45.2271 8.60755C44.6049 8.29644 43.9382 8.16311 43.1827 8.16311C42.4271 8.16311 41.6716 8.47422 40.8271 9.09644C39.9827 9.71866 39.3605 10.5631 38.8716 11.7187L38.916 8.16311L32.1605 9.49644V10.1187L32.8271 10.1631C33.6716 10.252 34.1605 10.9187 34.2493 12.1187C34.516 14.8742 34.516 17.8076 34.2493 20.9187C34.1605 22.1187 33.6716 22.7409 32.8271 22.8742L32.1605 22.9631V23.8076H41.5827V22.9631L40.3827 22.8742C39.5382 22.7853 39.0493 22.1187 38.9605 20.9187C38.6938 18.3409 38.6493 15.5853 38.8716 12.7409C39.1382 12.2965 39.716 12.0298 40.6049 11.9409C41.4938 11.852 42.516 12.1187 43.5827 12.7409L45.2271 8.60755Z" fill="white"/>
</g>
</g>
</svg>
