<svg width="62" height="34" viewBox="0 0 62 34" fill="none" xmlns="http://www.w3.org/2000/svg">
<mask id="mask0_1_1196" style="mask-type:luminance" maskUnits="userSpaceOnUse" x="0" y="1" width="62" height="33">
<path d="M61.4717 1.25928H0.689453V33.2593H61.4717V1.25928Z" fill="white"/>
</mask>
<g mask="url(#mask0_1_1196)">
<path opacity="0.45" d="M32.2353 17.2019C32.2353 25.8336 25.2376 32.8305 16.6051 32.8305C7.97407 32.8305 0.976562 25.8331 0.976562 17.2019C0.976562 8.56944 7.97453 1.57178 16.6051 1.57178C25.2373 1.57178 32.2353 8.56913 32.2353 17.2019Z" fill="white"/>
<path d="M42.1609 4.80322C40.9356 4.80322 40.0685 5.5115 40.0685 6.56995C40.0685 7.53268 40.7849 7.95426 41.5964 8.20131C42.2005 8.38449 42.5599 8.49541 42.5599 8.88574C42.5599 9.21233 42.3116 9.38736 41.8978 9.38736C41.3494 9.38736 40.8726 9.0767 40.5848 8.73492L39.8128 9.80079C40.1562 10.1751 40.9517 10.6129 41.9781 10.6129C43.3715 10.6129 44.1422 9.80894 44.1422 8.73492C44.1422 7.70808 43.4419 7.29391 42.5352 7.00759C42.0732 6.86406 41.652 6.76882 41.652 6.41889C41.652 6.19618 41.8274 6.02881 42.2412 6.02881C42.718 6.02881 43.1084 6.25189 43.3381 6.51425L44.0632 5.44739C43.658 5.06558 43.012 4.80322 42.1609 4.80322ZM46.2915 4.91452L44.2151 10.5014H45.8382L46.0926 9.69752H48.2011L48.4643 10.5014H50.1281L48.0505 4.91452H46.2915ZM34.4482 4.91476V8.47194C34.4482 9.84884 35.2845 10.6129 36.915 10.6129C38.4998 10.6129 39.3829 9.84884 39.3829 8.47194V4.91476H37.7833V8.01071C37.7833 8.62313 37.7191 9.22036 36.915 9.22036C36.1121 9.22036 36.0478 8.62313 36.0478 8.01071V4.91476H34.4482ZM47.1277 6.24336H47.1747C47.2068 6.48213 47.2784 6.81687 47.3661 7.07923L47.796 8.42426H46.5064L46.9363 7.07923C47.024 6.81687 47.0956 6.48213 47.1277 6.24336ZM42.0016 11.5035C39.924 11.5035 38.937 13.0397 38.937 14.4163C38.937 15.7849 39.924 17.3129 42.0016 17.3129C44.0866 17.3129 45.0748 15.7849 45.0748 14.4163C45.0748 13.0397 44.0866 11.5035 42.0016 11.5035ZM34.4729 11.6148V12.9121H35.849V17.2017H37.4486V12.9121H38.8246V11.6148H34.4729ZM52.6677 11.6148L50.5901 17.2017H52.2131L52.4676 16.3976H54.5773L54.8404 17.2017H56.503L54.4254 11.6148H52.6677ZM55.4062 11.6148L57.4912 15.2118V17.2017H59.1773V15.2118L61.2636 11.6148H59.5602L58.8043 12.9916C58.6449 13.286 58.4213 13.732 58.3744 14.026H58.3423C58.2953 13.732 58.0718 13.286 57.9124 12.9916L57.1565 11.6148H55.4062ZM45.648 11.6151V17.2017H47.7083C49.6501 17.2017 50.8124 16.1197 50.8124 14.4089C50.8124 12.6654 49.6822 11.6151 47.7083 11.6151H45.648ZM41.9942 12.8964C42.7748 12.8964 43.4258 13.4137 43.4258 14.4163C43.4258 15.4107 42.7748 15.9208 41.9942 15.9208C41.2296 15.9208 40.5774 15.4107 40.5774 14.4163C40.5774 13.4137 41.2296 12.8964 41.9942 12.8964ZM47.2476 12.9043H47.5897C48.6162 12.9043 49.1646 13.3976 49.1646 14.4089C49.1646 15.4193 48.6162 15.9121 47.5897 15.9121H47.2476V12.9043ZM53.5027 12.9434H53.5509C53.583 13.1827 53.6546 13.5168 53.7423 13.7802L54.1722 15.1253H52.8826L53.3125 13.7802C53.3989 13.5168 53.4706 13.1827 53.5027 12.9434ZM40.6169 19.4449L40.5774 19.4523V20.8864H40.8195V19.9797L41.7051 20.9135L41.7323 20.9086V19.472H41.4902V20.3651L40.6169 19.4449ZM42.2523 19.4449L42.2141 19.4523V20.8864H42.4562V19.9797L43.3418 20.9135L43.369 20.9086V19.472H43.1269V20.3651L42.2523 19.4449ZM56.6661 19.4449L56.6266 19.4523V20.8864H56.8687V19.9797L57.7543 20.9135L57.7815 20.9086V19.472H57.5406V20.3651L56.6661 19.4449ZM38.0711 19.4473C37.6722 19.4473 37.3201 19.7401 37.3201 20.1798C37.3201 20.6159 37.6672 20.9098 38.0711 20.9098C38.2836 20.9098 38.4479 20.8543 38.5986 20.7554V20.1378H38.0365V20.349H38.3676V20.6282C38.2836 20.6739 38.2033 20.6961 38.081 20.6961C37.8006 20.6961 37.5783 20.4812 37.5783 20.1798C37.5783 19.8982 37.7611 19.6709 38.0822 19.6709C38.2132 19.6709 38.3491 19.7141 38.4627 19.7883L38.5726 19.5956C38.4281 19.5054 38.2799 19.4473 38.0711 19.4473ZM49.4994 19.4486C49.0559 19.4486 48.7372 19.7611 48.7372 20.1798C48.7372 20.601 49.0522 20.9098 49.4994 20.9098C49.6748 20.9098 49.844 20.8518 49.9613 20.7764L49.8885 20.5714C49.7748 20.6393 49.6278 20.6838 49.5018 20.6838C49.1906 20.6838 48.9966 20.4775 48.9966 20.1798C48.9966 19.8809 49.1856 19.6746 49.4969 19.6746C49.6216 19.6746 49.76 19.7179 49.8724 19.7821L49.9564 19.577C49.8353 19.5042 49.6748 19.4486 49.4994 19.4486ZM50.9495 19.4486C50.5407 19.4486 50.2269 19.7598 50.2269 20.1798C50.2269 20.5986 50.5271 20.9098 50.9359 20.9098C51.346 20.9098 51.6585 20.5986 51.6585 20.1798C51.6585 19.7598 51.3596 19.4486 50.9495 19.4486ZM52.0723 19.451L52.0365 19.4535L51.976 20.8864H52.2144L52.2292 20.0378L52.6788 20.7147H52.7085L53.1544 20.039L53.1741 20.8864H53.4113L53.352 19.4535L53.3125 19.451L52.6998 20.3886L52.0723 19.451ZM35.7069 19.4523L35.0547 20.8864H35.303L35.4401 20.5627H35.9997L36.1368 20.8864H36.3925L35.7415 19.4523H35.7069ZM39.5262 19.4523L38.874 20.8864H39.1223L39.2606 20.5627H39.819L39.9573 20.8864H40.2105L39.5608 19.4523H39.5262ZM55.5754 19.4523L54.922 20.8864H55.1715L55.3086 20.5627H55.8694L56.0053 20.8864H56.2609L55.61 19.4523H55.5754ZM54.2401 19.4622C54.124 19.4622 54.0067 19.4696 53.8819 19.4856V20.8864H54.1228V20.4256C54.1685 20.4281 54.2179 20.4318 54.2636 20.4318C54.6255 20.4318 54.8269 20.2268 54.8269 19.939C54.8269 19.6734 54.6292 19.4622 54.2401 19.4622ZM43.8507 19.472V20.8864H44.7141V20.6665H44.0928V20.2749H44.6536V20.0612H44.0928V19.6907H44.7141V19.472H43.8507ZM45.0847 19.472V19.6919H45.5343V20.8864H45.7764V19.6919H46.2236V19.472H45.0847ZM46.5138 19.472V19.6919H46.9635V20.8864H47.2056V19.6919H47.6539V19.472H46.5138ZM58.1212 19.472L58.619 20.291V20.8864H58.8611V20.2922L59.3589 19.472H59.0884L58.7437 20.0699L58.3979 19.472H58.1212ZM50.9433 19.6647C51.2126 19.6647 51.3991 19.8846 51.3991 20.1798C51.3991 20.4738 51.2126 20.6949 50.9433 20.6949C50.6741 20.6949 50.4863 20.4738 50.4863 20.1798C50.4863 19.8846 50.6741 19.6647 50.9433 19.6647ZM54.2809 19.6845C54.4785 19.6845 54.5761 19.8068 54.5761 19.9464C54.5761 20.1069 54.4761 20.2206 54.2574 20.2206C54.2154 20.2206 54.171 20.2169 54.1228 20.2132V19.6956C54.1722 19.6882 54.2265 19.6845 54.2809 19.6845ZM35.7205 19.8982L35.9206 20.3713H35.5192L35.7205 19.8982ZM39.5398 19.8982L39.7411 20.3713H39.3385L39.5398 19.8982ZM55.589 19.8982L55.7891 20.3713H55.3876L55.589 19.8982Z" fill="white"/>
</g>
</svg>
