<svg width="16" height="18" viewBox="0 0 16 18" fill="none" xmlns="http://www.w3.org/2000/svg">
<path d="M12.6667 3.31982H3.33333C2.4496 3.32087 1.60237 3.6724 0.97748 4.2973C0.352588 4.92219 0.00105857 5.76942 0 6.65315H16C15.9989 5.76942 15.6474 4.92219 15.0225 4.2973C14.3976 3.6724 13.5504 3.32087 12.6667 3.31982Z" fill="#FFCD4C"/>
<path d="M0 11.9869C0.00105857 12.8706 0.352588 13.7178 0.97748 14.3427C1.60237 14.9676 2.4496 15.3191 3.33333 15.3202H12.6667C13.5504 15.3191 14.3976 14.9676 15.0225 14.3427C15.6474 13.7178 15.9989 12.8706 16 11.9869V7.98682H0V11.9869ZM4.66667 11.6535C4.66667 11.8513 4.60802 12.0446 4.49814 12.2091C4.38826 12.3735 4.23208 12.5017 4.04935 12.5774C3.86662 12.6531 3.66556 12.6729 3.47158 12.6343C3.2776 12.5957 3.09941 12.5005 2.95956 12.3606C2.81971 12.2208 2.72447 12.0426 2.68588 11.8486C2.6473 11.6546 2.6671 11.4536 2.74279 11.2708C2.81847 11.0881 2.94665 10.9319 3.1111 10.8221C3.27555 10.7121 3.46889 10.6535 3.66667 10.6535C3.93188 10.6535 4.18624 10.7588 4.37377 10.9464C4.56131 11.1339 4.66667 11.3883 4.66667 11.6535Z" fill="#FFCD4C"/>
</svg>
