<svg width="62" height="34" viewBox="0 0 62 34" fill="none" xmlns="http://www.w3.org/2000/svg">
<mask id="mask0_1_203" style="mask-type:luminance" maskUnits="userSpaceOnUse" x="0" y="1" width="62" height="33">
<path d="M61.4717 1.16699H0.689453V33.167H61.4717V1.16699Z" fill="white"/>
</mask>
<g mask="url(#mask0_1_203)">
<path opacity="0.45" d="M32.2353 17.1096C32.2353 25.7413 25.2376 32.7382 16.6051 32.7382C7.97407 32.7382 0.976562 25.7408 0.976562 17.1096C0.976562 8.47715 7.97453 1.47949 16.6051 1.47949C25.2373 1.47949 32.2353 8.47684 32.2353 17.1096Z" fill="white"/>
<path d="M42.1609 4.71094C40.9356 4.71094 40.0685 5.41922 40.0685 6.47767C40.0685 7.4404 40.7849 7.86198 41.5964 8.10903C42.2005 8.29221 42.5599 8.40313 42.5599 8.79346C42.5599 9.12005 42.3116 9.29508 41.8978 9.29508C41.3494 9.29508 40.8726 8.98442 40.5848 8.64264L39.8128 9.70851C40.1562 10.0828 40.9517 10.5207 41.9781 10.5207C43.3715 10.5207 44.1422 9.71666 44.1422 8.64264C44.1422 7.6158 43.4419 7.20163 42.5352 6.91531C42.0732 6.77178 41.652 6.67654 41.652 6.32661C41.652 6.1039 41.8274 5.93653 42.2412 5.93653C42.718 5.93653 43.1084 6.15961 43.3381 6.42197L44.0632 5.35511C43.658 4.9733 43.012 4.71094 42.1609 4.71094ZM46.2915 4.82224L44.2151 10.4091H45.8382L46.0926 9.60524H48.2011L48.4643 10.4091H50.1281L48.0505 4.82224H46.2915ZM34.4482 4.82248V8.37966C34.4482 9.75656 35.2845 10.5207 36.915 10.5207C38.4998 10.5207 39.3829 9.75656 39.3829 8.37966V4.82248H37.7833V7.91843C37.7833 8.53085 37.7191 9.12808 36.915 9.12808C36.1121 9.12808 36.0478 8.53085 36.0478 7.91843V4.82248H34.4482ZM47.1277 6.15108H47.1747C47.2068 6.38985 47.2784 6.72459 47.3661 6.98695L47.796 8.33198H46.5064L46.9363 6.98695C47.024 6.72459 47.0956 6.38985 47.1277 6.15108ZM42.0016 11.4112C39.924 11.4112 38.937 12.9474 38.937 14.324C38.937 15.6926 39.924 17.2206 42.0016 17.2206C44.0866 17.2206 45.0748 15.6926 45.0748 14.324C45.0748 12.9474 44.0866 11.4112 42.0016 11.4112ZM34.4729 11.5225V12.8198H35.849V17.1094H37.4486V12.8198H38.8246V11.5225H34.4729ZM52.6677 11.5225L50.5901 17.1094H52.2131L52.4676 16.3053H54.5773L54.8404 17.1094H56.503L54.4254 11.5225H52.6677ZM55.4062 11.5225L57.4912 15.1195V17.1094H59.1773V15.1195L61.2636 11.5225H59.5602L58.8043 12.8993C58.6449 13.1937 58.4213 13.6397 58.3744 13.9337H58.3423C58.2953 13.6397 58.0718 13.1937 57.9124 12.8993L57.1565 11.5225H55.4062ZM45.648 11.5228V17.1094H47.7083C49.6501 17.1094 50.8124 16.0274 50.8124 14.3166C50.8124 12.5731 49.6822 11.5228 47.7083 11.5228H45.648ZM41.9942 12.8041C42.7748 12.8041 43.4258 13.3214 43.4258 14.324C43.4258 15.3184 42.7748 15.8285 41.9942 15.8285C41.2296 15.8285 40.5774 15.3184 40.5774 14.324C40.5774 13.3214 41.2296 12.8041 41.9942 12.8041ZM47.2476 12.812H47.5897C48.6162 12.812 49.1646 13.3053 49.1646 14.3166C49.1646 15.327 48.6162 15.8198 47.5897 15.8198H47.2476V12.812ZM53.5027 12.8511H53.5509C53.583 13.0904 53.6546 13.4245 53.7423 13.6879L54.1722 15.033H52.8826L53.3125 13.6879C53.3989 13.4245 53.4706 13.0904 53.5027 12.8511ZM40.6169 19.3526L40.5774 19.36V20.7941H40.8195V19.8874L41.7051 20.8212L41.7323 20.8163V19.3797H41.4902V20.2728L40.6169 19.3526ZM42.2523 19.3526L42.2141 19.36V20.7941H42.4562V19.8874L43.3418 20.8212L43.369 20.8163V19.3797H43.1269V20.2728L42.2523 19.3526ZM56.6661 19.3526L56.6266 19.36V20.7941H56.8687V19.8874L57.7543 20.8212L57.7815 20.8163V19.3797H57.5406V20.2728L56.6661 19.3526ZM38.0711 19.355C37.6722 19.355 37.3201 19.6478 37.3201 20.0875C37.3201 20.5236 37.6672 20.8175 38.0711 20.8175C38.2836 20.8175 38.4479 20.762 38.5986 20.6631V20.0455H38.0365V20.2567H38.3676V20.5359C38.2836 20.5816 38.2033 20.6038 38.081 20.6038C37.8006 20.6038 37.5783 20.3889 37.5783 20.0875C37.5783 19.8059 37.7611 19.5786 38.0822 19.5786C38.2132 19.5786 38.3491 19.6218 38.4627 19.696L38.5726 19.5033C38.4281 19.4131 38.2799 19.355 38.0711 19.355ZM49.4994 19.3563C49.0559 19.3563 48.7372 19.6688 48.7372 20.0875C48.7372 20.5087 49.0522 20.8175 49.4994 20.8175C49.6748 20.8175 49.844 20.7595 49.9613 20.6841L49.8885 20.4791C49.7748 20.547 49.6278 20.5915 49.5018 20.5915C49.1906 20.5915 48.9966 20.3852 48.9966 20.0875C48.9966 19.7886 49.1856 19.5823 49.4969 19.5823C49.6216 19.5823 49.76 19.6256 49.8724 19.6898L49.9564 19.4847C49.8353 19.4119 49.6748 19.3563 49.4994 19.3563ZM50.9495 19.3563C50.5407 19.3563 50.2269 19.6675 50.2269 20.0875C50.2269 20.5063 50.5271 20.8175 50.9359 20.8175C51.346 20.8175 51.6585 20.5063 51.6585 20.0875C51.6585 19.6675 51.3596 19.3563 50.9495 19.3563ZM52.0723 19.3587L52.0365 19.3612L51.976 20.7941H52.2144L52.2292 19.9455L52.6788 20.6224H52.7085L53.1544 19.9467L53.1741 20.7941H53.4113L53.352 19.3612L53.3125 19.3587L52.6998 20.2963L52.0723 19.3587ZM35.7069 19.36L35.0547 20.7941H35.303L35.4401 20.4704H35.9997L36.1368 20.7941H36.3925L35.7415 19.36H35.7069ZM39.5262 19.36L38.874 20.7941H39.1223L39.2606 20.4704H39.819L39.9573 20.7941H40.2105L39.5608 19.36H39.5262ZM55.5754 19.36L54.922 20.7941H55.1715L55.3086 20.4704H55.8694L56.0053 20.7941H56.2609L55.61 19.36H55.5754ZM54.2401 19.3699C54.124 19.3699 54.0067 19.3773 53.8819 19.3933V20.7941H54.1228V20.3333C54.1685 20.3358 54.2179 20.3395 54.2636 20.3395C54.6255 20.3395 54.8269 20.1345 54.8269 19.8467C54.8269 19.5811 54.6292 19.3699 54.2401 19.3699ZM43.8507 19.3797V20.7941H44.7141V20.5742H44.0928V20.1826H44.6536V19.9689H44.0928V19.5984H44.7141V19.3797H43.8507ZM45.0847 19.3797V19.5996H45.5343V20.7941H45.7764V19.5996H46.2236V19.3797H45.0847ZM46.5138 19.3797V19.5996H46.9635V20.7941H47.2056V19.5996H47.6539V19.3797H46.5138ZM58.1212 19.3797L58.619 20.1987V20.7941H58.8611V20.1999L59.3589 19.3797H59.0884L58.7437 19.9776L58.3979 19.3797H58.1212ZM50.9433 19.5724C51.2126 19.5724 51.3991 19.7923 51.3991 20.0875C51.3991 20.3815 51.2126 20.6026 50.9433 20.6026C50.6741 20.6026 50.4863 20.3815 50.4863 20.0875C50.4863 19.7923 50.6741 19.5724 50.9433 19.5724ZM54.2809 19.5922C54.4785 19.5922 54.5761 19.7145 54.5761 19.8541C54.5761 20.0146 54.4761 20.1283 54.2574 20.1283C54.2154 20.1283 54.171 20.1246 54.1228 20.1209V19.6033C54.1722 19.5959 54.2265 19.5922 54.2809 19.5922ZM35.7205 19.8059L35.9206 20.279H35.5192L35.7205 19.8059ZM39.5398 19.8059L39.7411 20.279H39.3385L39.5398 19.8059ZM55.589 19.8059L55.7891 20.279H55.3876L55.589 19.8059Z" fill="white"/>
</g>
</svg>
