<svg width="24" height="25" viewBox="0 0 24 25" fill="none" xmlns="http://www.w3.org/2000/svg">
<mask id="mask0_1_1286" style="mask-type:luminance" maskUnits="userSpaceOnUse" x="0" y="0" width="24" height="25">
<path d="M24 0.310059H0V24.3101H24V0.310059Z" fill="white"/>
</mask>
<g mask="url(#mask0_1_1286)">
<path d="M12 0.310059C5.3748 0.310059 0 5.67808 0 12.3038C0 18.9358 5.3748 24.3101 12 24.3101C18.6288 24.3101 23.9991 18.9357 23.9991 12.3038C23.9991 5.67808 18.6288 0.310059 12 0.310059ZM12.8551 18.9809C12.5764 19.2289 12.2534 19.3536 11.8875 19.3536C11.509 19.3536 11.1788 19.2312 10.8969 18.9859C10.6146 18.741 10.4731 18.3982 10.4731 17.9577C10.4731 17.5669 10.61 17.2381 10.8829 16.9715C11.1557 16.705 11.4905 16.5717 11.8875 16.5717C12.2783 16.5717 12.6072 16.705 12.8742 16.9715C13.1407 17.2381 13.2744 17.5669 13.2744 17.9577C13.2739 18.3918 13.1343 18.7329 12.8551 18.9809ZM16.3304 10.3654C16.1162 10.7624 15.8619 11.1048 15.5669 11.3935C15.2728 11.6822 14.7439 12.1674 13.9804 12.8495C13.7699 13.0419 13.6005 13.2109 13.4736 13.3563C13.3466 13.5023 13.2518 13.6355 13.1899 13.7566C13.1275 13.8776 13.0797 13.9987 13.0458 14.1197C13.0119 14.2403 12.9609 14.4531 12.8917 14.7571C12.7743 15.4022 12.4052 15.7247 11.785 15.7247C11.4624 15.7247 11.1914 15.6195 10.9705 15.4085C10.7504 15.1975 10.6407 14.8845 10.6407 14.4689C10.6407 13.9481 10.7215 13.4967 10.8828 13.1151C11.0432 12.7333 11.2578 12.3986 11.5243 12.1099C11.7913 11.8213 12.1509 11.4788 12.604 11.0818C13.001 10.7344 13.2879 10.4724 13.4645 10.2957C13.6416 10.1186 13.7902 9.92168 13.9108 9.70482C14.0324 9.48753 14.092 9.25217 14.092 8.99787C14.092 8.50142 13.9082 8.08311 13.5387 7.74205C13.1696 7.401 12.6934 7.23022 12.1102 7.23022C11.4277 7.23022 10.9253 7.40233 10.6028 7.74656C10.2802 8.09078 10.0079 8.59762 9.78423 9.26757C9.57282 9.96869 9.17258 10.3192 8.58394 10.3192C8.23654 10.3192 7.94339 10.1968 7.70442 9.95191C7.4659 9.70705 7.34663 9.4419 7.34663 9.15642C7.34663 8.56733 7.53592 7.97013 7.91404 7.36526C8.29262 6.76039 8.84464 6.25939 9.57055 5.86276C10.296 5.46568 11.1431 5.26689 12.1102 5.26689C13.0096 5.26689 13.8034 5.43311 14.4918 5.76517C15.1803 6.09672 15.7124 6.54804 16.0878 7.11901C16.4627 7.68954 16.6506 8.3098 16.6506 8.97975C16.6515 9.50609 16.5445 9.96825 16.3304 10.3654Z" fill="#FFCD4C"/>
</g>
</svg>
