<svg width="32" height="21" viewBox="0 0 32 21" fill="none" xmlns="http://www.w3.org/2000/svg">
<path d="M29 1.00928H3C1.61929 1.00928 0.5 2.12857 0.5 3.50928V17.5093C0.5 18.89 1.61929 20.0093 3 20.0093H29C30.3807 20.0093 31.5 18.89 31.5 17.5093V3.50928C31.5 2.12857 30.3807 1.00928 29 1.00928Z" fill="white"/>
<path d="M29 1.00928H3C1.61929 1.00928 0.5 2.12857 0.5 3.50928V17.5093C0.5 18.89 1.61929 20.0093 3 20.0093H29C30.3807 20.0093 31.5 18.89 31.5 17.5093V3.50928C31.5 2.12857 30.3807 1.00928 29 1.00928Z" stroke="#EDEEF0"/>
<path d="M17.5594 10.5093C17.5594 12.9946 15.5703 15.0093 13.1166 15.0093C10.6629 15.0093 8.67383 12.9946 8.67383 10.5093C8.67383 8.024 10.6629 6.00928 13.1166 6.00928C15.5703 6.00928 17.5594 8.024 17.5594 10.5093Z" fill="#EC0014"/>
<path d="M23.3251 10.5093C23.3251 12.9946 21.336 15.0093 18.8823 15.0093C16.4286 15.0093 14.4395 12.9946 14.4395 10.5093C14.4395 8.024 16.4286 6.00928 18.8823 6.00928C21.336 6.00928 23.3251 8.024 23.3251 10.5093Z" fill="#00A3E6"/>
<path d="M16.0069 7.08252C16.9636 7.90792 17.5704 9.13707 17.5704 10.5098C17.5704 11.8825 16.9636 13.1116 16.0069 13.937C15.0502 13.1116 14.4434 11.8824 14.4434 10.5097C14.4434 9.13704 15.0501 7.90792 16.0069 7.08252Z" fill="#7476D0"/>
</svg>
