<svg width="32" height="33" viewBox="0 0 32 33" fill="none" xmlns="http://www.w3.org/2000/svg">
<mask id="mask0_1_17" style="mask-type:luminance" maskUnits="userSpaceOnUse" x="0" y="0" width="32" height="33">
<path d="M32 0.32666H0V32.3267H32V0.32666Z" fill="white"/>
</mask>
<g mask="url(#mask0_1_17)">
<path d="M15.7763 32.3263C15.3806 32.3265 14.9937 32.2093 14.6647 31.9895C14.3356 31.7699 14.0791 31.4575 13.9277 31.0919C13.7762 30.7263 13.7366 30.3241 13.8139 29.9359C13.8911 29.5479 14.0817 29.1915 14.3616 28.9117L24.591 18.6837C24.9006 18.3741 25.1462 18.0066 25.3138 17.6021C25.4814 17.1977 25.5676 16.7641 25.5676 16.3263C25.5676 15.8885 25.4814 15.455 25.3138 15.0505C25.1462 14.646 24.9006 14.2785 24.591 13.969L14.3616 3.741C14.1759 3.55522 14.0285 3.33466 13.9279 3.09194C13.8274 2.8492 13.7757 2.58906 13.7757 2.32632C13.7757 1.79572 13.9864 1.28685 14.3616 0.911658C14.7368 0.536464 15.2457 0.325684 15.7763 0.325684C16.039 0.325684 16.2992 0.377432 16.5419 0.477973C16.7846 0.578514 17.0052 0.72588 17.191 0.911658L27.419 11.141C28.7942 12.5162 29.5668 14.3815 29.5668 16.3263C29.5668 18.2712 28.7942 20.1364 27.419 21.5117L17.191 31.7411C17.0052 31.9267 16.7846 32.0739 16.5419 32.1745C16.2991 32.2749 16.039 32.3265 15.7763 32.3263Z" fill="#FFCD4C"/>
<path d="M3.04938 32.3269C2.6538 32.3267 2.26712 32.2093 1.93827 31.9895C1.60941 31.7697 1.35313 31.4573 1.20184 31.0917C1.05056 30.7263 1.01106 30.3241 1.08835 29.9361C1.16564 29.5481 1.35624 29.1919 1.63605 28.9123L13.7494 16.7988C13.8115 16.7369 13.8607 16.6633 13.8943 16.5823C13.9279 16.5013 13.9452 16.4145 13.9452 16.3268C13.9452 16.2391 13.9279 16.1523 13.8943 16.0713C13.8607 15.9903 13.8115 15.9168 13.7494 15.8548L1.63605 3.7415C1.26085 3.36648 1.05 2.85778 1.04988 2.3273C1.04975 1.79682 1.26036 1.28802 1.63538 0.91283C2.0104 0.537636 2.5191 0.326785 3.04958 0.32666C3.58006 0.326535 4.08886 0.537146 4.46404 0.912162L16.5787 13.0268C17.4513 13.9032 17.9412 15.0895 17.9412 16.3262C17.9412 17.5628 17.4513 18.7492 16.5787 19.6255L4.46404 31.7415C4.27824 31.9273 4.05766 32.0745 3.81494 32.1749C3.5722 32.2753 3.31206 32.3269 3.04938 32.3269Z" fill="#FFCD4C"/>
</g>
</svg>
