<svg width="32" height="21" viewBox="0 0 32 21" fill="none" xmlns="http://www.w3.org/2000/svg">
<path d="M29 1.31006H3C1.61929 1.31006 0.5 2.42935 0.5 3.81006V17.8101C0.5 19.1908 1.61929 20.3101 3 20.3101H29C30.3807 20.3101 31.5 19.1908 31.5 17.8101V3.81006C31.5 2.42935 30.3807 1.31006 29 1.31006Z" fill="white"/>
<path d="M29 1.31006H3C1.61929 1.31006 0.5 2.42935 0.5 3.81006V17.8101C0.5 19.1908 1.61929 20.3101 3 20.3101H29C30.3807 20.3101 31.5 19.1908 31.5 17.8101V3.81006C31.5 2.42935 30.3807 1.31006 29 1.31006Z" stroke="#EDEEF0"/>
<path d="M17.5594 10.8101C17.5594 13.2954 15.5703 15.3101 13.1166 15.3101C10.6629 15.3101 8.67383 13.2954 8.67383 10.8101C8.67383 8.32478 10.6629 6.31006 13.1166 6.31006C15.5703 6.31006 17.5594 8.32478 17.5594 10.8101Z" fill="#EC0014"/>
<path d="M23.3251 10.8101C23.3251 13.2954 21.336 15.3101 18.8823 15.3101C16.4286 15.3101 14.4395 13.2954 14.4395 10.8101C14.4395 8.32478 16.4286 6.31006 18.8823 6.31006C21.336 6.31006 23.3251 8.32478 23.3251 10.8101Z" fill="#00A3E6"/>
<path d="M16.0069 7.3833C16.9636 8.2087 17.5704 9.43785 17.5704 10.8105C17.5704 12.1832 16.9636 13.4123 16.0069 14.2377C15.0502 13.4123 14.4434 12.1831 14.4434 10.8104C14.4434 9.43782 15.0501 8.2087 16.0069 7.3833Z" fill="#7476D0"/>
</svg>
