<svg width="32" height="21" viewBox="0 0 32 21" fill="none" xmlns="http://www.w3.org/2000/svg">
<path d="M30 1.31006H2C1.17157 1.31006 0.5 1.98163 0.5 2.81006V18.8101C0.5 19.6385 1.17157 20.3101 2 20.3101H30C30.8284 20.3101 31.5 19.6385 31.5 18.8101V2.81006C31.5 1.98163 30.8284 1.31006 30 1.31006Z" fill="white"/>
<path d="M30 1.31006H2C1.17157 1.31006 0.5 1.98163 0.5 2.81006V18.8101C0.5 19.6385 1.17157 20.3101 2 20.3101H30C30.8284 20.3101 31.5 19.6385 31.5 18.8101V2.81006C31.5 1.98163 30.8284 1.31006 30 1.31006Z" stroke="#EDEEF0"/>
<path fill-rule="evenodd" clip-rule="evenodd" d="M11.2979 13.7633H9.67083L8.45076 9.10863C8.39285 8.89452 8.2699 8.70523 8.08903 8.61602C7.63765 8.39182 7.14026 8.21339 6.59766 8.1234V7.9442H9.21866C9.5804 7.9442 9.8517 8.21339 9.89692 8.52603L10.53 11.8836L12.1562 7.9442H13.738L11.2979 13.7633ZM14.6404 13.7633H13.1038L14.3691 7.94421H15.9057L14.6404 13.7633ZM17.897 9.55632C17.9422 9.24291 18.2135 9.06371 18.53 9.06371C19.0274 9.01871 19.5692 9.1087 20.0214 9.33212L20.2927 8.07925C19.8405 7.90005 19.3432 7.81006 18.8918 7.81006C17.4004 7.81006 16.3152 8.61609 16.3152 9.73475C16.3152 10.5858 17.0839 11.0327 17.6265 11.3018C18.2135 11.5703 18.4396 11.7495 18.3944 12.0179C18.3944 12.4205 17.9422 12.5997 17.4908 12.5997C16.9482 12.5997 16.4056 12.4655 15.909 12.2413L15.6377 13.495C16.1803 13.7184 16.7674 13.8084 17.31 13.8084C18.9822 13.8526 20.0214 13.0473 20.0214 11.8387C20.0214 10.3166 17.897 10.2274 17.897 9.55632ZM25.4011 13.7633L24.1811 7.9442H22.8706C22.5993 7.9442 22.328 8.1234 22.2375 8.39182L19.9783 13.7633H21.5601L21.8758 12.9131H23.8193L24.0002 13.7633H25.4011ZM23.0942 9.51136L23.5456 11.7045H22.2803L23.0942 9.51136Z" fill="#1938C4"/>
</svg>
