<svg width="90" height="26" viewBox="0 0 90 26" fill="none" xmlns="http://www.w3.org/2000/svg">
<mask id="mask0_1_1203" style="mask-type:luminance" maskUnits="userSpaceOnUse" x="0" y="1" width="90" height="25">
<path d="M89.3606 1.25928H0.47168V25.2593H89.3606V1.25928Z" fill="white"/>
</mask>
<g mask="url(#mask0_1_1203)">
<g opacity="0.6">
<path d="M50.8271 9.34844C50.8271 6.77066 50.8716 4.37066 51.0049 2.14844L44.2049 3.43733V4.05955L44.8716 4.14844C45.3605 4.19288 45.6716 4.37066 45.8493 4.63733C46.0271 4.94844 46.1605 5.39288 46.2493 6.05955C46.3382 7.34844 46.4271 10.2818 46.3827 14.904C46.3827 19.4818 46.3382 22.3707 46.2493 23.4818C48.6938 24.0151 50.6049 24.2373 52.0271 24.2373C54.6938 24.2373 56.7827 23.4818 58.2938 21.9262C59.8049 20.4151 60.6049 18.2818 60.6049 15.6595C60.6049 13.5707 60.0271 11.8373 58.8716 10.4595C57.716 9.08177 56.2493 8.4151 54.516 8.4151C53.3605 8.4151 52.1605 8.72622 50.8271 9.34844ZM50.9605 23.0373C50.8716 21.6151 50.7827 17.3484 50.7827 10.3707C51.1827 10.2373 51.716 10.1484 52.3827 10.1484C53.4494 10.1484 54.2938 10.6818 54.916 11.7929C55.5382 12.904 55.8493 14.2373 55.8493 15.9262C55.8493 18.0151 55.4938 19.704 54.7827 21.1262C54.0716 22.504 53.1827 23.2151 52.0716 23.2151C51.716 23.1262 51.3605 23.0818 50.9605 23.0373ZM18.6938 2.59288H0.916016V3.48177L1.84935 3.57066C2.56046 3.70399 3.04935 3.97066 3.36046 4.37066C3.67157 4.8151 3.84935 5.52622 3.89379 6.50399C4.24935 11.304 4.24935 15.7929 3.89379 19.9262C3.8049 20.904 3.62713 21.6151 3.36046 22.0595C3.04935 22.504 2.56046 22.7707 1.84935 22.8595L0.916016 22.9929V23.8818H12.3827V22.9929L11.1827 22.904C10.8899 22.8795 10.605 22.796 10.3453 22.6585C10.0856 22.521 9.85645 22.3324 9.67157 22.104C9.36046 21.6595 9.18268 20.9484 9.13824 19.9707C9.0049 18.1929 8.91602 16.1484 8.91602 13.8818L11.316 13.9262C12.6049 13.9707 13.4938 14.9484 13.9382 16.904H14.8271V9.65955H13.9382C13.4938 11.5707 12.6493 12.5484 11.316 12.5929L8.91602 12.6373C8.91602 8.63733 9.0049 5.79288 9.13824 4.05955H12.6493C15.1382 4.05955 16.8271 5.65955 17.8049 8.85955L18.8716 8.54844L18.6938 2.59288ZM16.6049 16.2818C16.6049 18.5929 17.2716 20.504 18.5605 22.0151C19.8493 23.5262 21.7605 24.2373 24.1605 24.2373C26.5605 24.2373 28.516 23.4818 29.9382 21.9262C31.3605 20.4151 32.0271 18.504 32.0271 16.1929C32.0271 13.8818 31.3605 11.9707 30.0716 10.4595C28.7827 8.94844 26.8716 8.23733 24.4716 8.23733C22.0716 8.23733 20.116 8.99288 18.6938 10.5484C17.2716 12.0595 16.6049 13.9707 16.6049 16.2818ZM26.516 11.2151C27.0493 12.504 27.2716 14.1929 27.2716 16.2373C27.2716 20.9484 26.2938 23.2595 24.3827 23.2595C23.4049 23.2595 22.6493 22.5929 22.116 21.2595C21.5827 19.9262 21.3605 18.2373 21.3605 16.2373C21.3605 11.5707 22.3382 9.25955 24.2493 9.25955C25.2271 9.2151 25.9827 9.88177 26.516 11.2151ZM64.0716 22.0151C65.5382 23.4818 67.4049 24.2373 69.6271 24.2373C71.0049 24.2373 72.2049 23.9707 73.2716 23.3929C74.3382 22.8595 75.1827 22.1929 75.7605 21.3929L75.316 20.8595C74.3382 21.6151 73.2271 21.9707 71.9382 21.9707C70.1605 21.9707 68.7827 21.3929 67.8493 20.1929C66.8716 18.9929 66.4271 17.4818 66.516 15.5262H76.0271C76.0271 13.3929 75.4938 11.6595 74.3827 10.2818C73.2716 8.94844 71.716 8.28177 69.716 8.28177C67.2271 8.28177 65.316 9.08177 63.9382 10.6373C62.5605 12.1929 61.8938 14.104 61.8938 16.3707C61.8938 18.6818 62.6049 20.5484 64.0716 22.0151ZM67.3605 10.8595C67.8493 9.79288 68.4716 9.25955 69.316 9.25955C70.6493 9.25955 71.316 10.9484 71.316 14.3707L66.6049 14.4595C66.6494 13.1262 66.8716 11.9262 67.3605 10.8595ZM87.9827 9.08177C86.7827 8.54844 85.2716 8.23733 83.4493 8.23733C81.5827 8.23733 80.116 8.72622 79.0049 9.65955C77.8938 10.5929 77.316 11.7484 77.316 13.1262C77.316 14.3262 77.6716 15.2595 78.3382 15.9262C79.0049 16.5929 80.0716 17.1707 81.4493 17.6595C82.6938 18.104 83.5827 18.5484 84.0271 18.9484C84.4716 19.3929 84.7382 19.8818 84.7382 20.5484C84.7382 21.1707 84.516 21.7484 84.0271 22.1929C83.5827 22.6818 82.9605 22.904 82.1605 22.904C80.2049 22.904 78.7382 21.4818 77.716 18.6373L76.9605 18.8595L77.1382 23.304C78.7382 23.9262 80.516 24.2373 82.4716 24.2373C84.516 24.2373 86.0716 23.7929 87.2271 22.8595C88.3827 21.9707 88.9605 20.6818 88.9605 19.0818C88.9605 18.0151 88.6938 17.1262 88.116 16.4595C87.5382 15.7929 86.6049 15.2151 85.2716 14.6818C83.8049 14.1484 82.7827 13.6595 82.2494 13.2151C81.716 12.7707 81.4493 12.2373 81.4493 11.5707C81.4493 10.904 81.6271 10.3707 82.0271 9.92622C82.4271 9.48177 82.916 9.30399 83.5382 9.30399C85.316 9.30399 86.6049 10.5929 87.4049 13.1262L88.1605 12.904L87.9827 9.08177ZM45.2271 8.68177C44.6049 8.37066 43.9382 8.23733 43.1827 8.23733C42.4271 8.23733 41.6716 8.54844 40.8271 9.17066C39.9827 9.79288 39.3605 10.6373 38.8716 11.7929L38.916 8.23733L32.1605 9.57066V10.1929L32.8271 10.2373C33.6716 10.3262 34.1605 10.9929 34.2493 12.1929C34.516 14.9484 34.516 17.8818 34.2493 20.9929C34.1605 22.1929 33.6716 22.8151 32.8271 22.9484L32.1605 23.0373V23.8818H41.5827V23.0373L40.3827 22.9484C39.5382 22.8595 39.0493 22.1929 38.9605 20.9929C38.6938 18.4151 38.6493 15.6595 38.8716 12.8151C39.1382 12.3707 39.716 12.104 40.6049 12.0151C41.4938 11.9262 42.516 12.1929 43.5827 12.8151L45.2271 8.68177Z" fill="white"/>
</g>
</g>
</svg>
