<svg width="32" height="32" viewBox="0 0 32 32" fill="none" xmlns="http://www.w3.org/2000/svg">
<mask id="mask0_1_1381" style="mask-type:luminance" maskUnits="userSpaceOnUse" x="0" y="1" width="32" height="30">
<path d="M32 1.03564H0V30.6033H32V1.03564Z" fill="white"/>
</mask>
<g mask="url(#mask0_1_1381)">
<path d="M13.4531 3.6945C14.7813 3.6945 16.0599 3.88721 17.2682 4.24398C17.4609 4.30127 17.6562 4.36377 17.8542 4.43148C18.0729 4.507 18.2891 4.58773 18.5026 4.67367L17.6224 6.29085C16.3281 5.79346 14.9245 5.52263 13.4557 5.52263H13.4531C11.849 5.52263 10.3203 5.84815 8.92969 6.43669C8.70313 6.53304 8.47917 6.6346 8.26302 6.74398C7.13802 7.30648 6.11719 8.04606 5.23698 8.92627L5.23177 8.93148C4.9401 9.22315 4.66146 9.53304 4.40365 9.85596C4.14323 10.1815 3.89844 10.5201 3.67188 10.8716C2.5026 12.6841 1.82813 14.8378 1.82813 17.1477V17.1503C1.82813 18.7544 2.15365 20.2831 2.74219 21.6737C2.83854 21.9003 2.9401 22.1242 3.04948 22.3404C3.61198 23.4628 4.35156 24.4862 5.23438 25.3664L5.23958 25.3716C5.53125 25.6633 5.84115 25.9419 6.16406 26.2024C6.48958 26.4628 6.82813 26.7076 7.17969 26.9341C8.98958 28.0956 11.1432 28.7701 13.4531 28.7701H13.4557C15.0599 28.7701 16.5885 28.4445 17.9792 27.856C18.2057 27.7596 18.4297 27.6581 18.6458 27.5487C19.7708 26.9862 20.7917 26.2466 21.6719 25.3664H21.6745L21.6823 25.3586C21.974 25.0669 22.25 24.7596 22.5104 24.4367C22.7708 24.1112 23.0156 23.7727 23.2422 23.4211C24.4036 21.6138 25.0781 19.4628 25.0781 17.1555L26.9036 16.8742C26.9063 16.9654 26.9063 17.0565 26.9063 17.1477V17.1503C26.9063 19.007 26.5286 20.7779 25.849 22.3846C25.7396 22.6451 25.6198 22.9029 25.4922 23.1581C24.8411 24.4602 23.9844 25.6425 22.9661 26.6607L22.9609 26.6659C22.6224 27.0044 22.263 27.3274 21.8906 27.6268C21.5156 27.9289 21.1224 28.2128 20.7161 28.4732C18.6224 29.8195 16.1302 30.6008 13.4557 30.6008C11.599 30.6008 9.82813 30.2232 8.22135 29.5435C7.96094 29.4341 7.70313 29.3143 7.44792 29.1867C6.14583 28.5357 4.96354 27.6789 3.94531 26.6607L3.9401 26.6529C3.60156 26.3143 3.28125 25.9576 2.97917 25.5826C2.67708 25.2076 2.39323 24.8143 2.13281 24.4081C0.78125 22.3143 0 19.8221 0 17.1477V17.1451C0 15.2883 0.377604 13.5201 1.05729 11.9107C1.16667 11.6503 1.28646 11.3925 1.41406 11.1372C2.0651 9.83513 2.92188 8.65283 3.9401 7.6346L3.94531 7.6294C4.28385 7.29085 4.64323 6.97054 5.01563 6.66846C5.39063 6.36638 5.78385 6.08252 6.1901 5.8221C8.28646 4.47575 10.7786 3.6945 13.4531 3.6945ZM14.5521 16.5409L22.9948 1.03564L24.0859 9.84033L32 13.8482L14.5521 16.5409ZM13.4531 12.8899H13.4557C13.6432 12.8899 13.8281 12.9029 14.0078 12.9263L13.0104 14.7596C12.8359 14.7909 12.6667 14.843 12.5078 14.9107C12.4609 14.9315 12.4141 14.9524 12.3672 14.9758C12.1328 15.093 11.9193 15.2466 11.7344 15.4315L11.7292 15.4367C11.6693 15.4966 11.6146 15.5591 11.5599 15.6242C11.5052 15.6919 11.4531 15.7622 11.4063 15.8378C11.1641 16.2154 11.0234 16.6659 11.0234 17.1477V17.1503C11.0234 17.4862 11.0911 17.8039 11.2161 18.0956C11.237 18.1451 11.2578 18.1919 11.2813 18.2362C11.3984 18.4706 11.5521 18.6841 11.737 18.869L11.7422 18.8742C11.8021 18.9341 11.8646 18.9914 11.9297 19.0435C11.9974 19.0982 12.0677 19.1503 12.1432 19.1971C12.5208 19.4393 12.9714 19.58 13.4531 19.58C13.7891 19.58 14.1068 19.5123 14.3984 19.3899C14.4479 19.369 14.4922 19.3482 14.5391 19.3248C14.7734 19.2076 14.987 19.0539 15.1719 18.869L15.1771 18.8638C15.2109 18.83 15.2422 18.7961 15.2708 18.7649C15.2995 18.7336 15.3281 18.6971 15.3568 18.6607L17.5469 18.3221C17.5 18.4888 17.4427 18.6529 17.375 18.8091C17.3411 18.8899 17.3021 18.9732 17.263 19.0539C17.0573 19.468 16.7865 19.8404 16.4635 20.1633L16.4557 20.1685C16.349 20.2727 16.2396 20.3742 16.1224 20.468C16.0026 20.5643 15.8802 20.6529 15.75 20.7362C15.0859 21.1607 14.2995 21.4081 13.4531 21.4081C12.8646 21.4081 12.3047 21.2883 11.7969 21.0721C11.7161 21.0383 11.6328 20.9992 11.5521 20.9602C11.138 20.7544 10.7656 20.4836 10.4427 20.1607L10.4349 20.1529C10.3307 20.0487 10.2292 19.9367 10.1354 19.8195C10.0391 19.6997 9.95052 19.5774 9.86719 19.4471C9.44271 18.7857 9.19531 17.9966 9.19531 17.1503V17.1477C9.19531 16.5591 9.3151 15.9992 9.53125 15.4914C9.5651 15.4107 9.60417 15.3274 9.64323 15.2466C9.84896 14.8352 10.1198 14.4602 10.4427 14.1399C10.5495 14.0331 10.6641 13.9315 10.7839 13.8352C10.9036 13.7388 11.026 13.6503 11.1563 13.5669C11.8177 13.1372 12.6068 12.8899 13.4531 12.8899ZM13.4531 8.2544C14.25 8.2544 15.0208 8.35856 15.7526 8.55648C15.8724 8.58773 15.9896 8.62158 16.1068 8.66065C16.1693 8.68148 16.2344 8.70231 16.2969 8.72315L15.4063 10.3612C14.7865 10.1841 14.1302 10.0877 13.4505 10.0877C12.4766 10.0877 11.5469 10.2856 10.7005 10.6425C10.5677 10.6997 10.4323 10.7622 10.2943 10.83L10.2839 10.8352C9.60417 11.1763 8.98958 11.6242 8.45573 12.1581L8.45052 12.1633C8.27344 12.3404 8.10677 12.5279 7.94792 12.7232C7.78906 12.9211 7.64063 13.1268 7.5026 13.3404C6.79688 14.4393 6.38802 15.7492 6.38802 17.1529V17.1555C6.38802 18.1294 6.58594 19.0591 6.94271 19.9055C7 20.0435 7.0625 20.1789 7.13021 20.3117C7.47135 20.994 7.92188 21.6138 8.45833 22.1503C8.63802 22.33 8.82813 22.4992 9.02344 22.6581C9.22136 22.8169 9.42708 22.9654 9.64063 23.1034C10.7396 23.8039 12.0495 24.2128 13.4531 24.2128H13.4557C14.4297 24.2128 15.3594 24.0149 16.2057 23.6581C16.3438 23.6008 16.4792 23.5383 16.612 23.4706C17.2943 23.1294 17.9141 22.6789 18.4505 22.1425C18.6302 21.9628 18.8021 21.7727 18.9583 21.5774C19.1172 21.3794 19.2656 21.1737 19.4036 20.9602C19.9896 20.0487 20.3698 18.9966 20.4844 17.8638L22.3385 17.5774C22.2865 18.6477 22.0469 19.6685 21.651 20.6086C21.5781 20.7805 21.5 20.9524 21.4141 21.119C20.9844 21.981 20.4167 22.7623 19.7448 23.4341L19.7396 23.4393C19.5156 23.6633 19.2786 23.8742 19.0339 24.0748C18.7865 24.2753 18.526 24.4628 18.2578 24.6346C16.8724 25.5227 15.224 26.0409 13.4583 26.0409C12.2318 26.0409 11.0599 25.7909 9.9974 25.343C9.82552 25.2701 9.65365 25.1919 9.48698 25.106C8.625 24.6763 7.84375 24.1086 7.17188 23.4367L7.16667 23.4289C6.94271 23.205 6.73177 22.9706 6.53385 22.7232C6.33333 22.4758 6.14583 22.2154 5.97396 21.9471C5.08333 20.5617 4.56771 18.9159 4.56771 17.1477V17.1451C4.56771 15.9185 4.81771 14.7466 5.26823 13.6841C5.34115 13.5122 5.41927 13.3404 5.50521 13.1737C5.9349 12.3117 6.5026 11.5305 7.17448 10.8586L7.17969 10.8534C7.40365 10.6294 7.63802 10.4185 7.88542 10.2205C8.13281 10.02 8.39323 9.83252 8.66146 9.66065C10.0391 8.77002 11.6875 8.2544 13.4531 8.2544Z" fill="#FDD6F0"/>
</g>
</svg>
