<svg width="16" height="18" viewBox="0 0 16 18" fill="none" xmlns="http://www.w3.org/2000/svg">
<path d="M12.6667 3.30078H3.33333C2.4496 3.30183 1.60237 3.65336 0.97748 4.27826C0.352588 4.90315 0.00105857 5.75038 0 6.63411H16C15.9989 5.75038 15.6474 4.90315 15.0225 4.27826C14.3976 3.65336 13.5504 3.30183 12.6667 3.30078Z" fill="#FFCD4C"/>
<path d="M0 11.9678C0.00105857 12.8515 0.352588 13.6987 0.97748 14.3236C1.60237 14.9485 2.4496 15.3 3.33333 15.3011H12.6667C13.5504 15.3 14.3976 14.9485 15.0225 14.3236C15.6474 13.6987 15.9989 12.8515 16 11.9678V7.96777H0V11.9678ZM4.66667 11.6344C4.66667 11.8322 4.60802 12.0255 4.49814 12.19C4.38826 12.3544 4.23208 12.4826 4.04935 12.5583C3.86662 12.634 3.66556 12.6538 3.47158 12.6152C3.2776 12.5766 3.09941 12.4814 2.95956 12.3415C2.81971 12.2017 2.72447 12.0235 2.68588 11.8295C2.6473 11.6355 2.6671 11.4345 2.74279 11.2517C2.81847 11.069 2.94665 10.9128 3.1111 10.803C3.27555 10.6931 3.46889 10.6344 3.66667 10.6344C3.93188 10.6344 4.18624 10.7398 4.37377 10.9273C4.56131 11.1148 4.66667 11.3692 4.66667 11.6344Z" fill="#FFCD4C"/>
</svg>
