<svg width="42" height="12" viewBox="0 0 42 12" fill="none" xmlns="http://www.w3.org/2000/svg">
<path d="M6.26692 10.2716C5.09505 10.2716 4.07508 10.072 3.20703 9.67269C2.33897 9.27338 1.66623 8.70697 1.1888 7.97347C0.711371 7.23562 0.472656 6.36756 0.472656 5.3693V5.35628C0.472656 4.35801 0.711371 3.49213 1.1888 2.75862C1.66623 2.02512 2.33897 1.45871 3.20703 1.05941C4.07942 0.660101 5.09939 0.460449 6.26692 0.460449C7.44314 0.460449 8.46527 0.660101 9.33333 1.05941C10.2014 1.45871 10.8742 2.02512 11.3516 2.75862C11.829 3.49213 12.0677 4.35801 12.0677 5.35628V5.3693C12.0677 6.36756 11.829 7.23345 11.3516 7.96696C10.8742 8.70046 10.2014 9.26904 9.33333 9.67269C8.46527 10.072 7.44314 10.2716 6.26692 10.2716ZM6.26692 8.55289C7.00043 8.55289 7.63628 8.42269 8.17447 8.16227C8.71701 7.90185 9.13585 7.53293 9.43098 7.0555C9.73046 6.57807 9.8802 6.016 9.8802 5.3693V5.35628C9.8802 4.70958 9.73046 4.14968 9.43098 3.67659C9.13585 3.19916 8.71701 2.83024 8.17447 2.56982C7.63628 2.3094 7.00043 2.1792 6.26692 2.1792C5.53776 2.1792 4.90191 2.3094 4.35937 2.56982C3.82118 2.83024 3.40234 3.19916 3.10286 3.67659C2.80772 4.14968 2.66015 4.70958 2.66015 5.35628V5.3693C2.66015 6.016 2.80772 6.57807 3.10286 7.0555C3.398 7.53293 3.81684 7.90185 4.35937 8.16227C4.90191 8.42269 5.53776 8.55289 6.26692 8.55289ZM9.48307 10.9943L5.99348 6.97737H8.08333L11.573 10.9943H9.48307ZM19.1706 10.2651C18.1333 10.2651 17.2348 10.0937 16.4753 9.75081C15.7201 9.40793 15.1363 8.91097 14.724 8.25992C14.316 7.60888 14.112 6.81678 14.112 5.88362V0.668782H16.2539V5.81852C16.2539 6.39578 16.3646 6.8884 16.586 7.29638C16.8117 7.70003 17.1394 8.00819 17.569 8.22086C18.0031 8.43354 18.5369 8.53987 19.1706 8.53987C19.8043 8.53987 20.336 8.43354 20.7657 8.22086C21.1997 8.00819 21.5274 7.70003 21.7487 7.29638C21.9701 6.8884 22.0808 6.39578 22.0808 5.81852V0.668782H24.2292V5.88362C24.2292 6.81244 24.0252 7.60454 23.6172 8.25992C23.2092 8.91097 22.6255 9.40793 21.8659 9.75081C21.1107 10.0937 20.2123 10.2651 19.1706 10.2651ZM26.6966 10.0633V0.668782H28.8451V10.0633H26.6966ZM31.0521 10.0633V8.70263L37.2891 2.42008V2.35498H31.1758V0.668782H40.2513V2.02946L34.0274 8.31201V8.37711H40.4011V10.0633H31.0521Z" fill="#BDB0AA"/>
</svg>
