<svg width="116" height="111" viewBox="0 0 116 111" fill="none" xmlns="http://www.w3.org/2000/svg">
<mask id="mask0_10_716" style="mask-type:alpha" maskUnits="userSpaceOnUse" x="0" y="0" width="116" height="111">
<path d="M100.339 0.787598H15.3386C7.05435 0.787598 0.338623 7.50333 0.338623 15.7876V95.7876C0.338623 104.072 7.05435 110.788 15.3386 110.788H100.339C108.623 110.788 115.339 104.072 115.339 95.7876V15.7876C115.339 7.50333 108.623 0.787598 100.339 0.787598Z" fill="white"/>
</mask>
<g mask="url(#mask0_10_716)">
<path d="M78.9835 135.578C78.7042 131.491 78.6332 126.226 78.666 125.652C78.7151 124.791 79.7335 115.281 83.1575 109.235C86.5815 103.189 90.2438 91.2143 91.9581 74.9418C92.4498 73.2604 94.4166 66.5351 95.8407 62.7614C96.3154 61.5036 98.6378 56.4847 99.4009 53.3274C100.164 50.1702 99.6893 51.4281 100.622 49.3358C101.554 47.2435 102.388 41.9533 103.386 38.6062C104.384 35.2592 100.303 30.8831 97.1502 35.4534C93.5229 41.2816 92.6236 47.8267 91.488 49.7009C90.3523 51.5751 85.9619 60.5606 85.1648 64.5648C84.4357 66.875 80.488 68.9169 81.3861 63.6047C81.9554 61.0358 83.9563 53.4635 84.4044 51.8227C84.8791 50.5649 86.3014 45.3032 86.6937 42.351C86.9481 41.2986 90.2387 22.741 90.2727 21.894C91.8207 16.8408 84.0591 12.0513 81.4445 19.9363C79.3755 29.2025 79.3259 33.921 77.4611 38.1055C75.5964 42.29 72.3555 56.1292 72.2874 57.8231C72.2193 59.517 69.6449 61.5101 70.2203 56.4899C70.7957 51.4697 71.8192 44.6522 72.2741 37.0476C72.3287 35.6868 72.6818 32.2805 72.8783 28.332C73.1098 23.6789 73.6933 18.6046 73.7955 16.0637C73.8976 13.5228 73.3748 11.7313 71.6258 10.6449C70.1849 9.74991 67.9616 9.62996 66.0661 11.0179C65.1746 11.6707 64.3573 13.4519 64.2287 15.6099C62.7356 26.3772 62.4011 32.4118 61.4459 37.3624C60.4907 42.313 59.9943 53.3876 59.5372 56.6695C59.2831 58.2778 56.7448 60.3256 55.1823 57.062C54.7408 56.1398 54.2062 52.0029 54.1237 50.1362C54.0367 48.1693 54.1756 46.0522 54.1483 42.4554C54.121 38.8585 53.5565 35.8028 53.3112 32.7199C52.9313 27.9449 52.7871 23.5045 52.9419 22.0589C53.2929 19.8764 53.0897 17.3655 51.7495 15.8339C50.3125 14.1916 47.6645 13.664 45.9599 15.5263C45.4121 16.1248 44.352 17.5317 44.1966 19.2193C43.1783 28.7287 42.4938 51.0782 43.1173 56.4922C42.9884 61.6416 40.6739 75.075 37.6455 78.0116C36.0624 78.9754 35.4617 77.0822 34.6485 76.2101C33.8352 75.338 30.5832 66.5499 29.9733 65.8959C29.3634 65.2418 27.4504 54.7975 20.1985 50.5546C19.1479 50.3115 13.4581 49.0955 16.5749 55.9717C17.5233 58.7557 18.9182 62.3463 18.3754 65.298C18.07 67.6209 19.6944 74.6635 22.083 78.5502C23.468 80.8038 24.6036 85.5712 24.8759 86.775C24.9184 86.9629 24.9743 87.1432 25.0496 87.3204C25.7792 89.0375 29.9934 98.7125 34.7659 104.633C36.5616 107.442 37.3806 109.531 40.2269 112.584C42.6306 116.456 41.849 124.926 42.4911 135.332" fill="#FFF8EA" fill-opacity="0.01"/>
<path d="M78.9835 135.578C78.7042 131.491 78.6332 126.226 78.666 125.652C78.7151 124.791 79.7335 115.281 83.1575 109.235C86.5815 103.189 90.2438 91.2143 91.9581 74.9418C92.4498 73.2604 94.4166 66.5351 95.8407 62.7614C96.3154 61.5036 98.6378 56.4847 99.4009 53.3274C100.164 50.1702 99.6893 51.4281 100.622 49.3358C101.554 47.2435 102.388 41.9533 103.386 38.6062C104.384 35.2592 100.303 30.8831 97.1502 35.4534C93.5229 41.2816 92.6236 47.8267 91.488 49.7009C90.3523 51.5751 85.9619 60.5606 85.1648 64.5648C84.4357 66.875 80.488 68.9169 81.3861 63.6047C81.9554 61.0358 83.9563 53.4635 84.4044 51.8227C84.8791 50.5649 86.3014 45.3032 86.6937 42.351C86.9481 41.2986 90.2387 22.741 90.2727 21.894C91.8207 16.8408 84.0591 12.0513 81.4445 19.9363C79.3755 29.2025 79.3259 33.921 77.4611 38.1055C75.5964 42.29 72.3555 56.1292 72.2874 57.8231C72.2193 59.517 69.6449 61.5101 70.2203 56.4899C70.7957 51.4697 71.8192 44.6522 72.2741 37.0476C72.3287 35.6868 72.6818 32.2805 72.8783 28.332C73.1098 23.679 73.6934 18.6046 73.7955 16.0637C73.8976 13.5228 73.3748 11.7313 71.6258 10.6449C70.1849 9.74991 67.9616 9.62996 66.0661 11.0179C65.1746 11.6707 64.3573 13.4519 64.2287 15.6099C62.7356 26.3772 62.4011 32.4118 61.4459 37.3624C60.4907 42.313 59.9943 53.3876 59.5372 56.6695C59.2831 58.2778 56.7448 60.3256 55.1823 57.062C54.7408 56.1398 54.2062 52.0029 54.1237 50.1362C54.0367 48.1693 54.1756 46.0522 54.1483 42.4554C54.121 38.8585 53.5565 35.8028 53.3112 32.7199C52.9313 27.9449 52.7871 23.5045 52.9419 22.0589C53.2929 19.8764 53.0897 17.3655 51.7495 15.8339C50.3125 14.1916 47.6645 13.664 45.9599 15.5263C45.4121 16.1248 44.352 17.5317 44.1966 19.2193C43.1783 28.7287 42.4938 51.0782 43.1173 56.4922C42.9884 61.6416 40.6739 75.0749 37.6456 78.0116C36.0624 78.9754 35.4617 77.0822 34.6485 76.2101C33.8352 75.338 30.5832 66.5499 29.9733 65.8959C29.3634 65.2418 27.4504 54.7975 20.1984 50.5546C19.1479 50.3115 13.4581 49.0955 16.5749 55.9717C17.5233 58.7557 18.9182 62.3463 18.3754 65.298C18.07 67.6209 19.6944 74.6635 22.083 78.5502C23.468 80.8038 24.6036 85.5712 24.8759 86.775C24.9184 86.9629 24.9743 87.1432 25.0496 87.3204C25.7792 89.0375 29.9934 98.7125 34.7659 104.633C36.5616 107.442 37.3806 109.531 40.2269 112.584C42.6306 116.456 41.849 124.926 42.4911 135.332" stroke="#A39376" stroke-width="1.6" stroke-linecap="round"/>
<path d="M78.9835 135.578C78.7042 131.491 78.6332 126.226 78.666 125.652C78.7151 124.791 79.7335 115.281 83.1575 109.235C86.5815 103.189 90.2438 91.2143 91.9581 74.9418C92.4498 73.2604 94.4166 66.5351 95.8407 62.7614C96.3154 61.5036 98.6378 56.4847 99.4009 53.3274C100.164 50.1702 99.6893 51.4281 100.622 49.3358C101.554 47.2435 102.388 41.9533 103.386 38.6062C104.384 35.2592 100.303 30.8831 97.1502 35.4534C93.5229 41.2816 92.6236 47.8267 91.488 49.7009C90.3523 51.5751 85.9619 60.5606 85.1648 64.5648C84.4357 66.875 80.488 68.9169 81.3861 63.6047C81.9554 61.0358 83.9563 53.4635 84.4044 51.8227C84.8791 50.5649 86.3014 45.3032 86.6937 42.351C86.9481 41.2986 90.2387 22.741 90.2727 21.894C91.8207 16.8408 84.0591 12.0513 81.4445 19.9363C79.3755 29.2025 79.3259 33.921 77.4611 38.1055C75.5964 42.29 72.3555 56.1292 72.2874 57.8231C72.2193 59.517 69.6449 61.5101 70.2203 56.4899C70.7957 51.4697 71.8192 44.6522 72.2741 37.0476C72.3287 35.6868 72.6818 32.2805 72.8783 28.332C73.1098 23.679 73.6934 18.6046 73.7955 16.0637C73.8976 13.5228 73.3748 11.7313 71.6258 10.6449C70.1849 9.74991 67.9616 9.62996 66.0661 11.0179C65.1746 11.6707 64.3573 13.4519 64.2287 15.6099C62.7356 26.3772 62.4011 32.4118 61.4459 37.3624C60.4907 42.313 59.9943 53.3876 59.5372 56.6695C59.2831 58.2778 56.7448 60.3256 55.1823 57.062C54.7408 56.1398 54.2062 52.0029 54.1237 50.1362C54.0367 48.1693 54.1756 46.0522 54.1483 42.4554C54.121 38.8585 53.5565 35.8028 53.3112 32.7199C52.9313 27.9449 52.7871 23.5045 52.9419 22.0589C53.2929 19.8764 53.0897 17.3655 51.7495 15.8339C50.3125 14.1916 47.6645 13.664 45.9599 15.5263C45.4121 16.1248 44.352 17.5317 44.1966 19.2193C43.1783 28.7287 42.4938 51.0782 43.1173 56.4922C42.9884 61.6416 40.6739 75.0749 37.6456 78.0116C36.0624 78.9754 35.4617 77.0822 34.6485 76.2101C33.8352 75.338 30.5832 66.5499 29.9733 65.8959C29.3634 65.2418 27.4504 54.7975 20.1984 50.5546C19.1479 50.3115 13.4581 49.0955 16.5749 55.9717C17.5233 58.7557 18.9182 62.3463 18.3754 65.298C18.07 67.6209 19.6944 74.6635 22.083 78.5502C23.468 80.8038 24.6036 85.5712 24.8759 86.775C24.9184 86.9629 24.9743 87.1432 25.0496 87.3204C25.7792 89.0375 29.9934 98.7125 34.7659 104.633C36.5616 107.442 37.3806 109.531 40.2269 112.584C42.6306 116.456 41.849 124.926 42.4911 135.332" stroke="url(#paint0_linear_10_716)" stroke-width="1.6" stroke-linecap="round"/>
<path d="M57.8146 106.506C58.674 94.9041 54.8068 78.1465 45.3538 72.9902" stroke="#598A7F" stroke-width="1.2" stroke-linecap="round"/>
<path d="M60.3926 110.802C65.5488 96.6223 66.6175 75.5764 66.4082 67.4038" stroke="#598A7F" stroke-width="1.2" stroke-linecap="round"/>
<path d="M80.1579 94.4739C80.1579 94.4739 62.1112 78.1459 49.2207 70.8413" stroke="url(#paint1_linear_10_716)" stroke-width="2.5" stroke-linecap="round"/>
<path d="M99.7893 46.4021C99.7893 46.4021 97.2728 46.772 94.8118 44.5938" stroke="#A39376" stroke-width="1.05805" stroke-linecap="round" stroke-dasharray="1.2 1.2"/>
<path d="M99.7893 46.4021C99.7893 46.4021 97.2728 46.772 94.8118 44.5938" stroke="url(#paint2_linear_10_716)" stroke-width="1.05805" stroke-linecap="round" stroke-dasharray="1.2 1.2"/>
<path d="M86.8518 31.8108C86.8518 31.8108 84.279 32.7097 80.7419 30.9619" stroke="#A39376" stroke-width="1.05805" stroke-linecap="round" stroke-dasharray="1.2 1.2"/>
<path d="M86.8518 31.8108C86.8518 31.8108 84.279 32.7097 80.7419 30.9619" stroke="url(#paint3_linear_10_716)" stroke-width="1.05805" stroke-linecap="round" stroke-dasharray="1.2 1.2"/>
<path d="M51.1785 28.1763C51.1785 28.1763 48.8441 29.5883 45.0139 28.6171" stroke="#A39376" stroke-width="1.05805" stroke-linecap="round" stroke-dasharray="1.2 1.2"/>
<path d="M51.1785 28.1763C51.1785 28.1763 48.8441 29.5883 45.0139 28.6171" stroke="url(#paint4_linear_10_716)" stroke-width="1.05805" stroke-linecap="round" stroke-dasharray="1.2 1.2"/>
<path d="M71.0617 25.5083C71.0617 25.5083 66.8395 26.7713 64.5212 24.5498" stroke="#A39376" stroke-width="1.05805" stroke-linecap="round" stroke-dasharray="1.2 1.2"/>
<path d="M71.0617 25.5083C71.0617 25.5083 66.8395 26.7713 64.5212 24.5498" stroke="url(#paint5_linear_10_716)" stroke-width="1.05805" stroke-linecap="round" stroke-dasharray="1.2 1.2"/>
<path d="M27.5004 65.0599C27.5004 65.0599 24.6533 66.4185 19.7932 61.6479" stroke="#A39376" stroke-width="1.05805" stroke-linecap="round" stroke-dasharray="1.68 1.68"/>
<path d="M27.5004 65.0599C27.5004 65.0599 24.6533 66.4185 19.7932 61.6479" stroke="url(#paint6_linear_10_716)" stroke-width="1.05805" stroke-linecap="round" stroke-dasharray="1.68 1.68"/>
<path d="M84.8845 85.0214C75.0018 82.4432 60.8222 75.5683 54.377 64.3965" stroke="#598A7F" stroke-width="1.2" stroke-linecap="round"/>
<path d="M48.3386 34.7876C56.0706 34.7876 62.3386 28.5196 62.3386 20.7876C62.3386 13.0556 56.0706 6.7876 48.3386 6.7876C40.6066 6.7876 34.3386 13.0556 34.3386 20.7876C34.3386 28.5196 40.6066 34.7876 48.3386 34.7876Z" fill="white" fill-opacity="0.2" stroke="white" stroke-width="2" stroke-linecap="round" stroke-dasharray="4 4"/>
</g>
<defs>
<linearGradient id="paint0_linear_10_716" x1="109.964" y1="133.754" x2="-8.01227" y2="125.649" gradientUnits="userSpaceOnUse">
<stop stop-color="#E5A87F"/>
<stop offset="0.18" stop-color="#ECBF98"/>
<stop offset="0.515434" stop-color="#F7E6C4"/>
<stop offset="1" stop-color="#E5A87F"/>
</linearGradient>
<linearGradient id="paint1_linear_10_716" x1="77.1093" y1="95.9075" x2="67.5029" y2="101.295" gradientUnits="userSpaceOnUse">
<stop stop-color="#E5A87F"/>
<stop offset="0.18" stop-color="#ECBF98"/>
<stop offset="0.515434" stop-color="#F7E6C4"/>
<stop offset="1" stop-color="#E5A87F"/>
</linearGradient>
<linearGradient id="paint2_linear_10_716" x1="99.3803" y1="47.9405" x2="96.2754" y2="48.789" gradientUnits="userSpaceOnUse">
<stop stop-color="#E5A87F"/>
<stop offset="0.18" stop-color="#ECBF98"/>
<stop offset="0.515434" stop-color="#F7E6C4"/>
<stop offset="1" stop-color="#E5A87F"/>
</linearGradient>
<linearGradient id="paint3_linear_10_716" x1="87.0264" y1="33.4967" x2="84.2956" y2="35.4303" gradientUnits="userSpaceOnUse">
<stop stop-color="#E5A87F"/>
<stop offset="0.18" stop-color="#ECBF98"/>
<stop offset="0.515434" stop-color="#F7E6C4"/>
<stop offset="1" stop-color="#E5A87F"/>
</linearGradient>
<linearGradient id="paint4_linear_10_716" x1="51.7008" y1="29.7921" x2="49.4274" y2="32.2559" gradientUnits="userSpaceOnUse">
<stop stop-color="#E5A87F"/>
<stop offset="0.18" stop-color="#ECBF98"/>
<stop offset="0.515434" stop-color="#F7E6C4"/>
<stop offset="1" stop-color="#E5A87F"/>
</linearGradient>
<linearGradient id="paint5_linear_10_716" x1="69.3224" y1="27.7198" x2="64.5317" y2="26.6581" gradientUnits="userSpaceOnUse">
<stop stop-color="#E5A87F"/>
<stop offset="0.18" stop-color="#ECBF98"/>
<stop offset="0.515434" stop-color="#F7E6C4"/>
<stop offset="1" stop-color="#E5A87F"/>
</linearGradient>
<linearGradient id="paint6_linear_10_716" x1="27.0928" y1="67.3413" x2="22.7726" y2="68.8517" gradientUnits="userSpaceOnUse">
<stop stop-color="#E5A87F"/>
<stop offset="0.18" stop-color="#ECBF98"/>
<stop offset="0.515434" stop-color="#F7E6C4"/>
<stop offset="1" stop-color="#E5A87F"/>
</linearGradient>
</defs>
</svg>
