<svg width="33" height="21" viewBox="0 0 33 21" fill="none" xmlns="http://www.w3.org/2000/svg">
<path d="M30.3452 1.11279H2.34521C1.51679 1.11279 0.845215 1.78437 0.845215 2.61279V18.6128C0.845215 19.4412 1.51679 20.1128 2.34521 20.1128H30.3452C31.1736 20.1128 31.8452 19.4412 31.8452 18.6128V2.61279C31.8452 1.78437 31.1736 1.11279 30.3452 1.11279Z" fill="white"/>
<path d="M30.3452 1.11279H2.34521C1.51679 1.11279 0.845215 1.78437 0.845215 2.61279V18.6128C0.845215 19.4412 1.51679 20.1128 2.34521 20.1128H30.3452C31.1736 20.1128 31.8452 19.4412 31.8452 18.6128V2.61279C31.8452 1.78437 31.1736 1.11279 30.3452 1.11279Z" stroke="#EDEEF0"/>
<mask id="mask0_16_2654" style="mask-type:luminance" maskUnits="userSpaceOnUse" x="5" y="6" width="23" height="10">
<path d="M27.3452 6.61279H5.34521V15.6128H27.3452V6.61279Z" fill="white"/>
</mask>
<g mask="url(#mask0_16_2654)">
<path d="M9.36848 7.77311C9.11067 8.07711 8.69817 8.31688 8.28567 8.28263C8.23411 7.87159 8.43606 7.43486 8.67239 7.16512C8.9302 6.85256 9.38137 6.62992 9.74661 6.61279C9.78957 7.04095 9.622 7.46055 9.36848 7.77311ZM9.74231 8.36398C9.14504 8.32973 8.63372 8.70223 8.35012 8.70223C8.06223 8.70223 7.62825 8.38111 7.15559 8.38967C6.54114 8.39823 5.96965 8.74505 5.65598 9.29738C5.01145 10.402 5.4884 12.0376 6.11145 12.9368C6.41653 13.3821 6.78176 13.8702 7.26301 13.853C7.71848 13.8359 7.89895 13.5576 8.44895 13.5576C9.00325 13.5576 9.16223 13.853 9.64348 13.8445C10.1419 13.8359 10.4556 13.3992 10.7606 12.9539C11.1087 12.4487 11.2505 11.9563 11.2591 11.9306C11.2505 11.922 10.2966 11.5581 10.288 10.462C10.2794 9.54571 11.0399 9.10898 11.0743 9.08329C10.6446 8.44961 9.97434 8.38111 9.74231 8.36398ZM13.1927 7.1223V13.7974H14.2325V11.5153H15.672C16.9868 11.5153 17.9106 10.6161 17.9106 9.3145C17.9106 8.01289 17.004 7.1223 15.7064 7.1223H13.1927ZM14.2325 7.99576H15.4314C16.3337 7.99576 16.8493 8.4753 16.8493 9.31878C16.8493 10.1623 16.3337 10.6461 15.4271 10.6461H14.2325V7.99576ZM19.8099 13.8488C20.463 13.8488 21.0688 13.5191 21.3438 12.9967H21.3653V13.7974H22.3278V10.4748C22.3278 9.51146 21.5544 8.89062 20.3642 8.89062C19.2599 8.89062 18.4435 9.52002 18.4134 10.3849H19.3501C19.4274 9.97387 19.8099 9.70413 20.3341 9.70413C20.97 9.70413 21.3267 9.99956 21.3267 10.5433V10.9116L20.029 10.9886C18.8216 11.0614 18.1685 11.5538 18.1685 12.4101C18.1685 13.275 18.8431 13.8488 19.8099 13.8488ZM20.0892 13.0567C19.5349 13.0567 19.1825 12.7912 19.1825 12.3844C19.1825 11.9648 19.522 11.7208 20.1708 11.6823L21.3267 11.6095V11.9863C21.3267 12.6114 20.7939 13.0567 20.0892 13.0567ZM23.6126 15.6128C24.6267 15.6128 25.1036 15.2275 25.5204 14.0586L27.3466 8.95485H26.2896L25.0649 12.8982H25.0435L23.8188 8.95485H22.7317L24.4935 13.8145L24.3989 14.1099C24.2399 14.6109 23.9821 14.8036 23.5224 14.8036C23.4407 14.8036 23.2817 14.795 23.2173 14.7864V15.5871C23.2774 15.6042 23.5353 15.6128 23.6126 15.6128Z" fill="black"/>
</g>
</svg>
