<svg width="10" height="10" viewBox="0 0 10 10" fill="none" xmlns="http://www.w3.org/2000/svg">
<g clip-path="url(#clip0_1_401)">
<path d="M9.37029 5.11817C9.37029 4.98822 9.33929 4.86629 9.28736 4.75547C8.94094 3.63792 7.31912 3.71955 5.0122 3.66504C4.62651 3.656 4.84713 3.20056 4.98249 2.20081C5.07059 1.55058 4.65131 0.552124 3.94658 0.552124C2.78459 0.552124 3.9024 1.46869 2.87501 3.73531C2.32605 4.94637 1.09897 4.26799 1.09897 5.48448V8.25356C1.09897 8.72708 1.14547 9.18227 1.81145 9.25718C2.45703 9.32977 2.31184 9.78987 3.24314 9.78987H7.9045C8.37932 9.78987 8.76553 9.4034 8.76553 8.92858C8.76553 8.73173 8.69655 8.55245 8.58521 8.40727C8.84871 8.25976 9.02954 7.98127 9.02954 7.65836C9.02954 7.46202 8.96083 7.28274 8.84974 7.13782C9.11402 6.99057 9.29537 6.71182 9.29537 6.38839C9.29537 6.15357 9.2003 5.9407 9.04711 5.78492C9.24267 5.62708 9.37029 5.38838 9.37029 5.11817Z" fill="#FFDC5D"/>
<path d="M6.28683 5.97925H8.50953C8.81178 5.97925 9.09543 5.81754 9.24991 5.55739C9.31346 5.45019 9.27807 5.31146 9.1706 5.24765C9.06339 5.18384 8.92467 5.21975 8.86086 5.32696C8.78775 5.4507 8.65264 5.52717 8.50927 5.52717H6.23335C6.00783 5.52717 5.82441 5.34375 5.82441 5.11823C5.82441 4.8927 6.00783 4.70929 6.23335 4.70929H7.75416C7.87894 4.70929 7.9802 4.60802 7.9802 4.48324C7.9802 4.35847 7.87894 4.2572 7.75416 4.2572H6.2331C5.75828 4.2572 5.37207 4.64341 5.37207 5.11823C5.37207 5.38302 5.49478 5.61733 5.68336 5.77543C5.52449 5.93172 5.42555 6.14872 5.42555 6.38845C5.42555 6.65402 5.54903 6.8891 5.73865 7.04694C5.5808 7.20298 5.4829 7.4192 5.4829 7.65842C5.4829 7.94775 5.6273 8.20299 5.84689 8.35928C5.71152 8.51144 5.62679 8.70958 5.62679 8.92864C5.62679 9.40346 6.013 9.78967 6.48781 9.78967H7.90451C8.20676 9.78967 8.49067 9.62821 8.64515 9.36807C8.70896 9.26086 8.67357 9.12214 8.56636 9.05833C8.4589 8.99504 8.32017 9.02991 8.25662 9.13712C8.183 9.26086 8.04789 9.33759 7.90451 9.33759H6.48781C6.26229 9.33759 6.07887 9.15417 6.07887 8.92864C6.07887 8.70312 6.26229 8.5197 6.48781 8.5197H8.16853C8.47078 8.5197 8.75495 8.35799 8.90917 8.09784C8.97298 7.99038 8.93759 7.85165 8.83038 7.7881C8.72214 7.72326 8.58393 7.75969 8.52064 7.86689C8.44598 7.9927 8.31423 8.06762 8.16853 8.06762H6.34392C6.1184 8.06762 5.93498 7.88394 5.93498 7.65842C5.93498 7.43289 6.1184 7.24948 6.34392 7.24948H8.4341C8.73635 7.24948 9.02025 7.08802 9.17474 6.82788C9.23855 6.72067 9.20315 6.58194 9.09595 6.51814C8.98822 6.45459 8.84975 6.48972 8.7862 6.59693C8.71154 6.72248 8.5798 6.79739 8.4341 6.79739H6.28683C6.0613 6.79739 5.87789 6.61398 5.87789 6.38845C5.87789 6.16293 6.06105 5.97925 6.28683 5.97925Z" fill="#EE9547"/>
</g>
<defs>
<clipPath id="clip0_1_401">
<rect width="9.3" height="9.3" fill="white" transform="translate(0.339996 0.489868)"/>
</clipPath>
</defs>
</svg>
