<svg width="10" height="10" viewBox="0 0 10 10" fill="none" xmlns="http://www.w3.org/2000/svg">
<g clip-path="url(#clip0_1_230)">
<path d="M9.37029 4.66821C9.37029 4.53827 9.33929 4.41634 9.28736 4.30551C8.94094 3.18796 7.31912 3.2696 5.0122 3.21509C4.62651 3.20605 4.84713 2.75061 4.98249 1.75086C5.07059 1.10063 4.65131 0.102173 3.94658 0.102173C2.78459 0.102173 3.9024 1.01874 2.87501 3.28536C2.32605 4.49642 1.09897 3.81804 1.09897 5.03453V7.80361C1.09897 8.27713 1.14547 8.73231 1.81145 8.80723C2.45703 8.87982 2.31184 9.33991 3.24314 9.33991H7.9045C8.37932 9.33991 8.76553 8.95345 8.76553 8.47863C8.76553 8.28178 8.69655 8.1025 8.58521 7.95731C8.84871 7.80981 9.02954 7.53132 9.02954 7.20841C9.02954 7.01207 8.96083 6.83279 8.84974 6.68786C9.11402 6.54061 9.29537 6.26187 9.29537 5.93844C9.29537 5.70361 9.2003 5.49075 9.04711 5.33497C9.24267 5.17713 9.37029 4.93843 9.37029 4.66821Z" fill="#FFDC5D"/>
<path d="M6.28683 5.5293H8.50953C8.81178 5.5293 9.09543 5.36758 9.24991 5.10744C9.31346 5.00023 9.27807 4.86151 9.1706 4.7977C9.06339 4.73389 8.92467 4.7698 8.86086 4.87701C8.78775 5.00075 8.65264 5.07722 8.50927 5.07722H6.23335C6.00783 5.07722 5.82441 4.8938 5.82441 4.66828C5.82441 4.44275 6.00783 4.25933 6.23335 4.25933H7.75416C7.87894 4.25933 7.9802 4.15807 7.9802 4.03329C7.9802 3.90852 7.87894 3.80725 7.75416 3.80725H6.2331C5.75828 3.80725 5.37207 4.19346 5.37207 4.66828C5.37207 4.93307 5.49478 5.16738 5.68336 5.32548C5.52449 5.48177 5.42555 5.69877 5.42555 5.9385C5.42555 6.20407 5.54903 6.43915 5.73865 6.59699C5.5808 6.75303 5.4829 6.96925 5.4829 7.20847C5.4829 7.4978 5.6273 7.75303 5.84689 7.90933C5.71152 8.06148 5.62679 8.25963 5.62679 8.47869C5.62679 8.95351 6.013 9.33972 6.48781 9.33972H7.90451C8.20676 9.33972 8.49067 9.17826 8.64515 8.91812C8.70896 8.81091 8.67357 8.67218 8.56636 8.60838C8.4589 8.54508 8.32017 8.57996 8.25662 8.68717C8.183 8.81091 8.04789 8.88763 7.90451 8.88763H6.48781C6.26229 8.88763 6.07887 8.70422 6.07887 8.47869C6.07887 8.25317 6.26229 8.06975 6.48781 8.06975H8.16853C8.47078 8.06975 8.75495 7.90803 8.90917 7.64789C8.97298 7.54043 8.93759 7.4017 8.83038 7.33815C8.72214 7.27331 8.58393 7.30973 8.52064 7.41694C8.44598 7.54275 8.31423 7.61767 8.16853 7.61767H6.34392C6.1184 7.61767 5.93498 7.43399 5.93498 7.20847C5.93498 6.98294 6.1184 6.79953 6.34392 6.79953H8.4341C8.73635 6.79953 9.02025 6.63807 9.17474 6.37793C9.23855 6.27072 9.20315 6.13199 9.09595 6.06818C8.98822 6.00463 8.84975 6.03977 8.7862 6.14698C8.71154 6.27253 8.5798 6.34744 8.4341 6.34744H6.28683C6.0613 6.34744 5.87789 6.16403 5.87789 5.9385C5.87789 5.71298 6.06105 5.5293 6.28683 5.5293Z" fill="#EE9547"/>
</g>
<defs>
<clipPath id="clip0_1_230">
<rect width="9.3" height="9.3" fill="white" transform="translate(0.339996 0.039917)"/>
</clipPath>
</defs>
</svg>
