<svg width="10" height="10" viewBox="0 0 10 10" fill="none" xmlns="http://www.w3.org/2000/svg">
<g clip-path="url(#clip0_1_312)">
<path d="M9.37029 5.03821C9.37029 4.90827 9.33929 4.78633 9.28736 4.67551C8.94094 3.55796 7.31912 3.63959 5.0122 3.58508C4.62651 3.57604 4.84713 3.1206 4.98249 2.12085C5.07059 1.47063 4.65131 0.472168 3.94658 0.472168C2.78459 0.472168 3.9024 1.38873 2.87501 3.65535C2.32605 4.86642 1.09897 4.18803 1.09897 5.40453V8.1736C1.09897 8.64713 1.14547 9.10231 1.81145 9.17723C2.45703 9.24982 2.31184 9.70991 3.24314 9.70991H7.9045C8.37932 9.70991 8.76553 9.32344 8.76553 8.84863C8.76553 8.65178 8.69655 8.47249 8.58521 8.32731C8.84871 8.1798 9.02954 7.90132 9.02954 7.5784C9.02954 7.38207 8.96083 7.20278 8.84974 7.05786C9.11402 6.91061 9.29537 6.63187 9.29537 6.30843C9.29537 6.07361 9.2003 5.86074 9.04711 5.70497C9.24267 5.54713 9.37029 5.30843 9.37029 5.03821Z" fill="#FFDC5D"/>
<path d="M6.28683 5.8993H8.50953C8.81178 5.8993 9.09543 5.73758 9.24991 5.47744C9.31346 5.37023 9.27807 5.2315 9.1706 5.1677C9.06339 5.10389 8.92467 5.1398 8.86086 5.247C8.78775 5.37075 8.65264 5.44721 8.50927 5.44721H6.23335C6.00783 5.44721 5.82441 5.2638 5.82441 5.03827C5.82441 4.81275 6.00783 4.62933 6.23335 4.62933H7.75416C7.87894 4.62933 7.9802 4.52806 7.9802 4.40329C7.9802 4.27851 7.87894 4.17725 7.75416 4.17725H6.2331C5.75828 4.17725 5.37207 4.56345 5.37207 5.03827C5.37207 5.30306 5.49478 5.53737 5.68336 5.69547C5.52449 5.85176 5.42555 6.06876 5.42555 6.3085C5.42555 6.57406 5.54903 6.80915 5.73865 6.96699C5.5808 7.12302 5.4829 7.33925 5.4829 7.57846C5.4829 7.8678 5.6273 8.12303 5.84689 8.27932C5.71152 8.43148 5.62679 8.62962 5.62679 8.84869C5.62679 9.3235 6.013 9.70971 6.48781 9.70971H7.90451C8.20676 9.70971 8.49067 9.54825 8.64515 9.28811C8.70896 9.1809 8.67357 9.04218 8.56636 8.97837C8.4589 8.91508 8.32017 8.94995 8.25662 9.05716C8.183 9.1809 8.04789 9.25763 7.90451 9.25763H6.48781C6.26229 9.25763 6.07887 9.07421 6.07887 8.84869C6.07887 8.62316 6.26229 8.43975 6.48781 8.43975H8.16853C8.47078 8.43975 8.75495 8.27803 8.90917 8.01789C8.97298 7.91042 8.93759 7.7717 8.83038 7.70815C8.72214 7.6433 8.58393 7.67973 8.52064 7.78694C8.44598 7.91275 8.31423 7.98766 8.16853 7.98766H6.34392C6.1184 7.98766 5.93498 7.80399 5.93498 7.57846C5.93498 7.35294 6.1184 7.16952 6.34392 7.16952H8.4341C8.73635 7.16952 9.02025 7.00806 9.17474 6.74792C9.23855 6.64071 9.20315 6.50199 9.09595 6.43818C8.98822 6.37463 8.84975 6.40976 8.7862 6.51697C8.71154 6.64252 8.5798 6.71744 8.4341 6.71744H6.28683C6.0613 6.71744 5.87789 6.53402 5.87789 6.3085C5.87789 6.08297 6.06105 5.8993 6.28683 5.8993Z" fill="#EE9547"/>
</g>
<defs>
<clipPath id="clip0_1_312">
<rect width="9.3" height="9.3" fill="white" transform="translate(0.339996 0.409912)"/>
</clipPath>
</defs>
</svg>
