<svg width="33" height="21" viewBox="0 0 33 21" fill="none" xmlns="http://www.w3.org/2000/svg">
<path d="M29.3452 1.47266H3.34521C1.9645 1.47266 0.845215 2.59194 0.845215 3.97266V17.9727C0.845215 19.3534 1.9645 20.4727 3.34521 20.4727H29.3452C30.7259 20.4727 31.8452 19.3534 31.8452 17.9727V3.97266C31.8452 2.59194 30.7259 1.47266 29.3452 1.47266Z" fill="white"/>
<path d="M29.3452 1.47266H3.34521C1.9645 1.47266 0.845215 2.59194 0.845215 3.97266V17.9727C0.845215 19.3534 1.9645 20.4727 3.34521 20.4727H29.3452C30.7259 20.4727 31.8452 19.3534 31.8452 17.9727V3.97266C31.8452 2.59194 30.7259 1.47266 29.3452 1.47266Z" stroke="#EDEEF0"/>
<path d="M17.9046 10.9727C17.9046 13.458 15.9155 15.4727 13.4618 15.4727C11.0081 15.4727 9.01904 13.458 9.01904 10.9727C9.01904 8.48738 11.0081 6.47266 13.4618 6.47266C15.9155 6.47266 17.9046 8.48738 17.9046 10.9727Z" fill="#EC0014"/>
<path d="M23.6703 10.9727C23.6703 13.458 21.6812 15.4727 19.2275 15.4727C16.7738 15.4727 14.7847 13.458 14.7847 10.9727C14.7847 8.48738 16.7738 6.47266 19.2275 6.47266C21.6812 6.47266 23.6703 8.48738 23.6703 10.9727Z" fill="#00A3E6"/>
<path d="M16.3521 7.5459C17.3088 8.3713 17.9156 9.60045 17.9156 10.9731C17.9156 12.3458 17.3088 13.5749 16.3521 14.4003C15.3954 13.5749 14.7886 12.3457 14.7886 10.973C14.7886 9.60042 15.3953 8.3713 16.3521 7.5459Z" fill="#7476D0"/>
</svg>
