<svg width="18" height="18" viewBox="0 0 18 18" fill="none" xmlns="http://www.w3.org/2000/svg">
<mask id="mask0_16_2603" style="mask-type:luminance" maskUnits="userSpaceOnUse" x="0" y="0" width="17" height="17">
<path d="M16.9651 0.879395H0.965088V16.8794H16.9651V0.879395Z" fill="white"/>
</mask>
<g mask="url(#mask0_16_2603)">
<path d="M13.9651 3.54606H11.2644C11.1842 2.81476 10.8374 2.13864 10.2903 1.64676C9.74318 1.15489 9.03411 0.881719 8.29842 0.879395H3.96509C3.16971 0.880277 2.40716 1.19663 1.84474 1.75905C1.28232 2.32146 0.96597 3.08401 0.965088 3.87939V15.8794C0.965088 16.1446 1.07044 16.399 1.25798 16.5865C1.44552 16.774 1.69987 16.8794 1.96509 16.8794C2.23031 16.8794 2.48466 16.774 2.6722 16.5865C2.85973 16.399 2.96509 16.1446 2.96509 15.8794V10.2127H7.33242C7.41271 10.944 7.75949 11.6202 8.30658 12.112C8.85367 12.6039 9.56273 12.8771 10.2984 12.8794H13.9651C14.7605 12.8785 15.523 12.5622 16.0854 11.9997C16.6479 11.4373 16.9642 10.6748 16.9651 9.87939V6.54606C16.9642 5.75068 16.6479 4.98813 16.0854 4.42571C15.523 3.86329 14.7605 3.54694 13.9651 3.54606ZM2.96509 3.87939C2.96509 3.61418 3.07045 3.35982 3.25798 3.17228C3.44552 2.98475 3.69987 2.87939 3.96509 2.87939H8.29842C8.56364 2.87939 8.81799 2.98475 9.00553 3.17228C9.19307 3.35982 9.29842 3.61418 9.29842 3.87939V7.21273C9.29842 7.47794 9.19307 7.7323 9.00553 7.91983C8.81799 8.10737 8.56364 8.21273 8.29842 8.21273H2.96509V3.87939ZM14.9651 9.87939C14.9651 10.1446 14.8597 10.399 14.6722 10.5865C14.4847 10.774 14.2303 10.8794 13.9651 10.8794H10.2984C10.059 10.8784 9.82785 10.7915 9.64704 10.6346C9.46622 10.4776 9.34773 10.261 9.31309 10.0241C9.89289 9.8164 10.3946 9.43507 10.7498 8.932C11.1051 8.42893 11.2967 7.82859 11.2984 7.21273V5.54606H13.9651C14.2303 5.54606 14.4847 5.65142 14.6722 5.83895C14.8597 6.02649 14.9651 6.28084 14.9651 6.54606V9.87939Z" fill="#227E64"/>
</g>
</svg>
