<svg width="33" height="21" viewBox="0 0 33 21" fill="none" xmlns="http://www.w3.org/2000/svg">
<path d="M29.3452 1.47266H3.34521C1.9645 1.47266 0.845215 2.59194 0.845215 3.97266V17.9727C0.845215 19.3534 1.9645 20.4727 3.34521 20.4727H29.3452C30.7259 20.4727 31.8452 19.3534 31.8452 17.9727V3.97266C31.8452 2.59194 30.7259 1.47266 29.3452 1.47266Z" fill="white"/>
<path d="M29.3452 1.47266H3.34521C1.9645 1.47266 0.845215 2.59194 0.845215 3.97266V17.9727C0.845215 19.3534 1.9645 20.4727 3.34521 20.4727H29.3452C30.7259 20.4727 31.8452 19.3534 31.8452 17.9727V3.97266C31.8452 2.59194 30.7259 1.47266 29.3452 1.47266Z" stroke="#EDEEF0"/>
<path fill-rule="evenodd" clip-rule="evenodd" d="M16.3411 14.3999C15.5657 15.0689 14.5603 15.4727 13.4618 15.4727C11.0081 15.4727 9.01904 13.458 9.01904 10.9727C9.01904 8.48738 11.0081 6.47266 13.4618 6.47266C14.5603 6.47266 15.5657 6.87644 16.3411 7.54545C17.1166 6.87644 18.1219 6.47266 19.2204 6.47266C21.6741 6.47266 23.6632 8.48738 23.6632 10.9727C23.6632 13.458 21.6741 15.4727 19.2204 15.4727C18.1219 15.4727 17.1166 15.0689 16.3411 14.3999Z" fill="#EC0014"/>
<path fill-rule="evenodd" clip-rule="evenodd" d="M16.3433 14.3963C17.2977 13.571 17.9028 12.3434 17.9028 10.9727C17.9028 9.60195 17.2977 8.37438 16.3433 7.54901C17.1194 6.87787 18.1263 6.47266 19.2267 6.47266C21.6804 6.47266 23.6696 8.48738 23.6696 10.9727C23.6696 13.458 21.6804 15.4727 19.2267 15.4727C18.1263 15.4727 17.1194 15.0675 16.3433 14.3963Z" fill="#F9A000"/>
<path fill-rule="evenodd" clip-rule="evenodd" d="M16.352 7.5459C17.3088 8.3713 17.9156 9.60045 17.9156 10.9732C17.9156 12.3458 17.3088 13.575 16.3521 14.4004C15.3954 13.575 14.7886 12.3458 14.7886 10.9731C14.7886 9.60041 15.3953 8.3713 16.352 7.5459Z" fill="#FF5E00"/>
</svg>
