<svg width="16" height="16" viewBox="0 0 16 16" fill="none" xmlns="http://www.w3.org/2000/svg">
<path d="M12.6668 5.616V4.66666C12.6668 2.08934 10.5775 0 8.00015 0C5.42281 0 3.3335 2.08934 3.3335 4.66666V5.616C2.12018 6.14553 1.33525 7.34284 1.3335 8.66666V12.6667C1.33568 14.5067 2.82678 15.9978 4.66681 16H11.3335C13.1735 15.9978 14.6646 14.5067 14.6668 12.6667V8.66666C14.6651 7.34284 13.8801 6.14553 12.6668 5.616ZM8.66681 11.3333C8.66681 11.7015 8.36834 12 8.00015 12C7.63197 12 7.3335 11.7015 7.3335 11.3333V10C7.3335 9.63181 7.63197 9.33334 8.00015 9.33334C8.36834 9.33334 8.66681 9.63181 8.66681 10V11.3333ZM11.3335 5.33334H4.66681V4.66669C4.66681 2.82575 6.15918 1.33334 8.00015 1.33334C9.84112 1.33334 11.3335 2.82572 11.3335 4.66669V5.33334Z" fill="#FF854C"/>
</svg>
