<svg width="30" height="21" viewBox="0 0 30 21" fill="none" xmlns="http://www.w3.org/2000/svg">
<path d="M26 0.569702H4C1.90592 0.569702 0.208328 2.26729 0.208328 4.36137V16.3613C0.208328 18.4554 1.90592 20.153 4 20.153H26C28.094 20.153 29.7916 18.4554 29.7916 16.3613V4.36137C29.7916 2.26729 28.094 0.569702 26 0.569702Z" fill="white" stroke="#DDDDDD" stroke-width="0.416667"/>
<path fill-rule="evenodd" clip-rule="evenodd" d="M25.7504 8.33053C26.6713 8.33053 27.1777 8.74154 27.1777 9.51789C27.2237 10.1116 26.8094 10.6139 26.2569 10.7053L27.5 12.395H26.5331L25.4742 10.7509H25.3821V12.395H24.5994V8.33053H25.7504ZM25.3821 10.2029H25.6123C26.1188 10.2029 26.349 9.97458 26.349 9.56357C26.349 9.19823 26.1188 8.96989 25.6123 8.96989H25.3821V10.2029ZM21.8831 12.395H24.093V11.71H22.6657V10.6139H24.047V9.9289H22.6657V9.01554H24.093V8.33053H21.8831V12.395ZM19.581 11.0706L18.5221 8.33053H17.6934L19.3969 12.4863H19.8112L21.5147 8.33053H20.686L19.581 11.0706ZM10.2348 10.3857C10.2348 11.5274 11.1556 12.4864 12.3066 12.4864C12.675 12.4864 12.9972 12.3951 13.3195 12.2581V11.3447C13.0893 11.6187 12.767 11.8014 12.3987 11.8014C11.6621 11.8014 11.0635 11.2534 11.0635 10.5227V10.4314C11.0175 9.70069 11.616 9.06134 12.3527 9.01567C12.721 9.01567 13.0893 9.19834 13.3195 9.47235V8.55899C13.0433 8.37632 12.675 8.33065 12.3527 8.33065C11.1556 8.23932 10.2348 9.19834 10.2348 10.3857ZM8.80755 9.88326C8.34715 9.70059 8.20903 9.60925 8.20903 9.38091C8.25507 9.1069 8.48527 8.87856 8.76151 8.92423C8.99172 8.92423 9.22192 9.06124 9.40608 9.24391L9.82045 8.69589C9.49816 8.42188 9.0838 8.23921 8.66943 8.23921C8.02487 8.19354 7.47238 8.69589 7.42634 9.33524V9.38091C7.42634 9.92893 7.65654 10.2486 8.39319 10.4769C8.57735 10.5226 8.76151 10.6139 8.94568 10.7053C9.0838 10.7966 9.17588 10.9336 9.17588 11.1163C9.17588 11.436 8.89964 11.71 8.62339 11.71H8.57735C8.20903 11.71 7.88674 11.4816 7.74862 11.162L7.24218 11.6643C7.51842 12.1667 8.07091 12.4407 8.62339 12.4407C9.36004 12.4863 9.95857 11.9383 10.0046 11.2076V11.0706C9.95857 10.5226 9.72836 10.2486 8.80755 9.88326ZM6.13721 12.395H6.9199V8.33053H6.13721V12.395ZM2.5 8.33053H3.65101H3.88122C4.98619 8.37619 5.86096 9.28955 5.81492 10.3856C5.81492 10.9793 5.53867 11.5273 5.07827 11.9383C4.6639 12.258 4.15746 12.4406 3.65101 12.395H2.5V8.33053ZM3.5129 11.7099C3.88123 11.7555 4.29559 11.6185 4.57183 11.3902C4.84808 11.1162 4.9862 10.7508 4.9862 10.3398C4.9862 9.97449 4.84808 9.60915 4.57183 9.33514C4.29559 9.1068 3.88123 8.9698 3.5129 9.01546H3.2827V11.7099H3.5129Z" fill="black"/>
<path fill-rule="evenodd" clip-rule="evenodd" d="M15.7101 8.23633C14.5591 8.23633 13.5923 9.14969 13.5923 10.3371C13.5923 11.4787 14.5131 12.4378 15.7101 12.4834C16.9072 12.5291 17.828 11.5701 17.8741 10.3827C17.828 9.19535 16.9072 8.23633 15.7101 8.23633Z" fill="url(#paint0_linear_1_665)"/>
<path fill-rule="evenodd" clip-rule="evenodd" d="M15.7101 8.23633C14.5591 8.23633 13.5923 9.14969 13.5923 10.3371C13.5923 11.4787 14.5131 12.4378 15.7101 12.4834C16.9072 12.5291 17.828 11.5701 17.8741 10.3827C17.828 9.19535 16.9072 8.23633 15.7101 8.23633Z" fill="url(#paint1_radial_1_665)"/>
<defs>
<linearGradient id="paint0_linear_1_665" x1="14.4196" y1="8.63777" x2="17.1997" y2="11.8753" gradientUnits="userSpaceOnUse">
<stop stop-color="#E15315"/>
<stop offset="1" stop-color="#FFB320"/>
</linearGradient>
<radialGradient id="paint1_radial_1_665" cx="0" cy="0" r="1" gradientUnits="userSpaceOnUse" gradientTransform="translate(16.0418 10.9863) rotate(-126.027) scale(2.83364 2.93383)">
<stop stop-color="#FFCD83" stop-opacity="0"/>
<stop offset="0.725604" stop-color="#E45816" stop-opacity="0.7"/>
<stop offset="1" stop-color="#912301"/>
</radialGradient>
</defs>
</svg>
