<svg width="139" height="24" viewBox="0 0 139 24" fill="none" xmlns="http://www.w3.org/2000/svg">
<mask id="mask0_1_1226" style="mask-type:luminance" maskUnits="userSpaceOnUse" x="0" y="0" width="139" height="24">
<path d="M138.658 0.509277H0.556641V23.5093H138.658V0.509277Z" fill="white"/>
</mask>
<g mask="url(#mask0_1_1226)">
<g opacity="0.4">
<path fill-rule="evenodd" clip-rule="evenodd" d="M19.1152 22.3617H12.5573V11.9565C12.5573 10.8645 11.7733 10.1644 10.8549 10.1644C9.95885 10.1644 8.87802 10.8925 8.87802 11.9565V22.3617H2.99219V5.78511L1.09375 4.44105C3.26659 3.71304 6.90114 2.14502 8.87802 1.04736V9.73887C9.66763 8.75883 11.5885 7.49876 14.0246 7.49876C17.1159 7.49876 18.4431 9.5428 18.4431 11.9845V20.7656C18.4431 21.0346 18.6671 21.5609 19.1152 22.3617ZM86.7039 22.3617H80.146V11.9565C80.146 10.8645 79.3621 10.1644 78.4436 10.1644C77.5476 10.1644 76.4667 10.8925 76.4667 11.9565V22.3617H70.5809V5.78511L68.6825 4.44105C70.8553 3.71304 74.4899 2.14502 76.4667 1.04736V9.73887C77.2508 8.75883 79.1716 7.49876 81.6133 7.49876C84.7046 7.49876 86.0319 9.5428 86.0319 11.9845V20.7656C86.0319 21.0346 86.2558 21.5609 86.7039 22.3617ZM33.4517 19.8864V20.9224C32.1468 22.0481 30.7019 22.9721 27.605 22.9721C22.7105 22.9721 19.72 19.6904 19.72 15.6471C19.72 10.8253 22.7945 7.53801 27.3026 7.53801C31.766 7.53801 33.4517 10.5957 33.4517 14.443H25.2978C25.6505 18.8728 28.1203 20.8944 30.3771 20.8944C31.4636 20.8944 32.69 20.5303 33.4517 19.8864ZM27.0282 13.5694C28.3387 13.5694 28.4899 13.1943 28.4899 12.0966C28.4899 11.2565 28.3387 9.18444 27.0282 9.18444C25.7178 9.18444 25.5666 11.2565 25.5666 12.0966C25.5666 13.1942 25.7177 13.5694 27.0282 13.5694ZM138.119 19.8808V20.9169C136.814 22.0425 135.37 22.9665 132.273 22.9665C127.378 22.9665 124.388 19.6848 124.388 15.6471C124.388 10.8197 127.462 7.53801 131.976 7.53801C136.434 7.53801 138.119 10.5957 138.119 14.4374H129.965C130.318 18.8728 132.788 20.8888 135.045 20.8888C136.131 20.8888 137.358 20.5247 138.119 19.8808ZM131.696 13.5638C133.006 13.5638 133.157 13.1944 133.157 12.0966C133.157 11.2565 133.006 9.1788 131.696 9.1788C130.385 9.1788 130.234 11.2565 130.234 12.0966C130.234 13.1942 130.385 13.5638 131.696 13.5638ZM50.0786 19.7576L50.7338 19.8974C50.4372 21.1015 49.569 22.9719 46.7745 22.9719C44.4448 22.9719 43.7896 21.5383 43.3024 20.0262C42.8936 21.4263 41.2975 22.9719 38.2622 22.9719C35.5517 22.9719 34.0621 21.7678 34.0621 19.4942C34.0621 16.9685 36.5262 15.1148 42.6808 13.2891V10.6291C42.6808 9.25147 41.9471 8.77542 41.1351 8.77542C40.4015 8.77542 39.2366 9.55946 39.2366 10.7971C39.2366 11.3851 39.3484 11.8331 39.4272 12.4212C39.4272 13.1772 38.5592 14.3308 37.2319 14.3308C35.7703 14.3308 35.0646 13.2667 35.0646 12.0291C35.0646 10.0074 36.9351 7.53777 41.8409 7.53777C46.9371 7.53777 48.5611 10.2314 48.5611 12.8131V19.6622C48.5611 20.0822 48.729 20.5023 49.1884 20.5023C49.5915 20.5023 49.8714 20.2728 50.0786 19.7576ZM42.7088 19.2424V14.1574C40.6479 14.9918 39.9367 17.0639 39.9367 18.6544C39.9367 19.9368 40.3341 20.5248 41.2863 20.5248C42.1152 20.5248 42.7088 19.9928 42.7088 19.2424ZM58.5069 22.3617H51.7419V5.78511L49.9386 4.44105C51.9995 3.71304 55.7852 2.14502 57.6669 1.04736V20.7656C57.6669 21.0176 57.9469 21.5497 58.5069 22.3617ZM95.6026 22.3617H88.832V5.78511L87.0287 4.44105C89.0896 3.71304 92.8809 2.14502 94.7626 1.04736V20.7656C94.7626 21.0176 95.0425 21.5497 95.6026 22.3617ZM68.66 20.6425V21.6785C67.6744 22.5241 66.0392 22.9721 64.2751 22.9721C61.363 22.9721 60.3549 20.8104 60.3549 18.9848V9.23479H58.9493L66.3248 2.76101V8.09796H68.66V9.23479H66.3248V19.8024C66.3248 20.6425 66.8176 21.0344 67.4112 21.0344C67.7753 21.0344 68.4249 20.8668 68.66 20.6425ZM101.231 7.30839C99.5563 7.30839 98.2179 5.91948 98.2179 4.17781C98.2179 2.43615 99.5563 1.04736 101.231 1.04736C102.905 1.04736 104.238 2.43615 104.238 4.17781C104.238 5.91948 102.905 7.30839 101.231 7.30839ZM105.19 22.3617H98.2795V11.9229L96.381 10.5733C98.5539 9.84527 102.2 8.27161 104.182 7.17395V20.7656C104.182 21.029 104.518 21.5609 105.19 22.3617ZM123.945 22.3617H117.175V11.9229C117.175 10.8309 116.396 10.1253 115.472 10.1253C114.576 10.1253 113.495 10.8589 113.495 11.9229V22.3617H107.609V11.9229L105.716 10.5733C107.884 9.84527 111.362 8.27161 113.344 7.17395V10.0412C114.318 8.74758 116.206 7.45399 118.642 7.45399C121.733 7.45399 123.06 9.50923 123.06 11.9509V20.7656C123.06 21.0233 123.357 21.5553 123.945 22.3617Z" fill="white"/>
</g>
</g>
</svg>
