<svg width="32" height="20" viewBox="0 0 32 20" fill="none" xmlns="http://www.w3.org/2000/svg">
<path d="M29 0.5H3C1.61929 0.5 0.5 1.61929 0.5 3V17C0.5 18.3807 1.61929 19.5 3 19.5H29C30.3807 19.5 31.5 18.3807 31.5 17V3C31.5 1.61929 30.3807 0.5 29 0.5Z" fill="white"/>
<path d="M29 0.5H3C1.61929 0.5 0.5 1.61929 0.5 3V17C0.5 18.3807 1.61929 19.5 3 19.5H29C30.3807 19.5 31.5 18.3807 31.5 17V3C31.5 1.61929 30.3807 0.5 29 0.5Z" stroke="#EDEEF0"/>
<path d="M17.5594 10C17.5594 12.4853 15.5703 14.5 13.1166 14.5C10.6629 14.5 8.67383 12.4853 8.67383 10C8.67383 7.51472 10.6629 5.5 13.1166 5.5C15.5703 5.5 17.5594 7.51472 17.5594 10Z" fill="#EC0014"/>
<path d="M23.3251 10C23.3251 12.4853 21.336 14.5 18.8823 14.5C16.4286 14.5 14.4395 12.4853 14.4395 10C14.4395 7.51472 16.4286 5.5 18.8823 5.5C21.336 5.5 23.3251 7.51472 23.3251 10Z" fill="#00A3E6"/>
<path d="M16.0069 6.57336C16.9636 7.39876 17.5704 8.62791 17.5704 10.0006C17.5704 11.3733 16.9636 12.6024 16.0069 13.4278C15.0502 12.6024 14.4434 11.3732 14.4434 10.0005C14.4434 8.62788 15.0501 7.39876 16.0069 6.57336Z" fill="#7476D0"/>
</svg>
