<svg width="14" height="16" viewBox="0 0 14 16" fill="none" xmlns="http://www.w3.org/2000/svg">
<g clip-path="url(#clip0_1826_265)">
<path fill-rule="evenodd" clip-rule="evenodd" d="M6.90909 0C9.07804 0 10.8364 1.7583 10.8364 3.92727V6.10989C11.7288 6.11441 12.23 6.14468 12.6269 6.34689C13.0375 6.55607 13.3712 6.88985 13.5804 7.30036C13.8182 7.76713 13.8182 8.37804 13.8182 9.6V12.0727C13.8182 13.2947 13.8182 13.9056 13.5804 14.3724C13.3712 14.7829 13.0375 15.1167 12.6269 15.3258C12.1601 15.5636 11.5492 15.5636 10.3273 15.5636H3.49091C2.26897 15.5636 1.65801 15.5636 1.19129 15.3258C0.780756 15.1167 0.446983 14.7829 0.237804 14.3724C0 13.9056 0 13.2947 0 12.0727V9.6C0 8.37804 0 7.76713 0.237804 7.30036C0.446983 6.88985 0.780756 6.55607 1.19129 6.34689C1.65801 6.10909 2.26897 6.10909 3.49091 6.10909H9.52727V3.92727C9.52727 2.48129 8.35505 1.30909 6.90909 1.30909C5.46311 1.30909 4.29091 2.48129 4.29091 3.92727V4C4.29091 4.3615 3.99786 4.65455 3.63636 4.65455C3.27487 4.65455 2.98182 4.3615 2.98182 4V3.92727C2.98182 1.7583 4.74012 0 6.90909 0ZM7.63636 11.369C8.07113 11.1175 8.36364 10.6475 8.36364 10.1091C8.36364 9.30574 7.71244 8.65454 6.90909 8.65454C6.10577 8.65454 5.45455 9.30574 5.45455 10.1091C5.45455 10.6475 5.74705 11.1175 6.18182 11.369V12.6545C6.18182 13.0562 6.50743 13.3818 6.90909 13.3818C7.31076 13.3818 7.63636 13.0562 7.63636 12.6545V11.369Z" fill="white"/>
</g>
<defs>
<clipPath id="clip0_1826_265">
<rect width="13.8182" height="16" fill="white"/>
</clipPath>
</defs>
</svg>
