<svg width="27" height="17" viewBox="0 0 27 17" fill="none" xmlns="http://www.w3.org/2000/svg">
<g clip-path="url(#clip0_106_355)">
<path d="M25.7203 0H0.829687C0.371464 0 0 0.371464 0 0.829687V15.7641C0 16.2223 0.371464 16.5938 0.829687 16.5938H25.7203C26.1785 16.5938 26.55 16.2223 26.55 15.7641V0.829687C26.55 0.371464 26.1785 0 25.7203 0Z" fill="url(#paint0_linear_106_355)"/>
<path fill-rule="evenodd" clip-rule="evenodd" d="M26.55 0V15.7641C26.55 16.222 26.1783 16.5937 25.7203 16.5937H0L26.55 0Z" fill="#ABB2BD" fill-opacity="0.198"/>
<path d="M6.6376 3.31885H4.14854C3.69031 3.31885 3.31885 3.69031 3.31885 4.14854V6.6376C3.31885 7.09582 3.69031 7.46729 4.14854 7.46729H6.6376C7.09582 7.46729 7.46729 7.09582 7.46729 6.6376V4.14854C7.46729 3.69031 7.09582 3.31885 6.6376 3.31885Z" fill="#DCDFE6"/>
<path d="M22.4018 11.6157H19.9127C19.4545 11.6157 19.083 11.9872 19.083 12.4454C19.083 12.9036 19.4545 13.2751 19.9127 13.2751H22.4018C22.86 13.2751 23.2314 12.9036 23.2314 12.4454C23.2314 11.9872 22.86 11.6157 22.4018 11.6157Z" fill="#D7DAE0"/>
<path d="M17.0917 11.6157H14.6026C14.1444 11.6157 13.7729 11.9872 13.7729 12.4454C13.7729 12.9036 14.1444 13.2751 14.6026 13.2751H17.0917C17.5499 13.2751 17.9214 12.9036 17.9214 12.4454C17.9214 11.9872 17.5499 11.6157 17.0917 11.6157Z" fill="#D7DAE0"/>
<path d="M11.8646 11.6157H9.37559C8.91736 11.6157 8.5459 11.9872 8.5459 12.4454C8.5459 12.9036 8.91736 13.2751 9.37559 13.2751H11.8646C12.3229 13.2751 12.6943 12.9036 12.6943 12.4454C12.6943 11.9872 12.3229 11.6157 11.8646 11.6157Z" fill="#D7DAE0"/>
<path d="M6.6376 11.6157H4.14854C3.69031 11.6157 3.31885 11.9872 3.31885 12.4454C3.31885 12.9036 3.69031 13.2751 4.14854 13.2751H6.6376C7.09582 13.2751 7.46729 12.9036 7.46729 12.4454C7.46729 11.9872 7.09582 11.6157 6.6376 11.6157Z" fill="#D7DAE0"/>
</g>
<defs>
<linearGradient id="paint0_linear_106_355" x1="-1.00582e-06" y1="505.595" x2="2200.54" y2="1880.92" gradientUnits="userSpaceOnUse">
<stop stop-color="#D7DAE0"/>
<stop offset="1" stop-color="#ABB2BD"/>
</linearGradient>
<clipPath id="clip0_106_355">
<rect width="26.55" height="16.5938" fill="white"/>
</clipPath>
</defs>
</svg>
