<svg width="25" height="25" viewBox="0 0 25 25" fill="none" xmlns="http://www.w3.org/2000/svg">
<mask id="mask0_9_1317" style="mask-type:luminance" maskUnits="userSpaceOnUse" x="1" y="1" width="24" height="24">
<path d="M24.4082 1.31836H1.36816V24.3584H24.4082V1.31836Z" fill="white"/>
</mask>
<g mask="url(#mask0_9_1317)">
<path d="M19.6098 2.56348H12.4294C11.9749 2.56348 11.5384 2.7444 11.2169 3.06595L1.87043 12.4107C1.20074 13.0804 1.20074 14.1659 1.87043 14.8365L9.0509 22.0169C9.72058 22.6866 10.8061 22.6866 11.4758 22.0169L20.8223 12.6722C21.1438 12.3498 21.3247 11.9134 21.3247 11.4581V4.27842C21.3247 3.33091 20.5573 2.56348 19.6098 2.56348ZM16.6086 8.56578C15.8986 8.56578 15.3224 7.98956 15.3224 7.27957C15.3224 6.56959 15.8986 5.99336 16.6086 5.99336C17.3187 5.99336 17.8949 6.56959 17.8949 7.27957C17.8949 7.98956 17.3187 8.56578 16.6086 8.56578Z" fill="#FFCD4C"/>
<path d="M23.0398 4.27734L23.0389 12.2596C23.0389 12.6548 22.8819 13.0347 22.6016 13.3142L13.1042 22.8116L13.25 22.9573C13.9197 23.627 15.0052 23.627 15.6749 22.9573L24.2514 14.3826C24.5738 14.0611 24.7547 13.6246 24.7547 13.1701V5.99228C24.7547 5.04478 23.9873 4.27734 23.0398 4.27734Z" fill="#FFCD4C"/>
</g>
</svg>
