<svg width="121" height="21" viewBox="0 0 121 21" fill="none" xmlns="http://www.w3.org/2000/svg">
<mask id="mask0_9_1616" style="mask-type:luminance" maskUnits="userSpaceOnUse" x="0" y="0" width="121" height="20">
<path d="M120.1 0.906738H0.677246V19.9067H120.1V0.906738Z" fill="white"/>
</mask>
<g mask="url(#mask0_9_1616)">
<g opacity="0.3">
<path d="M16.5842 0.94873L10.9806 10.6697L5.37703 0.94873H5.35695H0.677246V19.8885H5.35695V10.3282L9.25335 17.0767L9.95631 18.2818H12.005L12.8887 16.7152L16.5842 10.3282V19.8885H21.2639V0.94873H16.5842Z" fill="white"/>
<path d="M32.7939 13.0184C32.7939 11.5924 31.8901 10.528 30.5846 10.528C29.2188 10.528 28.295 11.6929 28.295 13.0184C28.295 14.4043 29.2188 15.5089 30.5846 15.5089C31.8901 15.5089 32.7939 14.4444 32.7939 13.0184ZM23.314 13.0586C23.314 8.92115 26.1459 6.12939 29.018 6.12939C31.0064 6.12939 32.2717 7.15371 33.0148 8.17802L33.4768 6.49092H37.6744V19.5258H33.4768L33.0148 17.8387C32.2717 18.8831 31.0064 19.8874 29.018 19.8874C26.1459 19.9074 23.314 17.1157 23.314 13.0586Z" fill="white"/>
<path d="M49.844 7.05328V11.0301C48.9201 10.5079 47.233 10.0258 45.807 10.0258C44.9836 10.0258 44.5417 10.1865 44.5417 10.5079C44.5417 10.8292 45.0036 11.0301 46.269 11.3113C48.5184 11.7933 50.7679 12.5967 50.7679 15.4286C50.7679 18.1601 48.6189 19.8874 44.7024 19.8874C42.6939 19.8874 41.047 19.4254 39.9423 18.8229V14.565C41.1273 15.3483 42.5533 15.991 44.4814 15.991C45.4455 15.991 46.0079 15.8303 46.0079 15.4688C46.0079 15.047 45.3049 14.9064 43.7383 14.5047C41.7299 13.9825 39.7817 12.9984 39.7817 10.548C39.7817 7.99727 41.8705 6.12939 45.566 6.12939C47.1125 6.12939 48.7595 6.47083 49.844 7.05328Z" fill="white"/>
<path d="M57.6372 7.49496C58.3602 6.73175 59.5653 6.10913 60.9913 6.10913C63.763 6.10913 65.4902 7.79623 65.4902 10.7286V19.4855H60.5294V12.014C60.5294 10.9496 60.0674 10.4876 59.1636 10.4876C58.2196 10.4876 57.6372 11.1102 57.6372 11.9337V19.4654H52.6763V0.907227H57.6372V7.49496Z" fill="white"/>
<path d="M76.6571 13.0184C76.6571 11.5924 75.7533 10.528 74.4478 10.528C73.082 10.528 72.1581 11.6929 72.1581 13.0184C72.1581 14.4043 73.082 15.5089 74.4478 15.5089C75.7533 15.5089 76.6571 14.4444 76.6571 13.0184ZM67.1772 13.0586C67.1772 8.92115 70.0091 6.12939 72.8812 6.12939C74.8695 6.12939 76.1349 7.15371 76.878 8.17802L77.34 6.49092H81.5376V19.5258H77.34L76.878 17.8387C76.1349 18.8831 74.8695 19.8874 72.8812 19.8874C70.0091 19.9074 67.1772 17.1157 67.1772 13.0586Z" fill="white"/>
<path d="M88.9094 12.9781C88.9094 14.4242 89.8132 15.4686 91.1187 15.4686C92.4643 15.4686 93.3882 14.384 93.3882 12.9982C93.3882 11.6324 92.4643 10.4876 91.0986 10.4876C89.7931 10.4876 88.9094 11.5521 88.9094 12.9781ZM88.9495 8.0975C89.6927 6.99285 91.2191 6.10913 92.8259 6.10913C95.8185 6.10913 98.3692 8.80046 98.3692 12.9781C98.3692 17.1557 95.5975 19.847 92.6049 19.847C90.717 19.847 89.4115 18.8227 88.6884 17.7984L88.2265 19.4855H84.0288V0.907227H88.9696L88.9495 8.0975Z" fill="white"/>
<path d="M105.194 0.907227H100.253V19.4855H105.194V0.907227Z" fill="white"/>
<path d="M115.44 11.5919C115.42 10.6881 114.818 9.90475 113.753 9.90475C112.789 9.90475 111.986 10.5475 111.644 11.5919H115.44ZM119.979 14.3234H111.825C112.448 15.5686 113.874 16.1511 115.42 16.1511C116.826 16.1511 118.071 15.6891 119.216 15.187V18.9629C117.87 19.6056 116.364 19.927 114.717 19.927C109.736 19.927 107.025 16.9946 107.025 13.0581C107.025 8.98086 109.937 6.14893 113.773 6.14893C117.248 6.14893 120.08 8.45866 120.08 12.8371C120.1 13.3192 120.06 13.8213 119.979 14.3234Z" fill="white"/>
</g>
</g>
</svg>
