<svg width="17" height="18" viewBox="0 0 17 18" fill="none" xmlns="http://www.w3.org/2000/svg">
<mask id="mask0_9_1789" style="mask-type:luminance" maskUnits="userSpaceOnUse" x="0" y="1" width="17" height="17">
<path d="M16.3882 1.22461H0.388184V17.2246H16.3882V1.22461Z" fill="white"/>
</mask>
<g mask="url(#mask0_9_1789)">
<path d="M6.40169 8.89151L7.73502 10.2249L10.7351 7.22485M13.7351 9.22485C13.7351 12.4971 10.1657 14.8771 8.86702 15.6347C8.71942 15.7208 8.64562 15.7639 8.54148 15.7862C8.46065 15.8035 8.34273 15.8035 8.2619 15.7862C8.15775 15.7639 8.08396 15.7208 7.93636 15.6347C6.63766 14.8771 3.06836 12.4971 3.06836 9.22485V6.03658C3.06836 5.50357 3.06836 5.23707 3.15553 5.00798C3.23254 4.80561 3.35768 4.62503 3.52013 4.48187C3.70402 4.3198 3.95355 4.22623 4.45263 4.03908L8.02716 2.69863C8.16575 2.64665 8.23505 2.62067 8.30634 2.61037C8.36958 2.60123 8.4338 2.60123 8.49703 2.61037C8.56832 2.62067 8.63762 2.64665 8.77622 2.69863L12.3508 4.03908C12.8499 4.22623 13.0994 4.3198 13.2833 4.48187C13.4458 4.62503 13.5709 4.80561 13.6479 5.00798C13.7351 5.23707 13.7351 5.50357 13.7351 6.03658V9.22485Z" stroke="#03BF5A" stroke-width="1.5" stroke-linecap="round" stroke-linejoin="round"/>
</g>
</svg>
