<svg width="24" height="25" viewBox="0 0 24 25" fill="none" xmlns="http://www.w3.org/2000/svg">
<mask id="mask0_9_498" style="mask-type:luminance" maskUnits="userSpaceOnUse" x="0" y="0" width="24" height="25">
<path d="M24 0.0458984H0V24.0459H24V0.0458984Z" fill="white"/>
</mask>
<g mask="url(#mask0_9_498)">
<path d="M12 0.0458984C5.3748 0.0458984 0 5.41392 0 12.0396C0 18.6716 5.3748 24.0459 12 24.0459C18.6288 24.0459 23.9991 18.6715 23.9991 12.0396C23.9991 5.41392 18.6288 0.0458984 12 0.0458984ZM12.8551 18.7167C12.5764 18.9647 12.2534 19.0894 11.8875 19.0894C11.509 19.0894 11.1788 18.967 10.8969 18.7217C10.6146 18.4768 10.4731 18.134 10.4731 17.6935C10.4731 17.3027 10.61 16.9739 10.8829 16.7073C11.1557 16.4408 11.4905 16.3075 11.8875 16.3075C12.2783 16.3075 12.6072 16.4408 12.8742 16.7073C13.1407 16.9739 13.2744 17.3027 13.2744 17.6935C13.2739 18.1276 13.1343 18.4687 12.8551 18.7167ZM16.3304 10.1012C16.1162 10.4982 15.8619 10.8406 15.5669 11.1293C15.2728 11.418 14.7439 11.9032 13.9804 12.5853C13.7699 12.7777 13.6005 12.9467 13.4736 13.0921C13.3466 13.2381 13.2518 13.3713 13.1899 13.4924C13.1275 13.6134 13.0797 13.7345 13.0458 13.8555C13.0119 13.9761 12.9609 14.1889 12.8917 14.4929C12.7743 15.138 12.4052 15.4605 11.785 15.4605C11.4624 15.4605 11.1914 15.3553 10.9705 15.1443C10.7504 14.9333 10.6407 14.6203 10.6407 14.2047C10.6407 13.6839 10.7215 13.2325 10.8828 12.8509C11.0432 12.4691 11.2578 12.1344 11.5243 11.8457C11.7913 11.5571 12.1509 11.2146 12.604 10.8176C13.001 10.4702 13.2879 10.2082 13.4645 10.0315C13.6416 9.85447 13.7902 9.65752 13.9108 9.44066C14.0324 9.22337 14.092 8.98801 14.092 8.73371C14.092 8.23726 13.9082 7.81895 13.5387 7.47789C13.1696 7.13684 12.6934 6.96606 12.1102 6.96606C11.4277 6.96606 10.9253 7.13817 10.6028 7.4824C10.2802 7.82662 10.0079 8.33346 9.78423 9.00341C9.57282 9.70453 9.17258 10.055 8.58394 10.055C8.23654 10.055 7.94339 9.93261 7.70442 9.68775C7.4659 9.44289 7.34663 9.17774 7.34663 8.89226C7.34663 8.30317 7.53592 7.70597 7.91404 7.1011C8.29262 6.49623 8.84464 5.99523 9.57055 5.5986C10.296 5.20152 11.1431 5.00273 12.1102 5.00273C13.0096 5.00273 13.8034 5.16895 14.4918 5.50101C15.1803 5.83256 15.7124 6.28388 16.0878 6.85485C16.4627 7.42538 16.6506 8.04564 16.6506 8.71559C16.6515 9.24193 16.5445 9.70409 16.3304 10.1012Z" fill="#FFCD4C"/>
</g>
</svg>
