<svg width="33" height="32" viewBox="0 0 33 32" fill="none" xmlns="http://www.w3.org/2000/svg">
<mask id="mask0_9_1356" style="mask-type:luminance" maskUnits="userSpaceOnUse" x="0" y="1" width="33" height="31">
<path d="M32.8882 1.57324H0.888184V31.1409H32.8882V1.57324Z" fill="white"/>
</mask>
<g mask="url(#mask0_9_1356)">
<path d="M14.3413 4.2321C15.6695 4.2321 16.9481 4.42481 18.1564 4.78158C18.3491 4.83887 18.5444 4.90137 18.7424 4.96908C18.9611 5.0446 19.1773 5.12533 19.3908 5.21127L18.5106 6.82845C17.2163 6.33106 15.8127 6.06023 14.3439 6.06023H14.3413C12.7372 6.06023 11.2085 6.38575 9.81787 6.97429C9.59131 7.07064 9.36735 7.1722 9.1512 7.28158C8.0262 7.84408 7.00537 8.58366 6.12516 9.46387L6.11995 9.46908C5.82828 9.76075 5.54964 10.0706 5.29183 10.3936C5.03141 10.7191 4.78662 11.0577 4.56006 11.4092C3.39078 13.2217 2.71631 15.3754 2.71631 17.6853V17.6879C2.71631 19.292 3.04183 20.8207 3.63037 22.2113C3.72672 22.4379 3.82828 22.6618 3.93766 22.878C4.50016 24.0004 5.23974 25.0238 6.12256 25.904L6.12776 25.9092C6.41943 26.2009 6.72933 26.4795 7.05224 26.74C7.37776 27.0004 7.71631 27.2452 8.06787 27.4717C9.87776 28.6332 12.0314 29.3077 14.3413 29.3077H14.3439C15.9481 29.3077 17.4767 28.9821 18.8674 28.3936C19.0939 28.2972 19.3179 28.1957 19.534 28.0863C20.659 27.5238 21.6799 26.7842 22.5601 25.904H22.5627L22.5705 25.8962C22.8622 25.6045 23.1382 25.2972 23.3986 24.9743C23.659 24.6488 23.9038 24.3103 24.1304 23.9587C25.2918 22.1514 25.9663 20.0004 25.9663 17.6931L27.7918 17.4118C27.7945 17.503 27.7945 17.5941 27.7945 17.6853V17.6879C27.7945 19.5446 27.4168 21.3155 26.7372 22.9222C26.6278 23.1827 26.508 23.4405 26.3804 23.6957C25.7293 24.9978 24.8726 26.1801 23.8543 27.1983L23.8491 27.2035C23.5106 27.542 23.1512 27.865 22.7788 28.1644C22.4038 28.4665 22.0106 28.7504 21.6043 29.0108C19.5106 30.3571 17.0184 31.1384 14.3439 31.1384C12.4872 31.1384 10.7163 30.7608 9.10953 30.0811C8.84912 29.9717 8.59131 29.8519 8.3361 29.7243C7.03401 29.0733 5.85172 28.2165 4.83349 27.1983L4.82828 27.1905C4.48974 26.8519 4.16943 26.4952 3.86735 26.1202C3.56526 25.7452 3.28141 25.3519 3.02099 24.9457C1.66943 22.8519 0.888184 20.3597 0.888184 17.6853V17.6827C0.888184 15.8259 1.26579 14.0577 1.94547 12.4483C2.05485 12.1879 2.17464 11.9301 2.30224 11.6748C2.95328 10.3727 3.81006 9.19043 4.82828 8.1722L4.83349 8.167C5.17203 7.82845 5.53141 7.50814 5.90381 7.20606C6.27881 6.90398 6.67203 6.62012 7.07828 6.3597C9.17464 5.01335 11.6668 4.2321 14.3413 4.2321ZM15.4403 17.0785L23.883 1.57324L24.9741 10.3779L32.8882 14.3858L15.4403 17.0785ZM14.3413 13.4275H14.3439C14.5314 13.4275 14.7163 13.4405 14.896 13.4639L13.8986 15.2972C13.7241 15.3285 13.5549 15.3806 13.396 15.4483C13.3491 15.4691 13.3023 15.49 13.2554 15.5134C13.021 15.6306 12.8075 15.7842 12.6226 15.9691L12.6174 15.9743C12.5575 16.0342 12.5028 16.0967 12.4481 16.1618C12.3934 16.2295 12.3413 16.2998 12.2945 16.3754C12.0523 16.753 11.9116 17.2035 11.9116 17.6853V17.6879C11.9116 18.0238 11.9793 18.3415 12.1043 18.6332C12.1252 18.6827 12.146 18.7295 12.1695 18.7738C12.2866 19.0082 12.4403 19.2217 12.6252 19.4066L12.6304 19.4118C12.6903 19.4717 12.7528 19.529 12.8179 19.5811C12.8856 19.6358 12.9559 19.6879 13.0314 19.7347C13.409 19.9769 13.8596 20.1176 14.3413 20.1176C14.6773 20.1176 14.995 20.0499 15.2866 19.9275C15.3361 19.9066 15.3804 19.8858 15.4273 19.8624C15.6616 19.7452 15.8752 19.5915 16.0601 19.4066L16.0653 19.4014C16.0991 19.3676 16.1304 19.3337 16.159 19.3025C16.1877 19.2712 16.2163 19.2347 16.245 19.1983L18.4351 18.8597C18.3882 19.0264 18.3309 19.1905 18.2632 19.3467C18.2293 19.4275 18.1903 19.5108 18.1512 19.5915C17.9455 20.0056 17.6747 20.378 17.3517 20.7009L17.3439 20.7061C17.2372 20.8103 17.1278 20.9118 17.0106 21.0056C16.8908 21.1019 16.7684 21.1905 16.6382 21.2738C15.9741 21.6983 15.1877 21.9457 14.3413 21.9457C13.7528 21.9457 13.1929 21.8259 12.6851 21.6097C12.6043 21.5759 12.521 21.5368 12.4403 21.4978C12.0262 21.292 11.6538 21.0212 11.3309 20.6983L11.3231 20.6905C11.2189 20.5863 11.1174 20.4743 11.0236 20.3571C10.9273 20.2373 10.8387 20.115 10.7554 19.9847C10.3309 19.3233 10.0835 18.5342 10.0835 17.6879V17.6853C10.0835 17.0967 10.2033 16.5368 10.4194 16.029C10.4533 15.9483 10.4924 15.865 10.5314 15.7842C10.7371 15.3728 11.008 14.9978 11.3309 14.6775C11.4377 14.5707 11.5523 14.4691 11.6721 14.3728C11.7918 14.2764 11.9142 14.1879 12.0445 14.1045C12.7059 13.6748 13.495 13.4275 14.3413 13.4275ZM14.3413 8.792C15.1382 8.792 15.909 8.89616 16.6408 9.09408C16.7606 9.12533 16.8778 9.15918 16.995 9.19825C17.0575 9.21908 17.1226 9.23991 17.1851 9.26075L16.2945 10.8988C15.6747 10.7217 15.0184 10.6253 14.3387 10.6253C13.3648 10.6253 12.4351 10.8232 11.5887 11.1801C11.4559 11.2373 11.3205 11.2998 11.1825 11.3676L11.1721 11.3728C10.4924 11.7139 9.87776 12.1618 9.34391 12.6957L9.3387 12.7009C9.16162 12.878 8.99495 13.0655 8.8361 13.2608C8.67724 13.4587 8.52881 13.6644 8.39078 13.878C7.68506 14.9769 7.2762 16.2868 7.2762 17.6905V17.6931C7.2762 18.667 7.47412 19.5967 7.83089 20.4431C7.88818 20.5811 7.95068 20.7165 8.01839 20.8493C8.35953 21.5316 8.81006 22.1514 9.34651 22.6879C9.5262 22.8676 9.71631 23.0368 9.91162 23.1957C10.1095 23.3545 10.3153 23.503 10.5288 23.641C11.6278 24.3415 12.9377 24.7504 14.3413 24.7504H14.3439C15.3179 24.7504 16.2476 24.5525 17.0939 24.1957C17.232 24.1384 17.3674 24.0759 17.5002 24.0082C18.1825 23.667 18.8023 23.2165 19.3387 22.6801C19.5184 22.5004 19.6903 22.3103 19.8465 22.115C20.0054 21.917 20.1538 21.7113 20.2918 21.4978C20.8778 20.5863 21.258 19.5342 21.3726 18.4014L23.2267 18.115C23.1747 19.1853 22.9351 20.2061 22.5392 21.1462C22.4663 21.3181 22.3882 21.49 22.3023 21.6566C21.8726 22.5186 21.3049 23.2999 20.633 23.9717L20.6278 23.9769C20.4038 24.2009 20.1668 24.4118 19.9221 24.6124C19.6747 24.8129 19.4142 25.0004 19.146 25.1722C17.7606 26.0603 16.1122 26.5785 14.3465 26.5785C13.12 26.5785 11.9481 26.3285 10.8856 25.8806C10.7137 25.8077 10.5418 25.7295 10.3752 25.6436C9.51318 25.2139 8.73193 24.6462 8.06006 23.9743L8.05485 23.9665C7.83089 23.7426 7.61995 23.5082 7.42203 23.2608C7.22151 23.0134 7.03401 22.753 6.86214 22.4847C5.97151 21.0993 5.45589 19.4535 5.45589 17.6853V17.6827C5.45589 16.4561 5.70589 15.2842 6.15641 14.2217C6.22933 14.0498 6.30745 13.878 6.39339 13.7113C6.82308 12.8493 7.39078 12.0681 8.06266 11.3962L8.06787 11.391C8.29183 11.167 8.5262 10.9561 8.7736 10.7581C9.02099 10.5576 9.28141 10.3701 9.54964 10.1982C10.9273 9.30762 12.5757 8.792 14.3413 8.792Z" fill="#FDD6F0"/>
</g>
</svg>
