<svg width="33" height="21" viewBox="0 0 33 21" fill="none" xmlns="http://www.w3.org/2000/svg">
<path d="M29.8882 0.847656H3.88818C2.50747 0.847656 1.38818 1.96694 1.38818 3.34766V17.3477C1.38818 18.7284 2.50747 19.8477 3.88818 19.8477H29.8882C31.2689 19.8477 32.3882 18.7284 32.3882 17.3477V3.34766C32.3882 1.96694 31.2689 0.847656 29.8882 0.847656Z" fill="white"/>
<path d="M29.8882 0.847656H3.88818C2.50747 0.847656 1.38818 1.96694 1.38818 3.34766V17.3477C1.38818 18.7284 2.50747 19.8477 3.88818 19.8477H29.8882C31.2689 19.8477 32.3882 18.7284 32.3882 17.3477V3.34766C32.3882 1.96694 31.2689 0.847656 29.8882 0.847656Z" stroke="#EDEEF0"/>
<path d="M18.4476 10.3477C18.4476 12.833 16.4585 14.8477 14.0048 14.8477C11.5511 14.8477 9.56201 12.833 9.56201 10.3477C9.56201 7.86238 11.5511 5.84766 14.0048 5.84766C16.4585 5.84766 18.4476 7.86238 18.4476 10.3477Z" fill="#EC0014"/>
<path d="M24.2132 10.3477C24.2132 12.833 22.2241 14.8477 19.7704 14.8477C17.3167 14.8477 15.3276 12.833 15.3276 10.3477C15.3276 7.86238 17.3167 5.84766 19.7704 5.84766C22.2241 5.84766 24.2132 7.86238 24.2132 10.3477Z" fill="#00A3E6"/>
<path d="M16.895 6.9209C17.8517 7.7463 18.4585 8.97545 18.4585 10.3481C18.4585 11.7208 17.8517 12.9499 16.895 13.7753C15.9383 12.9499 15.3315 11.7207 15.3315 10.348C15.3315 8.97542 15.9382 7.7463 16.895 6.9209Z" fill="#7476D0"/>
</svg>
