<svg width="32" height="21" viewBox="0 0 32 21" fill="none" xmlns="http://www.w3.org/2000/svg">
<path d="M30 1.24707H2C1.17157 1.24707 0.5 1.91864 0.5 2.74707V18.7471C0.5 19.5755 1.17157 20.2471 2 20.2471H30C30.8284 20.2471 31.5 19.5755 31.5 18.7471V2.74707C31.5 1.91864 30.8284 1.24707 30 1.24707Z" fill="white"/>
<path d="M30 1.24707H2C1.17157 1.24707 0.5 1.91864 0.5 2.74707V18.7471C0.5 19.5755 1.17157 20.2471 2 20.2471H30C30.8284 20.2471 31.5 19.5755 31.5 18.7471V2.74707C31.5 1.91864 30.8284 1.24707 30 1.24707Z" stroke="#EDEEF0"/>
<path d="M5.80878 7.14697H3.72868C3.58634 7.14697 3.46528 7.25146 3.44308 7.39344L2.60179 12.7828C2.58506 12.8891 2.66658 12.985 2.77334 12.985H3.76639C3.90874 12.985 4.02979 12.8805 4.05199 12.7382L4.27889 11.2846C4.30079 11.1424 4.42215 11.0379 4.56419 11.0379H5.22268C6.59289 11.0379 7.38369 10.3679 7.59021 9.04031C7.68328 8.45949 7.59416 8.00314 7.32498 7.68354C7.02935 7.33259 6.50499 7.14697 5.80878 7.14697ZM6.04876 9.11529C5.93501 9.86943 5.36472 9.86943 4.81329 9.86943H4.4994L4.71961 8.46103C4.73269 8.3759 4.80569 8.31321 4.89085 8.31321H5.03471C5.41034 8.31321 5.76468 8.31321 5.94778 8.52956C6.05697 8.65863 6.09043 8.85039 6.04876 9.11529Z" fill="#253B80"/>
<path d="M12.0258 9.09123H11.0297C10.9448 9.09123 10.8715 9.15393 10.8584 9.23905L10.8143 9.52055L10.7447 9.41852C10.529 9.1023 10.0482 8.99658 9.56822 8.99658C8.46749 8.99658 7.52735 9.83892 7.34425 11.0206C7.24905 11.61 7.3844 12.1736 7.71532 12.5666C8.01886 12.928 8.45319 13.0786 8.96995 13.0786C9.85686 13.0786 10.3487 12.5024 10.3487 12.5024L10.3043 12.7821C10.2875 12.889 10.3691 12.9849 10.4752 12.9849H11.3725C11.5151 12.9849 11.6355 12.8804 11.6581 12.7381L12.1964 9.29344C12.2134 9.18742 12.1322 9.09123 12.0258 9.09123ZM10.6373 11.0501C10.5412 11.625 10.0895 12.011 9.51347 12.011C9.22422 12.011 8.99306 11.9173 8.84464 11.7397C8.69743 11.5633 8.64146 11.3122 8.6883 11.0326C8.77803 10.4625 9.2373 10.0639 9.80455 10.0639C10.0874 10.0639 10.3173 10.1588 10.4688 10.338C10.6206 10.519 10.6808 10.7717 10.6373 11.0501Z" fill="#253B80"/>
<path d="M17.3304 9.09131H16.3294C16.2339 9.09131 16.1442 9.13925 16.0901 9.21946L14.7095 11.2741L14.1243 9.29967C14.0875 9.17613 13.9747 9.09131 13.8469 9.09131H12.8633C12.7438 9.09131 12.6607 9.20932 12.6988 9.32302L13.8013 12.5921L12.7648 14.0706C12.6833 14.1871 12.7654 14.3472 12.9062 14.3472H13.906C14.0008 14.3472 14.0897 14.3005 14.1435 14.2218L17.4728 9.36635C17.5524 9.25019 17.4706 9.09131 17.3304 9.09131Z" fill="#253B80"/>
<path d="M20.6447 7.14697H18.5643C18.4223 7.14697 18.3012 7.25146 18.279 7.39344L17.4377 12.7828C17.421 12.8891 17.5025 12.985 17.6087 12.985H18.6762C18.7754 12.985 18.8603 12.9118 18.8758 12.8123L19.1145 11.2846C19.1364 11.1424 19.2578 11.0379 19.3998 11.0379H20.058C21.4285 11.0379 22.219 10.3679 22.4258 9.04031C22.5192 8.45949 22.4295 8.00314 22.1603 7.68354C21.865 7.33259 21.3409 7.14697 20.6447 7.14697ZM20.8847 9.11529C20.7712 9.86943 20.201 9.86943 19.6492 9.86943H19.3356L19.5562 8.46103C19.5692 8.3759 19.6416 8.31321 19.7271 8.31321H19.871C20.2463 8.31321 20.6009 8.31321 20.784 8.52956C20.8932 8.65863 20.9264 8.85039 20.8847 9.11529Z" fill="#179BD7"/>
<path d="M26.8643 9.09123H25.8688C25.7834 9.09123 25.7107 9.15393 25.6979 9.23905L25.6538 9.52055L25.5838 9.41852C25.3682 9.1023 24.8876 8.99658 24.4077 8.99658C23.3069 8.99658 22.3671 9.83892 22.184 11.0206C22.0891 11.61 22.2239 12.1736 22.5548 12.5666C22.8589 12.928 23.2926 13.0786 23.8094 13.0786C24.6963 13.0786 25.1881 12.5024 25.1881 12.5024L25.1437 12.7821C25.127 12.889 25.2085 12.9849 25.3153 12.9849H26.2122C26.3543 12.9849 26.4753 12.8804 26.4975 12.7381L27.0362 9.29344C27.0526 9.18742 26.9711 9.09123 26.8643 9.09123ZM25.4759 11.0501C25.3804 11.625 24.9281 12.011 24.352 12.011C24.0634 12.011 23.8316 11.9173 23.6832 11.7397C23.536 11.5633 23.4806 11.3122 23.5268 11.0326C23.6172 10.4625 24.0758 10.0639 24.6431 10.0639C24.926 10.0639 25.1559 10.1588 25.3074 10.338C25.4597 10.519 25.52 10.7717 25.4759 11.0501Z" fill="#179BD7"/>
<path d="M28.0376 7.2951L27.1838 12.7831C27.1671 12.8894 27.2486 12.9853 27.3548 12.9853H28.2131C28.3557 12.9853 28.4768 12.8808 28.4987 12.7385L29.3406 7.34949C29.3573 7.24316 29.2758 7.14697 29.1696 7.14697H28.2085C28.1237 7.14728 28.0507 7.20997 28.0376 7.2951Z" fill="#179BD7"/>
</svg>
