<svg width="16" height="18" viewBox="0 0 16 18" fill="none" xmlns="http://www.w3.org/2000/svg">
<mask id="mask0_9_536" style="mask-type:luminance" maskUnits="userSpaceOnUse" x="0" y="0" width="16" height="17">
<path d="M16 0.895508H0V16.8955H16V0.895508Z" fill="white"/>
</mask>
<g mask="url(#mask0_9_536)">
<path d="M6.01351 8.56241L7.34684 9.89575L10.3469 6.89575M13.3469 8.89575C13.3469 12.168 9.77756 14.548 8.47884 15.3056C8.33124 15.3917 8.25744 15.4348 8.1533 15.4571C8.07247 15.4744 7.95455 15.4744 7.87372 15.4571C7.76957 15.4348 7.69578 15.3917 7.54818 15.3056C6.24948 14.548 2.68018 12.168 2.68018 8.89575V5.70748C2.68018 5.17447 2.68018 4.90797 2.76735 4.67888C2.84436 4.47651 2.9695 4.29593 3.13195 4.15277C3.31584 3.9907 3.56537 3.89713 4.06445 3.70998L7.63898 2.36953C7.77757 2.31755 7.84687 2.29157 7.91816 2.28127C7.9814 2.27213 8.04562 2.27213 8.10885 2.28127C8.18014 2.29157 8.24944 2.31755 8.38804 2.36953L11.9626 3.70998C12.4617 3.89713 12.7112 3.9907 12.8951 4.15277C13.0576 4.29593 13.1827 4.47651 13.2597 4.67888C13.3469 4.90797 13.3469 5.17447 13.3469 5.70748V8.89575Z" stroke="#03BF5A" stroke-width="1.5" stroke-linecap="round" stroke-linejoin="round"/>
</g>
</svg>
