<svg width="31" height="22" viewBox="0 0 31 22" fill="none" xmlns="http://www.w3.org/2000/svg">
<path d="M26.8881 1.41724H4.88811C2.79402 1.41724 1.09644 3.11482 1.09644 5.20891V17.2089C1.09644 19.3029 2.79402 21.0005 4.88811 21.0005H26.8881C28.9821 21.0005 30.6797 19.3029 30.6797 17.2089V5.20891C30.6797 3.11482 28.9821 1.41724 26.8881 1.41724Z" fill="white" stroke="#DDDDDD" stroke-width="0.416667"/>
<path fill-rule="evenodd" clip-rule="evenodd" d="M26.6386 9.17819C27.5595 9.17819 28.0659 9.5892 28.0659 10.3655C28.1119 10.9593 27.6976 11.4616 27.1451 11.553L28.3882 13.2427H27.4213L26.3624 11.5986H26.2703V13.2427H25.4876V9.17819H26.6386ZM26.2703 11.0506H26.5005C27.007 11.0506 27.2372 10.8222 27.2372 10.4112C27.2372 10.0459 27.007 9.81755 26.5005 9.81755H26.2703V11.0506ZM22.7713 13.2427H24.9812V12.5577H23.5539V11.4616H24.9352V10.7766H23.5539V9.8632H24.9812V9.17819H22.7713V13.2427ZM20.4692 11.9183L19.4103 9.17819H18.5816L20.2851 13.334H20.6994L22.4029 9.17819H21.5742L20.4692 11.9183ZM11.123 11.2334C11.123 12.3751 12.0438 13.3341 13.1948 13.3341C13.5632 13.3341 13.8854 13.2428 14.2077 13.1058V12.1924C13.9775 12.4664 13.6552 12.6491 13.2869 12.6491C12.5503 12.6491 11.9517 12.1011 11.9517 11.3704V11.2791C11.9057 10.5483 12.5042 9.909 13.2409 9.86333C13.6092 9.86333 13.9775 10.046 14.2077 10.32V9.40665C13.9315 9.22398 13.5632 9.17831 13.2409 9.17831C12.0438 9.08698 11.123 10.046 11.123 11.2334ZM9.69573 10.7309C9.23533 10.5482 9.09721 10.4569 9.09721 10.2286C9.14325 9.95456 9.37345 9.72622 9.64969 9.77189C9.8799 9.77189 10.1101 9.9089 10.2943 10.0916L10.7086 9.54355C10.3863 9.26954 9.97198 9.08687 9.55761 9.08687C8.91305 9.0412 8.36056 9.54355 8.31452 10.1829V10.2286C8.31452 10.7766 8.54472 11.0963 9.28137 11.3246C9.46553 11.3703 9.64969 11.4616 9.83386 11.553C9.97198 11.6443 10.0641 11.7813 10.0641 11.964C10.0641 12.2837 9.78782 12.5577 9.51157 12.5577H9.46553C9.09721 12.5577 8.77492 12.3293 8.6368 12.0097L8.13036 12.512C8.4066 13.0144 8.95909 13.2884 9.51157 13.2884C10.2482 13.334 10.8468 12.786 10.8928 12.0553V11.9183C10.8468 11.3703 10.6165 11.0963 9.69573 10.7309ZM7.02539 13.2427H7.80808V9.17819H7.02539V13.2427ZM3.38818 9.17819H4.53919H4.7694C5.87437 9.22385 6.74914 10.1372 6.7031 11.2333C6.7031 11.827 6.42685 12.375 5.96645 12.786C5.55208 13.1057 5.04564 13.2883 4.53919 13.2427H3.38818V9.17819ZM4.40108 12.5576C4.76941 12.6032 5.18377 12.4662 5.46001 12.2379C5.73626 11.9639 5.87438 11.5985 5.87438 11.1875C5.87438 10.8221 5.73626 10.4568 5.46001 10.1828C5.18377 9.95446 4.76941 9.81746 4.40108 9.86312H4.17088V12.5576H4.40108Z" fill="black"/>
<path fill-rule="evenodd" clip-rule="evenodd" d="M16.5983 9.08398C15.4473 9.08398 14.4805 9.99734 14.4805 11.1848C14.4805 12.3264 15.4013 13.2855 16.5983 13.3311C17.7954 13.3768 18.7162 12.4178 18.7623 11.2304C18.7162 10.043 17.7954 9.08398 16.5983 9.08398Z" fill="url(#paint0_linear_9_1424)"/>
<path fill-rule="evenodd" clip-rule="evenodd" d="M16.5983 9.08398C15.4473 9.08398 14.4805 9.99734 14.4805 11.1848C14.4805 12.3264 15.4013 13.2855 16.5983 13.3311C17.7954 13.3768 18.7162 12.4178 18.7623 11.2304C18.7162 10.043 17.7954 9.08398 16.5983 9.08398Z" fill="url(#paint1_radial_9_1424)"/>
<defs>
<linearGradient id="paint0_linear_9_1424" x1="15.3078" y1="9.48542" x2="18.0879" y2="12.723" gradientUnits="userSpaceOnUse">
<stop stop-color="#E15315"/>
<stop offset="1" stop-color="#FFB320"/>
</linearGradient>
<radialGradient id="paint1_radial_9_1424" cx="0" cy="0" r="1" gradientUnits="userSpaceOnUse" gradientTransform="translate(16.93 11.834) rotate(-126.027) scale(2.83364 2.93383)">
<stop stop-color="#FFCD83" stop-opacity="0"/>
<stop offset="0.725604" stop-color="#E45816" stop-opacity="0.7"/>
<stop offset="1" stop-color="#912301"/>
</radialGradient>
</defs>
</svg>
