<svg width="33" height="21" viewBox="0 0 33 21" fill="none" xmlns="http://www.w3.org/2000/svg">
<path d="M30.8882 0.847656H2.88818C2.05976 0.847656 1.38818 1.51923 1.38818 2.34766V18.3477C1.38818 19.1761 2.05976 19.8477 2.88818 19.8477H30.8882C31.7166 19.8477 32.3882 19.1761 32.3882 18.3477V2.34766C32.3882 1.51923 31.7166 0.847656 30.8882 0.847656Z" fill="white"/>
<path d="M30.8882 0.847656H2.88818C2.05976 0.847656 1.38818 1.51923 1.38818 2.34766V18.3477C1.38818 19.1761 2.05976 19.8477 2.88818 19.8477H30.8882C31.7166 19.8477 32.3882 19.1761 32.3882 18.3477V2.34766C32.3882 1.51923 31.7166 0.847656 30.8882 0.847656Z" stroke="#EDEEF0"/>
<mask id="mask0_9_1400" style="mask-type:luminance" maskUnits="userSpaceOnUse" x="5" y="6" width="23" height="10">
<path d="M27.8882 6.34766H5.88818V15.3477H27.8882V6.34766Z" fill="white"/>
</mask>
<g mask="url(#mask0_9_1400)">
<path d="M9.91144 7.50798C9.65363 7.81198 9.24113 8.05175 8.82863 8.0175C8.77707 7.60646 8.97902 7.16973 9.21535 6.89999C9.47316 6.58743 9.92433 6.36479 10.2896 6.34766C10.3325 6.77582 10.165 7.19542 9.91144 7.50798ZM10.2853 8.09885C9.688 8.0646 9.17668 8.4371 8.89308 8.4371C8.60519 8.4371 8.17121 8.11598 7.69855 8.12454C7.0841 8.1331 6.51261 8.47992 6.19894 9.03225C5.55441 10.1369 6.03136 11.7725 6.65441 12.6717C6.95949 13.117 7.32472 13.6051 7.80597 13.5879C8.26144 13.5708 8.44191 13.2925 8.99191 13.2925C9.54621 13.2925 9.70519 13.5879 10.1864 13.5794C10.6849 13.5708 10.9986 13.1341 11.3036 12.6888C11.6517 12.1836 11.7935 11.6912 11.8021 11.6655C11.7935 11.6569 10.8396 11.293 10.831 10.1968C10.8224 9.28058 11.5829 8.84385 11.6173 8.81816C11.1876 8.18448 10.5173 8.11598 10.2853 8.09885ZM13.7357 6.85717V13.5323H14.7755V11.2502H16.215C17.5298 11.2502 18.4536 10.351 18.4536 9.04937C18.4536 7.74776 17.547 6.85717 16.2494 6.85717H13.7357ZM14.7755 7.73063H15.9744C16.8767 7.73063 17.3923 8.21017 17.3923 9.05365C17.3923 9.89714 16.8767 10.381 15.9701 10.381H14.7755V7.73063ZM20.3529 13.5837C21.006 13.5837 21.6118 13.254 21.8868 12.7316H21.9083V13.5323H22.8708V10.2097C22.8708 9.24633 22.0974 8.62549 20.9072 8.62549C19.8029 8.62549 18.9865 9.25489 18.9564 10.1198H19.8931C19.9704 9.70874 20.3529 9.439 20.8771 9.439C21.513 9.439 21.8697 9.73443 21.8697 10.2782V10.6465L20.572 10.7235C19.3646 10.7963 18.7115 11.2887 18.7115 12.145C18.7115 13.0099 19.3861 13.5837 20.3529 13.5837ZM20.6322 12.7916C20.0779 12.7916 19.7255 12.5261 19.7255 12.1193C19.7255 11.6997 20.065 11.4557 20.7138 11.4172L21.8697 11.3444V11.7212C21.8697 12.3463 21.3369 12.7916 20.6322 12.7916ZM24.1556 15.3477C25.1697 15.3477 25.6466 14.9624 26.0634 13.7935L27.8896 8.68972H26.8326L25.6079 12.6331H25.5865L24.3618 8.68972H23.2747L25.0365 13.5494L24.9419 13.8448C24.7829 14.3458 24.5251 14.5385 24.0654 14.5385C23.9837 14.5385 23.8247 14.5299 23.7603 14.5213V15.322C23.8204 15.3391 24.0783 15.3477 24.1556 15.3477Z" fill="black"/>
</g>
</svg>
