<svg width="24" height="25" viewBox="0 0 24 25" fill="none" xmlns="http://www.w3.org/2000/svg">
<mask id="mask0_9_513" style="mask-type:luminance" maskUnits="userSpaceOnUse" x="0" y="0" width="24" height="24">
<path d="M23.52 0.549805H0.480011V23.5898H23.52V0.549805Z" fill="white"/>
</mask>
<g mask="url(#mask0_9_513)">
<path d="M18.7216 1.79492H11.5412C11.0868 1.79492 10.6503 1.97584 10.3287 2.2974L0.982274 11.6421C0.31259 12.3118 0.31259 13.3974 0.982274 14.0679L8.16275 21.2484C8.83242 21.918 9.91796 21.918 10.5877 21.2484L19.9341 11.9036C20.2556 11.5812 20.4366 11.1448 20.4366 10.6895V3.50987C20.4366 2.56236 19.6692 1.79492 18.7216 1.79492ZM15.7205 7.79723C15.0105 7.79723 14.4343 7.221 14.4343 6.51102C14.4343 5.80103 15.0105 5.22481 15.7205 5.22481C16.4305 5.22481 17.0067 5.80103 17.0067 6.51102C17.0067 7.221 16.4305 7.79723 15.7205 7.79723Z" fill="#FFCD4C"/>
<path d="M22.1515 3.50879L22.1507 11.491C22.1507 11.8863 21.9937 12.2661 21.7134 12.5457L12.216 22.0431L12.3617 22.1888C13.0314 22.8585 14.117 22.8585 14.7867 22.1888L23.3631 13.6141C23.6855 13.2926 23.8665 12.8561 23.8665 12.4016V5.22372C23.8665 4.27622 23.099 3.50879 22.1515 3.50879Z" fill="#FFCD4C"/>
</g>
</svg>
