<svg width="30" height="22" viewBox="0 0 30 22" fill="none" xmlns="http://www.w3.org/2000/svg">
<path d="M26 1.3999H4.00001C1.90593 1.3999 0.208344 3.09749 0.208344 5.19157V17.1915C0.208344 19.2856 1.90593 20.9832 4.00001 20.9832H26C28.0941 20.9832 29.7916 19.2856 29.7916 17.1915V5.19157C29.7916 3.09749 28.0941 1.3999 26 1.3999Z" fill="white" stroke="#DDDDDD" stroke-width="0.416667"/>
<path fill-rule="evenodd" clip-rule="evenodd" d="M25.7504 9.16061C26.6713 9.16061 27.1777 9.57162 27.1777 10.348C27.2237 10.9417 26.8094 11.444 26.2569 11.5354L27.5 13.2251H26.5331L25.4742 11.581H25.3821V13.2251H24.5994V9.16061H25.7504ZM25.3821 11.033H25.6123C26.1188 11.033 26.349 10.8047 26.349 10.3937C26.349 10.0283 26.1188 9.79997 25.6123 9.79997H25.3821V11.033ZM21.8831 13.2251H24.093V12.5401H22.6657V11.444H24.047V10.759H22.6657V9.84562H24.093V9.16061H21.8831V13.2251ZM19.581 11.9007L18.5221 9.16061H17.6934L19.3969 13.3164H19.8112L21.5147 9.16061H20.686L19.581 11.9007ZM10.2348 11.2158C10.2348 12.3575 11.1556 13.3165 12.3066 13.3165C12.675 13.3165 12.9972 13.2252 13.3195 13.0882V12.1748C13.0893 12.4488 12.767 12.6315 12.3987 12.6315C11.6621 12.6315 11.0635 12.0835 11.0635 11.3528V11.2615C11.0175 10.5308 11.616 9.89142 12.3527 9.84575C12.721 9.84575 13.0893 10.0284 13.3195 10.3024V9.38907C13.0433 9.2064 12.675 9.16073 12.3527 9.16073C11.1556 9.0694 10.2348 10.0284 10.2348 11.2158ZM8.80755 10.7133C8.34715 10.5307 8.20903 10.4393 8.20903 10.211C8.25507 9.93698 8.48527 9.70864 8.76151 9.75431C8.99172 9.75431 9.22192 9.89132 9.40608 10.074L9.82045 9.52597C9.49816 9.25196 9.0838 9.06929 8.66943 9.06929C8.02487 9.02362 7.47238 9.52597 7.42634 10.1653V10.211C7.42634 10.759 7.65654 11.0787 8.39319 11.307C8.57735 11.3527 8.76151 11.444 8.94568 11.5354C9.0838 11.6267 9.17588 11.7637 9.17588 11.9464C9.17588 12.2661 8.89964 12.5401 8.62339 12.5401H8.57735C8.20903 12.5401 7.88674 12.3117 7.74862 11.9921L7.24218 12.4944C7.51842 12.9968 8.07091 13.2708 8.62339 13.2708C9.36004 13.3164 9.95857 12.7684 10.0046 12.0377V11.9007C9.95857 11.3527 9.72836 11.0787 8.80755 10.7133ZM6.13721 13.2251H6.9199V9.16061H6.13721V13.2251ZM2.5 9.16061H3.65101H3.88122C4.98619 9.20627 5.86096 10.1196 5.81492 11.2157C5.81492 11.8094 5.53867 12.3574 5.07827 12.7684C4.6639 13.0881 4.15746 13.2707 3.65101 13.2251H2.5V9.16061ZM3.5129 12.54C3.88123 12.5856 4.29559 12.4486 4.57183 12.2203C4.84808 11.9463 4.9862 11.5809 4.9862 11.1699C4.9862 10.8046 4.84808 10.4392 4.57183 10.1652C4.29559 9.93688 3.88123 9.79988 3.5129 9.84554H3.2827V12.54H3.5129Z" fill="black"/>
<path fill-rule="evenodd" clip-rule="evenodd" d="M15.7101 9.06641C14.5591 9.06641 13.5923 9.97977 13.5923 11.1672C13.5923 12.3088 14.5131 13.2679 15.7101 13.3135C16.9072 13.3592 17.828 12.4002 17.8741 11.2128C17.828 10.0254 16.9072 9.06641 15.7101 9.06641Z" fill="url(#paint0_linear_9_386)"/>
<path fill-rule="evenodd" clip-rule="evenodd" d="M15.7101 9.06641C14.5591 9.06641 13.5923 9.97977 13.5923 11.1672C13.5923 12.3088 14.5131 13.2679 15.7101 13.3135C16.9072 13.3592 17.828 12.4002 17.8741 11.2128C17.828 10.0254 16.9072 9.06641 15.7101 9.06641Z" fill="url(#paint1_radial_9_386)"/>
<defs>
<linearGradient id="paint0_linear_9_386" x1="14.4196" y1="9.46785" x2="17.1997" y2="12.7054" gradientUnits="userSpaceOnUse">
<stop stop-color="#E15315"/>
<stop offset="1" stop-color="#FFB320"/>
</linearGradient>
<radialGradient id="paint1_radial_9_386" cx="0" cy="0" r="1" gradientUnits="userSpaceOnUse" gradientTransform="translate(16.0418 11.8164) rotate(-126.027) scale(2.83364 2.93383)">
<stop stop-color="#FFCD83" stop-opacity="0"/>
<stop offset="0.725604" stop-color="#E45816" stop-opacity="0.7"/>
<stop offset="1" stop-color="#912301"/>
</radialGradient>
</defs>
</svg>
