<svg width="24" height="25" viewBox="0 0 24 25" fill="none" xmlns="http://www.w3.org/2000/svg">
<mask id="mask0_9_491" style="mask-type:luminance" maskUnits="userSpaceOnUse" x="0" y="0" width="24" height="25">
<path d="M24 0.0292969H0V24.0293H24V0.0292969Z" fill="white"/>
</mask>
<g mask="url(#mask0_9_491)">
<path d="M12 0.0292969C5.3748 0.0292969 0 5.39732 0 12.023C0 18.655 5.3748 24.0293 12 24.0293C18.6288 24.0293 23.9991 18.6549 23.9991 12.023C23.9991 5.39732 18.6288 0.0292969 12 0.0292969ZM12.8551 18.7001C12.5764 18.9481 12.2534 19.0728 11.8875 19.0728C11.509 19.0728 11.1788 18.9504 10.8969 18.7051C10.6146 18.4602 10.4731 18.1174 10.4731 17.6769C10.4731 17.2861 10.61 16.9573 10.8829 16.6907C11.1557 16.4242 11.4905 16.2909 11.8875 16.2909C12.2783 16.2909 12.6072 16.4242 12.8742 16.6907C13.1407 16.9573 13.2744 17.2861 13.2744 17.6769C13.2739 18.111 13.1343 18.4521 12.8551 18.7001ZM16.3304 10.0846C16.1162 10.4816 15.8619 10.824 15.5669 11.1127C15.2728 11.4014 14.7439 11.8866 13.9804 12.5687C13.7699 12.7611 13.6005 12.9301 13.4736 13.0755C13.3466 13.2215 13.2518 13.3547 13.1899 13.4758C13.1275 13.5968 13.0797 13.7179 13.0458 13.8389C13.0119 13.9595 12.9609 14.1723 12.8917 14.4763C12.7743 15.1214 12.4052 15.4439 11.785 15.4439C11.4624 15.4439 11.1914 15.3387 10.9705 15.1277C10.7504 14.9167 10.6407 14.6037 10.6407 14.1881C10.6407 13.6673 10.7215 13.2159 10.8828 12.8343C11.0432 12.4525 11.2578 12.1178 11.5243 11.8291C11.7913 11.5405 12.1509 11.198 12.604 10.801C13.001 10.4536 13.2879 10.1916 13.4645 10.0149C13.6416 9.83787 13.7902 9.64092 13.9108 9.42406C14.0324 9.20677 14.092 8.97141 14.092 8.71711C14.092 8.22066 13.9082 7.80235 13.5387 7.46129C13.1696 7.12024 12.6934 6.94946 12.1102 6.94946C11.4277 6.94946 10.9253 7.12157 10.6028 7.4658C10.2802 7.81002 10.0079 8.31686 9.78423 8.98681C9.57282 9.68793 9.17258 10.0384 8.58394 10.0384C8.23654 10.0384 7.94339 9.91601 7.70442 9.67115C7.4659 9.42629 7.34663 9.16114 7.34663 8.87566C7.34663 8.28657 7.53592 7.68937 7.91404 7.0845C8.29262 6.47963 8.84464 5.97863 9.57055 5.582C10.296 5.18492 11.1431 4.98613 12.1102 4.98613C13.0096 4.98613 13.8034 5.15235 14.4918 5.48441C15.1803 5.81596 15.7124 6.26728 16.0878 6.83825C16.4627 7.40878 16.6506 8.02904 16.6506 8.69899C16.6515 9.22533 16.5445 9.68749 16.3304 10.0846Z" fill="#FFCD4C"/>
</g>
</svg>
