<svg width="46" height="28" viewBox="0 0 46 28" fill="none" xmlns="http://www.w3.org/2000/svg">
<mask id="mask0_9_444" style="mask-type:luminance" maskUnits="userSpaceOnUse" x="0" y="1" width="46" height="27">
<path d="M45.3105 1.45557H0.361328V27.4556H45.3105V1.45557Z" fill="white"/>
</mask>
<g mask="url(#mask0_9_444)">
<g opacity="0.8">
<path fill-rule="evenodd" clip-rule="evenodd" d="M11.2637 6.07988C10.5586 2.73073 10.3382 2.59852 8.75179 2.51039V1.93751H15.8467V2.51039C13.9077 2.68666 13.8637 2.68666 14.5687 6.60869L16.9043 18.9918L19.6806 5.68327C20.2535 2.95107 20.0331 2.68666 18.2264 2.55445L17.6535 2.51039V1.93751H22.7213V2.51039C21.1789 2.64259 21.1789 3.0392 20.562 5.94767L16.023 27.4528H15.5823L11.7043 8.19513L7.60602 27.4528H7.16535L2.53823 4.89005C2.14162 2.907 2.05348 2.59852 0.378906 2.51039V1.93751H7.29755V2.51039C5.53484 2.68666 5.49077 2.86293 6.19586 6.60869L8.57552 18.9036L11.2637 6.07988ZM29.7281 27.3206C27.2162 27.3206 25.7179 24.985 25.145 24.985C24.5281 24.985 23.823 26.307 23.6026 26.8799H23.0738V18.5951H23.6026C25.145 23.1341 27.6128 26.7036 29.6399 26.7036C30.8298 26.7036 31.5789 25.6019 31.5789 23.9714C31.5789 17.9782 23.206 14.1002 23.206 6.7409C23.206 3.74429 25.3213 1.40869 27.6128 1.40869C29.684 1.40869 30.8298 3.08327 31.4908 3.08327C31.8433 3.08327 32.1077 2.81886 32.5484 1.76123H32.945V9.16462H32.4162C31.4467 5.59513 29.4637 1.98157 27.5247 1.98157C26.3348 1.98157 25.4535 3.08327 25.4535 4.71378C25.4535 10.4867 33.8264 14.1443 33.8264 21.768C33.8704 24.9409 31.9314 27.3206 29.7281 27.3206ZM38.4094 27.3206C35.8535 27.3206 34.8399 25.7341 34.8399 24.1917C34.8399 22.6494 35.7653 21.0629 37.1755 21.0629C38.6738 21.0629 39.2908 22.5612 38.5857 23.6189C38.0128 24.5443 36.4704 24.6324 36.4704 25.3375C36.4704 26.4392 37.3959 26.7036 38.145 26.7036C40.3484 26.7036 40.2162 25.3375 40.2162 20.6663V4.1409C40.2162 2.81886 39.9077 2.51039 38.4976 2.51039H37.9687V1.93751H45.3281V2.51039H44.7111C43.962 2.51039 43.6535 2.81886 43.6535 4.18496V20.3579C43.6535 24.8968 40.3925 27.3206 38.4094 27.3206Z" fill="white"/>
</g>
</g>
</svg>
