<svg width="32" height="21" viewBox="0 0 32 21" fill="none" xmlns="http://www.w3.org/2000/svg">
<path d="M30 1.26367H2C1.17157 1.26367 0.5 1.93524 0.5 2.76367V18.7637C0.5 19.5921 1.17157 20.2637 2 20.2637H30C30.8284 20.2637 31.5 19.5921 31.5 18.7637V2.76367C31.5 1.93524 30.8284 1.26367 30 1.26367Z" fill="white"/>
<path d="M30 1.26367H2C1.17157 1.26367 0.5 1.93524 0.5 2.76367V18.7637C0.5 19.5921 1.17157 20.2637 2 20.2637H30C30.8284 20.2637 31.5 19.5921 31.5 18.7637V2.76367C31.5 1.93524 30.8284 1.26367 30 1.26367Z" stroke="#EDEEF0"/>
<mask id="mask0_9_348" style="mask-type:luminance" maskUnits="userSpaceOnUse" x="5" y="6" width="22" height="10">
<path d="M27 6.76367H5V15.7637H27V6.76367Z" fill="white"/>
</mask>
<g mask="url(#mask0_9_348)">
<path d="M9.02326 7.92399C8.76545 8.22799 8.35295 8.46776 7.94045 8.43351C7.88889 8.02247 8.09084 7.58574 8.32717 7.316C8.58498 7.00344 9.03615 6.7808 9.40139 6.76367C9.44435 7.19183 9.27678 7.61143 9.02326 7.92399ZM9.39709 8.51486C8.79982 8.48061 8.2885 8.85311 8.0049 8.85311C7.71701 8.85311 7.28303 8.53199 6.81037 8.54055C6.19592 8.54911 5.62443 8.89593 5.31076 9.44826C4.66623 10.5529 5.14318 12.1885 5.76623 13.0877C6.07131 13.533 6.43654 14.0211 6.91779 14.0039C7.37326 13.9868 7.55373 13.7085 8.10373 13.7085C8.65803 13.7085 8.81701 14.0039 9.29826 13.9954C9.7967 13.9868 10.1104 13.5501 10.4154 13.1048C10.7635 12.5996 10.9053 12.1072 10.9139 12.0815C10.9053 12.0729 9.95139 11.709 9.94279 10.6129C9.9342 9.69659 10.6947 9.25986 10.7291 9.23417C10.2994 8.60049 9.62912 8.53199 9.39709 8.51486ZM12.8475 7.27318V13.9483H13.8873V11.6662H15.3268C16.6416 11.6662 17.5654 10.767 17.5654 9.46538C17.5654 8.16377 16.6588 7.27318 15.3612 7.27318H12.8475ZM13.8873 8.14664H15.0862C15.9885 8.14664 16.5041 8.62618 16.5041 9.46966C16.5041 10.3132 15.9885 10.797 15.0819 10.797H13.8873V8.14664ZM19.4647 13.9997C20.1178 13.9997 20.7236 13.67 20.9986 13.1476H21.0201V13.9483H21.9826V10.6257C21.9826 9.66234 21.2092 9.0415 20.019 9.0415C18.9147 9.0415 18.0983 9.6709 18.0682 10.5358H19.0049C19.0822 10.1248 19.4647 9.85501 19.9889 9.85501C20.6248 9.85501 20.9815 10.1504 20.9815 10.6942V11.0625L19.6838 11.1395C18.4764 11.2123 17.8233 11.7047 17.8233 12.561C17.8233 13.4259 18.4979 13.9997 19.4647 13.9997ZM19.744 13.2076C19.1897 13.2076 18.8373 12.9421 18.8373 12.5353C18.8373 12.1157 19.1768 11.8717 19.8256 11.8332L20.9815 11.7604V12.1372C20.9815 12.7623 20.4487 13.2076 19.744 13.2076ZM23.2674 15.7637C24.2815 15.7637 24.7584 15.3784 25.1752 14.2095L27.0014 9.10573H25.9444L24.7197 13.0491H24.6983L23.4736 9.10573H22.3865L24.1483 13.9654L24.0537 14.2608C23.8947 14.7618 23.6369 14.9545 23.1772 14.9545C23.0955 14.9545 22.9365 14.9459 22.8721 14.9373V15.738C22.9322 15.7551 23.1901 15.7637 23.2674 15.7637Z" fill="black"/>
</g>
</svg>
