<svg width="32" height="21" viewBox="0 0 32 21" fill="none" xmlns="http://www.w3.org/2000/svg">
<path d="M30 0.645508H2C1.17157 0.645508 0.5 1.31708 0.5 2.14551V18.1455C0.5 18.9739 1.17157 19.6455 2 19.6455H30C30.8284 19.6455 31.5 18.9739 31.5 18.1455V2.14551C31.5 1.31708 30.8284 0.645508 30 0.645508Z" fill="white"/>
<path d="M30 0.645508H2C1.17157 0.645508 0.5 1.31708 0.5 2.14551V18.1455C0.5 18.9739 1.17157 19.6455 2 19.6455H30C30.8284 19.6455 31.5 18.9739 31.5 18.1455V2.14551C31.5 1.31708 30.8284 0.645508 30 0.645508Z" stroke="#EDEEF0"/>
<path d="M5.80878 6.54541H3.72868C3.58634 6.54541 3.46528 6.6499 3.44308 6.79188L2.60179 12.1812C2.58506 12.2875 2.66658 12.3834 2.77334 12.3834H3.76639C3.90874 12.3834 4.02979 12.2789 4.05199 12.1366L4.27889 10.683C4.30079 10.5408 4.42215 10.4363 4.56419 10.4363H5.22268C6.59289 10.4363 7.38369 9.76632 7.59021 8.43875C7.68328 7.85793 7.59416 7.40158 7.32498 7.08198C7.02935 6.73103 6.50499 6.54541 5.80878 6.54541ZM6.04876 8.51373C5.93501 9.26787 5.36472 9.26787 4.81329 9.26787H4.4994L4.71961 7.85947C4.73269 7.77434 4.80569 7.71165 4.89085 7.71165H5.03471C5.41034 7.71165 5.76468 7.71165 5.94778 7.928C6.05697 8.05707 6.09043 8.24883 6.04876 8.51373Z" fill="#253B80"/>
<path d="M12.0258 8.48967H11.0297C10.9448 8.48967 10.8715 8.55237 10.8584 8.63749L10.8143 8.91899L10.7447 8.81696C10.529 8.50074 10.0482 8.39502 9.56822 8.39502C8.46749 8.39502 7.52735 9.23736 7.34425 10.419C7.24905 11.0084 7.3844 11.572 7.71532 11.965C8.01886 12.3264 8.45319 12.477 8.96995 12.477C9.85686 12.477 10.3487 11.9008 10.3487 11.9008L10.3043 12.1805C10.2875 12.2874 10.3691 12.3833 10.4752 12.3833H11.3725C11.5151 12.3833 11.6355 12.2788 11.6581 12.1365L12.1964 8.69188C12.2134 8.58586 12.1322 8.48967 12.0258 8.48967ZM10.6373 10.4485C10.5412 11.0234 10.0895 11.4094 9.51347 11.4094C9.22422 11.4094 8.99306 11.3157 8.84464 11.1381C8.69743 10.9617 8.64146 10.7106 8.6883 10.431C8.77803 9.86089 9.2373 9.46231 9.80455 9.46231C10.0874 9.46231 10.3173 9.55727 10.4688 9.73643C10.6206 9.91743 10.6808 10.1701 10.6373 10.4485Z" fill="#253B80"/>
<path d="M17.3304 8.48975H16.3294C16.2339 8.48975 16.1442 8.53769 16.0901 8.6179L14.7095 10.6726L14.1243 8.69811C14.0875 8.57457 13.9747 8.48975 13.8469 8.48975H12.8633C12.7438 8.48975 12.6607 8.60776 12.6988 8.72146L13.8013 11.9906L12.7648 13.4691C12.6833 13.5856 12.7654 13.7457 12.9062 13.7457H13.906C14.0008 13.7457 14.0897 13.699 14.1435 13.6203L17.4728 8.76479C17.5524 8.64863 17.4706 8.48975 17.3304 8.48975Z" fill="#253B80"/>
<path d="M20.6447 6.54541H18.5643C18.4223 6.54541 18.3012 6.6499 18.279 6.79188L17.4377 12.1812C17.421 12.2875 17.5025 12.3834 17.6087 12.3834H18.6762C18.7754 12.3834 18.8603 12.3102 18.8758 12.2107L19.1145 10.683C19.1364 10.5408 19.2578 10.4363 19.3998 10.4363H20.058C21.4285 10.4363 22.219 9.76632 22.4258 8.43875C22.5192 7.85793 22.4295 7.40158 22.1603 7.08198C21.865 6.73103 21.3409 6.54541 20.6447 6.54541ZM20.8847 8.51373C20.7712 9.26787 20.201 9.26787 19.6492 9.26787H19.3356L19.5562 7.85947C19.5692 7.77434 19.6416 7.71165 19.7271 7.71165H19.871C20.2463 7.71165 20.6009 7.71165 20.784 7.928C20.8932 8.05707 20.9264 8.24883 20.8847 8.51373Z" fill="#179BD7"/>
<path d="M26.8643 8.48967H25.8688C25.7834 8.48967 25.7107 8.55237 25.6979 8.63749L25.6538 8.91899L25.5838 8.81696C25.3682 8.50074 24.8876 8.39502 24.4077 8.39502C23.3069 8.39502 22.3671 9.23736 22.184 10.419C22.0891 11.0084 22.2239 11.572 22.5548 11.965C22.8589 12.3264 23.2926 12.477 23.8094 12.477C24.6963 12.477 25.1881 11.9008 25.1881 11.9008L25.1437 12.1805C25.127 12.2874 25.2085 12.3833 25.3153 12.3833H26.2122C26.3543 12.3833 26.4753 12.2788 26.4975 12.1365L27.0362 8.69188C27.0526 8.58586 26.9711 8.48967 26.8643 8.48967ZM25.4759 10.4485C25.3804 11.0234 24.9281 11.4094 24.352 11.4094C24.0634 11.4094 23.8316 11.3157 23.6832 11.1381C23.536 10.9617 23.4806 10.7106 23.5268 10.431C23.6172 9.86089 24.0758 9.46231 24.6431 9.46231C24.926 9.46231 25.1559 9.55727 25.3074 9.73643C25.4597 9.91743 25.52 10.1701 25.4759 10.4485Z" fill="#179BD7"/>
<path d="M28.0376 6.69354L27.1838 12.1815C27.1671 12.2878 27.2486 12.3837 27.3548 12.3837H28.2131C28.3557 12.3837 28.4768 12.2792 28.4987 12.1369L29.3406 6.74793C29.3573 6.6416 29.2758 6.54541 29.1696 6.54541H28.2085C28.1237 6.54572 28.0507 6.60841 28.0376 6.69354Z" fill="#179BD7"/>
</svg>
