<svg width="33" height="21" viewBox="0 0 33 21" fill="none" xmlns="http://www.w3.org/2000/svg">
<path d="M30.8882 0.847656H2.88818C2.05976 0.847656 1.38818 1.51923 1.38818 2.34766V18.3477C1.38818 19.1761 2.05976 19.8477 2.88818 19.8477H30.8882C31.7166 19.8477 32.3882 19.1761 32.3882 18.3477V2.34766C32.3882 1.51923 31.7166 0.847656 30.8882 0.847656Z" fill="white"/>
<path d="M30.8882 0.847656H2.88818C2.05976 0.847656 1.38818 1.51923 1.38818 2.34766V18.3477C1.38818 19.1761 2.05976 19.8477 2.88818 19.8477H30.8882C31.7166 19.8477 32.3882 19.1761 32.3882 18.3477V2.34766C32.3882 1.51923 31.7166 0.847656 30.8882 0.847656Z" stroke="#EDEEF0"/>
<path d="M6.69697 6.74756H4.61687C4.47453 6.74756 4.35347 6.85205 4.33127 6.99403L3.48998 12.3833C3.47325 12.4896 3.55477 12.5855 3.66153 12.5855H4.65458C4.79693 12.5855 4.91798 12.481 4.94018 12.3387L5.16708 10.8851C5.18898 10.7429 5.31034 10.6384 5.45238 10.6384H6.11087C7.48108 10.6384 8.27188 9.96847 8.4784 8.6409C8.57147 8.06008 8.48235 7.60373 8.21317 7.28413C7.91754 6.93318 7.39318 6.74756 6.69697 6.74756ZM6.93695 8.71588C6.8232 9.47002 6.25291 9.47002 5.70148 9.47002H5.38759L5.6078 8.06162C5.62088 7.97649 5.69388 7.9138 5.77904 7.9138H5.9229C6.29853 7.9138 6.65287 7.9138 6.83597 8.13015C6.94516 8.25922 6.97862 8.45098 6.93695 8.71588Z" fill="#253B80"/>
<path d="M12.914 8.69182H11.9179C11.833 8.69182 11.7597 8.75452 11.7466 8.83964L11.7025 9.12114L11.6329 9.01911C11.4172 8.70289 10.9364 8.59717 10.4564 8.59717C9.35567 8.59717 8.41553 9.43951 8.23243 10.6211C8.13723 11.2105 8.27258 11.7741 8.6035 12.1671C8.90704 12.5285 9.34137 12.6791 9.85813 12.6791C10.745 12.6791 11.2369 12.1029 11.2369 12.1029L11.1925 12.3826C11.1757 12.4895 11.2573 12.5854 11.3634 12.5854H12.2607C12.4033 12.5854 12.5237 12.4809 12.5463 12.3386L13.0846 8.89403C13.1016 8.78801 13.0204 8.69182 12.914 8.69182ZM11.5255 10.6506C11.4294 11.2255 10.9777 11.6115 10.4017 11.6115C10.1124 11.6115 9.88124 11.5178 9.73282 11.3402C9.58561 11.1638 9.52964 10.9127 9.57648 10.6331C9.66621 10.063 10.1255 9.66446 10.6927 9.66446C10.9756 9.66446 11.2055 9.75942 11.357 9.93858C11.5088 10.1196 11.569 10.3722 11.5255 10.6506Z" fill="#253B80"/>
<path d="M18.2186 8.69189H17.2176C17.1221 8.69189 17.0324 8.73983 16.9783 8.82004L15.5977 10.8747L15.0125 8.90025C14.9757 8.77671 14.8629 8.69189 14.7351 8.69189H13.7515C13.632 8.69189 13.5489 8.8099 13.587 8.9236L14.6895 12.1927L13.653 13.6712C13.5715 13.7877 13.6536 13.9478 13.7944 13.9478H14.7942C14.889 13.9478 14.9779 13.9011 15.0317 13.8224L18.361 8.96693C18.4406 8.85077 18.3588 8.69189 18.2186 8.69189Z" fill="#253B80"/>
<path d="M21.5329 6.74756H19.4525C19.3105 6.74756 19.1894 6.85205 19.1672 6.99403L18.3259 12.3833C18.3092 12.4896 18.3907 12.5855 18.4969 12.5855H19.5644C19.6636 12.5855 19.7485 12.5123 19.764 12.4128L20.0027 10.8851C20.0246 10.7429 20.146 10.6384 20.288 10.6384H20.9462C22.3167 10.6384 23.1072 9.96847 23.314 8.6409C23.4074 8.06008 23.3177 7.60373 23.0485 7.28413C22.7532 6.93318 22.2291 6.74756 21.5329 6.74756ZM21.7729 8.71588C21.6594 9.47002 21.0892 9.47002 20.5374 9.47002H20.2238L20.4444 8.06162C20.4574 7.97649 20.5298 7.9138 20.6153 7.9138H20.7592C21.1345 7.9138 21.4891 7.9138 21.6722 8.13015C21.7814 8.25922 21.8146 8.45098 21.7729 8.71588Z" fill="#179BD7"/>
<path d="M27.7525 8.69182H26.757C26.6716 8.69182 26.5989 8.75452 26.5861 8.83964L26.542 9.12114L26.472 9.01911C26.2564 8.70289 25.7758 8.59717 25.2959 8.59717C24.1951 8.59717 23.2553 9.43951 23.0722 10.6211C22.9773 11.2105 23.1121 11.7741 23.443 12.1671C23.7471 12.5285 24.1808 12.6791 24.6976 12.6791C25.5845 12.6791 26.0763 12.1029 26.0763 12.1029L26.0319 12.3826C26.0152 12.4895 26.0967 12.5854 26.2035 12.5854H27.1004C27.2425 12.5854 27.3635 12.4809 27.3857 12.3386L27.9244 8.89403C27.9408 8.78801 27.8593 8.69182 27.7525 8.69182ZM26.3641 10.6506C26.2686 11.2255 25.8163 11.6115 25.2402 11.6115C24.9516 11.6115 24.7198 11.5178 24.5714 11.3402C24.4242 11.1638 24.3688 10.9127 24.415 10.6331C24.5054 10.063 24.964 9.66446 25.5313 9.66446C25.8142 9.66446 26.0441 9.75942 26.1956 9.93858C26.3479 10.1196 26.4082 10.3722 26.3641 10.6506Z" fill="#179BD7"/>
<path d="M28.9258 6.89569L28.072 12.3837C28.0553 12.49 28.1368 12.5859 28.243 12.5859H29.1013C29.2439 12.5859 29.365 12.4814 29.3869 12.3391L30.2288 6.95008C30.2455 6.84375 30.164 6.74756 30.0578 6.74756H29.0967C29.0119 6.74787 28.9389 6.81056 28.9258 6.89569Z" fill="#179BD7"/>
</svg>
