<svg width="16" height="18" viewBox="0 0 16 18" fill="none" xmlns="http://www.w3.org/2000/svg">
<path d="M12.6667 2.95801H3.33333C2.4496 2.95906 1.60237 3.31059 0.97748 3.93549C0.352588 4.56038 0.00105857 5.40761 0 6.29134H16C15.9989 5.40761 15.6474 4.56038 15.0225 3.93549C14.3976 3.31059 13.5504 2.95906 12.6667 2.95801Z" fill="#FFCD4C"/>
<path d="M0 11.625C0.00105857 12.5087 0.352588 13.3559 0.97748 13.9808C1.60237 14.6057 2.4496 14.9572 3.33333 14.9583H12.6667C13.5504 14.9572 14.3976 14.6057 15.0225 13.9808C15.6474 13.3559 15.9989 12.5087 16 11.625V7.625H0V11.625ZM4.66667 11.2916C4.66667 11.4894 4.60802 11.6827 4.49814 11.8472C4.38826 12.0116 4.23208 12.1398 4.04935 12.2155C3.86662 12.2912 3.66556 12.311 3.47158 12.2724C3.2776 12.2338 3.09941 12.1386 2.95956 11.9987C2.81971 11.8589 2.72447 11.6807 2.68588 11.4867C2.6473 11.2927 2.6671 11.0917 2.74279 10.9089C2.81847 10.7262 2.94665 10.57 3.1111 10.4602C3.27555 10.3503 3.46889 10.2917 3.66667 10.2917C3.93188 10.2917 4.18624 10.397 4.37377 10.5845C4.56131 10.772 4.66667 11.0264 4.66667 11.2916Z" fill="#FFCD4C"/>
</svg>
