<svg width="33" height="32" viewBox="0 0 33 32" fill="none" xmlns="http://www.w3.org/2000/svg">
<mask id="mask0_9_1772" style="mask-type:luminance" maskUnits="userSpaceOnUse" x="0" y="1" width="33" height="31">
<path d="M32.8882 1.68359H0.888184V31.2513H32.8882V1.68359Z" fill="white"/>
</mask>
<g mask="url(#mask0_9_1772)">
<path d="M14.3413 4.34245C15.6695 4.34245 16.9481 4.53516 18.1564 4.89193C18.3491 4.94922 18.5444 5.01172 18.7424 5.07943C18.9611 5.15495 19.1773 5.23568 19.3908 5.32162L18.5106 6.9388C17.2163 6.44141 15.8127 6.17058 14.3439 6.17058H14.3413C12.7372 6.17058 11.2085 6.4961 9.81787 7.08464C9.59131 7.18099 9.36735 7.28255 9.1512 7.39193C8.0262 7.95443 7.00537 8.69401 6.12516 9.57422L6.11995 9.57943C5.82828 9.8711 5.54964 10.181 5.29183 10.5039C5.03141 10.8294 4.78662 11.168 4.56006 11.5195C3.39078 13.332 2.71631 15.4857 2.71631 17.7956V17.7982C2.71631 19.4023 3.04183 20.931 3.63037 22.3216C3.72672 22.5482 3.82828 22.7721 3.93766 22.9883C4.50016 24.1107 5.23974 25.1341 6.12256 26.0143L6.12776 26.0195C6.41943 26.3112 6.72933 26.5898 7.05224 26.8503C7.37776 27.1107 7.71631 27.3555 8.06787 27.582C9.87776 28.7435 12.0314 29.418 14.3413 29.418H14.3439C15.9481 29.418 17.4767 29.0924 18.8674 28.5039C19.0939 28.4075 19.3179 28.306 19.534 28.1966C20.659 27.6341 21.6799 26.8945 22.5601 26.0143H22.5627L22.5705 26.0065C22.8622 25.7148 23.1382 25.4075 23.3986 25.0846C23.659 24.7591 23.9038 24.4206 24.1304 24.069C25.2918 22.2617 25.9663 20.1107 25.9663 17.8034L27.7918 17.5221C27.7945 17.6133 27.7945 17.7044 27.7945 17.7956V17.7982C27.7945 19.6549 27.4168 21.4258 26.7372 23.0325C26.6278 23.293 26.508 23.5508 26.3804 23.806C25.7293 25.1081 24.8726 26.2904 23.8543 27.3086L23.8491 27.3138C23.5106 27.6523 23.1512 27.9753 22.7788 28.2747C22.4038 28.5768 22.0106 28.8607 21.6043 29.1211C19.5106 30.4674 17.0184 31.2487 14.3439 31.2487C12.4872 31.2487 10.7163 30.8711 9.10953 30.1914C8.84912 30.082 8.59131 29.9622 8.3361 29.8346C7.03401 29.1836 5.85172 28.3268 4.83349 27.3086L4.82828 27.3008C4.48974 26.9622 4.16943 26.6055 3.86735 26.2305C3.56526 25.8555 3.28141 25.4622 3.02099 25.056C1.66943 22.9622 0.888184 20.47 0.888184 17.7956V17.793C0.888184 15.9362 1.26579 14.168 1.94547 12.5586C2.05485 12.2982 2.17464 12.0404 2.30224 11.7851C2.95328 10.4831 3.81006 9.30078 4.82828 8.28255L4.83349 8.27735C5.17203 7.9388 5.53141 7.61849 5.90381 7.31641C6.27881 7.01433 6.67203 6.73047 7.07828 6.47005C9.17464 5.1237 11.6668 4.34245 14.3413 4.34245ZM15.4403 17.1888L23.883 1.68359L24.9741 10.4883L32.8882 14.4961L15.4403 17.1888ZM14.3413 13.5378H14.3439C14.5314 13.5378 14.7163 13.5508 14.896 13.5742L13.8986 15.4075C13.7241 15.4388 13.5549 15.4909 13.396 15.5586C13.3491 15.5794 13.3023 15.6003 13.2554 15.6237C13.021 15.7409 12.8075 15.8945 12.6226 16.0794L12.6174 16.0846C12.5575 16.1445 12.5028 16.207 12.4481 16.2721C12.3934 16.3398 12.3413 16.4101 12.2945 16.4857C12.0523 16.8633 11.9116 17.3138 11.9116 17.7956V17.7982C11.9116 18.1341 11.9793 18.4518 12.1043 18.7435C12.1252 18.793 12.146 18.8398 12.1695 18.8841C12.2866 19.1185 12.4403 19.332 12.6252 19.5169L12.6304 19.5221C12.6903 19.582 12.7528 19.6393 12.8179 19.6914C12.8856 19.7461 12.9559 19.7982 13.0314 19.845C13.409 20.0872 13.8596 20.2279 14.3413 20.2279C14.6773 20.2279 14.995 20.1602 15.2866 20.0378C15.3361 20.0169 15.3804 19.9961 15.4273 19.9727C15.6616 19.8555 15.8752 19.7018 16.0601 19.5169L16.0653 19.5117C16.0991 19.4779 16.1304 19.444 16.159 19.4128C16.1877 19.3815 16.2163 19.345 16.245 19.3086L18.4351 18.97C18.3882 19.1367 18.3309 19.3008 18.2632 19.457C18.2293 19.5378 18.1903 19.6211 18.1512 19.7018C17.9455 20.1159 17.6747 20.4883 17.3517 20.8112L17.3439 20.8164C17.2372 20.9206 17.1278 21.0221 17.0106 21.1159C16.8908 21.2122 16.7684 21.3008 16.6382 21.3841C15.9741 21.8086 15.1877 22.056 14.3413 22.056C13.7528 22.056 13.1929 21.9362 12.6851 21.72C12.6043 21.6862 12.521 21.6471 12.4403 21.6081C12.0262 21.4023 11.6538 21.1315 11.3309 20.8086L11.3231 20.8008C11.2189 20.6966 11.1174 20.5846 11.0236 20.4674C10.9273 20.3476 10.8387 20.2253 10.7554 20.095C10.3309 19.4336 10.0835 18.6445 10.0835 17.7982V17.7956C10.0835 17.207 10.2033 16.6471 10.4194 16.1393C10.4533 16.0586 10.4924 15.9753 10.5314 15.8945C10.7371 15.4831 11.008 15.1081 11.3309 14.7878C11.4377 14.681 11.5523 14.5794 11.6721 14.4831C11.7918 14.3867 11.9142 14.2982 12.0445 14.2148C12.7059 13.7851 13.495 13.5378 14.3413 13.5378ZM14.3413 8.90235C15.1382 8.90235 15.909 9.00651 16.6408 9.20443C16.7606 9.23568 16.8778 9.26953 16.995 9.3086C17.0575 9.32943 17.1226 9.35026 17.1851 9.3711L16.2945 11.0091C15.6747 10.832 15.0184 10.7357 14.3387 10.7357C13.3648 10.7357 12.4351 10.9336 11.5887 11.2904C11.4559 11.3476 11.3205 11.4101 11.1825 11.4779L11.1721 11.4831C10.4924 11.8242 9.87776 12.2721 9.34391 12.806L9.3387 12.8112C9.16162 12.9883 8.99495 13.1758 8.8361 13.3711C8.67724 13.569 8.52881 13.7747 8.39078 13.9883C7.68506 15.0872 7.2762 16.3971 7.2762 17.8008V17.8034C7.2762 18.7773 7.47412 19.707 7.83089 20.5534C7.88818 20.6914 7.95068 20.8268 8.01839 20.9596C8.35953 21.6419 8.81006 22.2617 9.34651 22.7982C9.5262 22.9779 9.71631 23.1471 9.91162 23.306C10.1095 23.4648 10.3153 23.6133 10.5288 23.7513C11.6278 24.4518 12.9377 24.8607 14.3413 24.8607H14.3439C15.3179 24.8607 16.2476 24.6628 17.0939 24.306C17.232 24.2487 17.3674 24.1862 17.5002 24.1185C18.1825 23.7773 18.8023 23.3268 19.3387 22.7904C19.5184 22.6107 19.6903 22.4206 19.8465 22.2253C20.0054 22.0273 20.1538 21.8216 20.2918 21.6081C20.8778 20.6966 21.258 19.6445 21.3726 18.5117L23.2267 18.2253C23.1747 19.2956 22.9351 20.3164 22.5392 21.2565C22.4663 21.4284 22.3882 21.6003 22.3023 21.7669C21.8726 22.6289 21.3049 23.4102 20.633 24.082L20.6278 24.0872C20.4038 24.3112 20.1668 24.5221 19.9221 24.7227C19.6747 24.9232 19.4142 25.1107 19.146 25.2825C17.7606 26.1706 16.1122 26.6888 14.3465 26.6888C13.12 26.6888 11.9481 26.4388 10.8856 25.9909C10.7137 25.918 10.5418 25.8398 10.3752 25.7539C9.51318 25.3242 8.73193 24.7565 8.06006 24.0846L8.05485 24.0768C7.83089 23.8529 7.61995 23.6185 7.42203 23.3711C7.22151 23.1237 7.03401 22.8633 6.86214 22.595C5.97151 21.2096 5.45589 19.5638 5.45589 17.7956V17.793C5.45589 16.5664 5.70589 15.3945 6.15641 14.332C6.22933 14.1601 6.30745 13.9883 6.39339 13.8216C6.82308 12.9596 7.39078 12.1784 8.06266 11.5065L8.06787 11.5013C8.29183 11.2773 8.5262 11.0664 8.7736 10.8685C9.02099 10.668 9.28141 10.4805 9.54964 10.3086C10.9273 9.41797 12.5757 8.90235 14.3413 8.90235Z" fill="#FDD6F0"/>
</g>
</svg>
