<svg width="33" height="21" viewBox="0 0 33 21" fill="none" xmlns="http://www.w3.org/2000/svg">
<path d="M29.8882 0.847656H3.88818C2.50747 0.847656 1.38818 1.96694 1.38818 3.34766V17.3477C1.38818 18.7284 2.50747 19.8477 3.88818 19.8477H29.8882C31.2689 19.8477 32.3882 18.7284 32.3882 17.3477V3.34766C32.3882 1.96694 31.2689 0.847656 29.8882 0.847656Z" fill="white"/>
<path d="M29.8882 0.847656H3.88818C2.50747 0.847656 1.38818 1.96694 1.38818 3.34766V17.3477C1.38818 18.7284 2.50747 19.8477 3.88818 19.8477H29.8882C31.2689 19.8477 32.3882 18.7284 32.3882 17.3477V3.34766C32.3882 1.96694 31.2689 0.847656 29.8882 0.847656Z" stroke="#EDEEF0"/>
<path fill-rule="evenodd" clip-rule="evenodd" d="M16.8841 13.7749C16.1087 14.4439 15.1033 14.8477 14.0048 14.8477C11.5511 14.8477 9.56201 12.833 9.56201 10.3477C9.56201 7.86238 11.5511 5.84766 14.0048 5.84766C15.1033 5.84766 16.1087 6.25144 16.8841 6.92045C17.6596 6.25144 18.6649 5.84766 19.7634 5.84766C22.2171 5.84766 24.2062 7.86238 24.2062 10.3477C24.2062 12.833 22.2171 14.8477 19.7634 14.8477C18.6649 14.8477 17.6596 14.4439 16.8841 13.7749Z" fill="#EC0014"/>
<path fill-rule="evenodd" clip-rule="evenodd" d="M16.8862 13.7713C17.8406 12.946 18.4457 11.7184 18.4457 10.3477C18.4457 8.97695 17.8406 7.74938 16.8862 6.92401C17.6623 6.25287 18.6692 5.84766 19.7696 5.84766C22.2233 5.84766 24.2125 7.86238 24.2125 10.3477C24.2125 12.833 22.2233 14.8477 19.7696 14.8477C18.6692 14.8477 17.6623 14.4425 16.8862 13.7713Z" fill="#F9A000"/>
<path fill-rule="evenodd" clip-rule="evenodd" d="M16.8949 6.9209C17.8517 7.7463 18.4585 8.97545 18.4585 10.3482C18.4585 11.7208 17.8517 12.95 16.895 13.7754C15.9383 12.95 15.3315 11.7208 15.3315 10.3481C15.3315 8.97541 15.9382 7.7463 16.8949 6.9209Z" fill="#FF5E00"/>
</svg>
