<svg width="16" height="17" viewBox="0 0 16 17" fill="none" xmlns="http://www.w3.org/2000/svg">
<path d="M8 0.514648C3.58172 0.514648 0 4.09637 0 8.51465C0 12.9329 3.58172 16.5146 8 16.5146C12.4183 16.5146 16 12.9329 16 8.51465C15.9952 4.09834 12.4163 0.51943 8 0.514648ZM10.6667 10.2393C10.9376 10.4886 10.9551 10.9104 10.7057 11.1813C10.4564 11.4522 10.0346 11.4697 9.76372 11.2203C9.75016 11.2079 9.73716 11.1948 9.72466 11.1813L8 9.45731L6.276 11.1813C6.01116 11.437 5.58913 11.4297 5.33334 11.1649C5.08384 10.9065 5.08384 10.497 5.33334 10.2386L7.05734 8.51465L5.33334 6.79065C5.07756 6.52581 5.08491 6.10378 5.34975 5.84799C5.60809 5.59849 6.01766 5.59849 6.276 5.84799L8 7.57199L9.72466 5.84799C9.974 5.57709 10.3958 5.55959 10.6667 5.80893C10.9376 6.05828 10.9551 6.48003 10.7057 6.75093C10.6933 6.76449 10.6802 6.77749 10.6667 6.78999L8.94266 8.51465L10.6667 10.2393Z" fill="#564B5D"/>
</svg>
