<svg width="42" height="12" viewBox="0 0 42 12" fill="none" xmlns="http://www.w3.org/2000/svg">
<path d="M6.64784 10.4826C5.47597 10.4826 4.456 10.283 3.58795 9.88363C2.71989 9.48432 2.04715 8.91791 1.56972 8.18441C1.09229 7.44656 0.853577 6.5785 0.853577 5.58024V5.56722C0.853577 4.56895 1.09229 3.70307 1.56972 2.96956C2.04715 2.23606 2.71989 1.66965 3.58795 1.27034C4.46034 0.871039 5.48031 0.671387 6.64784 0.671387C7.82406 0.671387 8.8462 0.871039 9.71425 1.27034C10.5823 1.66965 11.2551 2.23606 11.7325 2.96956C12.2099 3.70307 12.4487 4.56895 12.4487 5.56722V5.58024C12.4487 6.5785 12.2099 7.44439 11.7325 8.1779C11.2551 8.9114 10.5823 9.47998 9.71425 9.88363C8.8462 10.283 7.82406 10.4826 6.64784 10.4826ZM6.64784 8.76383C7.38135 8.76383 8.0172 8.63363 8.5554 8.37321C9.09793 8.11279 9.51677 7.74387 9.81191 7.26644C10.1114 6.78901 10.2611 6.22694 10.2611 5.58024V5.56722C10.2611 4.92052 10.1114 4.36062 9.81191 3.88753C9.51677 3.4101 9.09793 3.04118 8.5554 2.78076C8.0172 2.52034 7.38135 2.39014 6.64784 2.39014C5.91868 2.39014 5.28283 2.52034 4.74029 2.78076C4.2021 3.04118 3.78326 3.4101 3.48378 3.88753C3.18864 4.36062 3.04107 4.92052 3.04107 5.56722V5.58024C3.04107 6.22694 3.18864 6.78901 3.48378 7.26644C3.77892 7.74387 4.19776 8.11279 4.74029 8.37321C5.28283 8.63363 5.91868 8.76383 6.64784 8.76383ZM9.86399 11.2053L6.37441 7.18831H8.46425L11.9539 11.2053H9.86399ZM19.5515 10.4761C18.5142 10.4761 17.6158 10.3047 16.8562 9.96175C16.101 9.61887 15.5172 9.12191 15.1049 8.47086C14.6969 7.81982 14.4929 7.02772 14.4929 6.09456V0.87972H16.6349V6.02946C16.6349 6.60672 16.7455 7.09934 16.9669 7.50732C17.1926 7.91097 17.5203 8.21913 17.95 8.4318C18.384 8.64448 18.9178 8.75081 19.5515 8.75081C20.1852 8.75081 20.7169 8.64448 21.1466 8.4318C21.5806 8.21913 21.9083 7.91097 22.1296 7.50732C22.351 7.09934 22.4617 6.60672 22.4617 6.02946V0.87972H24.6101V6.09456C24.6101 7.02338 24.4061 7.81548 23.9981 8.47086C23.5901 9.12191 23.0064 9.61887 22.2468 9.96175C21.4916 10.3047 20.5932 10.4761 19.5515 10.4761ZM27.0776 10.2743V0.87972H29.226V10.2743H27.0776ZM31.433 10.2743V8.91357L37.67 2.63102V2.56592H31.5567V0.87972H40.6322V2.2404L34.4083 8.52295V8.58805H40.782V10.2743H31.433Z" fill="white" fill-opacity="0.4"/>
</svg>
