<svg width="42" height="12" viewBox="0 0 42 12" fill="none" xmlns="http://www.w3.org/2000/svg">
<path d="M7.0663 10.2264C5.89443 10.2264 4.87446 10.0268 4.00641 9.62753C3.13835 9.22822 2.46561 8.66181 1.98818 7.92831C1.51075 7.19046 1.27203 6.3224 1.27203 5.32414V5.31112C1.27203 4.31285 1.51075 3.44697 1.98818 2.71346C2.46561 1.97996 3.13835 1.41355 4.00641 1.01424C4.8788 0.614935 5.89877 0.415283 7.0663 0.415283C8.24252 0.415283 9.26466 0.614935 10.1327 1.01424C11.0007 1.41355 11.6735 1.97996 12.1509 2.71346C12.6283 3.44697 12.8671 4.31285 12.8671 5.31112V5.32414C12.8671 6.3224 12.6283 7.18829 12.1509 7.9218C11.6735 8.6553 11.0007 9.22388 10.1327 9.62753C9.26466 10.0268 8.24252 10.2264 7.0663 10.2264ZM7.0663 8.50773C7.79981 8.50773 8.43566 8.37753 8.97386 8.11711C9.51639 7.85669 9.93523 7.48777 10.2304 7.01034C10.5298 6.53291 10.6796 5.97084 10.6796 5.32414V5.31112C10.6796 4.66442 10.5298 4.10452 10.2304 3.63143C9.93523 3.154 9.51639 2.78508 8.97386 2.52466C8.43566 2.26424 7.79981 2.13404 7.0663 2.13404C6.33714 2.13404 5.70129 2.26424 5.15875 2.52466C4.62056 2.78508 4.20172 3.154 3.90224 3.63143C3.6071 4.10452 3.45953 4.66442 3.45953 5.31112V5.32414C3.45953 5.97084 3.6071 6.53291 3.90224 7.01034C4.19738 7.48777 4.61622 7.85669 5.15875 8.11711C5.70129 8.37753 6.33714 8.50773 7.0663 8.50773ZM10.2824 10.9491L6.79287 6.93221H8.88271L12.3723 10.9491H10.2824ZM19.9699 10.2199C18.9326 10.2199 18.0342 10.0485 17.2746 9.70565C16.5194 9.36277 15.9356 8.86581 15.5233 8.21476C15.1153 7.56372 14.9113 6.77162 14.9113 5.83846V0.623616H17.0533V5.77336C17.0533 6.35062 17.1639 6.84324 17.3853 7.25122C17.611 7.65487 17.9387 7.96303 18.3684 8.1757C18.8024 8.38838 19.3362 8.49471 19.9699 8.49471C20.6036 8.49471 21.1353 8.38838 21.565 8.1757C21.999 7.96303 22.3267 7.65487 22.548 7.25122C22.7694 6.84324 22.8801 6.35062 22.8801 5.77336V0.623616H25.0285V5.83846C25.0285 6.76728 24.8245 7.55938 24.4165 8.21476C24.0085 8.86581 23.4248 9.36277 22.6652 9.70565C21.91 10.0485 21.0116 10.2199 19.9699 10.2199ZM27.496 10.0181V0.623616H29.6444V10.0181H27.496ZM31.8514 10.0181V8.65747L38.0884 2.37492V2.30982H31.9751V0.623616H41.0506V1.9843L34.8267 8.26685V8.33195H41.2004V10.0181H31.8514Z" fill="white" fill-opacity="0.4"/>
</svg>
