<svg width="42" height="12" viewBox="0 0 42 12" fill="none" xmlns="http://www.w3.org/2000/svg">
<path d="M6.49129 10.8566C5.31942 10.8566 4.29945 10.657 3.4314 10.2577C2.56334 9.85834 1.8906 9.29193 1.41317 8.55843C0.935736 7.82058 0.697021 6.95252 0.697021 5.95426V5.94124C0.697021 4.94297 0.935736 4.07709 1.41317 3.34358C1.8906 2.61008 2.56334 2.04367 3.4314 1.64437C4.30379 1.24506 5.32376 1.04541 6.49129 1.04541C7.66751 1.04541 8.68965 1.24506 9.5577 1.64437C10.4257 2.04367 11.0985 2.61008 11.5759 3.34358C12.0533 4.07709 12.2921 4.94297 12.2921 5.94124V5.95426C12.2921 6.95252 12.0533 7.81841 11.5759 8.55192C11.0985 9.28542 10.4257 9.854 9.5577 10.2577C8.68965 10.657 7.66751 10.8566 6.49129 10.8566ZM6.49129 9.13785C7.2248 9.13785 7.86065 9.00765 8.39885 8.74723C8.94138 8.48681 9.36022 8.11789 9.65536 7.64046C9.95484 7.16303 10.1046 6.60096 10.1046 5.95426V5.94124C10.1046 5.29454 9.95484 4.73464 9.65536 4.26155C9.36022 3.78412 8.94138 3.4152 8.39885 3.15478C7.86065 2.89436 7.2248 2.76416 6.49129 2.76416C5.76213 2.76416 5.12628 2.89436 4.58374 3.15478C4.04555 3.4152 3.62671 3.78412 3.32723 4.26155C3.03209 4.73464 2.88452 5.29454 2.88452 5.94124V5.95426C2.88452 6.60096 3.03209 7.16303 3.32723 7.64046C3.62237 8.11789 4.04121 8.48681 4.58374 8.74723C5.12628 9.00765 5.76213 9.13785 6.49129 9.13785ZM9.70744 11.5793L6.21786 7.56233H8.3077L11.7973 11.5793H9.70744ZM19.3949 10.8501C18.3576 10.8501 17.4592 10.6787 16.6996 10.3358C15.9444 9.99289 15.3606 9.49593 14.9483 8.84488C14.5403 8.19384 14.3363 7.40174 14.3363 6.46858V1.25374H16.4783V6.40348C16.4783 6.98074 16.5889 7.47336 16.8103 7.88134C17.036 8.28499 17.3637 8.59315 17.7934 8.80582C18.2274 9.0185 18.7612 9.12483 19.3949 9.12483C20.0286 9.12483 20.5603 9.0185 20.99 8.80582C21.424 8.59315 21.7517 8.28499 21.973 7.88134C22.1944 7.47336 22.3051 6.98074 22.3051 6.40348V1.25374H24.4535V6.46858C24.4535 7.3974 24.2495 8.1895 23.8415 8.84488C23.4335 9.49593 22.8498 9.99289 22.0902 10.3358C21.335 10.6787 20.4366 10.8501 19.3949 10.8501ZM26.921 10.6483V1.25374H29.0694V10.6483H26.921ZM31.2764 10.6483V9.28759L37.5134 3.00504V2.93994H31.4001V1.25374H40.4756V2.61442L34.2517 8.89697V8.96207H40.6254V10.6483H31.2764Z" fill="white" fill-opacity="0.4"/>
</svg>
