<svg width="16" height="18" viewBox="0 0 16 18" fill="none" xmlns="http://www.w3.org/2000/svg">
<mask id="mask0_1_620" style="mask-type:luminance" maskUnits="userSpaceOnUse" x="0" y="1" width="16" height="17">
<path d="M16 1.46655H0V17.4666H16V1.46655Z" fill="white"/>
</mask>
<g mask="url(#mask0_1_620)">
<path d="M6.01351 9.13345L7.34684 10.4668L10.3469 7.46679M13.3469 9.46679C13.3469 12.7391 9.77756 15.1191 8.47884 15.8767C8.33124 15.9628 8.25744 16.0059 8.1533 16.0282C8.07247 16.0455 7.95455 16.0455 7.87372 16.0282C7.76957 16.0059 7.69578 15.9628 7.54818 15.8767C6.24948 15.1191 2.68018 12.7391 2.68018 9.46679V6.27852C2.68018 5.74551 2.68018 5.47901 2.76735 5.24992C2.84436 5.04755 2.9695 4.86697 3.13195 4.72381C3.31584 4.56174 3.56537 4.46817 4.06445 4.28102L7.63898 2.94057C7.77757 2.88859 7.84687 2.86261 7.91816 2.85231C7.9814 2.84317 8.04562 2.84317 8.10885 2.85231C8.18014 2.86261 8.24944 2.88859 8.38804 2.94057L11.9626 4.28102C12.4617 4.46817 12.7112 4.56174 12.8951 4.72381C13.0576 4.86697 13.1827 5.04755 13.2597 5.24992C13.3469 5.47901 13.3469 5.74551 13.3469 6.27852V9.46679Z" stroke="#03BF5A" stroke-width="1.5" stroke-linecap="round" stroke-linejoin="round"/>
</g>
</svg>
