<svg width="139" height="25" viewBox="0 0 139 25" fill="none" xmlns="http://www.w3.org/2000/svg">
<mask id="mask0_1_240" style="mask-type:luminance" maskUnits="userSpaceOnUse" x="0" y="1" width="139" height="24">
<path d="M138.658 1.2334H0.556641V24.2334H138.658V1.2334Z" fill="white"/>
</mask>
<g mask="url(#mask0_1_240)">
<g opacity="0.4">
<path fill-rule="evenodd" clip-rule="evenodd" d="M19.1152 23.0858H12.5573V12.6806C12.5573 11.5886 11.7733 10.8885 10.8549 10.8885C9.95885 10.8885 8.87802 11.6166 8.87802 12.6806V23.0858H2.99219V6.50923L1.09375 5.16517C3.26659 4.43716 6.90114 2.86914 8.87802 1.77148V10.463C9.66763 9.48295 11.5885 8.22288 14.0246 8.22288C17.1159 8.22288 18.4431 10.2669 18.4431 12.7086V21.4897C18.4431 21.7587 18.6671 22.285 19.1152 23.0858ZM86.7039 23.0858H80.146V12.6806C80.146 11.5886 79.3621 10.8885 78.4436 10.8885C77.5476 10.8885 76.4667 11.6166 76.4667 12.6806V23.0858H70.5809V6.50923L68.6825 5.16517C70.8553 4.43716 74.4899 2.86914 76.4667 1.77148V10.463C77.2508 9.48295 79.1716 8.22288 81.6133 8.22288C84.7046 8.22288 86.0319 10.2669 86.0319 12.7086V21.4897C86.0319 21.7587 86.2558 22.285 86.7039 23.0858ZM33.4517 20.6105V21.6465C32.1468 22.7722 30.7019 23.6962 27.605 23.6962C22.7105 23.6962 19.72 20.4145 19.72 16.3712C19.72 11.5494 22.7945 8.26213 27.3026 8.26213C31.766 8.26213 33.4517 11.3198 33.4517 15.1671H25.2978C25.6505 19.5969 28.1203 21.6185 30.3771 21.6185C31.4636 21.6185 32.69 21.2544 33.4517 20.6105ZM27.0282 14.2935C28.3387 14.2935 28.4899 13.9184 28.4899 12.8207C28.4899 11.9806 28.3387 9.90856 27.0282 9.90856C25.7178 9.90856 25.5666 11.9806 25.5666 12.8207C25.5666 13.9183 25.7177 14.2935 27.0282 14.2935ZM138.119 20.6049V21.641C136.814 22.7666 135.37 23.6906 132.273 23.6906C127.378 23.6906 124.388 20.4089 124.388 16.3712C124.388 11.5438 127.462 8.26213 131.976 8.26213C136.434 8.26213 138.119 11.3198 138.119 15.1615H129.965C130.318 19.5969 132.788 21.6129 135.045 21.6129C136.131 21.6129 137.358 21.2488 138.119 20.6049ZM131.696 14.2879C133.006 14.2879 133.157 13.9185 133.157 12.8207C133.157 11.9806 133.006 9.90292 131.696 9.90292C130.385 9.90292 130.234 11.9806 130.234 12.8207C130.234 13.9183 130.385 14.2879 131.696 14.2879ZM50.0786 20.4817L50.7338 20.6215C50.4372 21.8256 49.569 23.696 46.7745 23.696C44.4448 23.696 43.7896 22.2624 43.3024 20.7503C42.8936 22.1504 41.2975 23.696 38.2622 23.696C35.5517 23.696 34.0621 22.4919 34.0621 20.2183C34.0621 17.6926 36.5262 15.8389 42.6808 14.0132V11.3532C42.6808 9.97559 41.9471 9.49954 41.1351 9.49954C40.4015 9.49954 39.2366 10.2836 39.2366 11.5212C39.2366 12.1092 39.3484 12.5572 39.4272 13.1453C39.4272 13.9013 38.5592 15.0549 37.2319 15.0549C35.7703 15.0549 35.0646 13.9908 35.0646 12.7532C35.0646 10.7315 36.9351 8.26189 41.8409 8.26189C46.9371 8.26189 48.5611 10.9555 48.5611 13.5372V20.3863C48.5611 20.8063 48.729 21.2264 49.1884 21.2264C49.5915 21.2264 49.8714 20.9969 50.0786 20.4817ZM42.7088 19.9665V14.8815C40.6479 15.7159 39.9367 17.788 39.9367 19.3785C39.9367 20.6609 40.3341 21.2489 41.2863 21.2489C42.1152 21.2489 42.7088 20.7169 42.7088 19.9665ZM58.5069 23.0858H51.7419V6.50923L49.9386 5.16517C51.9995 4.43716 55.7852 2.86914 57.6669 1.77148V21.4897C57.6669 21.7417 57.9469 22.2738 58.5069 23.0858ZM95.6026 23.0858H88.832V6.50923L87.0287 5.16517C89.0896 4.43716 92.8809 2.86914 94.7626 1.77148V21.4897C94.7626 21.7417 95.0425 22.2738 95.6026 23.0858ZM68.66 21.3666V22.4026C67.6744 23.2482 66.0392 23.6962 64.2751 23.6962C61.363 23.6962 60.3549 21.5345 60.3549 19.7089V9.95891H58.9493L66.3248 3.48513V8.82208H68.66V9.95891H66.3248V20.5265C66.3248 21.3666 66.8176 21.7585 67.4112 21.7585C67.7753 21.7585 68.4249 21.5909 68.66 21.3666ZM101.231 8.03251C99.5563 8.03251 98.2179 6.6436 98.2179 4.90193C98.2179 3.16027 99.5563 1.77148 101.231 1.77148C102.905 1.77148 104.238 3.16027 104.238 4.90193C104.238 6.6436 102.905 8.03251 101.231 8.03251ZM105.19 23.0858H98.2795V12.647L96.381 11.2974C98.5539 10.5694 102.2 8.99573 104.182 7.89807V21.4897C104.182 21.7531 104.518 22.285 105.19 23.0858ZM123.945 23.0858H117.175V12.647C117.175 11.555 116.396 10.8494 115.472 10.8494C114.576 10.8494 113.495 11.583 113.495 12.647V23.0858H107.609V12.647L105.716 11.2974C107.884 10.5694 111.362 8.99573 113.344 7.89807V10.7653C114.318 9.4717 116.206 8.17811 118.642 8.17811C121.733 8.17811 123.06 10.2334 123.06 12.675V21.4897C123.06 21.7474 123.357 22.2794 123.945 23.0858Z" fill="white"/>
</g>
</g>
</svg>
