<svg width="32" height="21" viewBox="0 0 32 21" fill="none" xmlns="http://www.w3.org/2000/svg">
<path d="M30 0.942871H2C1.17157 0.942871 0.5 1.61444 0.5 2.44287V18.4429C0.5 19.2713 1.17157 19.9429 2 19.9429H30C30.8284 19.9429 31.5 19.2713 31.5 18.4429V2.44287C31.5 1.61444 30.8284 0.942871 30 0.942871Z" fill="white"/>
<path d="M30 0.942871H2C1.17157 0.942871 0.5 1.61444 0.5 2.44287V18.4429C0.5 19.2713 1.17157 19.9429 2 19.9429H30C30.8284 19.9429 31.5 19.2713 31.5 18.4429V2.44287C31.5 1.61444 30.8284 0.942871 30 0.942871Z" stroke="#EDEEF0"/>
<path d="M5.80878 6.84277H3.72868C3.58634 6.84277 3.46528 6.94726 3.44308 7.08924L2.60179 12.4786C2.58506 12.5849 2.66658 12.6808 2.77334 12.6808H3.76639C3.90874 12.6808 4.02979 12.5763 4.05199 12.434L4.27889 10.9804C4.30079 10.8382 4.42215 10.7337 4.56419 10.7337H5.22268C6.59289 10.7337 7.38369 10.0637 7.59021 8.73611C7.68328 8.15529 7.59416 7.69894 7.32498 7.37934C7.02935 7.02839 6.50499 6.84277 5.80878 6.84277ZM6.04876 8.81109C5.93501 9.56523 5.36472 9.56523 4.81329 9.56523H4.4994L4.71961 8.15683C4.73269 8.0717 4.80569 8.00901 4.89085 8.00901H5.03471C5.41034 8.00901 5.76468 8.00901 5.94778 8.22536C6.05697 8.35443 6.09043 8.54619 6.04876 8.81109Z" fill="#253B80"/>
<path d="M12.0258 8.78703H11.0297C10.9448 8.78703 10.8715 8.84973 10.8584 8.93485L10.8143 9.21635L10.7447 9.11432C10.529 8.7981 10.0482 8.69238 9.56822 8.69238C8.46749 8.69238 7.52735 9.53472 7.34425 10.7164C7.24905 11.3058 7.3844 11.8694 7.71532 12.2624C8.01886 12.6238 8.45319 12.7744 8.96995 12.7744C9.85686 12.7744 10.3487 12.1982 10.3487 12.1982L10.3043 12.4779C10.2875 12.5848 10.3691 12.6807 10.4752 12.6807H11.3725C11.5151 12.6807 11.6355 12.5762 11.6581 12.4339L12.1964 8.98924C12.2134 8.88322 12.1322 8.78703 12.0258 8.78703ZM10.6373 10.7459C10.5412 11.3208 10.0895 11.7068 9.51347 11.7068C9.22422 11.7068 8.99306 11.6131 8.84464 11.4355C8.69743 11.2591 8.64146 11.008 8.6883 10.7284C8.77803 10.1583 9.2373 9.75967 9.80455 9.75967C10.0874 9.75967 10.3173 9.85463 10.4688 10.0338C10.6206 10.2148 10.6808 10.4675 10.6373 10.7459Z" fill="#253B80"/>
<path d="M17.3304 8.78711H16.3294C16.2339 8.78711 16.1442 8.83505 16.0901 8.91526L14.7095 10.9699L14.1243 8.99547C14.0875 8.87193 13.9747 8.78711 13.8469 8.78711H12.8633C12.7438 8.78711 12.6607 8.90512 12.6988 9.01882L13.8013 12.2879L12.7648 13.7664C12.6833 13.8829 12.7654 14.043 12.9062 14.043H13.906C14.0008 14.043 14.0897 13.9963 14.1435 13.9176L17.4728 9.06215C17.5524 8.94599 17.4706 8.78711 17.3304 8.78711Z" fill="#253B80"/>
<path d="M20.6447 6.84277H18.5643C18.4223 6.84277 18.3012 6.94726 18.279 7.08924L17.4377 12.4786C17.421 12.5849 17.5025 12.6808 17.6087 12.6808H18.6762C18.7754 12.6808 18.8603 12.6076 18.8758 12.5081L19.1145 10.9804C19.1364 10.8382 19.2578 10.7337 19.3998 10.7337H20.058C21.4285 10.7337 22.219 10.0637 22.4258 8.73611C22.5192 8.15529 22.4295 7.69894 22.1603 7.37934C21.865 7.02839 21.3409 6.84277 20.6447 6.84277ZM20.8847 8.81109C20.7712 9.56523 20.201 9.56523 19.6492 9.56523H19.3356L19.5562 8.15683C19.5692 8.0717 19.6416 8.00901 19.7271 8.00901H19.871C20.2463 8.00901 20.6009 8.00901 20.784 8.22536C20.8932 8.35443 20.9264 8.54619 20.8847 8.81109Z" fill="#179BD7"/>
<path d="M26.8643 8.78703H25.8688C25.7834 8.78703 25.7107 8.84973 25.6979 8.93485L25.6538 9.21635L25.5838 9.11432C25.3682 8.7981 24.8876 8.69238 24.4077 8.69238C23.3069 8.69238 22.3671 9.53472 22.184 10.7164C22.0891 11.3058 22.2239 11.8694 22.5548 12.2624C22.8589 12.6238 23.2926 12.7744 23.8094 12.7744C24.6963 12.7744 25.1881 12.1982 25.1881 12.1982L25.1437 12.4779C25.127 12.5848 25.2085 12.6807 25.3153 12.6807H26.2122C26.3543 12.6807 26.4753 12.5762 26.4975 12.4339L27.0362 8.98924C27.0526 8.88322 26.9711 8.78703 26.8643 8.78703ZM25.4759 10.7459C25.3804 11.3208 24.9281 11.7068 24.352 11.7068C24.0634 11.7068 23.8316 11.6131 23.6832 11.4355C23.536 11.2591 23.4806 11.008 23.5268 10.7284C23.6172 10.1583 24.0758 9.75967 24.6431 9.75967C24.926 9.75967 25.1559 9.85463 25.3074 10.0338C25.4597 10.2148 25.52 10.4675 25.4759 10.7459Z" fill="#179BD7"/>
<path d="M28.0376 6.9909L27.1838 12.4789C27.1671 12.5852 27.2486 12.6811 27.3548 12.6811H28.2131C28.3557 12.6811 28.4768 12.5766 28.4987 12.4343L29.3406 7.04529C29.3573 6.93896 29.2758 6.84277 29.1696 6.84277H28.2085C28.1237 6.84308 28.0507 6.90577 28.0376 6.9909Z" fill="#179BD7"/>
</svg>
