<svg width="108" height="23" viewBox="0 0 108 23" fill="none" xmlns="http://www.w3.org/2000/svg">
<mask id="mask0_1_232" style="mask-type:luminance" maskUnits="userSpaceOnUse" x="0" y="0" width="108" height="23">
<path d="M107.557 0.717773H0.342773V22.7178H107.557V0.717773Z" fill="white"/>
</mask>
<g mask="url(#mask0_1_232)">
<g opacity="0.6">
<path d="M11.0622 22.4333L12.9905 3.2902C13.0621 2.28996 13.276 2.14722 13.6331 2.14722H13.8475V1.07689H10.7051V2.14722H10.9194C11.3482 2.14722 11.562 2.43271 11.4909 3.2902L10.3474 14.7189L9.0617 3.2902C8.91896 2.36159 9.13333 2.14722 9.63319 2.14722H9.70482V1.07689H5.3478V2.14722H5.56217C5.99091 2.14722 5.99091 2.28996 6.06203 3.2902L6.42017 6.21875L5.3478 15.5048L4.20482 3.2902C4.06207 2.28996 4.27645 2.14722 4.70468 2.14722H4.77631V1.07689H0.347656V2.14722H0.562028C1.06189 2.14722 1.06189 2.28996 1.13352 3.2902L3.13347 22.4333H5.9904L7.13338 12.5762L8.20473 22.4333H11.0622ZM29.4905 9.86154C29.4905 8.5042 29.4905 8.07596 30.3475 8.07596C30.919 8.07596 30.919 8.29034 30.919 9.43331V20.8615C30.919 21.2903 30.7762 21.3614 30.5608 21.3614H30.4181V22.4328H34.7751V21.3614H34.5607C34.2752 21.3614 34.2026 21.2187 34.2026 20.7899V8.7902C34.2026 6.79024 33.7738 6.07601 31.8455 6.07601C31.3218 6.01909 30.7945 6.14422 30.3522 6.43036C29.9099 6.7165 29.5796 7.1462 29.4168 7.64722C29.2024 6.57587 28.631 6.07601 27.1309 6.07601C25.9168 6.07601 25.2737 6.43415 24.7738 7.64722V6.07601L20.9877 6.3615V7.43285H21.1305C21.3449 7.43285 21.5592 7.64722 21.5592 8.21871V20.7188C21.5592 21.2187 21.4165 21.3614 21.1305 21.3614H20.9877V22.4328H25.202V21.3614H25.0593C24.8449 21.3614 24.7738 21.2898 24.7738 20.9327V9.86154C24.7738 8.5042 24.7738 8.07596 25.5597 8.07596C26.1311 8.07596 26.1311 8.29034 26.1311 9.43331V20.8615C26.1311 21.2903 25.9884 21.3614 25.773 21.3614H25.5586V22.4328H29.8445V21.3614H29.7729C29.4874 21.3614 29.3442 21.2187 29.3442 20.7899V9.86154H29.4905ZM59.6336 22.4328H64.9192V21.3614H64.5611C64.1323 21.3614 63.9896 21.147 63.9896 20.2184V11.9331H66.7754V20.1473C66.7754 21.0759 66.6326 21.2903 66.2039 21.2903H65.7751V22.3606H70.9897V21.2903H70.5609C70.1322 21.2903 69.9894 21.0759 69.9894 20.1473V3.2902C69.9894 2.28996 70.0611 2.14722 70.5609 2.14722H70.9897V1.07689H65.7762V2.14722H66.2049C66.6337 2.14722 66.7764 2.28996 66.7764 3.2902V10.7185H63.9195V3.2902C63.9195 2.28996 64.0622 2.14722 64.5621 2.14722H64.9202V1.07689H59.6336V2.14722H60.0623C60.4911 2.14722 60.6338 2.28996 60.6338 3.2902V20.7188C60.6338 21.1475 60.4911 21.2903 60.0623 21.2903H59.6336V22.4328ZM98.4191 22.4328H102.563V21.3614H102.417C102.132 21.3614 102.132 21.2898 102.132 20.9327V9.86154C102.132 8.5042 102.132 8.07596 102.989 8.07596C103.632 8.07596 103.632 8.29034 103.632 9.43331V20.8615C103.632 21.2903 103.489 21.3614 103.346 21.3614H103.134V22.4328H107.562V21.3614H107.348C107.062 21.3614 106.99 21.2187 106.99 20.7899V8.7902C106.99 6.79024 106.49 6.07601 104.561 6.07601C103.275 6.07601 102.561 6.43415 102.061 7.64722V0.71875L98.0614 1.07689V2.14722H98.4902C98.7757 2.14722 98.9189 2.28996 98.9189 2.93308V20.7188C98.9189 21.2187 98.8473 21.3614 98.4902 21.3614H98.3474V22.4328H98.4191ZM16.776 22.6471C20.2761 22.6471 20.7759 19.7186 20.7759 14.3613C20.7759 9.00406 20.2761 6.0755 16.776 6.0755C13.276 6.0755 12.7761 8.93243 12.7761 14.3613C12.7761 19.7186 13.276 22.6471 16.776 22.6471ZM42.7759 22.4328H46.9902V21.3614H46.7758C46.5615 21.3614 46.5615 21.2898 46.5615 20.9327V9.86154C46.5615 8.5042 46.5615 8.07596 47.4184 8.07596C47.9899 8.07596 48.0616 8.29034 48.0616 9.43331V20.8615C48.0616 21.2903 47.9188 21.3614 47.7034 21.3614H47.4891V22.4328H51.9198V21.3614H51.777C51.4915 21.3614 51.4189 21.2187 51.4189 20.7899V8.7902C51.4189 6.79024 50.9901 6.07601 48.9902 6.07601C47.7761 6.07601 46.9902 6.43415 46.5615 7.64722V6.07601L42.4899 6.3615V7.43285H42.9187C43.1331 7.43285 43.3474 7.64722 43.3474 8.21871V20.7188C43.3474 21.2187 43.2047 21.3614 42.9187 21.3614H42.7759V22.4328ZM80.9193 22.7188C82.3478 22.7188 82.9193 22.0025 83.2053 21.1475C83.4908 22.4333 83.7768 22.7188 85.4196 22.7188C87.3479 22.7188 87.5623 21.5758 87.5623 19.3615H86.6337C86.6337 21.0043 86.6337 21.147 86.2756 21.147C85.9901 21.147 85.9901 21.0043 85.9901 20.0757V9.43382C85.9901 7.29113 85.2738 6.14815 82.776 6.14815C80.7761 6.14815 78.8472 6.71964 78.9189 8.93396C78.9905 9.9342 79.3476 10.9339 80.419 10.8623C81.3476 10.7907 81.7763 10.2908 81.7763 9.50494C81.7368 9.12793 81.6216 8.76278 81.4375 8.43142C81.2534 8.10005 81.0042 7.8093 80.705 7.57661C81.1081 7.39636 81.5508 7.32255 81.9907 7.36224C82.707 7.36224 82.8477 7.93373 82.8477 8.93345V11.9336C79.2049 13.1477 78.4906 13.6481 78.4906 18.2195C78.4906 21.4335 79.3476 22.7218 80.9193 22.7218V22.7188ZM74.7051 22.7188C77.4193 22.7188 78.0624 21.9329 77.9192 17.4331H76.7762C76.7762 21.0048 76.6334 21.2192 75.4188 21.2192C73.9187 21.2192 73.9187 20.5766 73.9187 14.5051V14.0052H78.2757C78.2757 7.86261 77.5595 6.14815 74.7041 6.14815C72.061 6.14815 70.7042 7.79099 70.7042 14.5051C70.7047 20.9332 71.7765 22.7188 74.7051 22.7188ZM38.9909 22.6471C41.634 22.6471 42.3482 21.8613 42.2766 17.3615H41.1336C41.1336 20.9332 40.9909 21.1475 39.7051 21.1475C38.0623 21.1475 38.2051 20.5049 38.2051 14.4335V13.9336H42.4193C42.4193 7.79099 41.8478 6.07652 38.9914 6.07652C36.3484 6.07652 34.9915 7.71936 34.9915 14.4335C34.9915 20.9311 36.0624 22.6471 38.9909 22.6471ZM87.7767 22.4328H92.1337V21.3614H91.7756C91.4901 21.3614 91.4174 21.2187 91.4174 20.7899V0.71875L87.3459 1.07689V2.14722H87.7746C88.0601 2.14722 88.1328 2.28996 88.1328 2.71871V20.8615C88.1328 21.2903 88.1328 21.3614 87.9184 21.3614H87.704V22.4328H87.7767ZM56.4911 22.6471C58.4911 22.6471 59.4913 21.3614 59.4913 19.3615C59.4913 14.7184 55.3471 12.0759 55.3471 8.7902C55.3471 7.78996 55.7053 7.50447 56.4185 7.50447C57.4898 7.50447 57.6326 7.93322 57.7758 9.50443L57.9186 11.0045H59.1337V6.21875H58.2051C58.1335 6.79024 57.9907 7.00461 57.9907 6.93503C57.707 6.6386 57.3616 6.40817 56.979 6.26007C56.5963 6.11198 56.1857 6.04984 55.7764 6.07806C54.0619 6.07806 52.4907 6.86392 52.4907 9.43536C52.4907 13.5069 56.6349 16.5782 56.6349 19.6495C56.6349 21.0068 56.3494 21.2207 55.3492 21.2207C54.4206 21.2207 54.1351 20.792 53.9918 18.792L53.9202 17.4347H52.6345V22.4348H53.7058C53.7775 21.8633 53.9913 21.5062 54.1346 21.7185C54.4927 22.0767 54.9199 22.6471 56.4911 22.6471ZM92.85 19.076C92.85 21.6474 93.2081 22.6476 95.7785 22.6476C97.5641 22.6476 97.9929 21.9314 97.9929 19.9335V17.2188H96.9215V20.0757C96.9215 21.0043 96.8499 21.147 96.4928 21.147C96.1357 21.147 96.064 21.0043 96.064 20.2184V7.43285H98.064V6.21875H96.064V2.14722H94.9211C94.1352 5.79001 93.421 6.21875 92.3496 6.21875H92.0641V7.43285H92.7804V19.076H92.85ZM16.776 21.2187C15.9902 21.2187 15.9902 20.7899 15.9902 14.3628C15.9902 7.86517 15.9902 7.43438 16.776 7.43438C17.4923 7.43438 17.4923 7.86313 17.4923 14.2902C17.4923 20.7879 17.4923 21.2187 16.776 21.2187ZM52.1331 6.93299C54.8473 4.93303 55.4188 3.36131 54.4902 2.00447C54.0619 1.21861 52.919 0.71875 52.1336 1.43503C51.1334 2.22089 51.4173 3.64936 53.205 4.5048C52.8468 4.86294 52.1336 5.64778 51.4905 6.21927L52.1331 6.93299ZM82.2762 20.6472C81.633 20.6472 81.6331 19.9309 81.6331 17.7902C81.6331 13.8615 81.6331 13.3616 82.9188 12.6474V19.3615C82.9188 20.4328 82.776 20.6472 82.2762 20.6472ZM38.2045 12.7169C38.2762 7.64568 38.3473 7.35968 39.0615 7.35968C39.7757 7.35968 39.7041 7.64517 39.7041 12.7169H38.2045ZM73.9187 12.7169C73.9904 7.64568 74.0615 7.35968 74.7757 7.35968C75.4899 7.35968 75.3472 7.64517 75.3472 12.7169H73.9187Z" fill="white"/>
</g>
</g>
</svg>
