<svg width="24" height="25" viewBox="0 0 24 25" fill="none" xmlns="http://www.w3.org/2000/svg">
<mask id="mask0_1_263" style="mask-type:luminance" maskUnits="userSpaceOnUse" x="0" y="0" width="24" height="25">
<path d="M24 0.757812H0V24.7578H24V0.757812Z" fill="white"/>
</mask>
<g mask="url(#mask0_1_263)">
<path d="M12 0.757812C5.3748 0.757812 0 6.12583 0 12.7515C0 19.3835 5.3748 24.7578 12 24.7578C18.6288 24.7578 23.9991 19.3834 23.9991 12.7515C23.9991 6.12583 18.6288 0.757812 12 0.757812ZM12.8551 19.4286C12.5764 19.6766 12.2534 19.8013 11.8875 19.8013C11.509 19.8013 11.1788 19.6789 10.8969 19.4336C10.6146 19.1887 10.4731 18.8459 10.4731 18.4054C10.4731 18.0146 10.61 17.6858 10.8829 17.4192C11.1557 17.1527 11.4905 17.0194 11.8875 17.0194C12.2783 17.0194 12.6072 17.1527 12.8742 17.4192C13.1407 17.6858 13.2744 18.0146 13.2744 18.4054C13.2739 18.8395 13.1343 19.1806 12.8551 19.4286ZM16.3304 10.8131C16.1162 11.2101 15.8619 11.5525 15.5669 11.8412C15.2728 12.1299 14.7439 12.6151 13.9804 13.2972C13.7699 13.4896 13.6005 13.6586 13.4736 13.804C13.3466 13.95 13.2518 14.0832 13.1899 14.2043C13.1275 14.3253 13.0797 14.4464 13.0458 14.5674C13.0119 14.688 12.9609 14.9008 12.8917 15.2048C12.7743 15.8499 12.4052 16.1724 11.785 16.1724C11.4624 16.1724 11.1914 16.0672 10.9705 15.8562C10.7504 15.6452 10.6407 15.3322 10.6407 14.9166C10.6407 14.3958 10.7215 13.9444 10.8828 13.5628C11.0432 13.181 11.2578 12.8463 11.5243 12.5576C11.7913 12.269 12.1509 11.9265 12.604 11.5295C13.001 11.1821 13.2879 10.9201 13.4645 10.7434C13.6416 10.5664 13.7902 10.3694 13.9108 10.1526C14.0324 9.93528 14.092 9.69992 14.092 9.44562C14.092 8.94917 13.9082 8.53086 13.5387 8.1898C13.1696 7.84875 12.6934 7.67797 12.1102 7.67797C11.4277 7.67797 10.9253 7.85008 10.6028 8.19431C10.2802 8.53853 10.0079 9.04537 9.78423 9.71532C9.57282 10.4164 9.17258 10.7669 8.58394 10.7669C8.23654 10.7669 7.94339 10.6445 7.70442 10.3997C7.4659 10.1548 7.34663 9.88965 7.34663 9.60417C7.34663 9.01508 7.53592 8.41788 7.91404 7.81301C8.29262 7.20814 8.84464 6.70714 9.57055 6.31051C10.296 5.91343 11.1431 5.71464 12.1102 5.71464C13.0096 5.71464 13.8034 5.88086 14.4918 6.21292C15.1803 6.54447 15.7124 6.99579 16.0878 7.56676C16.4627 8.13729 16.6506 8.75755 16.6506 9.4275C16.6515 9.95384 16.5445 10.416 16.3304 10.8131Z" fill="#FFCD4C"/>
</g>
</svg>
