<svg width="30" height="21" viewBox="0 0 30 21" fill="none" xmlns="http://www.w3.org/2000/svg">
<path d="M26 0.810059H4C1.79086 0.810059 0 2.60092 0 4.81006V16.8101C0 19.0192 1.79086 20.8101 4 20.8101H26C28.2091 20.8101 30 19.0192 30 16.8101V4.81006C30 2.60092 28.2091 0.810059 26 0.810059Z" fill="#1F72CD"/>
<path fill-rule="evenodd" clip-rule="evenodd" d="M5.64537 7.76904L2.91797 13.8446H6.18305L6.58783 12.8759H7.51306L7.91783 13.8446H11.5118V13.1053L11.832 13.8446H13.6911L14.0113 13.0896V13.8446H21.4858L22.3946 12.9011L23.2456 13.8446L27.0846 13.8524L24.3486 10.8238L27.0846 7.76904H23.3052L22.4204 8.69514L21.5962 7.76904H13.465L12.7668 9.33719L12.0522 7.76904H8.79393V8.48322L8.43147 7.76904H5.64537ZM16.8068 8.6318H21.099L22.4117 10.0592L23.7668 8.6318H25.0796L23.085 10.823L25.0796 12.9889H23.7073L22.3945 11.5449L21.0325 12.9889H16.8068V8.6318ZM17.8668 10.3301V9.53425L20.545 9.53349L21.7136 10.8062L20.4932 12.086H17.8668V11.2172H20.2083V10.3301H17.8668ZM6.27713 8.6318H7.86868L9.67777 12.7517V8.6318H11.4213L12.8186 11.5857L14.1063 8.6318H15.8411V12.9914H14.7855L14.7769 9.57524L13.238 12.9914H12.2938L10.7462 9.57524V12.9914H8.57467L8.16299 12.0141H5.93881L5.52797 12.9906H4.36448L6.27713 8.6318ZM6.31862 11.1104L7.0514 9.3693L7.78333 11.1104H6.31862Z" fill="white"/>
</svg>
