<svg width="24" height="25" viewBox="0 0 24 25" fill="none" xmlns="http://www.w3.org/2000/svg">
<mask id="mask0_1_552" style="mask-type:luminance" maskUnits="userSpaceOnUse" x="0" y="0" width="24" height="24">
<path d="M23.52 0.670532H0.479996V23.7105H23.52V0.670532Z" fill="white"/>
</mask>
<g mask="url(#mask0_1_552)">
<path d="M18.7216 1.91553H11.5412C11.0867 1.91553 10.6502 2.09645 10.3287 2.418L0.982258 11.7627C0.312575 12.4324 0.312575 13.518 0.982258 14.1885L8.16273 21.369C8.83241 22.0387 9.91795 22.0387 10.5876 21.369L19.9341 12.0242C20.2556 11.7019 20.4366 11.2654 20.4366 10.8101V3.63047C20.4366 2.68296 19.6691 1.91553 18.7216 1.91553ZM15.7205 7.91783C15.0105 7.91783 14.4343 7.34161 14.4343 6.63162C14.4343 5.92164 15.0105 5.34542 15.7205 5.34542C16.4305 5.34542 17.0067 5.92164 17.0067 6.63162C17.0067 7.34161 16.4305 7.91783 15.7205 7.91783Z" fill="#FFCD4C"/>
<path d="M22.1515 3.62927L22.1507 11.6115C22.1507 12.0067 21.9937 12.3866 21.7134 12.6662L12.216 22.1635L12.3617 22.3093C13.0314 22.979 14.117 22.979 14.7867 22.3093L23.3631 13.7345C23.6855 13.413 23.8665 12.9765 23.8665 12.5221V5.34421C23.8665 4.39671 23.099 3.62927 22.1515 3.62927Z" fill="#FFCD4C"/>
</g>
</svg>
