<svg width="32" height="33" viewBox="0 0 32 33" fill="none" xmlns="http://www.w3.org/2000/svg">
<mask id="mask0_1_463" style="mask-type:luminance" maskUnits="userSpaceOnUse" x="0" y="0" width="32" height="33">
<path d="M32 0.799988H0V32.8H32V0.799988Z" fill="white"/>
</mask>
<g mask="url(#mask0_1_463)">
<path d="M15.7763 32.7996C15.3806 32.7998 14.9937 32.6826 14.6647 32.4628C14.3356 32.2432 14.0791 31.9308 13.9277 31.5652C13.7762 31.1996 13.7366 30.7974 13.8139 30.4092C13.8911 30.0212 14.0817 29.6648 14.3616 29.385L24.591 19.157C24.9006 18.8474 25.1462 18.4799 25.3138 18.0755C25.4814 17.671 25.5676 17.2375 25.5676 16.7996C25.5676 16.3618 25.4814 15.9283 25.3138 15.5238C25.1462 15.1194 24.9006 14.7519 24.591 14.4423L14.3616 4.21433C14.1759 4.02855 14.0285 3.80799 13.9279 3.56527C13.8274 3.32253 13.7757 3.06239 13.7757 2.79965C13.7757 2.26905 13.9864 1.76018 14.3616 1.38499C14.7368 1.00979 15.2457 0.799011 15.7763 0.799011C16.039 0.799011 16.2992 0.850759 16.5419 0.951301C16.7846 1.05184 17.0052 1.19921 17.191 1.38499L27.419 11.6143C28.7942 12.9896 29.5668 14.8548 29.5668 16.7996C29.5668 18.7445 28.7942 20.6097 27.419 21.985L17.191 32.2144C17.0052 32.4 16.7846 32.5472 16.5419 32.6478C16.2991 32.7482 16.039 32.7998 15.7763 32.7996Z" fill="#FFCD4C"/>
<path d="M3.04938 32.8002C2.6538 32.8 2.26712 32.6826 1.93827 32.4628C1.60941 32.243 1.35313 31.9306 1.20184 31.565C1.05056 31.1996 1.01106 30.7974 1.08835 30.4094C1.16564 30.0214 1.35624 29.6652 1.63605 29.3856L13.7494 17.2722C13.8115 17.2102 13.8607 17.1367 13.8943 17.0557C13.9279 16.9747 13.9452 16.8878 13.9452 16.8002C13.9452 16.7125 13.9279 16.6256 13.8943 16.5446C13.8607 16.4636 13.8115 16.3901 13.7494 16.3282L1.63605 4.21483C1.26085 3.83981 1.05 3.33111 1.04988 2.80063C1.04975 2.27015 1.26036 1.76135 1.63538 1.38616C2.0104 1.01096 2.5191 0.800113 3.04958 0.799988C3.58006 0.799863 4.08886 1.01047 4.46404 1.38549L16.5787 13.5002C17.4513 14.3765 17.9412 15.5628 17.9412 16.7995C17.9412 18.0362 17.4513 19.2225 16.5787 20.0988L4.46404 32.2148C4.27824 32.4006 4.05766 32.5478 3.81494 32.6482C3.5722 32.7486 3.31206 32.8002 3.04938 32.8002Z" fill="#FFCD4C"/>
</g>
</svg>
