<svg width="46" height="28" viewBox="0 0 46 28" fill="none" xmlns="http://www.w3.org/2000/svg">
<mask id="mask0_1_1209" style="mask-type:luminance" maskUnits="userSpaceOnUse" x="0" y="1" width="46" height="27">
<path d="M45.3105 1.25928H0.361328V27.2593H45.3105V1.25928Z" fill="white"/>
</mask>
<g mask="url(#mask0_1_1209)">
<g opacity="0.8">
<path fill-rule="evenodd" clip-rule="evenodd" d="M11.2637 5.88359C10.5586 2.53444 10.3382 2.40223 8.75179 2.3141V1.74122H15.8467V2.3141C13.9077 2.49037 13.8637 2.49037 14.5687 6.4124L16.9043 18.7955L19.6806 5.48698C20.2535 2.75478 20.0331 2.49037 18.2264 2.35816L17.6535 2.3141V1.74122H22.7213V2.3141C21.1789 2.4463 21.1789 2.84291 20.562 5.75138L16.023 27.2565H15.5823L11.7043 7.99884L7.60602 27.2565H7.16535L2.53823 4.69376C2.14162 2.71071 2.05348 2.40223 0.378906 2.3141V1.74122H7.29755V2.3141C5.53484 2.49037 5.49077 2.66664 6.19586 6.4124L8.57552 18.7073L11.2637 5.88359ZM29.7281 27.1243C27.2162 27.1243 25.7179 24.7887 25.145 24.7887C24.5281 24.7887 23.823 26.1107 23.6026 26.6836H23.0738V18.3988H23.6026C25.145 22.9378 27.6128 26.5073 29.6399 26.5073C30.8298 26.5073 31.5789 25.4056 31.5789 23.7751C31.5789 17.7819 23.206 13.9039 23.206 6.54461C23.206 3.548 25.3213 1.2124 27.6128 1.2124C29.684 1.2124 30.8298 2.88698 31.4908 2.88698C31.8433 2.88698 32.1077 2.62257 32.5484 1.56495H32.945V8.96833H32.4162C31.4467 5.39884 29.4637 1.78528 27.5247 1.78528C26.3348 1.78528 25.4535 2.88698 25.4535 4.51749C25.4535 10.2904 33.8264 13.948 33.8264 21.5717C33.8704 24.7446 31.9314 27.1243 29.7281 27.1243ZM38.4094 27.1243C35.8535 27.1243 34.8399 25.5378 34.8399 23.9954C34.8399 22.4531 35.7653 20.8666 37.1755 20.8666C38.6738 20.8666 39.2908 22.3649 38.5857 23.4226C38.0128 24.348 36.4704 24.4361 36.4704 25.1412C36.4704 26.2429 37.3959 26.5073 38.145 26.5073C40.3484 26.5073 40.2162 25.1412 40.2162 20.47V3.94461C40.2162 2.62257 39.9077 2.3141 38.4976 2.3141H37.9687V1.74122H45.3281V2.3141H44.7111C43.962 2.3141 43.6535 2.62257 43.6535 3.98867V20.1616C43.6535 24.7005 40.3925 27.1243 38.4094 27.1243Z" fill="white"/>
</g>
</g>
</svg>
