<svg width="32" height="21" viewBox="0 0 32 21" fill="none" xmlns="http://www.w3.org/2000/svg">
<path d="M30 1.19995H2C1.17157 1.19995 0.5 1.87152 0.5 2.69995V18.7C0.5 19.5284 1.17157 20.2 2 20.2H30C30.8284 20.2 31.5 19.5284 31.5 18.7V2.69995C31.5 1.87152 30.8284 1.19995 30 1.19995Z" fill="white"/>
<path d="M30 1.19995H2C1.17157 1.19995 0.5 1.87152 0.5 2.69995V18.7C0.5 19.5284 1.17157 20.2 2 20.2H30C30.8284 20.2 31.5 19.5284 31.5 18.7V2.69995C31.5 1.87152 30.8284 1.19995 30 1.19995Z" stroke="#EDEEF0"/>
<mask id="mask0_1_641" style="mask-type:luminance" maskUnits="userSpaceOnUse" x="5" y="6" width="22" height="10">
<path d="M27 6.69995H5V15.7H27V6.69995Z" fill="white"/>
</mask>
<g mask="url(#mask0_1_641)">
<path d="M9.02326 7.86027C8.76545 8.16427 8.35295 8.40404 7.94045 8.36979C7.88889 7.95875 8.09084 7.52202 8.32717 7.25228C8.58498 6.93972 9.03615 6.71708 9.40139 6.69995C9.44435 7.12811 9.27678 7.54771 9.02326 7.86027ZM9.39709 8.45114C8.79982 8.41689 8.2885 8.78939 8.0049 8.78939C7.71701 8.78939 7.28303 8.46827 6.81037 8.47683C6.19592 8.48539 5.62443 8.83221 5.31076 9.38454C4.66623 10.4892 5.14318 12.1248 5.76623 13.024C6.07131 13.4693 6.43654 13.9574 6.91779 13.9402C7.37326 13.9231 7.55373 13.6448 8.10373 13.6448C8.65803 13.6448 8.81701 13.9402 9.29826 13.9317C9.7967 13.9231 10.1104 13.4864 10.4154 13.0411C10.7635 12.5359 10.9053 12.0435 10.9139 12.0178C10.9053 12.0092 9.95139 11.6453 9.94279 10.5491C9.9342 9.63287 10.6947 9.19614 10.7291 9.17045C10.2994 8.53677 9.62912 8.46827 9.39709 8.45114ZM12.8475 7.20946V13.8846H13.8873V11.6025H15.3268C16.6416 11.6025 17.5654 10.7033 17.5654 9.40166C17.5654 8.10005 16.6588 7.20946 15.3612 7.20946H12.8475ZM13.8873 8.08292H15.0862C15.9885 8.08292 16.5041 8.56246 16.5041 9.40594C16.5041 10.2494 15.9885 10.7333 15.0819 10.7333H13.8873V8.08292ZM19.4647 13.936C20.1178 13.936 20.7236 13.6063 20.9986 13.0839H21.0201V13.8846H21.9826V10.562C21.9826 9.59862 21.2092 8.97778 20.019 8.97778C18.9147 8.97778 18.0983 9.60718 18.0682 10.4721H19.0049C19.0822 10.061 19.4647 9.79129 19.9889 9.79129C20.6248 9.79129 20.9815 10.0867 20.9815 10.6305V10.9988L19.6838 11.0758C18.4764 11.1486 17.8233 11.641 17.8233 12.4973C17.8233 13.3622 18.4979 13.936 19.4647 13.936ZM19.744 13.1439C19.1897 13.1439 18.8373 12.8784 18.8373 12.4716C18.8373 12.052 19.1768 11.808 19.8256 11.7695L20.9815 11.6967V12.0735C20.9815 12.6986 20.4487 13.1439 19.744 13.1439ZM23.2674 15.7C24.2815 15.7 24.7584 15.3147 25.1752 14.1458L27.0014 9.04201H25.9444L24.7197 12.9854H24.6983L23.4736 9.04201H22.3865L24.1483 13.9017L24.0537 14.1971C23.8947 14.6981 23.6369 14.8908 23.1772 14.8908C23.0955 14.8908 22.9365 14.8822 22.8721 14.8736V15.6743C22.9322 15.6914 23.1901 15.7 23.2674 15.7Z" fill="black"/>
</g>
</svg>
