<svg width="32" height="32" viewBox="0 0 32 32" fill="none" xmlns="http://www.w3.org/2000/svg">
<mask id="mask0_1_60" style="mask-type:luminance" maskUnits="userSpaceOnUse" x="0" y="1" width="32" height="30">
<path d="M32 1.13525H0V30.703H32V1.13525Z" fill="white"/>
</mask>
<g mask="url(#mask0_1_60)">
<path d="M13.4531 3.79411C14.7813 3.79411 16.0599 3.98682 17.2682 4.34359C17.4609 4.40088 17.6562 4.46338 17.8542 4.53109C18.0729 4.60661 18.2891 4.68734 18.5026 4.77328L17.6224 6.39046C16.3281 5.89307 14.9245 5.62224 13.4557 5.62224H13.4531C11.849 5.62224 10.3203 5.94776 8.92969 6.5363C8.70313 6.63265 8.47917 6.73421 8.26302 6.84359C7.13802 7.40609 6.11719 8.14567 5.23698 9.02588L5.23177 9.03109C4.9401 9.32276 4.66146 9.63265 4.40365 9.95557C4.14323 10.2811 3.89844 10.6197 3.67188 10.9712C2.5026 12.7837 1.82813 14.9374 1.82813 17.2473V17.2499C1.82813 18.854 2.15365 20.3827 2.74219 21.7733C2.83854 21.9999 2.9401 22.2238 3.04948 22.44C3.61198 23.5624 4.35156 24.5858 5.23438 25.466L5.23958 25.4712C5.53125 25.7629 5.84115 26.0415 6.16406 26.302C6.48958 26.5624 6.82813 26.8072 7.17969 27.0337C8.98958 28.1952 11.1432 28.8697 13.4531 28.8697H13.4557C15.0599 28.8697 16.5885 28.5441 17.9792 27.9556C18.2057 27.8592 18.4297 27.7577 18.6458 27.6483C19.7708 27.0858 20.7917 26.3462 21.6719 25.466H21.6745L21.6823 25.4582C21.974 25.1665 22.25 24.8592 22.5104 24.5363C22.7708 24.2108 23.0156 23.8723 23.2422 23.5207C24.4036 21.7134 25.0781 19.5624 25.0781 17.2551L26.9036 16.9738C26.9063 17.065 26.9063 17.1561 26.9063 17.2473V17.2499C26.9063 19.1066 26.5286 20.8775 25.849 22.4842C25.7396 22.7447 25.6198 23.0025 25.4922 23.2577C24.8411 24.5598 23.9844 25.7421 22.9661 26.7603L22.9609 26.7655C22.6224 27.104 22.263 27.427 21.8906 27.7264C21.5156 28.0285 21.1224 28.3124 20.7161 28.5728C18.6224 29.9191 16.1302 30.7004 13.4557 30.7004C11.599 30.7004 9.82813 30.3228 8.22135 29.6431C7.96094 29.5337 7.70313 29.4139 7.44792 29.2863C6.14583 28.6353 4.96354 27.7785 3.94531 26.7603L3.9401 26.7525C3.60156 26.4139 3.28125 26.0572 2.97917 25.6822C2.67708 25.3072 2.39323 24.9139 2.13281 24.5077C0.78125 22.4139 0 19.9217 0 17.2473V17.2447C0 15.3879 0.377604 13.6197 1.05729 12.0103C1.16667 11.7499 1.28646 11.4921 1.41406 11.2368C2.0651 9.93474 2.92188 8.75244 3.9401 7.73421L3.94531 7.72901C4.28385 7.39046 4.64323 7.07015 5.01563 6.76807C5.39063 6.46599 5.78385 6.18213 6.1901 5.92171C8.28646 4.57536 10.7786 3.79411 13.4531 3.79411ZM14.5521 16.6405L22.9948 1.13525L24.0859 9.93994L32 13.9478L14.5521 16.6405ZM13.4531 12.9895H13.4557C13.6432 12.9895 13.8281 13.0025 14.0078 13.0259L13.0104 14.8592C12.8359 14.8905 12.6667 14.9426 12.5078 15.0103C12.4609 15.0311 12.4141 15.052 12.3672 15.0754C12.1328 15.1926 11.9193 15.3462 11.7344 15.5311L11.7292 15.5363C11.6693 15.5962 11.6146 15.6587 11.5599 15.7238C11.5052 15.7915 11.4531 15.8618 11.4063 15.9374C11.1641 16.315 11.0234 16.7655 11.0234 17.2473V17.2499C11.0234 17.5858 11.0911 17.9035 11.2161 18.1952C11.237 18.2447 11.2578 18.2915 11.2813 18.3358C11.3984 18.5702 11.5521 18.7837 11.737 18.9686L11.7422 18.9738C11.8021 19.0337 11.8646 19.091 11.9297 19.1431C11.9974 19.1978 12.0677 19.2499 12.1432 19.2967C12.5208 19.5389 12.9714 19.6796 13.4531 19.6796C13.7891 19.6796 14.1068 19.6119 14.3984 19.4895C14.4479 19.4686 14.4922 19.4478 14.5391 19.4244C14.7734 19.3072 14.987 19.1535 15.1719 18.9686L15.1771 18.9634C15.2109 18.9296 15.2422 18.8957 15.2708 18.8645C15.2995 18.8332 15.3281 18.7967 15.3568 18.7603L17.5469 18.4217C17.5 18.5884 17.4427 18.7525 17.375 18.9087C17.3411 18.9895 17.3021 19.0728 17.263 19.1535C17.0573 19.5676 16.7865 19.94 16.4635 20.2629L16.4557 20.2681C16.349 20.3723 16.2396 20.4738 16.1224 20.5676C16.0026 20.6639 15.8802 20.7525 15.75 20.8358C15.0859 21.2603 14.2995 21.5077 13.4531 21.5077C12.8646 21.5077 12.3047 21.3879 11.7969 21.1717C11.7161 21.1379 11.6328 21.0988 11.5521 21.0598C11.138 20.854 10.7656 20.5832 10.4427 20.2603L10.4349 20.2525C10.3307 20.1483 10.2292 20.0363 10.1354 19.9191C10.0391 19.7993 9.95052 19.677 9.86719 19.5467C9.44271 18.8853 9.19531 18.0962 9.19531 17.2499V17.2473C9.19531 16.6587 9.3151 16.0988 9.53125 15.591C9.5651 15.5103 9.60417 15.427 9.64323 15.3462C9.84896 14.9348 10.1198 14.5598 10.4427 14.2395C10.5495 14.1327 10.6641 14.0311 10.7839 13.9348C10.9036 13.8384 11.026 13.7499 11.1563 13.6665C11.8177 13.2368 12.6068 12.9895 13.4531 12.9895ZM13.4531 8.35401C14.25 8.35401 15.0208 8.45817 15.7526 8.65609C15.8724 8.68734 15.9896 8.72119 16.1068 8.76026C16.1693 8.78109 16.2344 8.80192 16.2969 8.82276L15.4063 10.4608C14.7865 10.2837 14.1302 10.1873 13.4505 10.1873C12.4766 10.1873 11.5469 10.3853 10.7005 10.7421C10.5677 10.7993 10.4323 10.8618 10.2943 10.9296L10.2839 10.9348C9.60417 11.2759 8.98958 11.7238 8.45573 12.2577L8.45052 12.2629C8.27344 12.44 8.10677 12.6275 7.94792 12.8228C7.78906 13.0207 7.64063 13.2264 7.5026 13.44C6.79688 14.5389 6.38802 15.8488 6.38802 17.2525V17.2551C6.38802 18.229 6.58594 19.1587 6.94271 20.0051C7 20.1431 7.0625 20.2785 7.13021 20.4113C7.47135 21.0936 7.92188 21.7134 8.45833 22.2499C8.63802 22.4296 8.82813 22.5988 9.02344 22.7577C9.22136 22.9165 9.42708 23.065 9.64063 23.203C10.7396 23.9035 12.0495 24.3124 13.4531 24.3124H13.4557C14.4297 24.3124 15.3594 24.1145 16.2057 23.7577C16.3438 23.7004 16.4792 23.6379 16.612 23.5702C17.2943 23.229 17.9141 22.7785 18.4505 22.2421C18.6302 22.0624 18.8021 21.8723 18.9583 21.677C19.1172 21.479 19.2656 21.2733 19.4036 21.0598C19.9896 20.1483 20.3698 19.0962 20.4844 17.9634L22.3385 17.677C22.2865 18.7473 22.0469 19.7681 21.651 20.7082C21.5781 20.8801 21.5 21.052 21.4141 21.2186C20.9844 22.0806 20.4167 22.8619 19.7448 23.5337L19.7396 23.5389C19.5156 23.7629 19.2786 23.9738 19.0339 24.1744C18.7865 24.3749 18.526 24.5624 18.2578 24.7342C16.8724 25.6223 15.224 26.1405 13.4583 26.1405C12.2318 26.1405 11.0599 25.8905 9.9974 25.4426C9.82552 25.3697 9.65365 25.2915 9.48698 25.2056C8.625 24.7759 7.84375 24.2082 7.17188 23.5363L7.16667 23.5285C6.94271 23.3046 6.73177 23.0702 6.53385 22.8228C6.33333 22.5754 6.14583 22.315 5.97396 22.0467C5.08333 20.6613 4.56771 19.0155 4.56771 17.2473V17.2447C4.56771 16.0181 4.81771 14.8462 5.26823 13.7837C5.34115 13.6118 5.41927 13.44 5.50521 13.2733C5.9349 12.4113 6.5026 11.6301 7.17448 10.9582L7.17969 10.953C7.40365 10.729 7.63802 10.5181 7.88542 10.3201C8.13281 10.1196 8.39323 9.93213 8.66146 9.76026C10.0391 8.86963 11.6875 8.35401 13.4531 8.35401Z" fill="#FDD6F0"/>
</g>
</svg>
