<svg width="32" height="21" viewBox="0 0 32 21" fill="none" xmlns="http://www.w3.org/2000/svg">
<path d="M29 1.19995H3C1.61929 1.19995 0.5 2.31924 0.5 3.69995V17.7C0.5 19.0807 1.61929 20.2 3 20.2H29C30.3807 20.2 31.5 19.0807 31.5 17.7V3.69995C31.5 2.31924 30.3807 1.19995 29 1.19995Z" fill="white"/>
<path d="M29 1.19995H3C1.61929 1.19995 0.5 2.31924 0.5 3.69995V17.7C0.5 19.0807 1.61929 20.2 3 20.2H29C30.3807 20.2 31.5 19.0807 31.5 17.7V3.69995C31.5 2.31924 30.3807 1.19995 29 1.19995Z" stroke="#EDEEF0"/>
<path fill-rule="evenodd" clip-rule="evenodd" d="M15.9959 14.1272C15.2205 14.7962 14.2151 15.2 13.1166 15.2C10.6629 15.2 8.67383 13.1853 8.67383 10.7C8.67383 8.21467 10.6629 6.19995 13.1166 6.19995C14.2151 6.19995 15.2205 6.60373 15.9959 7.27274C16.7714 6.60373 17.7767 6.19995 18.8752 6.19995C21.3289 6.19995 23.318 8.21467 23.318 10.7C23.318 13.1853 21.3289 15.2 18.8752 15.2C17.7767 15.2 16.7714 14.7962 15.9959 14.1272Z" fill="#EC0014"/>
<path fill-rule="evenodd" clip-rule="evenodd" d="M15.998 14.1236C16.9524 13.2983 17.5575 12.0707 17.5575 10.7C17.5575 9.32924 16.9524 8.10167 15.998 7.2763C16.7741 6.60516 17.781 6.19995 18.8814 6.19995C21.3351 6.19995 23.3243 8.21467 23.3243 10.7C23.3243 13.1853 21.3351 15.2 18.8814 15.2C17.781 15.2 16.7741 14.7948 15.998 14.1236Z" fill="#F9A000"/>
<path fill-rule="evenodd" clip-rule="evenodd" d="M16.0068 7.27319C16.9636 8.09859 17.5704 9.32774 17.5704 10.7005C17.5704 12.0731 16.9636 13.3023 16.0069 14.1277C15.0502 13.3023 14.4434 12.0731 14.4434 10.7004C14.4434 9.3277 15.0501 8.09859 16.0068 7.27319Z" fill="#FF5E00"/>
</svg>
