<svg width="16" height="17" viewBox="0 0 16 17" fill="none" xmlns="http://www.w3.org/2000/svg">
<path d="M8 0.199951C3.58172 0.199951 0 3.78167 0 8.19995C0 12.6183 3.58172 16.2 8 16.2C12.4183 16.2 16 12.6183 16 8.19995C15.9952 3.78364 12.4163 0.204732 8 0.199951ZM10.6667 9.92461C10.9376 10.174 10.9551 10.5958 10.7057 10.8667C10.4564 11.1376 10.0346 11.1551 9.76372 10.9057C9.75016 10.8933 9.73716 10.8802 9.72466 10.8667L8 9.14261L6.276 10.8667C6.01116 11.1224 5.58913 11.1151 5.33334 10.8503C5.08384 10.5919 5.08384 10.1823 5.33334 9.92395L7.05734 8.19995L5.33334 6.47595C5.07756 6.21111 5.08491 5.78908 5.34975 5.53329C5.60809 5.28379 6.01766 5.28379 6.276 5.53329L8 7.25729L9.72466 5.53329C9.974 5.26239 10.3958 5.24489 10.6667 5.49423C10.9376 5.74358 10.9551 6.16533 10.7057 6.43623C10.6933 6.44979 10.6802 6.46279 10.6667 6.47529L8.94266 8.19995L10.6667 9.92461Z" fill="#564B5D"/>
</svg>
