<svg width="32" height="32" viewBox="0 0 32 32" fill="none" xmlns="http://www.w3.org/2000/svg">
<mask id="mask0_1_593" style="mask-type:luminance" maskUnits="userSpaceOnUse" x="0" y="0" width="32" height="31">
<path d="M32 0.925537H0V30.4932H32V0.925537Z" fill="white"/>
</mask>
<g mask="url(#mask0_1_593)">
<path d="M13.4531 3.58439C14.7813 3.58439 16.0599 3.7771 17.2682 4.13387C17.4609 4.19116 17.6562 4.25366 17.8542 4.32137C18.0729 4.39689 18.2891 4.47762 18.5026 4.56356L17.6224 6.18074C16.3281 5.68335 14.9245 5.41252 13.4557 5.41252H13.4531C11.849 5.41252 10.3203 5.73804 8.92969 6.32658C8.70313 6.42293 8.47917 6.52449 8.26302 6.63387C7.13802 7.19637 6.11719 7.93595 5.23698 8.81616L5.23177 8.82137C4.9401 9.11304 4.66146 9.42293 4.40365 9.74585C4.14323 10.0714 3.89844 10.41 3.67188 10.7615C2.5026 12.574 1.82813 14.7277 1.82813 17.0376V17.0402C1.82813 18.6443 2.15365 20.173 2.74219 21.5636C2.83854 21.7902 2.9401 22.0141 3.04948 22.2303C3.61198 23.3527 4.35156 24.3761 5.23438 25.2563L5.23958 25.2615C5.53125 25.5532 5.84115 25.8318 6.16406 26.0923C6.48958 26.3527 6.82813 26.5975 7.17969 26.824C8.98958 27.9855 11.1432 28.66 13.4531 28.66H13.4557C15.0599 28.66 16.5885 28.3344 17.9792 27.7459C18.2057 27.6495 18.4297 27.548 18.6458 27.4386C19.7708 26.8761 20.7917 26.1364 21.6719 25.2563H21.6745L21.6823 25.2485C21.974 24.9568 22.25 24.6495 22.5104 24.3266C22.7708 24.0011 23.0156 23.6626 23.2422 23.311C24.4036 21.5037 25.0781 19.3527 25.0781 17.0454L26.9036 16.7641C26.9063 16.8553 26.9063 16.9464 26.9063 17.0376V17.0402C26.9063 18.8969 26.5286 20.6678 25.849 22.2745C25.7396 22.535 25.6198 22.7928 25.4922 23.048C24.8411 24.35 23.9844 25.5324 22.9661 26.5506L22.9609 26.5558C22.6224 26.8943 22.263 27.2173 21.8906 27.5167C21.5156 27.8188 21.1224 28.1026 20.7161 28.3631C18.6224 29.7094 16.1302 30.4907 13.4557 30.4907C11.599 30.4907 9.82813 30.1131 8.22135 29.4334C7.96094 29.324 7.70313 29.2042 7.44792 29.0766C6.14583 28.4256 4.96354 27.5688 3.94531 26.5506L3.9401 26.5428C3.60156 26.2042 3.28125 25.8475 2.97917 25.4725C2.67708 25.0975 2.39323 24.7042 2.13281 24.298C0.78125 22.2042 0 19.712 0 17.0376V17.035C0 15.1782 0.377604 13.41 1.05729 11.8006C1.16667 11.5402 1.28646 11.2824 1.41406 11.0271C2.0651 9.72502 2.92188 8.54272 3.9401 7.52449L3.94531 7.51929C4.28385 7.18074 4.64323 6.86043 5.01563 6.55835C5.39063 6.25627 5.78385 5.97241 6.1901 5.71199C8.28646 4.36564 10.7786 3.58439 13.4531 3.58439ZM14.5521 16.4308L22.9948 0.925537L24.0859 9.73022L32 13.7381L14.5521 16.4308ZM13.4531 12.7798H13.4557C13.6432 12.7798 13.8281 12.7928 14.0078 12.8162L13.0104 14.6495C12.8359 14.6808 12.6667 14.7329 12.5078 14.8006C12.4609 14.8214 12.4141 14.8423 12.3672 14.8657C12.1328 14.9829 11.9193 15.1365 11.7344 15.3214L11.7292 15.3266C11.6693 15.3865 11.6146 15.449 11.5599 15.5141C11.5052 15.5818 11.4531 15.6521 11.4063 15.7277C11.1641 16.1053 11.0234 16.5558 11.0234 17.0376V17.0402C11.0234 17.3761 11.0911 17.6938 11.2161 17.9855C11.237 18.035 11.2578 18.0818 11.2813 18.1261C11.3984 18.3605 11.5521 18.574 11.737 18.7589L11.7422 18.7641C11.8021 18.824 11.8646 18.8813 11.9297 18.9334C11.9974 18.9881 12.0677 19.0401 12.1432 19.087C12.5208 19.3292 12.9714 19.4699 13.4531 19.4699C13.7891 19.4699 14.1068 19.4022 14.3984 19.2798C14.4479 19.2589 14.4922 19.2381 14.5391 19.2147C14.7734 19.0975 14.987 18.9438 15.1719 18.7589L15.1771 18.7537C15.2109 18.7199 15.2422 18.686 15.2708 18.6548C15.2995 18.6235 15.3281 18.587 15.3568 18.5506L17.5469 18.212C17.5 18.3787 17.4427 18.5428 17.375 18.699C17.3411 18.7798 17.3021 18.8631 17.263 18.9438C17.0573 19.3579 16.7865 19.7303 16.4635 20.0532L16.4557 20.0584C16.349 20.1626 16.2396 20.2641 16.1224 20.3579C16.0026 20.4542 15.8802 20.5428 15.75 20.6261C15.0859 21.0506 14.2995 21.298 13.4531 21.298C12.8646 21.298 12.3047 21.1782 11.7969 20.962C11.7161 20.9282 11.6328 20.8891 11.5521 20.8501C11.138 20.6443 10.7656 20.3735 10.4427 20.0506L10.4349 20.0428C10.3307 19.9386 10.2292 19.8266 10.1354 19.7094C10.0391 19.5896 9.95052 19.4673 9.86719 19.337C9.44271 18.6756 9.19531 17.8865 9.19531 17.0402V17.0376C9.19531 16.449 9.3151 15.8891 9.53125 15.3813C9.5651 15.3006 9.60417 15.2173 9.64323 15.1365C9.84896 14.7251 10.1198 14.3501 10.4427 14.0298C10.5495 13.923 10.6641 13.8214 10.7839 13.7251C10.9036 13.6287 11.026 13.5402 11.1563 13.4568C11.8177 13.0271 12.6068 12.7798 13.4531 12.7798ZM13.4531 8.14429C14.25 8.14429 15.0208 8.24845 15.7526 8.44637C15.8724 8.47762 15.9896 8.51147 16.1068 8.55054C16.1693 8.57137 16.2344 8.5922 16.2969 8.61304L15.4063 10.2511C14.7865 10.074 14.1302 9.97762 13.4505 9.97762C12.4766 9.97762 11.5469 10.1755 10.7005 10.5324C10.5677 10.5896 10.4323 10.6521 10.2943 10.7199L10.2839 10.7251C9.60417 11.0662 8.98958 11.5141 8.45573 12.048L8.45052 12.0532C8.27344 12.2303 8.10677 12.4178 7.94792 12.6131C7.78906 12.811 7.64063 13.0167 7.5026 13.2303C6.79688 14.3292 6.38802 15.6391 6.38802 17.0428V17.0454C6.38802 18.0193 6.58594 18.949 6.94271 19.7954C7 19.9334 7.0625 20.0688 7.13021 20.2016C7.47135 20.8839 7.92188 21.5037 8.45833 22.0402C8.63802 22.2199 8.82813 22.3891 9.02344 22.548C9.22136 22.7068 9.42708 22.8553 9.64063 22.9933C10.7396 23.6938 12.0495 24.1027 13.4531 24.1027H13.4557C14.4297 24.1027 15.3594 23.9048 16.2057 23.548C16.3438 23.4907 16.4792 23.4282 16.612 23.3605C17.2943 23.0193 17.9141 22.5688 18.4505 22.0324C18.6302 21.8526 18.8021 21.6625 18.9583 21.4673C19.1172 21.2693 19.2656 21.0636 19.4036 20.8501C19.9896 19.9386 20.3698 18.8864 20.4844 17.7537L22.3385 17.4673C22.2865 18.5375 22.0469 19.5584 21.651 20.4985C21.5781 20.6704 21.5 20.8423 21.4141 21.0089C20.9844 21.8709 20.4167 22.6522 19.7448 23.324L19.7396 23.3292C19.5156 23.5532 19.2786 23.7641 19.0339 23.9647C18.7865 24.1652 18.526 24.3526 18.2578 24.5245C16.8724 25.4125 15.224 25.9308 13.4583 25.9308C12.2318 25.9308 11.0599 25.6808 9.9974 25.2329C9.82552 25.16 9.65365 25.0818 9.48698 24.9959C8.625 24.5662 7.84375 23.9985 7.17188 23.3266L7.16667 23.3188C6.94271 23.0949 6.73177 22.8605 6.53385 22.6131C6.33333 22.3657 6.14583 22.1052 5.97396 21.837C5.08333 20.4515 4.56771 18.8058 4.56771 17.0376V17.035C4.56771 15.8084 4.81771 14.6365 5.26823 13.574C5.34115 13.4021 5.41927 13.2303 5.50521 13.0636C5.9349 12.2016 6.5026 11.4204 7.17448 10.7485L7.17969 10.7433C7.40365 10.5193 7.63802 10.3084 7.88542 10.1104C8.13281 9.90991 8.39323 9.72241 8.66146 9.55054C10.0391 8.65991 11.6875 8.14429 13.4531 8.14429Z" fill="#FDD6F0"/>
</g>
</svg>
