<svg width="32" height="21" viewBox="0 0 32 21" fill="none" xmlns="http://www.w3.org/2000/svg">
<path d="M30 1.19995H2C1.17157 1.19995 0.5 1.87152 0.5 2.69995V18.7C0.5 19.5284 1.17157 20.2 2 20.2H30C30.8284 20.2 31.5 19.5284 31.5 18.7V2.69995C31.5 1.87152 30.8284 1.19995 30 1.19995Z" fill="white"/>
<path d="M30 1.19995H2C1.17157 1.19995 0.5 1.87152 0.5 2.69995V18.7C0.5 19.5284 1.17157 20.2 2 20.2H30C30.8284 20.2 31.5 19.5284 31.5 18.7V2.69995C31.5 1.87152 30.8284 1.19995 30 1.19995Z" stroke="#EDEEF0"/>
<path d="M5.80878 7.09998H3.72868C3.58634 7.09998 3.46528 7.20447 3.44308 7.34645L2.60179 12.7358C2.58506 12.8421 2.66658 12.938 2.77334 12.938H3.76639C3.90874 12.938 4.02979 12.8335 4.05199 12.6912L4.27889 11.2376C4.30079 11.0954 4.42215 10.9909 4.56419 10.9909H5.22268C6.59289 10.9909 7.38369 10.3209 7.59021 8.99332C7.68328 8.4125 7.59416 7.95615 7.32498 7.63655C7.02935 7.2856 6.50499 7.09998 5.80878 7.09998ZM6.04876 9.0683C5.93501 9.82243 5.36472 9.82244 4.81329 9.82244H4.4994L4.71961 8.41404C4.73269 8.32891 4.80569 8.26622 4.89085 8.26622H5.03471C5.41034 8.26622 5.76468 8.26622 5.94778 8.48257C6.05697 8.61164 6.09043 8.8034 6.04876 9.0683Z" fill="#253B80"/>
<path d="M12.0258 9.04424H11.0297C10.9448 9.04424 10.8715 9.10693 10.8584 9.19205L10.8143 9.47355L10.7447 9.37152C10.529 9.0553 10.0482 8.94958 9.56822 8.94958C8.46749 8.94958 7.52735 9.79192 7.34425 10.9736C7.24905 11.563 7.3844 12.1266 7.71532 12.5196C8.01886 12.881 8.45319 13.0316 8.96995 13.0316C9.85686 13.0316 10.3487 12.4554 10.3487 12.4554L10.3043 12.7351C10.2875 12.842 10.3691 12.9379 10.4752 12.9379H11.3725C11.5151 12.9379 11.6355 12.8334 11.6581 12.6911L12.1964 9.24644C12.2134 9.14042 12.1322 9.04424 12.0258 9.04424ZM10.6373 11.0031C10.5412 11.578 10.0895 11.964 9.51347 11.964C9.22422 11.964 8.99306 11.8703 8.84464 11.6927C8.69743 11.5163 8.64146 11.2652 8.6883 10.9856C8.77803 10.4155 9.2373 10.0169 9.80455 10.0169C10.0874 10.0169 10.3173 10.1118 10.4688 10.291C10.6206 10.472 10.6808 10.7247 10.6373 11.0031Z" fill="#253B80"/>
<path d="M17.3304 9.04431H16.3294C16.2339 9.04431 16.1442 9.09225 16.0901 9.17246L14.7095 11.2272L14.1243 9.25267C14.0875 9.12913 13.9747 9.04431 13.8469 9.04431H12.8633C12.7438 9.04431 12.6607 9.16232 12.6988 9.27602L13.8013 12.5452L12.7648 14.0237C12.6833 14.1402 12.7654 14.3003 12.9062 14.3003H13.906C14.0008 14.3003 14.0897 14.2536 14.1435 14.1749L17.4728 9.31935C17.5524 9.20319 17.4706 9.04431 17.3304 9.04431Z" fill="#253B80"/>
<path d="M20.6447 7.09998H18.5643C18.4223 7.09998 18.3012 7.20447 18.279 7.34645L17.4377 12.7358C17.421 12.8421 17.5025 12.938 17.6087 12.938H18.6762C18.7754 12.938 18.8603 12.8648 18.8758 12.7653L19.1145 11.2376C19.1364 11.0954 19.2578 10.9909 19.3998 10.9909H20.058C21.4285 10.9909 22.219 10.3209 22.4258 8.99332C22.5192 8.4125 22.4295 7.95615 22.1603 7.63655C21.865 7.2856 21.3409 7.09998 20.6447 7.09998ZM20.8847 9.0683C20.7712 9.82243 20.201 9.82244 19.6492 9.82244H19.3356L19.5562 8.41404C19.5692 8.32891 19.6416 8.26622 19.7271 8.26622H19.871C20.2463 8.26622 20.6009 8.26622 20.784 8.48257C20.8932 8.61164 20.9264 8.8034 20.8847 9.0683Z" fill="#179BD7"/>
<path d="M26.8643 9.04424H25.8688C25.7834 9.04424 25.7107 9.10693 25.6979 9.19205L25.6538 9.47355L25.5838 9.37152C25.3682 9.0553 24.8876 8.94958 24.4077 8.94958C23.3069 8.94958 22.3671 9.79192 22.184 10.9736C22.0891 11.563 22.2239 12.1266 22.5548 12.5196C22.8589 12.881 23.2926 13.0316 23.8094 13.0316C24.6963 13.0316 25.1881 12.4554 25.1881 12.4554L25.1437 12.7351C25.127 12.842 25.2085 12.9379 25.3153 12.9379H26.2122C26.3543 12.9379 26.4753 12.8334 26.4975 12.6911L27.0362 9.24644C27.0526 9.14042 26.9711 9.04424 26.8643 9.04424ZM25.4759 11.0031C25.3804 11.578 24.9281 11.964 24.352 11.964C24.0634 11.964 23.8316 11.8703 23.6832 11.6927C23.536 11.5163 23.4806 11.2652 23.5268 10.9856C23.6172 10.4155 24.0758 10.0169 24.6431 10.0169C24.926 10.0169 25.1559 10.1118 25.3074 10.291C25.4597 10.472 25.52 10.7247 25.4759 11.0031Z" fill="#179BD7"/>
<path d="M28.0376 7.24798L27.1838 12.736C27.1671 12.8423 27.2486 12.9382 27.3548 12.9382H28.2131C28.3557 12.9382 28.4768 12.8337 28.4987 12.6914L29.3406 7.30237C29.3573 7.19604 29.2758 7.09985 29.1696 7.09985H28.2085C28.1237 7.10016 28.0507 7.16285 28.0376 7.24798Z" fill="#179BD7"/>
</svg>
