<svg width="121" height="21" viewBox="0 0 121 21" fill="none" xmlns="http://www.w3.org/2000/svg">
<mask id="mask0_1_1233" style="mask-type:luminance" maskUnits="userSpaceOnUse" x="0" y="1" width="121" height="20">
<path d="M120.212 1.25928H0.789062V20.2593H120.212V1.25928Z" fill="white"/>
</mask>
<g mask="url(#mask0_1_1233)">
<g opacity="0.3">
<path d="M16.696 1.30127L11.0924 11.0222L5.48885 1.30127H5.46877H0.789062V20.241H5.46877V10.6808L9.36517 17.4292L10.0681 18.6343H12.1168L13.0005 17.0677L16.696 10.6808V20.241H21.3757V1.30127H16.696Z" fill="white"/>
<path d="M32.9057 13.3709C32.9057 11.9449 32.0019 10.8805 30.6964 10.8805C29.3306 10.8805 28.4068 12.0454 28.4068 13.3709C28.4068 14.7568 29.3306 15.8614 30.6964 15.8614C32.0019 15.8614 32.9057 14.7969 32.9057 13.3709ZM23.4258 13.4111C23.4258 9.27369 26.2577 6.48193 29.1298 6.48193C31.1182 6.48193 32.3835 7.50625 33.1266 8.53056L33.5886 6.84346H37.7862V19.8783H33.5886L33.1266 18.1912C32.3835 19.2356 31.1182 20.2399 29.1298 20.2399C26.2577 20.2599 23.4258 17.4682 23.4258 13.4111Z" fill="white"/>
<path d="M49.9559 7.40582V11.3826C49.032 10.8604 47.3449 10.3783 45.9189 10.3783C45.0955 10.3783 44.6536 10.539 44.6536 10.8604C44.6536 11.1817 45.1155 11.3826 46.3809 11.6638C48.6303 12.1458 50.8798 12.9492 50.8798 15.7811C50.8798 18.5126 48.7308 20.2399 44.8143 20.2399C42.8058 20.2399 41.1589 19.7779 40.0542 19.1754V14.9175C41.2392 15.7008 42.6652 16.3435 44.5933 16.3435C45.5574 16.3435 46.1198 16.1828 46.1198 15.8213C46.1198 15.3995 45.4168 15.2589 43.8502 14.8572C41.8418 14.335 39.8936 13.3509 39.8936 10.9005C39.8936 8.3498 41.9824 6.48193 45.6779 6.48193C47.2244 6.48193 48.8714 6.82337 49.9559 7.40582Z" fill="white"/>
<path d="M57.749 7.8475C58.472 7.08429 59.6771 6.46167 61.1031 6.46167C63.8748 6.46167 65.602 8.14877 65.602 11.0811V19.838H60.6412V12.3665C60.6412 11.3021 60.1792 10.8401 59.2754 10.8401C58.3314 10.8401 57.749 11.4627 57.749 12.2862V19.8179H52.7881V1.25977H57.749V7.8475Z" fill="white"/>
<path d="M76.769 13.3709C76.769 11.9449 75.8652 10.8805 74.5597 10.8805C73.1939 10.8805 72.27 12.0454 72.27 13.3709C72.27 14.7568 73.1939 15.8614 74.5597 15.8614C75.8652 15.8614 76.769 14.7969 76.769 13.3709ZM67.2891 13.4111C67.2891 9.27369 70.121 6.48193 72.9931 6.48193C74.9814 6.48193 76.2468 7.50625 76.9899 8.53056L77.4519 6.84346H81.6495V19.8783H77.4519L76.9899 18.1912C76.2468 19.2356 74.9814 20.2399 72.9931 20.2399C70.121 20.2599 67.2891 17.4682 67.2891 13.4111Z" fill="white"/>
<path d="M89.0212 13.3306C89.0212 14.7767 89.925 15.8211 91.2305 15.8211C92.5761 15.8211 93.5 14.7365 93.5 13.3507C93.5 11.9849 92.5761 10.8401 91.2104 10.8401C89.9049 10.8401 89.0212 11.9046 89.0212 13.3306ZM89.0613 8.45004C89.8045 7.34539 91.3309 6.46167 92.9377 6.46167C95.9303 6.46167 98.481 9.153 98.481 13.3306C98.481 17.5082 95.7093 20.1995 92.7167 20.1995C90.8288 20.1995 89.5233 19.1752 88.8002 18.1509L88.3383 19.838H84.1406V1.25977H89.0814L89.0613 8.45004Z" fill="white"/>
<path d="M105.306 1.25977H100.365V19.838H105.306V1.25977Z" fill="white"/>
<path d="M115.552 11.9444C115.532 11.0406 114.93 10.2573 113.865 10.2573C112.901 10.2573 112.098 10.9 111.756 11.9444H115.552ZM120.091 14.6759H111.937C112.56 15.9211 113.986 16.5036 115.532 16.5036C116.938 16.5036 118.183 16.0416 119.328 15.5395V19.3154C117.982 19.9581 116.476 20.2795 114.829 20.2795C109.848 20.2795 107.137 17.3471 107.137 13.4106C107.137 9.33339 110.049 6.50146 113.885 6.50146C117.36 6.50146 120.192 8.81119 120.192 13.1896C120.212 13.6717 120.172 14.1738 120.091 14.6759Z" fill="white"/>
</g>
</g>
</svg>
