<svg width="42" height="12" viewBox="0 0 42 12" fill="none" xmlns="http://www.w3.org/2000/svg">
<path d="M7.03694 10.7716C5.86507 10.7716 4.8451 10.572 3.97705 10.1727C3.10899 9.77338 2.43625 9.20697 1.95882 8.47347C1.48139 7.73562 1.24268 6.86756 1.24268 5.8693V5.85628C1.24268 4.85801 1.48139 3.99213 1.95882 3.25862C2.43625 2.52512 3.10899 1.95871 3.97705 1.55941C4.84944 1.1601 5.86941 0.960449 7.03694 0.960449C8.21316 0.960449 9.23529 1.1601 10.1034 1.55941C10.9714 1.95871 11.6442 2.52512 12.1216 3.25862C12.599 3.99213 12.8377 4.85801 12.8377 5.85628V5.8693C12.8377 6.86756 12.599 7.73345 12.1216 8.46696C11.6442 9.20046 10.9714 9.76904 10.1034 10.1727C9.23529 10.572 8.21316 10.7716 7.03694 10.7716ZM7.03694 9.05289C7.77045 9.05289 8.4063 8.92269 8.94449 8.66227C9.48703 8.40185 9.90587 8.03293 10.201 7.5555C10.5005 7.07807 10.6502 6.516 10.6502 5.8693V5.85628C10.6502 5.20958 10.5005 4.64968 10.201 4.17659C9.90587 3.69916 9.48703 3.33024 8.94449 3.06982C8.4063 2.8094 7.77045 2.6792 7.03694 2.6792C6.30778 2.6792 5.67193 2.8094 5.12939 3.06982C4.5912 3.33024 4.17236 3.69916 3.87288 4.17659C3.57774 4.64968 3.43017 5.20958 3.43017 5.85628V5.8693C3.43017 6.516 3.57774 7.07807 3.87288 7.5555C4.16802 8.03293 4.58686 8.40185 5.12939 8.66227C5.67193 8.92269 6.30778 9.05289 7.03694 9.05289ZM10.2531 11.4943L6.7635 7.47737H8.85335L12.343 11.4943H10.2531ZM19.9406 10.7651C18.9033 10.7651 18.0048 10.5937 17.2453 10.2508C16.4901 9.90793 15.9063 9.41097 15.494 8.75992C15.086 8.10888 14.882 7.31678 14.882 6.38362V1.16878H17.0239V6.31852C17.0239 6.89578 17.1346 7.3884 17.356 7.79638C17.5817 8.20003 17.9094 8.50819 18.339 8.72086C18.7731 8.93354 19.3069 9.03987 19.9406 9.03987C20.5743 9.03987 21.106 8.93354 21.5357 8.72086C21.9697 8.50819 22.2974 8.20003 22.5187 7.79638C22.7401 7.3884 22.8508 6.89578 22.8508 6.31852V1.16878H24.9992V6.38362C24.9992 7.31244 24.7952 8.10454 24.3872 8.75992C23.9792 9.41097 23.3955 9.90793 22.6359 10.2508C21.8807 10.5937 20.9823 10.7651 19.9406 10.7651ZM27.4666 10.5633V1.16878H29.6151V10.5633H27.4666ZM31.8221 10.5633V9.20263L38.0591 2.92008V2.85498H31.9458V1.16878H41.0213V2.52946L34.7974 8.81201V8.87711H41.1711V10.5633H31.8221Z" fill="#BDB0AA"/>
</svg>
