<svg width="17" height="18" viewBox="0 0 17 18" fill="none" xmlns="http://www.w3.org/2000/svg">
<mask id="mask0_16_3081" style="mask-type:luminance" maskUnits="userSpaceOnUse" x="0" y="1" width="17" height="17">
<path d="M16.3452 1.23926H0.345215V17.2393H16.3452V1.23926Z" fill="white"/>
</mask>
<g mask="url(#mask0_16_3081)">
<path d="M6.35872 8.90616L7.69205 10.2395L10.6921 7.2395M13.6921 9.2395C13.6921 12.5118 10.1228 14.8918 8.82405 15.6494C8.67645 15.7355 8.60265 15.7786 8.49851 15.8009C8.41768 15.8182 8.29976 15.8182 8.21893 15.8009C8.11478 15.7786 8.04099 15.7355 7.89339 15.6494C6.59469 14.8918 3.02539 12.5118 3.02539 9.2395V6.05123C3.02539 5.51822 3.02539 5.25172 3.11256 5.02263C3.18957 4.82026 3.31471 4.63968 3.47716 4.49652C3.66105 4.33445 3.91058 4.24088 4.40966 4.05373L7.98419 2.71328C8.12278 2.6613 8.19208 2.63532 8.26337 2.62502C8.32661 2.61588 8.39083 2.61588 8.45406 2.62502C8.52535 2.63532 8.59465 2.6613 8.73325 2.71328L12.3078 4.05373C12.8069 4.24088 13.0564 4.33445 13.2403 4.49652C13.4028 4.63968 13.5279 4.82026 13.6049 5.02263C13.6921 5.25172 13.6921 5.51822 13.6921 6.05123V9.2395Z" stroke="#03BF5A" stroke-width="1.5" stroke-linecap="round" stroke-linejoin="round"/>
</g>
</svg>
