<svg width="10" height="11" viewBox="0 0 10 11" fill="none" xmlns="http://www.w3.org/2000/svg">
<g clip-path="url(#clip0_1_458)">
<path d="M9.37029 5.49841C9.37029 5.36847 9.33929 5.24654 9.28736 5.13571C8.94094 4.01816 7.31912 4.0998 5.0122 4.04529C4.62651 4.03625 4.84713 3.58081 4.98249 2.58106C5.07059 1.93083 4.65131 0.932373 3.94658 0.932373C2.78459 0.932373 3.9024 1.84894 2.87501 4.11556C2.32605 5.32662 1.09897 4.64824 1.09897 5.86473V8.63381C1.09897 9.10733 1.14547 9.56251 1.81145 9.63743C2.45703 9.71002 2.31184 10.1701 3.24314 10.1701H7.9045C8.37932 10.1701 8.76553 9.78365 8.76553 9.30883C8.76553 9.11198 8.69655 8.9327 8.58521 8.78751C8.84871 8.64001 9.02954 8.36152 9.02954 8.03861C9.02954 7.84227 8.96083 7.66299 8.84974 7.51806C9.11402 7.37081 9.29537 7.09207 9.29537 6.76864C9.29537 6.53381 9.2003 6.32095 9.04711 6.16517C9.24267 6.00733 9.37029 5.76863 9.37029 5.49841Z" fill="#FFDC5D"/>
<path d="M6.28683 6.3595H8.50953C8.81178 6.3595 9.09543 6.19778 9.24991 5.93764C9.31346 5.83043 9.27807 5.69171 9.1706 5.6279C9.06339 5.56409 8.92467 5.6 8.86086 5.70721C8.78775 5.83095 8.65264 5.90742 8.50927 5.90742H6.23335C6.00783 5.90742 5.82441 5.724 5.82441 5.49848C5.82441 5.27295 6.00783 5.08953 6.23335 5.08953H7.75416C7.87894 5.08953 7.9802 4.98827 7.9802 4.86349C7.9802 4.73872 7.87894 4.63745 7.75416 4.63745H6.2331C5.75828 4.63745 5.37207 5.02366 5.37207 5.49848C5.37207 5.76327 5.49478 5.99758 5.68336 6.15568C5.52449 6.31197 5.42555 6.52897 5.42555 6.7687C5.42555 7.03427 5.54903 7.26935 5.73865 7.42719C5.5808 7.58323 5.4829 7.79945 5.4829 8.03867C5.4829 8.328 5.6273 8.58323 5.84689 8.73953C5.71152 8.89168 5.62679 9.08983 5.62679 9.30889C5.62679 9.78371 6.013 10.1699 6.48781 10.1699H7.90451C8.20676 10.1699 8.49067 10.0085 8.64515 9.74832C8.70896 9.64111 8.67357 9.50238 8.56636 9.43858C8.4589 9.37528 8.32017 9.41016 8.25662 9.51737C8.183 9.64111 8.04789 9.71783 7.90451 9.71783H6.48781C6.26229 9.71783 6.07887 9.53442 6.07887 9.30889C6.07887 9.08337 6.26229 8.89995 6.48781 8.89995H8.16853C8.47078 8.89995 8.75495 8.73823 8.90917 8.47809C8.97298 8.37063 8.93759 8.2319 8.83038 8.16835C8.72214 8.10351 8.58393 8.13993 8.52064 8.24714C8.44598 8.37295 8.31423 8.44787 8.16853 8.44787H6.34392C6.1184 8.44787 5.93498 8.26419 5.93498 8.03867C5.93498 7.81314 6.1184 7.62973 6.34392 7.62973H8.4341C8.73635 7.62973 9.02025 7.46827 9.17474 7.20813C9.23855 7.10092 9.20315 6.96219 9.09595 6.89838C8.98822 6.83483 8.84975 6.86997 8.7862 6.97718C8.71154 7.10273 8.5798 7.17764 8.4341 7.17764H6.28683C6.0613 7.17764 5.87789 6.99423 5.87789 6.7687C5.87789 6.54318 6.06105 6.3595 6.28683 6.3595Z" fill="#EE9547"/>
</g>
<defs>
<clipPath id="clip0_1_458">
<rect width="9.3" height="9.3" fill="white" transform="translate(0.339996 0.870117)"/>
</clipPath>
</defs>
</svg>
