<svg width="15" height="15" viewBox="0 0 15 15" fill="none" xmlns="http://www.w3.org/2000/svg">
<g clip-path="url(#clip0_1_253)">
<path d="M12.5467 8.72546C11.38 8.72546 9.94578 11.4842 9.82445 12.6144C9.66073 14.1369 10.6022 14.1699 10.6022 14.1699H14.88V10.281C14.88 10.281 13.543 8.72546 12.5467 8.72546Z" fill="#50A5E6"/>
<path d="M12.1546 11.5676C12.7826 10.4799 13.0447 9.45548 12.74 9.27958C12.4353 9.10368 11.6792 9.84287 11.0512 10.9306C10.4232 12.0184 10.1611 13.0427 10.4658 13.2186C10.7705 13.3945 11.5265 12.6554 12.1546 11.5676Z" fill="#1C6399"/>
<path d="M8.69122 0.169922C9.15049 0.169922 9.52266 0.542089 9.52266 1.00137C9.52266 1.3082 9.78244 5.2107 9.78244 5.2107L7.85977 7.16992V1.00137C7.85977 0.542089 8.23194 0.169922 8.69122 0.169922Z" fill="#F9CA55"/>
<path d="M8.22029 1.85114C8.22029 1.42375 8.55163 1.07764 8.96035 1.07764C9.36907 1.07764 9.70041 1.42414 9.70041 1.85114C9.70041 1.85114 9.90846 4.16191 10.164 5.49503C10.5054 6.22069 10.6964 7.3158 10.6544 7.9248C10.6754 8.07958 12.8419 9.87158 12.8419 9.87158C12.7326 10.5766 11.9634 12.2652 10.9911 13.0445L9.62185 11.9074C8.49991 11.7503 7.88818 10.612 7.88818 10.2492C7.88818 9.08875 8.22029 1.85114 8.22029 1.85114Z" fill="#FFDC5D"/>
<path d="M3.21334 8.72546C4.38 8.72546 5.81423 11.4842 5.93556 12.6144C6.09928 14.1369 5.15778 14.1699 5.15778 14.1699H0.880005V10.281C0.880005 10.281 2.217 8.72546 3.21334 8.72546Z" fill="#50A5E6"/>
<path d="M5.29378 13.2181C5.59845 13.0422 5.33633 12.0178 4.70832 10.9301C4.08031 9.84232 3.32423 9.10313 3.01955 9.27903C2.71488 9.45494 2.977 10.4793 3.60501 11.5671C4.23302 12.6548 4.9891 13.394 5.29378 13.2181Z" fill="#1C6399"/>
<path d="M7.12596 0.174194C6.63363 0.124805 6.21868 0.510194 6.21868 0.992027C6.21868 1.29536 6.14713 5.00497 6.14713 5.00497L7.83918 7.16992L7.86329 1.03908C7.86329 0.608972 7.55413 0.216972 7.12596 0.174194Z" fill="#F9CA55"/>
<path d="M7.53974 1.85114C7.53974 1.42375 7.2084 1.07764 6.79968 1.07764C6.39096 1.07764 6.05963 1.42414 6.05963 1.85114C6.05963 1.85114 5.85157 4.16191 5.59607 5.49503C5.25463 6.22069 5.06368 7.3158 5.10568 7.9248C5.08468 8.07958 2.91818 9.87158 2.91818 9.87158C3.02746 10.5766 3.79668 12.2652 4.7689 13.0445L6.13818 11.9074C7.26013 11.7503 7.87185 10.612 7.87185 10.2492C7.87185 9.08875 7.53974 1.85114 7.53974 1.85114Z" fill="#FFDC5D"/>
<path d="M7.86366 10.2122C7.70266 10.2122 7.57199 10.0815 7.57199 9.92049V1.25566C7.57199 1.09466 7.70266 0.963989 7.86366 0.963989C8.02466 0.963989 8.15532 1.09466 8.15532 1.25566V9.92088C8.15571 10.0815 8.02505 10.2122 7.86366 10.2122Z" fill="#F9CA55"/>
</g>
<defs>
<clipPath id="clip0_1_253">
<rect width="14" height="14" fill="white" transform="translate(0.880005 0.169922)"/>
</clipPath>
</defs>
</svg>
