<svg width="33" height="21" viewBox="0 0 33 21" fill="none" xmlns="http://www.w3.org/2000/svg">
<path d="M30.3452 1.47266H2.34521C1.51679 1.47266 0.845215 2.14423 0.845215 2.97266V18.9727C0.845215 19.8011 1.51679 20.4727 2.34521 20.4727H30.3452C31.1736 20.4727 31.8452 19.8011 31.8452 18.9727V2.97266C31.8452 2.14423 31.1736 1.47266 30.3452 1.47266Z" fill="white"/>
<path d="M30.3452 1.47266H2.34521C1.51679 1.47266 0.845215 2.14423 0.845215 2.97266V18.9727C0.845215 19.8011 1.51679 20.4727 2.34521 20.4727H30.3452C31.1736 20.4727 31.8452 19.8011 31.8452 18.9727V2.97266C31.8452 2.14423 31.1736 1.47266 30.3452 1.47266Z" stroke="#EDEEF0"/>
<path d="M6.154 7.37305H4.0739C3.93156 7.37305 3.8105 7.47754 3.7883 7.61952L2.94701 13.0088C2.93028 13.1151 3.0118 13.211 3.11856 13.211H4.11161C4.25396 13.211 4.37501 13.1065 4.39721 12.9642L4.62411 11.5106C4.64601 11.3684 4.76737 11.2639 4.90941 11.2639H5.5679C6.93811 11.2639 7.72891 10.594 7.93543 9.26639C8.0285 8.68557 7.93938 8.22922 7.6702 7.90962C7.37457 7.55867 6.85021 7.37305 6.154 7.37305ZM6.39398 9.34137C6.28023 10.0955 5.70994 10.0955 5.15851 10.0955H4.84462L5.06483 8.68711C5.07791 8.60198 5.15091 8.53929 5.23607 8.53929H5.37993C5.75556 8.53929 6.1099 8.53929 6.293 8.75564C6.40219 8.88471 6.43565 9.07647 6.39398 9.34137Z" fill="#253B80"/>
<path d="M12.371 9.31731H11.3749C11.29 9.31731 11.2167 9.38001 11.2036 9.46513L11.1595 9.74663L11.0899 9.6446C10.8742 9.32838 10.3934 9.22266 9.91344 9.22266C8.81271 9.22266 7.87257 10.065 7.68947 11.2466C7.59427 11.836 7.72962 12.3996 8.06054 12.7926C8.36408 13.154 8.79841 13.3046 9.31517 13.3046C10.2021 13.3046 10.6939 12.7284 10.6939 12.7284L10.6495 13.0081C10.6327 13.115 10.7143 13.2109 10.8204 13.2109H11.7177C11.8603 13.2109 11.9807 13.1064 12.0033 12.9641L12.5416 9.51952C12.5586 9.4135 12.4774 9.31731 12.371 9.31731ZM10.9825 11.2761C10.8864 11.851 10.4347 12.237 9.85869 12.237C9.56944 12.237 9.33828 12.1433 9.18986 11.9657C9.04265 11.7893 8.98668 11.5382 9.03352 11.2586C9.12325 10.6885 9.58252 10.2899 10.1498 10.2899C10.4326 10.2899 10.6625 10.3849 10.814 10.5641C10.9658 10.7451 11.026 10.9977 10.9825 11.2761Z" fill="#253B80"/>
<path d="M17.6756 9.31738H16.6746C16.5791 9.31738 16.4894 9.36532 16.4353 9.44553L15.0547 11.5002L14.4695 9.52574C14.4327 9.4022 14.3199 9.31738 14.1921 9.31738H13.2085C13.089 9.31738 13.0059 9.43539 13.044 9.54909L14.1465 12.8182L13.11 14.2967C13.0285 14.4132 13.1106 14.5733 13.2514 14.5733H14.2512C14.346 14.5733 14.4349 14.5266 14.4887 14.4479L17.818 9.59242C17.8976 9.47626 17.8158 9.31738 17.6756 9.31738Z" fill="#253B80"/>
<path d="M20.9899 7.37305H18.9095C18.7675 7.37305 18.6464 7.47754 18.6242 7.61952L17.7829 13.0088C17.7662 13.1151 17.8477 13.211 17.9539 13.211H19.0214C19.1206 13.211 19.2055 13.1378 19.221 13.0383L19.4597 11.5106C19.4816 11.3684 19.603 11.2639 19.745 11.2639H20.4032C21.7737 11.2639 22.5642 10.594 22.771 9.26639C22.8644 8.68557 22.7747 8.22922 22.5055 7.90962C22.2102 7.55867 21.6861 7.37305 20.9899 7.37305ZM21.2299 9.34137C21.1164 10.0955 20.5462 10.0955 19.9944 10.0955H19.6808L19.9014 8.68711C19.9144 8.60198 19.9868 8.53929 20.0723 8.53929H20.2162C20.5915 8.53929 20.9461 8.53929 21.1292 8.75564C21.2384 8.88471 21.2716 9.07647 21.2299 9.34137Z" fill="#179BD7"/>
<path d="M27.2095 9.31731H26.214C26.1286 9.31731 26.0559 9.38001 26.0431 9.46513L25.999 9.74663L25.929 9.6446C25.7134 9.32838 25.2328 9.22266 24.7529 9.22266C23.6521 9.22266 22.7123 10.065 22.5292 11.2466C22.4343 11.836 22.5691 12.3996 22.9 12.7926C23.2041 13.154 23.6378 13.3046 24.1546 13.3046C25.0415 13.3046 25.5333 12.7284 25.5333 12.7284L25.4889 13.0081C25.4722 13.115 25.5537 13.2109 25.6605 13.2109H26.5574C26.6995 13.2109 26.8205 13.1064 26.8427 12.9641L27.3814 9.51952C27.3978 9.4135 27.3163 9.31731 27.2095 9.31731ZM25.8211 11.2761C25.7256 11.851 25.2733 12.237 24.6972 12.237C24.4086 12.237 24.1768 12.1433 24.0284 11.9657C23.8812 11.7893 23.8258 11.5382 23.872 11.2586C23.9624 10.6885 24.421 10.2899 24.9883 10.2899C25.2712 10.2899 25.5011 10.3849 25.6526 10.5641C25.8049 10.7451 25.8652 10.9977 25.8211 11.2761Z" fill="#179BD7"/>
<path d="M28.3828 7.5202L27.529 13.0082C27.5123 13.1145 27.5938 13.2104 27.7 13.2104H28.5583C28.7009 13.2104 28.822 13.1059 28.8439 12.9636L29.6858 7.57459C29.7025 7.46826 29.621 7.37207 29.5148 7.37207H28.5537C28.4689 7.37238 28.3959 7.43507 28.3828 7.5202Z" fill="#179BD7"/>
</svg>
