<svg width="32" height="31" viewBox="0 0 32 31" fill="none" xmlns="http://www.w3.org/2000/svg">
<mask id="mask0_1_593" style="mask-type:luminance" maskUnits="userSpaceOnUse" x="0" y="0" width="32" height="31">
<path d="M32 0.725586H0V30.2933H32V0.725586Z" fill="white"/>
</mask>
<g mask="url(#mask0_1_593)">
<path d="M13.4531 3.38444C14.7813 3.38444 16.0599 3.57715 17.2682 3.93392C17.4609 3.99121 17.6562 4.05371 17.8542 4.12142C18.0729 4.19694 18.2891 4.27767 18.5026 4.36361L17.6224 5.98079C16.3281 5.4834 14.9245 5.21257 13.4557 5.21257H13.4531C11.849 5.21257 10.3203 5.53809 8.92969 6.12663C8.70313 6.22298 8.47917 6.32454 8.26302 6.43392C7.13802 6.99642 6.11719 7.736 5.23698 8.61621L5.23177 8.62142C4.9401 8.91309 4.66146 9.22298 4.40365 9.5459C4.14323 9.87142 3.89844 10.21 3.67188 10.5615C2.5026 12.374 1.82813 14.5277 1.82813 16.8376V16.8402C1.82813 18.4443 2.15365 19.973 2.74219 21.3636C2.83854 21.5902 2.9401 21.8141 3.04948 22.0303C3.61198 23.1527 4.35156 24.1761 5.23438 25.0563L5.23958 25.0615C5.53125 25.3532 5.84115 25.6318 6.16406 25.8923C6.48958 26.1527 6.82813 26.3975 7.17969 26.624C8.98958 27.7855 11.1432 28.46 13.4531 28.46H13.4557C15.0599 28.46 16.5885 28.1344 17.9792 27.5459C18.2057 27.4495 18.4297 27.348 18.6458 27.2386C19.7708 26.6761 20.7917 25.9365 21.6719 25.0563H21.6745L21.6823 25.0485C21.974 24.7568 22.25 24.4495 22.5104 24.1266C22.7708 23.8011 23.0156 23.4626 23.2422 23.111C24.4036 21.3037 25.0781 19.1527 25.0781 16.8454L26.9036 16.5641C26.9063 16.6553 26.9063 16.7464 26.9063 16.8376V16.8402C26.9063 18.6969 26.5286 20.4678 25.849 22.0745C25.7396 22.335 25.6198 22.5928 25.4922 22.848C24.8411 24.1501 23.9844 25.3324 22.9661 26.3506L22.9609 26.3558C22.6224 26.6943 22.263 27.0173 21.8906 27.3167C21.5156 27.6188 21.1224 27.9027 20.7161 28.1631C18.6224 29.5094 16.1302 30.2907 13.4557 30.2907C11.599 30.2907 9.82813 29.9131 8.22135 29.2334C7.96094 29.124 7.70313 29.0042 7.44792 28.8766C6.14583 28.2256 4.96354 27.3688 3.94531 26.3506L3.9401 26.3428C3.60156 26.0042 3.28125 25.6475 2.97917 25.2725C2.67708 24.8975 2.39323 24.5042 2.13281 24.098C0.78125 22.0042 0 19.512 0 16.8376V16.835C0 14.9782 0.377604 13.21 1.05729 11.6006C1.16667 11.3402 1.28646 11.0824 1.41406 10.8271C2.0651 9.52507 2.92188 8.34277 3.9401 7.32454L3.94531 7.31934C4.28385 6.98079 4.64323 6.66048 5.01563 6.3584C5.39063 6.05632 5.78385 5.77246 6.1901 5.51204C8.28646 4.16569 10.7786 3.38444 13.4531 3.38444ZM14.5521 16.2308L22.9948 0.725586L24.0859 9.53027L32 13.5381L14.5521 16.2308ZM13.4531 12.5798H13.4557C13.6432 12.5798 13.8281 12.5928 14.0078 12.6162L13.0104 14.4495C12.8359 14.4808 12.6667 14.5329 12.5078 14.6006C12.4609 14.6214 12.4141 14.6423 12.3672 14.6657C12.1328 14.7829 11.9193 14.9365 11.7344 15.1214L11.7292 15.1266C11.6693 15.1865 11.6146 15.249 11.5599 15.3141C11.5052 15.3818 11.4531 15.4521 11.4063 15.5277C11.1641 15.9053 11.0234 16.3558 11.0234 16.8376V16.8402C11.0234 17.1761 11.0911 17.4938 11.2161 17.7855C11.237 17.835 11.2578 17.8818 11.2813 17.9261C11.3984 18.1605 11.5521 18.374 11.737 18.5589L11.7422 18.5641C11.8021 18.624 11.8646 18.6813 11.9297 18.7334C11.9974 18.7881 12.0677 18.8402 12.1432 18.887C12.5208 19.1292 12.9714 19.2699 13.4531 19.2699C13.7891 19.2699 14.1068 19.2022 14.3984 19.0798C14.4479 19.0589 14.4922 19.0381 14.5391 19.0147C14.7734 18.8975 14.987 18.7438 15.1719 18.5589L15.1771 18.5537C15.2109 18.5199 15.2422 18.486 15.2708 18.4548C15.2995 18.4235 15.3281 18.387 15.3568 18.3506L17.5469 18.012C17.5 18.1787 17.4427 18.3428 17.375 18.499C17.3411 18.5798 17.3021 18.6631 17.263 18.7438C17.0573 19.1579 16.7865 19.5303 16.4635 19.8532L16.4557 19.8584C16.349 19.9626 16.2396 20.0641 16.1224 20.1579C16.0026 20.2542 15.8802 20.3428 15.75 20.4261C15.0859 20.8506 14.2995 21.098 13.4531 21.098C12.8646 21.098 12.3047 20.9782 11.7969 20.762C11.7161 20.7282 11.6328 20.6891 11.5521 20.6501C11.138 20.4443 10.7656 20.1735 10.4427 19.8506L10.4349 19.8428C10.3307 19.7386 10.2292 19.6266 10.1354 19.5094C10.0391 19.3896 9.95052 19.2673 9.86719 19.137C9.44271 18.4756 9.19531 17.6865 9.19531 16.8402V16.8376C9.19531 16.249 9.3151 15.6891 9.53125 15.1813C9.5651 15.1006 9.60417 15.0173 9.64323 14.9365C9.84896 14.5251 10.1198 14.1501 10.4427 13.8298C10.5495 13.723 10.6641 13.6214 10.7839 13.5251C10.9036 13.4287 11.026 13.3402 11.1563 13.2568C11.8177 12.8271 12.6068 12.5798 13.4531 12.5798ZM13.4531 7.94434C14.25 7.94434 15.0208 8.0485 15.7526 8.24642C15.8724 8.27767 15.9896 8.31152 16.1068 8.35059C16.1693 8.37142 16.2344 8.39225 16.2969 8.41309L15.4063 10.0511C14.7865 9.87402 14.1302 9.77767 13.4505 9.77767C12.4766 9.77767 11.5469 9.97559 10.7005 10.3324C10.5677 10.3896 10.4323 10.4521 10.2943 10.5199L10.2839 10.5251C9.60417 10.8662 8.98958 11.3141 8.45573 11.848L8.45052 11.8532C8.27344 12.0303 8.10677 12.2178 7.94792 12.4131C7.78906 12.611 7.64063 12.8167 7.5026 13.0303C6.79688 14.1292 6.38802 15.4391 6.38802 16.8428V16.8454C6.38802 17.8193 6.58594 18.749 6.94271 19.5954C7 19.7334 7.0625 19.8688 7.13021 20.0016C7.47135 20.6839 7.92188 21.3037 8.45833 21.8402C8.63802 22.0199 8.82813 22.1891 9.02344 22.348C9.22136 22.5068 9.42708 22.6553 9.64063 22.7933C10.7396 23.4938 12.0495 23.9027 13.4531 23.9027H13.4557C14.4297 23.9027 15.3594 23.7048 16.2057 23.348C16.3438 23.2907 16.4792 23.2282 16.612 23.1605C17.2943 22.8193 17.9141 22.3688 18.4505 21.8324C18.6302 21.6527 18.8021 21.4626 18.9583 21.2673C19.1172 21.0693 19.2656 20.8636 19.4036 20.6501C19.9896 19.7386 20.3698 18.6865 20.4844 17.5537L22.3385 17.2673C22.2865 18.3376 22.0469 19.3584 21.651 20.2985C21.5781 20.4704 21.5 20.6423 21.4141 20.8089C20.9844 21.6709 20.4167 22.4522 19.7448 23.124L19.7396 23.1292C19.5156 23.3532 19.2786 23.5641 19.0339 23.7647C18.7865 23.9652 18.526 24.1527 18.2578 24.3245C16.8724 25.2126 15.224 25.7308 13.4583 25.7308C12.2318 25.7308 11.0599 25.4808 9.9974 25.0329C9.82552 24.96 9.65365 24.8818 9.48698 24.7959C8.625 24.3662 7.84375 23.7985 7.17188 23.1266L7.16667 23.1188C6.94271 22.8949 6.73177 22.6605 6.53385 22.4131C6.33333 22.1657 6.14583 21.9053 5.97396 21.637C5.08333 20.2516 4.56771 18.6058 4.56771 16.8376V16.835C4.56771 15.6084 4.81771 14.4365 5.26823 13.374C5.34115 13.2021 5.41927 13.0303 5.50521 12.8636C5.9349 12.0016 6.5026 11.2204 7.17448 10.5485L7.17969 10.5433C7.40365 10.3193 7.63802 10.1084 7.88542 9.91048C8.13281 9.70996 8.39323 9.52246 8.66146 9.35059C10.0391 8.45996 11.6875 7.94434 13.4531 7.94434Z" fill="#DEF7EA"/>
</g>
</svg>
