<svg width="24" height="24" viewBox="0 0 24 24" fill="none" xmlns="http://www.w3.org/2000/svg">
<mask id="mask0_1_1286" style="mask-type:luminance" maskUnits="userSpaceOnUse" x="0" y="0" width="24" height="24">
<path d="M24 0H0V24H24V0Z" fill="white"/>
</mask>
<g mask="url(#mask0_1_1286)">
<path d="M12 0C5.3748 0 0 5.36802 0 11.9937C0 18.6257 5.3748 24 12 24C18.6288 24 23.9991 18.6256 23.9991 11.9937C23.9991 5.36802 18.6288 0 12 0ZM12.8551 18.6708C12.5764 18.9188 12.2534 19.0435 11.8875 19.0435C11.509 19.0435 11.1788 18.9211 10.8969 18.6758C10.6146 18.4309 10.4731 18.0881 10.4731 17.6476C10.4731 17.2568 10.61 16.928 10.8829 16.6614C11.1557 16.3949 11.4905 16.2616 11.8875 16.2616C12.2783 16.2616 12.6072 16.3949 12.8742 16.6614C13.1407 16.928 13.2744 17.2568 13.2744 17.6476C13.2739 18.0817 13.1343 18.4228 12.8551 18.6708ZM16.3304 10.0553C16.1162 10.4523 15.8619 10.7947 15.5669 11.0834C15.2728 11.3721 14.7439 11.8573 13.9804 12.5394C13.7699 12.7318 13.6005 12.9008 13.4736 13.0462C13.3466 13.1922 13.2518 13.3254 13.1899 13.4465C13.1275 13.5675 13.0797 13.6886 13.0458 13.8096C13.0119 13.9302 12.9609 14.143 12.8917 14.447C12.7743 15.0921 12.4052 15.4146 11.785 15.4146C11.4624 15.4146 11.1914 15.3094 10.9705 15.0984C10.7504 14.8874 10.6407 14.5744 10.6407 14.1588C10.6407 13.638 10.7215 13.1866 10.8828 12.805C11.0432 12.4232 11.2578 12.0885 11.5243 11.7998C11.7913 11.5112 12.1509 11.1687 12.604 10.7717C13.001 10.4243 13.2879 10.1623 13.4645 9.98563C13.6416 9.80857 13.7902 9.61162 13.9108 9.39476C14.0324 9.17747 14.092 8.94211 14.092 8.68781C14.092 8.19136 13.9082 7.77305 13.5387 7.43199C13.1696 7.09094 12.6934 6.92016 12.1102 6.92016C11.4277 6.92016 10.9253 7.09227 10.6028 7.4365C10.2802 7.78072 10.0079 8.28756 9.78423 8.95751C9.57282 9.65863 9.17258 10.0091 8.58394 10.0091C8.23654 10.0091 7.94339 9.88671 7.70442 9.64185C7.4659 9.39699 7.34663 9.13184 7.34663 8.84636C7.34663 8.25727 7.53592 7.66007 7.91404 7.0552C8.29262 6.45033 8.84464 5.94933 9.57055 5.5527C10.296 5.15562 11.1431 4.95683 12.1102 4.95683C13.0096 4.95683 13.8034 5.12305 14.4918 5.45511C15.1803 5.78666 15.7124 6.23798 16.0878 6.80895C16.4627 7.37948 16.6506 7.99974 16.6506 8.66969C16.6515 9.19603 16.5445 9.65819 16.3304 10.0553Z" fill="#FF854C"/>
</g>
</svg>
