<svg width="120" height="20" viewBox="0 0 120 20" fill="none" xmlns="http://www.w3.org/2000/svg">
<mask id="mask0_1_1233" style="mask-type:luminance" maskUnits="userSpaceOnUse" x="0" y="0" width="120" height="20">
<path d="M119.712 0.509277H0.289062V19.5093H119.712V0.509277Z" fill="white"/>
</mask>
<g mask="url(#mask0_1_1233)">
<g opacity="0.3">
<path d="M16.196 0.55127L10.5924 10.2722L4.98885 0.55127H4.96877H0.289062V19.491H4.96877V9.93077L8.86517 16.6792L9.56813 17.8843H11.6168L12.5005 16.3177L16.196 9.93077V19.491H20.8757V0.55127H16.196Z" fill="white"/>
<path d="M32.4057 12.6209C32.4057 11.1949 31.5019 10.1305 30.1964 10.1305C28.8306 10.1305 27.9068 11.2954 27.9068 12.6209C27.9068 14.0068 28.8306 15.1114 30.1964 15.1114C31.5019 15.1114 32.4057 14.0469 32.4057 12.6209ZM22.9258 12.6611C22.9258 8.52369 25.7577 5.73193 28.6298 5.73193C30.6182 5.73193 31.8835 6.75625 32.6266 7.78056L33.0886 6.09346H37.2862V19.1283H33.0886L32.6266 17.4412C31.8835 18.4856 30.6182 19.4899 28.6298 19.4899C25.7577 19.5099 22.9258 16.7182 22.9258 12.6611Z" fill="white"/>
<path d="M49.4559 6.65582V10.6326C48.532 10.1104 46.8449 9.62834 45.4189 9.62834C44.5955 9.62834 44.1536 9.78902 44.1536 10.1104C44.1536 10.4317 44.6155 10.6326 45.8809 10.9138C48.1303 11.3958 50.3798 12.1992 50.3798 15.0311C50.3798 17.7626 48.2308 19.4899 44.3143 19.4899C42.3058 19.4899 40.6589 19.0279 39.5542 18.4254V14.1675C40.7392 14.9508 42.1652 15.5935 44.0933 15.5935C45.0574 15.5935 45.6198 15.4328 45.6198 15.0713C45.6198 14.6495 44.9168 14.5089 43.3502 14.1072C41.3418 13.585 39.3936 12.6009 39.3936 10.1505C39.3936 7.5998 41.4824 5.73193 45.1779 5.73193C46.7244 5.73193 48.3714 6.07337 49.4559 6.65582Z" fill="white"/>
<path d="M57.249 7.0975C57.972 6.33429 59.1771 5.71167 60.6031 5.71167C63.3748 5.71167 65.102 7.39877 65.102 10.3311V19.088H60.1412V11.6165C60.1412 10.5521 59.6792 10.0901 58.7754 10.0901C57.8314 10.0901 57.249 10.7127 57.249 11.5362V19.0679H52.2881V0.509766H57.249V7.0975Z" fill="white"/>
<path d="M76.269 12.6209C76.269 11.1949 75.3652 10.1305 74.0597 10.1305C72.6939 10.1305 71.77 11.2954 71.77 12.6209C71.77 14.0068 72.6939 15.1114 74.0597 15.1114C75.3652 15.1114 76.269 14.0469 76.269 12.6209ZM66.7891 12.6611C66.7891 8.52369 69.621 5.73193 72.4931 5.73193C74.4814 5.73193 75.7468 6.75625 76.4899 7.78056L76.9519 6.09346H81.1495V19.1283H76.9519L76.4899 17.4412C75.7468 18.4856 74.4814 19.4899 72.4931 19.4899C69.621 19.5099 66.7891 16.7182 66.7891 12.6611Z" fill="white"/>
<path d="M88.5212 12.5806C88.5212 14.0267 89.425 15.0711 90.7305 15.0711C92.0761 15.0711 93 13.9865 93 12.6007C93 11.2349 92.0761 10.0901 90.7104 10.0901C89.4049 10.0901 88.5212 11.1546 88.5212 12.5806ZM88.5613 7.70004C89.3045 6.59539 90.8309 5.71167 92.4377 5.71167C95.4303 5.71167 97.981 8.403 97.981 12.5806C97.981 16.7582 95.2093 19.4495 92.2167 19.4495C90.3288 19.4495 89.0233 18.4252 88.3002 17.4009L87.8383 19.088H83.6406V0.509766H88.5814L88.5613 7.70004Z" fill="white"/>
<path d="M104.806 0.509766H99.8652V19.088H104.806V0.509766Z" fill="white"/>
<path d="M115.052 11.1944C115.032 10.2906 114.43 9.50729 113.365 9.50729C112.401 9.50729 111.598 10.15 111.256 11.1944H115.052ZM119.591 13.9259H111.437C112.06 15.1711 113.486 15.7536 115.032 15.7536C116.438 15.7536 117.683 15.2916 118.828 14.7895V18.5654C117.482 19.2081 115.976 19.5295 114.329 19.5295C109.348 19.5295 106.637 16.5971 106.637 12.6606C106.637 8.58339 109.549 5.75146 113.385 5.75146C116.86 5.75146 119.692 8.06119 119.692 12.4396C119.712 12.9217 119.672 13.4238 119.591 13.9259Z" fill="white"/>
</g>
</g>
</svg>
