<svg width="32" height="20" viewBox="0 0 32 20" fill="none" xmlns="http://www.w3.org/2000/svg">
<path d="M30 0.5H2C1.17157 0.5 0.5 1.17157 0.5 2V18C0.5 18.8284 1.17157 19.5 2 19.5H30C30.8284 19.5 31.5 18.8284 31.5 18V2C31.5 1.17157 30.8284 0.5 30 0.5Z" fill="white"/>
<path d="M30 0.5H2C1.17157 0.5 0.5 1.17157 0.5 2V18C0.5 18.8284 1.17157 19.5 2 19.5H30C30.8284 19.5 31.5 18.8284 31.5 18V2C31.5 1.17157 30.8284 0.5 30 0.5Z" stroke="#EDEEF0"/>
<path d="M5.80878 6.40002H3.72868C3.58634 6.40002 3.46528 6.50451 3.44308 6.64649L2.60179 12.0358C2.58506 12.1421 2.66658 12.238 2.77334 12.238H3.76639C3.90874 12.238 4.02979 12.1335 4.05199 11.9912L4.27889 10.5376C4.30079 10.3954 4.42215 10.2909 4.56419 10.2909H5.22268C6.59289 10.2909 7.38369 9.62093 7.59021 8.29336C7.68328 7.71254 7.59416 7.25619 7.32498 6.93659C7.02935 6.58564 6.50499 6.40002 5.80878 6.40002ZM6.04876 8.36834C5.93501 9.12248 5.36472 9.12248 4.81329 9.12248H4.4994L4.71961 7.71408C4.73269 7.62895 4.80569 7.56626 4.89085 7.56626H5.03471C5.41034 7.56626 5.76468 7.56626 5.94778 7.78261C6.05697 7.91168 6.09043 8.10344 6.04876 8.36834Z" fill="#253B80"/>
<path d="M12.0258 8.34428H11.0297C10.9448 8.34428 10.8715 8.40698 10.8584 8.4921L10.8143 8.7736L10.7447 8.67157C10.529 8.35535 10.0482 8.24963 9.56822 8.24963C8.46749 8.24963 7.52735 9.09197 7.34425 10.2736C7.24905 10.863 7.3844 11.4266 7.71532 11.8196C8.01886 12.181 8.45319 12.3316 8.96995 12.3316C9.85686 12.3316 10.3487 11.7554 10.3487 11.7554L10.3043 12.0351C10.2875 12.142 10.3691 12.2379 10.4752 12.2379H11.3725C11.5151 12.2379 11.6355 12.1334 11.6581 11.9911L12.1964 8.54649C12.2134 8.44047 12.1322 8.34428 12.0258 8.34428ZM10.6373 10.3031C10.5412 10.878 10.0895 11.264 9.51347 11.264C9.22422 11.264 8.99306 11.1703 8.84464 10.9927C8.69743 10.8163 8.64146 10.5652 8.6883 10.2856C8.77803 9.7155 9.2373 9.31692 9.80455 9.31692C10.0874 9.31692 10.3173 9.41188 10.4688 9.59104C10.6206 9.77204 10.6808 10.0247 10.6373 10.3031Z" fill="#253B80"/>
<path d="M17.3304 8.34436H16.3294C16.2339 8.34436 16.1442 8.3923 16.0901 8.47251L14.7095 10.5272L14.1243 8.55272C14.0875 8.42918 13.9747 8.34436 13.8469 8.34436H12.8633C12.7438 8.34436 12.6607 8.46237 12.6988 8.57607L13.8013 11.8452L12.7648 13.3237C12.6833 13.4402 12.7654 13.6003 12.9062 13.6003H13.906C14.0008 13.6003 14.0897 13.5536 14.1435 13.4749L17.4728 8.6194C17.5524 8.50324 17.4706 8.34436 17.3304 8.34436Z" fill="#253B80"/>
<path d="M20.6447 6.40002H18.5643C18.4223 6.40002 18.3012 6.50451 18.279 6.64649L17.4377 12.0358C17.421 12.1421 17.5025 12.238 17.6087 12.238H18.6762C18.7754 12.238 18.8603 12.1648 18.8758 12.0653L19.1145 10.5376C19.1364 10.3954 19.2578 10.2909 19.3998 10.2909H20.058C21.4285 10.2909 22.219 9.62093 22.4258 8.29336C22.5192 7.71254 22.4295 7.25619 22.1603 6.93659C21.865 6.58564 21.3409 6.40002 20.6447 6.40002ZM20.8847 8.36834C20.7712 9.12248 20.201 9.12248 19.6492 9.12248H19.3356L19.5562 7.71408C19.5692 7.62895 19.6416 7.56626 19.7271 7.56626H19.871C20.2463 7.56626 20.6009 7.56626 20.784 7.78261C20.8932 7.91168 20.9264 8.10344 20.8847 8.36834Z" fill="#179BD7"/>
<path d="M26.8643 8.34428H25.8688C25.7834 8.34428 25.7107 8.40698 25.6979 8.4921L25.6538 8.7736L25.5838 8.67157C25.3682 8.35535 24.8876 8.24963 24.4077 8.24963C23.3069 8.24963 22.3671 9.09197 22.184 10.2736C22.0891 10.863 22.2239 11.4266 22.5548 11.8196C22.8589 12.181 23.2926 12.3316 23.8094 12.3316C24.6963 12.3316 25.1881 11.7554 25.1881 11.7554L25.1437 12.0351C25.127 12.142 25.2085 12.2379 25.3153 12.2379H26.2122C26.3543 12.2379 26.4753 12.1334 26.4975 11.9911L27.0362 8.54649C27.0526 8.44047 26.9711 8.34428 26.8643 8.34428ZM25.4759 10.3031C25.3804 10.878 24.9281 11.264 24.352 11.264C24.0634 11.264 23.8316 11.1703 23.6832 10.9927C23.536 10.8163 23.4806 10.5652 23.5268 10.2856C23.6172 9.7155 24.0758 9.31692 24.6431 9.31692C24.926 9.31692 25.1559 9.41188 25.3074 9.59104C25.4597 9.77204 25.52 10.0247 25.4759 10.3031Z" fill="#179BD7"/>
<path d="M28.0376 6.54803L27.1838 12.036C27.1671 12.1423 27.2486 12.2382 27.3548 12.2382H28.2131C28.3557 12.2382 28.4768 12.1337 28.4987 11.9914L29.3406 6.60242C29.3573 6.49609 29.2758 6.3999 29.1696 6.3999H28.2085C28.1237 6.40021 28.0507 6.4629 28.0376 6.54803Z" fill="#179BD7"/>
</svg>
