<svg width="32" height="20" viewBox="0 0 32 20" fill="none" xmlns="http://www.w3.org/2000/svg">
<path d="M30 0.5H2C1.17157 0.5 0.5 1.17157 0.5 2V18C0.5 18.8284 1.17157 19.5 2 19.5H30C30.8284 19.5 31.5 18.8284 31.5 18V2C31.5 1.17157 30.8284 0.5 30 0.5Z" fill="white"/>
<path d="M30 0.5H2C1.17157 0.5 0.5 1.17157 0.5 2V18C0.5 18.8284 1.17157 19.5 2 19.5H30C30.8284 19.5 31.5 18.8284 31.5 18V2C31.5 1.17157 30.8284 0.5 30 0.5Z" stroke="#EDEEF0"/>
<path fill-rule="evenodd" clip-rule="evenodd" d="M11.2979 12.9532H9.67083L8.45076 8.29857C8.39285 8.08446 8.2699 7.89517 8.08903 7.80596C7.63765 7.58176 7.14026 7.40333 6.59766 7.31334V7.13414H9.21866C9.5804 7.13414 9.8517 7.40333 9.89692 7.71597L10.53 11.0735L12.1562 7.13414H13.738L11.2979 12.9532ZM14.6404 12.9532H13.1038L14.3691 7.13415H15.9057L14.6404 12.9532ZM17.897 8.74626C17.9422 8.43285 18.2135 8.25365 18.53 8.25365C19.0274 8.20865 19.5692 8.29864 20.0214 8.52206L20.2927 7.26919C19.8405 7.08999 19.3432 7 18.8918 7C17.4004 7 16.3152 7.80603 16.3152 8.92469C16.3152 9.77571 17.0839 10.2226 17.6265 10.4917C18.2135 10.7602 18.4396 10.9394 18.3944 11.2078C18.3944 11.6104 17.9422 11.7896 17.4908 11.7896C16.9482 11.7896 16.4056 11.6554 15.909 11.4312L15.6377 12.6849C16.1803 12.9083 16.7674 12.9983 17.31 12.9983C18.9822 13.0425 20.0214 12.2372 20.0214 11.0286C20.0214 9.50652 17.897 9.4173 17.897 8.74626ZM25.4011 12.9532L24.1811 7.13414H22.8706C22.5993 7.13414 22.328 7.31334 22.2375 7.58176L19.9783 12.9532H21.5601L21.8758 12.103H23.8193L24.0002 12.9532H25.4011ZM23.0942 8.7013L23.5456 10.8944H22.2803L23.0942 8.7013Z" fill="#1938C4"/>
</svg>
