<svg width="32" height="20" viewBox="0 0 32 20" fill="none" xmlns="http://www.w3.org/2000/svg">
<path d="M30 0.5H2C1.17157 0.5 0.5 1.17157 0.5 2V18C0.5 18.8284 1.17157 19.5 2 19.5H30C30.8284 19.5 31.5 18.8284 31.5 18V2C31.5 1.17157 30.8284 0.5 30 0.5Z" fill="white"/>
<path d="M30 0.5H2C1.17157 0.5 0.5 1.17157 0.5 2V18C0.5 18.8284 1.17157 19.5 2 19.5H30C30.8284 19.5 31.5 18.8284 31.5 18V2C31.5 1.17157 30.8284 0.5 30 0.5Z" stroke="#EDEEF0"/>
<mask id="mask0_1826_299" style="mask-type:luminance" maskUnits="userSpaceOnUse" x="5" y="6" width="22" height="9">
<path d="M27 6H5V15H27V6Z" fill="white"/>
</mask>
<g mask="url(#mask0_1826_299)">
<path d="M9.02326 7.16032C8.76545 7.46432 8.35295 7.70409 7.94045 7.66984C7.88889 7.2588 8.09084 6.82207 8.32717 6.55233C8.58498 6.23977 9.03615 6.01713 9.40139 6C9.44435 6.42816 9.27678 6.84776 9.02326 7.16032ZM9.39709 7.75119C8.79982 7.71694 8.2885 8.08944 8.0049 8.08944C7.71701 8.08944 7.28303 7.76832 6.81037 7.77688C6.19592 7.78544 5.62443 8.13226 5.31076 8.68459C4.66623 9.78925 5.14318 11.4248 5.76623 12.324C6.07131 12.7693 6.43654 13.2574 6.91779 13.2402C7.37326 13.2231 7.55373 12.9448 8.10373 12.9448C8.65803 12.9448 8.81701 13.2402 9.29826 13.2317C9.7967 13.2231 10.1104 12.7864 10.4154 12.3411C10.7635 11.8359 10.9053 11.3435 10.9139 11.3178C10.9053 11.3092 9.95139 10.9453 9.94279 9.84919C9.9342 8.93292 10.6947 8.49619 10.7291 8.4705C10.2994 7.83682 9.62912 7.76832 9.39709 7.75119ZM12.8475 6.50951V13.1846H13.8873V10.9025H15.3268C16.6416 10.9025 17.5654 10.0033 17.5654 8.70171C17.5654 7.4001 16.6588 6.50951 15.3612 6.50951H12.8475ZM13.8873 7.38297H15.0862C15.9885 7.38297 16.5041 7.86251 16.5041 8.70599C16.5041 9.54948 15.9885 10.0333 15.0819 10.0333H13.8873V7.38297ZM19.4647 13.236C20.1178 13.236 20.7236 12.9063 20.9986 12.3839H21.0201V13.1846H21.9826V9.86204C21.9826 8.89867 21.2092 8.27783 20.019 8.27783C18.9147 8.27783 18.0983 8.90723 18.0682 9.77212H19.0049C19.0822 9.36108 19.4647 9.09134 19.9889 9.09134C20.6248 9.09134 20.9815 9.38677 20.9815 9.93054V10.2988L19.6838 10.3758C18.4764 10.4486 17.8233 10.941 17.8233 11.7973C17.8233 12.6622 18.4979 13.236 19.4647 13.236ZM19.744 12.4439C19.1897 12.4439 18.8373 12.1784 18.8373 11.7716C18.8373 11.352 19.1768 11.108 19.8256 11.0695L20.9815 10.9967V11.3735C20.9815 11.9986 20.4487 12.4439 19.744 12.4439ZM23.2674 15C24.2815 15 24.7584 14.6147 25.1752 13.4458L27.0014 8.34206H25.9444L24.7197 12.2854H24.6983L23.4736 8.34206H22.3865L24.1483 13.2017L24.0537 13.4971C23.8947 13.9981 23.6369 14.1908 23.1772 14.1908C23.0955 14.1908 22.9365 14.1822 22.8721 14.1736V14.9743C22.9322 14.9914 23.1901 15 23.2674 15Z" fill="black"/>
</g>
</svg>
