<svg width="16" height="17" viewBox="0 0 16 17" fill="none" xmlns="http://www.w3.org/2000/svg">
<mask id="mask0_1826_278" style="mask-type:luminance" maskUnits="userSpaceOnUse" x="0" y="0" width="16" height="17">
<path d="M16 0.766602H0V16.7666H16V0.766602Z" fill="white"/>
</mask>
<g mask="url(#mask0_1826_278)">
<path d="M6.01399 8.4335L7.34732 9.76684L10.3474 6.76684M13.3474 8.76684C13.3474 12.0391 9.77804 14.4191 8.47932 15.1767C8.33172 15.2628 8.25792 15.3059 8.15378 15.3282C8.07295 15.3455 7.95503 15.3455 7.8742 15.3282C7.77005 15.3059 7.69626 15.2628 7.54866 15.1767C6.24996 14.4191 2.68066 12.0391 2.68066 8.76684V5.57857C2.68066 5.04556 2.68066 4.77906 2.76783 4.54997C2.84484 4.3476 2.96998 4.16702 3.13243 4.02386C3.31632 3.86179 3.56585 3.76822 4.06493 3.58107L7.63946 2.24062C7.77805 2.18864 7.84735 2.16266 7.91864 2.15236C7.98188 2.14322 8.0461 2.14322 8.10933 2.15236C8.18062 2.16266 8.24992 2.18864 8.38852 2.24062L11.9631 3.58107C12.4622 3.76822 12.7117 3.86179 12.8956 4.02386C13.0581 4.16702 13.1832 4.3476 13.2602 4.54997C13.3474 4.77906 13.3474 5.04556 13.3474 5.57857V8.76684Z" stroke="#03BF5A" stroke-width="1.5" stroke-linecap="round" stroke-linejoin="round"/>
</g>
</svg>
