<svg width="32" height="32" viewBox="0 0 32 32" fill="none" xmlns="http://www.w3.org/2000/svg">
<g opacity="0.2">
<path d="M18.6602 15.9772L23.4566 11.1759C23.768 10.822 23.9329 10.3627 23.9179 9.89156C23.9029 9.42037 23.7089 8.97259 23.3756 8.63924C23.0422 8.30589 22.5945 8.11199 22.1233 8.09695C21.6521 8.0819 21.1929 8.24685 20.8389 8.55825L16.0376 13.3546L11.2276 8.54342C11.0554 8.37113 10.8508 8.23447 10.6257 8.14123C10.4006 8.04799 10.1594 8 9.91573 8C9.67208 8 9.43082 8.04799 9.20572 8.14123C8.98062 8.23447 8.77609 8.37113 8.60381 8.54342C8.43152 8.7157 8.29486 8.92023 8.20162 9.14533C8.10838 9.37043 8.06039 9.61169 8.06039 9.85534C8.06039 10.099 8.10838 10.3402 8.20162 10.5653C8.29486 10.7904 8.43152 10.995 8.60381 11.1673L13.415 15.9772L8.61864 20.7773C8.43054 20.9454 8.27872 21.1502 8.17247 21.379C8.06622 21.6079 8.00778 21.856 8.00073 22.1082C7.99367 22.3604 8.03814 22.6114 8.13142 22.8458C8.2247 23.0803 8.36484 23.2932 8.54324 23.4716C8.72165 23.65 8.93458 23.7901 9.169 23.8834C9.40343 23.9767 9.65442 24.0212 9.90663 24.0141C10.1588 24.0071 10.4069 23.9486 10.6358 23.8424C10.8646 23.7361 11.0694 23.5843 11.2375 23.3962L16.0376 18.5998L20.8327 23.3962C21.1807 23.7441 21.6526 23.9396 22.1447 23.9396C22.6367 23.9396 23.1086 23.7441 23.4566 23.3962C23.8045 23.0482 24 22.5763 24 22.0843C24 21.5922 23.8045 21.1203 23.4566 20.7724L18.6602 15.9772Z" fill="white"/>
</g>
</svg>
