<svg width="139" height="25" viewBox="0 0 139 25" fill="none" xmlns="http://www.w3.org/2000/svg">
<mask id="mask0_9_461" style="mask-type:luminance" maskUnits="userSpaceOnUse" x="0" y="1" width="139" height="24">
<path d="M138.658 1.48877H0.556641V24.4888H138.658V1.48877Z" fill="white"/>
</mask>
<g mask="url(#mask0_9_461)">
<g opacity="0.4">
<path fill-rule="evenodd" clip-rule="evenodd" d="M19.1152 23.3412H12.5573V12.936C12.5573 11.844 11.7733 11.1439 10.8549 11.1439C9.95885 11.1439 8.87802 11.872 8.87802 12.936V23.3412H2.99219V6.76461L1.09375 5.42055C3.26659 4.69254 6.90114 3.12452 8.87802 2.02686V10.7184C9.66763 9.73832 11.5885 8.47826 14.0246 8.47826C17.1159 8.47826 18.4431 10.5223 18.4431 12.964V21.7451C18.4431 22.0141 18.6671 22.5404 19.1152 23.3412ZM86.7039 23.3412H80.146V12.936C80.146 11.844 79.3621 11.1439 78.4436 11.1439C77.5476 11.1439 76.4667 11.872 76.4667 12.936V23.3412H70.5809V6.76461L68.6825 5.42055C70.8553 4.69254 74.4899 3.12452 76.4667 2.02686V10.7184C77.2508 9.73832 79.1716 8.47826 81.6133 8.47826C84.7046 8.47826 86.0319 10.5223 86.0319 12.964V21.7451C86.0319 22.0141 86.2558 22.5404 86.7039 23.3412ZM33.4517 20.8659V21.9019C32.1468 23.0276 30.7019 23.9516 27.605 23.9516C22.7105 23.9516 19.72 20.6699 19.72 16.6266C19.72 11.8048 22.7945 8.51751 27.3026 8.51751C31.766 8.51751 33.4517 11.5752 33.4517 15.4225H25.2978C25.6505 19.8523 28.1203 21.8739 30.3771 21.8739C31.4636 21.8739 32.69 21.5098 33.4517 20.8659ZM27.0282 14.5489C28.3387 14.5489 28.4899 14.1738 28.4899 13.0761C28.4899 12.236 28.3387 10.1639 27.0282 10.1639C25.7178 10.1639 25.5666 12.236 25.5666 13.0761C25.5666 14.1737 25.7177 14.5489 27.0282 14.5489ZM138.119 20.8603V21.8964C136.814 23.022 135.37 23.946 132.273 23.946C127.378 23.946 124.388 20.6643 124.388 16.6266C124.388 11.7992 127.462 8.51751 131.976 8.51751C136.434 8.51751 138.119 11.5752 138.119 15.4169H129.965C130.318 19.8523 132.788 21.8683 135.045 21.8683C136.131 21.8683 137.358 21.5042 138.119 20.8603ZM131.696 14.5433C133.006 14.5433 133.157 14.1739 133.157 13.0761C133.157 12.236 133.006 10.1583 131.696 10.1583C130.385 10.1583 130.234 12.236 130.234 13.0761C130.234 14.1737 130.385 14.5433 131.696 14.5433ZM50.0786 20.7371L50.7338 20.8769C50.4372 22.081 49.569 23.9514 46.7745 23.9514C44.4448 23.9514 43.7896 22.5178 43.3024 21.0057C42.8936 22.4058 41.2975 23.9514 38.2622 23.9514C35.5517 23.9514 34.0621 22.7473 34.0621 20.4737C34.0621 17.948 36.5262 16.0943 42.6808 14.2686V11.6086C42.6808 10.231 41.9471 9.75492 41.1351 9.75492C40.4015 9.75492 39.2366 10.539 39.2366 11.7766C39.2366 12.3646 39.3484 12.8126 39.4272 13.4007C39.4272 14.1567 38.5592 15.3103 37.2319 15.3103C35.7703 15.3103 35.0646 14.2462 35.0646 13.0086C35.0646 10.9869 36.9351 8.51727 41.8409 8.51727C46.9371 8.51727 48.5611 11.2109 48.5611 13.7926V20.6417C48.5611 21.0617 48.729 21.4818 49.1884 21.4818C49.5915 21.4818 49.8714 21.2523 50.0786 20.7371ZM42.7088 20.2219V15.1369C40.6479 15.9713 39.9367 18.0434 39.9367 19.6339C39.9367 20.9163 40.3341 21.5043 41.2863 21.5043C42.1152 21.5043 42.7088 20.9723 42.7088 20.2219ZM58.5069 23.3412H51.7419V6.76461L49.9386 5.42055C51.9995 4.69254 55.7852 3.12452 57.6669 2.02686V21.7451C57.6669 21.9971 57.9469 22.5292 58.5069 23.3412ZM95.6026 23.3412H88.832V6.76461L87.0287 5.42055C89.0896 4.69254 92.8809 3.12452 94.7626 2.02686V21.7451C94.7626 21.9971 95.0425 22.5292 95.6026 23.3412ZM68.66 21.622V22.658C67.6744 23.5036 66.0392 23.9516 64.2751 23.9516C61.363 23.9516 60.3549 21.7899 60.3549 19.9643V10.2143H58.9493L66.3248 3.74051V9.07746H68.66V10.2143H66.3248V20.7819C66.3248 21.622 66.8176 22.0139 67.4112 22.0139C67.7753 22.0139 68.4249 21.8463 68.66 21.622ZM101.231 8.28789C99.5563 8.28789 98.2179 6.89898 98.2179 5.15731C98.2179 3.41565 99.5563 2.02686 101.231 2.02686C102.905 2.02686 104.238 3.41565 104.238 5.15731C104.238 6.89898 102.905 8.28789 101.231 8.28789ZM105.19 23.3412H98.2795V12.9024L96.381 11.5528C98.5539 10.8248 102.2 9.25111 104.182 8.15345V21.7451C104.182 22.0085 104.518 22.5404 105.19 23.3412ZM123.945 23.3412H117.175V12.9024C117.175 11.8104 116.396 11.1048 115.472 11.1048C114.576 11.1048 113.495 11.8384 113.495 12.9024V23.3412H107.609V12.9024L105.716 11.5528C107.884 10.8248 111.362 9.25111 113.344 8.15345V11.0207C114.318 9.72707 116.206 8.43349 118.642 8.43349C121.733 8.43349 123.06 10.4887 123.06 12.9304V21.7451C123.06 22.0028 123.357 22.5348 123.945 23.3412Z" fill="white"/>
</g>
</g>
</svg>
