<svg width="63" height="34" viewBox="0 0 63 34" fill="none" xmlns="http://www.w3.org/2000/svg">
<mask id="mask0_9_1579" style="mask-type:luminance" maskUnits="userSpaceOnUse" x="1" y="0" width="62" height="33">
<path d="M62.3598 0.906738H1.57764V32.9067H62.3598V0.906738Z" fill="white"/>
</mask>
<g mask="url(#mask0_9_1579)">
<path opacity="0.45" d="M33.1235 16.8494C33.1235 25.4811 26.1258 32.478 17.4933 32.478C8.86225 32.478 1.86475 25.4806 1.86475 16.8494C1.86475 8.2169 8.86271 1.21924 17.4933 1.21924C26.1255 1.21924 33.1235 8.21659 33.1235 16.8494Z" fill="white"/>
<path d="M43.0491 4.45068C41.8238 4.45068 40.9567 5.15896 40.9567 6.21741C40.9567 7.18014 41.6731 7.60172 42.4846 7.84877C43.0887 8.03195 43.4481 8.14287 43.4481 8.5332C43.4481 8.85979 43.1998 9.03482 42.786 9.03482C42.2376 9.03482 41.7608 8.72416 41.473 8.38238L40.701 9.44825C41.0444 9.82252 41.8399 10.2604 42.8663 10.2604C44.2597 10.2604 45.0304 9.4564 45.0304 8.38238C45.0304 7.35554 44.3301 6.94137 43.4234 6.65505C42.9614 6.51152 42.5402 6.41628 42.5402 6.06635C42.5402 5.84364 42.7156 5.67627 43.1294 5.67627C43.6062 5.67627 43.9966 5.89935 44.2263 6.16171L44.9514 5.09485C44.5462 4.71304 43.9002 4.45068 43.0491 4.45068ZM47.1797 4.56198L45.1033 10.1489H46.7264L46.9808 9.34498H49.0893L49.3525 10.1489H51.0163L48.9387 4.56198H47.1797ZM35.3364 4.56222V8.1194C35.3364 9.4963 36.1727 10.2604 37.8032 10.2604C39.388 10.2604 40.2711 9.4963 40.2711 8.1194V4.56222H38.6715V7.65817C38.6715 8.27059 38.6073 8.86782 37.8032 8.86782C37.0003 8.86782 36.936 8.27059 36.936 7.65817V4.56222H35.3364ZM48.0159 5.89082H48.0629C48.095 6.12959 48.1666 6.46433 48.2543 6.72669L48.6842 8.07172H47.3946L47.8245 6.72669C47.9122 6.46433 47.9838 6.12959 48.0159 5.89082ZM42.8898 11.151C40.8122 11.151 39.8252 12.6872 39.8252 14.0638C39.8252 15.4324 40.8122 16.9604 42.8898 16.9604C44.9748 16.9604 45.963 15.4324 45.963 14.0638C45.963 12.6872 44.9748 11.151 42.8898 11.151ZM35.3611 11.2623V12.5596H36.7372V16.8492H38.3368V12.5596H39.7128V11.2623H35.3611ZM53.5559 11.2623L51.4783 16.8492H53.1013L53.3558 16.0451H55.4655L55.7286 16.8492H57.3912L55.3136 11.2623H53.5559ZM56.2944 11.2623L58.3794 14.8593V16.8492H60.0655V14.8593L62.1518 11.2623H60.4484L59.6925 12.6391C59.5331 12.9335 59.3095 13.3795 59.2626 13.6735H59.2305C59.1835 13.3795 58.96 12.9335 58.8006 12.6391L58.0447 11.2623H56.2944ZM46.5362 11.2626V16.8492H48.5965C50.5383 16.8492 51.7006 15.7672 51.7006 14.0564C51.7006 12.3129 50.5704 11.2626 48.5965 11.2626H46.5362ZM42.8824 12.5439C43.663 12.5439 44.314 13.0612 44.314 14.0638C44.314 15.0582 43.663 15.5683 42.8824 15.5683C42.1178 15.5683 41.4656 15.0582 41.4656 14.0638C41.4656 13.0612 42.1178 12.5439 42.8824 12.5439ZM48.1358 12.5518H48.4779C49.5044 12.5518 50.0528 13.0451 50.0528 14.0564C50.0528 15.0668 49.5044 15.5596 48.4779 15.5596H48.1358V12.5518ZM54.3909 12.5909H54.4391C54.4712 12.8302 54.5428 13.1643 54.6305 13.4277L55.0604 14.7728H53.7708L54.2007 13.4277C54.2871 13.1643 54.3588 12.8302 54.3909 12.5909ZM41.5051 19.0924L41.4656 19.0998V20.5339H41.7077V19.6272L42.5933 20.561L42.6205 20.5561V19.1195H42.3784V20.0126L41.5051 19.0924ZM43.1405 19.0924L43.1023 19.0998V20.5339H43.3444V19.6272L44.23 20.561L44.2572 20.5561V19.1195H44.0151V20.0126L43.1405 19.0924ZM57.5543 19.0924L57.5148 19.0998V20.5339H57.7569V19.6272L58.6425 20.561L58.6697 20.5561V19.1195H58.4288V20.0126L57.5543 19.0924ZM38.9593 19.0948C38.5604 19.0948 38.2083 19.3876 38.2083 19.8273C38.2083 20.2634 38.5554 20.5573 38.9593 20.5573C39.1718 20.5573 39.3361 20.5018 39.4868 20.4029V19.7853H38.9247V19.9965H39.2558V20.2757C39.1718 20.3214 39.0915 20.3436 38.9692 20.3436C38.6888 20.3436 38.4665 20.1287 38.4665 19.8273C38.4665 19.5457 38.6493 19.3184 38.9704 19.3184C39.1014 19.3184 39.2373 19.3616 39.3509 19.4358L39.4608 19.2431C39.3163 19.1529 39.1681 19.0948 38.9593 19.0948ZM50.3876 19.0961C49.9441 19.0961 49.6254 19.4086 49.6254 19.8273C49.6254 20.2485 49.9404 20.5573 50.3876 20.5573C50.563 20.5573 50.7322 20.4993 50.8495 20.4239L50.7767 20.2189C50.663 20.2868 50.516 20.3313 50.39 20.3313C50.0788 20.3313 49.8848 20.125 49.8848 19.8273C49.8848 19.5284 50.0738 19.3221 50.3851 19.3221C50.5098 19.3221 50.6482 19.3654 50.7606 19.4296L50.8446 19.2245C50.7235 19.1517 50.563 19.0961 50.3876 19.0961ZM51.8377 19.0961C51.4289 19.0961 51.1151 19.4073 51.1151 19.8273C51.1151 20.2461 51.4153 20.5573 51.8241 20.5573C52.2342 20.5573 52.5467 20.2461 52.5467 19.8273C52.5467 19.4073 52.2478 19.0961 51.8377 19.0961ZM52.9605 19.0985L52.9247 19.101L52.8642 20.5339H53.1026L53.1174 19.6853L53.567 20.3622H53.5967L54.0426 19.6865L54.0623 20.5339H54.2995L54.2402 19.101L54.2007 19.0985L53.588 20.0361L52.9605 19.0985ZM36.5951 19.0998L35.9429 20.5339H36.1912L36.3283 20.2102H36.8879L37.025 20.5339H37.2807L36.6297 19.0998H36.5951ZM40.4144 19.0998L39.7622 20.5339H40.0105L40.1488 20.2102H40.7072L40.8455 20.5339H41.0987L40.449 19.0998H40.4144ZM56.4636 19.0998L55.8102 20.5339H56.0597L56.1968 20.2102H56.7576L56.8935 20.5339H57.1491L56.4982 19.0998H56.4636ZM55.1283 19.1097C55.0122 19.1097 54.8949 19.1171 54.7701 19.1331V20.5339H55.011V20.0731C55.0567 20.0756 55.1061 20.0793 55.1518 20.0793C55.5137 20.0793 55.7151 19.8743 55.7151 19.5865C55.7151 19.3209 55.5174 19.1097 55.1283 19.1097ZM44.7389 19.1195V20.5339H45.6023V20.314H44.981V19.9224H45.5418V19.7087H44.981V19.3382H45.6023V19.1195H44.7389ZM45.9729 19.1195V19.3394H46.4225V20.5339H46.6646V19.3394H47.1118V19.1195H45.9729ZM47.402 19.1195V19.3394H47.8517V20.5339H48.0938V19.3394H48.5421V19.1195H47.402ZM59.0094 19.1195L59.5072 19.9385V20.5339H59.7493V19.9397L60.2471 19.1195H59.9766L59.6319 19.7174L59.2861 19.1195H59.0094ZM51.8315 19.3122C52.1008 19.3122 52.2873 19.5321 52.2873 19.8273C52.2873 20.1213 52.1008 20.3424 51.8315 20.3424C51.5623 20.3424 51.3745 20.1213 51.3745 19.8273C51.3745 19.5321 51.5623 19.3122 51.8315 19.3122ZM55.1691 19.332C55.3667 19.332 55.4643 19.4543 55.4643 19.5939C55.4643 19.7544 55.3643 19.8681 55.1456 19.8681C55.1036 19.8681 55.0592 19.8644 55.011 19.8607V19.3431C55.0604 19.3357 55.1147 19.332 55.1691 19.332ZM36.6087 19.5457L36.8088 20.0188H36.4074L36.6087 19.5457ZM40.428 19.5457L40.6293 20.0188H40.2267L40.428 19.5457ZM56.4772 19.5457L56.6773 20.0188H56.2758L56.4772 19.5457Z" fill="white"/>
</g>
</svg>
