<svg width="25" height="25" viewBox="0 0 25 25" fill="none" xmlns="http://www.w3.org/2000/svg">
<mask id="mask0_9_1677" style="mask-type:luminance" maskUnits="userSpaceOnUse" x="0" y="0" width="25" height="25">
<path d="M24.8882 0.958008H0.888184V24.958H24.8882V0.958008Z" fill="white"/>
</mask>
<g mask="url(#mask0_9_1677)">
<path d="M12.8882 0.958008C6.26298 0.958008 0.888184 6.32603 0.888184 12.9517C0.888184 19.5837 6.26298 24.958 12.8882 24.958C19.517 24.958 24.8873 19.5836 24.8873 12.9517C24.8873 6.32603 19.517 0.958008 12.8882 0.958008ZM13.7433 19.6288C13.4646 19.8768 13.1416 20.0015 12.7757 20.0015C12.3972 20.0015 12.067 19.8791 11.7851 19.6338C11.5028 19.3889 11.3613 19.0461 11.3613 18.6056C11.3613 18.2148 11.4982 17.886 11.7711 17.6194C12.0439 17.3529 12.3787 17.2196 12.7757 17.2196C13.1665 17.2196 13.4954 17.3529 13.7624 17.6194C14.0289 17.886 14.1626 18.2148 14.1626 18.6056C14.1621 19.0397 14.0225 19.3808 13.7433 19.6288ZM17.2186 11.0133C17.0044 11.4103 16.7501 11.7527 16.4551 12.0414C16.161 12.3301 15.6321 12.8153 14.8686 13.4974C14.6581 13.6898 14.4887 13.8588 14.3618 14.0042C14.2348 14.1502 14.14 14.2834 14.0781 14.4045C14.0157 14.5255 13.9679 14.6466 13.934 14.7676C13.9001 14.8882 13.8491 15.101 13.7799 15.405C13.6625 16.0501 13.2934 16.3726 12.6732 16.3726C12.3506 16.3726 12.0796 16.2674 11.8587 16.0564C11.6386 15.8454 11.5289 15.5324 11.5289 15.1168C11.5289 14.596 11.6097 14.1446 11.771 13.763C11.9314 13.3812 12.146 13.0465 12.4125 12.7578C12.6795 12.4692 13.0391 12.1267 13.4922 11.7297C13.8892 11.3823 14.1761 11.1203 14.3527 10.9436C14.5298 10.7666 14.6784 10.5696 14.799 10.3528C14.9206 10.1355 14.9802 9.90012 14.9802 9.64582C14.9802 9.14937 14.7964 8.73106 14.4269 8.39C14.0578 8.04895 13.5816 7.87817 12.9984 7.87817C12.3159 7.87817 11.8135 8.05028 11.491 8.39451C11.1684 8.73873 10.8961 9.24557 10.6724 9.91552C10.461 10.6166 10.0608 10.9671 9.47212 10.9671C9.12472 10.9671 8.83157 10.8447 8.5926 10.5999C8.35408 10.355 8.23481 10.0898 8.23481 9.80437C8.23481 9.21528 8.4241 8.61808 8.80222 8.01321C9.1808 7.40834 9.73282 6.90734 10.4587 6.51071C11.1842 6.11363 12.0313 5.91484 12.9984 5.91484C13.8978 5.91484 14.6916 6.08106 15.38 6.41312C16.0685 6.74467 16.6006 7.19599 16.976 7.76696C17.3509 8.33749 17.5388 8.95775 17.5388 9.6277C17.5397 10.154 17.4327 10.6162 17.2186 11.0133Z" fill="#FFCD4C"/>
</g>
</svg>
