<svg width="33" height="21" viewBox="0 0 33 21" fill="none" xmlns="http://www.w3.org/2000/svg">
<path d="M30.8882 0.958008H2.88818C2.05976 0.958008 1.38818 1.62958 1.38818 2.45801V18.458C1.38818 19.2864 2.05976 19.958 2.88818 19.958H30.8882C31.7166 19.958 32.3882 19.2864 32.3882 18.458V2.45801C32.3882 1.62958 31.7166 0.958008 30.8882 0.958008Z" fill="white"/>
<path d="M30.8882 0.958008H2.88818C2.05976 0.958008 1.38818 1.62958 1.38818 2.45801V18.458C1.38818 19.2864 2.05976 19.958 2.88818 19.958H30.8882C31.7166 19.958 32.3882 19.2864 32.3882 18.458V2.45801C32.3882 1.62958 31.7166 0.958008 30.8882 0.958008Z" stroke="#EDEEF0"/>
<path d="M6.69697 6.85791H4.61687C4.47453 6.85791 4.35347 6.9624 4.33127 7.10438L3.48998 12.4937C3.47325 12.6 3.55477 12.6959 3.66153 12.6959H4.65458C4.79693 12.6959 4.91798 12.5914 4.94018 12.4491L5.16708 10.9955C5.18898 10.8533 5.31034 10.7488 5.45238 10.7488H6.11087C7.48108 10.7488 8.27188 10.0788 8.4784 8.75125C8.57147 8.17043 8.48235 7.71408 8.21317 7.39448C7.91754 7.04353 7.39318 6.85791 6.69697 6.85791ZM6.93695 8.82623C6.8232 9.58037 6.25291 9.58037 5.70148 9.58037H5.38759L5.6078 8.17197C5.62088 8.08684 5.69388 8.02415 5.77904 8.02415H5.9229C6.29853 8.02415 6.65287 8.02415 6.83597 8.2405C6.94516 8.36957 6.97862 8.56133 6.93695 8.82623Z" fill="#253B80"/>
<path d="M12.914 8.80217H11.9179C11.833 8.80217 11.7597 8.86487 11.7466 8.94999L11.7025 9.23149L11.6329 9.12946C11.4172 8.81324 10.9364 8.70752 10.4564 8.70752C9.35567 8.70752 8.41553 9.54986 8.23243 10.7315C8.13723 11.3209 8.27258 11.8845 8.6035 12.2775C8.90704 12.6389 9.34137 12.7895 9.85813 12.7895C10.745 12.7895 11.2369 12.2133 11.2369 12.2133L11.1925 12.493C11.1757 12.5999 11.2573 12.6958 11.3634 12.6958H12.2607C12.4033 12.6958 12.5237 12.5913 12.5463 12.449L13.0846 9.00438C13.1016 8.89836 13.0204 8.80217 12.914 8.80217ZM11.5255 10.761C11.4294 11.3359 10.9777 11.7219 10.4017 11.7219C10.1124 11.7219 9.88124 11.6282 9.73282 11.4506C9.58561 11.2742 9.52964 11.0231 9.57648 10.7435C9.66621 10.1734 10.1255 9.77481 10.6927 9.77481C10.9756 9.77481 11.2055 9.86977 11.357 10.0489C11.5088 10.2299 11.569 10.4826 11.5255 10.761Z" fill="#253B80"/>
<path d="M18.2186 8.80225H17.2176C17.1221 8.80225 17.0324 8.85019 16.9783 8.9304L15.5977 10.9851L15.0125 9.01061C14.9757 8.88707 14.8629 8.80225 14.7351 8.80225H13.7515C13.632 8.80225 13.5489 8.92026 13.587 9.03396L14.6895 12.3031L13.653 13.7816C13.5715 13.8981 13.6536 14.0582 13.7944 14.0582H14.7942C14.889 14.0582 14.9779 14.0115 15.0317 13.9328L18.361 9.07729C18.4406 8.96113 18.3588 8.80225 18.2186 8.80225Z" fill="#253B80"/>
<path d="M21.5329 6.85791H19.4525C19.3105 6.85791 19.1894 6.9624 19.1672 7.10438L18.3259 12.4937C18.3092 12.6 18.3907 12.6959 18.4969 12.6959H19.5644C19.6636 12.6959 19.7485 12.6227 19.764 12.5232L20.0027 10.9955C20.0246 10.8533 20.146 10.7488 20.288 10.7488H20.9462C22.3167 10.7488 23.1072 10.0788 23.314 8.75125C23.4074 8.17043 23.3177 7.71408 23.0485 7.39448C22.7532 7.04353 22.2291 6.85791 21.5329 6.85791ZM21.7729 8.82623C21.6594 9.58037 21.0892 9.58037 20.5374 9.58037H20.2238L20.4444 8.17197C20.4574 8.08684 20.5298 8.02415 20.6153 8.02415H20.7592C21.1345 8.02415 21.4891 8.02415 21.6722 8.2405C21.7814 8.36957 21.8146 8.56133 21.7729 8.82623Z" fill="#179BD7"/>
<path d="M27.7525 8.80217H26.757C26.6716 8.80217 26.5989 8.86487 26.5861 8.94999L26.542 9.23149L26.472 9.12946C26.2564 8.81324 25.7758 8.70752 25.2959 8.70752C24.1951 8.70752 23.2553 9.54986 23.0722 10.7315C22.9773 11.3209 23.1121 11.8845 23.443 12.2775C23.7471 12.6389 24.1808 12.7895 24.6976 12.7895C25.5845 12.7895 26.0763 12.2133 26.0763 12.2133L26.0319 12.493C26.0152 12.5999 26.0967 12.6958 26.2035 12.6958H27.1004C27.2425 12.6958 27.3635 12.5913 27.3857 12.449L27.9244 9.00438C27.9408 8.89836 27.8593 8.80217 27.7525 8.80217ZM26.3641 10.761C26.2686 11.3359 25.8163 11.7219 25.2402 11.7219C24.9516 11.7219 24.7198 11.6282 24.5714 11.4506C24.4242 11.2742 24.3688 11.0231 24.415 10.7435C24.5054 10.1734 24.964 9.77481 25.5313 9.77481C25.8142 9.77481 26.0441 9.86977 26.1956 10.0489C26.3479 10.2299 26.4082 10.4826 26.3641 10.761Z" fill="#179BD7"/>
<path d="M28.9258 7.00604L28.072 12.494C28.0553 12.6003 28.1368 12.6962 28.243 12.6962H29.1013C29.2439 12.6962 29.365 12.5917 29.3869 12.4494L30.2288 7.06043C30.2455 6.9541 30.164 6.85791 30.0578 6.85791H29.0967C29.0119 6.85822 28.9389 6.92091 28.9258 7.00604Z" fill="#179BD7"/>
</svg>
