<svg width="32" height="21" viewBox="0 0 32 21" fill="none" xmlns="http://www.w3.org/2000/svg">
<path d="M29 1.31348H3C1.61929 1.31348 0.5 2.43276 0.5 3.81348V17.8135C0.5 19.1942 1.61929 20.3135 3 20.3135H29C30.3807 20.3135 31.5 19.1942 31.5 17.8135V3.81348C31.5 2.43276 30.3807 1.31348 29 1.31348Z" fill="white"/>
<path d="M29 1.31348H3C1.61929 1.31348 0.5 2.43276 0.5 3.81348V17.8135C0.5 19.1942 1.61929 20.3135 3 20.3135H29C30.3807 20.3135 31.5 19.1942 31.5 17.8135V3.81348C31.5 2.43276 30.3807 1.31348 29 1.31348Z" stroke="#EDEEF0"/>
<path d="M17.5594 10.8135C17.5594 13.2988 15.5703 15.3135 13.1166 15.3135C10.6629 15.3135 8.67383 13.2988 8.67383 10.8135C8.67383 8.3282 10.6629 6.31348 13.1166 6.31348C15.5703 6.31348 17.5594 8.3282 17.5594 10.8135Z" fill="#EC0014"/>
<path d="M23.3251 10.8135C23.3251 13.2988 21.336 15.3135 18.8823 15.3135C16.4286 15.3135 14.4395 13.2988 14.4395 10.8135C14.4395 8.3282 16.4286 6.31348 18.8823 6.31348C21.336 6.31348 23.3251 8.3282 23.3251 10.8135Z" fill="#00A3E6"/>
<path d="M16.0069 7.38672C16.9636 8.21212 17.5704 9.44127 17.5704 10.814C17.5704 12.1867 16.9636 13.4158 16.0069 14.2412C15.0502 13.4158 14.4434 12.1866 14.4434 10.8139C14.4434 9.44124 15.0501 8.21212 16.0069 7.38672Z" fill="#7476D0"/>
</svg>
