<svg width="17" height="17" viewBox="0 0 17 17" fill="none" xmlns="http://www.w3.org/2000/svg">
<path d="M8.88818 0.847656C4.4699 0.847656 0.888184 4.42938 0.888184 8.84766C0.888184 13.266 4.4699 16.8477 8.88818 16.8477C13.3065 16.8477 16.8882 13.266 16.8882 8.84766C16.8834 4.43135 13.3045 0.852437 8.88818 0.847656ZM11.5549 10.5723C11.8258 10.8217 11.8433 11.2435 11.5939 11.5144C11.3446 11.7853 10.9228 11.8028 10.6519 11.5534C10.6383 11.541 10.6253 11.5279 10.6128 11.5144L8.88818 9.79032L7.16418 11.5144C6.89934 11.7701 6.47731 11.7628 6.22152 11.498C5.97202 11.2396 5.97202 10.83 6.22152 10.5717L7.94552 8.84766L6.22152 7.12366C5.96574 6.85882 5.97309 6.43679 6.23793 6.181C6.49627 5.9315 6.90584 5.9315 7.16418 6.181L8.88818 7.905L10.6128 6.181C10.8622 5.9101 11.284 5.8926 11.5549 6.14194C11.8258 6.39129 11.8433 6.81304 11.5939 7.08394C11.5815 7.0975 11.5684 7.1105 11.5549 7.123L9.83084 8.84766L11.5549 10.5723Z" fill="#564B5D"/>
</svg>
