<svg width="24" height="25" viewBox="0 0 24 25" fill="none" xmlns="http://www.w3.org/2000/svg">
<mask id="mask0_9_484" style="mask-type:luminance" maskUnits="userSpaceOnUse" x="0" y="0" width="24" height="25">
<path d="M24 0.0126953H0V24.0127H24V0.0126953Z" fill="white"/>
</mask>
<g mask="url(#mask0_9_484)">
<path d="M12 0.0126953C5.3748 0.0126953 0 5.38072 0 12.0064C0 18.6384 5.3748 24.0127 12 24.0127C18.6288 24.0127 23.9991 18.6383 23.9991 12.0064C23.9991 5.38072 18.6288 0.0126953 12 0.0126953ZM12.8551 18.6835C12.5764 18.9315 12.2534 19.0562 11.8875 19.0562C11.509 19.0562 11.1788 18.9338 10.8969 18.6885C10.6146 18.4436 10.4731 18.1008 10.4731 17.6603C10.4731 17.2695 10.61 16.9407 10.8829 16.6741C11.1557 16.4076 11.4905 16.2743 11.8875 16.2743C12.2783 16.2743 12.6072 16.4076 12.8742 16.6741C13.1407 16.9407 13.2744 17.2695 13.2744 17.6603C13.2739 18.0944 13.1343 18.4355 12.8551 18.6835ZM16.3304 10.068C16.1162 10.465 15.8619 10.8074 15.5669 11.0961C15.2728 11.3848 14.7439 11.87 13.9804 12.5521C13.7699 12.7445 13.6005 12.9135 13.4736 13.0589C13.3466 13.2049 13.2518 13.3381 13.1899 13.4592C13.1275 13.5802 13.0797 13.7013 13.0458 13.8223C13.0119 13.9429 12.9609 14.1557 12.8917 14.4597C12.7743 15.1048 12.4052 15.4273 11.785 15.4273C11.4624 15.4273 11.1914 15.3221 10.9705 15.1111C10.7504 14.9001 10.6407 14.5871 10.6407 14.1715C10.6407 13.6507 10.7215 13.1993 10.8828 12.8177C11.0432 12.4359 11.2578 12.1012 11.5243 11.8125C11.7913 11.5239 12.1509 11.1814 12.604 10.7844C13.001 10.437 13.2879 10.175 13.4645 9.99833C13.6416 9.82127 13.7902 9.62432 13.9108 9.40746C14.0324 9.19017 14.092 8.95481 14.092 8.70051C14.092 8.20405 13.9082 7.78575 13.5387 7.44469C13.1696 7.10364 12.6934 6.93286 12.1102 6.93286C11.4277 6.93286 10.9253 7.10497 10.6028 7.4492C10.2802 7.79342 10.0079 8.30025 9.78423 8.97021C9.57282 9.67133 9.17258 10.0218 8.58394 10.0218C8.23654 10.0218 7.94339 9.89941 7.70442 9.65455C7.4659 9.40969 7.34663 9.14454 7.34663 8.85906C7.34663 8.26997 7.53592 7.67277 7.91404 7.0679C8.29262 6.46303 8.84464 5.96203 9.57055 5.5654C10.296 5.16832 11.1431 4.96953 12.1102 4.96953C13.0096 4.96953 13.8034 5.13575 14.4918 5.46781C15.1803 5.79936 15.7124 6.25068 16.0878 6.82165C16.4627 7.39218 16.6506 8.01244 16.6506 8.68239C16.6515 9.20872 16.5445 9.67089 16.3304 10.068Z" fill="#FFCD4C"/>
</g>
</svg>
