<svg width="30" height="22" viewBox="0 0 30 22" fill="none" xmlns="http://www.w3.org/2000/svg">
<path d="M26 0.79834H4.00001C1.90593 0.79834 0.208344 2.49593 0.208344 4.59001V16.59C0.208344 18.6841 1.90593 20.3816 4.00001 20.3816H26C28.0941 20.3816 29.7916 18.6841 29.7916 16.59V4.59001C29.7916 2.49593 28.0941 0.79834 26 0.79834Z" fill="white" stroke="#DDDDDD" stroke-width="0.416667"/>
<path fill-rule="evenodd" clip-rule="evenodd" d="M25.7504 8.55905C26.6713 8.55905 27.1777 8.97006 27.1777 9.74641C27.2237 10.3401 26.8094 10.8424 26.2569 10.9338L27.5 12.6235H26.5331L25.4742 10.9794H25.3821V12.6235H24.5994V8.55905H25.7504ZM25.3821 10.4314H25.6123C26.1188 10.4314 26.349 10.2031 26.349 9.79209C26.349 9.42675 26.1188 9.19841 25.6123 9.19841H25.3821V10.4314ZM21.8831 12.6235H24.093V11.9385H22.6657V10.8424H24.047V10.1574H22.6657V9.24406H24.093V8.55905H21.8831V12.6235ZM19.581 11.2991L18.5221 8.55905H17.6934L19.3969 12.7148H19.8112L21.5147 8.55905H20.686L19.581 11.2991ZM10.2348 10.6142C10.2348 11.7559 11.1556 12.7149 12.3066 12.7149C12.675 12.7149 12.9972 12.6236 13.3195 12.4866V11.5732C13.0893 11.8472 12.767 12.0299 12.3987 12.0299C11.6621 12.0299 11.0635 11.4819 11.0635 10.7512V10.6599C11.0175 9.92921 11.616 9.28986 12.3527 9.24419C12.721 9.24419 13.0893 9.42686 13.3195 9.70087V8.78751C13.0433 8.60484 12.675 8.55917 12.3527 8.55917C11.1556 8.46784 10.2348 9.42686 10.2348 10.6142ZM8.80755 10.1118C8.34715 9.92911 8.20903 9.83777 8.20903 9.60943C8.25507 9.33542 8.48527 9.10708 8.76151 9.15275C8.99172 9.15275 9.22192 9.28976 9.40608 9.47243L9.82045 8.92441C9.49816 8.6504 9.0838 8.46773 8.66943 8.46773C8.02487 8.42206 7.47238 8.92441 7.42634 9.56376V9.60943C7.42634 10.1574 7.65654 10.4771 8.39319 10.7054C8.57735 10.7511 8.76151 10.8424 8.94568 10.9338C9.0838 11.0251 9.17588 11.1621 9.17588 11.3448C9.17588 11.6645 8.89964 11.9385 8.62339 11.9385H8.57735C8.20903 11.9385 7.88674 11.7101 7.74862 11.3905L7.24218 11.8928C7.51842 12.3952 8.07091 12.6692 8.62339 12.6692C9.36004 12.7148 9.95857 12.1668 10.0046 11.4361V11.2991C9.95857 10.7511 9.72836 10.4771 8.80755 10.1118ZM6.13721 12.6235H6.9199V8.55905H6.13721V12.6235ZM2.5 8.55905H3.65101H3.88122C4.98619 8.60471 5.86096 9.51807 5.81492 10.6141C5.81492 11.2078 5.53867 11.7558 5.07827 12.1668C4.6639 12.4865 4.15746 12.6691 3.65101 12.6235H2.5V8.55905ZM3.5129 11.9384C3.88123 11.984 4.29559 11.847 4.57183 11.6187C4.84808 11.3447 4.9862 10.9793 4.9862 10.5683C4.9862 10.203 4.84808 9.83767 4.57183 9.56366C4.29559 9.33532 3.88123 9.19832 3.5129 9.24398H3.2827V11.9384H3.5129Z" fill="black"/>
<path fill-rule="evenodd" clip-rule="evenodd" d="M15.7101 8.46484C14.5591 8.46484 13.5923 9.3782 13.5923 10.5656C13.5923 11.7072 14.5131 12.6663 15.7101 12.7119C16.9072 12.7576 17.828 11.7986 17.8741 10.6112C17.828 9.42386 16.9072 8.46484 15.7101 8.46484Z" fill="url(#paint0_linear_9_580)"/>
<path fill-rule="evenodd" clip-rule="evenodd" d="M15.7101 8.46484C14.5591 8.46484 13.5923 9.3782 13.5923 10.5656C13.5923 11.7072 14.5131 12.6663 15.7101 12.7119C16.9072 12.7576 17.828 11.7986 17.8741 10.6112C17.828 9.42386 16.9072 8.46484 15.7101 8.46484Z" fill="url(#paint1_radial_9_580)"/>
<defs>
<linearGradient id="paint0_linear_9_580" x1="14.4196" y1="8.86628" x2="17.1997" y2="12.1038" gradientUnits="userSpaceOnUse">
<stop stop-color="#E15315"/>
<stop offset="1" stop-color="#FFB320"/>
</linearGradient>
<radialGradient id="paint1_radial_9_580" cx="0" cy="0" r="1" gradientUnits="userSpaceOnUse" gradientTransform="translate(16.0418 11.2148) rotate(-126.027) scale(2.83364 2.93383)">
<stop stop-color="#FFCD83" stop-opacity="0"/>
<stop offset="0.725604" stop-color="#E45816" stop-opacity="0.7"/>
<stop offset="1" stop-color="#912301"/>
</radialGradient>
</defs>
</svg>
