<svg width="32" height="21" viewBox="0 0 32 21" fill="none" xmlns="http://www.w3.org/2000/svg">
<path d="M29 1.29688H3C1.61929 1.29688 0.5 2.41616 0.5 3.79688V17.7969C0.5 19.1776 1.61929 20.2969 3 20.2969H29C30.3807 20.2969 31.5 19.1776 31.5 17.7969V3.79688C31.5 2.41616 30.3807 1.29688 29 1.29688Z" fill="white"/>
<path d="M29 1.29688H3C1.61929 1.29688 0.5 2.41616 0.5 3.79688V17.7969C0.5 19.1776 1.61929 20.2969 3 20.2969H29C30.3807 20.2969 31.5 19.1776 31.5 17.7969V3.79688C31.5 2.41616 30.3807 1.29688 29 1.29688Z" stroke="#EDEEF0"/>
<path fill-rule="evenodd" clip-rule="evenodd" d="M15.9959 14.2241C15.2205 14.8931 14.2151 15.2969 13.1166 15.2969C10.6629 15.2969 8.67383 13.2822 8.67383 10.7969C8.67383 8.31159 10.6629 6.29688 13.1166 6.29688C14.2151 6.29688 15.2205 6.70066 15.9959 7.36967C16.7714 6.70066 17.7767 6.29688 18.8752 6.29688C21.3289 6.29688 23.318 8.31159 23.318 10.7969C23.318 13.2822 21.3289 15.2969 18.8752 15.2969C17.7767 15.2969 16.7714 14.8931 15.9959 14.2241Z" fill="#EC0014"/>
<path fill-rule="evenodd" clip-rule="evenodd" d="M15.998 14.2205C16.9524 13.3952 17.5575 12.1676 17.5575 10.7969C17.5575 9.42617 16.9524 8.1986 15.998 7.37323C16.7741 6.70209 17.781 6.29688 18.8814 6.29688C21.3351 6.29688 23.3243 8.31159 23.3243 10.7969C23.3243 13.2822 21.3351 15.2969 18.8814 15.2969C17.781 15.2969 16.7741 14.8917 15.998 14.2205Z" fill="#F9A000"/>
<path fill-rule="evenodd" clip-rule="evenodd" d="M16.0068 7.37012C16.9636 8.19552 17.5704 9.42467 17.5704 10.7974C17.5704 12.17 16.9636 13.3992 16.0069 14.2246C15.0502 13.3992 14.4434 12.17 14.4434 10.7973C14.4434 9.42463 15.0501 8.19552 16.0068 7.37012Z" fill="#FF5E00"/>
</svg>
