<svg width="17" height="18" viewBox="0 0 17 18" fill="none" xmlns="http://www.w3.org/2000/svg">
<mask id="mask0_9_1379" style="mask-type:luminance" maskUnits="userSpaceOnUse" x="0" y="1" width="17" height="17">
<path d="M16.3882 1.11426H0.388184V17.1143H16.3882V1.11426Z" fill="white"/>
</mask>
<g mask="url(#mask0_9_1379)">
<path d="M6.40169 8.78116L7.73502 10.1145L10.7351 7.1145M13.7351 9.1145C13.7351 12.3868 10.1657 14.7668 8.86702 15.5244C8.71942 15.6105 8.64562 15.6536 8.54148 15.6759C8.46065 15.6932 8.34273 15.6932 8.2619 15.6759C8.15775 15.6536 8.08396 15.6105 7.93636 15.5244C6.63766 14.7668 3.06836 12.3868 3.06836 9.1145V5.92623C3.06836 5.39322 3.06836 5.12672 3.15553 4.89763C3.23254 4.69526 3.35768 4.51468 3.52013 4.37152C3.70402 4.20945 3.95355 4.11588 4.45263 3.92873L8.02716 2.58828C8.16575 2.5363 8.23505 2.51032 8.30634 2.50002C8.36958 2.49088 8.4338 2.49088 8.49703 2.50002C8.56832 2.51032 8.63762 2.5363 8.77622 2.58828L12.3508 3.92873C12.8499 4.11588 13.0994 4.20945 13.2833 4.37152C13.4458 4.51468 13.5709 4.69526 13.6479 4.89763C13.7351 5.12672 13.7351 5.39322 13.7351 5.92623V9.1145Z" stroke="#03BF5A" stroke-width="1.5" stroke-linecap="round" stroke-linejoin="round"/>
</g>
</svg>
