<svg width="41" height="12" viewBox="0 0 41 12" fill="none" xmlns="http://www.w3.org/2000/svg">
<path d="M6.35939 10.7083C5.18752 10.7083 4.16755 10.5087 3.2995 10.1093C2.43144 9.71003 1.7587 9.14362 1.28127 8.41012C0.80384 7.67227 0.565125 6.80421 0.565125 5.80595V5.79293C0.565125 4.79466 0.80384 3.92878 1.28127 3.19527C1.7587 2.46177 2.43144 1.89536 3.2995 1.49605C4.17189 1.09675 5.19186 0.897095 6.35939 0.897095C7.53561 0.897095 8.55775 1.09675 9.4258 1.49605C10.2938 1.89536 10.9666 2.46177 11.444 3.19527C11.9214 3.92878 12.1602 4.79466 12.1602 5.79293V5.80595C12.1602 6.80421 11.9214 7.6701 11.444 8.40361C10.9666 9.13711 10.2938 9.70569 9.4258 10.1093C8.55775 10.5087 7.53561 10.7083 6.35939 10.7083ZM6.35939 8.98954C7.0929 8.98954 7.72875 8.85934 8.26695 8.59892C8.80948 8.3385 9.22832 7.96958 9.52346 7.49215C9.82294 7.01472 9.97268 6.45265 9.97268 5.80595V5.79293C9.97268 5.14623 9.82294 4.58633 9.52346 4.11324C9.22832 3.63581 8.80948 3.26689 8.26695 3.00647C7.72875 2.74605 7.0929 2.61585 6.35939 2.61585C5.63023 2.61585 4.99438 2.74605 4.45184 3.00647C3.91365 3.26689 3.49481 3.63581 3.19533 4.11324C2.90019 4.58633 2.75262 5.14623 2.75262 5.79293V5.80595C2.75262 6.45265 2.90019 7.01472 3.19533 7.49215C3.49047 7.96958 3.90931 8.3385 4.45184 8.59892C4.99438 8.85934 5.63023 8.98954 6.35939 8.98954ZM9.57554 11.431L6.08596 7.41402H8.1758L11.6654 11.431H9.57554ZM19.263 10.7018C18.2257 10.7018 17.3273 10.5304 16.5677 10.1875C15.8125 9.84458 15.2287 9.34762 14.8164 8.69657C14.4084 8.04553 14.2044 7.25343 14.2044 6.32027V1.10543H16.3464V6.25517C16.3464 6.83243 16.457 7.32505 16.6784 7.73303C16.9041 8.13668 17.2318 8.44484 17.6615 8.65751C18.0955 8.87019 18.6293 8.97652 19.263 8.97652C19.8967 8.97652 20.4284 8.87019 20.8581 8.65751C21.2921 8.44484 21.6198 8.13668 21.8411 7.73303C22.0625 7.32505 22.1732 6.83243 22.1732 6.25517V1.10543H24.3216V6.32027C24.3216 7.24909 24.1176 8.04119 23.7096 8.69657C23.3016 9.34762 22.7179 9.84458 21.9583 10.1875C21.2031 10.5304 20.3047 10.7018 19.263 10.7018ZM26.7891 10.5V1.10543H28.9375V10.5H26.7891ZM31.1445 10.5V9.13928L37.3815 2.85673V2.79163H31.2682V1.10543H40.3437V2.46611L34.1198 8.74866V8.81376H40.4935V10.5H31.1445Z" fill="white" fill-opacity="0.4"/>
</svg>
