<svg width="58" height="21" viewBox="0 0 58 21" fill="none" xmlns="http://www.w3.org/2000/svg">
<path fill-rule="evenodd" clip-rule="evenodd" d="M27.2527 0.274231C26.0935 0.274231 25.2019 1.22661 25.2019 2.34072C25.2019 3.47279 26.0935 4.37126 27.2527 4.37126C28.4119 4.37126 29.2501 3.47279 29.2501 2.34072C29.2501 1.22661 28.4119 0.274231 27.2527 0.274231ZM28.8577 5.07208L24.97 6.5815C26.2719 7.98312 26.2006 12.6731 25.9152 13.7513C25.7547 14.3802 25.4694 15.0271 24.9344 15.7998C24.8809 15.8627 24.7962 15.9615 24.7115 16.0604C24.6267 16.1592 24.542 16.258 24.4885 16.3209L23.9357 16.7881H29.8921C29.3927 16.3569 28.8577 15.099 28.8577 12.8708V5.07208ZM0.983962 16.5366L0.288452 10.391C0.288452 10.391 1.5368 11.8825 1.6438 12.0083C4.46149 15.71 7.22567 16.5725 8.22435 16.6084C9.08036 16.6084 9.65103 16.303 9.86503 15.2787C10.2217 13.5716 7.65368 11.9364 5.29966 10.6785C5.264 10.6605 5.23279 10.6426 5.20158 10.6246C5.17037 10.6066 5.13916 10.5887 5.10349 10.5707C2.90997 9.38474 0.876955 7.76749 0.876955 5.00019C0.876955 2.21493 3.33798 0.939103 6.26267 0.939103C8.43835 0.939103 10.079 1.33443 11.0243 1.78367L11.9338 6.24009H11.8981C9.8472 3.16731 6.4945 1.24458 4.92516 1.22661C4.01565 1.22661 2.92781 1.63991 2.90997 2.55635C2.87431 3.32904 3.42715 4.78456 7.35052 6.74323C10.4714 8.28861 12.1121 10.0316 12.1299 12.3676C12.1478 14.7935 10.0612 16.5366 7.81418 16.9319C4.92516 17.435 2.25014 17.0577 0.983962 16.5366ZM12.925 8.08972C12.7483 7.6753 12.6067 7.3431 12.5223 7.28232L16.838 5.0541V7.13856C16.9985 6.81511 18.0328 5.41349 20.2085 5.41349C22.402 5.41349 24.7025 6.90496 24.7025 10.9121C24.7025 15.2428 21.9919 16.9498 20.1193 16.9498C18.4608 16.9498 17.373 16.0154 16.945 15.6381C16.8915 15.5842 16.8558 15.5482 16.8201 15.5303V16.5366C16.8201 18.2976 17.3551 19.8429 17.8545 20.2742H11.9338C13.0717 19.487 13.417 17.9338 13.6014 17.1046C13.6106 17.0631 13.6194 17.0235 13.6279 16.9858C13.6569 16.8593 13.6807 16.7275 13.7049 16.5933C13.7253 16.4797 13.7461 16.3644 13.7706 16.249C13.8532 15.8468 13.8933 15.177 13.9237 14.6692C13.9327 14.5191 13.9408 14.3831 13.949 14.2724C14.0738 12.3856 13.9846 10.4449 13.1999 8.71987C13.1019 8.50481 13.0094 8.28786 12.925 8.08972ZM16.7488 7.53389L16.8023 15.3685C17.1768 15.7639 17.8723 16.267 18.978 16.249C20.6722 16.2311 21.332 14.2904 21.3142 11.1457C21.2607 7.67764 20.3155 5.9346 18.9067 6.04242C17.7653 6.13227 16.9806 6.88699 16.7488 7.53389ZM31.9073 9.00738C31.7468 8.30657 31.1939 7.04871 31.0513 6.94089L35.2778 5.10802L35.0995 9.86992C35.581 7.28232 36.9006 5.73695 39.6827 5.46741L39.005 8.77378C37.5427 8.45033 35.0995 8.16282 35.0995 10.5348L35.0816 13.1224C35.1829 15.146 36.0188 16.2523 36.3803 16.7307C36.4008 16.7578 36.4197 16.783 36.437 16.8061H30.8194C31.6398 15.9256 31.9786 15.0091 32.1569 13.8052C32.2996 12.763 32.2461 10.4808 31.9073 9.00738ZM42.643 0.346113C41.4838 0.346113 40.5922 1.29849 40.5922 2.4126C40.5922 3.54467 41.4838 4.42518 42.643 4.44315C43.8022 4.44315 44.6404 3.54467 44.6404 2.4126C44.6404 1.29849 43.8022 0.346113 42.643 0.346113ZM44.2659 5.12598L40.3782 6.63542C41.6622 8.03704 41.5908 12.745 41.3233 13.8232C41.1628 14.4521 40.8775 15.099 40.3425 15.8717C40.289 15.9346 40.2041 16.0336 40.1194 16.1325C40.0347 16.2313 39.9501 16.33 39.8967 16.3928L39.3438 16.86H45.3002C44.8009 16.4287 44.2659 15.1709 44.2659 12.9427V5.12598ZM45.6567 11.1276C45.6567 7.9291 48.2248 5.12587 51.3635 5.37744C54.3238 5.61105 56.8205 8.09083 57.0345 11.1456C57.2485 14.3262 54.52 16.9138 51.3456 16.9138C48.1891 16.9138 45.6567 14.3621 45.6567 11.1276ZM48.1891 8.00098C48.0999 11.0558 50.3113 16.3747 53.022 16.5005C53.8601 16.5364 54.3417 15.8356 54.306 14.3082C54.2881 11.6128 52.38 6.88687 49.5266 5.93449C48.6528 5.64698 48.2248 6.74312 48.1891 8.00098ZM50.0794 8.50412C49.6693 10.1753 50.668 13.5355 52.5583 14.3801C52.8258 12.4933 51.9876 9.42056 50.0794 8.50412Z" fill="url(#paint0_linear_40_252)"/>
<defs>
<linearGradient id="paint0_linear_40_252" x1="30.2891" y1="0.197981" x2="86.6925" y2="38.6438" gradientUnits="userSpaceOnUse">
<stop stop-color="white"/>
<stop offset="1" stop-color="#59382A" stop-opacity="0"/>
</linearGradient>
</defs>
</svg>
