<svg width="20" height="17" viewBox="0 0 20 17" fill="none" xmlns="http://www.w3.org/2000/svg">
<path d="M18.3228 7.1906H4.97982L9.36965 2.80077C9.49472 2.67673 9.59398 2.52916 9.66172 2.36656C9.72946 2.20396 9.76434 2.02956 9.76434 1.85342C9.76434 1.67728 9.72946 1.50288 9.66172 1.34028C9.59398 1.17768 9.49472 1.03011 9.36965 0.906069C9.11966 0.657555 8.78148 0.518066 8.42897 0.518066C8.07647 0.518066 7.73829 0.657555 7.4883 0.906069L1.76416 6.64354C1.26302 7.1417 0.979908 7.81828 0.976929 8.52489C0.983422 9.22687 1.26626 9.89802 1.76416 10.3929L7.4883 16.1304C7.6127 16.2539 7.76022 16.3518 7.92244 16.4183C8.08465 16.4848 8.25837 16.5187 8.43369 16.5181C8.60901 16.5175 8.78249 16.4823 8.94423 16.4147C9.10597 16.347 9.25279 16.2481 9.37632 16.1237C9.49986 15.9993 9.59767 15.8518 9.66419 15.6896C9.73071 15.5274 9.76463 15.3537 9.76401 15.1783C9.76339 15.003 9.72825 14.8295 9.66058 14.6678C9.59292 14.5061 9.49406 14.3592 9.36965 14.2357L4.97982 9.85919H18.3228C18.6766 9.85919 19.016 9.71861 19.2662 9.46838C19.5165 9.21815 19.657 8.87877 19.657 8.52489C19.657 8.17102 19.5165 7.83163 19.2662 7.58141C19.016 7.33118 18.6766 7.1906 18.3228 7.1906Z" fill="white"/>
</svg>
