<svg width="42" height="12" viewBox="0 0 42 12" fill="none" xmlns="http://www.w3.org/2000/svg">
<path d="M6.57301 10.6432C5.40114 10.6432 4.38117 10.4436 3.51312 10.0443C2.64506 9.64497 1.97232 9.07856 1.49489 8.34506C1.01746 7.60721 0.778748 6.73915 0.778748 5.74089V5.72787C0.778748 4.7296 1.01746 3.86372 1.49489 3.13021C1.97232 2.39671 2.64506 1.8303 3.51312 1.43099C4.38551 1.03168 5.40548 0.832031 6.57301 0.832031C7.74923 0.832031 8.77137 1.03168 9.63942 1.43099C10.5074 1.8303 11.1802 2.39671 11.6576 3.13021C12.135 3.86372 12.3738 4.7296 12.3738 5.72787V5.74089C12.3738 6.73915 12.135 7.60503 11.6576 8.33854C11.1802 9.07204 10.5074 9.64063 9.63942 10.0443C8.77137 10.4436 7.74923 10.6432 6.57301 10.6432ZM6.57301 8.92448C7.30652 8.92448 7.94237 8.79427 8.48057 8.53385C9.0231 8.27343 9.44194 7.90451 9.73708 7.42708C10.0366 6.94965 10.1863 6.38759 10.1863 5.74089V5.72787C10.1863 5.08117 10.0366 4.52127 9.73708 4.04818C9.44194 3.57075 9.0231 3.20183 8.48057 2.94141C7.94237 2.68099 7.30652 2.55079 6.57301 2.55079C5.84385 2.55079 5.208 2.68099 4.66546 2.94141C4.12727 3.20183 3.70843 3.57075 3.40895 4.04818C3.11381 4.52127 2.96624 5.08117 2.96624 5.72787V5.74089C2.96624 6.38759 3.11381 6.94965 3.40895 7.42708C3.70409 7.90451 4.12293 8.27343 4.66546 8.53385C5.208 8.79427 5.84385 8.92448 6.57301 8.92448ZM9.78916 11.3659L6.29958 7.34896H8.38942L11.879 11.3659H9.78916ZM19.4766 10.6367C18.4393 10.6367 17.5409 10.4653 16.7813 10.1224C16.0261 9.77952 15.4423 9.28256 15.03 8.63151C14.622 7.98047 14.418 7.18837 14.418 6.25521V1.04036H16.56V6.1901C16.56 6.76736 16.6706 7.25998 16.892 7.66796C17.1177 8.07161 17.4454 8.37977 17.8751 8.59244C18.3091 8.80512 18.8429 8.91146 19.4766 8.91146C20.1103 8.91146 20.642 8.80512 21.0717 8.59244C21.5057 8.37977 21.8334 8.07161 22.0547 7.66796C22.2761 7.25998 22.3868 6.76736 22.3868 6.1901V1.04036H24.5352V6.25521C24.5352 7.18403 24.3312 7.97613 23.9232 8.63151C23.5152 9.28256 22.9315 9.77952 22.1719 10.1224C21.4167 10.4653 20.5183 10.6367 19.4766 10.6367ZM27.0027 10.4349V1.04036H29.1511V10.4349H27.0027ZM31.3581 10.4349V9.07422L37.5951 2.79167V2.72657H31.4818V1.04036H40.5573V2.40105L34.3334 8.6836V8.74869H40.7071V10.4349H31.3581Z" fill="white" fill-opacity="0.4"/>
</svg>
