<svg width="42" height="12" viewBox="0 0 42 12" fill="none" xmlns="http://www.w3.org/2000/svg">
<path d="M7.34303 11.1427C6.17116 11.1427 5.15119 10.9431 4.28314 10.5438C3.41508 10.1445 2.74234 9.57807 2.26491 8.84457C1.78748 8.10672 1.54877 7.23866 1.54877 6.2404V6.22738C1.54877 5.22911 1.78748 4.36323 2.26491 3.62972C2.74234 2.89622 3.41508 2.32981 4.28314 1.9305C5.15553 1.53119 6.1755 1.33154 7.34303 1.33154C8.51925 1.33154 9.54139 1.53119 10.4094 1.9305C11.2775 2.32981 11.9503 2.89622 12.4277 3.62972C12.9051 4.36323 13.1439 5.22911 13.1439 6.22738V6.2404C13.1439 7.23866 12.9051 8.10455 12.4277 8.83806C11.9503 9.57156 11.2775 10.1401 10.4094 10.5438C9.54139 10.9431 8.51925 11.1427 7.34303 11.1427ZM7.34303 9.42399C8.07654 9.42399 8.71239 9.29379 9.25059 9.03337C9.79312 8.77295 10.212 8.40403 10.5071 7.9266C10.8066 7.44917 10.9563 6.8871 10.9563 6.2404V6.22738C10.9563 5.58068 10.8066 5.02078 10.5071 4.54769C10.212 4.07026 9.79312 3.70134 9.25059 3.44092C8.71239 3.1805 8.07654 3.0503 7.34303 3.0503C6.61387 3.0503 5.97802 3.1805 5.43548 3.44092C4.89729 3.70134 4.47845 4.07026 4.17897 4.54769C3.88383 5.02078 3.73626 5.58068 3.73626 6.22738V6.2404C3.73626 6.8871 3.88383 7.44917 4.17897 7.9266C4.47411 8.40403 4.89295 8.77295 5.43548 9.03337C5.97802 9.29379 6.61387 9.42399 7.34303 9.42399ZM10.5592 11.8654L7.0696 7.84847H9.15944L12.6491 11.8654H10.5592ZM20.2467 11.1362C19.2094 11.1362 18.311 10.9648 17.5514 10.6219C16.7962 10.279 16.2124 9.78207 15.8001 9.13102C15.3921 8.47998 15.1881 7.68788 15.1881 6.75472V1.53988H17.3301V6.68962C17.3301 7.26688 17.4407 7.7595 17.6621 8.16748C17.8878 8.57113 18.2155 8.87929 18.6452 9.09196C19.0792 9.30464 19.613 9.41097 20.2467 9.41097C20.8804 9.41097 21.4121 9.30464 21.8418 9.09196C22.2758 8.87929 22.6035 8.57113 22.8248 8.16748C23.0462 7.7595 23.1569 7.26688 23.1569 6.68962V1.53988H25.3053V6.75472C25.3053 7.68354 25.1013 8.47564 24.6933 9.13102C24.2853 9.78207 23.7016 10.279 22.942 10.6219C22.1868 10.9648 21.2884 11.1362 20.2467 11.1362ZM27.7728 10.9344V1.53988H29.9212V10.9344H27.7728ZM32.1282 10.9344V9.57373L38.3652 3.29118V3.22608H32.2519V1.53988H41.3274V2.90056L35.1035 9.18311V9.24821H41.4772V10.9344H32.1282Z" fill="white" fill-opacity="0.4"/>
</svg>
