<svg width="58" height="21" viewBox="0 0 58 21" fill="none" xmlns="http://www.w3.org/2000/svg">
<path fill-rule="evenodd" clip-rule="evenodd" d="M27.9478 0.93457C26.7886 0.93457 25.897 1.88695 25.897 3.00106C25.897 4.13313 26.7886 5.0316 27.9478 5.0316C29.107 5.0316 29.9452 4.13313 29.9452 3.00106C29.9452 1.88695 29.107 0.93457 27.9478 0.93457ZM29.5528 5.73242L25.6651 7.24184C26.967 8.64346 26.8957 13.3335 26.6103 14.4117C26.4498 15.0406 26.1645 15.6875 25.6295 16.4602C25.576 16.5231 25.4913 16.6219 25.4066 16.7208C25.3218 16.8196 25.2371 16.9184 25.1836 16.9813L24.6308 17.4485H30.5872C30.0878 17.0173 29.5528 15.7594 29.5528 13.5312V5.73242ZM1.67915 17.197L0.983643 11.0514C0.983643 11.0514 2.23199 12.5429 2.33899 12.6687C5.15668 16.3704 7.92086 17.2329 8.91954 17.2688C9.77555 17.2688 10.3462 16.9634 10.5602 15.9391C10.9169 14.232 8.34887 12.5968 5.99485 11.3389C5.95919 11.3209 5.92798 11.303 5.89677 11.285C5.86556 11.267 5.83435 11.2491 5.79868 11.2311C3.60516 10.0451 1.57215 8.42783 1.57215 5.66053C1.57215 2.87527 4.03317 1.59944 6.95786 1.59944C9.13354 1.59944 10.7742 1.99477 11.7194 2.44401L12.6289 6.90043H12.5932C10.5424 3.82765 7.18969 1.90492 5.62035 1.88695C4.71084 1.88695 3.623 2.30025 3.60516 3.21669C3.5695 3.98938 4.12234 5.4449 8.04571 7.40357C11.1665 8.94895 12.8072 10.692 12.825 13.028C12.8429 15.4539 10.7564 17.197 8.50937 17.5923C5.62035 18.0954 2.94533 17.7181 1.67915 17.197ZM13.6201 8.75006C13.4434 8.33564 13.3018 8.00344 13.2174 7.94266L17.5331 5.71444V7.7989C17.6936 7.47545 18.7279 6.07383 20.9036 6.07383C23.0971 6.07383 25.3976 7.5653 25.3976 11.5725C25.3976 15.9032 22.687 17.6102 20.8144 17.6102C19.1559 17.6102 18.0681 16.6758 17.6401 16.2985C17.5866 16.2446 17.5509 16.2086 17.5152 16.1907V17.197C17.5152 18.958 18.0502 20.5033 18.5496 20.9346H12.6289C13.7668 20.1474 14.1121 18.5942 14.2965 17.765C14.3057 17.7235 14.3145 17.6839 14.323 17.6462C14.352 17.5197 14.3758 17.3879 14.4 17.2537C14.4204 17.1401 14.4412 17.0248 14.4657 16.9094C14.5483 16.5072 14.5884 15.8374 14.6188 15.3296C14.6278 15.1795 14.6359 15.0435 14.6441 14.9328C14.7689 13.046 14.6797 11.1053 13.895 9.38021C13.797 9.16515 13.7045 8.9482 13.6201 8.75006ZM17.4439 8.19423L17.4974 16.0289C17.8719 16.4243 18.5674 16.9274 19.6731 16.9094C21.3673 16.8915 22.0271 14.9508 22.0093 11.8061C21.9558 8.33798 21.0106 6.59494 19.6018 6.70276C18.4604 6.79261 17.6757 7.54733 17.4439 8.19423ZM32.6024 9.66772C32.4419 8.96691 31.889 7.70905 31.7464 7.60123L35.9729 5.76836L35.7946 10.5303C36.2761 7.94266 37.5957 6.39729 40.3778 6.12775L39.7001 9.43412C38.2378 9.11067 35.7946 8.82316 35.7946 11.1952L35.7767 13.7828C35.878 15.8064 36.7139 16.9127 37.0754 17.3911C37.0959 17.4182 37.1148 17.4434 37.1321 17.4665H31.5145C32.3349 16.586 32.6737 15.6695 32.852 14.4656C32.9947 13.4234 32.9412 11.1412 32.6024 9.66772ZM43.3381 1.00645C42.1789 1.00645 41.2873 1.95883 41.2873 3.07294C41.2873 4.20501 42.1789 5.08552 43.3381 5.10349C44.4973 5.10349 45.3355 4.20501 45.3355 3.07294C45.3355 1.95883 44.4973 1.00645 43.3381 1.00645ZM44.961 5.78632L41.0733 7.29576C42.3573 8.69738 42.2859 13.4054 42.0184 14.4836C41.8579 15.1125 41.5726 15.7594 41.0376 16.5321C40.9841 16.595 40.8992 16.694 40.8145 16.7929C40.7298 16.8917 40.6452 16.9904 40.5918 17.0532L40.0389 17.5204H45.9953C45.496 17.0891 44.961 15.8313 44.961 13.6031V5.78632ZM46.3518 11.788C46.3518 8.58944 48.9199 5.78621 52.0586 6.03778C55.0189 6.27139 57.5156 8.75117 57.7296 11.806C57.9436 14.9866 55.2151 17.5742 52.0407 17.5742C48.8842 17.5742 46.3518 15.0225 46.3518 11.788ZM48.8842 8.66132C48.795 11.7162 51.0064 17.0351 53.7171 17.1609C54.5552 17.1968 55.0368 16.496 55.0011 14.9686C54.9832 12.2732 53.0751 7.54721 50.2217 6.59483C49.3479 6.30732 48.9199 7.40346 48.8842 8.66132ZM50.7745 9.16446C50.3644 10.8356 51.3631 14.1959 53.2534 15.0405C53.5209 13.1537 52.6827 10.0809 50.7745 9.16446Z" fill="url(#paint0_linear_41_46)"/>
<defs>
<linearGradient id="paint0_linear_41_46" x1="30.9842" y1="0.858321" x2="87.3877" y2="39.3042" gradientUnits="userSpaceOnUse">
<stop stop-color="white"/>
<stop offset="1" stop-color="#59382A" stop-opacity="0"/>
</linearGradient>
</defs>
</svg>
