<svg width="42" height="12" viewBox="0 0 42 12" fill="none" xmlns="http://www.w3.org/2000/svg">
<path d="M7.27132 10.7238C6.09945 10.7238 5.07948 10.5242 4.21143 10.1248C3.34337 9.72553 2.67063 9.15912 2.1932 8.42562C1.71577 7.68777 1.47705 6.81971 1.47705 5.82145V5.80843C1.47705 4.81016 1.71577 3.94428 2.1932 3.21077C2.67063 2.47727 3.34337 1.91086 4.21143 1.51156C5.08382 1.11225 6.10379 0.912598 7.27132 0.912598C8.44754 0.912598 9.46968 1.11225 10.3377 1.51156C11.2057 1.91086 11.8785 2.47727 12.3559 3.21077C12.8333 3.94428 13.0721 4.81016 13.0721 5.80843V5.82145C13.0721 6.81971 12.8333 7.6856 12.3559 8.41911C11.8785 9.15261 11.2057 9.72119 10.3377 10.1248C9.46968 10.5242 8.44754 10.7238 7.27132 10.7238ZM7.27132 9.00504C8.00483 9.00504 8.64068 8.87484 9.17888 8.61442C9.72141 8.354 10.1402 7.98508 10.4354 7.50765C10.7349 7.03022 10.8846 6.46815 10.8846 5.82145V5.80843C10.8846 5.16173 10.7349 4.60183 10.4354 4.12874C10.1402 3.65131 9.72141 3.28239 9.17888 3.02197C8.64068 2.76155 8.00483 2.63135 7.27132 2.63135C6.54216 2.63135 5.90631 2.76155 5.36377 3.02197C4.82558 3.28239 4.40674 3.65131 4.10726 4.12874C3.81212 4.60183 3.66455 5.16173 3.66455 5.80843V5.82145C3.66455 6.46815 3.81212 7.03022 4.10726 7.50765C4.4024 7.98508 4.82124 8.354 5.36377 8.61442C5.90631 8.87484 6.54216 9.00504 7.27132 9.00504ZM10.4875 11.4465L6.99789 7.42952H9.08773L12.5773 11.4465H10.4875ZM20.1749 10.7173C19.1376 10.7173 18.2392 10.5459 17.4796 10.203C16.7244 9.86008 16.1406 9.36312 15.7283 8.71207C15.3203 8.06103 15.1163 7.26893 15.1163 6.33577V1.12093H17.2583V6.27067C17.2583 6.84793 17.3689 7.34055 17.5903 7.74853C17.816 8.15218 18.1437 8.46034 18.5734 8.67301C19.0074 8.88569 19.5412 8.99202 20.1749 8.99202C20.8086 8.99202 21.3403 8.88569 21.77 8.67301C22.204 8.46034 22.5317 8.15218 22.753 7.74853C22.9744 7.34055 23.0851 6.84793 23.0851 6.27067V1.12093H25.2335V6.33577C25.2335 7.26459 25.0295 8.05669 24.6215 8.71207C24.2135 9.36312 23.6298 9.86008 22.8702 10.203C22.115 10.5459 21.2166 10.7173 20.1749 10.7173ZM27.701 10.5155V1.12093H29.8494V10.5155H27.701ZM32.0564 10.5155V9.15478L38.2934 2.87223V2.80713H32.1801V1.12093H41.2556V2.48161L35.0317 8.76416V8.82926H41.4054V10.5155H32.0564Z" fill="white" fill-opacity="0.4"/>
</svg>
