<svg width="20" height="17" viewBox="0 0 20 17" fill="none" xmlns="http://www.w3.org/2000/svg">
<path d="M17.4191 7.10612H4.07607L8.4659 2.71629C8.59097 2.59225 8.69023 2.44468 8.75797 2.28208C8.82571 2.11948 8.86059 1.94508 8.86059 1.76894C8.86059 1.5928 8.82571 1.4184 8.75797 1.25581C8.69023 1.09321 8.59097 0.945637 8.4659 0.821597C8.21591 0.573083 7.87773 0.433594 7.52522 0.433594C7.17272 0.433594 6.83454 0.573083 6.58455 0.821597L0.860416 6.55906C0.359271 7.05722 0.0761604 7.7338 0.0731812 8.44041C0.0796746 9.14239 0.362516 9.81354 0.860416 10.3084L6.58455 16.0459C6.70895 16.1694 6.85647 16.2673 7.01869 16.3338C7.1809 16.4003 7.35462 16.4342 7.52994 16.4336C7.70526 16.433 7.87874 16.3978 8.04048 16.3302C8.20222 16.2625 8.34904 16.1636 8.47257 16.0392C8.59611 15.9148 8.69392 15.7673 8.76044 15.6051C8.82696 15.4429 8.86088 15.2692 8.86026 15.0938C8.85964 14.9185 8.8245 14.745 8.75683 14.5833C8.68917 14.4216 8.59031 14.2747 8.4659 14.1512L4.07607 9.77471H17.4191C17.7729 9.77471 18.1123 9.63413 18.3625 9.3839C18.6128 9.13367 18.7533 8.79429 18.7533 8.44041C18.7533 8.08654 18.6128 7.74715 18.3625 7.49693C18.1123 7.2467 17.7729 7.10612 17.4191 7.10612Z" fill="white"/>
</svg>
