<svg width="20" height="17" viewBox="0 0 20 17" fill="none" xmlns="http://www.w3.org/2000/svg">
<path d="M17.4191 7.10612H4.07613L8.46596 2.71629C8.59103 2.59225 8.69029 2.44468 8.75803 2.28208C8.82577 2.11948 8.86065 1.94508 8.86065 1.76894C8.86065 1.5928 8.82577 1.4184 8.75803 1.25581C8.69029 1.09321 8.59103 0.945637 8.46596 0.821597C8.21597 0.573083 7.87779 0.433594 7.52528 0.433594C7.17278 0.433594 6.8346 0.573083 6.58461 0.821597L0.860477 6.55906C0.359332 7.05722 0.0762214 7.7338 0.0732422 8.44041C0.0797357 9.14239 0.362577 9.81354 0.860477 10.3084L6.58461 16.0459C6.70901 16.1694 6.85653 16.2673 7.01875 16.3338C7.18096 16.4003 7.35468 16.4342 7.53 16.4336C7.70532 16.433 7.8788 16.3978 8.04054 16.3302C8.20228 16.2625 8.3491 16.1636 8.47263 16.0392C8.59617 15.9148 8.69398 15.7673 8.7605 15.6051C8.82702 15.4429 8.86094 15.2692 8.86032 15.0938C8.8597 14.9185 8.82456 14.745 8.75689 14.5833C8.68923 14.4216 8.59037 14.2747 8.46596 14.1512L4.07613 9.77471H17.4191C17.7729 9.77471 18.1123 9.63413 18.3625 9.3839C18.6128 9.13367 18.7533 8.79429 18.7533 8.44041C18.7533 8.08654 18.6128 7.74715 18.3625 7.49693C18.1123 7.2467 17.7729 7.10612 17.4191 7.10612Z" fill="white"/>
</svg>
