<svg width="42" height="12" viewBox="0 0 42 12" fill="none" xmlns="http://www.w3.org/2000/svg">
<path d="M6.93269 10.6417C5.76082 10.6417 4.74085 10.4421 3.8728 10.0428C3.00474 9.6435 2.332 9.07709 1.85457 8.34359C1.37714 7.60574 1.13843 6.73768 1.13843 5.73942V5.7264C1.13843 4.72813 1.37714 3.86225 1.85457 3.12874C2.332 2.39524 3.00474 1.82883 3.8728 1.42952C4.74519 1.03022 5.76516 0.830566 6.93269 0.830566C8.10891 0.830566 9.13105 1.03022 9.9991 1.42952C10.8671 1.82883 11.5399 2.39524 12.0173 3.12874C12.4947 3.86225 12.7335 4.72813 12.7335 5.7264V5.73942C12.7335 6.73768 12.4947 7.60357 12.0173 8.33708C11.5399 9.07058 10.8671 9.63916 9.9991 10.0428C9.13105 10.4421 8.10891 10.6417 6.93269 10.6417ZM6.93269 8.92301C7.6662 8.92301 8.30205 8.79281 8.84025 8.53239C9.38278 8.27197 9.80162 7.90305 10.0968 7.42562C10.3962 6.94819 10.546 6.38612 10.546 5.73942V5.7264C10.546 5.0797 10.3962 4.5198 10.0968 4.04671C9.80162 3.56928 9.38278 3.20036 8.84025 2.93994C8.30205 2.67952 7.6662 2.54932 6.93269 2.54932C6.20353 2.54932 5.56768 2.67952 5.02514 2.93994C4.48695 3.20036 4.06811 3.56928 3.76863 4.04671C3.47349 4.5198 3.32592 5.0797 3.32592 5.7264V5.73942C3.32592 6.38612 3.47349 6.94819 3.76863 7.42562C4.06377 7.90305 4.48261 8.27197 5.02514 8.53239C5.56768 8.79281 6.20353 8.92301 6.93269 8.92301ZM10.1488 11.3644L6.65926 7.34749H8.7491L12.2387 11.3644H10.1488ZM19.8363 10.6352C18.799 10.6352 17.9006 10.4638 17.141 10.1209C16.3858 9.77805 15.802 9.28109 15.3897 8.63004C14.9817 7.979 14.7777 7.1869 14.7777 6.25374V1.0389H16.9197V6.18864C16.9197 6.7659 17.0303 7.25852 17.2517 7.6665C17.4774 8.07015 17.8051 8.37831 18.2348 8.59098C18.6688 8.80366 19.2026 8.90999 19.8363 8.90999C20.47 8.90999 21.0017 8.80366 21.4314 8.59098C21.8654 8.37831 22.1931 8.07015 22.4144 7.6665C22.6358 7.25852 22.7465 6.7659 22.7465 6.18864V1.0389H24.8949V6.25374C24.8949 7.18256 24.6909 7.97466 24.2829 8.63004C23.8749 9.28109 23.2912 9.77805 22.5316 10.1209C21.7764 10.4638 20.878 10.6352 19.8363 10.6352ZM27.3624 10.4334V1.0389H29.5108V10.4334H27.3624ZM31.7178 10.4334V9.07275L37.9548 2.7902V2.7251H31.8415V1.0389H40.917V2.39958L34.6931 8.68213V8.74723H41.0668V10.4334H31.7178Z" fill="white" fill-opacity="0.4"/>
</svg>
