<svg width="17" height="21" viewBox="0 0 17 21" fill="none" xmlns="http://www.w3.org/2000/svg">
<mask id="mask0_15_132" style="mask-type:luminance" maskUnits="userSpaceOnUse" x="0" y="2" width="17" height="17">
<path d="M16.1318 2.64844H0.131836V18.6484H16.1318V2.64844Z" fill="white"/>
</mask>
<g mask="url(#mask0_15_132)">
<path d="M8.13184 18.6484C12.5501 18.6484 16.1318 15.0667 16.1318 10.6484C16.1318 6.23016 12.5501 2.64844 8.13184 2.64844C3.71356 2.64844 0.131836 6.23016 0.131836 10.6484C0.131836 15.0667 3.71356 18.6484 8.13184 18.6484Z" fill="url(#paint0_linear_15_132)"/>
<path d="M11.4622 13.7017H4.80049C4.34131 13.7017 3.96777 14.0753 3.96777 14.5344C3.96777 14.9936 4.34131 15.3672 4.80049 15.3672H11.4622C11.9214 15.3672 12.295 14.9936 12.295 14.5344C12.295 14.0753 11.9214 13.7017 11.4622 13.7017ZM6.29949 9.76041C6.83568 10.1621 7.29865 10.5096 7.29865 11.2036V12.0363H8.96408V11.2036C8.96408 10.5096 9.42704 10.1621 9.96328 9.76041C10.5358 9.33103 11.1847 8.84419 11.1847 7.87269C11.1847 6.89647 10.4584 6.09388 9.51928 5.95772V6.20726C9.51928 6.87766 9.04184 7.43813 8.40896 7.56706V8.03534L8.744 8.37038C8.8524 8.47878 8.8524 8.65447 8.744 8.76288C8.63552 8.87131 8.45992 8.87131 8.35152 8.76288L8.13137 8.54278L7.91128 8.76288C7.80284 8.87131 7.62718 8.87131 7.51877 8.76288C7.41033 8.65447 7.41033 8.47878 7.51877 8.37038L7.85381 8.03534V7.56706C7.22097 7.43816 6.74353 6.87766 6.74353 6.20726V5.95772C5.8044 6.09388 5.07809 6.89647 5.07809 7.87269C5.07805 8.84422 5.727 9.33106 6.29949 9.76041ZM8.13137 7.03997C8.59056 7.03997 8.96408 6.66644 8.96408 6.20726V5.92969H7.29865V6.20726C7.29865 6.66644 7.67218 7.03997 8.13137 7.03997ZM5.12918 13.1466H11.1335C11.0186 12.8242 10.7134 12.5915 10.352 12.5915H5.91077C5.54937 12.5915 5.24415 12.8242 5.12918 13.1466ZM9.7968 11.4812C9.64336 11.4812 9.51928 11.6053 9.51928 11.7588V12.0363H10.0744V11.7588C10.0744 11.6053 9.95024 11.4812 9.7968 11.4812Z" fill="url(#paint1_linear_15_132)"/>
</g>
<defs>
<linearGradient id="paint0_linear_15_132" x1="8.13184" y1="18.6484" x2="8.13184" y2="2.64844" gradientUnits="userSpaceOnUse">
<stop stop-color="#807195" stop-opacity="0"/>
<stop offset="1" stop-color="#A872B2"/>
</linearGradient>
<linearGradient id="paint1_linear_15_132" x1="8.13137" y1="15.3672" x2="8.13137" y2="5.92969" gradientUnits="userSpaceOnUse">
<stop stop-color="#C3B1C8"/>
<stop offset="1" stop-color="white"/>
</linearGradient>
</defs>
</svg>
