<svg width="58" height="21" viewBox="0 0 58 21" fill="none" xmlns="http://www.w3.org/2000/svg">
<path fill-rule="evenodd" clip-rule="evenodd" d="M27.096 0.648438C25.9368 0.648438 25.0452 1.60082 25.0452 2.71493C25.0452 3.847 25.9368 4.74547 27.096 4.74547C28.2552 4.74547 29.0934 3.847 29.0934 2.71493C29.0934 1.60082 28.2552 0.648438 27.096 0.648438ZM28.701 5.44629L24.8133 6.95571C26.1152 8.35733 26.0439 13.0473 25.7585 14.1255C25.598 14.7544 25.3127 15.4013 24.7777 16.174C24.7242 16.2369 24.6395 16.3357 24.5548 16.4346C24.47 16.5334 24.3853 16.6322 24.3318 16.6951L23.779 17.1623H29.7354C29.236 16.7311 28.701 15.4732 28.701 13.245V5.44629ZM0.827346 16.9108L0.131836 10.7652C0.131836 10.7652 1.38019 12.2567 1.48719 12.3825C4.30488 16.0842 7.06906 16.9467 8.06774 16.9826C8.92375 16.9826 9.49442 16.6772 9.70842 15.6529C10.0651 13.9458 7.49707 12.3106 5.14305 11.0527C5.10739 11.0347 5.07618 11.0168 5.04497 10.9988C5.01376 10.9808 4.98255 10.9629 4.94688 10.9449C2.75336 9.75895 0.720339 8.1417 0.720339 5.3744C0.720339 2.58914 3.18137 1.31331 6.10606 1.31331C8.28174 1.31331 9.92242 1.70864 10.8676 2.15788L11.7771 6.6143H11.7414C9.69059 3.54152 6.33789 1.61879 4.76855 1.60082C3.85904 1.60082 2.7712 2.01412 2.75336 2.93056C2.7177 3.70325 3.27054 5.15877 7.19391 7.11744C10.3147 8.66282 11.9554 10.4058 11.9732 12.7418C11.9911 15.1677 9.90459 16.9108 7.65757 17.3061C4.76855 17.8092 2.09353 17.4319 0.827346 16.9108ZM12.7683 8.46393C12.5916 8.04951 12.45 7.71731 12.3656 7.65653L16.6813 5.42831V7.51277C16.8418 7.18932 17.8761 5.7877 20.0518 5.7877C22.2453 5.7877 24.5458 7.27917 24.5458 11.2863C24.5458 15.617 21.8352 17.324 19.9626 17.324C18.3041 17.324 17.2163 16.3896 16.7883 16.0123C16.7348 15.9584 16.6991 15.9224 16.6634 15.9045V16.9108C16.6634 18.6718 17.1984 20.2171 17.6978 20.6484H11.7771C12.915 19.8612 13.2603 18.308 13.4447 17.4788C13.4539 17.4373 13.4627 17.3977 13.4712 17.36C13.5002 17.2335 13.524 17.1017 13.5482 16.9675C13.5686 16.8539 13.5894 16.7386 13.6139 16.6232C13.6965 16.221 13.7366 15.5512 13.767 15.0434C13.776 14.8933 13.7841 14.7573 13.7923 14.6466C13.9171 12.7598 13.8279 10.8191 13.0432 9.09408C12.9452 8.87902 12.8527 8.66207 12.7683 8.46393ZM16.5921 7.9081L16.6456 15.7427C17.0201 16.1381 17.7156 16.6412 18.8213 16.6232C20.5155 16.6053 21.1753 14.6646 21.1575 11.5199C21.104 8.05185 20.1588 6.30881 18.75 6.41663C17.6086 6.50648 16.8239 7.2612 16.5921 7.9081ZM31.7506 9.38159C31.5901 8.68078 31.0372 7.42292 30.8946 7.3151L35.1211 5.48223L34.9428 10.2441C35.4243 7.65653 36.7439 6.11116 39.526 5.84162L38.8483 9.14799C37.386 8.82454 34.9428 8.53703 34.9428 10.909L34.9249 13.4966C35.0262 15.5202 35.8621 16.6265 36.2236 17.1049C36.2441 17.132 36.263 17.1572 36.2803 17.1803H30.6627C31.4831 16.2998 31.8219 15.3833 32.0002 14.1794C32.1429 13.1372 32.0894 10.855 31.7506 9.38159ZM42.4863 0.72032C41.3271 0.72032 40.4355 1.6727 40.4355 2.78681C40.4355 3.91888 41.3271 4.79939 42.4863 4.81736C43.6455 4.81736 44.4837 3.91888 44.4837 2.78681C44.4837 1.6727 43.6455 0.72032 42.4863 0.72032ZM44.1092 5.50019L40.2215 7.00963C41.5055 8.41125 41.4341 13.1192 41.1666 14.1974C41.0061 14.8263 40.7208 15.4732 40.1858 16.2459C40.1323 16.3088 40.0474 16.4078 39.9627 16.5067C39.878 16.6055 39.7934 16.7042 39.74 16.767L39.1871 17.2342H45.1435C44.6442 16.8029 44.1092 15.5451 44.1092 13.3169V5.50019ZM45.5 11.5018C45.5 8.30331 48.0681 5.50008 51.2068 5.75165C54.1671 5.98526 56.6638 8.46504 56.8778 11.5198C57.0918 14.7004 54.3633 17.288 51.1889 17.288C48.0324 17.288 45.5 14.7363 45.5 11.5018ZM48.0324 8.37519C47.9432 11.43 50.1546 16.7489 52.8653 16.8747C53.7034 16.9106 54.185 16.2098 54.1493 14.6824C54.1314 11.987 52.2233 7.26108 49.3699 6.3087C48.4961 6.02119 48.0681 7.11733 48.0324 8.37519ZM49.9227 8.87833C49.5126 10.5495 50.5113 13.9097 52.4016 14.7543C52.6691 12.8675 51.8309 9.79477 49.9227 8.87833Z" fill="url(#paint0_linear_15_177)"/>
<defs>
<linearGradient id="paint0_linear_15_177" x1="30.1324" y1="0.572188" x2="86.5359" y2="39.018" gradientUnits="userSpaceOnUse">
<stop stop-color="white"/>
<stop offset="1" stop-color="#59382A" stop-opacity="0"/>
</linearGradient>
</defs>
</svg>
