<svg width="42" height="12" viewBox="0 0 42 12" fill="none" xmlns="http://www.w3.org/2000/svg">
<path d="M6.72127 10.3566C5.5494 10.3566 4.52943 10.157 3.66138 9.75765C2.79332 9.35834 2.12058 8.79193 1.64315 8.05843C1.16572 7.32058 0.927002 6.45252 0.927002 5.45426V5.44124C0.927002 4.44297 1.16572 3.57709 1.64315 2.84358C2.12058 2.11008 2.79332 1.54367 3.66138 1.14437C4.53377 0.745062 5.55374 0.54541 6.72127 0.54541C7.89749 0.54541 8.91963 0.745062 9.78768 1.14437C10.6557 1.54367 11.3285 2.11008 11.8059 2.84358C12.2833 3.57709 12.5221 4.44297 12.5221 5.44124V5.45426C12.5221 6.45252 12.2833 7.31841 11.8059 8.05192C11.3285 8.78542 10.6557 9.354 9.78768 9.75765C8.91963 10.157 7.89749 10.3566 6.72127 10.3566ZM6.72127 8.63785C7.45478 8.63785 8.09063 8.50765 8.62883 8.24723C9.17136 7.98681 9.5902 7.61789 9.88534 7.14046C10.1848 6.66303 10.3346 6.10096 10.3346 5.45426V5.44124C10.3346 4.79454 10.1848 4.23464 9.88534 3.76155C9.5902 3.28412 9.17136 2.9152 8.62883 2.65478C8.09063 2.39436 7.45478 2.26416 6.72127 2.26416C5.99211 2.26416 5.35626 2.39436 4.81372 2.65478C4.27553 2.9152 3.85669 3.28412 3.55721 3.76155C3.26207 4.23464 3.1145 4.79454 3.1145 5.44124V5.45426C3.1145 6.10096 3.26207 6.66303 3.55721 7.14046C3.85235 7.61789 4.27119 7.98681 4.81372 8.24723C5.35626 8.50765 5.99211 8.63785 6.72127 8.63785ZM9.93742 11.0793L6.44784 7.06233H8.53768L12.0273 11.0793H9.93742ZM19.6249 10.3501C18.5876 10.3501 17.6892 10.1787 16.9296 9.83577C16.1744 9.49289 15.5906 8.99593 15.1783 8.34488C14.7703 7.69384 14.5663 6.90174 14.5663 5.96858V0.753743H16.7083V5.90348C16.7083 6.48074 16.8189 6.97336 17.0403 7.38134C17.266 7.78499 17.5937 8.09315 18.0234 8.30582C18.4574 8.5185 18.9912 8.62483 19.6249 8.62483C20.2586 8.62483 20.7903 8.5185 21.22 8.30582C21.654 8.09315 21.9817 7.78499 22.203 7.38134C22.4244 6.97336 22.5351 6.48074 22.5351 5.90348V0.753743H24.6835V5.96858C24.6835 6.8974 24.4795 7.6895 24.0715 8.34488C23.6635 8.99593 23.0798 9.49289 22.3202 9.83577C21.565 10.1787 20.6666 10.3501 19.6249 10.3501ZM27.151 10.1483V0.753743H29.2994V10.1483H27.151ZM31.5064 10.1483V8.78759L37.7434 2.50504V2.43994H31.6301V0.753743H40.7056V2.11442L34.4817 8.39697V8.46207H40.8554V10.1483H31.5064Z" fill="white" fill-opacity="0.4"/>
</svg>
