<svg width="45" height="45" viewBox="0 0 45 45" fill="none" xmlns="http://www.w3.org/2000/svg">
<path d="M36.1318 0.648438H8.13184C3.71356 0.648438 0.131836 4.23016 0.131836 8.64844V36.6484C0.131836 41.0667 3.71356 44.6484 8.13184 44.6484H36.1318C40.5501 44.6484 44.1318 41.0667 44.1318 36.6484V8.64844C44.1318 4.23016 40.5501 0.648438 36.1318 0.648438Z" fill="#FF4F4F"/>
<path d="M35.4225 27.9587L26.1989 11.9746C25.3677 10.5353 23.8322 9.64844 22.1698 9.64844C20.5076 9.64844 18.972 10.5353 18.1409 11.9746L8.75518 28.2324C7.92405 29.6717 7.92405 31.4454 8.75518 32.8847C9.58632 34.324 11.1219 35.2109 12.7841 35.2109H31.5556C31.5608 35.2109 31.5658 35.2109 31.5658 35.2109C34.1352 35.2109 36.2181 33.1279 36.2181 30.5586C36.2181 29.5957 35.9242 28.6986 35.4225 27.9587ZM24.1616 29.5145C24.1616 30.6143 23.3152 31.4555 22.175 31.4555C21.0347 31.4555 20.1883 30.6143 20.1883 29.5145V29.469C20.1883 28.3742 21.0347 27.5279 22.175 27.5279C23.3152 27.5279 24.1616 28.3692 24.1616 29.469V29.5145ZM24.2072 16.4293L23.224 25.0143C23.1581 25.6326 22.7476 26.0177 22.175 26.0177C21.6023 26.0177 21.1918 25.6275 21.1259 25.0143L20.1427 16.4242C20.0768 15.7603 20.4367 15.2586 21.055 15.2586H23.2899C23.9082 15.2636 24.2731 15.7654 24.2072 16.4293Z" fill="white"/>
</svg>
