<svg width="32" height="21" viewBox="0 0 32 21" fill="none" xmlns="http://www.w3.org/2000/svg">
<path d="M30 0.959473H2C1.17157 0.959473 0.5 1.63105 0.5 2.45947V18.4595C0.5 19.2879 1.17157 19.9595 2 19.9595H30C30.8284 19.9595 31.5 19.2879 31.5 18.4595V2.45947C31.5 1.63105 30.8284 0.959473 30 0.959473Z" fill="white"/>
<path d="M30 0.959473H2C1.17157 0.959473 0.5 1.63105 0.5 2.45947V18.4595C0.5 19.2879 1.17157 19.9595 2 19.9595H30C30.8284 19.9595 31.5 19.2879 31.5 18.4595V2.45947C31.5 1.63105 30.8284 0.959473 30 0.959473Z" stroke="#EDEEF0"/>
<mask id="mask0_1_100" style="mask-type:luminance" maskUnits="userSpaceOnUse" x="5" y="6" width="22" height="10">
<path d="M27 6.45947H5V15.4595H27V6.45947Z" fill="white"/>
</mask>
<g mask="url(#mask0_1_100)">
<path d="M9.02326 7.61979C8.76545 7.92379 8.35295 8.16356 7.94045 8.12931C7.88889 7.71827 8.09084 7.28154 8.32717 7.0118C8.58498 6.69924 9.03615 6.4766 9.40139 6.45947C9.44435 6.88763 9.27678 7.30723 9.02326 7.61979ZM9.39709 8.21066C8.79982 8.17641 8.2885 8.54891 8.0049 8.54891C7.71701 8.54891 7.28303 8.22779 6.81037 8.23635C6.19592 8.24491 5.62443 8.59173 5.31076 9.14406C4.66623 10.2487 5.14318 11.8843 5.76623 12.7835C6.07131 13.2288 6.43654 13.7169 6.91779 13.6997C7.37326 13.6826 7.55373 13.4043 8.10373 13.4043C8.65803 13.4043 8.81701 13.6997 9.29826 13.6912C9.7967 13.6826 10.1104 13.2459 10.4154 12.8006C10.7635 12.2954 10.9053 11.803 10.9139 11.7773C10.9053 11.7687 9.95139 11.4048 9.94279 10.3087C9.9342 9.39239 10.6947 8.95566 10.7291 8.92997C10.2994 8.29629 9.62912 8.22779 9.39709 8.21066ZM12.8475 6.96898V13.6441H13.8873V11.362H15.3268C16.6416 11.362 17.5654 10.4628 17.5654 9.16118C17.5654 7.85957 16.6588 6.96898 15.3612 6.96898H12.8475ZM13.8873 7.84244H15.0862C15.9885 7.84244 16.5041 8.32198 16.5041 9.16546C16.5041 10.009 15.9885 10.4928 15.0819 10.4928H13.8873V7.84244ZM19.4647 13.6955C20.1178 13.6955 20.7236 13.3658 20.9986 12.8434H21.0201V13.6441H21.9826V10.3215C21.9826 9.35814 21.2092 8.7373 20.019 8.7373C18.9147 8.7373 18.0983 9.3667 18.0682 10.2316H19.0049C19.0822 9.82055 19.4647 9.55081 19.9889 9.55081C20.6248 9.55081 20.9815 9.84624 20.9815 10.39V10.7583L19.6838 10.8353C18.4764 10.9081 17.8233 11.4005 17.8233 12.2568C17.8233 13.1217 18.4979 13.6955 19.4647 13.6955ZM19.744 12.9034C19.1897 12.9034 18.8373 12.6379 18.8373 12.2311C18.8373 11.8115 19.1768 11.5675 19.8256 11.529L20.9815 11.4562V11.833C20.9815 12.4581 20.4487 12.9034 19.744 12.9034ZM23.2674 15.4595C24.2815 15.4595 24.7584 15.0742 25.1752 13.9053L27.0014 8.80153H25.9444L24.7197 12.7449H24.6983L23.4736 8.80153H22.3865L24.1483 13.6612L24.0537 13.9566C23.8947 14.4576 23.6369 14.6503 23.1772 14.6503C23.0955 14.6503 22.9365 14.6417 22.8721 14.6331V15.4338C22.9322 15.4509 23.1901 15.4595 23.2674 15.4595Z" fill="black"/>
</g>
</svg>
