<svg width="24" height="25" viewBox="0 0 24 25" fill="none" xmlns="http://www.w3.org/2000/svg">
<mask id="mask0_1_44" style="mask-type:luminance" maskUnits="userSpaceOnUse" x="0" y="0" width="24" height="24">
<path d="M23.52 0.847168H0.47998V23.8872H23.52V0.847168Z" fill="white"/>
</mask>
<g mask="url(#mask0_1_44)">
<path d="M18.7216 2.09229H11.5412C11.0867 2.09229 10.6502 2.27321 10.3287 2.59476L0.982243 11.9395C0.31256 12.6092 0.31256 13.6947 0.982243 14.3653L8.16272 21.5457C8.83239 22.2154 9.91793 22.2154 10.5876 21.5457L19.9341 12.201C20.2556 11.8786 20.4366 11.4422 20.4366 10.9869V3.80723C20.4366 2.85972 19.6691 2.09229 18.7216 2.09229ZM15.7205 8.09459C15.0104 8.09459 14.4343 7.51837 14.4343 6.80838C14.4343 6.09839 15.0104 5.52217 15.7205 5.52217C16.4305 5.52217 17.0067 6.09839 17.0067 6.80838C17.0067 7.51837 16.4305 8.09459 15.7205 8.09459Z" fill="#FFCD4C"/>
<path d="M22.1515 3.80615L22.1507 11.7884C22.1507 12.1836 21.9937 12.5635 21.7134 12.843L12.216 22.3404L12.3617 22.4861C13.0314 23.1558 14.117 23.1558 14.7867 22.4861L23.3631 13.9114C23.6855 13.5899 23.8665 13.1534 23.8665 12.6989V5.52109C23.8665 4.57359 23.099 3.80615 22.1515 3.80615Z" fill="#FFCD4C"/>
</g>
</svg>
