<svg width="32" height="21" viewBox="0 0 32 21" fill="none" xmlns="http://www.w3.org/2000/svg">
<path d="M30 1.31006H2C1.17157 1.31006 0.5 1.98163 0.5 2.81006V18.8101C0.5 19.6385 1.17157 20.3101 2 20.3101H30C30.8284 20.3101 31.5 19.6385 31.5 18.8101V2.81006C31.5 1.98163 30.8284 1.31006 30 1.31006Z" fill="white"/>
<path d="M30 1.31006H2C1.17157 1.31006 0.5 1.98163 0.5 2.81006V18.8101C0.5 19.6385 1.17157 20.3101 2 20.3101H30C30.8284 20.3101 31.5 19.6385 31.5 18.8101V2.81006C31.5 1.98163 30.8284 1.31006 30 1.31006Z" stroke="#EDEEF0"/>
<mask id="mask0_1_1417" style="mask-type:luminance" maskUnits="userSpaceOnUse" x="5" y="6" width="22" height="10">
<path d="M27 6.81006H5V15.8101H27V6.81006Z" fill="white"/>
</mask>
<g mask="url(#mask0_1_1417)">
<path d="M9.02326 7.97038C8.76545 8.27438 8.35295 8.51415 7.94045 8.4799C7.88889 8.06886 8.09084 7.63213 8.32717 7.36239C8.58498 7.04983 9.03615 6.82719 9.40139 6.81006C9.44435 7.23822 9.27678 7.65782 9.02326 7.97038ZM9.39709 8.56125C8.79982 8.527 8.2885 8.8995 8.0049 8.8995C7.71701 8.8995 7.28303 8.57838 6.81037 8.58694C6.19592 8.5955 5.62443 8.94232 5.31076 9.49465C4.66623 10.5993 5.14318 12.2349 5.76623 13.1341C6.07131 13.5794 6.43654 14.0675 6.91779 14.0503C7.37326 14.0332 7.55373 13.7549 8.10373 13.7549C8.65803 13.7549 8.81701 14.0503 9.29826 14.0418C9.7967 14.0332 10.1104 13.5965 10.4154 13.1512C10.7635 12.646 10.9053 12.1536 10.9139 12.1279C10.9053 12.1193 9.95139 11.7554 9.94279 10.6592C9.9342 9.74298 10.6947 9.30625 10.7291 9.28056C10.2994 8.64688 9.62912 8.57838 9.39709 8.56125ZM12.8475 7.31957V13.9947H13.8873V11.7126H15.3268C16.6416 11.7126 17.5654 10.8134 17.5654 9.51177C17.5654 8.21016 16.6588 7.31957 15.3612 7.31957H12.8475ZM13.8873 8.19303H15.0862C15.9885 8.19303 16.5041 8.67257 16.5041 9.51605C16.5041 10.3595 15.9885 10.8434 15.0819 10.8434H13.8873V8.19303ZM19.4647 14.0461C20.1178 14.0461 20.7236 13.7164 20.9986 13.194H21.0201V13.9947H21.9826V10.6721C21.9826 9.70873 21.2092 9.08789 20.019 9.08789C18.9147 9.08789 18.0983 9.71729 18.0682 10.5822H19.0049C19.0822 10.1711 19.4647 9.9014 19.9889 9.9014C20.6248 9.9014 20.9815 10.1968 20.9815 10.7406V11.1089L19.6838 11.1859C18.4764 11.2587 17.8233 11.7511 17.8233 12.6074C17.8233 13.4723 18.4979 14.0461 19.4647 14.0461ZM19.744 13.254C19.1897 13.254 18.8373 12.9885 18.8373 12.5817C18.8373 12.1621 19.1768 11.9181 19.8256 11.8796L20.9815 11.8068V12.1836C20.9815 12.8087 20.4487 13.254 19.744 13.254ZM23.2674 15.8101C24.2815 15.8101 24.7584 15.4248 25.1752 14.2559L27.0014 9.15212H25.9444L24.7197 13.0955H24.6983L23.4736 9.15212H22.3865L24.1483 14.0118L24.0537 14.3072C23.8947 14.8082 23.6369 15.0009 23.1772 15.0009C23.0955 15.0009 22.9365 14.9923 22.8721 14.9837V15.7844C22.9322 15.8015 23.1901 15.8101 23.2674 15.8101Z" fill="black"/>
</g>
</svg>
