<svg width="16" height="17" viewBox="0 0 16 17" fill="none" xmlns="http://www.w3.org/2000/svg">
<path d="M12.6668 5.92606V4.97672C12.6668 2.3994 10.5775 0.310059 8.00015 0.310059C5.42281 0.310059 3.3335 2.3994 3.3335 4.97672V5.92606C2.12018 6.45559 1.33525 7.6529 1.3335 8.97672V12.9768C1.33568 14.8168 2.82678 16.3079 4.66681 16.3101H11.3335C13.1735 16.3079 14.6646 14.8168 14.6668 12.9768V8.97672C14.6651 7.6529 13.8801 6.45559 12.6668 5.92606ZM8.66681 11.6434C8.66681 12.0116 8.36834 12.3101 8.00015 12.3101C7.63197 12.3101 7.3335 12.0116 7.3335 11.6434V10.3101C7.3335 9.94187 7.63197 9.6434 8.00015 9.6434C8.36834 9.6434 8.66681 9.94187 8.66681 10.3101V11.6434ZM11.3335 5.6434H4.66681V4.97675C4.66681 3.13581 6.15918 1.6434 8.00015 1.6434C9.84112 1.6434 11.3335 3.13578 11.3335 4.97675V5.6434Z" fill="#FFCD4C"/>
</svg>
