<svg width="30" height="21" viewBox="0 0 30 21" fill="none" xmlns="http://www.w3.org/2000/svg">
<path d="M26 0.699951H4C1.79086 0.699951 0 2.49081 0 4.69995V16.7C0 18.9091 1.79086 20.7 4 20.7H26C28.2091 20.7 30 18.9091 30 16.7V4.69995C30 2.49081 28.2091 0.699951 26 0.699951Z" fill="#1F72CD"/>
<path fill-rule="evenodd" clip-rule="evenodd" d="M5.64537 7.65894L2.91797 13.7345H6.18305L6.58783 12.7658H7.51306L7.91783 13.7345H11.5118V12.9952L11.832 13.7345H13.6911L14.0113 12.9795V13.7345H21.4858L22.3946 12.791L23.2456 13.7345L27.0846 13.7423L24.3486 10.7137L27.0846 7.65894H23.3052L22.4204 8.58504L21.5962 7.65894H13.465L12.7668 9.22709L12.0522 7.65894H8.79393V8.37312L8.43147 7.65894H5.64537ZM16.8068 8.5217H21.099L22.4117 9.9491L23.7668 8.5217H25.0796L23.085 10.7129L25.0796 12.8788H23.7073L22.3945 11.4348L21.0325 12.8788H16.8068V8.5217ZM17.8668 10.22V9.42415L20.545 9.42339L21.7136 10.6961L20.4932 11.9759H17.8668V11.1071H20.2083V10.22H17.8668ZM6.27713 8.5217H7.86868L9.67777 12.6416V8.5217H11.4213L12.8186 11.4756L14.1063 8.5217H15.8411V12.8813H14.7855L14.7769 9.46514L13.238 12.8813H12.2938L10.7462 9.46514V12.8813H8.57467L8.16299 11.904H5.93881L5.52797 12.8805H4.36448L6.27713 8.5217ZM6.31862 11.0003L7.0514 9.2592L7.78333 11.0003H6.31862Z" fill="white"/>
</svg>
