<svg width="30" height="21" viewBox="0 0 30 21" fill="none" xmlns="http://www.w3.org/2000/svg">
<path d="M26 0.54248H4C1.79086 0.54248 0 2.33334 0 4.54248V16.5425C0 18.7516 1.79086 20.5425 4 20.5425H26C28.2091 20.5425 30 18.7516 30 16.5425V4.54248C30 2.33334 28.2091 0.54248 26 0.54248Z" fill="#1F72CD"/>
<path fill-rule="evenodd" clip-rule="evenodd" d="M5.64537 7.50146L2.91797 13.577H6.18305L6.58783 12.6083H7.51306L7.91783 13.577H11.5118V12.8377L11.832 13.577H13.6911L14.0113 12.822V13.577H21.4858L22.3946 12.6335L23.2456 13.577L27.0846 13.5848L24.3486 10.5562L27.0846 7.50146H23.3052L22.4204 8.42756L21.5962 7.50146H13.465L12.7668 9.06961L12.0522 7.50146H8.79393V8.21564L8.43147 7.50146H5.64537ZM16.8068 8.36422H21.099L22.4117 9.79162L23.7668 8.36422H25.0796L23.085 10.5554L25.0796 12.7213H23.7073L22.3945 11.2773L21.0325 12.7213H16.8068V8.36422ZM17.8668 10.0625V9.26667L20.545 9.26591L21.7136 10.5387L20.4932 11.8184H17.8668V10.9496H20.2083V10.0625H17.8668ZM6.27713 8.36422H7.86868L9.67777 12.4841V8.36422H11.4213L12.8186 11.3181L14.1063 8.36422H15.8411V12.7238H14.7855L14.7769 9.30766L13.238 12.7238H12.2938L10.7462 9.30766V12.7238H8.57467L8.16299 11.7465H5.93881L5.52797 12.723H4.36448L6.27713 8.36422ZM6.31862 10.8428L7.0514 9.10173L7.78333 10.8428H6.31862Z" fill="white"/>
</svg>
