<svg width="16" height="18" viewBox="0 0 16 18" fill="none" xmlns="http://www.w3.org/2000/svg">
<mask id="mask0_1_1398" style="mask-type:luminance" maskUnits="userSpaceOnUse" x="0" y="1" width="16" height="17">
<path d="M16 1.57666H0V17.5767H16V1.57666Z" fill="white"/>
</mask>
<g mask="url(#mask0_1_1398)">
<path d="M6.01351 9.24356L7.34684 10.5769L10.3469 7.5769M13.3469 9.5769C13.3469 12.8492 9.77756 15.2292 8.47884 15.9868C8.33124 16.0729 8.25744 16.116 8.1533 16.1383C8.07247 16.1556 7.95455 16.1556 7.87372 16.1383C7.76957 16.116 7.69578 16.0729 7.54818 15.9868C6.24948 15.2292 2.68018 12.8492 2.68018 9.5769V6.38863C2.68018 5.85562 2.68018 5.58912 2.76735 5.36003C2.84436 5.15766 2.9695 4.97708 3.13195 4.83392C3.31584 4.67185 3.56537 4.57828 4.06445 4.39113L7.63898 3.05068C7.77757 2.9987 7.84687 2.97272 7.91816 2.96242C7.9814 2.95328 8.04562 2.95328 8.10885 2.96242C8.18014 2.97272 8.24944 2.9987 8.38804 3.05068L11.9626 4.39113C12.4617 4.57828 12.7112 4.67185 12.8951 4.83392C13.0576 4.97708 13.1827 5.15766 13.2597 5.36003C13.3469 5.58912 13.3469 5.85562 13.3469 6.38863V9.5769Z" stroke="#03BF5A" stroke-width="1.5" stroke-linecap="round" stroke-linejoin="round"/>
</g>
</svg>
