<svg width="32" height="21" viewBox="0 0 32 21" fill="none" xmlns="http://www.w3.org/2000/svg">
<path d="M30 0.976074H2C1.17157 0.976074 0.5 1.64765 0.5 2.47607V18.4761C0.5 19.3045 1.17157 19.9761 2 19.9761H30C30.8284 19.9761 31.5 19.3045 31.5 18.4761V2.47607C31.5 1.64765 30.8284 0.976074 30 0.976074Z" fill="white"/>
<path d="M30 0.976074H2C1.17157 0.976074 0.5 1.64765 0.5 2.47607V18.4761C0.5 19.3045 1.17157 19.9761 2 19.9761H30C30.8284 19.9761 31.5 19.3045 31.5 18.4761V2.47607C31.5 1.64765 30.8284 0.976074 30 0.976074Z" stroke="#EDEEF0"/>
<path fill-rule="evenodd" clip-rule="evenodd" d="M11.2979 13.4293H9.67083L8.45076 8.77464C8.39285 8.56053 8.2699 8.37124 8.08903 8.28203C7.63765 8.05783 7.14026 7.8794 6.59766 7.78941V7.61021H9.21866C9.5804 7.61021 9.8517 7.8794 9.89692 8.19204L10.53 11.5496L12.1562 7.61021H13.738L11.2979 13.4293ZM14.6404 13.4293H13.1038L14.3691 7.61022H15.9057L14.6404 13.4293ZM17.897 9.22233C17.9422 8.90892 18.2135 8.72972 18.53 8.72972C19.0274 8.68472 19.5692 8.77471 20.0214 8.99813L20.2927 7.74526C19.8405 7.56606 19.3432 7.47607 18.8918 7.47607C17.4004 7.47607 16.3152 8.2821 16.3152 9.40076C16.3152 10.2518 17.0839 10.6987 17.6265 10.9678C18.2135 11.2363 18.4396 11.4155 18.3944 11.6839C18.3944 12.0865 17.9422 12.2657 17.4908 12.2657C16.9482 12.2657 16.4056 12.1315 15.909 11.9073L15.6377 13.161C16.1803 13.3844 16.7674 13.4744 17.31 13.4744C18.9822 13.5186 20.0214 12.7133 20.0214 11.5047C20.0214 9.98259 17.897 9.89337 17.897 9.22233ZM25.4011 13.4293L24.1811 7.61021H22.8706C22.5993 7.61021 22.328 7.78941 22.2375 8.05783L19.9783 13.4293H21.5601L21.8758 12.5791H23.8193L24.0002 13.4293H25.4011ZM23.0942 9.17737L23.5456 11.3705H22.2803L23.0942 9.17737Z" fill="#1938C4"/>
</svg>
