<svg width="16" height="18" viewBox="0 0 16 18" fill="none" xmlns="http://www.w3.org/2000/svg">
<mask id="mask0_1_70" style="mask-type:luminance" maskUnits="userSpaceOnUse" x="0" y="1" width="16" height="17">
<path d="M16 1.19287H0V17.1929H16V1.19287Z" fill="white"/>
</mask>
<g mask="url(#mask0_1_70)">
<path d="M6.01351 8.85977L7.34684 10.1931L10.3469 7.19311M13.3469 9.19311C13.3469 12.4654 9.77756 14.8454 8.47884 15.603C8.33124 15.6891 8.25744 15.7322 8.1533 15.7545C8.07247 15.7718 7.95455 15.7718 7.87372 15.7545C7.76957 15.7322 7.69578 15.6891 7.54818 15.603C6.24948 14.8454 2.68018 12.4654 2.68018 9.19311V6.00484C2.68018 5.47183 2.68018 5.20533 2.76735 4.97624C2.84436 4.77387 2.9695 4.59329 3.13195 4.45013C3.31584 4.28806 3.56537 4.19449 4.06445 4.00734L7.63898 2.66689C7.77757 2.61491 7.84687 2.58893 7.91816 2.57863C7.9814 2.56949 8.04562 2.56949 8.10885 2.57863C8.18014 2.58893 8.24944 2.61491 8.38804 2.66689L11.9626 4.00734C12.4617 4.19449 12.7112 4.28806 12.8951 4.45013C13.0576 4.59329 13.1827 4.77387 13.2597 4.97624C13.3469 5.20533 13.3469 5.47183 13.3469 6.00484V9.19311Z" stroke="#03BF5A" stroke-width="1.5" stroke-linecap="round" stroke-linejoin="round"/>
</g>
</svg>
