<svg width="116" height="111" viewBox="0 0 116 111" fill="none" xmlns="http://www.w3.org/2000/svg">
<mask id="mask0_10_796" style="mask-type:alpha" maskUnits="userSpaceOnUse" x="1" y="0" width="115" height="111">
<path d="M100.556 0.787598H16.3217C8.11201 0.787598 1.45679 7.44282 1.45679 15.6525V95.9227C1.45679 104.132 8.11201 110.788 16.3217 110.788H100.556C108.766 110.788 115.421 104.132 115.421 95.9227V15.6525C115.421 7.44282 108.766 0.787598 100.556 0.787598Z" fill="white"/>
</mask>
<g mask="url(#mask0_10_796)">
<path d="M97.5829 53.7881C105.245 53.7881 111.457 47.5201 111.457 39.7881C111.457 32.0561 105.245 25.7881 97.5829 25.7881C89.9205 25.7881 83.709 32.0561 83.709 39.7881C83.709 47.5201 89.9205 53.7881 97.5829 53.7881Z" fill="white" fill-opacity="0.2" stroke="white" stroke-width="1.98198" stroke-linecap="round" stroke-dasharray="3.96 3.96"/>
<path d="M78.4022 134.364C78.1254 130.314 78.055 125.097 78.0875 124.528C78.1362 123.674 79.1454 114.25 82.5386 108.259C85.9317 102.267 89.561 90.3999 91.2599 74.274C91.7472 72.6077 93.6962 65.943 95.1075 62.2033C95.5779 60.9568 97.8794 55.9832 98.6356 52.8543C99.3919 49.7256 98.9214 50.9721 99.8453 48.8987C100.769 46.8252 101.595 41.5827 102.584 38.2657C103.573 34.9489 99.5294 30.6122 96.4052 35.1413C92.8106 40.917 91.9194 47.4032 90.794 49.2605C89.6685 51.1178 85.3177 60.0223 84.5278 63.9905C83.8053 66.2799 79.8931 68.3034 80.7831 63.039C81.3473 60.4933 83.3302 52.9892 83.7742 51.3632C84.2447 50.1167 85.6541 44.9024 86.0429 41.9768C86.295 40.9339 89.556 22.5435 89.5897 21.7041C91.1237 16.6964 83.432 11.9501 80.841 19.764C78.7906 28.9467 78.7415 33.6227 76.8935 37.7695C75.0456 41.9163 71.8339 55.6309 71.7664 57.3095C71.6989 58.9881 69.1477 60.9633 69.7179 55.9883C70.2881 51.0133 71.3024 44.2573 71.7532 36.7212C71.8073 35.3726 72.1572 31.997 72.352 28.0841C72.5814 23.4729 73.1596 18.4443 73.2609 15.9263C73.3621 13.4083 72.844 11.6329 71.1108 10.5563C69.6828 9.6694 67.4796 9.55053 65.6011 10.926C64.7177 11.5729 63.9077 13.338 63.7803 15.4766C62.3006 26.1469 61.9692 32.1271 61.0226 37.0331C60.076 41.9391 59.584 52.914 59.1311 56.1663C58.8792 57.7601 56.3638 59.7895 54.8154 56.5553C54.3779 55.6414 53.8481 51.5417 53.7663 49.6919C53.6801 47.7427 53.8178 45.6446 53.7907 42.0803C53.7637 38.5158 53.2042 35.4876 52.9611 32.4325C52.5847 27.7005 52.4418 23.3001 52.5952 21.8675C52.943 19.7047 52.7416 17.2164 51.4135 15.6986C49.9895 14.0711 47.3653 13.5482 45.6761 15.3938C45.1332 15.9869 44.0827 17.3811 43.9287 19.0535C42.9195 28.4772 42.2412 50.6254 42.8591 55.9906C42.7313 61.0936 40.4377 74.406 37.4366 77.3161C35.8677 78.2712 35.2725 76.3951 34.4666 75.5309C33.6606 74.6666 30.4379 65.9577 29.8335 65.3096C29.2291 64.6614 27.3333 54.3112 20.1468 50.1065C19.1056 49.8656 13.4671 48.6605 16.5558 55.4748C17.4957 58.2337 18.878 61.792 18.3401 64.7171C18.0374 67.019 19.6472 73.9982 22.0143 77.8499C23.3868 80.0832 24.5122 84.8076 24.782 86.0006C24.8241 86.1868 24.8795 86.3655 24.9542 86.5411C25.6772 88.2427 29.8534 97.8305 34.5829 103.698C36.3624 106.482 37.1741 108.552 39.9947 111.577C42.3768 115.415 41.6022 123.808 42.2385 134.121" fill="#FFF8EA" fill-opacity="0.01"/>
<path d="M78.4022 134.364C78.1254 130.314 78.055 125.097 78.0875 124.528C78.1362 123.674 79.1454 114.25 82.5386 108.259C85.9317 102.267 89.561 90.3999 91.2599 74.274C91.7472 72.6077 93.6962 65.943 95.1075 62.2033C95.5779 60.9568 97.8794 55.9832 98.6356 52.8543C99.3919 49.7256 98.9214 50.9721 99.8453 48.8987C100.769 46.8252 101.595 41.5827 102.584 38.2657C103.573 34.9489 99.5294 30.6122 96.4052 35.1413C92.8106 40.917 91.9194 47.4032 90.794 49.2605C89.6685 51.1178 85.3177 60.0223 84.5278 63.9905C83.8053 66.2799 79.8931 68.3034 80.7831 63.039C81.3473 60.4933 83.3302 52.9892 83.7742 51.3632C84.2447 50.1167 85.6541 44.9024 86.0429 41.9768C86.295 40.9339 89.556 22.5435 89.5897 21.7041C91.1237 16.6964 83.432 11.9501 80.841 19.764C78.7906 28.9467 78.7415 33.6227 76.8935 37.7695C75.0456 41.9163 71.8339 55.6309 71.7664 57.3095C71.6989 58.9881 69.1477 60.9633 69.7179 55.9883C70.2881 51.0133 71.3024 44.2573 71.7532 36.7212C71.8073 35.3726 72.1572 31.997 72.352 28.0841C72.5814 23.473 73.1597 18.4443 73.2609 15.9263C73.3621 13.4083 72.844 11.6329 71.1108 10.5563C69.6828 9.6694 67.4796 9.55053 65.6011 10.926C64.7177 11.5729 63.9077 13.338 63.7803 15.4766C62.3006 26.1469 61.9692 32.1271 61.0226 37.0331C60.076 41.9391 59.584 52.914 59.1311 56.1663C58.8792 57.7601 56.3638 59.7895 54.8154 56.5553C54.3779 55.6414 53.8481 51.5417 53.7663 49.6919C53.6801 47.7427 53.8178 45.6446 53.7907 42.0803C53.7637 38.5158 53.2042 35.4876 52.9611 32.4325C52.5847 27.7005 52.4418 23.3001 52.5952 21.8675C52.943 19.7047 52.7416 17.2164 51.4135 15.6986C49.9895 14.0711 47.3653 13.5482 45.6761 15.3938C45.1332 15.9869 44.0827 17.3811 43.9287 19.0535C42.9195 28.4772 42.2412 50.6254 42.8591 55.9906C42.7314 61.0936 40.4377 74.4059 37.4367 77.3161C35.8677 78.2712 35.2725 76.3951 34.4666 75.5309C33.6606 74.6666 30.4379 65.9577 29.8335 65.3096C29.2291 64.6614 27.3333 54.3112 20.1467 50.1065C19.1056 49.8656 13.4671 48.6605 16.5558 55.4748C17.4957 58.2337 18.878 61.792 18.3401 64.7171C18.0374 67.019 19.6472 73.9982 22.0143 77.8499C23.3868 80.0832 24.5122 84.8076 24.782 86.0006C24.8241 86.1868 24.8795 86.3655 24.9542 86.5411C25.6772 88.2427 29.8534 97.8305 34.5829 103.698C36.3624 106.482 37.1741 108.552 39.9947 111.577C42.3768 115.415 41.6022 123.808 42.2385 134.121" stroke="#A39376" stroke-width="1.58559" stroke-linecap="round"/>
<path d="M78.4022 134.364C78.1254 130.314 78.055 125.097 78.0875 124.528C78.1362 123.674 79.1454 114.25 82.5386 108.259C85.9317 102.267 89.561 90.3999 91.2599 74.274C91.7472 72.6077 93.6962 65.943 95.1075 62.2033C95.5779 60.9568 97.8794 55.9832 98.6356 52.8543C99.3919 49.7256 98.9214 50.9721 99.8453 48.8987C100.769 46.8252 101.595 41.5827 102.584 38.2657C103.573 34.9489 99.5294 30.6122 96.4052 35.1413C92.8106 40.917 91.9194 47.4032 90.794 49.2605C89.6685 51.1178 85.3177 60.0223 84.5278 63.9905C83.8053 66.2799 79.8931 68.3034 80.7831 63.039C81.3473 60.4933 83.3302 52.9892 83.7742 51.3632C84.2447 50.1167 85.6541 44.9024 86.0429 41.9768C86.295 40.9339 89.556 22.5435 89.5897 21.7041C91.1237 16.6964 83.432 11.9501 80.841 19.764C78.7906 28.9467 78.7415 33.6227 76.8935 37.7695C75.0456 41.9163 71.8339 55.6309 71.7664 57.3095C71.6989 58.9881 69.1477 60.9633 69.7179 55.9883C70.2881 51.0133 71.3024 44.2573 71.7532 36.7212C71.8073 35.3726 72.1572 31.997 72.352 28.0841C72.5814 23.473 73.1597 18.4443 73.2609 15.9263C73.3621 13.4083 72.844 11.6329 71.1108 10.5563C69.6828 9.6694 67.4796 9.55053 65.6011 10.926C64.7177 11.5729 63.9077 13.338 63.7803 15.4766C62.3006 26.1469 61.9692 32.1271 61.0226 37.0331C60.076 41.9391 59.584 52.914 59.1311 56.1663C58.8792 57.7601 56.3638 59.7895 54.8154 56.5553C54.3779 55.6414 53.8481 51.5417 53.7663 49.6919C53.6801 47.7427 53.8178 45.6446 53.7907 42.0803C53.7637 38.5158 53.2042 35.4876 52.9611 32.4325C52.5847 27.7005 52.4418 23.3001 52.5952 21.8675C52.943 19.7047 52.7416 17.2164 51.4135 15.6986C49.9895 14.0711 47.3653 13.5482 45.6761 15.3938C45.1332 15.9869 44.0827 17.3811 43.9287 19.0535C42.9195 28.4772 42.2412 50.6254 42.8591 55.9906C42.7314 61.0936 40.4377 74.4059 37.4367 77.3161C35.8677 78.2712 35.2725 76.3951 34.4666 75.5309C33.6606 74.6666 30.4379 65.9577 29.8335 65.3096C29.2291 64.6614 27.3333 54.3112 20.1467 50.1065C19.1056 49.8656 13.4671 48.6605 16.5558 55.4748C17.4957 58.2337 18.878 61.792 18.3401 64.7171C18.0374 67.019 19.6472 73.9982 22.0143 77.8499C23.3868 80.0832 24.5122 84.8076 24.782 86.0006C24.8241 86.1868 24.8795 86.3655 24.9542 86.5411C25.6772 88.2427 29.8534 97.8305 34.5829 103.698C36.3624 106.482 37.1741 108.552 39.9947 111.577C42.3768 115.415 41.6022 123.808 42.2385 134.121" stroke="url(#paint0_linear_10_796)" stroke-width="1.58559" stroke-linecap="round"/>
<path d="M57.424 105.553C58.2756 94.0563 54.4433 77.4497 45.0754 72.3398" stroke="#598A7F" stroke-width="1.18919" stroke-linecap="round"/>
<path d="M79.5662 93.6301C79.5662 93.6301 61.6821 77.4492 48.9077 70.2104" stroke="#598A7F" stroke-width="1.18919" stroke-linecap="round"/>
<path d="M99.0205 45.9912C99.0205 45.9912 96.5267 46.3578 94.0879 44.1992" stroke="#A39376" stroke-width="1.04852" stroke-linecap="round" stroke-dasharray="1.19 1.19"/>
<path d="M99.0205 45.9912C99.0205 45.9912 96.5267 46.3578 94.0879 44.1992" stroke="url(#paint1_linear_10_796)" stroke-width="1.04852" stroke-linecap="round" stroke-dasharray="1.19 1.19"/>
<path d="M86.1996 31.5317C86.1996 31.5317 83.65 32.4225 80.1448 30.6904" stroke="#A39376" stroke-width="1.04852" stroke-linecap="round" stroke-dasharray="1.19 1.19"/>
<path d="M86.1996 31.5317C86.1996 31.5317 83.65 32.4225 80.1448 30.6904" stroke="url(#paint2_linear_10_796)" stroke-width="1.04852" stroke-linecap="round" stroke-dasharray="1.19 1.19"/>
<path d="M50.8478 27.9297C50.8478 27.9297 48.5345 29.329 44.7388 28.3665" stroke="#A39376" stroke-width="1.04852" stroke-linecap="round" stroke-dasharray="1.19 1.19"/>
<path d="M50.8478 27.9297C50.8478 27.9297 48.5345 29.329 44.7388 28.3665" stroke="url(#paint3_linear_10_796)" stroke-width="1.04852" stroke-linecap="round" stroke-dasharray="1.19 1.19"/>
<path d="M70.5516 25.2858C70.5516 25.2858 66.3675 26.5374 64.0701 24.3359" stroke="#A39376" stroke-width="1.04852" stroke-linecap="round" stroke-dasharray="1.19 1.19"/>
<path d="M70.5516 25.2858C70.5516 25.2858 66.3675 26.5374 64.0701 24.3359" stroke="url(#paint4_linear_10_796)" stroke-width="1.04852" stroke-linecap="round" stroke-dasharray="1.19 1.19"/>
<path d="M27.3829 64.4809C27.3829 64.4809 24.5614 65.8272 19.7451 61.0996" stroke="#A39376" stroke-width="1.04852" stroke-linecap="round" stroke-dasharray="1.66 1.66"/>
<path d="M27.3829 64.4809C27.3829 64.4809 24.5614 65.8272 19.7451 61.0996" stroke="url(#paint5_linear_10_796)" stroke-width="1.04852" stroke-linecap="round" stroke-dasharray="1.66 1.66"/>
<path d="M84.25 84.2628C74.4563 81.7078 60.4045 74.8949 54.0173 63.8237" stroke="#598A7F" stroke-width="1.18919" stroke-linecap="round"/>
<path d="M59.9788 109.811C65.0885 95.759 66.1476 74.9027 65.9402 66.8037" stroke="#598A7F" stroke-width="1.18919" stroke-linecap="round"/>
</g>
<defs>
<linearGradient id="paint0_linear_10_796" x1="109.103" y1="132.557" x2="-7.80982" y2="124.525" gradientUnits="userSpaceOnUse">
<stop stop-color="#E5A87F"/>
<stop offset="0.18" stop-color="#ECBF98"/>
<stop offset="0.515434" stop-color="#F7E6C4"/>
<stop offset="1" stop-color="#E5A87F"/>
</linearGradient>
<linearGradient id="paint1_linear_10_796" x1="98.6152" y1="47.5158" x2="95.5383" y2="48.3566" gradientUnits="userSpaceOnUse">
<stop stop-color="#E5A87F"/>
<stop offset="0.18" stop-color="#ECBF98"/>
<stop offset="0.515434" stop-color="#F7E6C4"/>
<stop offset="1" stop-color="#E5A87F"/>
</linearGradient>
<linearGradient id="paint2_linear_10_796" x1="86.3727" y1="33.2024" x2="83.6665" y2="35.1186" gradientUnits="userSpaceOnUse">
<stop stop-color="#E5A87F"/>
<stop offset="0.18" stop-color="#ECBF98"/>
<stop offset="0.515434" stop-color="#F7E6C4"/>
<stop offset="1" stop-color="#E5A87F"/>
</linearGradient>
<linearGradient id="paint3_linear_10_796" x1="51.3654" y1="29.5309" x2="49.1125" y2="31.9725" gradientUnits="userSpaceOnUse">
<stop stop-color="#E5A87F"/>
<stop offset="0.18" stop-color="#ECBF98"/>
<stop offset="0.515434" stop-color="#F7E6C4"/>
<stop offset="1" stop-color="#E5A87F"/>
</linearGradient>
<linearGradient id="paint4_linear_10_796" x1="68.828" y1="27.4774" x2="64.0805" y2="26.4252" gradientUnits="userSpaceOnUse">
<stop stop-color="#E5A87F"/>
<stop offset="0.18" stop-color="#ECBF98"/>
<stop offset="0.515434" stop-color="#F7E6C4"/>
<stop offset="1" stop-color="#E5A87F"/>
</linearGradient>
<linearGradient id="paint5_linear_10_796" x1="26.979" y1="66.7417" x2="22.6977" y2="68.2385" gradientUnits="userSpaceOnUse">
<stop stop-color="#E5A87F"/>
<stop offset="0.18" stop-color="#ECBF98"/>
<stop offset="0.515434" stop-color="#F7E6C4"/>
<stop offset="1" stop-color="#E5A87F"/>
</linearGradient>
</defs>
</svg>
