<svg width="116" height="111" viewBox="0 0 116 111" fill="none" xmlns="http://www.w3.org/2000/svg">
<mask id="mask0_10_742" style="mask-type:alpha" maskUnits="userSpaceOnUse" x="0" y="0" width="116" height="111">
<path d="M100.939 0.787598H15.9387C7.65445 0.787598 0.938721 7.50333 0.938721 15.7876V95.7876C0.938721 104.072 7.65445 110.788 15.9387 110.788H100.939C109.223 110.788 115.939 104.072 115.939 95.7876V15.7876C115.939 7.50333 109.223 0.787598 100.939 0.787598Z" fill="white"/>
</mask>
<g mask="url(#mask0_10_742)">
<path d="M79.5836 135.578C79.3043 131.491 79.2333 126.226 79.2661 125.652C79.3152 124.791 80.3336 115.281 83.7576 109.235C87.1816 103.189 90.8439 91.2143 92.5582 74.9418C93.0499 73.2604 95.0167 66.5351 96.4408 62.7614C96.9155 61.5036 99.2379 56.4847 100.001 53.3274C100.764 50.1702 100.289 51.4281 101.222 49.3358C102.154 47.2435 102.988 41.9533 103.986 38.6062C104.984 35.2592 100.903 30.8831 97.7503 35.4534C94.123 41.2816 93.2237 47.8267 92.0881 49.7009C90.9524 51.5751 86.562 60.5606 85.7649 64.5648C85.0358 66.875 81.0881 68.9169 81.9862 63.6047C82.5555 61.0358 84.5564 53.4635 85.0045 51.8227C85.4792 50.5649 86.9015 45.3032 87.2938 42.351C87.5482 41.2986 90.8388 22.741 90.8728 21.894C92.4208 16.8408 84.6592 12.0513 82.0446 19.9363C79.9756 29.2025 79.926 33.921 78.0612 38.1055C76.1965 42.29 72.9556 56.1292 72.8875 57.8231C72.8194 59.517 70.245 61.5101 70.8204 56.4899C71.3958 51.4697 72.4193 44.6522 72.8742 37.0476C72.9288 35.6868 73.2819 32.2805 73.4784 28.332C73.7099 23.6789 74.2934 18.6046 74.3956 16.0637C74.4977 13.5228 73.9749 11.7313 72.2259 10.6449C70.785 9.74991 68.5617 9.62996 66.6662 11.0179C65.7747 11.6707 64.9574 13.4519 64.8288 15.6099C63.3357 26.3772 63.0012 32.4118 62.046 37.3624C61.0908 42.313 60.5944 53.3876 60.1373 56.6695C59.8832 58.2778 57.3449 60.3256 55.7824 57.062C55.3409 56.1398 54.8063 52.0029 54.7238 50.1362C54.6368 48.1693 54.7757 46.0522 54.7484 42.4554C54.7211 38.8585 54.1566 35.8028 53.9113 32.7199C53.5314 27.9449 53.3872 23.5045 53.542 22.0589C53.893 19.8764 53.6898 17.3655 52.3496 15.8339C50.9126 14.1916 48.2646 13.664 46.56 15.5263C46.0122 16.1248 44.9521 17.5317 44.7967 19.2193C43.7784 28.7287 43.0939 51.0782 43.7174 56.4922C43.5885 61.6416 41.274 75.075 38.2456 78.0116C36.6625 78.9754 36.0618 77.0822 35.2486 76.2101C34.4353 75.338 31.1833 66.5499 30.5734 65.8959C29.9635 65.2418 28.0505 54.7975 20.7986 50.5546C19.748 50.3115 14.0582 49.0955 17.175 55.9717C18.1234 58.7557 19.5183 62.3463 18.9755 65.298C18.6701 67.6209 20.2945 74.6635 22.6831 78.5502C24.0681 80.8038 25.2037 85.5712 25.476 86.775C25.5185 86.9629 25.5744 87.1432 25.6497 87.3204C26.3793 89.0375 30.5935 98.7125 35.366 104.633C37.1617 107.442 37.9807 109.531 40.827 112.584C43.2307 116.456 42.4491 124.926 43.0912 135.332" fill="#FFF8EA" fill-opacity="0.01"/>
<path d="M79.5836 135.578C79.3043 131.491 79.2333 126.226 79.2661 125.652C79.3152 124.791 80.3336 115.281 83.7576 109.235C87.1816 103.189 90.8439 91.2143 92.5582 74.9418C93.0499 73.2604 95.0167 66.5351 96.4408 62.7614C96.9155 61.5036 99.2379 56.4847 100.001 53.3274C100.764 50.1702 100.289 51.4281 101.222 49.3358C102.154 47.2435 102.988 41.9533 103.986 38.6062C104.984 35.2592 100.903 30.8831 97.7503 35.4534C94.123 41.2816 93.2237 47.8267 92.0881 49.7009C90.9524 51.5751 86.562 60.5606 85.7649 64.5648C85.0358 66.875 81.0881 68.9169 81.9862 63.6047C82.5555 61.0358 84.5564 53.4635 85.0045 51.8227C85.4792 50.5649 86.9015 45.3032 87.2938 42.351C87.5482 41.2986 90.8388 22.741 90.8728 21.894C92.4208 16.8408 84.6592 12.0513 82.0446 19.9363C79.9756 29.2025 79.926 33.921 78.0612 38.1055C76.1965 42.29 72.9556 56.1292 72.8875 57.8231C72.8194 59.517 70.245 61.5101 70.8204 56.4899C71.3958 51.4697 72.4193 44.6522 72.8742 37.0476C72.9288 35.6868 73.2819 32.2805 73.4784 28.332C73.7099 23.679 74.2935 18.6046 74.3956 16.0637C74.4977 13.5228 73.9749 11.7313 72.2259 10.6449C70.785 9.74991 68.5617 9.62996 66.6662 11.0179C65.7747 11.6707 64.9574 13.4519 64.8288 15.6099C63.3357 26.3772 63.0012 32.4118 62.046 37.3624C61.0908 42.313 60.5944 53.3876 60.1373 56.6695C59.8832 58.2778 57.3449 60.3256 55.7824 57.062C55.3409 56.1398 54.8063 52.0029 54.7238 50.1362C54.6368 48.1693 54.7757 46.0522 54.7484 42.4554C54.7211 38.8585 54.1566 35.8028 53.9113 32.7199C53.5314 27.9449 53.3872 23.5045 53.542 22.0589C53.893 19.8764 53.6898 17.3655 52.3496 15.8339C50.9126 14.1916 48.2646 13.664 46.56 15.5263C46.0122 16.1248 44.9521 17.5317 44.7967 19.2193C43.7784 28.7287 43.0939 51.0782 43.7174 56.4922C43.5885 61.6416 41.274 75.0749 38.2457 78.0116C36.6625 78.9754 36.0618 77.0822 35.2486 76.2101C34.4353 75.338 31.1833 66.5499 30.5734 65.8959C29.9635 65.2418 28.0505 54.7975 20.7985 50.5546C19.748 50.3115 14.0582 49.0955 17.175 55.9717C18.1234 58.7557 19.5183 62.3463 18.9755 65.298C18.6701 67.6209 20.2945 74.6635 22.6831 78.5502C24.0681 80.8038 25.2037 85.5712 25.476 86.775C25.5185 86.9629 25.5744 87.1432 25.6497 87.3204C26.3793 89.0375 30.5935 98.7125 35.366 104.633C37.1617 107.442 37.9807 109.531 40.827 112.584C43.2307 116.456 42.4491 124.926 43.0912 135.332" stroke="#A39376" stroke-width="1.6" stroke-linecap="round"/>
<path d="M79.5836 135.578C79.3043 131.491 79.2333 126.226 79.2661 125.652C79.3152 124.791 80.3336 115.281 83.7576 109.235C87.1816 103.189 90.8439 91.2143 92.5582 74.9418C93.0499 73.2604 95.0167 66.5351 96.4408 62.7614C96.9155 61.5036 99.2379 56.4847 100.001 53.3274C100.764 50.1702 100.289 51.4281 101.222 49.3358C102.154 47.2435 102.988 41.9533 103.986 38.6062C104.984 35.2592 100.903 30.8831 97.7503 35.4534C94.123 41.2816 93.2237 47.8267 92.0881 49.7009C90.9524 51.5751 86.562 60.5606 85.7649 64.5648C85.0358 66.875 81.0881 68.9169 81.9862 63.6047C82.5555 61.0358 84.5564 53.4635 85.0045 51.8227C85.4792 50.5649 86.9015 45.3032 87.2938 42.351C87.5482 41.2986 90.8388 22.741 90.8728 21.894C92.4208 16.8408 84.6592 12.0513 82.0446 19.9363C79.9756 29.2025 79.926 33.921 78.0612 38.1055C76.1965 42.29 72.9556 56.1292 72.8875 57.8231C72.8194 59.517 70.245 61.5101 70.8204 56.4899C71.3958 51.4697 72.4193 44.6522 72.8742 37.0476C72.9288 35.6868 73.2819 32.2805 73.4784 28.332C73.7099 23.679 74.2935 18.6046 74.3956 16.0637C74.4977 13.5228 73.9749 11.7313 72.2259 10.6449C70.785 9.74991 68.5617 9.62996 66.6662 11.0179C65.7747 11.6707 64.9574 13.4519 64.8288 15.6099C63.3357 26.3772 63.0012 32.4118 62.046 37.3624C61.0908 42.313 60.5944 53.3876 60.1373 56.6695C59.8832 58.2778 57.3449 60.3256 55.7824 57.062C55.3409 56.1398 54.8063 52.0029 54.7238 50.1362C54.6368 48.1693 54.7757 46.0522 54.7484 42.4554C54.7211 38.8585 54.1566 35.8028 53.9113 32.7199C53.5314 27.9449 53.3872 23.5045 53.542 22.0589C53.893 19.8764 53.6898 17.3655 52.3496 15.8339C50.9126 14.1916 48.2646 13.664 46.56 15.5263C46.0122 16.1248 44.9521 17.5317 44.7967 19.2193C43.7784 28.7287 43.0939 51.0782 43.7174 56.4922C43.5885 61.6416 41.274 75.0749 38.2457 78.0116C36.6625 78.9754 36.0618 77.0822 35.2486 76.2101C34.4353 75.338 31.1833 66.5499 30.5734 65.8959C29.9635 65.2418 28.0505 54.7975 20.7985 50.5546C19.748 50.3115 14.0582 49.0955 17.175 55.9717C18.1234 58.7557 19.5183 62.3463 18.9755 65.298C18.6701 67.6209 20.2945 74.6635 22.6831 78.5502C24.0681 80.8038 25.2037 85.5712 25.476 86.775C25.5185 86.9629 25.5744 87.1432 25.6497 87.3204C26.3793 89.0375 30.5935 98.7125 35.366 104.633C37.1617 107.442 37.9807 109.531 40.827 112.584C43.2307 116.456 42.4491 124.926 43.0912 135.332" stroke="url(#paint0_linear_10_742)" stroke-width="1.6" stroke-linecap="round"/>
<path d="M58.4147 106.506C59.2741 94.9041 55.4069 78.1465 45.9539 72.9902" stroke="#598A7F" stroke-width="2.5" stroke-linecap="round"/>
<path d="M60.9927 110.802C66.1489 96.6223 67.2176 75.5764 67.0083 67.4038" stroke="#598A7F" stroke-width="1.2" stroke-linecap="round"/>
<path d="M80.758 94.4739C80.758 94.4739 62.7113 78.1459 49.8208 70.8413" stroke="#598A7F" stroke-width="1.2" stroke-linecap="round"/>
<path d="M100.389 46.4021C100.389 46.4021 97.8729 46.772 95.4119 44.5938" stroke="#A39376" stroke-width="1.05805" stroke-linecap="round" stroke-dasharray="1.2 1.2"/>
<path d="M100.389 46.4021C100.389 46.4021 97.8729 46.772 95.4119 44.5938" stroke="url(#paint1_linear_10_742)" stroke-width="1.05805" stroke-linecap="round" stroke-dasharray="1.2 1.2"/>
<path d="M87.4519 31.8108C87.4519 31.8108 84.8791 32.7097 81.342 30.9619" stroke="#A39376" stroke-width="1.05805" stroke-linecap="round" stroke-dasharray="1.2 1.2"/>
<path d="M87.4519 31.8108C87.4519 31.8108 84.8791 32.7097 81.342 30.9619" stroke="url(#paint2_linear_10_742)" stroke-width="1.05805" stroke-linecap="round" stroke-dasharray="1.2 1.2"/>
<path d="M51.7786 28.1763C51.7786 28.1763 49.4442 29.5883 45.614 28.6171" stroke="#A39376" stroke-width="1.05805" stroke-linecap="round" stroke-dasharray="1.2 1.2"/>
<path d="M51.7786 28.1763C51.7786 28.1763 49.4442 29.5883 45.614 28.6171" stroke="url(#paint3_linear_10_742)" stroke-width="1.05805" stroke-linecap="round" stroke-dasharray="1.2 1.2"/>
<path d="M71.6618 25.5083C71.6618 25.5083 67.4396 26.7713 65.1213 24.5498" stroke="#A39376" stroke-width="1.05805" stroke-linecap="round" stroke-dasharray="1.2 1.2"/>
<path d="M71.6618 25.5083C71.6618 25.5083 67.4396 26.7713 65.1213 24.5498" stroke="url(#paint4_linear_10_742)" stroke-width="1.05805" stroke-linecap="round" stroke-dasharray="1.2 1.2"/>
<path d="M28.1005 65.0599C28.1005 65.0599 25.2534 66.4185 20.3933 61.6479" stroke="#A39376" stroke-width="1.05805" stroke-linecap="round" stroke-dasharray="1.68 1.68"/>
<path d="M28.1005 65.0599C28.1005 65.0599 25.2534 66.4185 20.3933 61.6479" stroke="url(#paint5_linear_10_742)" stroke-width="1.05805" stroke-linecap="round" stroke-dasharray="1.68 1.68"/>
<path d="M85.4846 85.0214C75.6019 82.4432 61.4223 75.5683 54.9771 64.3965" stroke="#598A7F" stroke-width="1.2" stroke-linecap="round"/>
<path d="M68.9387 30.7876C76.6707 30.7876 82.9387 24.5196 82.9387 16.7876C82.9387 9.05561 76.6707 2.7876 68.9387 2.7876C61.2067 2.7876 54.9387 9.05561 54.9387 16.7876C54.9387 24.5196 61.2067 30.7876 68.9387 30.7876Z" fill="white" fill-opacity="0.2" stroke="white" stroke-width="2" stroke-linecap="round" stroke-dasharray="4 4"/>
</g>
<defs>
<linearGradient id="paint0_linear_10_742" x1="110.564" y1="133.754" x2="-7.41217" y2="125.649" gradientUnits="userSpaceOnUse">
<stop stop-color="#E5A87F"/>
<stop offset="0.18" stop-color="#ECBF98"/>
<stop offset="0.515434" stop-color="#F7E6C4"/>
<stop offset="1" stop-color="#E5A87F"/>
</linearGradient>
<linearGradient id="paint1_linear_10_742" x1="99.9804" y1="47.9405" x2="96.8755" y2="48.789" gradientUnits="userSpaceOnUse">
<stop stop-color="#E5A87F"/>
<stop offset="0.18" stop-color="#ECBF98"/>
<stop offset="0.515434" stop-color="#F7E6C4"/>
<stop offset="1" stop-color="#E5A87F"/>
</linearGradient>
<linearGradient id="paint2_linear_10_742" x1="87.6265" y1="33.4967" x2="84.8957" y2="35.4303" gradientUnits="userSpaceOnUse">
<stop stop-color="#E5A87F"/>
<stop offset="0.18" stop-color="#ECBF98"/>
<stop offset="0.515434" stop-color="#F7E6C4"/>
<stop offset="1" stop-color="#E5A87F"/>
</linearGradient>
<linearGradient id="paint3_linear_10_742" x1="52.3009" y1="29.7921" x2="50.0275" y2="32.2559" gradientUnits="userSpaceOnUse">
<stop stop-color="#E5A87F"/>
<stop offset="0.18" stop-color="#ECBF98"/>
<stop offset="0.515434" stop-color="#F7E6C4"/>
<stop offset="1" stop-color="#E5A87F"/>
</linearGradient>
<linearGradient id="paint4_linear_10_742" x1="69.9225" y1="27.7198" x2="65.1318" y2="26.6581" gradientUnits="userSpaceOnUse">
<stop stop-color="#E5A87F"/>
<stop offset="0.18" stop-color="#ECBF98"/>
<stop offset="0.515434" stop-color="#F7E6C4"/>
<stop offset="1" stop-color="#E5A87F"/>
</linearGradient>
<linearGradient id="paint5_linear_10_742" x1="27.6929" y1="67.3413" x2="23.3727" y2="68.8517" gradientUnits="userSpaceOnUse">
<stop stop-color="#E5A87F"/>
<stop offset="0.18" stop-color="#ECBF98"/>
<stop offset="0.515434" stop-color="#F7E6C4"/>
<stop offset="1" stop-color="#E5A87F"/>
</linearGradient>
</defs>
</svg>
