<svg width="17" height="19" viewBox="0 0 17 19" fill="none" xmlns="http://www.w3.org/2000/svg">
<g opacity="0.8">
<path fill-rule="evenodd" clip-rule="evenodd" d="M15.3192 3.83214L8.40897 0.97123C8.23585 0.899582 8.04127 0.899546 7.86819 0.97123L0.95794 3.83214C0.694751 3.94112 0.523193 4.19734 0.523193 4.48151V7.95934C0.523193 12.7481 3.42582 17.0557 7.87211 18.8654C8.04289 18.9348 8.23423 18.9348 8.40505 18.8654C12.8513 17.0557 15.754 12.7481 15.754 7.95934V4.48151C15.754 4.19734 15.5824 3.94112 15.3192 3.83214ZM14.3437 7.95939C14.3437 12.0303 11.9462 15.7779 8.13855 17.4506C4.4326 15.8226 1.93341 12.1406 1.93341 7.95939V4.95096L8.13855 2.38195L14.3437 4.95096V7.95939ZM10.3899 7.30716L7.35914 10.3293L5.88711 8.86145C5.61175 8.58685 5.16531 8.58688 4.88992 8.86145C4.61452 9.13602 4.61452 9.5812 4.88992 9.85581L6.86054 11.8208C7.13585 12.0954 7.58231 12.0955 7.85774 11.8208L11.3871 8.30151C11.6625 8.02694 11.6625 7.58176 11.3871 7.30716C11.1117 7.03255 10.6653 7.03258 10.3899 7.30716Z" fill="white" fill-opacity="0.6"/>
</g>
</svg>
