<svg width="17" height="17" viewBox="0 0 17 17" fill="none" xmlns="http://www.w3.org/2000/svg">
<path d="M13.012 6.58866V5.63932C13.012 3.062 10.9227 0.972656 8.34536 0.972656C5.76802 0.972656 3.67871 3.062 3.67871 5.63932V6.58866C2.46539 7.11819 1.68046 8.3155 1.67871 9.63932V13.6394C1.68089 15.4794 3.17199 16.9705 5.01202 16.9727H11.6787C13.5187 16.9705 15.0098 15.4794 15.012 13.6394V9.63932C15.0103 8.3155 14.2253 7.11819 13.012 6.58866ZM9.01202 12.306C9.01202 12.6742 8.71355 12.9727 8.34536 12.9727C7.97718 12.9727 7.67871 12.6742 7.67871 12.306V10.9727C7.67871 10.6045 7.97718 10.306 8.34536 10.306C8.71355 10.306 9.01202 10.6045 9.01202 10.9727V12.306ZM11.6787 6.306H5.01202V5.63935C5.01202 3.79841 6.50439 2.306 8.34536 2.306C10.1863 2.306 11.6787 3.79838 11.6787 5.63935V6.306Z" fill="#59382A"/>
</svg>
