<svg width="33" height="21" viewBox="0 0 33 21" fill="none" xmlns="http://www.w3.org/2000/svg">
<path d="M30.3452 1.11279H2.34521C1.51679 1.11279 0.845215 1.78437 0.845215 2.61279V18.6128C0.845215 19.4412 1.51679 20.1128 2.34521 20.1128H30.3452C31.1736 20.1128 31.8452 19.4412 31.8452 18.6128V2.61279C31.8452 1.78437 31.1736 1.11279 30.3452 1.11279Z" fill="white"/>
<path d="M30.3452 1.11279H2.34521C1.51679 1.11279 0.845215 1.78437 0.845215 2.61279V18.6128C0.845215 19.4412 1.51679 20.1128 2.34521 20.1128H30.3452C31.1736 20.1128 31.8452 19.4412 31.8452 18.6128V2.61279C31.8452 1.78437 31.1736 1.11279 30.3452 1.11279Z" stroke="#EDEEF0"/>
<path fill-rule="evenodd" clip-rule="evenodd" d="M11.6431 13.566H10.016L8.79597 8.91136C8.73806 8.69725 8.61511 8.50796 8.43424 8.41875C7.98286 8.19455 7.48547 8.01612 6.94287 7.92613V7.74693H9.56387C9.92561 7.74693 10.1969 8.01612 10.2421 8.32876L10.8752 11.6863L12.5014 7.74693H14.0832L11.6431 13.566ZM14.9856 13.566H13.449L14.7143 7.74694H16.2509L14.9856 13.566ZM18.2422 9.35905C18.2874 9.04564 18.5587 8.86644 18.8752 8.86644C19.3726 8.82144 19.9144 8.91143 20.3666 9.13485L20.6379 7.88198C20.1857 7.70278 19.6884 7.61279 19.237 7.61279C17.7456 7.61279 16.6604 8.41882 16.6604 9.53748C16.6604 10.3885 17.4291 10.8354 17.9717 11.1045C18.5587 11.373 18.7848 11.5522 18.7396 11.8206C18.7396 12.2232 18.2874 12.4024 17.836 12.4024C17.2934 12.4024 16.7508 12.2682 16.2542 12.044L15.9829 13.2977C16.5255 13.5211 17.1126 13.6111 17.6552 13.6111C19.3274 13.6553 20.3666 12.85 20.3666 11.6414C20.3666 10.1193 18.2422 10.0301 18.2422 9.35905ZM25.7463 13.566L24.5263 7.74693H23.2158C22.9445 7.74693 22.6732 7.92613 22.5827 8.19455L20.3235 13.566H21.9053L22.221 12.7158H24.1645L24.3454 13.566H25.7463ZM23.4394 9.31409L23.8908 11.5072H22.6255L23.4394 9.31409Z" fill="#1938C4"/>
</svg>
