<svg width="33" height="21" viewBox="0 0 33 21" fill="none" xmlns="http://www.w3.org/2000/svg">
<path d="M30.3452 1.11279H2.34521C1.51679 1.11279 0.845215 1.78437 0.845215 2.61279V18.6128C0.845215 19.4412 1.51679 20.1128 2.34521 20.1128H30.3452C31.1736 20.1128 31.8452 19.4412 31.8452 18.6128V2.61279C31.8452 1.78437 31.1736 1.11279 30.3452 1.11279Z" fill="white"/>
<path d="M30.3452 1.11279H2.34521C1.51679 1.11279 0.845215 1.78437 0.845215 2.61279V18.6128C0.845215 19.4412 1.51679 20.1128 2.34521 20.1128H30.3452C31.1736 20.1128 31.8452 19.4412 31.8452 18.6128V2.61279C31.8452 1.78437 31.1736 1.11279 30.3452 1.11279Z" stroke="#EDEEF0"/>
<path d="M6.154 7.0127H4.0739C3.93156 7.0127 3.8105 7.11719 3.7883 7.25917L2.94701 12.6485C2.93028 12.7548 3.0118 12.8507 3.11856 12.8507H4.11161C4.25396 12.8507 4.37501 12.7462 4.39721 12.6039L4.62411 11.1503C4.64601 11.0081 4.76737 10.9036 4.90941 10.9036H5.5679C6.93811 10.9036 7.72891 10.2336 7.93543 8.90603C8.0285 8.32521 7.93938 7.86887 7.6702 7.54927C7.37457 7.19832 6.85021 7.0127 6.154 7.0127ZM6.39398 8.98101C6.28023 9.73515 5.70994 9.73516 5.15851 9.73516H4.84462L5.06483 8.32676C5.07791 8.24163 5.15091 8.17894 5.23607 8.17894H5.37993C5.75556 8.17894 6.1099 8.17894 6.293 8.39529C6.40219 8.52436 6.43565 8.71611 6.39398 8.98101Z" fill="#253B80"/>
<path d="M12.371 8.95695H11.3749C11.29 8.95695 11.2167 9.01965 11.2036 9.10477L11.1595 9.38627L11.0899 9.28424C10.8742 8.96802 10.3934 8.8623 9.91344 8.8623C8.81271 8.8623 7.87257 9.70464 7.68947 10.8863C7.59427 11.4757 7.72962 12.0393 8.06054 12.4323C8.36408 12.7937 8.79841 12.9443 9.31517 12.9443C10.2021 12.9443 10.6939 12.3681 10.6939 12.3681L10.6495 12.6478C10.6327 12.7547 10.7143 12.8506 10.8204 12.8506H11.7177C11.8603 12.8506 11.9807 12.7461 12.0033 12.6038L12.5416 9.15916C12.5586 9.05314 12.4774 8.95695 12.371 8.95695ZM10.9825 10.9158C10.8864 11.4907 10.4347 11.8767 9.85869 11.8767C9.56944 11.8767 9.33828 11.783 9.18986 11.6054C9.04265 11.429 8.98668 11.1779 9.03352 10.8983C9.12325 10.3282 9.58252 9.92959 10.1498 9.92959C10.4326 9.92959 10.6625 10.0246 10.814 10.2037C10.9658 10.3847 11.026 10.6374 10.9825 10.9158Z" fill="#253B80"/>
<path d="M17.6756 8.95703H16.6746C16.5791 8.95703 16.4894 9.00497 16.4353 9.08518L15.0547 11.1399L14.4695 9.16539C14.4327 9.04185 14.3199 8.95703 14.1921 8.95703H13.2085C13.089 8.95703 13.0059 9.07504 13.044 9.18874L14.1465 12.4579L13.11 13.9364C13.0285 14.0529 13.1106 14.213 13.2514 14.213H14.2512C14.346 14.213 14.4349 14.1663 14.4887 14.0876L17.818 9.23207C17.8976 9.11591 17.8158 8.95703 17.6756 8.95703Z" fill="#253B80"/>
<path d="M20.9899 7.0127H18.9095C18.7675 7.0127 18.6464 7.11719 18.6242 7.25917L17.7829 12.6485C17.7662 12.7548 17.8477 12.8507 17.9539 12.8507H19.0214C19.1206 12.8507 19.2055 12.7775 19.221 12.678L19.4597 11.1503C19.4816 11.0081 19.603 10.9036 19.745 10.9036H20.4032C21.7737 10.9036 22.5642 10.2336 22.771 8.90603C22.8644 8.32521 22.7747 7.86887 22.5055 7.54927C22.2102 7.19832 21.6861 7.0127 20.9899 7.0127ZM21.2299 8.98101C21.1164 9.73515 20.5462 9.73516 19.9944 9.73516H19.6808L19.9014 8.32676C19.9144 8.24163 19.9868 8.17894 20.0723 8.17894H20.2162C20.5915 8.17894 20.9461 8.17894 21.1292 8.39529C21.2384 8.52436 21.2716 8.71611 21.2299 8.98101Z" fill="#179BD7"/>
<path d="M27.2095 8.95695H26.214C26.1286 8.95695 26.0559 9.01965 26.0431 9.10477L25.999 9.38627L25.929 9.28424C25.7134 8.96802 25.2328 8.8623 24.7529 8.8623C23.6521 8.8623 22.7123 9.70464 22.5292 10.8863C22.4343 11.4757 22.5691 12.0393 22.9 12.4323C23.2041 12.7937 23.6378 12.9443 24.1546 12.9443C25.0415 12.9443 25.5333 12.3681 25.5333 12.3681L25.4889 12.6478C25.4722 12.7547 25.5537 12.8506 25.6605 12.8506H26.5574C26.6995 12.8506 26.8205 12.7461 26.8427 12.6038L27.3814 9.15916C27.3978 9.05314 27.3163 8.95695 27.2095 8.95695ZM25.8211 10.9158C25.7256 11.4907 25.2733 11.8767 24.6972 11.8767C24.4086 11.8767 24.1768 11.783 24.0284 11.6054C23.8812 11.429 23.8258 11.1779 23.872 10.8983C23.9624 10.3282 24.421 9.92959 24.9883 9.92959C25.2712 9.92959 25.5011 10.0246 25.6526 10.2037C25.8049 10.3847 25.8652 10.6374 25.8211 10.9158Z" fill="#179BD7"/>
<path d="M28.3828 7.16083L27.529 12.6488C27.5123 12.7551 27.5938 12.851 27.7 12.851H28.5583C28.7009 12.851 28.822 12.7465 28.8439 12.6042L29.6858 7.21522C29.7025 7.10889 29.621 7.0127 29.5148 7.0127H28.5537C28.4689 7.01301 28.3959 7.0757 28.3828 7.16083Z" fill="#179BD7"/>
</svg>
