<svg width="33" height="21" viewBox="0 0 33 21" fill="none" xmlns="http://www.w3.org/2000/svg">
<path d="M29.3452 1.11279H3.34521C1.9645 1.11279 0.845215 2.23208 0.845215 3.61279V17.6128C0.845215 18.9935 1.9645 20.1128 3.34521 20.1128H29.3452C30.7259 20.1128 31.8452 18.9935 31.8452 17.6128V3.61279C31.8452 2.23208 30.7259 1.11279 29.3452 1.11279Z" fill="white"/>
<path d="M29.3452 1.11279H3.34521C1.9645 1.11279 0.845215 2.23208 0.845215 3.61279V17.6128C0.845215 18.9935 1.9645 20.1128 3.34521 20.1128H29.3452C30.7259 20.1128 31.8452 18.9935 31.8452 17.6128V3.61279C31.8452 2.23208 30.7259 1.11279 29.3452 1.11279Z" stroke="#EDEEF0"/>
<path fill-rule="evenodd" clip-rule="evenodd" d="M16.3411 14.04C15.5657 14.709 14.5603 15.1128 13.4618 15.1128C11.0081 15.1128 9.01904 13.0981 9.01904 10.6128C9.01904 8.12751 11.0081 6.11279 13.4618 6.11279C14.5603 6.11279 15.5657 6.51657 16.3411 7.18558C17.1166 6.51657 18.1219 6.11279 19.2204 6.11279C21.6741 6.11279 23.6632 8.12751 23.6632 10.6128C23.6632 13.0981 21.6741 15.1128 19.2204 15.1128C18.1219 15.1128 17.1166 14.709 16.3411 14.04Z" fill="#EC0014"/>
<path fill-rule="evenodd" clip-rule="evenodd" d="M16.3433 14.0364C17.2977 13.2111 17.9028 11.9835 17.9028 10.6128C17.9028 9.24208 17.2977 8.01451 16.3433 7.18914C17.1194 6.518 18.1263 6.11279 19.2267 6.11279C21.6804 6.11279 23.6696 8.12751 23.6696 10.6128C23.6696 13.0981 21.6804 15.1128 19.2267 15.1128C18.1263 15.1128 17.1194 14.7076 16.3433 14.0364Z" fill="#F9A000"/>
<path fill-rule="evenodd" clip-rule="evenodd" d="M16.352 7.18604C17.3088 8.01144 17.9156 9.24059 17.9156 10.6133C17.9156 11.9859 17.3088 13.2151 16.3521 14.0405C15.3954 13.2151 14.7886 11.9859 14.7886 10.6132C14.7886 9.24054 15.3953 8.01144 16.352 7.18604Z" fill="#FF5E00"/>
</svg>
