<svg width="31" height="21" viewBox="0 0 31 21" fill="none" xmlns="http://www.w3.org/2000/svg">
<path d="M26.3452 0.972656H4.34521C2.13608 0.972656 0.345215 2.76352 0.345215 4.97266V16.9727C0.345215 19.1818 2.13608 20.9727 4.34521 20.9727H26.3452C28.5544 20.9727 30.3452 19.1818 30.3452 16.9727V4.97266C30.3452 2.76352 28.5544 0.972656 26.3452 0.972656Z" fill="#1F72CD"/>
<path fill-rule="evenodd" clip-rule="evenodd" d="M5.99058 7.93164L3.26318 14.0072H6.52826L6.93304 13.0385H7.85827L8.26304 14.0072H11.857V13.2679L12.1772 14.0072H14.0363L14.3565 13.2522V14.0072H21.831L22.7398 13.0637L23.5908 14.0072L27.4298 14.015L24.6938 10.9864L27.4298 7.93164H23.6504L22.7656 8.85774L21.9414 7.93164H13.8102L13.112 9.49979L12.3974 7.93164H9.13914V8.64582L8.77668 7.93164H5.99058ZM17.152 8.7944H21.4442L22.7569 10.2218L24.112 8.7944H25.4248L23.4302 10.9856L25.4248 13.1515H24.0525L22.7397 11.7075L21.3777 13.1515H17.152V8.7944ZM18.212 10.4927V9.69685L20.8902 9.69609L22.0588 10.9688L20.8384 12.2486H18.212V11.3798H20.5535V10.4927H18.212ZM6.62234 8.7944H8.21389L10.023 12.9143V8.7944H11.7665L13.1638 11.7483L14.4515 8.7944H16.1863V13.154H15.1307L15.1221 9.73784L13.5832 13.154H12.639L11.0914 9.73784V13.154H8.91988L8.5082 12.1767H6.28402L5.87318 13.1532H4.70969L6.62234 8.7944ZM6.66383 11.273L7.39661 9.5319L8.12854 11.273H6.66383Z" fill="white"/>
</svg>
