<svg width="17" height="17" viewBox="0 0 17 17" fill="none" xmlns="http://www.w3.org/2000/svg">
<mask id="mask0_16_2589" style="mask-type:luminance" maskUnits="userSpaceOnUse" x="0" y="0" width="17" height="17">
<path d="M16.7251 0.612793H0.725098V16.6128H16.7251V0.612793Z" fill="white"/>
</mask>
<g mask="url(#mask0_16_2589)">
<path d="M11.0225 5.07975L9.99447 5.67308C9.71908 5.4366 9.40277 5.25246 9.06114 5.12975V3.94642H7.06114V5.13042C6.71952 5.25313 6.4032 5.43727 6.12781 5.67375L5.09447 5.07975L4.09447 6.81308L5.11381 7.40175C5.04002 7.76156 5.04002 8.13261 5.11381 8.49242L4.09447 9.07975L5.09447 10.8131L6.12247 10.2198C6.39787 10.4562 6.71418 10.6404 7.05581 10.7631V11.9464H9.05581V10.7624C9.39743 10.6397 9.71374 10.4556 9.98914 10.2191L11.0171 10.8124L12.0171 9.07908L10.9978 8.49042C11.0716 8.13061 11.0716 7.75956 10.9978 7.39975L12.0225 6.81308L11.0225 5.07975ZM8.05847 8.94642C7.86069 8.94642 7.66735 8.88777 7.5029 8.77789C7.33846 8.66801 7.21028 8.51183 7.13459 8.3291C7.05891 8.14637 7.0391 7.94531 7.07769 7.75133C7.11627 7.55735 7.21151 7.37916 7.35137 7.23931C7.49122 7.09946 7.6694 7.00422 7.86338 6.96563C8.05736 6.92705 8.25843 6.94685 8.44116 7.02254C8.62388 7.09823 8.78006 7.2264 8.88994 7.39085C8.99983 7.5553 9.05847 7.74864 9.05847 7.94642C9.05847 8.21163 8.95312 8.46599 8.76558 8.65352C8.57804 8.84106 8.32369 8.94642 8.05847 8.94642ZM16.6391 8.87442C16.4905 8.54108 16.3418 8.19642 16.1931 7.85375C15.6245 6.34495 14.8817 4.90767 13.9798 3.57108C13.1561 2.46682 12.0391 1.61587 10.7557 1.11502C9.47239 0.614169 8.07424 0.483524 6.72031 0.737945C5.36639 0.992366 4.11103 1.62164 3.09704 2.55419C2.08304 3.48674 1.3511 4.68514 0.984471 6.01308C0.676532 7.15909 0.652871 8.36292 0.915542 9.52013C1.17821 10.6774 1.71928 11.753 2.49181 12.6538C2.64166 12.8319 2.72423 13.057 2.72514 13.2898V16.6131H12.0585V14.6131H12.6538C13.2169 14.6111 13.7604 14.4064 14.1848 14.0364C14.6093 13.6664 14.8863 13.156 14.9651 12.5984L15.1918 10.9464H16.7251V9.06842L16.6391 8.87442ZM13.4491 8.94642L12.9825 12.3251C12.9714 12.4054 12.9315 12.479 12.8702 12.532C12.8088 12.585 12.7302 12.6138 12.6491 12.6131H10.0585V14.6131H4.72514V13.2898C4.7238 12.5885 4.47683 11.9099 4.02714 11.3718C3.46206 10.7163 3.06543 9.93291 2.87165 9.08948C2.67788 8.24606 2.6928 7.3681 2.91514 6.53175C3.18568 5.56316 3.7231 4.69015 4.46605 4.01236C5.209 3.33458 6.12754 2.87933 7.11683 2.69859C8.10612 2.51785 9.1263 2.61889 10.0609 2.99018C10.9955 3.36148 11.8069 3.98806 12.4025 4.79842C13.1899 6.00878 13.8457 7.29991 14.3585 8.64975L14.4871 8.94575L13.4491 8.94642Z" fill="#227E64"/>
</g>
</svg>
