<svg width="33" height="21" viewBox="0 0 33 21" fill="none" xmlns="http://www.w3.org/2000/svg">
<path d="M29.3452 1.11279H3.34521C1.9645 1.11279 0.845215 2.23208 0.845215 3.61279V17.6128C0.845215 18.9935 1.9645 20.1128 3.34521 20.1128H29.3452C30.7259 20.1128 31.8452 18.9935 31.8452 17.6128V3.61279C31.8452 2.23208 30.7259 1.11279 29.3452 1.11279Z" fill="white"/>
<path d="M29.3452 1.11279H3.34521C1.9645 1.11279 0.845215 2.23208 0.845215 3.61279V17.6128C0.845215 18.9935 1.9645 20.1128 3.34521 20.1128H29.3452C30.7259 20.1128 31.8452 18.9935 31.8452 17.6128V3.61279C31.8452 2.23208 30.7259 1.11279 29.3452 1.11279Z" stroke="#EDEEF0"/>
<path d="M17.9046 10.6128C17.9046 13.0981 15.9155 15.1128 13.4618 15.1128C11.0081 15.1128 9.01904 13.0981 9.01904 10.6128C9.01904 8.12751 11.0081 6.11279 13.4618 6.11279C15.9155 6.11279 17.9046 8.12751 17.9046 10.6128Z" fill="#EC0014"/>
<path d="M23.6703 10.6128C23.6703 13.0981 21.6812 15.1128 19.2275 15.1128C16.7738 15.1128 14.7847 13.0981 14.7847 10.6128C14.7847 8.12751 16.7738 6.11279 19.2275 6.11279C21.6812 6.11279 23.6703 8.12751 23.6703 10.6128Z" fill="#00A3E6"/>
<path d="M16.3521 7.18604C17.3088 8.01144 17.9156 9.24059 17.9156 10.6133C17.9156 11.986 17.3088 13.2151 16.3521 14.0405C15.3954 13.2151 14.7886 11.9859 14.7886 10.6132C14.7886 9.24055 15.3953 8.01144 16.3521 7.18604Z" fill="#7476D0"/>
</svg>
