<svg width="10" height="10" viewBox="0 0 10 10" fill="none" xmlns="http://www.w3.org/2000/svg">
<g clip-path="url(#clip0_1_342)">
<path d="M9.37029 4.73828C9.37029 4.60834 9.33929 4.48641 9.28736 4.37558C8.94094 3.25803 7.31912 3.33967 5.0122 3.28516C4.62651 3.27612 4.84713 2.82067 4.98249 1.82092C5.07059 1.1707 4.65131 0.172241 3.94658 0.172241C2.78459 0.172241 3.9024 1.08881 2.87501 3.35542C2.32605 4.56649 1.09897 3.88811 1.09897 5.1046V7.87367C1.09897 8.3472 1.14547 8.80238 1.81145 8.8773C2.45703 8.94989 2.31184 9.40998 3.24314 9.40998H7.9045C8.37932 9.40998 8.76553 9.02352 8.76553 8.5487C8.76553 8.35185 8.69655 8.17257 8.58521 8.02738C8.84871 7.87987 9.02954 7.60139 9.02954 7.27847C9.02954 7.08214 8.96083 6.90286 8.84974 6.75793C9.11402 6.61068 9.29537 6.33194 9.29537 6.00851C9.29537 5.77368 9.2003 5.56082 9.04711 5.40504C9.24267 5.2472 9.37029 5.0085 9.37029 4.73828Z" fill="#FFDC5D"/>
<path d="M6.28683 5.59937H8.50953C8.81178 5.59937 9.09543 5.43765 9.24991 5.17751C9.31346 5.0703 9.27807 4.93158 9.1706 4.86777C9.06339 4.80396 8.92467 4.83987 8.86086 4.94708C8.78775 5.07082 8.65264 5.14729 8.50927 5.14729H6.23335C6.00783 5.14729 5.82441 4.96387 5.82441 4.73834C5.82441 4.51282 6.00783 4.3294 6.23335 4.3294H7.75416C7.87894 4.3294 7.9802 4.22814 7.9802 4.10336C7.9802 3.97859 7.87894 3.87732 7.75416 3.87732H6.2331C5.75828 3.87732 5.37207 4.26353 5.37207 4.73834C5.37207 5.00314 5.49478 5.23744 5.68336 5.39554C5.52449 5.55184 5.42555 5.76884 5.42555 6.00857C5.42555 6.27414 5.54903 6.50922 5.73865 6.66706C5.5808 6.82309 5.4829 7.03932 5.4829 7.27854C5.4829 7.56787 5.6273 7.8231 5.84689 7.97939C5.71152 8.13155 5.62679 8.32969 5.62679 8.54876C5.62679 9.02358 6.013 9.40979 6.48781 9.40979H7.90451C8.20676 9.40979 8.49067 9.24833 8.64515 8.98819C8.70896 8.88098 8.67357 8.74225 8.56636 8.67844C8.4589 8.61515 8.32017 8.65003 8.25662 8.75724C8.183 8.88098 8.04789 8.9577 7.90451 8.9577H6.48781C6.26229 8.9577 6.07887 8.77429 6.07887 8.54876C6.07887 8.32324 6.26229 8.13982 6.48781 8.13982H8.16853C8.47078 8.13982 8.75495 7.9781 8.90917 7.71796C8.97298 7.61049 8.93759 7.47177 8.83038 7.40822C8.72214 7.34338 8.58393 7.3798 8.52064 7.48701C8.44598 7.61282 8.31423 7.68774 8.16853 7.68774H6.34392C6.1184 7.68774 5.93498 7.50406 5.93498 7.27854C5.93498 7.05301 6.1184 6.86959 6.34392 6.86959H8.4341C8.73635 6.86959 9.02025 6.70814 9.17474 6.44799C9.23855 6.34079 9.20315 6.20206 9.09595 6.13825C8.98822 6.0747 8.84975 6.10984 8.7862 6.21704C8.71154 6.34259 8.5798 6.41751 8.4341 6.41751H6.28683C6.0613 6.41751 5.87789 6.23409 5.87789 6.00857C5.87789 5.78304 6.06105 5.59937 6.28683 5.59937Z" fill="#EE9547"/>
</g>
<defs>
<clipPath id="clip0_1_342">
<rect width="9.3" height="9.3" fill="white" transform="translate(0.339996 0.109985)"/>
</clipPath>
</defs>
</svg>
