<svg width="10" height="10" viewBox="0 0 10 10" fill="none" xmlns="http://www.w3.org/2000/svg">
<g clip-path="url(#clip0_1_17)">
<path d="M9.03029 5.33826C9.03029 5.20832 8.99929 5.08638 8.94736 4.97556C8.60094 3.85801 6.97912 3.93964 4.67221 3.88513C4.28651 3.87609 4.50713 3.42065 4.6425 2.4209C4.73059 1.77068 4.31131 0.772217 3.60658 0.772217C2.4446 0.772217 3.56241 1.68878 2.53501 3.9554C1.98606 5.16647 0.758972 4.48808 0.758972 5.70458V8.47365C0.758972 8.94718 0.805472 9.40236 1.47146 9.47727C2.11703 9.54987 1.97185 10.01 2.90314 10.01H7.56451C8.03932 10.01 8.42553 9.62349 8.42553 9.14867C8.42553 8.95183 8.35656 8.77254 8.24521 8.62736C8.50871 8.47985 8.68955 8.20137 8.68955 7.87845C8.68955 7.68212 8.62083 7.50283 8.50975 7.35791C8.77402 7.21066 8.95537 6.93192 8.95537 6.60848C8.95537 6.37366 8.86031 6.16079 8.70712 6.00502C8.90267 5.84718 9.03029 5.60848 9.03029 5.33826Z" fill="#FFDC5D"/>
<path d="M5.94686 6.19934H8.16956C8.47181 6.19934 8.75546 6.03763 8.90995 5.77749C8.9735 5.67028 8.9381 5.53155 8.83064 5.46774C8.72343 5.40394 8.5847 5.43985 8.5209 5.54705C8.44779 5.6708 8.31268 5.74726 8.1693 5.74726H5.89339C5.66786 5.74726 5.48445 5.56384 5.48445 5.33832C5.48445 5.11279 5.66786 4.92938 5.89339 4.92938H7.4142C7.53897 4.92938 7.64024 4.82811 7.64024 4.70334C7.64024 4.57856 7.53897 4.47729 7.4142 4.47729H5.89313C5.41831 4.47729 5.0321 4.8635 5.0321 5.33832C5.0321 5.60311 5.15481 5.83742 5.3434 5.99552C5.18452 6.15181 5.08558 6.36881 5.08558 6.60854C5.08558 6.87411 5.20906 7.10919 5.39868 7.26704C5.24084 7.42307 5.14293 7.63929 5.14293 7.87851C5.14293 8.16785 5.28734 8.42308 5.50692 8.57937C5.37155 8.73153 5.28682 8.92967 5.28682 9.14874C5.28682 9.62355 5.67303 10.0098 6.14785 10.0098H7.56455C7.8668 10.0098 8.1507 9.8483 8.30519 9.58816C8.369 9.48095 8.3336 9.34223 8.2264 9.27842C8.11893 9.21513 7.9802 9.25 7.91665 9.35721C7.84303 9.48095 7.70792 9.55768 7.56455 9.55768H6.14785C5.92232 9.55768 5.7389 9.37426 5.7389 9.14874C5.7389 8.92321 5.92232 8.73979 6.14785 8.73979H7.82856C8.13081 8.73979 8.41498 8.57808 8.5692 8.31794C8.63301 8.21047 8.59762 8.07174 8.49041 8.00819C8.38217 7.94335 8.24396 7.97978 8.18067 8.08699C8.10601 8.21279 7.97426 8.28771 7.82856 8.28771H6.00395C5.77843 8.28771 5.59501 8.10404 5.59501 7.87851C5.59501 7.65299 5.77843 7.46957 6.00395 7.46957H8.09413C8.39638 7.46957 8.68029 7.30811 8.83477 7.04797C8.89858 6.94076 8.86319 6.80204 8.75598 6.73823C8.64825 6.67468 8.50979 6.70981 8.44624 6.81702C8.37158 6.94257 8.23983 7.01749 8.09413 7.01749H5.94686C5.72134 7.01749 5.53792 6.83407 5.53792 6.60854C5.53792 6.38302 5.72108 6.19934 5.94686 6.19934Z" fill="#EE9547"/>
</g>
<defs>
<clipPath id="clip0_1_17">
<rect width="9.3" height="9.3" fill="white" transform="translate(0 0.709961)"/>
</clipPath>
</defs>
</svg>
