<svg width="10" height="10" viewBox="0 0 10 10" fill="none" xmlns="http://www.w3.org/2000/svg">
<g clip-path="url(#clip0_1_430)">
<path d="M9.37029 4.79822C9.37029 4.66828 9.33929 4.54634 9.28736 4.43552C8.94094 3.31797 7.31912 3.3996 5.0122 3.34509C4.62651 3.33605 4.84713 2.88061 4.98249 1.88086C5.07059 1.23064 4.65131 0.232178 3.94658 0.232178C2.78459 0.232178 3.9024 1.14874 2.87501 3.41536C2.32605 4.62643 1.09897 3.94804 1.09897 5.16454V7.93361C1.09897 8.40714 1.14547 8.86232 1.81145 8.93724C2.45703 9.00983 2.31184 9.46992 3.24314 9.46992H7.9045C8.37932 9.46992 8.76553 9.08345 8.76553 8.60864C8.76553 8.41179 8.69655 8.2325 8.58521 8.08732C8.84871 7.93981 9.02954 7.66133 9.02954 7.33841C9.02954 7.14208 8.96083 6.96279 8.84974 6.81787C9.11402 6.67062 9.29537 6.39188 9.29537 6.06844C9.29537 5.83362 9.2003 5.62075 9.04711 5.46498C9.24267 5.30714 9.37029 5.06844 9.37029 4.79822Z" fill="#FFDC5D"/>
<path d="M6.28683 5.65931H8.50953C8.81178 5.65931 9.09543 5.49759 9.24991 5.23745C9.31346 5.13024 9.27807 4.99151 9.1706 4.92771C9.06339 4.8639 8.92467 4.89981 8.86086 5.00701C8.78775 5.13076 8.65264 5.20722 8.50927 5.20722H6.23335C6.00783 5.20722 5.82441 5.02381 5.82441 4.79828C5.82441 4.57276 6.00783 4.38934 6.23335 4.38934H7.75416C7.87894 4.38934 7.9802 4.28807 7.9802 4.1633C7.9802 4.03852 7.87894 3.93726 7.75416 3.93726H6.2331C5.75828 3.93726 5.37207 4.32346 5.37207 4.79828C5.37207 5.06307 5.49478 5.29738 5.68336 5.45548C5.52449 5.61177 5.42555 5.82877 5.42555 6.06851C5.42555 6.33407 5.54903 6.56916 5.73865 6.727C5.5808 6.88303 5.4829 7.09926 5.4829 7.33847C5.4829 7.62781 5.6273 7.88304 5.84689 8.03933C5.71152 8.19149 5.62679 8.38963 5.62679 8.6087C5.62679 9.08351 6.013 9.46972 6.48781 9.46972H7.90451C8.20676 9.46972 8.49067 9.30826 8.64515 9.04812C8.70896 8.94091 8.67357 8.80219 8.56636 8.73838C8.4589 8.67509 8.32017 8.70996 8.25662 8.81717C8.183 8.94091 8.04789 9.01764 7.90451 9.01764H6.48781C6.26229 9.01764 6.07887 8.83422 6.07887 8.6087C6.07887 8.38317 6.26229 8.19976 6.48781 8.19976H8.16853C8.47078 8.19976 8.75495 8.03804 8.90917 7.7779C8.97298 7.67043 8.93759 7.53171 8.83038 7.46816C8.72214 7.40331 8.58393 7.43974 8.52064 7.54695C8.44598 7.67276 8.31423 7.74767 8.16853 7.74767H6.34392C6.1184 7.74767 5.93498 7.564 5.93498 7.33847C5.93498 7.11295 6.1184 6.92953 6.34392 6.92953H8.4341C8.73635 6.92953 9.02025 6.76807 9.17474 6.50793C9.23855 6.40072 9.20315 6.262 9.09595 6.19819C8.98822 6.13464 8.84975 6.16977 8.7862 6.27698C8.71154 6.40253 8.5798 6.47745 8.4341 6.47745H6.28683C6.0613 6.47745 5.87789 6.29403 5.87789 6.06851C5.87789 5.84298 6.06105 5.65931 6.28683 5.65931Z" fill="#EE9547"/>
</g>
<defs>
<clipPath id="clip0_1_430">
<rect width="9.3" height="9.3" fill="white" transform="translate(0.339996 0.169922)"/>
</clipPath>
</defs>
</svg>
