<svg width="10" height="10" viewBox="0 0 10 10" fill="none" xmlns="http://www.w3.org/2000/svg">
<g clip-path="url(#clip0_1_198)">
<path d="M9.37029 4.97827C9.37029 4.84833 9.33929 4.7264 9.28736 4.61557C8.94094 3.49802 7.31912 3.57966 5.0122 3.52515C4.62651 3.51611 4.84713 3.06066 4.98249 2.06091C5.07059 1.41069 4.65131 0.412231 3.94658 0.412231C2.78459 0.412231 3.9024 1.3288 2.87501 3.59541C2.32605 4.80648 1.09897 4.1281 1.09897 5.34459V8.11366C1.09897 8.58719 1.14547 9.04237 1.81145 9.11729C2.45703 9.18988 2.31184 9.64997 3.24314 9.64997H7.9045C8.37932 9.64997 8.76553 9.26351 8.76553 8.78869C8.76553 8.59184 8.69655 8.41256 8.58521 8.26737C8.84871 8.11986 9.02954 7.84138 9.02954 7.51847C9.02954 7.32213 8.96083 7.14285 8.84974 6.99792C9.11402 6.85067 9.29537 6.57193 9.29537 6.2485C9.29537 6.01367 9.2003 5.80081 9.04711 5.64503C9.24267 5.48719 9.37029 5.24849 9.37029 4.97827Z" fill="#FFDC5D"/>
<path d="M6.28683 5.83936H8.50953C8.81178 5.83936 9.09543 5.67764 9.24991 5.4175C9.31346 5.31029 9.27807 5.17157 9.1706 5.10776C9.06339 5.04395 8.92467 5.07986 8.86086 5.18707C8.78775 5.31081 8.65264 5.38728 8.50927 5.38728H6.23335C6.00783 5.38728 5.82441 5.20386 5.82441 4.97833C5.82441 4.75281 6.00783 4.56939 6.23335 4.56939H7.75416C7.87894 4.56939 7.9802 4.46813 7.9802 4.34335C7.9802 4.21858 7.87894 4.11731 7.75416 4.11731H6.2331C5.75828 4.11731 5.37207 4.50352 5.37207 4.97833C5.37207 5.24313 5.49478 5.47743 5.68336 5.63553C5.52449 5.79183 5.42555 6.00883 5.42555 6.24856C5.42555 6.51413 5.54903 6.74921 5.73865 6.90705C5.5808 7.06308 5.4829 7.27931 5.4829 7.51853C5.4829 7.80786 5.6273 8.06309 5.84689 8.21938C5.71152 8.37154 5.62679 8.56968 5.62679 8.78875C5.62679 9.26357 6.013 9.64978 6.48781 9.64978H7.90451C8.20676 9.64978 8.49067 9.48832 8.64515 9.22818C8.70896 9.12097 8.67357 8.98224 8.56636 8.91843C8.4589 8.85514 8.32017 8.89002 8.25662 8.99723C8.183 9.12097 8.04789 9.19769 7.90451 9.19769H6.48781C6.26229 9.19769 6.07887 9.01428 6.07887 8.78875C6.07887 8.56323 6.26229 8.37981 6.48781 8.37981H8.16853C8.47078 8.37981 8.75495 8.21809 8.90917 7.95795C8.97298 7.85048 8.93759 7.71176 8.83038 7.64821C8.72214 7.58337 8.58393 7.61979 8.52064 7.727C8.44598 7.85281 8.31423 7.92773 8.16853 7.92773H6.34392C6.1184 7.92773 5.93498 7.74405 5.93498 7.51853C5.93498 7.293 6.1184 7.10958 6.34392 7.10958H8.4341C8.73635 7.10958 9.02025 6.94813 9.17474 6.68798C9.23855 6.58078 9.20315 6.44205 9.09595 6.37824C8.98822 6.31469 8.84975 6.34983 8.7862 6.45703C8.71154 6.58258 8.5798 6.6575 8.4341 6.6575H6.28683C6.0613 6.6575 5.87789 6.47408 5.87789 6.24856C5.87789 6.02303 6.06105 5.83936 6.28683 5.83936Z" fill="#EE9547"/>
</g>
<defs>
<clipPath id="clip0_1_198">
<rect width="9.3" height="9.3" fill="white" transform="translate(0.339996 0.349976)"/>
</clipPath>
</defs>
</svg>
