<svg width="33" height="21" viewBox="0 0 33 21" fill="none" xmlns="http://www.w3.org/2000/svg">
<path d="M30.3452 1.47266H2.34521C1.51679 1.47266 0.845215 2.14423 0.845215 2.97266V18.9727C0.845215 19.8011 1.51679 20.4727 2.34521 20.4727H30.3452C31.1736 20.4727 31.8452 19.8011 31.8452 18.9727V2.97266C31.8452 2.14423 31.1736 1.47266 30.3452 1.47266Z" fill="white"/>
<path d="M30.3452 1.47266H2.34521C1.51679 1.47266 0.845215 2.14423 0.845215 2.97266V18.9727C0.845215 19.8011 1.51679 20.4727 2.34521 20.4727H30.3452C31.1736 20.4727 31.8452 19.8011 31.8452 18.9727V2.97266C31.8452 2.14423 31.1736 1.47266 30.3452 1.47266Z" stroke="#EDEEF0"/>
<mask id="mask0_16_3100" style="mask-type:luminance" maskUnits="userSpaceOnUse" x="5" y="6" width="23" height="10">
<path d="M27.3452 6.97266H5.34521V15.9727H27.3452V6.97266Z" fill="white"/>
</mask>
<g mask="url(#mask0_16_3100)">
<path d="M9.36848 8.13298C9.11067 8.43698 8.69817 8.67675 8.28567 8.6425C8.23411 8.23146 8.43606 7.79473 8.67239 7.52499C8.9302 7.21243 9.38137 6.98979 9.74661 6.97266C9.78957 7.40082 9.622 7.82042 9.36848 8.13298ZM9.74231 8.72385C9.14504 8.6896 8.63372 9.0621 8.35012 9.0621C8.06223 9.0621 7.62825 8.74098 7.15559 8.74954C6.54114 8.7581 5.96965 9.10492 5.65598 9.65725C5.01145 10.7619 5.4884 12.3975 6.11145 13.2967C6.41653 13.742 6.78176 14.2301 7.26301 14.2129C7.71848 14.1958 7.89895 13.9175 8.44895 13.9175C9.00325 13.9175 9.16223 14.2129 9.64348 14.2044C10.1419 14.1958 10.4556 13.7591 10.7606 13.3138C11.1087 12.8086 11.2505 12.3162 11.2591 12.2905C11.2505 12.2819 10.2966 11.918 10.288 10.8218C10.2794 9.90558 11.0399 9.46885 11.0743 9.44316C10.6446 8.80948 9.97434 8.74098 9.74231 8.72385ZM13.1927 7.48217V14.1573H14.2325V11.8752H15.672C16.9868 11.8752 17.9106 10.976 17.9106 9.67437C17.9106 8.37276 17.004 7.48217 15.7064 7.48217H13.1927ZM14.2325 8.35563H15.4314C16.3337 8.35563 16.8493 8.83517 16.8493 9.67865C16.8493 10.5221 16.3337 11.006 15.4271 11.006H14.2325V8.35563ZM19.8099 14.2087C20.463 14.2087 21.0688 13.879 21.3438 13.3566H21.3653V14.1573H22.3278V10.8347C22.3278 9.87133 21.5544 9.25049 20.3642 9.25049C19.2599 9.25049 18.4435 9.87989 18.4134 10.7448H19.3501C19.4274 10.3337 19.8099 10.064 20.3341 10.064C20.97 10.064 21.3267 10.3594 21.3267 10.9032V11.2715L20.029 11.3485C18.8216 11.4213 18.1685 11.9137 18.1685 12.77C18.1685 13.6349 18.8431 14.2087 19.8099 14.2087ZM20.0892 13.4166C19.5349 13.4166 19.1825 13.1511 19.1825 12.7443C19.1825 12.3247 19.522 12.0807 20.1708 12.0422L21.3267 11.9694V12.3462C21.3267 12.9713 20.7939 13.4166 20.0892 13.4166ZM23.6126 15.9727C24.6267 15.9727 25.1036 15.5874 25.5204 14.4185L27.3466 9.31472H26.2896L25.0649 13.2581H25.0435L23.8188 9.31472H22.7317L24.4935 14.1744L24.3989 14.4698C24.2399 14.9708 23.9821 15.1635 23.5224 15.1635C23.4407 15.1635 23.2817 15.1549 23.2173 15.1463V15.947C23.2774 15.9641 23.5353 15.9727 23.6126 15.9727Z" fill="black"/>
</g>
</svg>
