<svg width="17" height="18" viewBox="0 0 17 18" fill="none" xmlns="http://www.w3.org/2000/svg">
<mask id="mask0_16_2635" style="mask-type:luminance" maskUnits="userSpaceOnUse" x="0" y="0" width="17" height="17">
<path d="M16.3452 0.879395H0.345215V16.8794H16.3452V0.879395Z" fill="white"/>
</mask>
<g mask="url(#mask0_16_2635)">
<path d="M6.35872 8.5463L7.69205 9.87964L10.6921 6.87964M13.6921 8.87964C13.6921 12.1519 10.1228 14.5319 8.82405 15.2895C8.67645 15.3756 8.60265 15.4187 8.49851 15.441C8.41768 15.4583 8.29976 15.4583 8.21893 15.441C8.11478 15.4187 8.04099 15.3756 7.89339 15.2895C6.59469 14.5319 3.02539 12.1519 3.02539 8.87964V5.69137C3.02539 5.15836 3.02539 4.89186 3.11256 4.66277C3.18957 4.4604 3.31471 4.27982 3.47716 4.13666C3.66105 3.97459 3.91058 3.88102 4.40966 3.69387L7.98419 2.35342C8.12278 2.30144 8.19208 2.27546 8.26337 2.26516C8.32661 2.25602 8.39083 2.25602 8.45406 2.26516C8.52535 2.27546 8.59465 2.30144 8.73325 2.35342L12.3078 3.69387C12.8069 3.88102 13.0564 3.97459 13.2403 4.13666C13.4028 4.27982 13.5279 4.4604 13.6049 4.66277C13.6921 4.89186 13.6921 5.15836 13.6921 5.69137V8.87964Z" stroke="#03BF5A" stroke-width="1.5" stroke-linecap="round" stroke-linejoin="round"/>
</g>
</svg>
