<svg width="25" height="25" viewBox="0 0 25 25" fill="none" xmlns="http://www.w3.org/2000/svg">
<mask id="mask0_16_2974" style="mask-type:luminance" maskUnits="userSpaceOnUse" x="0" y="0" width="25" height="25">
<path d="M24.3452 0.972656H0.345215V24.9727H24.3452V0.972656Z" fill="white"/>
</mask>
<g mask="url(#mask0_16_2974)">
<path d="M12.3452 0.972656C5.72002 0.972656 0.345215 6.34068 0.345215 12.9664C0.345215 19.5984 5.72002 24.9727 12.3452 24.9727C18.974 24.9727 24.3443 19.5983 24.3443 12.9664C24.3443 6.34068 18.974 0.972656 12.3452 0.972656ZM13.2003 19.6435C12.9216 19.8915 12.5986 20.0162 12.2327 20.0162C11.8542 20.0162 11.524 19.8938 11.2421 19.6485C10.9598 19.4036 10.8183 19.0608 10.8183 18.6203C10.8183 18.2295 10.9552 17.9007 11.2281 17.6341C11.5009 17.3676 11.8357 17.2343 12.2327 17.2343C12.6235 17.2343 12.9524 17.3676 13.2194 17.6341C13.4859 17.9007 13.6196 18.2295 13.6196 18.6203C13.6191 19.0544 13.4795 19.3955 13.2003 19.6435ZM16.6756 11.028C16.4614 11.425 16.2071 11.7674 15.9121 12.0561C15.618 12.3448 15.0891 12.83 14.3256 13.5121C14.1151 13.7045 13.9457 13.8735 13.8188 14.0189C13.6918 14.1649 13.597 14.2981 13.5351 14.4192C13.4727 14.5402 13.4249 14.6613 13.391 14.7823C13.3571 14.9029 13.3061 15.1157 13.2369 15.4197C13.1195 16.0648 12.7504 16.3873 12.1302 16.3873C11.8076 16.3873 11.5366 16.2821 11.3157 16.0711C11.0956 15.8601 10.9859 15.5471 10.9859 15.1315C10.9859 14.6107 11.0667 14.1593 11.228 13.7777C11.3884 13.3959 11.603 13.0612 11.8695 12.7725C12.1365 12.4839 12.4961 12.1414 12.9492 11.7444C13.3462 11.397 13.6331 11.135 13.8097 10.9583C13.9868 10.7812 14.1354 10.5843 14.256 10.3674C14.3776 10.1501 14.4372 9.91477 14.4372 9.66047C14.4372 9.16402 14.2534 8.74571 13.8839 8.40465C13.5148 8.0636 13.0386 7.89282 12.4554 7.89282C11.7729 7.89282 11.2705 8.06493 10.948 8.40916C10.6254 8.75338 10.3531 9.26022 10.1294 9.93017C9.91804 10.6313 9.51779 10.9818 8.92915 10.9818C8.58175 10.9818 8.2886 10.8594 8.04963 10.6145C7.81111 10.3696 7.69184 10.1045 7.69184 9.81902C7.69184 9.22993 7.88113 8.63273 8.25925 8.02786C8.63783 7.42299 9.18985 6.92199 9.91576 6.52536C10.6412 6.12828 11.4883 5.92949 12.4554 5.92949C13.3548 5.92949 14.1486 6.09571 14.837 6.42777C15.5255 6.75932 16.0576 7.21064 16.433 7.78161C16.8079 8.35214 16.9958 8.9724 16.9958 9.64235C16.9967 10.1687 16.8897 10.6308 16.6756 11.028Z" fill="#227E64"/>
</g>
</svg>
