<svg width="31" height="21" viewBox="0 0 31 21" fill="none" xmlns="http://www.w3.org/2000/svg">
<path d="M26.3452 0.612793H4.34521C2.13608 0.612793 0.345215 2.40365 0.345215 4.61279V16.6128C0.345215 18.8219 2.13608 20.6128 4.34521 20.6128H26.3452C28.5544 20.6128 30.3452 18.8219 30.3452 16.6128V4.61279C30.3452 2.40365 28.5544 0.612793 26.3452 0.612793Z" fill="#1F72CD"/>
<path fill-rule="evenodd" clip-rule="evenodd" d="M5.99058 7.57178L3.26318 13.6473H6.52826L6.93304 12.6786H7.85827L8.26304 13.6473H11.857V12.908L12.1772 13.6473H14.0363L14.3565 12.8923V13.6473H21.831L22.7398 12.7038L23.5908 13.6473L27.4298 13.6551L24.6938 10.6265L27.4298 7.57178H23.6504L22.7656 8.49788L21.9414 7.57178H13.8102L13.112 9.13993L12.3974 7.57178H9.13914V8.28596L8.77668 7.57178H5.99058ZM17.152 8.43454H21.4442L22.7569 9.86194L24.112 8.43454H25.4248L23.4302 10.6257L25.4248 12.7916H24.0525L22.7397 11.3476L21.3777 12.7916H17.152V8.43454ZM18.212 10.1328V9.33699L20.8902 9.33623L22.0588 10.609L20.8384 11.8887H18.212V11.0199H20.5535V10.1328H18.212ZM6.62234 8.43454H8.21389L10.023 12.5544V8.43454H11.7665L13.1638 11.3884L14.4515 8.43454H16.1863V12.7941H15.1307L15.1221 9.37798L13.5832 12.7941H12.639L11.0914 9.37798V12.7941H8.91988L8.5082 11.8168H6.28402L5.87318 12.7933H4.70969L6.62234 8.43454ZM6.66383 10.9131L7.39661 9.17204L8.12854 10.9131H6.66383Z" fill="white"/>
</svg>
