<svg width="33" height="32" viewBox="0 0 33 32" fill="none" xmlns="http://www.w3.org/2000/svg">
<mask id="mask0_16_3064" style="mask-type:luminance" maskUnits="userSpaceOnUse" x="0" y="1" width="33" height="31">
<path d="M32.3452 1.69824H0.345215V31.2659H32.3452V1.69824Z" fill="white"/>
</mask>
<g mask="url(#mask0_16_3064)">
<path d="M13.7983 4.3571C15.1265 4.3571 16.4051 4.54981 17.6134 4.90658C17.8061 4.96387 18.0014 5.02637 18.1994 5.09408C18.4181 5.1696 18.6343 5.25033 18.8478 5.33627L17.9676 6.95345C16.6733 6.45606 15.2697 6.18523 13.8009 6.18523H13.7983C12.1942 6.18523 10.6655 6.51075 9.27491 7.09929C9.04835 7.19564 8.82438 7.2972 8.60823 7.40658C7.48323 7.96908 6.4624 8.70866 5.58219 9.58887L5.57698 9.59408C5.28531 9.88575 5.00667 10.1956 4.74886 10.5186C4.48844 10.8441 4.24365 11.1827 4.01709 11.5342C2.84781 13.3467 2.17334 15.5004 2.17334 17.8103V17.8129C2.17334 19.417 2.49886 20.9457 3.0874 22.3363C3.18375 22.5629 3.28531 22.7868 3.39469 23.003C3.95719 24.1254 4.69677 25.1488 5.57959 26.029L5.58479 26.0342C5.87646 26.3259 6.18636 26.6045 6.50927 26.865C6.83479 27.1254 7.17334 27.3702 7.5249 27.5967C9.33479 28.7582 11.4884 29.4327 13.7983 29.4327H13.8009C15.4051 29.4327 16.9337 29.1071 18.3244 28.5186C18.5509 28.4222 18.7749 28.3207 18.991 28.2113C20.116 27.6488 21.1369 26.9092 22.0171 26.029H22.0197L22.0275 26.0212C22.3192 25.7295 22.5952 25.4222 22.8556 25.0993C23.116 24.7738 23.3608 24.4353 23.5874 24.0837C24.7488 22.2764 25.4233 20.1254 25.4233 17.8181L27.2488 17.5368C27.2515 17.628 27.2515 17.7191 27.2515 17.8103V17.8129C27.2515 19.6696 26.8738 21.4405 26.1942 23.0472C26.0848 23.3077 25.965 23.5655 25.8374 23.8207C25.1863 25.1228 24.3296 26.3051 23.3113 27.3233L23.3061 27.3285C22.9676 27.667 22.6082 27.99 22.2358 28.2894C21.8608 28.5915 21.4676 28.8754 21.0613 29.1358C18.9676 30.4821 16.4754 31.2634 13.8009 31.2634C11.9442 31.2634 10.1733 30.8858 8.56656 30.2061C8.30615 30.0967 8.04834 29.9769 7.79313 29.8493C6.49104 29.1983 5.30875 28.3415 4.29052 27.3233L4.28531 27.3155C3.94677 26.9769 3.62646 26.6202 3.32438 26.2452C3.02229 25.8702 2.73844 25.4769 2.47802 25.0707C1.12646 22.9769 0.345215 20.4847 0.345215 17.8103V17.8077C0.345215 15.9509 0.722819 14.1827 1.4025 12.5733C1.51188 12.3129 1.63167 12.0551 1.75927 11.7998C2.41031 10.4977 3.26709 9.31543 4.28531 8.2972L4.29052 8.292C4.62906 7.95345 4.98844 7.63314 5.36084 7.33106C5.73584 7.02898 6.12907 6.74512 6.53532 6.4847C8.63168 5.13835 11.1238 4.3571 13.7983 4.3571ZM14.8973 17.2035L23.34 1.69824L24.4311 10.5029L32.3452 14.5108L14.8973 17.2035ZM13.7983 13.5525H13.8009C13.9884 13.5525 14.1733 13.5655 14.353 13.5889L13.3556 15.4222C13.1811 15.4535 13.0119 15.5056 12.853 15.5733C12.8061 15.5941 12.7593 15.615 12.7124 15.6384C12.478 15.7556 12.2645 15.9092 12.0796 16.0941L12.0744 16.0993C12.0145 16.1592 11.9598 16.2217 11.9051 16.2868C11.8504 16.3545 11.7983 16.4248 11.7515 16.5004C11.5093 16.878 11.3686 17.3285 11.3686 17.8103V17.8129C11.3686 18.1488 11.4363 18.4665 11.5613 18.7582C11.5822 18.8077 11.603 18.8545 11.6265 18.8988C11.7436 19.1332 11.8973 19.3467 12.0822 19.5316L12.0874 19.5368C12.1473 19.5967 12.2098 19.654 12.2749 19.7061C12.3426 19.7608 12.4129 19.8129 12.4884 19.8597C12.866 20.1019 13.3166 20.2426 13.7983 20.2426C14.1343 20.2426 14.452 20.1749 14.7436 20.0525C14.7931 20.0316 14.8374 20.0108 14.8843 19.9874C15.1186 19.8702 15.3322 19.7165 15.5171 19.5316L15.5223 19.5264C15.5561 19.4926 15.5874 19.4587 15.616 19.4275C15.6447 19.3962 15.6733 19.3597 15.702 19.3233L17.8921 18.9847C17.8452 19.1514 17.7879 19.3155 17.7202 19.4717C17.6863 19.5525 17.6473 19.6358 17.6082 19.7165C17.4025 20.1306 17.1317 20.503 16.8087 20.8259L16.8009 20.8311C16.6942 20.9353 16.5848 21.0368 16.4676 21.1306C16.3478 21.2269 16.2254 21.3155 16.0952 21.3988C15.4311 21.8233 14.6447 22.0707 13.7983 22.0707C13.2098 22.0707 12.6499 21.9509 12.1421 21.7347C12.0613 21.7009 11.978 21.6618 11.8973 21.6228C11.4832 21.417 11.1108 21.1462 10.7879 20.8233L10.7801 20.8155C10.6759 20.7113 10.5744 20.5993 10.4806 20.4821C10.3843 20.3623 10.2957 20.24 10.2124 20.1097C9.78793 19.4483 9.54052 18.6592 9.54052 17.8129V17.8103C9.54052 17.2217 9.66031 16.6618 9.87646 16.154C9.91031 16.0733 9.94939 15.99 9.98845 15.9092C10.1942 15.4978 10.465 15.1228 10.7879 14.8025C10.8947 14.6957 11.0093 14.5941 11.1291 14.4978C11.2488 14.4014 11.3712 14.3129 11.5015 14.2295C12.1629 13.7998 12.952 13.5525 13.7983 13.5525ZM13.7983 8.917C14.5952 8.917 15.366 9.02116 16.0978 9.21908C16.2176 9.25033 16.3348 9.28418 16.452 9.32325C16.5145 9.34408 16.5796 9.36491 16.6421 9.38575L15.7515 11.0238C15.1317 10.8467 14.4754 10.7503 13.7957 10.7503C12.8218 10.7503 11.8921 10.9482 11.0457 11.3051C10.9129 11.3623 10.7775 11.4248 10.6395 11.4926L10.6291 11.4978C9.94939 11.8389 9.3348 12.2868 8.80095 12.8207L8.79573 12.8259C8.61865 13.003 8.45198 13.1905 8.29313 13.3858C8.13427 13.5837 7.98585 13.7894 7.84782 14.003C7.1421 15.1019 6.73323 16.4118 6.73323 17.8155V17.8181C6.73323 18.792 6.93115 19.7217 7.28792 20.5681C7.34521 20.7061 7.40771 20.8415 7.47542 20.9743C7.81656 21.6566 8.26709 22.2764 8.80354 22.8129C8.98324 22.9926 9.17335 23.1618 9.36866 23.3207C9.56658 23.4795 9.77229 23.628 9.98584 23.766C11.0848 24.4665 12.3947 24.8754 13.7983 24.8754H13.8009C14.7749 24.8754 15.7046 24.6775 16.5509 24.3207C16.689 24.2634 16.8244 24.2009 16.9572 24.1332C17.6395 23.792 18.2593 23.3415 18.7957 22.8051C18.9754 22.6254 19.1473 22.4353 19.3035 22.24C19.4624 22.042 19.6108 21.8363 19.7488 21.6228C20.3348 20.7113 20.715 19.6592 20.8296 18.5264L22.6837 18.24C22.6317 19.3103 22.3921 20.3311 21.9962 21.2712C21.9233 21.4431 21.8452 21.615 21.7593 21.7816C21.3296 22.6436 20.7619 23.4249 20.09 24.0967L20.0848 24.1019C19.8608 24.3259 19.6238 24.5368 19.3791 24.7374C19.1317 24.9379 18.8712 25.1254 18.603 25.2972C17.2176 26.1853 15.5692 26.7035 13.8035 26.7035C12.577 26.7035 11.4051 26.4535 10.3426 26.0056C10.1707 25.9327 9.99887 25.8545 9.8322 25.7686C8.97022 25.3389 8.18896 24.7712 7.51709 24.0993L7.51188 24.0915C7.28792 23.8676 7.07699 23.6332 6.87907 23.3858C6.67855 23.1384 6.49104 22.878 6.31917 22.6097C5.42854 21.2243 4.91292 19.5785 4.91292 17.8103V17.8077C4.91292 16.5811 5.16292 15.4092 5.61344 14.3467C5.68636 14.1748 5.76448 14.003 5.85042 13.8363C6.28011 12.9743 6.84781 12.1931 7.51969 11.5212L7.5249 11.516C7.74886 11.292 7.98323 11.0811 8.23063 10.8831C8.47802 10.6826 8.73844 10.4951 9.00667 10.3232C10.3843 9.43262 12.0327 8.917 13.7983 8.917Z" fill="#FF854C"/>
</g>
</svg>
