<svg width="17" height="18" viewBox="0 0 17 18" fill="none" xmlns="http://www.w3.org/2000/svg">
<path d="M13.0119 2.98242H3.67854C2.79481 2.98347 1.94758 3.335 1.32269 3.9599C0.697803 4.58479 0.346273 5.43202 0.345215 6.31575H16.3452C16.3441 5.43202 15.9926 4.58479 15.3677 3.9599C14.7428 3.335 13.8956 2.98347 13.0119 2.98242Z" fill="#59382A"/>
<path d="M0.345215 11.6495C0.346273 12.5332 0.697803 13.3804 1.32269 14.0053C1.94758 14.6302 2.79481 14.9817 3.67854 14.9828H13.0119C13.8956 14.9817 14.7428 14.6302 15.3677 14.0053C15.9926 13.3804 16.3441 12.5332 16.3452 11.6495V7.64941H0.345215V11.6495ZM5.01188 11.3161C5.01188 11.5139 4.95323 11.7072 4.84335 11.8717C4.73347 12.0361 4.57729 12.1643 4.39456 12.24C4.21183 12.3157 4.01077 12.3355 3.81679 12.2969C3.62281 12.2583 3.44462 12.1631 3.30477 12.0232C3.16492 11.8834 3.06968 11.7052 3.03109 11.5112C2.99251 11.3172 3.01231 11.1162 3.088 10.9334C3.16368 10.7507 3.29186 10.5945 3.45631 10.4847C3.62076 10.3747 3.8141 10.3161 4.01188 10.3161C4.27709 10.3161 4.53146 10.4214 4.71899 10.609C4.90653 10.7965 5.01188 11.0509 5.01188 11.3161Z" fill="#59382A"/>
</svg>
