<svg width="46" height="27" viewBox="0 0 46 27" fill="none" xmlns="http://www.w3.org/2000/svg">
<mask id="mask0_1_1209" style="mask-type:luminance" maskUnits="userSpaceOnUse" x="0" y="0" width="46" height="27">
<path d="M45.3105 0.509277H0.361328V26.5093H45.3105V0.509277Z" fill="white"/>
</mask>
<g mask="url(#mask0_1_1209)">
<g opacity="0.8">
<path fill-rule="evenodd" clip-rule="evenodd" d="M11.2637 5.13359C10.5586 1.78444 10.3382 1.65223 8.75179 1.5641V0.991216H15.8467V1.5641C13.9077 1.74037 13.8637 1.74037 14.5687 5.6624L16.9043 18.0455L19.6806 4.73698C20.2535 2.00478 20.0331 1.74037 18.2264 1.60816L17.6535 1.5641V0.991216H22.7213V1.5641C21.1789 1.6963 21.1789 2.09291 20.562 5.00138L16.023 26.5065H15.5823L11.7043 7.24884L7.60602 26.5065H7.16535L2.53823 3.94376C2.14162 1.96071 2.05348 1.65223 0.378906 1.5641V0.991216H7.29755V1.5641C5.53484 1.74037 5.49077 1.91664 6.19586 5.6624L8.57552 17.9573L11.2637 5.13359ZM29.7281 26.3743C27.2162 26.3743 25.7179 24.0387 25.145 24.0387C24.5281 24.0387 23.823 25.3607 23.6026 25.9336H23.0738V17.6488H23.6026C25.145 22.1878 27.6128 25.7573 29.6399 25.7573C30.8298 25.7573 31.5789 24.6556 31.5789 23.0251C31.5789 17.0319 23.206 13.1539 23.206 5.79461C23.206 2.798 25.3213 0.462402 27.6128 0.462402C29.684 0.462402 30.8298 2.13698 31.4908 2.13698C31.8433 2.13698 32.1077 1.87257 32.5484 0.814945H32.945V8.21833H32.4162C31.4467 4.64884 29.4637 1.03528 27.5247 1.03528C26.3348 1.03528 25.4535 2.13698 25.4535 3.76749C25.4535 9.54037 33.8264 13.198 33.8264 20.8217C33.8704 23.9946 31.9314 26.3743 29.7281 26.3743ZM38.4094 26.3743C35.8535 26.3743 34.8399 24.7878 34.8399 23.2454C34.8399 21.7031 35.7653 20.1166 37.1755 20.1166C38.6738 20.1166 39.2908 21.6149 38.5857 22.6726C38.0128 23.598 36.4704 23.6861 36.4704 24.3912C36.4704 25.4929 37.3959 25.7573 38.145 25.7573C40.3484 25.7573 40.2162 24.3912 40.2162 19.72V3.19461C40.2162 1.87257 39.9077 1.5641 38.4976 1.5641H37.9687V0.991216H45.3281V1.5641H44.7111C43.962 1.5641 43.6535 1.87257 43.6535 3.23867V19.4116C43.6535 23.9505 40.3925 26.3743 38.4094 26.3743Z" fill="white"/>
</g>
</g>
</svg>
