<svg width="16" height="17" viewBox="0 0 16 17" fill="none" xmlns="http://www.w3.org/2000/svg">
<path d="M12.6667 2.50977H3.33333C2.4496 2.51082 1.60237 2.86235 0.97748 3.48725C0.352588 4.11214 0.00105857 4.95937 0 5.8431H16C15.9989 4.95937 15.6474 4.11214 15.0225 3.48725C14.3976 2.86235 13.5504 2.51082 12.6667 2.50977Z" fill="#FF854C"/>
<path d="M0 11.1768C0.00105857 12.0605 0.352588 12.9077 0.97748 13.5326C1.60237 14.1575 2.4496 14.509 3.33333 14.5101H12.6667C13.5504 14.509 14.3976 14.1575 15.0225 13.5326C15.6474 12.9077 15.9989 12.0605 16 11.1768V7.17676H0V11.1768ZM4.66667 10.8434C4.66667 11.0412 4.60802 11.2345 4.49814 11.399C4.38826 11.5634 4.23208 11.6916 4.04935 11.7673C3.86662 11.843 3.66556 11.8628 3.47158 11.8242C3.2776 11.7856 3.09941 11.6904 2.95956 11.5505C2.81971 11.4107 2.72447 11.2325 2.68588 11.0385C2.6473 10.8445 2.6671 10.6435 2.74279 10.4607C2.81847 10.278 2.94665 10.1218 3.1111 10.012C3.27555 9.90207 3.46889 9.84342 3.66667 9.84342C3.93188 9.84342 4.18624 9.94878 4.37377 10.1363C4.56131 10.3238 4.66667 10.5782 4.66667 10.8434Z" fill="#FF854C"/>
</svg>
